<svg width="59" height="76" viewBox="0 0 59 76" xmlns="http://www.w3.org/2000/svg" class="picture">
    <path fill="white" d="M9.55432 40.1309C7.51343 40.3258 5.65918 40.5777 3.80187 40.6407C3.04916 40.6647 2.16793 40.4368 1.54067 40.0319C0.273911 39.2071 0.368765 38.6403 1.64777 37.8246C3.22663 36.8169 4.79325 35.7912 6.35682 34.7595C6.64138 34.5706 6.88311 34.3157 7.23804 34.0127C5.61328 32.4862 4.07114 30.9807 2.29951 29.1302C2.00576 28.8243 1.95375 28.0716 2.71564 28.2035C4.77184 28.5544 8.36405 29.2232 10.6314 29.6431C8.06419 21.8755 10.7354 15.4875 15.7321 9.69625C21.1265 3.44618 28.005 0.459099 36.3613 0.771003C36.7683 0.785998 37.2303 0.708022 37.57 0.869972C38.084 1.1159 38.7786 1.46079 38.8979 1.89566C39.0111 2.30353 38.5858 2.98732 38.2095 3.3712C35.9085 5.69848 33.4851 7.9118 31.2331 10.2841C29.642 11.9605 28.4242 13.9099 27.7571 16.6481C28.7608 15.9103 29.3972 15.4425 30.0336 14.9746C33.3046 12.5724 36.9855 11.2378 41.052 10.9469C41.7038 10.8989 42.3953 10.9079 43.0256 11.0608C44.8064 11.4957 45.348 13.1962 44.0598 14.4528C42.3616 16.1083 40.5349 17.6348 38.8122 19.2663C37.8759 20.154 36.3828 21.6566 35.5597 22.5173C36.6612 22.3463 38.5919 22.1604 39.6965 21.9955C42.9185 21.5156 46.1344 20.9818 49.3686 20.5979C50.4028 20.4749 51.5319 20.6069 52.5263 20.9068C53.0924 21.0777 53.7227 21.7645 53.8604 22.3283C53.9522 22.7122 53.3494 23.471 52.869 23.7379C50.874 24.8386 48.8056 25.8133 46.7678 26.842C46.37 27.0429 45.8682 27.3038 45.3358 27.6847C46.7892 27.5077 48.5608 27.2498 50.0234 27.1629C51.2902 27.0879 52.5814 27.0849 53.8359 27.2408C58.0738 27.7747 59.7597 31.2506 57.4924 34.8105C55.9258 37.2667 54.2062 39.63 52.6151 42.0713C51.6359 43.5708 50.4518 45.2413 49.4114 46.9927C49.1514 46.3869 49.0198 46.108 48.8668 45.7301C48.0865 43.8047 46.5536 42.5781 44.8278 41.5734C37.8974 37.5426 30.4131 34.8345 22.6687 32.7531C21.5488 32.4532 20.6767 32.3692 20.0403 33.6439C19.7955 34.1357 19.0795 34.7115 18.3299 34.5526C17.6353 34.4056 17.3109 33.5839 17.2222 32.9331C17.1794 32.6152 17.06 32.0963 16.6592 32.0423C13.7952 31.6585 14.2909 31.3106 13.3087 34.4806C13.1404 35.0264 13.0119 35.5933 12.9079 35.9951C11.7849 40.3408 13.0547 43.4238 14.652 47.3316C16.8397 52.682 18.2564 58.2273 17.1947 64.0155C16.7724 66.3248 15.8514 68.6371 14.7132 70.7124C12.862 74.0864 9.42581 75.7509 6.56183 75.112C3.19297 74.3593 0.439141 71.1443 0.108681 67.3684C-0.334992 62.27 0.705345 57.4025 2.96655 52.8229C4.80855 49.0921 6.84027 45.4482 8.78019 41.7653C9.03109 41.2855 9.24222 40.7876 9.5482 40.1279L9.55432 40.1309Z"/>
</svg>
