<svg width="729" height="150" viewBox="0 0 729 150" fill="#32468a" xmlns="http://www.w3.org/2000/svg">
    <path d="M660.788 143.903C660.583 143.903 660.327 143.595 660.02 142.98C659.713 142.468 659.405 142.109 659.098 141.904C658.791 141.699 657.869 141.341 656.333 140.828C656.025 140.726 655.872 140.623 655.872 140.521C655.872 140.418 655.821 140.367 655.718 140.367C655.718 140.264 655.616 140.213 655.411 140.213C654.796 140.213 654.182 140.059 653.567 139.752C653.055 139.444 652.799 139.086 652.799 138.676C652.799 138.266 652.748 138.009 652.645 137.907C652.543 137.804 652.441 137.702 652.338 137.599C652.338 137.394 652.338 137.241 652.338 137.138C652.338 136.933 652.287 136.779 652.185 136.677C652.185 136.574 652.082 136.472 651.877 136.37C651.672 136.267 651.57 135.601 651.57 134.371C651.57 133.141 651.468 132.526 651.263 132.526C651.16 132.526 651.058 132.475 650.955 132.372C650.955 132.167 650.955 132.013 650.955 131.911C650.955 131.706 650.904 131.552 650.802 131.45C650.802 131.347 650.751 131.245 650.648 131.142C650.648 130.937 650.597 130.732 650.495 130.527L650.648 128.067C650.546 127.862 650.392 127.76 650.187 127.76C649.88 127.452 649.726 126.94 649.726 126.223C649.624 126.018 649.573 125.864 649.573 125.761C649.573 125.659 649.522 125.608 649.419 125.608C649.317 125.505 649.214 125.403 649.112 125.3C649.112 124.788 649.061 124.48 648.958 124.378C648.958 124.173 648.907 123.968 648.805 123.763C648.497 123.148 648.293 122.276 648.19 121.149C648.088 119.919 647.985 119.202 647.883 118.997C647.985 118.894 648.088 118.843 648.19 118.843C648.293 118.74 648.344 118.484 648.344 118.074C648.241 117.459 648.19 116.588 648.19 115.461C648.293 115.358 648.344 114.948 648.344 114.231C648.446 113.411 648.6 111.617 648.805 108.85C648.805 106.595 648.753 105.467 648.651 105.467C648.549 105.365 648.497 105.211 648.497 105.006L648.651 104.084C648.651 103.776 648.497 103.52 648.19 103.315L648.036 102.392C648.241 101.982 648.395 101.316 648.497 100.394C648.702 99.3689 648.805 98.4977 648.805 97.7802C648.805 93.8854 648.856 91.0155 648.958 89.1706C648.958 87.6332 648.856 86.762 648.651 86.557C648.549 86.2495 648.497 85.2758 648.497 83.6359L648.036 74.2576C648.139 74.2576 648.19 73.2839 648.19 71.3365C648.293 70.5165 648.344 69.5428 648.344 68.4154C648.958 68.2104 649.317 68.0567 649.419 67.9542C649.522 67.8517 649.675 67.083 649.88 65.648C649.982 65.3406 650.034 65.0843 650.034 64.8793C650.136 64.6743 650.239 64.5718 650.341 64.5718C650.546 64.5718 650.648 63.7519 650.648 62.112C650.648 60.0621 650.495 58.8834 650.187 58.5759C649.982 58.1659 649.88 57.5509 649.88 56.731C649.88 55.8085 650.034 54.3736 650.341 52.4262C650.546 51.7087 650.751 49.5563 650.955 45.969C651.263 42.8942 651.416 39.8706 651.416 36.8982L651.724 31.056C651.826 30.851 651.877 30.4923 651.877 29.9798C651.98 29.3649 652.082 28.6986 652.185 27.9812C652.185 26.6487 652.338 25.2138 652.645 23.6764C652.748 23.3689 652.799 22.0365 652.799 19.6791C652.799 17.2192 652.85 15.8355 652.953 15.528C653.158 15.2206 653.26 14.8618 653.26 14.4519C653.26 13.4269 653.516 12.6069 654.028 11.992C654.54 11.377 654.899 11.0695 655.104 11.0695C655.411 11.0695 655.667 11.0183 655.872 10.9158C656.179 10.7108 656.538 10.4546 656.947 10.1471C657.459 9.73709 657.869 9.5321 658.176 9.5321L662.017 9.99332L665.551 9.83958C667.906 9.83958 670.108 10.3521 672.157 11.377C672.669 11.6845 673.232 11.8382 673.847 11.8382C675.486 11.6332 677.022 11.4795 678.456 11.377C679.992 11.2745 681.58 11.0183 683.219 10.6083C684.038 10.4033 684.755 10.3008 685.369 10.3008C686.086 10.1983 686.598 10.0958 686.906 9.99332C687.213 9.89083 690.849 9.63459 697.814 9.22461L707.032 10.6083C709.797 11.2233 712.563 12.4532 715.328 14.2981C716.352 14.8106 717.274 15.1693 718.093 15.3743C718.298 15.4768 718.554 15.5793 718.862 15.6818C719.271 15.7843 719.476 15.938 719.476 16.143C719.476 16.2455 720.244 16.7067 721.781 17.5267C723.317 18.2442 724.085 18.7566 724.085 19.0641C724.188 19.3716 724.341 19.5766 724.546 19.6791C725.161 20.2941 725.519 20.7553 725.621 21.0628C725.826 21.2678 726.082 21.6777 726.39 22.2927C726.39 22.4977 726.441 22.6002 726.543 22.6002C726.748 22.6002 726.85 22.7027 726.85 22.9077C726.85 24.0351 727.055 25.0601 727.465 25.9825C727.977 26.8025 728.233 27.8274 728.233 29.0574C728.233 29.5698 728.233 30.0823 728.233 30.5948C728.336 31.0048 728.438 31.3123 728.54 31.5172C728.745 31.6197 728.899 31.9785 729.001 32.5934V34.7458C729.001 36.8982 728.848 38.0257 728.54 38.1282C728.233 38.2307 728.08 38.3332 728.08 38.4357C728.182 38.4357 728.336 38.5382 728.54 38.7431C728.745 38.8456 728.848 39.5118 728.848 40.7418C728.848 41.3568 728.745 41.7667 728.54 41.9717C728.336 42.0742 728.233 43.0479 728.233 44.8928C728.233 49.3001 728.028 51.965 727.619 52.8874C727.209 53.7074 726.85 54.5273 726.543 55.3473C726.134 55.7573 725.826 56.1673 725.621 56.5772C725.519 56.8847 725.468 57.7559 725.468 59.1909C725.468 60.6258 724.597 61.702 722.856 62.4194L720.705 63.8031C718.657 65.4431 717.53 66.3143 717.325 66.4168C717.223 66.4168 716.506 66.7755 715.174 67.493C714.867 67.9029 714.56 68.1592 714.253 68.2617C713.945 68.3642 713.587 68.5179 713.177 68.7229C711.846 70.0553 710.463 70.8753 709.029 71.1828C707.698 71.4903 706.468 72.054 705.342 72.8739L703.959 73.4889C703.14 73.8989 702.628 74.1039 702.423 74.1039C702.32 74.1039 702.064 74.1551 701.655 74.2576C701.347 74.3601 700.989 74.4626 700.579 74.5651C699.248 74.5651 697.763 75.3338 696.124 76.8712L696.431 77.6399C697.148 79.1774 697.711 80.0998 698.121 80.4073C698.633 80.6123 698.889 80.8685 698.889 81.176C698.889 81.4835 699.606 82.6109 701.04 84.5583L705.649 91.4768C706.776 92.9117 707.493 94.0391 707.8 94.8591C708.21 95.5765 708.619 96.294 709.029 97.0115C709.541 97.6264 709.9 98.1389 710.104 98.5489C710.309 98.8564 710.514 99.1639 710.719 99.4713C710.924 99.7788 711.026 100.035 711.026 100.24C711.333 100.958 711.794 101.521 712.409 101.931L713.484 103.469C714.918 105.006 715.686 105.877 715.789 106.082C715.891 106.185 716.147 106.39 716.557 106.697C717.376 107.517 717.786 108.132 717.786 108.542C717.786 108.952 717.889 109.208 718.093 109.311C718.401 109.311 718.708 109.567 719.015 110.08C719.425 110.592 719.732 111.156 719.937 111.771C720.244 112.283 720.398 112.642 720.398 112.847C720.398 112.949 720.398 113.052 720.398 113.154C720.5 113.257 720.603 113.308 720.705 113.308C720.808 113.308 720.859 113.359 720.859 113.462C720.961 113.462 721.012 113.564 721.012 113.769C721.012 113.872 721.115 114.077 721.32 114.384C721.627 114.589 721.985 114.846 722.395 115.153C722.805 115.461 723.112 115.768 723.317 116.076C723.522 116.281 723.624 116.537 723.624 116.844C723.624 117.049 723.624 117.254 723.624 117.459C723.727 117.562 723.829 117.613 723.931 117.613C724.034 117.613 724.085 117.664 724.085 117.767V117.92C723.983 118.228 723.88 118.433 723.778 118.535C723.778 118.638 723.675 118.689 723.471 118.689C723.368 118.689 723.112 118.843 722.702 119.15C722.293 119.355 721.627 119.919 720.705 120.842C720.295 121.354 719.886 121.61 719.476 121.61C718.964 121.61 717.94 121.303 716.403 120.688C713.638 119.56 711.948 118.997 711.333 118.997C711.333 119.304 711.385 119.56 711.487 119.765C711.692 119.868 711.897 119.919 712.102 119.919C712.307 119.919 712.409 119.97 712.409 120.073C712.511 120.073 712.563 120.124 712.563 120.227C712.563 120.329 712.563 120.432 712.563 120.534C712.665 120.637 712.87 120.739 713.177 120.842V120.995L712.87 121.149L711.948 120.995C711.231 120.688 710.873 120.483 710.873 120.38C710.873 120.175 710.821 120.073 710.719 120.073C710.719 119.97 710.617 119.919 710.412 119.919C710.309 119.919 710.053 119.817 709.644 119.612C709.336 119.304 709.029 118.997 708.722 118.689C708.517 118.279 708.414 117.972 708.414 117.767C708.414 117.459 708.21 117.305 707.8 117.305C706.776 116.793 705.751 116.178 704.727 115.461C704.113 114.846 703.652 114.538 703.345 114.538C703.037 114.538 702.781 114.538 702.576 114.538C702.474 114.436 702.423 114.282 702.423 114.077C702.423 113.872 702.218 113.718 701.808 113.616C701.399 113.513 700.733 113.154 699.811 112.539C698.787 111.515 698.019 110.848 697.506 110.541C695.253 108.798 693.614 107.158 692.59 105.621C692.181 104.801 691.464 103.879 690.439 102.854C690.03 102.444 689.671 102.034 689.364 101.624C689.057 101.111 688.749 100.394 688.442 99.4713C687.828 98.8564 687.52 98.4977 687.52 98.3952C687.52 98.1902 687.315 97.8827 686.906 97.4727C686.496 97.0627 685.779 95.7303 684.755 93.4754C684.345 92.5529 684.089 92.0917 683.987 92.0917C683.884 91.9892 683.679 91.7842 683.372 91.4768C683.167 91.0668 682.911 90.6055 682.604 90.0931C681.785 88.4532 681.17 87.6332 680.76 87.6332C680.556 87.6332 680.453 88.0432 680.453 88.8631C680.453 89.7856 680.607 91.2718 680.914 93.3217L681.068 94.8591L680.914 96.8577C681.119 101.572 681.221 107.773 681.221 115.461C681.221 120.073 681.016 122.635 680.607 123.148C680.3 123.66 680.146 124.07 680.146 124.378C680.146 124.583 680.197 124.736 680.3 124.839C680.504 124.941 680.607 125.044 680.607 125.146C680.3 125.864 679.992 127.35 679.685 129.605C679.48 131.142 679.173 132.065 678.763 132.372C678.456 132.577 678.149 132.68 677.841 132.68C677.124 132.68 676.51 132.936 675.998 133.448C675.486 133.858 675.076 134.422 674.769 135.14C674.564 135.755 674.359 136.062 674.154 136.062L673.54 135.755C673.335 135.755 672.72 136.216 671.696 137.138C670.774 137.958 670.262 138.368 670.16 138.368C670.057 138.368 669.955 138.419 669.852 138.522C669.852 138.522 669.852 138.676 669.852 138.983C669.852 139.188 669.596 139.342 669.084 139.444C668.572 139.444 668.265 139.496 668.162 139.598C668.162 139.701 668.162 140.008 668.162 140.521L668.316 141.597C667.497 140.469 666.933 139.906 666.626 139.906C666.421 139.906 666.319 140.111 666.319 140.521C666.319 140.828 666.216 141.136 666.012 141.443C665.807 141.648 665.499 141.75 665.09 141.75L664.168 141.597C663.861 141.597 663.707 141.648 663.707 141.75C663.707 141.853 663.707 141.955 663.707 142.058C663.809 142.058 663.912 142.058 664.014 142.058C664.117 142.058 664.168 142.109 664.168 142.212C664.168 142.212 664.219 142.263 664.322 142.365V142.519C664.322 142.724 664.27 142.878 664.168 142.98H662.632L661.556 142.827C661.351 142.827 661.198 142.878 661.095 142.98C661.095 143.083 661.095 143.237 661.095 143.442C661.095 143.749 660.993 143.903 660.788 143.903ZM679.07 61.0358C679.275 61.0358 679.48 60.8308 679.685 60.4208C679.992 59.9083 680.197 59.3446 680.3 58.7296C680.402 58.1147 680.504 57.7047 680.607 57.4997C680.812 57.2947 681.17 57.0897 681.682 56.8847C682.911 56.4748 683.936 55.8085 684.755 54.8861C685.574 53.9636 686.138 53.5024 686.445 53.5024C686.752 53.5024 687.162 53.3487 687.674 53.0412C689.108 52.4262 690.081 51.8112 690.593 51.1963C691.105 50.5813 691.566 50.2738 691.976 50.2738C692.385 50.2738 693.154 49.7101 694.28 48.5826C695.407 47.4552 696.277 46.7377 696.892 46.4303C698.428 45.7128 699.196 45.2516 699.196 45.0466C698.889 44.9441 698.736 44.6878 698.736 44.2779C698.736 43.6629 698.838 43.2529 699.043 43.0479C699.248 42.7404 699.401 42.5354 699.504 42.4329V42.2792L699.35 42.1255C700.067 40.4855 700.528 38.4869 700.733 36.1295C700.733 35.5145 700.938 33.6696 701.347 30.5948L701.808 25.9825C701.194 21.6777 699.811 19.5253 697.66 19.5253C696.533 19.5253 695.458 19.2691 694.434 18.7566L691.976 18.2954C690.644 17.8854 687.93 17.6804 683.833 17.6804C679.224 17.6804 676.612 17.9367 675.998 18.4491C675.486 18.9616 675.23 19.5766 675.23 20.2941C675.23 20.6015 675.434 21.319 675.844 22.4465C675.742 22.6514 675.639 22.9077 675.537 23.2152C675.434 23.5226 675.383 25.5213 675.383 29.2111C675.383 31.1585 675.537 32.1322 675.844 32.1322C676.254 32.1322 676.459 32.2347 676.459 32.4397C676.459 32.6447 676.305 32.7472 675.998 32.7472C675.69 32.7472 675.383 32.9009 675.076 33.2084C674.871 33.4134 674.769 33.6696 674.769 33.9771L675.076 34.4384C675.486 34.4384 675.895 34.3359 676.305 34.1309L676.459 34.2846L676.305 35.3608C676.305 35.7708 676.407 36.1295 676.612 36.437C676.92 36.642 677.073 36.7957 677.073 36.8982V37.052L676.459 36.8982C676.766 37.6157 676.92 38.1794 676.92 38.5894C676.92 38.7944 676.766 38.9481 676.459 39.0506C676.254 39.1531 676.151 39.3069 676.151 39.5118C676.151 39.6143 676.254 39.6656 676.459 39.6656H676.766C676.971 39.6656 677.124 39.9218 677.227 40.4343C677.022 41.5617 676.92 42.6379 676.92 43.6629V44.5853L676.459 47.9677C676.561 48.1727 676.664 48.3777 676.766 48.5826C676.868 48.6851 676.971 49.1464 677.073 49.9663C677.278 50.6838 677.483 51.0938 677.688 51.1963C677.893 51.1963 678.097 51.35 678.302 51.6575C678.61 52.4774 678.763 53.1437 678.763 53.6561C678.763 53.7586 678.712 53.8611 678.61 53.9636C678.507 54.0661 678.456 54.3736 678.456 54.8861C678.456 55.1936 678.507 55.501 678.61 55.8085C678.814 56.0135 678.917 56.3723 678.917 56.8847C678.917 58.3197 678.61 59.1909 677.995 59.4983C677.38 59.7033 677.073 60.0621 677.073 60.5745C677.073 60.7795 677.227 60.882 677.534 60.882C677.841 60.882 677.995 60.7795 677.995 60.5745C677.995 60.3696 678.097 60.2671 678.302 60.2671C678.507 60.2671 678.661 60.4208 678.763 60.7283C678.866 60.9333 678.968 61.0358 679.07 61.0358Z" fill="#32468A"/>
    <path d="M545.465 139.2C545.265 139 545.265 138.2 545.465 138C545.265 138 545.065 137.4 544.665 138.4C544.265 138.4 543.665 137.6 543.465 137C542.266 133.8 543.266 130 543.865 126.4C543.865 124.4 545.265 108.6 545.465 106.6C545.665 106 546.665 98.8 546.865 96C548.465 83.4 551.264 71 553.264 58.2C553.864 55 555.463 51.8 555.863 48.6L556.063 48.2C556.063 48 555.663 47.2 555.863 47C557.263 40 559.063 32.8 560.262 25.8C560.462 25.4 560.862 20.8 561.062 20.4C561.862 15.2 562.662 11.8 563.862 7.19999C565.461 2.2 565.861 2.2 570.061 2.2H570.461L573.86 2.59999C573.86 2.59999 574.46 3 574.66 3L575.06 2.59999C575.06 2.59999 575.46 2.79999 575.66 2.79999L576.259 3C576.459 3 576.659 3.39999 576.859 3.39999C577.459 3.39999 579.459 2.2 580.259 2H580.459C582.858 2.39999 582.458 4 586.458 4.59999C588.457 4.59999 590.057 3.8 591.857 4.2C596.256 4.59999 597.056 7.6 599.055 11.4C599.455 12.6 601.655 17.4 601.855 18.2C602.055 18.4 602.855 19.2 602.855 19.4L603.255 19.6C603.854 19.4 604.654 19.2 604.854 19H605.054C604.854 19.4 604.654 22.8 605.254 23H605.454C605.654 22.8 606.254 22.8 606.254 22.6C607.654 28.8 610.453 34.6 612.053 40.8C615.252 53 617.452 63.2 619.852 76C620.051 77.6 621.251 80.2 620.851 82H620.451C619.652 82 619.052 72.2 617.852 69.8L614.452 54.2C613.653 54.6 613.453 54.8 613.453 55.2C613.253 55.8 614.053 60.8 614.452 61.8L616.252 69.2C616.252 69.2 616.652 69.8 616.652 70L622.651 102.8C623.451 110.6 626.65 120.6 625.65 128.2C625.65 128.2 625.85 129.8 625.051 129.6L624.851 131C624.851 132.2 625.051 133.4 624.651 134.8C624.451 136.2 621.851 139.2 620.851 139.8C619.252 140 619.452 138.8 618.852 141.8C617.852 141.8 618.052 140.8 617.452 140.6C617.452 141.2 616.852 142.4 616.252 143C616.252 143 615.452 143.2 615.252 143.2C614.652 143.2 613.853 142.8 613.853 142C613.453 142.4 613.253 142.4 612.853 142.4H612.453C609.853 140 608.254 135 607.254 129.4L607.054 128C606.054 123.2 604.854 112.4 603.854 108.4L603.255 107.8L601.255 94C601.455 93.2 600.855 93.2 600.455 93.2C598.255 93 576.459 100.2 575.66 101.2C575.26 105.2 574.86 109.4 573.46 113.4C572.86 115.6 571.26 117.8 570.86 120.2C570.461 120.8 569.661 125 569.461 125.6C569.261 126.6 567.261 131.4 566.061 131.2H565.861C565.861 131.2 565.261 131 565.062 130.8C565.461 132 564.862 131.2 564.662 132.4L564.262 134C563.662 135.4 561.262 135.8 560.462 136.6C556.863 139.2 552.464 141.8 547.665 141.2H546.065C546.065 141 545.265 139.6 545.465 139.2ZM580.259 70.8L578.259 86C578.259 86.8 578.459 86.8 579.259 86.8C580.059 86.8 580.659 86 581.459 86L581.658 86.4C581.658 86.4 582.058 86.6 582.258 86.6H582.458L590.257 85.4C591.457 85.6 596.456 86.2 597.656 86.2C598.455 86 599.655 86.4 599.855 85.6V85.4L596.056 66.6C595.256 62.4 594.256 58.2 593.256 54C591.657 45.8 589.657 38.4 587.058 30.6L586.658 28.6C586.258 30.4 584.658 39.2 583.858 41L583.658 41.8C583.658 42.6 583.858 42.8 584.258 42.8L583.458 50.8L584.058 51.4C583.858 51.4 583.458 54.2 583.258 55.2C582.858 59.4 581.259 63.4 580.659 67.8C580.459 68.4 580.859 68.8 580.659 69.6C580.659 70 580.859 70.8 580.259 70.8ZM620.851 83.4C621.851 83.8 625.65 103.8 625.45 105.2V105.8L624.851 105.2C624.851 105.2 622.451 92.8 621.251 87.6C621.251 86 620.651 84.6 620.851 83.4ZM613.053 50.2C612.853 50.8 612.853 52 613.653 52.2C613.653 51.8 613.853 50.4 613.053 50.2ZM565.661 127.4L565.261 128.8C566.061 128.6 566.261 127.6 566.261 127.4H565.661ZM606.254 24C606.054 24 605.854 25 606.054 25C606.654 25 606.854 24.2 606.254 24ZM612.453 46.4C611.853 46.4 611.653 47.2 612.253 47.2C612.653 47.2 612.853 46.4 612.453 46.4ZM565.661 129.6C565.261 129.6 565.062 130.6 565.461 130.6C565.861 130.6 566.061 129.6 565.661 129.6ZM547.065 100.4C546.865 100.8 547.065 101 547.465 101.2L547.665 100.4H547.065ZM625.051 107.4V107.2C625.251 107.2 625.45 107.8 625.65 107.8V108.2C625.051 108.2 625.051 107.8 625.051 107.4ZM565.861 122.8L565.661 123.6C566.061 123.6 566.261 123.4 566.261 123L565.861 122.8ZM607.654 28.4C607.254 28.4 607.254 29.2 607.654 29.2C607.854 29.2 607.854 28.4 607.654 28.4ZM601.455 14.2L601.655 14L602.055 15H601.855C601.855 14.8 601.455 14.6 601.455 14.4V14.2ZM575.06 35V35.8L575.66 35.6L575.06 35ZM558.463 38.2C558.263 38.4 558.463 38.8 558.663 39L558.863 38.2H558.463ZM608.854 35.4V36L609.453 36.2L608.854 35.4ZM551.664 139.6L551.464 140H551.864L552.064 139.6H551.664ZM554.064 118.6C553.864 118.6 553.864 119.2 554.064 119C554.463 119 554.463 118.6 554.064 118.6ZM576.06 58.8C575.86 58.8 575.86 59.2 576.06 59.2C576.459 59.2 576.459 58.8 576.06 58.8ZM562.262 125.2C562.062 125.2 562.062 125.6 562.262 125.6C562.662 125.6 562.662 125.4 562.262 125.2ZM601.455 12.8C601.855 12.8 601.855 13.2 601.455 13.2V12.8ZM562.462 76.4C562.262 76.4 562.062 77 562.262 77C562.462 77 562.462 76.6 562.462 76.4ZM583.458 45.4C583.258 45.4 583.058 45.6 583.458 45.6C583.858 45.6 583.858 45.4 583.458 45.4ZM621.851 112.2C621.851 111.8 621.651 112.6 621.851 112.6C622.051 112.6 622.051 112.2 621.851 112.2ZM603.055 16.8V17.8C602.855 17.6 602.855 17.2 603.055 16.8ZM611.453 44.8V45.2L611.853 44.8H611.453ZM610.653 41.8V42.2H611.053L610.653 41.8ZM606.454 26.6V27H606.854L606.454 26.6ZM546.265 119C546.065 119 545.865 119.6 546.065 119.4C546.265 119.4 546.465 119.2 546.265 119ZM585.458 5C585.258 5 585.258 5.39999 585.458 5.19999C585.858 5.19999 585.858 5 585.458 5Z" fill="#32468A"/>
    <path d="M467.408 119.562C470.354 118.151 473.171 116.803 475.861 115.52C484.058 111.735 491.839 107.981 499.204 104.26C499.78 103.939 500.229 103.426 500.549 102.72C500.869 101.95 501.157 101.116 501.413 100.218L501.798 99.0627C502.246 97.6511 502.63 96.1754 502.95 94.6355C503.463 91.2349 504.615 88.508 506.409 86.4549C508.842 84.0809 510.059 81.4823 510.059 78.6592V78.0817C509.995 72.4996 509.739 66.9175 509.29 61.3354C509.098 59.3464 508.97 57.3253 508.906 55.2721V54.5022C508.906 49.3692 508.33 44.4288 507.177 39.6808C505.704 34.2912 503.975 31.1152 501.99 30.1527C500.004 29.1261 498.051 28.6129 496.13 28.6129C494.017 28.6129 491.551 28.9978 488.733 29.7678C485.787 30.4735 482.617 31.1152 479.223 31.6926C477.43 31.9493 475.541 32.2701 473.556 32.6551C473.492 36.8256 473.428 41.0603 473.364 45.3591C473.364 55.8817 473.107 66.6288 472.595 77.6005C472.211 82.9901 471.506 88.3797 470.482 93.7693C469.969 96.7849 469.521 99.8005 469.137 102.816C468.689 106.409 468.304 110.131 467.984 113.98C467.792 115.777 467.6 117.638 467.408 119.562ZM481.048 134.961C479.319 137.656 477.814 139.196 476.534 139.581C475.253 139.902 474.324 140.062 473.748 140.062C471.955 140.062 469.713 139.421 467.024 138.137C465.102 137.111 463.213 136.597 461.356 136.597C459.947 136.597 458.538 136.886 457.129 137.464C456.105 137.977 455.208 138.234 454.44 138.234C453.927 138.234 453.479 138.137 453.095 137.945C452.07 137.56 451.43 136.373 451.173 134.384C450.981 132.78 450.693 131.176 450.309 129.572C449.797 127.39 449.476 125.177 449.348 122.931C448.772 104.581 448.324 86.1982 448.003 67.7837C447.875 59.571 447.811 51.3262 447.811 43.0493L447.619 24.3782C447.555 23.6082 447.395 22.8062 447.139 21.9721C446.947 21.3305 446.819 20.6889 446.755 20.0472C446.627 19.4056 446.562 18.7961 446.562 18.2186C446.562 15.203 448.131 12.9573 451.269 11.4816C452.935 10.84 454.568 10.2305 456.169 9.653C460.587 8.24143 464.686 6.41282 468.464 4.16715C470.642 2.75559 472.691 2.0498 474.612 2.0498C474.997 2.0498 475.381 2.08189 475.765 2.14605C478.006 2.4027 480.312 3.01223 482.681 3.97466C482.874 4.03883 483.098 4.10299 483.354 4.16715C486.876 5.32206 490.494 6.22033 494.209 6.86195C494.657 6.99027 495.137 7.08652 495.65 7.15068C505 8.75473 512.364 13.3423 517.744 20.9134C522.034 27.3938 525.397 34.2912 527.83 41.6056C529.047 46.2253 529.719 51.0375 529.847 56.0421C529.911 58.1594 530.04 60.2126 530.232 62.2016C530.232 62.33 530.2 62.4583 530.136 62.5866C530.136 62.7149 530.104 62.8433 530.04 62.9716C529.976 63.1641 529.911 63.3245 529.847 63.4528C529.847 63.517 529.847 63.5811 529.847 63.6453V63.7415C530.744 67.3988 531.192 70.9918 531.192 74.5207C531.192 79.5254 530.296 84.4658 528.503 89.3421C527.798 91.8445 527.19 94.3147 526.677 96.7528C526.549 97.587 526.485 98.4531 526.485 99.3514C526.485 99.993 526.517 100.667 526.581 101.373C526.645 102.014 526.677 102.624 526.677 103.201C526.677 104.549 526.485 105.8 526.101 106.955C524.308 111.446 521.65 115.231 518.128 118.311C510.251 124.535 501.99 130.117 493.344 135.058C492.192 135.571 490.847 135.827 489.31 135.827C488.285 135.827 487.132 135.699 485.851 135.443C484.314 135.186 482.713 135.025 481.048 134.961Z" fill="#32468A"/>
    <path d="M358.502 150C358.292 150 358.186 149.895 358.186 149.684C358.186 149.578 357.818 149.42 357.08 149.209C356.448 148.998 355.763 148.577 355.026 147.944C354.394 147.417 354.025 146.942 353.92 146.521C353.92 146.204 353.762 145.73 353.446 145.097C352.181 142.672 351.444 141.196 351.233 140.669C351.023 140.037 350.759 138.455 350.443 135.925C350.443 135.503 350.549 135.24 350.759 135.134L351.075 132.762C351.286 132.551 351.391 132.393 351.391 132.287C351.391 132.182 351.286 132.129 351.075 132.129C350.865 132.024 350.759 131.708 350.759 131.18C350.654 131.18 350.601 131.128 350.601 131.022H350.443C350.338 131.022 350.285 130.917 350.285 130.706L350.443 130.548C350.549 130.442 350.601 130.073 350.601 129.441C350.601 128.808 350.865 128.228 351.391 127.701C351.286 127.596 351.181 127.543 351.075 127.543C350.97 127.438 350.865 127.227 350.759 126.91C350.759 126.594 350.759 126.225 350.759 125.803C350.759 124.433 350.865 123.484 351.075 122.957C351.286 122.43 351.391 121.955 351.391 121.533C351.391 121.006 351.549 120.532 351.865 120.11C352.181 119.688 352.339 119.319 352.339 119.003C352.129 117.949 352.023 116.894 352.023 115.84V112.361C352.234 112.361 352.339 110.937 352.339 108.091C352.339 104.612 352.392 102.608 352.497 102.081C352.603 101.449 352.708 100.658 352.814 99.709V93.0668L353.288 87.8479L354.394 78.6754C354.921 76.7776 355.184 74.3527 355.184 71.4006C355.605 67.4996 356.027 64.1785 356.448 61.4373C356.659 60.4884 356.764 59.4868 356.764 58.4325C356.869 57.2727 356.975 55.5331 357.08 53.2136C357.186 52.3702 357.238 51.4213 357.238 50.367C357.554 42.9867 357.765 38.9276 357.87 38.1896C358.081 36.5027 358.292 34.8685 358.502 33.287C358.713 31.6001 358.818 30.7039 358.818 30.5985C358.818 30.3876 358.871 30.2295 358.976 30.1241C358.976 29.5969 358.871 29.0697 358.66 28.5426C358.766 28.3317 358.871 28.0681 358.976 27.7519C359.187 27.4356 359.451 26.1704 359.767 23.9563L359.925 21.2678C359.925 19.6863 359.925 18.5266 359.925 17.7885C360.03 17.0505 360.135 16.5761 360.241 16.3652C360.451 16.1544 360.609 15.7853 360.715 15.2582L360.873 5.61119H361.979C362.716 5.61119 363.19 5.55847 363.401 5.45304C363.612 5.24217 364.033 5.13674 364.665 5.13674C365.613 5.13674 366.825 5.24217 368.3 5.45304L372.566 6.40193C372.988 6.40193 373.199 6.50736 373.199 6.71822L372.883 8.61599C372.883 8.93228 373.041 9.09043 373.357 9.09043C373.673 9.09043 373.831 9.19586 373.831 9.40673L373.673 10.0393C373.673 11.0936 374.094 12.148 374.937 13.2023C375.253 13.8349 375.464 14.2566 375.569 14.4675C375.78 14.5729 375.938 14.731 376.043 14.9419C376.043 16.3125 376.254 17.3668 376.675 18.1049C377.096 18.7374 377.307 19.2119 377.307 19.5282C377.202 19.739 377.149 20.0553 377.149 20.4771C377.149 21.1097 377.255 21.9004 377.465 22.8493C377.676 23.6927 377.834 24.2199 377.939 24.4307C378.045 24.6416 378.203 24.9579 378.413 25.3796C378.729 25.6959 379.098 26.2758 379.52 27.1193C380.046 27.9627 380.52 28.8062 380.942 29.6496L383.312 34.7103L384.892 37.3989V38.0314C384.892 38.5586 385.208 39.2966 385.84 40.2455C386.051 40.6672 386.315 40.8781 386.631 40.8781V41.3525L387.105 42.4596C387.315 42.6704 387.473 42.8813 387.579 43.0922C387.684 43.303 387.789 44.1465 387.895 45.6225C388.105 45.728 388.263 45.9388 388.369 46.2551C388.58 46.466 388.738 46.7296 388.843 47.0459C388.948 47.2567 389.001 47.4676 389.001 47.6784C389.106 47.8893 389.212 48.1002 389.317 48.311C389.528 48.4165 389.844 48.7855 390.265 49.4181C391.213 51.2104 391.74 52.4229 391.845 53.0555C392.056 53.5826 392.214 54.0044 392.319 54.3206C392.425 54.5315 392.53 54.6897 392.635 54.7951H392.477C393.004 55.744 393.373 56.3766 393.584 56.6929C393.9 57.0092 394.058 57.2727 394.058 57.4836C394.058 57.6945 394.11 57.9053 394.216 58.1162C394.426 58.3271 394.532 58.4852 394.532 58.5906C394.637 58.6961 394.742 58.8542 394.848 59.0651C394.953 59.1705 395.006 59.3287 395.006 59.5395C395.006 59.645 395.006 59.8031 395.006 60.014C395.111 60.2248 395.217 60.383 395.322 60.4884V60.6466C395.427 60.752 395.48 60.9628 395.48 61.2791C395.585 61.49 395.743 61.8063 395.954 62.228C396.165 62.5443 396.375 62.8079 396.586 63.0188C397.323 63.7568 397.692 64.3367 397.692 64.7584C397.692 65.1801 397.798 65.6018 398.008 66.0236C398.324 66.3399 398.535 66.498 398.64 66.498C399.378 66.498 399.747 61.9644 399.747 52.8973C399.747 48.0475 399.799 45.5698 399.905 45.4644C400.115 45.2535 400.221 44.7264 400.221 43.8829C400.221 42.934 400.431 42.2487 400.853 41.827C401.485 40.9835 401.801 38.664 401.801 34.8685C401.801 33.4979 401.695 32.2854 401.485 31.2311C401.485 30.3876 401.59 29.7551 401.801 29.3333C402.117 28.8062 402.644 26.2758 403.381 21.7422L403.223 21.1097C403.434 19.3173 403.75 17.525 404.171 15.7326C404.487 15.4163 404.645 14.731 404.645 13.6767C404.645 12.517 404.751 11.8844 404.961 11.7789C405.277 11.5681 405.488 11.3572 405.593 11.1464C405.593 10.5138 405.593 10.1448 405.593 10.0393C405.699 9.82845 405.804 9.61759 405.909 9.40673C407.279 7.61439 407.964 5.9802 407.964 4.50415C407.964 4.18785 407.858 4.02971 407.648 4.02971V3.87156C407.542 3.87156 407.49 3.81885 407.49 3.71341L407.332 3.55527C407.332 3.02811 408.596 2.71181 411.124 2.60638C411.546 2.50095 411.809 2.44823 411.914 2.44823C412.125 2.44823 412.23 2.29009 412.23 1.97379C412.23 1.6575 412.704 1.49935 413.653 1.49935C414.601 1.49935 415.549 1.44663 416.497 1.3412C417.55 1.13034 418.604 1.0249 419.657 1.0249C421.027 1.0249 422.291 1.18305 423.45 1.49935C424.714 1.81565 425.399 2.13194 425.504 2.44823C425.715 2.76453 425.873 3.02811 425.978 3.23897C426.189 3.3444 426.505 3.39711 426.927 3.39711C427.769 3.50255 428.191 3.87156 428.191 4.50415C428.191 5.13674 427.769 5.87476 426.927 6.71822C426.4 7.24538 426.031 7.87797 425.82 8.61599C425.61 9.35401 425.399 11.0936 425.188 13.8349L424.872 17.6304L425.346 21.4259L424.714 26.803L424.872 28.5426L424.714 31.3892C424.714 33.6033 424.767 34.9212 424.872 35.3429C425.083 36.6081 425.188 39.2966 425.188 43.4085C425.188 47.7312 425.083 49.9979 424.872 50.2088C424.767 50.3142 424.714 50.8941 424.714 51.9484V62.8606C424.714 68.0268 424.872 71.2424 425.188 72.5076C425.399 72.9294 425.557 73.6674 425.662 74.7217C425.662 77.9901 425.715 81.3639 425.82 84.8431C425.926 88.3224 426.084 90.4837 426.294 91.3272C426.294 91.6435 426.452 92.1179 426.769 92.7505L426.611 93.5413C426.611 93.7521 426.769 94.0157 427.085 94.332C427.717 95.5972 428.033 97.2314 428.033 99.2346C428.033 99.9726 428.033 100.658 428.033 101.29C428.138 101.818 428.243 102.239 428.349 102.556C428.559 102.872 428.665 103.61 428.665 104.77C428.665 105.719 428.559 106.193 428.349 106.193C428.243 106.193 428.138 106.457 428.033 106.984C428.033 107.406 428.033 107.88 428.033 108.407C428.033 109.04 428.085 109.567 428.191 109.989C428.191 110.305 427.822 110.674 427.085 111.096C426.347 111.412 425.82 111.728 425.504 112.045C425.294 112.361 425.188 112.835 425.188 113.468C425.188 115.26 425.136 116.262 425.03 116.473C424.925 116.684 424.609 117.053 424.082 117.58L423.924 117.896C423.713 118.212 423.555 118.37 423.45 118.37C422.397 118.37 421.87 118.898 421.87 119.952C421.87 120.585 421.764 120.901 421.554 120.901C421.343 120.901 421.132 121.27 420.922 122.008C420.711 122.746 420.5 123.115 420.29 123.115C420.184 123.115 420.079 123.168 419.974 123.273L419.183 123.906C419.078 123.906 418.551 123.537 417.603 122.799C417.498 123.009 417.34 123.326 417.129 123.747C417.024 124.064 416.708 124.222 416.181 124.222L415.865 124.064C415.127 124.064 414.601 124.011 414.285 123.906C410.914 123.695 408.28 122.746 406.384 121.059C404.487 119.372 403.539 118.476 403.539 118.37C403.644 118.054 403.802 117.791 404.013 117.58C403.486 117.58 402.96 117.158 402.433 116.315C401.801 115.893 401.327 115.366 401.011 114.733C400.484 114.206 400.115 113.784 399.905 113.468C399.799 113.152 399.694 112.993 399.588 112.993C399.483 112.993 399.43 112.941 399.43 112.835V111.886C398.798 111.254 398.482 109.83 398.482 107.616L398.166 106.984V106.668C398.061 106.457 397.956 106.088 397.85 105.56C397.745 105.033 397.692 104.243 397.692 103.188C397.587 102.767 397.429 102.503 397.218 102.398C397.113 102.292 396.955 101.818 396.744 100.974C396.533 100.025 396.217 99.3927 395.796 99.0764C395.48 98.7601 395.322 98.4966 395.322 98.2857C395.322 97.9694 395.164 97.6004 394.848 97.1786C394.532 96.6515 394.321 96.1243 394.216 95.5972C393.794 94.7537 393.531 94.1738 393.426 93.8575C393.426 93.4358 393.373 93.225 393.268 93.225C393.162 93.225 393.057 92.8559 392.952 92.1179C392.846 91.3799 392.583 90.8527 392.161 90.5365C391.845 90.1147 391.687 89.7984 391.687 89.5876C391.687 89.2713 391.635 89.0604 391.529 88.955C391.424 88.7441 391.319 88.586 391.213 88.4805C390.476 87.7425 389.949 86.9518 389.633 86.1083C389.422 85.6866 389.317 85.2121 389.317 84.685C389.212 84.5796 389.001 84.4214 388.685 84.2106C388.369 83.8943 388.158 83.578 388.053 83.2617C388.053 82.9454 387.947 82.5236 387.737 81.9965C386.262 79.9933 385.524 78.57 385.524 77.7265H385.366C385.156 77.7265 384.787 77.0939 384.26 75.8287C383.839 74.4581 383.365 73.2984 382.838 72.3495C382.417 71.4006 382.206 70.768 382.206 70.4517C382.206 70.03 382.048 69.5028 381.732 68.8702C381.416 68.2376 381.047 67.605 380.626 66.9725C380.31 66.2344 379.994 65.76 379.678 65.5491C379.361 65.2328 379.203 65.022 379.203 64.9165C378.466 62.8079 377.887 61.7536 377.465 61.7536C377.36 61.7536 377.307 61.9644 377.307 62.3862C377.096 64.9165 376.938 67.4996 376.833 70.1354C376.833 70.8734 376.78 71.3479 376.675 71.5587C376.57 71.7696 376.464 72.0332 376.359 72.3495L376.833 75.5124C376.833 75.8287 376.728 76.0923 376.517 76.3032C376.412 76.4086 376.359 76.8303 376.359 77.5683C376.043 79.7824 375.885 81.522 375.885 82.7872C375.78 83.5252 375.674 83.9997 375.569 84.2106L375.253 90.3783C375.253 99.6563 375.042 105.35 374.621 107.458C374.937 108.934 375.148 110.516 375.253 112.203C375.358 113.89 375.411 116.473 375.411 119.952L374.937 122.008C375.358 123.695 375.569 125.751 375.569 128.176C375.358 134.607 375.148 138.033 374.937 138.455C374.726 138.877 374.41 139.246 373.989 139.562C373.567 139.879 373.304 140.195 373.199 140.511C373.093 140.827 373.041 141.355 373.041 142.093C373.041 143.358 372.777 144.096 372.25 144.307C371.829 144.518 371.618 145.466 371.618 147.153C371.513 147.364 371.197 147.47 370.67 147.47C370.249 147.47 369.985 147.522 369.88 147.628C369.775 147.733 369.669 147.944 369.564 148.26C369.564 148.577 369.09 148.735 368.142 148.735C367.72 148.735 366.983 148.471 365.929 147.944C365.719 147.944 365.561 148.049 365.455 148.26C365.35 148.471 365.192 148.577 364.981 148.577L363.401 148.26C362.98 148.26 362.664 148.366 362.453 148.577C362.242 148.893 361.874 149.104 361.347 149.209C360.083 149.736 359.134 150 358.502 150ZM406.7 14.4675C406.91 14.4675 407.016 14.362 407.016 14.1512C407.016 13.9403 406.91 13.8349 406.7 13.8349C406.489 13.8349 406.384 13.9403 406.384 14.1512C406.384 14.362 406.489 14.4675 406.7 14.4675Z" fill="#32468A"/>
    <path d="M289.153 138.132C284.208 138.132 281.581 138.132 281.271 138.132C281.065 138.029 280.911 137.926 280.808 137.823C280.808 137.72 280.808 137.565 280.808 137.358C280.808 137.152 280.653 136.946 280.344 136.74C280.035 136.533 279.623 136.43 279.108 136.43C278.696 136.43 278.49 136.379 278.49 136.275C278.49 136.172 278.386 136.069 278.18 135.966C277.15 135.45 276.377 134.986 275.862 134.573C275.347 134.161 274.832 133.748 274.317 133.336C273.905 132.82 273.698 132.459 273.698 132.252L272.926 130.086C272.205 128.848 271.844 128.178 271.844 128.075C271.844 127.869 271.741 127.662 271.535 127.456C270.711 126.631 270.247 126.218 270.144 126.218C270.041 126.115 269.989 126.012 269.989 125.909C270.504 124.465 270.762 123.536 270.762 123.124V120.184C270.762 118.121 270.659 116.78 270.453 116.161V116.006H270.607C270.711 116.006 270.762 115.697 270.762 115.078C270.762 113.737 270.659 112.912 270.453 112.602C270.247 112.293 270.144 111.983 270.144 111.674C269.629 108.167 269.371 105.846 269.371 104.711C269.371 103.989 269.474 103.422 269.68 103.009L269.989 100.688L270.298 96.201C270.814 95.3758 271.071 94.2927 271.071 92.9517C271.071 92.3328 271.174 91.5592 271.38 90.6308C271.689 89.0835 271.895 86.2984 271.998 82.2755C272.205 79.3873 272.411 77.7369 272.617 77.3243C272.823 76.8085 272.926 75.8286 272.926 74.3844C272.926 73.0435 272.874 72.2182 272.771 71.9088C272.668 71.5993 272.565 71.3415 272.462 71.1352C272.462 70.6194 272.565 69.9489 272.771 69.1237C272.977 68.2985 273.183 67.6796 273.389 67.267C273.698 66.7512 273.905 66.287 274.008 65.8744C273.802 65.4618 273.698 65.1008 273.698 64.7913C273.802 64.4819 273.905 64.0177 274.008 63.3988C274.317 61.8515 274.471 60.6137 274.471 59.6853C274.471 58.6538 274.523 58.1381 274.626 58.1381C274.832 58.1381 274.986 57.9318 275.089 57.5192C275.089 55.9719 275.141 54.6825 275.244 53.651C275.45 52.6194 275.553 51.6395 275.553 50.7111C275.862 48.545 276.017 46.9977 276.017 46.0693C276.017 44.522 276.171 43.2842 276.48 42.3559L276.635 41.5822L276.326 40.6539L276.789 39.5708L276.635 37.714L277.099 35.2384L276.635 34.1553C276.738 33.8459 276.893 33.588 277.099 33.3817L277.253 32.2986C277.459 31.2671 277.562 30.2871 277.562 29.3588C277.562 28.3272 277.717 27.3473 278.026 26.4189C278.232 26.2126 278.335 25.8516 278.335 25.3359C278.438 24.7169 278.49 24.3559 278.49 24.2528C278.593 24.0465 278.696 23.8917 278.799 23.7886C279.005 23.5823 279.159 23.2212 279.262 22.7055C279.262 19.7141 279.365 18.1152 279.571 17.9089C279.468 17.4963 277.923 17.0837 274.935 16.6711C274.008 16.4648 273.338 16.3101 272.926 16.2069C272.617 16.0006 272.308 15.8975 271.998 15.8975C271.792 15.7943 271.586 15.6912 271.38 15.588C271.277 15.4849 271.226 15.3817 271.226 15.2786C271.329 15.1754 271.432 15.1238 271.535 15.1238C271.638 15.1238 271.947 14.9691 272.462 14.6597C272.977 14.2471 273.389 14.0408 273.698 14.0408C274.008 13.9376 274.317 13.886 274.626 13.886C275.965 13.886 276.635 13.6797 276.635 13.2671L276.326 12.4935C276.326 12.184 276.532 11.9261 276.944 11.7198C277.356 11.4104 277.768 11.2557 278.18 11.2557L278.644 11.4104H278.49C278.386 11.5135 278.129 11.6683 277.717 11.8746C277.408 11.9777 277.15 12.2356 276.944 12.6482C276.944 12.7514 277.305 12.8029 278.026 12.8029C279.056 12.8029 279.571 12.6482 279.571 12.3387L279.262 11.5651C279.262 11.3588 279.417 11.1525 279.726 10.9462C280.138 10.7399 280.344 10.482 280.344 10.1726L280.19 9.55366C280.19 8.6253 280.756 8.16112 281.89 8.16112C281.993 8.26427 282.044 8.36742 282.044 8.47057C282.044 8.57372 282.25 8.62529 282.662 8.62529C282.868 8.52214 283.229 8.47057 283.744 8.47057C284.362 8.36742 285.032 8.26427 285.753 8.16112C289.36 8.05796 292.141 7.90323 294.099 7.69693C297.396 7.49063 299.508 7.23275 300.436 6.92329C301.466 6.61384 302.548 6.45911 303.681 6.45911C304.711 6.45911 305.793 6.56226 306.927 6.76857L308.936 6.92329C309.657 6.92329 310.584 6.82014 311.718 6.61383C313.572 6.30438 315.375 6.14966 317.127 6.14966C318.982 6.14966 320.218 6.30438 320.836 6.61383C321.557 6.92329 322.176 7.07802 322.691 7.07802L323.154 6.92329C323.257 6.92329 323.309 7.02644 323.309 7.23275L323.154 8.16112C323.154 8.36742 323.36 8.47057 323.773 8.47057C324.288 8.47057 324.803 8.67687 325.318 9.08948C325.833 9.39893 326.091 9.70839 326.091 10.0178L325.782 10.482C325.782 10.5852 326.142 10.6367 326.864 10.6367C328.512 10.6367 329.388 10.8431 329.491 11.2557C329.491 11.462 329.079 11.6683 328.255 11.8746C327.43 12.0809 327.018 12.3388 327.018 12.6482L327.791 13.7313C327.791 14.0408 327.585 14.1955 327.173 14.1955L325.782 13.886L325.473 14.0408L327.636 15.1238C327.224 15.1238 327.018 15.3301 327.018 15.7428C327.018 15.8459 327.121 16.0006 327.327 16.2069C327.533 16.4132 327.894 16.5164 328.409 16.5164C328.512 16.6195 328.564 16.8258 328.564 17.1353C328.564 17.3416 328.667 17.4448 328.873 17.4448C329.079 17.4448 329.182 17.4963 329.182 17.5995C328.667 18.1152 328.255 18.3731 327.945 18.3731C327.739 18.3731 327.636 18.27 327.636 18.0637C327.636 17.8574 327.482 17.7542 327.173 17.7542C326.348 17.7542 325.679 18.1152 325.164 18.8373C325.164 19.1468 324.803 19.3015 324.082 19.3015C323.36 19.3015 322.845 19.4562 322.536 19.7657C322.124 19.8688 321.66 19.9204 321.145 19.9204C320.733 19.9204 320.372 20.0751 320.063 20.3846C319.754 20.694 319.497 20.9003 319.291 21.0035C319.085 21.0035 318.724 21.0035 318.209 21.0035C317.282 20.9003 315.53 20.8488 312.954 20.8488L307.699 20.694C302.857 20.694 299.045 20.5393 296.263 20.2299C296.263 27.9662 296.211 31.886 296.108 31.9891C296.005 31.9891 295.954 32.3502 295.954 33.0722C295.954 33.6911 295.954 34.31 295.954 34.9289C296.057 35.4447 296.211 36.4246 296.417 37.8688L296.108 40.035C296.417 41.2728 296.623 44.3673 296.726 49.3186C296.726 51.5879 296.726 53.5478 296.726 55.1982C296.829 56.8487 296.932 57.7254 297.035 57.8286L297.19 59.3759C297.19 60.3042 297.087 61.181 296.881 62.0062C297.087 62.4188 297.19 63.0378 297.19 63.863C297.19 65.5134 297.242 66.3386 297.345 66.3386L299.045 66.1839C300.178 66.1839 301.208 66.0292 302.136 65.7197C304.299 64.9976 306.721 64.6366 309.399 64.6366C310.121 64.6366 310.79 64.4819 311.409 64.1724C311.615 64.1724 311.769 64.224 311.872 64.3272C311.975 64.4303 314.809 64.4819 320.372 64.4819C320.579 64.585 320.733 64.6882 320.836 64.7913C321.042 64.7913 321.145 64.8945 321.145 65.1008C321.248 65.2039 321.557 65.4102 322.073 65.7197C322.691 65.926 323.36 66.1323 324.082 66.3386C324.906 66.4418 325.576 66.4933 326.091 66.4933C326.606 66.4933 326.967 66.6996 327.173 67.1122C327.482 67.4217 327.791 67.5764 328.1 67.5764C328.409 67.5764 328.564 67.7312 328.564 68.0406L328.409 69.5879C328.409 69.8973 328.512 70.1036 328.718 70.2068C328.924 70.2068 329.079 70.3099 329.182 70.5162V71.5993C329.079 71.8056 328.873 71.9088 328.564 71.9088C328.358 71.9088 328.255 72.0635 328.255 72.373C328.255 72.6824 328.409 72.8372 328.718 72.8372C328.718 72.9403 328.615 73.095 328.409 73.3013C327.791 73.6108 327.173 73.7655 326.554 73.7655C326.039 73.7655 325.679 73.8687 325.473 74.075C325.37 74.1781 325.267 74.2813 325.164 74.3844C325.061 74.3844 324.854 74.3844 324.545 74.3844C324.236 74.3844 324.082 74.5907 324.082 75.0033C324.082 75.3128 322.485 75.9317 319.291 76.8601C318.775 77.0664 318.312 77.2727 317.9 77.479C317.591 77.5821 317.385 77.7369 317.282 77.9432C317.282 78.0463 317.178 78.0979 316.972 78.0979L315.581 77.6337C314.242 77.84 312.903 77.9947 311.563 78.0979C310.224 78.201 309.348 78.3558 308.936 78.5621L305.381 78.8715C303.321 78.8715 302.187 78.9747 301.981 79.181C301.878 79.2841 301.723 79.3873 301.517 79.4904C301.208 79.181 301.002 79.0263 300.899 79.0263C300.281 79.2326 299.714 79.3873 299.199 79.4904H298.426C298.426 79.5936 298.426 79.7999 298.426 80.1093C298.529 80.3157 298.581 80.8314 298.581 81.6566C298.581 85.989 298.736 88.7741 299.045 90.0119L298.89 90.9403C298.89 91.8686 298.89 92.3844 298.89 92.4875C298.993 92.4875 299.508 93.6738 300.436 96.0463C300.745 96.6652 301.002 96.9746 301.208 96.9746L300.59 98.3672C300.59 98.4703 300.745 98.5219 301.054 98.5219C301.363 98.5219 301.517 99.2955 301.517 100.843L301.827 101.616V102.7C302.136 103.318 302.342 103.731 302.445 103.937C302.651 104.041 302.754 104.453 302.754 105.175C302.754 105.794 302.857 106.207 303.063 106.413C303.372 106.619 303.681 107.032 303.99 107.651C304.402 109.817 304.711 111.467 304.918 112.602C305.227 113.634 305.381 114.459 305.381 115.078C305.278 115.078 305.227 115.129 305.227 115.232L305.536 116.006L305.072 118.791C305.072 119.616 305.175 120.442 305.381 121.267C305.69 121.989 305.999 122.401 306.308 122.505C306.618 122.608 307.081 122.659 307.699 122.659C308.833 122.659 309.709 122.556 310.327 122.35C310.533 122.144 310.79 122.04 311.1 122.04C311.512 121.937 312.078 121.834 312.8 121.731C313.624 121.628 314.5 121.473 315.427 121.267C320.579 120.338 325.627 119.874 330.573 119.874C331.809 119.874 332.84 119.874 333.664 119.874C334.591 119.771 335.106 119.668 335.209 119.565H335.364L337.837 120.957C338.661 121.576 339.125 121.886 339.228 121.886L340.619 122.505C338.867 122.505 337.94 122.814 337.837 123.433C337.837 123.639 338.146 124.052 338.764 124.671C338.455 124.877 338.249 125.135 338.146 125.444C338.146 125.754 337.837 125.909 337.218 125.909C336.703 125.909 336.291 126.012 335.982 126.218C335.776 126.424 335.673 126.785 335.673 127.301C335.673 127.714 334.746 128.023 332.891 128.23C332.067 128.436 331.449 128.694 331.036 129.003C330.727 129.21 329.285 129.674 326.709 130.396C324.133 131.118 322.588 131.479 322.073 131.479C321.557 131.479 321.145 131.634 320.836 131.943C320.527 132.252 320.218 132.51 319.909 132.717C319.6 132.82 319.342 132.871 319.136 132.871C316.045 133.593 311.975 134.78 306.927 136.43C305.999 136.843 305.33 137.101 304.918 137.204C304.505 137.307 302.239 137.565 298.117 137.977L296.263 137.823C295.026 137.823 294.202 137.874 293.79 137.977C293.481 138.081 291.935 138.132 289.153 138.132Z" fill="#32468A"/>
    <path d="M194.299 145.47C194.299 145.263 195.125 144.023 195.125 143.816V143.403C194.918 142.37 193.68 138.237 193.474 137.204C190.997 106.827 185.838 76.8635 186.457 46.2801C186.664 41.3206 187.489 36.9811 187.902 32.0216C187.902 31.4017 187.696 26.2356 187.902 25.6156C187.902 22.7226 189.553 9.08405 189.966 5.98439C192.029 1.0249 195.331 1.0249 200.284 1.0249C200.49 1.0249 200.696 1.0249 200.903 1.0249C212.459 1.23156 206.32 10.7372 207.971 21.6894C208.797 26.2356 208.59 31.4017 210.448 35.7412C210.241 37.601 210.448 41.3206 210.448 49.0698C210.448 49.0698 210.448 53.2027 210.448 59.402C210.448 67.8745 211.067 65.0848 212.718 74.3838C213.451 78.5167 213.388 80.0665 213.749 82.1329C214.619 87.1008 214.935 90.4715 214.935 95.6682C214.935 95.8748 214.935 96.2881 214.935 96.2881C215.761 103.934 215.142 111.786 215.967 119.432C216.174 120.672 216.793 123.152 216.999 123.359H219.682C222.571 122.532 236.191 119.846 239.286 119.639C240.318 119.432 248.985 118.812 250.017 118.606C250.224 118.606 253.113 117.986 254.144 117.779C254.351 117.779 255.589 117.366 255.795 117.366C257.859 117.573 258.272 121.085 258.272 122.532C258.272 122.739 258.272 122.945 258.272 123.152C258.065 125.218 258.065 126.252 257.034 128.525C251.668 134.517 246.509 135.551 238.874 138.237C238.461 138.237 234.953 138.65 233.715 139.477L221.333 142.783C215.142 146.709 214.11 146.296 206.681 146.709C205.443 146.709 204.617 147.743 203.379 147.743C202.76 147.743 194.712 147.536 194.299 145.47Z" fill="#32468A"/>
    <path d="M172.627 141.309C170.887 135.989 168.972 130.698 166.883 125.523C162.096 113.749 159.339 101.481 158.295 88.8348C158.208 87.8755 159.252 86.1893 160.152 85.8695C164.185 84.445 168.362 83.3694 172.627 82.1484C172.25 81.8867 171.757 81.4797 171.177 81.2472C166.825 79.4447 162.415 77.7295 158.092 75.8689C157.337 75.5491 156.293 74.8223 156.235 74.2409C155.684 68.0487 154.784 61.8274 155.045 55.6642C155.393 47.5823 158.672 39.7039 156.844 31.3604C155.539 25.4298 154.523 19.4702 150.026 14.7896C148.894 13.5977 147.589 11.4464 147.937 10.1382C148.923 6.41704 147.038 4.70182 144.252 3.53896C141.438 2.34703 138.479 1.44581 135.519 0.602739C130.239 -0.908981 127.134 0.341095 124.697 5.28325C121.97 10.8359 119.069 16.3595 117.067 22.2029C109.262 45.1985 105.345 69.0371 102.212 93.0793C100.5 106.161 98.3821 119.185 95.974 132.151C95.1326 136.716 93.9431 140.611 99.5427 142.821C102.299 143.896 104.707 145.873 107.463 146.862C111.525 148.315 114.833 145.582 114.891 141.28C114.978 136.919 114.978 132.558 115.384 128.227C116.487 116.54 117.821 104.853 119.04 93.1665C119.417 89.6779 120.81 87.672 124.784 88.4278C126.322 88.7185 127.976 88.6023 129.572 88.515C135.664 88.2534 141.757 87.9336 148.169 87.6138C148.952 96.8295 149.968 105.754 150.432 114.708C150.867 122.936 150.664 131.192 150.896 139.419C150.925 140.611 151.535 142.355 152.434 142.879C156.148 145.059 159.949 147.181 163.981 148.664C165.896 149.362 168.653 149.245 170.451 148.344C173.092 147.007 173.498 144.013 172.598 141.309H172.627ZM123.537 76.6248C128.73 62.903 133.633 49.9662 138.914 36.0409C141.409 49.472 143.759 61.9727 146.138 74.8805C138.508 75.4619 131.399 76.0143 123.537 76.6248Z" fill="#32468A"/>
    <path d="M26.2237 142.008C23.6808 142.008 22.3034 141.955 22.0915 141.849C21.9855 141.637 21.7206 141.531 21.2968 141.531C20.873 141.425 20.5551 141.319 20.3432 141.213C20.1313 141.001 20.0254 140.842 20.0254 140.736C20.0254 140.63 19.7605 140.418 19.2307 140.1C18.7009 139.676 17.9592 139.252 17.0057 138.828C16.0521 138.297 15.0455 137.767 13.986 137.237C13.88 136.919 13.6151 136.76 13.1913 136.76C12.8734 136.76 12.6086 136.548 12.3966 136.124C12.3966 135.594 11.8669 135.064 10.8073 134.533C10.1716 134.109 9.42993 133.367 8.58229 132.307C6.14535 129.55 4.92687 127.907 4.92687 127.376C4.92687 126.74 4.71496 126.263 4.29115 125.945C3.97328 125.521 3.7084 124.991 3.49649 124.355C2.75481 122.128 2.33099 120.75 2.22504 120.219C2.11909 119.689 1.96015 119.212 1.74825 118.788C1.64229 117.728 1.43038 116.72 1.11252 115.766C0.37084 114.282 0 111.949 0 108.768C0 107.178 0.105954 106.33 0.317863 106.224C0.635725 106.118 0.794657 106.012 0.794657 105.906L0.158931 105.428L0.953588 103.679C0.74168 103.043 0.635726 102.247 0.635726 101.293C0.847634 99.4907 0.953588 98.1654 0.953588 97.3171C0.953588 96.4689 0.847634 95.9388 0.635726 95.7267C0.953588 95.0905 1.11252 94.2423 1.11252 93.182C1.11252 92.1217 1.1655 91.0084 1.27145 89.8421C1.48336 87.1913 1.64229 85.7599 1.74825 85.5479C1.96015 85.3358 2.06611 85.1768 2.06611 85.0708C1.8542 84.5406 1.74825 83.9575 1.74825 83.3213C1.74825 82.8972 1.80122 82.5791 1.90718 82.367C2.01313 82.0489 2.22504 80.7236 2.5429 78.3909C2.64886 77.5427 2.75481 76.8535 2.86077 76.3233C2.96672 75.6872 3.12565 75.157 3.33756 74.7329L3.17863 73.3015C3.17863 72.2412 3.44351 70.7568 3.97328 68.8483C5.35069 63.8649 6.46321 61.3732 7.31084 61.3732C7.4168 61.3732 7.46978 61.2142 7.46978 60.8961C7.46978 60.578 7.68168 59.9948 8.1055 59.1466C9.37695 56.6019 10.1186 55.0115 10.3305 54.3753C10.6484 53.6331 10.8603 53.262 10.9663 53.262C11.0722 53.262 11.1252 52.9439 11.1252 52.3077C11.1252 51.6716 11.2841 50.8763 11.602 49.9221C11.8139 49.604 11.9728 49.2859 12.0788 48.9678C12.1847 48.5437 12.6086 47.2713 13.3502 45.1508C14.0919 42.5 14.6747 40.9626 15.0985 40.5385C15.8402 39.7963 16.211 38.948 16.211 37.9938C16.211 37.7817 16.317 37.6757 16.5289 37.6757C16.7408 37.6757 16.9527 37.3046 17.1646 36.5624C17.4825 35.8202 17.6414 35.078 17.6414 34.3358C17.6414 33.5936 17.8003 33.0634 18.1182 32.7453C18.542 32.3212 18.9128 31.526 19.2307 30.3597L19.3896 29.8826C19.3896 29.2464 19.5486 28.7162 19.8664 28.2921C20.1843 27.762 20.3432 27.1258 20.3432 26.3836C20.3432 25.5353 20.4492 25.0582 20.6611 24.9522C20.9789 24.8462 21.1379 24.6341 21.1379 24.316C21.1379 23.8919 21.2968 23.5208 21.6147 23.2027C21.9325 22.8846 22.0915 22.5135 22.0915 22.0894C22.0915 21.6653 22.1444 21.4532 22.2504 21.4532C22.4623 21.4532 22.7272 21.2412 23.0451 20.817C23.6808 19.7568 23.9986 18.9615 23.9986 18.4314L26.3826 15.4096C27.3362 13.9251 28.1309 13.1829 28.7666 13.1829L30.5148 13.501C31.1506 13.501 31.6803 13.342 32.1041 13.0239C32.528 12.7058 32.8458 12.5468 33.0577 12.5468C33.3756 12.5468 33.6935 12.4938 34.0113 12.3877C34.0113 12.0696 34.753 11.9106 36.2364 11.9106C37.8257 11.9106 38.7263 11.8576 38.9382 11.7515C39.1501 11.5395 39.309 11.4335 39.415 11.4335L40.5275 11.5925C40.8454 11.5925 41.0573 11.5395 41.1632 11.4335C41.2692 11.3274 41.5341 11.2744 41.9579 11.2744C42.3817 11.3804 44.1829 11.5395 47.3616 11.7515L51.017 11.9106C54.6194 12.2287 56.7915 12.4938 57.5332 12.7058C58.3808 12.8118 59.2814 12.8649 60.235 12.8649C60.4469 12.8649 60.5529 12.9709 60.5529 13.1829C60.6588 13.395 61.4005 13.501 62.7779 13.501C64.2613 13.501 65.6387 14.0842 66.9101 15.2505C68.1816 16.3108 68.9762 17.7422 69.2941 19.5447C69.506 20.1809 69.8768 21.0291 70.4066 22.0894C71.0423 23.1497 71.3602 23.8919 71.3602 24.316C71.3602 24.6341 71.4661 24.9522 71.6781 25.2703C71.9959 25.5884 72.2078 25.9065 72.3138 26.2245C72.3138 26.3306 72.1548 26.6487 71.837 27.1788C71.5191 27.6029 71.3602 28.027 71.3602 28.4512C71.3602 28.7692 71.1483 28.9813 70.7245 29.0873C70.3006 29.1934 70.0887 29.4584 70.0887 29.8826C70.0887 30.3067 69.8239 30.5187 69.2941 30.5187C68.8703 30.4127 68.4465 30.3067 68.0226 30.2006C67.5988 29.9886 67.122 29.8826 66.5923 29.8826C66.1684 29.8826 65.9036 29.8295 65.7976 29.7235C65.1619 29.4054 64.5261 29.2464 63.8904 29.2464C63.3606 29.2464 62.619 29.0343 61.6654 28.6102C60.7118 28.1861 60.0761 27.762 59.7582 27.3378C59.4403 26.8077 59.0695 26.5426 58.6457 26.5426C58.3278 26.5426 57.798 26.1715 57.0564 25.4293C56.4206 24.5811 55.8379 24.157 55.3081 24.157C54.7784 24.157 54.5135 23.9979 54.5135 23.6798C54.5135 23.3618 53.7718 23.0967 52.2884 22.8846C50.911 22.5665 49.4277 22.4075 47.8384 22.4075C45.0835 22.4075 43.4412 22.6726 42.9115 23.2027C42.3817 23.6268 41.4281 24.8462 40.0507 26.8607C38.6733 28.8753 37.9846 29.9886 37.9846 30.2006C37.9846 30.3067 37.8786 30.4127 37.6667 30.5187C37.5608 30.5187 37.4019 30.6778 37.1899 30.9959C36.5542 32.1622 36.2364 33.0104 36.2364 33.5406C36.2364 33.9647 36.0774 34.1767 35.7596 34.1767C35.5477 34.1767 35.3887 34.5478 35.2828 35.29C35.2828 35.9262 35.1768 36.5624 34.9649 37.1986C34.647 37.5166 34.4881 37.9938 34.4881 38.63C34.4881 39.2661 33.7464 41.6518 32.2631 45.7869L31.6273 48.8088C31.4154 51.3535 31.1506 52.7849 30.8327 53.1029C30.8327 53.8452 30.9916 54.5343 31.3095 55.1705L30.6738 57.8743C30.6738 59.1466 30.5148 60.419 30.197 61.6913L30.038 63.4408L30.3559 66.6217C30.144 67.4699 30.038 69.0603 30.038 71.393C30.038 72.5593 30.091 73.1955 30.197 73.3015C30.3029 73.3015 30.3559 73.4075 30.3559 73.6196C30.2499 74.4678 30.197 75.7932 30.197 77.5957C30.197 78.55 30.3559 79.9283 30.6738 81.7308C30.6738 82.367 30.5148 82.8441 30.197 83.1622L30.3559 83.3213L30.038 84.1165C30.038 84.2225 30.144 84.3286 30.3559 84.4346C30.6738 84.5406 30.9386 84.8587 31.1506 85.3889C31.4684 85.919 31.6803 86.1841 31.7863 86.1841C31.9982 86.1841 32.1041 86.8202 32.1041 88.0926C32.1041 91.0614 32.369 92.9699 32.8988 93.8182L33.5345 95.0905C34.1702 97.2111 34.4881 98.4835 34.4881 98.9076C34.4881 99.2257 34.5411 99.5437 34.647 99.8618C34.753 100.074 34.9119 100.392 35.1238 100.816C35.3357 101.134 35.4417 102.141 35.4417 103.838C35.4417 105.534 35.5477 106.86 35.7596 107.814C35.7596 108.556 35.7066 108.98 35.6006 109.086C35.6006 109.192 35.5477 109.351 35.4417 109.564L35.7596 111.631L35.6006 112.585L35.9185 114.653C36.2364 115.289 36.3953 115.925 36.3953 116.561C36.3953 117.092 36.5012 117.357 36.7132 117.357C37.031 117.357 37.2429 117.463 37.3489 117.675C37.4548 117.887 37.8257 118.364 38.4614 119.106C39.2031 119.742 39.5739 120.219 39.5739 120.538C39.5739 120.856 40.2626 121.015 41.64 121.015C43.0174 121.015 43.7591 120.909 43.8651 120.697V120.538L44.024 120.697C45.0835 120.697 46.7788 120.325 49.1098 119.583C51.5467 118.841 52.7652 118.364 52.7652 118.152C52.7652 117.834 52.8712 117.675 53.0831 117.675C53.7188 117.675 54.3545 117.569 54.9903 117.357C56.2617 116.827 57.798 116.455 59.5993 116.243C60.4469 116.031 61.1886 115.872 61.8243 115.766C62.46 115.554 62.9368 115.289 63.2547 114.971C64.2083 115.289 64.791 115.448 65.0029 115.448C65.8506 115.448 66.2744 115.342 66.2744 115.13C66.2744 114.918 66.4333 114.812 66.7512 114.812L75.3335 114.494C75.8633 114.494 76.34 114.6 76.7639 114.812C77.1877 114.918 77.6115 114.971 78.0353 114.971C80.0484 115.183 81.055 115.66 81.055 116.402C81.055 116.72 80.8431 117.039 80.4193 117.357C79.9955 117.569 79.6776 117.834 79.4657 118.152C79.2538 118.364 79.1478 118.576 79.1478 118.788C79.5717 119.848 79.8895 120.378 80.1014 120.378C80.3133 120.378 80.4193 120.485 80.4193 120.697L80.2604 120.856C80.2604 120.962 80.1014 121.015 79.7836 121.015C79.4657 121.015 79.2008 121.28 78.9889 121.81C78.9889 122.022 79.2538 122.234 79.7836 122.446C80.4193 122.552 81.2139 122.658 82.1675 122.764C83.2271 122.764 83.7568 122.817 83.7568 122.923C83.7568 123.029 82.9092 123.188 81.2139 123.4C80.2603 123.612 79.7306 123.824 79.6246 124.037C79.5187 124.249 78.8829 124.355 77.7175 124.355C76.9758 124.355 76.6049 124.461 76.6049 124.673C76.6049 124.885 75.8633 125.362 74.3799 126.104C74.168 126.21 74.062 126.475 74.062 126.899C74.062 127.217 74.0091 127.376 73.9031 127.376L73.5852 127.217C73.0555 127.217 72.5257 127.323 71.9959 127.535C71.5721 127.641 70.2477 128.384 68.0226 129.762C67.8107 129.868 67.281 130.08 66.4333 130.398C65.6916 130.716 65.0559 131.14 64.5261 131.671C63.9964 132.095 63.2017 132.572 62.1422 133.102C61.5064 133.208 61.1886 133.367 61.1886 133.579C61.1886 133.685 60.6588 133.95 59.5993 134.374L57.5332 135.329C53.295 137.343 50.5402 138.509 49.2687 138.828C47.9973 139.04 46.6199 139.358 45.1365 139.782L41.4811 140.577C40.4216 140.789 39.7858 141.001 39.5739 141.213L35.9185 141.69C34.2232 141.902 30.9916 142.008 26.2237 142.008ZM32.8988 116.561V116.402C32.6869 116.19 32.528 116.084 32.422 116.084C32.316 116.084 32.2631 116.137 32.2631 116.243C32.2631 116.455 32.475 116.561 32.8988 116.561Z" fill="#32468A"/>
</svg>
