<svg xmlns="http://www.w3.org/2000/svg" viewBox="0 0 34 18" fill="#32468a">
    <path d="M13.07 3.80502C12.07 3.78502 11.08 4.20502 10.36 4.93502C9.65 5.64502 9.27 6.56502 9.28 7.53502C9.3 9.73502 10.84 11.295 13.03 11.335H13.09C14.08 11.335 15 10.965 15.68 10.305C16.4 9.60502 16.8 8.63502 16.81 7.58502C16.81 6.60502 16.43 5.66502 15.73 4.94502C15.02 4.22502 14.07 3.81502 13.07 3.81502V3.80502ZM13.02 5.64502H13.05C14.14 5.65502 14.96 6.49502 14.96 7.58502C14.96 8.68502 14.14 9.51502 13.05 9.51502C12.52 9.51502 12.03 9.32502 11.69 8.97502C11.34 8.62502 11.14 8.12502 11.14 7.58502C11.14 7.04502 11.34 6.53502 11.7 6.17502C12.05 5.83502 12.52 5.64502 13.03 5.64502H13.02ZM33.85 3.25502C33.85 3.08502 33.85 2.89502 33.8 2.69502C33.55 1.59502 32.69 0.955017 31.44 0.955017H27.65C24.11 0.955017 20.57 0.955017 17.04 0.955017C16.86 0.955017 16.65 0.905017 16.47 0.815017C14.2 -0.264983 11.91 -0.274983 9.64 0.805017C9.44 0.905017 9.22 0.955017 9.03 0.955017C7.71 0.955017 6.4 0.955017 5.08 0.955017H2.34C0.92 0.955017 0 1.87502 0 3.27502V13.235C0 14.035 0.36 14.395 1.17 14.405H1.93V15.885C1.93 16.975 2.82 17.855 3.9 17.855H8.53C9.62 17.855 10.5 16.965 10.5 15.885V14.705C12.37 15.355 14.25 15.295 16.1 14.495C16.23 14.435 16.4 14.405 16.56 14.405C17.69 14.405 20.42 14.405 23.32 14.405V15.885C23.32 16.975 24.21 17.855 25.29 17.855H29.92C31.01 17.855 31.89 16.965 31.89 15.885V14.405C32.36 14.405 32.65 14.405 32.68 14.405C33.46 14.405 33.82 14.025 33.82 13.245V3.25502H33.85ZM1.94 2.90502H7.07C5.94 4.36502 5.41 5.96502 5.45 7.75502C5.49 9.51502 6.07 11.055 7.22 12.445H1.94V2.90502ZM8.55 15.925L3.89 15.895V14.415H8.03C8.22 14.415 8.39 14.415 8.57 14.415V15.895C8.57 15.895 8.56 15.925 8.54 15.925H8.55ZM12.97 13.235C11.54 13.285 10.17 12.705 9.12 11.675C8.03 10.605 7.4 9.11502 7.4 7.59502C7.4 6.07502 7.99 4.64502 9.08 3.56502C10.14 2.51502 11.52 1.93502 12.98 1.93502H13.01C16.24 1.95502 18.68 4.37502 18.69 7.57502C18.65 10.895 16.36 13.165 12.99 13.235H12.97ZM29.97 15.895C29.97 15.895 29.96 15.925 29.94 15.925L25.28 15.895V14.415C26.99 14.415 28.65 14.415 29.96 14.415V15.895H29.97ZM31.92 5.06502H26.93C26.38 5.06502 25.93 5.51502 25.93 6.06502C25.93 6.61502 26.38 7.06502 26.93 7.06502H31.92V8.68502H26.93C26.38 8.68502 25.93 9.13502 25.93 9.68502C25.93 10.235 26.38 10.685 26.93 10.685H31.91V12.445H18.9C20.01 11.135 20.58 9.55502 20.62 7.72502C20.66 5.86502 20.14 4.28502 19.05 2.89502H31.94V5.06502H31.92Z"/>
</svg>