<svg xmlns="http://www.w3.org/2000/svg" viewBox="0 0 26 28" fill="#32468B">
    <path d="M1 0V2H3L3.001 4H2C0.89543 4 0 4.89543 0 6V22.3846C0 25.4566 2.20424 28 5 28H21C23.7958 28 26 25.4566 26 22.3846V13H24L24.0006 15.2442C23.7048 15.4105 23.359 15.4998 23.0003 15.5C22.6233 15.4998 22.2606 15.4013 21.9554 15.2186L21.808 15.1206L21.7382 15.0663L21.6712 15.0088C21.5038 14.8571 21.3239 14.7217 21.1342 14.6032C21.0075 14.524 20.8766 14.4524 20.7421 14.3886L20.538 14.2986C20.0551 14.1019 19.532 14 19.0001 14C18.8479 14 18.6967 14.0083 18.5469 14.0248L18.3235 14.0556C17.665 14.1648 17.0425 14.4334 16.52 14.8468L16.3289 15.0085C15.9795 15.3247 15.5027 15.4998 14.9996 15.5C14.4974 15.4998 14.0206 15.3247 13.6712 15.0085C12.9451 14.3514 11.988 14 11 14C10.0122 14 9.05467 14.3515 8.32935 15.0083C7.97958 15.3247 7.50259 15.4998 7.00032 15.5C6.49749 15.4998 6.02052 15.3247 5.67124 15.0088C4.94545 14.3515 3.98795 14 3.00012 14C2.66006 14 2.32366 14.0416 1.99907 14.123L2 6H6V8H8V6C8 4.89543 7.10457 4 6 4H5.001L5 1.999L7 2V0H1ZM23.0003 17.5C23.3399 17.4998 23.6759 17.4582 24.0001 17.377V22.3846C24.0001 24.4106 22.6225 26 21 26H5C3.37748 26 2 24.4106 2 22.3846L1.99851 16.2561C2.29444 16.0895 2.6406 16 3.00012 16C3.50273 16 3.97962 16.1751 4.32923 16.4917C5.05522 17.1483 6.01204 17.4996 7.00032 17.5C7.98802 17.4996 8.94485 17.1483 9.67136 16.4912C10.0205 16.1751 10.4974 16 11 16C11.5028 16 11.9796 16.175 12.3292 16.4915C13.055 17.1482 14.0119 17.4996 15.0006 17.5C15.9881 17.4996 16.9454 17.1482 17.671 16.4915C18.0207 16.175 18.4974 16 18.9999 16C19.5027 16 19.9794 16.175 20.3291 16.4915C20.9989 17.0976 21.8661 17.4437 22.7723 17.4937L23.0003 17.5ZM14.9944 1.99995L12.995 2.00105C12.9967 3.6687 12.6035 4.67589 11.3854 6.57732L10.9496 7.25058C9.75109 9.12361 9.19176 10.3591 9.04235 11.9995L11.0562 12.0003C11.2128 10.738 11.7179 9.72976 12.8349 8.01819L13.0782 7.64239C14.4839 5.44544 14.9972 4.13689 14.9944 1.99995ZM17.995 1.99998C17.993 3.68809 17.5957 4.69824 16.3412 6.66838L15.9541 7.27123C14.7508 9.16361 14.1935 10.3867 14.0432 11.9997H16.0581C16.1977 10.9124 16.606 10.005 17.4677 8.62105L18.2293 7.42324C19.5232 5.34344 19.9928 4.06113 19.995 2.00105L17.995 1.99998ZM22.995 1.99998C22.993 3.68809 22.5957 4.69824 21.3412 6.66838L20.9541 7.27123C19.7508 9.16361 19.1935 10.3867 19.0432 11.9997H21.0581C21.1977 10.9124 21.606 10.005 22.4677 8.62105L23.2293 7.42324C24.5232 5.34344 24.9928 4.06113 24.995 2.00105L22.995 1.99998Z"/>
</svg>