<svg xmlns="http://www.w3.org/2000/svg" viewBox="0 0 22 35" fill="#32468A">
    <path d="M1.16267 17.8094H13.7059C16.0549 17.8094 18.0249 16.009 18.2901 13.6235L19.6809 1.05625C19.753 0.402199 20.3275 -0.0663389 20.9671 0.00739033C21.6067 0.0811196 22.0649 0.670954 21.9928 1.32263L20.5996 13.8923C20.2833 16.7416 18.3529 19.0319 15.8038 19.8572L18.6599 33.5471C18.7948 34.1892 18.3924 34.8219 17.7644 34.9574C17.683 34.9741 17.6016 34.9836 17.5202 34.9836C16.9829 34.9836 16.5015 34.6007 16.3829 34.0418L14.6339 25.6628H6.75396L4.67467 34.0989C4.5421 34.6387 4.06763 34.9979 3.54897 34.9979C3.45593 34.9979 3.35825 34.986 3.26289 34.9622C2.63957 34.8029 2.26278 34.1559 2.41862 33.5185L5.70268 20.1878H1.15569C0.513763 20.1878 -0.00722268 19.6551 -0.00722268 18.9986C-0.00722268 18.3422 0.513763 17.8094 1.15569 17.8094H1.16267ZM7.34472 23.2868H14.1431L13.4965 20.1902H8.10759L7.34472 23.2868Z"/>
</svg>