<svg xmlns="http://www.w3.org/2000/svg" viewBox="0 0 30 28" fill="#32468B">
    <path d="M3 23C3.51 23 3.94 23.5 4 24V26H26V24C26 23.49 26.5 23 27 23H30V25H28V27C28 27.51 27.5 28 27 28H3C2.5 28 2 27.5 2 27V25H0V23H3ZM19 13C20.4238 13.002 21.7953 13.5368 22.8446 14.4991C23.8939 15.4615 24.5451 16.7817 24.67 18.2L24.85 20.8C24.8772 21.1934 24.8266 21.5882 24.701 21.962C24.5755 22.3358 24.3775 22.6812 24.1184 22.9784C23.8592 23.2756 23.5441 23.5188 23.1909 23.6941C22.8377 23.8694 22.4534 23.9733 22.06 24H8.14C7.34435 24 6.58129 23.6839 6.01868 23.1213C5.45607 22.5587 5.14 21.7956 5.14 21L5.31 18.43C5.43119 16.986 6.07692 15.6364 7.12524 14.6359C8.17356 13.6355 9.55192 13.0536 11 13H19ZM14 15H12V18H10V15.17C9.29492 15.388 8.66783 15.805 8.19416 16.3709C7.72049 16.9368 7.4204 17.6276 7.33 18.36C7.21251 19.2353 7.14905 20.1169 7.14 21C7.14 21.51 7.5 21.94 8 22H22C22.51 21.96 22.83 21.55 22.86 21.05C22.8063 20.2231 22.7497 19.3965 22.69 18.57C22.6376 17.7979 22.3526 17.0597 21.8724 16.4527C21.3922 15.8458 20.7394 15.3986 20 15.17V18H18V15H16V18H14V15ZM23 0H25C25 2.06 24.52 3.34 23.23 5.42L22.48 6.61C21.42 8.31 21.04 9.29 21 10.76V11H19C19 8.84 19.52 7.53 20.95 5.27L21.52 4.39C22.58 2.69 22.96 1.71 22.99 0.24L23 0ZM18 0H20C20 2.06 19.52 3.34 18.23 5.42L17.48 6.61C16.42 8.31 16.04 9.29 16 10.76V11H14C14 8.84 14.52 7.53 15.95 5.27L16.52 4.39C17.58 2.69 17.96 1.71 17.99 0.24L18 0ZM13 0H15C15 2.06 14.52 3.34 13.23 5.42L12.48 6.61C11.42 8.31 11.04 9.29 11 10.76V11H9C9 8.84 9.51 7.53 10.95 5.27L11.52 4.39C12.58 2.69 12.96 1.71 12.99 0.24L13 0Z"/>
</svg>