<svg xmlns="http://www.w3.org/2000/svg" viewBox="0 0 100 58.88" fill="#32468a">
    <path d="m57.27,21.82h1.36c12.76,0,25.52,0,38.28,0,.42,0,.85-.01,1.27.04,1.55.2,2.32,1.85,1.46,3.15-.21.32-.5.6-.78.87-10.5,10.53-21.02,21.05-31.5,31.59-.92.93-1.91,1.31-3.2,1.31-15.56-.02-31.12-.04-46.68.04-2.28.01-4.52.22-6.77-.4C3.96,56.59-.66,49.83.08,42.87c.42-3.9,2.09-7.1,4.96-9.75,1.79-1.65,3.48-3.42,5.21-5.15,7.88-7.91,15.75-15.82,23.63-23.73C37.97.13,44.34-1.13,49.78,1.07c5.52,2.24,9.15,7.56,9.24,13.42.04,2.52-.56,4.88-1.74,7.33Zm35.52,4.44c-.05-.09-.1-.19-.15-.28-.22,0-.43,0-.65,0-12.43,0-24.87,0-37.3.02-.45,0-1,.26-1.33.58-9.16,9.11-18.29,18.24-27.43,27.37-.17.17-.31.37-.59.7.49,0,.8,0,1.12,0,12.27-.02,24.54-.04,36.81-.03.79,0,1.32-.25,1.87-.8,8.95-9,17.91-17.98,26.88-26.96.23-.23.51-.41.77-.61Zm-78.06,3.17c4.24.12,7.71,1.56,10.54,4.42,2.81,2.85,4.21,6.33,4.52,10.52.36-.19.45-.58.69-.82,4.94-4.96,9.89-9.9,14.84-14.85,2.32-2.33,4.7-4.6,6.92-7.02,3.17-3.44,3.47-8.89.85-12.75-3.85-5.68-11.57-6.43-16.43-1.58-7.09,7.09-14.15,14.2-21.22,21.3-.2.2-.38.42-.7.78Zm10.62,15.01c.14-5.77-4.52-10.69-10.3-10.84-5.88-.16-10.86,4.64-10.93,10.54-.07,5.64,4.68,10.58,10.29,10.68,5.96.11,10.8-4.48,10.95-10.39Z"/>
    <path d="m6.37,44.62c-.26-4.2,2.89-8.6,8.12-8.81,4.28-.18,8.35,2.98,8.72,8.06.3,4.08-3.22,8.22-7.23,8.7-5.27.64-9.48-3.37-9.6-7.95Zm4.14-.39c0,2.38,1.89,4.25,4.27,4.25,2.36,0,4.29-1.93,4.28-4.27-.01-2.34-1.95-4.27-4.3-4.27-2.36,0-4.26,1.92-4.25,4.29Z"/>
</svg>