<svg xmlns="http://www.w3.org/2000/svg" viewBox="0 0 26 30" fill="#32468a">
    <path d="M25.1758 25.479C25.1728 25.275 25.1728 25.068 25.1728 24.861C25.1728 24.288 25.1728 23.694 25.0953 23.106C24.5822 19.122 21.3098 16.206 17.3154 16.173C14.7739 16.152 12.0175 16.152 8.64369 16.173C8.02023 16.176 7.40572 16.245 6.81806 16.374C3.46809 17.115 0.968285 20.022 0.735606 23.445C0.669979 24.393 0.675945 25.353 0.681911 26.283C0.681911 26.61 0.684894 26.934 0.681911 27.261C0.678928 28.098 0.926522 28.794 1.39785 29.271C1.87215 29.748 2.56422 30 3.40246 30H15.7255C16.6681 30 17.6108 30 18.5534 30C19.8749 30 21.1934 30 22.5119 30C24.087 30 25.1579 28.932 25.1728 27.342C25.1788 26.748 25.1818 26.112 25.1728 25.479H25.1758ZM2.80883 23.658C2.92517 21.702 3.87378 20.157 5.62484 19.065C6.48993 18.528 7.46539 18.255 8.52139 18.252H10.2575C11.3881 18.246 12.5396 18.246 13.694 18.246C14.8485 18.246 16.0834 18.246 17.2707 18.255C20.2329 18.273 22.6014 20.337 23.031 23.274C23.0966 23.718 23.0936 24.174 23.0936 24.66C23.0936 24.825 23.0936 24.987 23.0936 25.152C23.1026 25.761 23.0996 26.37 23.0936 26.982V27.384C23.0936 27.789 22.9683 27.912 22.5686 27.912H3.34578C3.10415 27.912 2.94009 27.873 2.86551 27.801C2.77602 27.711 2.75812 27.495 2.75812 27.333C2.75812 26.982 2.75812 26.628 2.75812 26.277C2.75812 25.416 2.75215 24.525 2.80287 23.661L2.80883 23.658Z"/>
    <path d="M12.9303 15.255C12.9303 15.255 12.9423 15.255 12.9482 15.255C17.1066 15.255 20.4984 11.847 20.5103 7.65C20.5222 3.447 17.1365 0.015 12.9632 0H12.9393C8.76898 0 5.3683 3.411 5.35338 7.614C5.34443 9.645 6.12599 11.559 7.54891 12.999C8.98078 14.448 10.8929 15.249 12.9333 15.255H12.9303ZM7.42959 7.59C7.43555 6.117 8.01427 4.734 9.06132 3.693C10.1024 2.658 11.4776 2.088 12.9363 2.088H12.9602C14.4398 2.1 15.8269 2.691 16.862 3.756C17.8822 4.803 18.458 6.228 18.4401 7.668C18.4043 10.707 15.9313 13.173 12.9244 13.173H12.9035C9.87271 13.161 7.41467 10.656 7.42661 7.593L7.42959 7.59Z"/>
</svg>