<svg xmlns="http://www.w3.org/2000/svg" viewBox="0 0 47 37" fill="#32468a">
    <path d="M44.07 0H2C0.9 0 0 0.9 0 2V35C0 36.1 0.9 37 2 37H44.07C45.17 37 46.07 36.1 46.07 35V2C46.07 0.9 45.17 0 44.07 0ZM25 35H2V2H25V35ZM44.07 35H27V17.5H44.07V35ZM44.07 15.5H27V2H44.07V15.5ZM21.81 11.98H5.06C3.96 11.98 3.06 11.08 3.06 9.98V5.48C3.06 4.38 3.96 3.48 5.06 3.48H21.81C22.91 3.48 23.81 4.38 23.81 5.48V9.98C23.81 11.08 22.91 11.98 21.81 11.98ZM5.06 5.48V9.98H21.81V5.48H5.06ZM21.81 33.5H5.06C3.96 33.5 3.06 32.6 3.06 31.5V27C3.06 25.9 3.96 25 5.06 25H21.81C22.91 25 23.81 25.9 23.81 27V31.5C23.81 32.6 22.91 33.5 21.81 33.5ZM5.06 27V31.5H21.81V27H5.06ZM21.81 22.74H5.06C3.96 22.74 3.06 21.84 3.06 20.74V16.24C3.06 15.14 3.96 14.24 5.06 14.24H21.81C22.91 14.24 23.81 15.14 23.81 16.24V20.74C23.81 21.84 22.91 22.74 21.81 22.74ZM5.06 16.24V20.74H21.81V16.24H5.06ZM14.97 7.73C14.97 8.28 14.52 8.73 13.97 8.73H12.64C12.09 8.73 11.64 8.28 11.64 7.73C11.64 7.18 12.09 6.73 12.64 6.73H13.97C14.52 6.73 14.97 7.18 14.97 7.73ZM14.97 18.5C14.97 19.05 14.52 19.5 13.97 19.5H12.64C12.09 19.5 11.64 19.05 11.64 18.5C11.64 17.95 12.09 17.5 12.64 17.5H13.97C14.52 17.5 14.97 17.95 14.97 18.5ZM14.97 29.25C14.97 29.8 14.52 30.25 13.97 30.25H12.64C12.09 30.25 11.64 29.8 11.64 29.25C11.64 28.7 12.09 28.25 12.64 28.25H13.97C14.52 28.25 14.97 28.7 14.97 29.25ZM42.35 8.75C42.35 9.3 41.9 9.75 41.35 9.75C40.8 9.75 40.35 9.3 40.35 8.75C40.35 8.2 40.8 7.75 41.35 7.75C41.9 7.75 42.35 8.2 42.35 8.75ZM42.35 12.76C42.35 13.31 41.9 13.76 41.35 13.76C40.8 13.76 40.35 13.31 40.35 12.76C40.35 12.21 40.8 11.76 41.35 11.76C41.9 11.76 42.35 12.21 42.35 12.76ZM28.61 4.75C28.61 4.2 29.06 3.75 29.61 3.75H41.35C41.9 3.75 42.35 4.2 42.35 4.75C42.35 5.3 41.9 5.75 41.35 5.75H29.61C29.06 5.75 28.61 5.3 28.61 4.75ZM30.45 27.29H28.79C28.24 27.29 27.79 26.84 27.79 26.29C27.79 25.74 28.24 25.29 28.79 25.29H30.45C30.72 25.29 30.98 25.4 31.17 25.59C31.36 25.79 31.46 26.05 31.45 26.32C31.43 26.86 30.99 27.29 30.45 27.29ZM42.29 25.29H40.44C40.17 25.29 39.91 25.4 39.72 25.59C39.53 25.78 39.43 26.05 39.44 26.32C39.46 26.86 39.9 27.29 40.44 27.29H42.29C42.84 27.29 43.29 26.84 43.29 26.29C43.29 25.74 42.84 25.29 42.29 25.29ZM38.92 23.85C39.18 23.85 39.43 23.75 39.63 23.56L40.97 22.22C41.36 21.83 41.36 21.2 40.97 20.81C40.58 20.42 39.95 20.42 39.56 20.81L38.22 22.15C38.03 22.34 37.93 22.6 37.93 22.87C37.93 23.14 38.04 23.39 38.23 23.58C38.42 23.77 38.67 23.86 38.93 23.86L38.92 23.85ZM31.86 28.92C31.6 28.92 31.34 29.02 31.15 29.21L30.01 30.35C29.82 30.54 29.72 30.79 29.72 31.06C29.72 31.33 29.82 31.58 30.01 31.77C30.2 31.96 30.46 32.06 30.72 32.06C30.98 32.06 31.23 31.96 31.43 31.77L32.57 30.63C32.95 30.25 32.96 29.62 32.58 29.23C32.39 29.04 32.14 28.93 31.87 28.93L31.86 28.92ZM31.42 20.81C31.23 20.62 30.98 20.52 30.71 20.52C30.44 20.52 30.19 20.62 30 20.81C29.61 21.2 29.61 21.83 30 22.22L31.3 23.52C31.5 23.72 31.75 23.81 32.01 23.81C32.27 23.81 32.5 23.72 32.7 23.54C32.9 23.35 33.01 23.1 33.01 22.83C33.01 22.56 32.91 22.3 32.72 22.11L31.42 20.81ZM39.77 29.17C39.58 28.98 39.31 28.87 39.05 28.88C38.78 28.88 38.52 29 38.34 29.19C37.97 29.59 37.98 30.2 38.36 30.58L39.55 31.77C39.75 31.96 40 32.06 40.26 32.06C40.52 32.06 40.77 31.96 40.97 31.77C41.16 31.58 41.26 31.33 41.26 31.06C41.26 30.79 41.16 30.54 40.97 30.35L39.78 29.16L39.77 29.17ZM35.48 18.54C34.93 18.54 34.48 18.99 34.48 19.54V21.45C34.48 22 34.93 22.45 35.47 22.45C35.73 22.45 35.98 22.35 36.17 22.16C36.36 21.97 36.47 21.72 36.47 21.45V19.54C36.47 18.99 36.02 18.54 35.47 18.54H35.48ZM35.47 30.43C34.92 30.43 34.48 30.88 34.48 31.43V33.04C34.48 33.59 34.93 34.04 35.48 34.04C36.03 34.04 36.48 33.59 36.48 33.04V31.43C36.48 31.16 36.37 30.91 36.18 30.72C35.99 30.53 35.72 30.41 35.47 30.43ZM35.44 24C34.09 24 33 25.09 33 26.44C33 27.79 34.09 28.88 35.44 28.88C36.79 28.88 37.88 27.79 37.88 26.44C37.88 25.09 36.79 24 35.44 24Z"/>
</svg>