<svg xmlns="http://www.w3.org/2000/svg" viewBox="0 0 50 29" fill="#32468a">
    <path d="M28.6351 10.7058H29.3151C35.6951 10.7058 42.0751 10.7058 48.4551 10.7058C48.6651 10.7058 48.8801 10.7009 49.0901 10.7254C49.8651 10.8236 50.2501 11.6331 49.8201 12.271C49.7151 12.428 49.5701 12.5653 49.4301 12.6978C44.1801 17.8643 38.9201 23.0258 33.6801 28.1971C33.2201 28.6534 32.7251 28.8399 32.0801 28.8399C24.3001 28.8301 16.5201 28.8202 8.74008 28.8595C7.60008 28.8644 6.48008 28.9674 5.35508 28.6632C1.98008 27.7654 -0.329919 24.4486 0.0400808 21.0338C0.250081 19.1203 1.08508 17.5502 2.52008 16.25C3.41508 15.4405 4.26008 14.5721 5.12508 13.7233C9.06508 9.84229 13.0001 5.96133 16.9401 2.08037C18.9851 0.0638347 22.1701 -0.554372 24.8901 0.525036C27.6501 1.62407 29.4651 4.23428 29.5101 7.10943C29.5301 8.34584 29.2301 9.50375 28.6401 10.7058H28.6351ZM46.3951 12.8843C46.3701 12.8401 46.3451 12.791 46.3201 12.7469C46.2101 12.7469 46.1051 12.7469 45.9951 12.7469C39.7801 12.7469 33.5601 12.7469 27.3451 12.7567C27.1201 12.7567 26.8451 12.8843 26.6801 13.0413C22.1001 17.511 17.5351 21.9905 12.9651 26.4701C12.8801 26.5535 12.8101 26.6516 12.6701 26.8135C12.9151 26.8135 13.0701 26.8135 13.2301 26.8135C19.3651 26.8037 25.5001 26.7939 31.6351 26.7988C32.0301 26.7988 32.2951 26.6762 32.5701 26.4063C37.0451 21.9905 41.5251 17.5846 46.0101 13.1786C46.1251 13.0658 46.2651 12.9775 46.3951 12.8794V12.8843ZM7.36508 14.4396C9.48508 14.4985 11.2201 15.205 12.6351 16.6082C14.0401 18.0065 14.7401 19.714 14.8951 21.7698C15.0751 21.6765 15.1201 21.4852 15.2401 21.3674C17.7101 18.9339 20.1851 16.5101 22.6601 14.0814C23.8201 12.9382 25.0101 11.8245 26.1201 10.6371C27.7051 8.94933 27.8551 6.27534 26.5451 4.38147C24.6201 1.59463 20.7601 1.22665 18.3301 3.60626C14.7851 7.08489 11.2551 10.5733 7.72008 14.0569C7.62008 14.155 7.53008 14.263 7.37008 14.4396H7.36508ZM12.6751 21.8041C12.7451 18.9731 10.4151 16.5592 7.52508 16.4856C4.58508 16.4071 2.09508 18.7621 2.06008 21.6569C2.02508 24.4241 4.40008 26.8479 7.20508 26.8969C10.1851 26.9509 12.6051 24.6989 12.6801 21.7992L12.6751 21.8041Z"/>
    <path d="M3.18508 21.8924C3.05508 19.8317 4.63008 17.6729 7.24508 17.5699C9.38508 17.4816 11.4201 19.032 11.6051 21.5244C11.7551 23.5262 9.99508 25.5575 7.99008 25.793C5.35508 26.107 3.25008 24.1395 3.19008 21.8924H3.18508ZM5.25508 21.7011C5.25508 22.8688 6.20008 23.7863 7.39008 23.7863C8.57008 23.7863 9.53508 22.8393 9.53008 21.6912C9.52508 20.5432 8.55508 19.5962 7.38008 19.5962C6.20008 19.5962 5.25008 20.5382 5.25508 21.7011Z"/>
</svg>