<svg xmlns="http://www.w3.org/2000/svg" viewBox="0 0 21 37" fill="#32468B">
    <path d="M7.52707 36.34C7.39707 36.34 7.26707 36.34 7.12707 36.31C5.79707 36.12 4.84707 35.05 4.80707 33.71V33.58L7.69707 20.93H1.99707C1.37707 20.93 0.797072 20.65 0.417072 20.15C0.0370715 19.66 -0.0929285 19.03 0.0670715 18.42L5.03707 1.47C5.25707 0.62 6.05707 0 6.96707 0H15.0071C15.6571 0 16.2771 0.32 16.6471 0.85C17.0171 1.39 17.1071 2.07 16.8871 2.68L13.1771 13.03H18.4671C19.1671 13.03 19.7971 13.39 20.1671 13.99C20.5371 14.59 20.5671 15.31 20.2571 15.94L10.0471 34.56C9.65707 35.65 8.66707 36.34 7.53707 36.34H7.52707ZM6.81707 33.77C6.87707 34.23 7.27707 34.32 7.40707 34.34C7.53707 34.36 8.00707 34.38 8.16707 33.86L8.24707 33.68L18.4771 15.01L13.1671 15.04C12.5171 15.04 11.8971 14.72 11.5271 14.19C11.1571 13.65 11.0671 12.97 11.2871 12.36L14.9971 2.01H6.96707L1.98707 18.97L7.72707 18.94C8.78707 18.94 9.66707 19.77 9.72707 20.83V20.97L6.80707 33.76L6.81707 33.77Z"/>
</svg>