<svg xmlns="http://www.w3.org/2000/svg" viewBox="0 0 36 39" fill="#32468a" >
    <path d="M28 20.9C28 21.45 27.55 21.9 27 21.9C26.45 21.9 26 21.45 26 20.9C26 20.35 26.45 19.9 27 19.9C27.55 19.9 28 20.35 28 20.9ZM27 26.4C26.45 26.4 26 26.85 26 27.4C26 27.95 26.45 28.4 27 28.4C27.55 28.4 28 27.95 28 27.4C28 26.85 27.55 26.4 27 26.4ZM27 23.15C26.45 23.15 26 23.6 26 24.15C26 24.7 26.45 25.15 27 25.15C27.55 25.15 28 24.7 28 24.15C28 23.6 27.55 23.15 27 23.15ZM29 4.2V11.15H30C31.1 11.15 32 12.05 32 13.15V36.15C32 37.25 31.1 38.15 30 38.15H2C0.9 38.15 0 37.25 0 36.15V2.81C0 2.08 0.39 1.41 1.03 1.06C1.66 0.71 2.44 0.73 3.06 1.11L8.13 4.26V11.14H9.5V5.19C9.5 4.09 10.4 3.19 11.5 3.19H27V2C27 0.9 27.9 0 29 0H35.06V2H29V4.19V4.2ZM24.62 6.95H27V5.2H24.62V6.95ZM24.62 10.7H27V8.95H24.62V10.7ZM20.25 6.95H22.63V5.2H20.25V6.95ZM20.25 10.7H22.63V8.95H20.25V10.7ZM15.88 6.95H18.26V5.2H15.88V6.95ZM15.88 10.7H18.26V8.95H15.88V10.7ZM11.5 6.95H13.88V5.2H11.5V6.95ZM11.5 10.7H13.88V8.95H11.5V10.7ZM2 11.15H6.13V5.38L2 2.81V11.15ZM30 33.15H2V36.15H30V33.15ZM30 18.15H2V31.15H30V18.15ZM8.13 13.15H2V16.15H30V13.15H8.13ZM23.07 21.9C23.62 21.9 24.07 21.45 24.07 20.9C24.07 20.35 23.62 19.9 23.07 19.9H5.06C4.51 19.9 4.06 20.35 4.06 20.9C4.06 21.45 4.51 21.9 5.06 21.9H23.07Z"/>
</svg>