<svg xmlns="http://www.w3.org/2000/svg" viewBox="0 0 32 37" fill="#32468A">
    <path d="M30 0H2C0.9 0 0 0.9 0 2V35C0 36.1 0.9 37 2 37H30C31.1 37 32 36.1 32 35V2C32 0.9 31.1 0 30 0ZM2 35V33H4C4.55 33 5 32.55 5 32C5 31.45 4.55 31 4 31H2V29H4C4.55 29 5 28.55 5 28C5 27.45 4.55 27 4 27H2V25H4C4.55 25 5 24.55 5 24C5 23.45 4.55 23 4 23H2V2H30V23H28C27.45 23 27 23.45 27 24C27 24.55 27.45 25 28 25H30V27H28C27.45 27 27 27.45 27 28C27 28.55 27.45 29 28 29H30V31H28C27.45 31 27 31.45 27 32C27 32.55 27.45 33 28 33H30V35H2ZM22.53 29.14L21.82 29.33C21.92 29.39 22.02 29.45 22.12 29.51C22.44 29.71 22.54 30.11 22.35 30.43C22.17 30.75 21.77 30.85 21.45 30.68C21.35 30.63 21.24 30.57 21.14 30.51L21.26 30.95C21.29 31.06 21.32 31.17 21.35 31.28C21.43 31.67 21.22 32.01 20.84 32.11C20.49 32.19 20.14 31.97 20.03 31.61L19.65 30.18C19.59 29.97 19.53 29.75 19.47 29.54C18.63 29.06 17.76 28.56 16.89 28.06V31.03C17.38 31.55 17.88 32.04 18.37 32.52C18.63 32.78 18.63 33.05 18.58 33.23C18.51 33.46 18.34 33.63 18.11 33.7C17.88 33.76 17.63 33.7 17.45 33.52C17.26 33.34 17.08 33.15 16.89 32.97V33.29C16.89 33.65 16.62 33.94 16.28 33.97H16.22C16.05 33.97 15.89 33.91 15.76 33.8C15.62 33.67 15.54 33.5 15.54 33.31V32.97L15.03 33.48C14.72 33.79 14.31 33.81 14.03 33.53C13.9 33.4 13.83 33.24 13.83 33.06C13.83 32.87 13.91 32.68 14.07 32.52C14.55 32.03 15.04 31.55 15.53 31.06C15.55 30.15 15.55 29.29 15.55 28.42V28.05L14.78 28.49C14.18 28.84 13.58 29.18 12.98 29.53C12.84 30 12.72 30.45 12.6 30.89L12.42 31.57C12.31 31.96 11.96 32.18 11.6 32.09C11.42 32.04 11.27 31.93 11.18 31.78C11.09 31.62 11.06 31.42 11.11 31.23C11.17 30.99 11.24 30.74 11.3 30.5C11.21 30.55 11.12 30.6 11.03 30.66C10.83 30.77 10.61 30.78 10.41 30.7C10.22 30.62 10.08 30.45 10.02 30.24C9.94 29.95 10.07 29.65 10.34 29.49C10.43 29.43 10.53 29.38 10.63 29.32L9.87 29.11C9.49 28.99 9.29 28.64 9.39 28.28C9.5 27.9 9.85 27.7 10.24 27.81L12.25 28.35C12.25 28.35 12.3 28.35 12.33 28.34C13.05 27.92 13.78 27.5 14.51 27.08L14.88 26.86C14.01 26.36 13.15 25.86 12.28 25.36C11.83 25.48 11.4 25.6 10.97 25.72L10.26 25.91C9.86 26.02 9.5 25.82 9.39 25.45C9.34 25.27 9.36 25.08 9.45 24.92C9.54 24.77 9.7 24.66 9.89 24.6C10.13 24.53 10.38 24.47 10.62 24.4L10.32 24.22C10 24.02 9.9 23.62 10.09 23.3C10.27 22.99 10.67 22.88 10.99 23.05C11.09 23.11 11.2 23.16 11.3 23.22L11.16 22.7C11.14 22.61 11.11 22.52 11.09 22.43C11.01 22.05 11.24 21.71 11.61 21.62C11.95 21.54 12.31 21.76 12.41 22.11C12.48 22.38 12.56 22.65 12.63 22.92L12.77 23.43C12.84 23.68 12.9 23.94 12.98 24.19C13.82 24.67 14.69 25.17 15.56 25.67V28.24V22.69C15.07 22.18 14.58 21.69 14.09 21.21C13.88 21 13.81 20.76 13.87 20.51C13.93 20.27 14.11 20.1 14.34 20.03C14.57 19.96 14.83 20.03 15.01 20.21C15.2 20.39 15.38 20.57 15.56 20.76V20.45C15.56 20.26 15.63 20.08 15.77 19.95C15.9 19.83 16.06 19.76 16.25 19.76C16.62 19.76 16.92 20.07 16.92 20.45V20.77C17.1 20.59 17.28 20.41 17.47 20.23C17.65 20.05 17.9 19.98 18.13 20.04C18.35 20.1 18.53 20.26 18.6 20.49C18.66 20.67 18.67 20.95 18.4 21.21L17.8 21.81C17.51 22.1 17.22 22.39 16.94 22.67C16.92 23.58 16.92 24.45 16.92 25.31V25.68C17.78 25.18 18.65 24.68 19.52 24.18C19.64 23.69 19.78 23.2 19.91 22.7L20.04 22.22C20.06 22.15 20.07 22.11 20.08 22.07C20.2 21.73 20.55 21.54 20.89 21.62C21.26 21.72 21.47 22.07 21.38 22.43C21.32 22.69 21.25 22.95 21.18 23.21C21.27 23.16 21.36 23.1 21.46 23.05C21.66 22.94 21.88 22.93 22.07 23.01C22.26 23.09 22.4 23.25 22.46 23.46C22.54 23.75 22.42 24.06 22.15 24.22C22.05 24.28 21.96 24.33 21.86 24.39L22.44 24.54C22.51 24.56 22.56 24.57 22.61 24.59C22.99 24.71 23.2 25.06 23.1 25.43C23 25.8 22.63 26 22.25 25.9L21.79 25.78C21.38 25.68 20.96 25.57 20.55 25.44C20.31 25.36 20.13 25.38 19.88 25.53C19.29 25.89 18.68 26.24 18.08 26.58L17.61 26.85L17.86 27C18.63 27.44 19.4 27.89 20.17 28.34C20.19 28.35 20.2 28.36 20.24 28.34C20.9 28.16 21.56 27.99 22.22 27.81C22.65 27.7 23 27.89 23.1 28.28C23.2 28.66 22.97 29.01 22.56 29.12L22.53 29.14ZM5.25 5V18H27.25V5H5.25ZM8.02 16L8.58 13.58L10.6 14.05L10.62 16H8.02ZM12.62 16L12.59 12.78L15.62 12.75L15.88 16H12.62ZM17.52 11.34L21.51 11.02L21.59 12.05L20.32 11.87L19.84 15.17L17.84 15.33L17.52 11.34ZM25.25 16H21.74L22.01 14.14L25.25 14.61V16ZM25.25 12.59L23.62 12.35L23.34 8.87L15.37 9.51L15.47 10.75L10.58 10.79V11.99L7.25 11.21V7H25.25V12.59Z"/>
</svg>