<svg xmlns="http://www.w3.org/2000/svg" viewBox="0 0 47 37" fill="#32468B">
    <path d="M44.07 0H2C0.9 0 0 0.9 0 2V35C0 36.1 0.9 37 2 37H44.07C45.17 37 46.07 36.1 46.07 35V2C46.07 0.9 45.17 0 44.07 0ZM25 35H2V2H25V35ZM44.07 35H27V17.5H44.07V35ZM44.07 15.5H27V2H44.07V15.5ZM21.81 11.98H5.06C3.96 11.98 3.06 11.08 3.06 9.98V5.48C3.06 4.38 3.96 3.48 5.06 3.48H21.81C22.91 3.48 23.81 4.38 23.81 5.48V9.98C23.81 11.08 22.91 11.98 21.81 11.98ZM5.06 5.48V9.98H21.81V5.48H5.06ZM21.81 33.5H5.06C3.96 33.5 3.06 32.6 3.06 31.5V27C3.06 25.9 3.96 25 5.06 25H21.81C22.91 25 23.81 25.9 23.81 27V31.5C23.81 32.6 22.91 33.5 21.81 33.5ZM5.06 27V31.5H21.81V27H5.06ZM21.81 22.74H5.06C3.96 22.74 3.06 21.84 3.06 20.74V16.24C3.06 15.14 3.96 14.24 5.06 14.24H21.81C22.91 14.24 23.81 15.14 23.81 16.24V20.74C23.81 21.84 22.91 22.74 21.81 22.74ZM5.06 16.24V20.74H21.81V16.24H5.06ZM14.97 7.73C14.97 8.28 14.52 8.73 13.97 8.73H12.64C12.09 8.73 11.64 8.28 11.64 7.73C11.64 7.18 12.09 6.73 12.64 6.73H13.97C14.52 6.73 14.97 7.18 14.97 7.73ZM14.97 18.5C14.97 19.05 14.52 19.5 13.97 19.5H12.64C12.09 19.5 11.64 19.05 11.64 18.5C11.64 17.95 12.09 17.5 12.64 17.5H13.97C14.52 17.5 14.97 17.95 14.97 18.5ZM14.97 29.25C14.97 29.8 14.52 30.25 13.97 30.25H12.64C12.09 30.25 11.64 29.8 11.64 29.25C11.64 28.7 12.09 28.25 12.64 28.25H13.97C14.52 28.25 14.97 28.7 14.97 29.25ZM42.35 8.75C42.35 9.3 41.9 9.75 41.35 9.75C40.8 9.75 40.35 9.3 40.35 8.75C40.35 8.2 40.8 7.75 41.35 7.75C41.9 7.75 42.35 8.2 42.35 8.75ZM42.35 12.76C42.35 13.31 41.9 13.76 41.35 13.76C40.8 13.76 40.35 13.31 40.35 12.76C40.35 12.21 40.8 11.76 41.35 11.76C41.9 11.76 42.35 12.21 42.35 12.76ZM28.61 4.75C28.61 4.2 29.06 3.75 29.61 3.75H41.35C41.9 3.75 42.35 4.2 42.35 4.75C42.35 5.3 41.9 5.75 41.35 5.75H29.61C29.06 5.75 28.61 5.3 28.61 4.75ZM41.76 28.71L41.05 28.9C41.15 28.96 41.25 29.02 41.35 29.08C41.67 29.28 41.77 29.68 41.58 30C41.4 30.32 41 30.42 40.68 30.25C40.58 30.2 40.47 30.14 40.37 30.08L40.49 30.52C40.52 30.63 40.55 30.74 40.58 30.85C40.66 31.24 40.45 31.58 40.07 31.68C39.72 31.76 39.37 31.54 39.26 31.18L38.88 29.75C38.82 29.54 38.76 29.32 38.7 29.11C37.86 28.63 36.99 28.13 36.12 27.63V27.79C36.12 28.73 36.12 29.66 36.12 30.6C36.61 31.12 37.11 31.61 37.6 32.09C37.86 32.35 37.86 32.62 37.81 32.8C37.74 33.03 37.57 33.2 37.34 33.27C37.11 33.33 36.86 33.27 36.68 33.09C36.49 32.91 36.31 32.72 36.12 32.54V32.86C36.12 33.22 35.85 33.51 35.51 33.54C35.49 33.54 35.47 33.54 35.45 33.54C35.28 33.54 35.12 33.48 34.99 33.37C34.85 33.24 34.77 33.07 34.77 32.88C34.77 32.77 34.77 32.65 34.77 32.54L34.26 33.05C33.95 33.36 33.54 33.38 33.26 33.1C33.13 32.97 33.06 32.81 33.06 32.63C33.06 32.44 33.14 32.25 33.3 32.09C33.78 31.6 34.27 31.12 34.76 30.63C34.78 29.72 34.78 28.86 34.78 27.99V27.62L34.01 28.06C33.41 28.41 32.81 28.75 32.21 29.1C32.07 29.57 31.95 30.02 31.83 30.46L31.65 31.14C31.54 31.53 31.19 31.75 30.83 31.66C30.65 31.61 30.5 31.5 30.41 31.35C30.32 31.19 30.29 30.99 30.34 30.8C30.4 30.56 30.47 30.31 30.53 30.07C30.44 30.12 30.35 30.17 30.26 30.23C30.06 30.34 29.84 30.35 29.64 30.27C29.45 30.19 29.31 30.02 29.25 29.81C29.17 29.52 29.3 29.22 29.57 29.06C29.66 29 29.76 28.95 29.86 28.89L29.1 28.68C28.72 28.56 28.52 28.21 28.62 27.85C28.73 27.47 29.08 27.27 29.47 27.38C30.14 27.56 30.81 27.74 31.48 27.92C31.52 27.92 31.53 27.92 31.56 27.91C32.28 27.49 33.01 27.07 33.74 26.65L34.11 26.43C33.24 25.93 32.38 25.43 31.51 24.93C31.06 25.05 30.63 25.17 30.2 25.29L29.49 25.48C29.09 25.59 28.73 25.39 28.62 25.02C28.57 24.84 28.59 24.65 28.68 24.49C28.77 24.34 28.93 24.23 29.12 24.17C29.36 24.1 29.61 24.04 29.85 23.97C29.75 23.91 29.65 23.85 29.55 23.79C29.23 23.59 29.13 23.19 29.32 22.87C29.5 22.56 29.9 22.45 30.22 22.62C30.32 22.68 30.43 22.73 30.53 22.79L30.39 22.27C30.37 22.18 30.34 22.09 30.32 22C30.24 21.62 30.47 21.28 30.84 21.19C31.18 21.11 31.54 21.33 31.64 21.68C31.71 21.95 31.79 22.22 31.86 22.49L32 23C32.07 23.25 32.13 23.51 32.21 23.76C33.05 24.24 33.92 24.74 34.79 25.24V24.81C34.79 23.96 34.79 23.11 34.79 22.26C34.3 21.75 33.81 21.26 33.32 20.78C33.11 20.57 33.04 20.33 33.1 20.08C33.16 19.84 33.34 19.67 33.57 19.6C33.8 19.53 34.06 19.6 34.24 19.78C34.43 19.96 34.61 20.14 34.79 20.33V20.02C34.79 19.83 34.86 19.65 35 19.52C35.13 19.4 35.29 19.33 35.48 19.33C35.85 19.33 36.15 19.64 36.15 20.02V20.34C36.33 20.16 36.51 19.98 36.7 19.8C36.88 19.62 37.13 19.55 37.36 19.61C37.58 19.67 37.76 19.83 37.83 20.06C37.89 20.24 37.9 20.52 37.63 20.78L37.03 21.38C36.74 21.67 36.45 21.96 36.17 22.24C36.15 23.15 36.15 24.02 36.15 24.88V25.25C37.01 24.75 37.88 24.25 38.75 23.75C38.87 23.26 39.01 22.77 39.14 22.27L39.27 21.79C39.29 21.72 39.3 21.68 39.31 21.64C39.43 21.3 39.78 21.11 40.12 21.19C40.49 21.29 40.7 21.64 40.61 22C40.55 22.26 40.48 22.52 40.41 22.78C40.5 22.73 40.59 22.67 40.69 22.62C40.89 22.51 41.11 22.5 41.3 22.58C41.49 22.66 41.63 22.82 41.69 23.03C41.77 23.32 41.65 23.63 41.38 23.79C41.28 23.85 41.19 23.9 41.09 23.96L41.67 24.11C41.74 24.13 41.79 24.14 41.84 24.16C42.22 24.28 42.43 24.63 42.33 25C42.23 25.37 41.86 25.57 41.48 25.47L41.02 25.35C40.61 25.25 40.19 25.14 39.78 25.01C39.54 24.93 39.36 24.95 39.11 25.1C38.52 25.46 37.91 25.81 37.31 26.15L36.84 26.42L37.09 26.57C37.86 27.01 38.63 27.46 39.4 27.91C39.42 27.92 39.43 27.93 39.47 27.91C40.13 27.73 40.79 27.56 41.45 27.38C41.88 27.27 42.23 27.46 42.33 27.85C42.43 28.23 42.2 28.58 41.79 28.69L41.76 28.71Z"/>
</svg>