<svg xmlns="http://www.w3.org/2000/svg" viewBox="0 0 33 35" fill="#32468a">
    <path d="M30.03 0H2C0.9 0 0 0.9 0 2V32.39C0 33.49 0.9 34.39 2 34.39H30.03C31.13 34.39 32.03 33.49 32.03 32.39V2C32.03 0.9 31.13 0 30.03 0ZM2 2H8.41V32.39H2V2ZM10.41 32.39V2H30.02V32.39H10.41ZM24.75 4.05H15.67C15.03 4.05 14.42 4.36 14.04 4.89C13.67 5.41 13.57 6.09 13.78 6.7L14.35 8.35C14.63 9.15 15.39 9.7 16.24 9.7H24.15C24.99 9.7 25.74 9.17 26.03 8.38L26.63 6.73C26.85 6.12 26.76 5.44 26.39 4.9C26.02 4.37 25.41 4.05 24.76 4.05H24.75ZM24.15 7.69H16.24L15.66 6.04H24.74L24.15 7.69ZM24.75 11.05H15.67C15.03 11.05 14.42 11.36 14.04 11.89C13.67 12.41 13.57 13.09 13.78 13.7L14.35 15.35C14.63 16.15 15.39 16.7 16.24 16.7H24.15C24.99 16.7 25.74 16.17 26.03 15.38L26.63 13.73C26.85 13.12 26.76 12.44 26.39 11.9C26.02 11.37 25.41 11.05 24.76 11.05H24.75ZM24.15 14.69H16.24L15.66 13.05H24.74L24.15 14.69ZM24.75 17.6H15.67C15.03 17.6 14.42 17.91 14.04 18.44C13.67 18.96 13.57 19.64 13.78 20.25L14.35 21.9C14.63 22.7 15.39 23.25 16.24 23.25H24.15C24.99 23.25 25.74 22.72 26.03 21.93L26.63 20.28C26.85 19.67 26.76 18.99 26.39 18.45C26.02 17.92 25.41 17.6 24.76 17.6H24.75ZM24.15 21.24H16.24L15.66 19.6H24.74L24.15 21.24ZM24.75 24.15H15.67C15.03 24.15 14.42 24.46 14.05 24.99C13.68 25.51 13.58 26.19 13.79 26.8L14.36 28.45C14.64 29.25 15.4 29.79 16.25 29.79H24.16C25 29.79 25.75 29.26 26.04 28.47L26.64 26.82C26.86 26.21 26.77 25.53 26.4 24.99C26.03 24.46 25.42 24.14 24.77 24.14L24.75 24.15ZM24.15 27.79H16.24L15.66 26.15H24.74L24.15 27.79ZM5.32 4.55C5.87 4.55 6.32 5 6.32 5.55C6.32 6.1 5.87 6.55 5.32 6.55C4.77 6.55 4.32 6.1 4.32 5.55C4.32 5 4.77 4.55 5.32 4.55ZM5.32 8.55C5.87 8.55 6.32 9 6.32 9.55C6.32 10.1 5.87 10.55 5.32 10.55C4.77 10.55 4.32 10.1 4.32 9.55C4.32 9 4.77 8.55 5.32 8.55ZM5.32 12.55C5.87 12.55 6.32 13 6.32 13.55C6.32 14.1 5.87 14.55 5.32 14.55C4.77 14.55 4.32 14.1 4.32 13.55C4.32 13 4.77 12.55 5.32 12.55ZM6.32 21.55V29.55C6.32 30.1 5.87 30.55 5.32 30.55C4.77 30.55 4.32 30.1 4.32 29.55V21.55C4.32 21 4.77 20.55 5.32 20.55C5.87 20.55 6.32 21 6.32 21.55Z"/>
</svg>