<svg xmlns="http://www.w3.org/2000/svg" viewBox="0 0 37 35" fill="#32468B">
    <path d="M35 0H2C0.9 0 0 0.9 0 2V24C0 25.1 0.9 26 2 26H7.98V31.09C7.98 33.7 9.23 34.09 9.98 34.09H11.96C12.71 34.09 13.96 33.7 13.96 31.09V26H23.07V31.09C23.07 33.7 24.32 34.09 25.07 34.09H27.05C27.8 34.09 29.05 33.7 29.05 31.09V26H34.99C36.09 26 36.99 25.1 36.99 24V2C36.99 0.9 36.09 0 34.99 0H35ZM35 19.99H29.05V17.99H35V19.99ZM25.08 19.99V17.99H27.06V19.99H25.08ZM27.06 21.99V24H25.08V21.99H27.06ZM9.98 19.99V17.99H11.96V19.99H9.98ZM11.96 21.99V24H9.98V21.99H11.96ZM27.06 2V3.99H25.08V2H27.06ZM23.08 9.99V11.99H13.97V9.99H23.08ZM13.96 7.99V5.99H23.07V7.99H13.96ZM23.08 13.99V15.99H13.97V13.99H23.08ZM25.08 13.99H27.06V15.99H25.08V13.99ZM25.08 11.99V9.99H27.06V11.99H25.08ZM25.08 7.99V5.99H27.06V7.99H25.08ZM23.08 3.99H13.97V2H23.08V3.99ZM11.96 2V3.99H9.98V2H11.96ZM11.96 5.99V7.99H9.98V5.99H11.96ZM11.96 9.99V11.99H9.98V9.99H11.96ZM11.96 13.99V15.99H9.98V13.99H11.96ZM13.96 17.99H23.07V19.99H13.96V17.99ZM35 15.99H29.06V13.99H35V15.99ZM35 11.99H29.06V9.99H35V11.99ZM35 7.99H29.06V5.99H35V7.99ZM35 3.99H29.06V2H35V3.99ZM2 2H7.98V3.99H2V2ZM2 5.99H7.98V7.99H2V5.99ZM2 9.99H7.98V11.99H2V9.99ZM2 13.99H7.98V15.99H2V13.99ZM2 17.99H7.98V19.99H2V17.99ZM2 24V21.99H7.98V24H2ZM11.96 31.09C11.96 31.68 11.89 31.97 11.84 32.09H10.1C10.05 31.97 9.98 31.68 9.98 31.09V26H11.96V31.09ZM13.96 24V21.99H23.07V24H13.96ZM27.06 31.09C27.06 31.68 26.99 31.97 26.94 32.09H25.2C25.15 31.97 25.08 31.68 25.08 31.09V26H27.06V31.09ZM29.06 24V21.99H35.01V24H29.06Z"/>
</svg>