<svg xmlns="http://www.w3.org/2000/svg" viewBox="0 0 22 30" fill="#32468A">
    <path d="M21.8599 13.87C21.8599 12.25 21.3299 10.73 20.3599 9.59999C19.5099 8.60999 18.4599 7.95999 17.1399 7.61999L20.1499 1.53999C20.3199 1.20999 20.2999 0.80999 20.0999 0.49999C19.8999 0.17999 19.5599 -0.0100098 19.1899 -0.0100098H2.67991C2.30991 -0.0100098 1.96991 0.17999 1.76991 0.49999C1.56991 0.81999 1.54991 1.20999 1.71991 1.53999L4.73991 7.61999C4.73991 7.61999 4.72991 7.61999 4.71991 7.61999C1.91991 8.31999 -0.0200909 10.85 -9.0933e-05 13.8C0.0299091 17.45 0.0199091 21.17 0.0199091 24.76C0.0199091 26.3 0.0199091 27.85 0.0199091 29.39V29.81H21.8699V25.37C21.8699 21.54 21.8699 17.7 21.8699 13.87H21.8599ZM11.8999 17.34V12.84H14.7099C15.0299 14.96 13.8599 16.83 11.8999 17.34ZM14.7299 9.36999V10.92H7.14991V9.36999H14.7299ZM9.96991 12.86V17.34C8.18991 17.04 7.00991 15.18 7.12991 12.86H9.96991ZM14.8799 7.46999C13.2899 7.46999 11.7099 7.46999 10.1199 7.46999H6.95991C6.83991 7.46999 6.76991 7.46999 6.70991 7.34999C6.05991 6.01999 5.39991 4.68999 4.73991 3.35999L4.02991 1.92999C4.02991 1.92999 4.01991 1.89999 4.00991 1.88999H17.8699C17.8499 1.94999 17.8199 1.99999 17.7999 2.04999L17.1999 3.24999C16.5399 4.57999 15.8699 5.91999 15.2199 7.25999C15.1399 7.42999 15.0599 7.47999 14.8799 7.47999V7.46999ZM5.22991 9.47999V11.32C5.22991 12.11 5.22991 12.91 5.22991 13.7C5.22991 16.6 7.41991 19.03 10.2999 19.34C11.9199 19.52 13.5399 19 14.7399 17.92C15.9399 16.84 16.6299 15.3 16.6299 13.67C16.6299 12.79 16.6299 11.92 16.6299 11.04V9.46999C17.0899 9.54999 17.5199 9.72999 17.9399 9.99999C19.2699 10.88 19.9499 12.1 19.9499 13.65C19.9499 16.99 19.9499 20.39 19.9499 23.68C19.9499 25.02 19.9499 26.35 19.9499 27.69V27.93H1.89991V23.89C1.89991 20.47 1.89991 17.06 1.89991 13.64C1.89991 11.67 3.21991 9.96999 5.09991 9.49999C5.13991 9.49999 5.17991 9.48999 5.21991 9.47999H5.22991ZM14.8799 20.99H6.99991V26.34H14.8799V20.99ZM8.87991 24.44V22.89H12.9899V24.44H8.87991ZM18.4899 21.99C18.4899 22.54 18.0399 22.99 17.4899 22.99C16.9399 22.99 16.4899 22.54 16.4899 21.99C16.4899 21.44 16.9399 20.99 17.4899 20.99C18.0399 20.99 18.4899 21.44 18.4899 21.99ZM18.5099 25.44C18.5099 25.99 18.0599 26.44 17.5099 26.44C16.9599 26.44 16.5099 25.99 16.5099 25.44C16.5099 24.89 16.9599 24.44 17.5099 24.44C18.0599 24.44 18.5099 24.89 18.5099 25.44Z"/>
</svg>