<svg xmlns="http://www.w3.org/2000/svg" viewBox="0 0 34 40" fill="#32468A">
    <path d="M6 4.99C6 5.54 5.55 5.99 5 5.99C4.45 5.99 4 5.54 4 4.99C4 4.44 4.45 3.99 5 3.99C5.55 3.99 6 4.44 6 4.99ZM5 7.99C4.45 7.99 4 8.44 4 8.99C4 9.54 4.45 9.99 5 9.99C5.55 9.99 6 9.54 6 8.99C6 8.44 5.55 7.99 5 7.99ZM10 18V32H15.38C13.32 30.35 12 27.82 12 24.98V19.98H34V24.98C34 27.82 32.68 30.34 30.62 32H34V40H0V2C0 0.9 0.9 0 2 0H32C33.1 0 34 0.9 34 2V18H10ZM21 31.98H25C28.86 31.98 32 28.84 32 24.98V21.98H14V24.98C14 28.84 17.14 31.98 21 31.98ZM8 29.47V16H32V9.99H23C22.45 9.99 22 9.54 22 8.99C22 8.44 22.45 7.99 23 7.99H32V5.99H23C22.45 5.99 22 5.54 22 4.99C22 4.44 22.45 3.99 23 3.99H32V2H2V38H32V34H8V29.47Z"/>
</svg>