<svg xmlns="http://www.w3.org/2000/svg" viewBox="0 0 30 30" fill="#32468A">
    <path d="M4.70722 29.0632V9.39106C4.70722 9.14262 4.60852 8.90435 4.43284 8.72867C4.25716 8.55299 4.01889 8.45429 3.77045 8.45429C3.522 8.45429 3.28373 8.55299 3.10805 8.72867C2.93237 8.90435 2.83368 9.14262 2.83368 9.39106V29.0632C2.83368 29.3117 2.93237 29.5499 3.10805 29.7256C3.28373 29.9013 3.522 30 3.77045 30C4.01889 30 4.25716 29.9013 4.43284 29.7256C4.60852 29.5499 4.70722 29.3117 4.70722 29.0632ZM0.298153 26.9149L3.10805 29.7256C3.28373 29.9013 3.522 30 3.77045 30C4.01889 30 4.25716 29.9013 4.43284 29.7256L7.24274 26.9149C7.33478 26.8291 7.4086 26.7257 7.4598 26.6108C7.511 26.4959 7.53853 26.3719 7.54075 26.2461C7.54297 26.1203 7.51983 25.9954 7.47271 25.8787C7.4256 25.7621 7.35547 25.6561 7.26652 25.5672C7.17756 25.4782 7.0716 25.4081 6.95496 25.361C6.83832 25.3138 6.71338 25.2907 6.5876 25.2929C6.46182 25.2951 6.33777 25.3227 6.22286 25.3739C6.10795 25.4251 6.00453 25.4989 5.91877 25.5909L3.10846 28.4012H4.43243L1.62212 25.5909C1.44454 25.4255 1.20967 25.3354 0.966978 25.3397C0.724291 25.3439 0.49274 25.4423 0.321108 25.6139C0.149475 25.7855 0.051162 26.0171 0.0468801 26.2598C0.0425981 26.5024 0.132682 26.7373 0.298153 26.9149ZM7.24274 11.5394L4.43284 8.72867C4.25716 8.55299 4.01889 8.45429 3.77045 8.45429C3.522 8.45429 3.28373 8.55299 3.10805 8.72867L0.298153 11.5394C0.206116 11.6252 0.132296 11.7286 0.0810959 11.8435C0.0298959 11.9584 0.00236504 12.0824 0.000145788 12.2082C-0.00207346 12.334 0.0210643 12.4589 0.0681789 12.5756C0.115293 12.6922 0.185419 12.7982 0.274374 12.8871C0.363328 12.9761 0.469287 13.0462 0.585932 13.0933C0.702576 13.1404 0.827515 13.1636 0.953295 13.1614C1.07908 13.1591 1.20312 13.1316 1.31803 13.0804C1.43294 13.0292 1.53636 12.9554 1.62212 12.8634L4.43243 10.053H3.10846L5.91877 12.8634C6.00453 12.9554 6.10795 13.0292 6.22286 13.0804C6.33777 13.1316 6.46182 13.1591 6.5876 13.1614C6.71338 13.1636 6.83832 13.1404 6.95496 13.0933C7.0716 13.0462 7.17756 12.9761 7.26652 12.8871C7.35547 12.7982 7.4256 12.6922 7.47271 12.5756C7.51983 12.4589 7.54297 12.334 7.54075 12.2082C7.53853 12.0824 7.511 11.9584 7.4598 11.8435C7.4086 11.7286 7.33478 11.6252 7.24274 11.5394ZM9.39106 4.70722H29.0632C29.3117 4.70722 29.5499 4.60852 29.7256 4.43284C29.9013 4.25716 30 4.01889 30 3.77045C30 3.522 29.9013 3.28373 29.7256 3.10805C29.5499 2.93237 29.3117 2.83368 29.0632 2.83368H9.39106C9.14262 2.83368 8.90435 2.93237 8.72867 3.10805C8.55299 3.28373 8.45429 3.522 8.45429 3.77045C8.45429 4.01889 8.55299 4.25716 8.72867 4.43284C8.90435 4.60852 9.14262 4.70722 9.39106 4.70722ZM11.5394 0.298153L8.72867 3.10805C8.55299 3.28373 8.45429 3.522 8.45429 3.77045C8.45429 4.01889 8.55299 4.25716 8.72867 4.43284L11.5394 7.24274C11.6252 7.33478 11.7286 7.4086 11.8435 7.4598C11.9584 7.511 12.0824 7.53853 12.2082 7.54075C12.334 7.54297 12.4589 7.51983 12.5756 7.47271C12.6922 7.4256 12.7982 7.35547 12.8871 7.26652C12.9761 7.17756 13.0462 7.0716 13.0933 6.95496C13.1404 6.83832 13.1636 6.71338 13.1614 6.5876C13.1591 6.46182 13.1316 6.33777 13.0804 6.22286C13.0292 6.10795 12.9554 6.00453 12.8634 5.91877L10.053 3.10846V4.43243L12.8634 1.62212C12.9554 1.53636 13.0292 1.43294 13.0804 1.31803C13.1316 1.20312 13.1591 1.07908 13.1614 0.953295C13.1636 0.827515 13.1404 0.702576 13.0933 0.585932C13.0462 0.469287 12.9761 0.363328 12.8871 0.274374C12.7982 0.185419 12.6922 0.115293 12.5756 0.0681789C12.4589 0.0210643 12.334 -0.00207346 12.2082 0.000145788C12.0824 0.00236504 11.9584 0.0298959 11.8435 0.0810959C11.7286 0.132296 11.6252 0.206116 11.5394 0.298153ZM26.9149 7.24274L29.7256 4.43284C29.9013 4.25716 30 4.01889 30 3.77045C30 3.522 29.9013 3.28373 29.7256 3.10805L26.9149 0.298153C26.8291 0.206116 26.7257 0.132296 26.6108 0.0810959C26.4959 0.0298959 26.3719 0.00236504 26.2461 0.000145788C26.1203 -0.00207346 25.9954 0.0210643 25.8787 0.0681789C25.7621 0.115293 25.6561 0.185419 25.5672 0.274374C25.4782 0.363328 25.4081 0.469287 25.361 0.585932C25.3138 0.702576 25.2907 0.827515 25.2929 0.953295C25.2951 1.07908 25.3227 1.20312 25.3739 1.31803C25.4251 1.43294 25.4989 1.53636 25.5909 1.62212L28.4012 4.43243V3.10846L25.5909 5.91877C25.4255 6.09635 25.3354 6.33123 25.3397 6.57391C25.3439 6.8166 25.4423 7.04815 25.6139 7.21978C25.7855 7.39142 26.0171 7.48973 26.2598 7.49401C26.5024 7.49829 26.7373 7.40821 26.9149 7.24274ZM13.1381 16.3232V25.3162C13.1381 26.0615 13.4342 26.7763 13.9613 27.3033C14.4883 27.8304 15.2031 28.1265 15.9485 28.1265H23.4426C24.188 28.1265 24.9028 27.8304 25.4298 27.3033C25.9568 26.7763 26.2529 26.0615 26.2529 25.3162V16.3232C26.2529 16.0747 26.1542 15.8364 25.9785 15.6608C25.8029 15.4851 25.5646 15.3864 25.3162 15.3864C25.0677 15.3864 24.8294 15.4851 24.6538 15.6608C24.4781 15.8364 24.3794 16.0747 24.3794 16.3232V25.3162C24.3794 25.5646 24.2807 25.8029 24.105 25.9785C23.9293 26.1542 23.6911 26.2529 23.4426 26.2529H15.9485C15.7 26.2529 15.4617 26.1542 15.2861 25.9785C15.1104 25.8029 15.0117 25.5646 15.0117 25.3162V16.3232C15.0117 16.0747 14.913 15.8364 14.7373 15.6608C14.5616 15.4851 14.3234 15.3864 14.0749 15.3864C13.8265 15.3864 13.5882 15.4851 13.4125 15.6608C13.2368 15.8364 13.1381 16.0747 13.1381 16.3232ZM29.6902 18.9998L21.5753 11.693C21.0593 11.2287 20.3897 10.9718 19.6955 10.9718C19.0014 10.9718 18.3318 11.2287 17.8157 11.693L9.70082 18.9998C9.52227 19.1677 9.41659 19.3988 9.40645 19.6436C9.3963 19.8884 9.4825 20.1275 9.64656 20.3095C9.81061 20.4916 10.0395 20.6021 10.284 20.6173C10.5286 20.6326 10.7694 20.5514 10.9548 20.3912L19.0698 13.0844C19.2417 12.9301 19.4645 12.8448 19.6955 12.8448C19.9265 12.8448 20.1494 12.9301 20.3213 13.0844L28.4362 20.3912C28.6216 20.5514 28.8625 20.6326 29.107 20.6173C29.3516 20.6021 29.5805 20.4916 29.7445 20.3095C29.9086 20.1275 29.9948 19.8884 29.9846 19.6436C29.9745 19.3988 29.8688 19.1677 29.6902 18.9998Z"/>
</svg>
