<svg xmlns="http://www.w3.org/2000/svg" viewBox="0 0 20 29" fill="#32468A">
    <path d="M19 2.61124e-05C19.2457 -0.00174846 19.4834 0.0869805 19.6679 0.249287C19.8523 0.411593 19.9705 0.636116 20 0.880026V5.00003L19.98 5.20003L17.08 19.73C17.684 20.1007 18.2023 20.5955 18.6006 21.1817C18.9988 21.7678 19.2679 22.432 19.39 23.13L19.43 23.38L19.99 27.88C20.0211 28.1425 19.947 28.4065 19.784 28.6145C19.621 28.8225 19.3823 28.9575 19.12 28.99L19 29H5C4.73479 29 4.48043 28.8947 4.2929 28.7071C4.10536 28.5196 4 28.2652 4 28V27.88L4.57 23.38C4.66332 22.6332 4.92401 21.9172 5.33264 21.2852C5.74127 20.6532 6.2873 20.1216 6.93001 19.73L4.18001 6.00003H3C2.75433 5.99825 2.51659 6.08698 2.33215 6.24929C2.14772 6.41159 2.02948 6.63612 2 6.88003V14H4.87424e-06V7.00003C-0.00137406 6.2346 0.28987 5.4976 0.814117 4.93989C1.33836 4.38218 2.05596 4.04595 2.82 4.00003H4V1.00003C3.99823 0.754348 4.08696 0.516614 4.24926 0.332175C4.41157 0.147737 4.63609 0.0295018 4.88 2.61124e-05H19ZM9.5 21C8.80479 21.0068 8.13351 21.2548 7.6009 21.7017C7.06829 22.1486 6.70743 22.7666 6.58 23.45L6.55 23.63L6.13 27H17.87L17.45 23.63C17.3656 22.9666 17.0619 22.3505 16.5872 21.8794C16.1125 21.4083 15.494 21.1094 14.83 21.03L14.5 21H9.5ZM12 23C12.2652 23 12.5196 23.1054 12.7071 23.2929C12.8946 23.4805 13 23.7348 13 24C13 24.2652 12.8946 24.5196 12.7071 24.7071C12.5196 24.8947 12.2652 25 12 25C11.7348 25 11.4804 24.8947 11.2929 24.7071C11.1054 24.5196 11 24.2652 11 24C11 23.7348 11.1054 23.4805 11.2929 23.2929C11.4804 23.1054 11.7348 23 12 23ZM17.78 6.00003H6.22001L8.82 19H11V10H13V19H15.18L17.78 6.00003ZM18 2.00003H6V4.00003H18V2.00003Z"/>
</svg>