<svg xmlns="http://www.w3.org/2000/svg" viewBox="0 0 32 37" fill="#32468a">
    <path d="M18 12C19.06 12 20.08 11.58 20.83 10.83C21.58 10.08 22 9.06 22 8C22 6.94 21.58 5.92 20.83 5.17C20.08 4.42 19.06 4 18 4C16.94 4 15.92 4.42 15.17 5.17C14.42 5.92 14 6.94 14 8C14 9.06 14.42 10.08 15.17 10.83C15.92 11.58 16.94 12 18 12ZM16.59 6.59C16.97 6.21 17.47 6 18 6C18.53 6 19.04 6.21 19.41 6.59C19.78 6.97 20 7.47 20 8C20 8.53 19.79 9.04 19.41 9.41C19.03 9.79 18.53 10 18 10C17.47 10 16.96 9.79 16.59 9.41C16.21 9.03 16 8.53 16 8C16 7.47 16.21 6.96 16.59 6.59ZM16.38 24.29C16.57 24.48 16.67 24.73 16.67 25C16.67 25.27 16.56 25.52 16.38 25.71C16.19 25.9 15.94 26 15.67 26C15.4 26 15.15 25.89 14.96 25.71C14.77 25.52 14.67 25.27 14.67 25C14.67 24.73 14.78 24.48 14.96 24.29C15.14 24.1 15.4 24 15.67 24C15.94 24 16.19 24.11 16.38 24.29ZM8 4C6.94 4 5.92 4.42 5.17 5.17C4.42 5.92 4 6.94 4 8C4 9.06 4.42 10.08 5.17 10.83C5.92 11.58 6.94 12 8 12C9.06 12 10.08 11.58 10.83 10.83C11.58 10.08 12 9.06 12 8C12 6.94 11.58 5.92 10.83 5.17C10.08 4.42 9.06 4 8 4ZM9.41 9.41C9.03 9.79 8.53 10 8 10C7.47 10 6.96 9.79 6.59 9.41C6.21 9.03 6 8.53 6 8C6 7.47 6.21 6.96 6.59 6.59C6.97 6.22 7.47 6 8 6C8.53 6 9.04 6.21 9.41 6.59C9.79 6.97 10 7.47 10 8C10 8.53 9.79 9.04 9.41 9.41ZM5.71 24.29C5.9 24.48 6 24.73 6 25C6 25.27 5.89 25.52 5.71 25.71C5.52 25.9 5.27 26 5 26C4.73 26 4.48 25.89 4.29 25.71C4.1 25.52 4 25.27 4 25C4 24.73 4.11 24.48 4.29 24.29C4.48 24.1 4.73 24 5 24C5.27 24 5.52 24.11 5.71 24.29ZM11.04 24.29C11.23 24.48 11.33 24.73 11.33 25C11.33 25.27 11.22 25.52 11.04 25.71C10.85 25.9 10.6 26 10.33 26C10.06 26 9.81 25.89 9.62 25.71C9.43 25.52 9.33 25.27 9.33 25C9.33 24.73 9.44 24.48 9.62 24.29C9.81 24.1 10.06 24 10.33 24C10.6 24 10.85 24.11 11.04 24.29ZM8 14C6.94 14 5.92 14.42 5.17 15.17C4.42 15.92 4 16.94 4 18C4 19.06 4.42 20.08 5.17 20.83C5.92 21.58 6.94 22 8 22C9.06 22 10.08 21.58 10.83 20.83C11.58 20.08 12 19.06 12 18C12 16.94 11.58 15.92 10.83 15.17C10.08 14.42 9.06 14 8 14ZM9.41 19.41C9.03 19.79 8.53 20 8 20C7.47 20 6.96 19.79 6.59 19.41C6.21 19.03 6 18.53 6 18C6 17.47 6.21 16.96 6.59 16.59C6.97 16.22 7.47 16 8 16C8.53 16 9.04 16.21 9.41 16.59C9.79 16.97 10 17.47 10 18C10 18.53 9.79 19.04 9.41 19.41ZM30.64 23.95C30.14 23.08 29.31 22.46 28.36 22.21L29.7 19.32C30.23 18.18 30.14 16.87 29.46 15.81C28.77 14.74 27.6 14.09 26.31 14.09H26V1.85C25.96 1.35 25.73 0.88 25.36 0.53C24.99 0.19 24.51 0 24 0H1.85C1.35 0.04 0.88 0.27 0.53 0.64C0.19 1.01 0 1.49 0 2V28.15C0.04 28.65 0.27 29.13 0.64 29.47C1.01 29.81 1.5 30 2 30H19.83L18.79 33.02V33.05L18.78 33.08C18.6 34 18.84 34.93 19.43 35.64C20.03 36.37 20.92 36.79 21.87 36.79C22.96 36.79 23.95 36.24 24.53 35.31L30.59 27.71L30.61 27.68L30.63 27.65C31.3 26.5 31.3 25.13 30.63 23.98L30.64 23.95ZM2 2H24V14.1C22.86 14.15 21.84 14.71 21.18 15.6C21.07 15.45 20.96 15.3 20.82 15.17C20.07 14.42 19.05 14 17.99 14C16.93 14 15.91 14.42 15.16 15.17C14.41 15.92 13.99 16.94 13.99 18C13.99 19.06 14.41 20.08 15.16 20.83C15.91 21.58 16.93 22 17.99 22C18.1 22 18.21 21.98 18.32 21.97L17.16 24.66C16.69 25.77 16.79 27 17.4 28H2V2ZM19.44 19.38C19.44 19.38 19.42 19.4 19.41 19.41C19.03 19.79 18.53 20 18 20C17.47 20 16.96 19.79 16.59 19.41C16.21 19.03 16 18.53 16 18C16 17.47 16.21 16.96 16.59 16.59C16.97 16.22 17.47 16 18 16C18.53 16 19.04 16.21 19.41 16.59C19.78 16.97 20 17.47 20 18C20 18.04 20 18.07 19.99 18.11L19.44 19.38ZM28.47 26.37L22.41 33.97C22.28 34.18 22.08 34.27 21.88 34.27C21.52 34.27 21.16 33.97 21.24 33.53L22.69 28.58C22.69 28.48 22.69 28.38 22.67 28.28C22.67 28.28 22.67 28.26 22.67 28.25C22.65 28.16 22.62 28.07 22.58 27.99C22.39 27.57 21.96 27.28 21.46 27.28H20.6C19.73 27.28 19.14 26.42 19.47 25.64L23.06 17.32C23.22 16.93 23.59 16.67 24.01 16.61C24.07 16.61 24.13 16.58 24.19 16.58H26.32C27.21 16.58 27.8 17.47 27.44 18.26L26.01 21.35L25 23.54C25 23.54 25 23.54 25 23.55C24.95 23.67 24.93 23.79 24.94 23.91C24.94 23.95 24.97 23.98 24.98 24.01C25 24.09 25.02 24.18 25.07 24.25C25.1 24.29 25.14 24.31 25.17 24.34C25.22 24.39 25.27 24.46 25.34 24.49C25.38 24.51 25.44 24.51 25.49 24.53C25.56 24.55 25.63 24.59 25.72 24.59H27.42C28.36 24.59 28.95 25.58 28.49 26.37H28.47Z"/>
</svg>