<svg xmlns="http://www.w3.org/2000/svg" viewBox="0 0 35 32" fill="#32468a" >
    <path d="M11.71 4.29C11.9 4.48 12 4.73 12 5C12 5.27 11.89 5.52 11.71 5.71C11.52 5.9 11.27 6 11 6C10.73 6 10.48 5.89 10.29 5.71C10.1 5.53 10 5.27 10 5C10 4.73 10.11 4.48 10.29 4.29C10.48 4.1 10.73 4 11 4C11.27 4 11.52 4.11 11.71 4.29ZM5 4C4.73 4 4.48 4.11 4.29 4.29C4.1 4.48 4 4.73 4 5C4 5.27 4.11 5.52 4.29 5.71C4.48 5.9 4.73 6 5 6C5.27 6 5.52 5.89 5.71 5.71C5.9 5.52 6 5.27 6 5C6 4.73 5.89 4.48 5.71 4.29C5.52 4.1 5.27 4 5 4ZM23 4C22.73 4 22.48 4.11 22.29 4.29C22.1 4.48 22 4.73 22 5C22 5.27 22.11 5.52 22.29 5.71C22.47 5.9 22.73 6 23 6C23.27 6 23.52 5.89 23.71 5.71C23.9 5.52 24 5.27 24 5C24 4.73 23.89 4.48 23.71 4.29C23.52 4.1 23.27 4 23 4ZM17 4C16.73 4 16.48 4.11 16.29 4.29C16.1 4.48 16 4.73 16 5C16 5.27 16.11 5.52 16.29 5.71C16.47 5.9 16.73 6 17 6C17.27 6 17.52 5.89 17.71 5.71C17.9 5.52 18 5.27 18 5C18 4.73 17.89 4.48 17.71 4.29C17.52 4.1 17.27 4 17 4ZM33.13 26.35C33.51 27.84 33.5 30.08 31.47 31.13C30.86 31.44 30.23 31.6 29.6 31.6C29.08 31.6 28.56 31.49 28.07 31.27C27.68 31.09 27.34 30.84 27.02 30.55C26.47 31.14 25.6 31.62 24.21 31.62C22.82 31.62 21.96 31.14 21.41 30.56C21.09 30.85 20.75 31.1 20.36 31.28C19.87 31.5 19.36 31.61 18.83 31.61C18.21 31.61 17.57 31.45 16.96 31.14C15.59 30.44 15.15 29.2 15.12 28H2C1.49 28 1.01 27.81 0.64 27.47C0.27 27.13 0.04 26.65 0 26.15V2C0 1.49 0.19 1.01 0.53 0.64C0.87 0.27 1.35 0.04 1.85 0H26C26.51 0 26.99 0.19 27.36 0.53C27.73 0.87 27.96 1.34 28 1.85V15.19C28.12 15.29 28.25 15.37 28.36 15.49C28.57 15.7 28.75 15.93 28.91 16.17C29.87 16.25 31.81 16.6 33.21 17.98C34.28 19.03 34.82 20.44 34.82 22.17C34.82 24.13 34.1 25.47 33.12 26.35H33.13ZM2 8H26V2H2V8ZM2 26H14.94C14.46 25.47 14.07 24.81 13.84 24H4V12H24V13.91C24.07 13.91 24.14 13.89 24.22 13.89C24.87 13.89 25.45 13.99 26 14.14V9.99H2V25.99V26ZM15.2 17.97C16.61 16.58 18.56 16.24 19.52 16.16C19.68 15.93 19.87 15.7 20.08 15.48C20.62 14.93 21.27 14.52 22.01 14.26V14H6V22H13.6C13.63 20.35 14.16 18.99 15.2 17.97ZM32.83 22.16C32.83 20.98 32.5 20.08 31.82 19.41C31.24 18.84 30.51 18.54 29.86 18.36C30.09 19.32 30.08 20.07 30.08 20.13L28.08 20.08C28.08 20.08 28.1 18.08 26.91 16.87C26.26 16.21 25.38 15.89 24.21 15.89C23.04 15.89 22.15 16.21 21.5 16.87C20.31 18.08 20.32 20.06 20.32 20.08L18.32 20.12C18.32 20.06 18.31 19.31 18.54 18.35C17.89 18.52 17.15 18.83 16.57 19.4C15.89 20.07 15.57 20.97 15.57 22.15C15.57 25.69 18.95 25.88 19.34 25.89L19.3 27.89C18.69 27.88 17.91 27.75 17.13 27.46C17.05 28.14 17.13 28.96 17.88 29.35C18.46 29.65 19.01 29.68 19.53 29.45C20.16 29.16 20.67 28.51 20.86 27.75C21.05 26.99 21.05 24.94 21.05 23.3V22.75H23.05V23.29C23.05 25.23 23.05 27.23 22.8 28.23C22.75 28.42 22.67 28.6 22.6 28.78C22.7 29.13 23.04 29.61 24.2 29.61C25.36 29.61 25.72 29.12 25.81 28.76C25.74 28.58 25.66 28.41 25.61 28.22C25.36 27.22 25.36 25.22 25.36 23.28V22.74H27.36V23.29C27.36 24.94 27.36 26.98 27.54 27.74C27.73 28.5 28.24 29.15 28.87 29.44C29.39 29.67 29.94 29.64 30.52 29.34C31.27 28.95 31.35 28.13 31.27 27.44C30.47 27.75 29.68 27.88 29.06 27.89L29.03 25.89C29.41 25.89 32.79 25.69 32.79 22.15L32.83 22.16Z"/>
</svg>