<svg xmlns="http://www.w3.org/2000/svg" viewBox="0 0 29 40" fill="#32468B">
    <path d="M28.1 24.78C28.1 18.89 24.45 13.84 19.3 11.76V8.48C19.3 7.38 18.4 6.48 17.3 6.48H15.05V1C15.05 0.45 14.6 0 14.05 0C13.5 0 13.05 0.45 13.05 1V6.48H10.8C9.7 6.48 8.8 7.38 8.8 8.48V11.76C3.65 13.84 0 18.89 0 24.78V25.78H6.88C7.37 29.31 10.39 32.03 14.05 32.03C17.71 32.03 20.73 29.31 21.22 25.78H28.1V24.78ZM10.8 11.12V8.48H17.3V11.12C17.3 11.12 17.25 11.12 17.23 11.11C16.79 11.01 16.34 10.93 15.88 10.87C15.8 10.86 15.71 10.84 15.63 10.83C15.11 10.77 14.59 10.74 14.06 10.74C13.53 10.74 13 10.78 12.49 10.83C12.41 10.83 12.32 10.86 12.24 10.87C11.78 10.93 11.33 11.01 10.89 11.11C10.87 11.11 10.84 11.11 10.82 11.12H10.8ZM14.05 30.03C11.5 30.03 9.36 28.2 8.9 25.78H19.21C18.74 28.2 16.61 30.03 14.06 30.03H14.05ZM21.3 23.78H2.04C2.44 18.93 5.73 14.9 10.17 13.39C10.46 13.29 10.75 13.2 11.04 13.13C11.09 13.12 11.14 13.11 11.18 13.09C11.45 13.02 11.73 12.96 12.01 12.91C12.1 12.89 12.2 12.88 12.29 12.87C12.53 12.83 12.78 12.8 13.02 12.78C13.19 12.77 13.36 12.76 13.53 12.76C13.87 12.74 14.22 12.74 14.56 12.76C14.73 12.76 14.9 12.77 15.07 12.78C15.31 12.8 15.56 12.84 15.8 12.87C15.89 12.88 15.99 12.89 16.08 12.91C16.36 12.96 16.63 13.02 16.91 13.09C16.96 13.1 17.01 13.11 17.05 13.13C17.34 13.21 17.63 13.29 17.92 13.39C22.36 14.91 25.65 18.94 26.05 23.78H21.29H21.3ZM14.05 34.62C14.6 34.62 15.05 35.07 15.05 35.62V38.68C15.05 39.23 14.6 39.68 14.05 39.68C13.5 39.68 13.05 39.23 13.05 38.68V35.62C13.05 35.07 13.5 34.62 14.05 34.62ZM8.44 32.86C8.89 33.18 9 33.8 8.69 34.25L6.94 36.77C6.62 37.22 6 37.34 5.55 37.02C5.1 36.7 4.98 36.08 5.3 35.63L7.05 33.11C7.37 32.66 7.99 32.54 8.44 32.86ZM19.66 32.86C20.11 32.54 20.74 32.66 21.05 33.11L22.8 35.63C23.12 36.08 23 36.71 22.55 37.02C22.1 37.33 21.47 37.22 21.16 36.77L19.41 34.25C19.1 33.8 19.21 33.18 19.66 32.86ZM5.35 29.39C5.61 29.88 5.42 30.48 4.93 30.74L2.22 32.17C1.73 32.43 1.13 32.24 0.87 31.75C0.61 31.26 0.8 30.66 1.29 30.4L4 28.97C4.49 28.71 5.09 28.9 5.35 29.39ZM24.1 28.97L26.81 30.4C27.3 30.66 27.48 31.26 27.23 31.75C26.97 32.24 26.37 32.42 25.88 32.17L23.17 30.74C22.68 30.48 22.5 29.88 22.75 29.39C23.01 28.9 23.61 28.71 24.1 28.97Z"/>
</svg>