<svg xmlns="http://www.w3.org/2000/svg" viewBox="0 0 34 38" fill="#32468A">
    <path d="M27.41 19.92C27.41 18.22 25.39 11.98 24.39 9H29.5C31.98 9 34 6.98 34 4.5C34 2.02 31.98 0 29.5 0H3.5C1.57 0 0 1.57 0 3.5V38H34V30H30.62C32.68 28.35 34 25.82 34 22.98V19.98H27.41C27.41 19.98 27.41 19.94 27.41 19.92ZM25.41 19.98H24V14.33C24.78 16.89 25.41 19.2 25.41 19.92C25.41 19.94 25.41 19.96 25.41 19.98ZM20.59 19.98C20.59 19.98 20.59 19.94 20.59 19.92C20.59 19.2 21.22 16.89 22 14.33V19.98H20.59ZM18.59 19.92C18.59 19.92 18.59 19.96 18.59 19.98H11.99V22.98C11.99 25.82 13.31 28.34 15.37 30H9.99V9H21.6C20.6 11.98 18.58 18.23 18.58 19.92H18.59ZM2 3.5C2 2.67 2.67 2 3.5 2H29.5C30.88 2 32 3.12 32 4.5C32 5.88 30.88 7 29.5 7H10C8.9 7 8 7.9 8 9V30H2V3.5ZM32 32V36H2V32H32ZM32 22.98C32 26.84 28.86 29.98 25 29.98H21C17.14 29.98 14 26.84 14 22.98V21.98H32V22.98ZM30.55 4.56C30.55 5.11 30.1 5.56 29.55 5.56C29 5.56 28.55 5.11 28.55 4.56C28.55 4.01 29 3.56 29.55 3.56C30.1 3.56 30.55 4.01 30.55 4.56ZM26.71 4.56C26.71 5.11 26.26 5.56 25.71 5.56C25.16 5.56 24.71 5.11 24.71 4.56C24.71 4.01 25.16 3.56 25.71 3.56C26.26 3.56 26.71 4.01 26.71 4.56ZM5.74 15.99V23.4C5.74 23.95 5.29 24.4 4.74 24.4C4.19 24.4 3.74 23.95 3.74 23.4V15.99C3.74 15.44 4.19 14.99 4.74 14.99C5.29 14.99 5.74 15.44 5.74 15.99Z"/>
</svg>