<svg xmlns="http://www.w3.org/2000/svg" viewBox="0 0 33 37" fill="#32468a">
    <path d="M8 4C6.94 4 5.92 4.42 5.17 5.17C4.42 5.92 4 6.94 4 8C4 9.06 4.42 10.08 5.17 10.83C5.92 11.58 6.94 12 8 12C9.06 12 10.08 11.58 10.83 10.83C11.58 10.08 12 9.06 12 8C12 6.94 11.58 5.92 10.83 5.17C10.08 4.42 9.06 4 8 4ZM9.41 9.41C9.03 9.79 8.53 10 8 10C7.47 10 6.96 9.79 6.59 9.41C6.21 9.03 6 8.53 6 8C6 7.47 6.21 6.96 6.59 6.59C6.97 6.22 7.47 6 8 6C8.53 6 9.04 6.21 9.41 6.59C9.79 6.97 10 7.47 10 8C10 8.53 9.79 9.04 9.41 9.41ZM5.71 24.29C5.9 24.48 6 24.73 6 25C6 25.27 5.89 25.52 5.71 25.71C5.52 25.9 5.27 26 5 26C4.73 26 4.48 25.89 4.29 25.71C4.1 25.52 4 25.27 4 25C4 24.73 4.11 24.48 4.29 24.29C4.48 24.1 4.73 24 5 24C5.27 24 5.52 24.11 5.71 24.29ZM11.04 24.29C11.23 24.48 11.33 24.73 11.33 25C11.33 25.27 11.22 25.52 11.04 25.71C10.85 25.9 10.6 26 10.33 26C10.06 26 9.81 25.89 9.62 25.71C9.43 25.52 9.33 25.27 9.33 25C9.33 24.73 9.44 24.48 9.62 24.29C9.81 24.1 10.06 24 10.33 24C10.6 24 10.85 24.11 11.04 24.29ZM18 12C19.06 12 20.08 11.58 20.83 10.83C21.58 10.08 22 9.06 22 8C22 6.94 21.58 5.92 20.83 5.17C20.08 4.42 19.06 4 18 4C16.94 4 15.92 4.42 15.17 5.17C14.42 5.92 14 6.94 14 8C14 9.06 14.42 10.08 15.17 10.83C15.92 11.58 16.94 12 18 12ZM16.59 6.59C16.97 6.21 17.47 6 18 6C18.53 6 19.04 6.21 19.41 6.59C19.78 6.97 20 7.47 20 8C20 8.53 19.79 9.04 19.41 9.41C19.03 9.79 18.53 10 18 10C17.47 10 16.96 9.79 16.59 9.41C16.21 9.03 16 8.53 16 8C16 7.47 16.21 6.96 16.59 6.59ZM8 14C6.94 14 5.92 14.42 5.17 15.17C4.42 15.92 4 16.94 4 18C4 19.06 4.42 20.08 5.17 20.83C5.92 21.58 6.94 22 8 22C9.06 22 10.08 21.58 10.83 20.83C11.58 20.08 12 19.06 12 18C12 16.94 11.58 15.92 10.83 15.17C10.08 14.42 9.06 14 8 14ZM9.41 19.41C9.03 19.79 8.53 20 8 20C7.47 20 6.96 19.79 6.59 19.41C6.21 19.03 6 18.53 6 18C6 17.47 6.21 16.96 6.59 16.59C6.97 16.22 7.47 16 8 16C8.53 16 9.04 16.21 9.41 16.59C9.79 16.97 10 17.47 10 18C10 18.53 9.79 19.04 9.41 19.41ZM27.11 16.78C26.71 16.37 26.35 16.01 26 15.7V1.85C25.96 1.35 25.73 0.88 25.36 0.53C24.99 0.19 24.51 0 24 0H1.85C1.35 0.04 0.88 0.27 0.53 0.64C0.19 1.01 0 1.49 0 2V28.15C0.04 28.65 0.27 29.13 0.64 29.47C1.01 29.81 1.5 30 2 30H15.29C15.58 31.26 16.24 32.49 17.26 33.59C19.06 35.54 21.61 36.76 23.91 36.77H23.96C28.23 36.77 32.67 33.77 32.9 28.02C33.05 24.33 29.87 19.65 27.1 16.77L27.11 16.78ZM2 2H24V14.22C22.99 13.66 22.38 13.66 22.06 13.66C21.25 13.66 20.52 13.99 19.98 14.54C19.38 14.2 18.7 13.99 18 13.99C16.94 13.99 15.92 14.41 15.17 15.16C14.42 15.91 14 16.93 14 17.99C14 19.05 14.42 20.07 15.17 20.82C15.84 21.49 16.72 21.88 17.66 21.96C17.18 22.62 16.69 23.36 16.26 24.21C16.09 24.08 15.89 24 15.67 24C15.4 24 15.15 24.11 14.96 24.29C14.77 24.47 14.67 24.73 14.67 25C14.67 25.27 14.78 25.52 14.96 25.71C15.12 25.87 15.32 25.95 15.54 25.98C15.35 26.61 15.21 27.28 15.15 28.01H2V2ZM19.57 18.9C19.6 19 19.57 19.13 19.51 19.3C19.48 19.34 19.45 19.38 19.41 19.42C19.03 19.8 18.53 20.01 18 20.01C17.47 20.01 16.96 19.8 16.59 19.42C16.21 19.04 16 18.54 16 18.01C16 17.48 16.21 16.97 16.59 16.6C16.97 16.23 17.47 16.01 18 16.01C18.42 16.01 18.82 16.14 19.15 16.38C19.05 17.43 19.4 18.43 19.56 18.91L19.57 18.9ZM27.19 30.74C26.89 33.04 26 34.27 23.92 34.27C22 34.27 20.98 32.09 20.76 30.39C20.62 29.27 20.75 28.93 21.03 28.93C21.44 28.93 22.18 29.67 22.82 29.67C22.91 29.67 22.99 29.66 23.08 29.62C24.44 29.08 23.5 27.38 23.18 24.97C23.1 24.32 23.21 24.05 23.45 24.05C24.42 24.05 27.47 28.68 27.21 30.73L27.19 30.74ZM29.68 30.87C29.9 28.18 27.58 24.57 26.39 23.22C25.76 22.51 24.78 21.56 23.43 21.56C22.64 21.56 21.89 21.9 21.37 22.49C20.45 23.53 20.62 24.86 20.68 25.3C20.73 25.7 20.8 26.09 20.87 26.44C20.13 26.48 19.43 26.81 18.94 27.37C18.09 28.34 18.11 29.55 18.26 30.71C18.26 30.76 18.28 30.8 18.29 30.84C18.09 30.51 17.94 30.16 17.82 29.81C17.77 29.66 17.73 29.51 17.7 29.35C17.68 29.26 17.66 29.17 17.65 29.08C17.62 28.83 17.6 28.58 17.62 28.33C17.62 28.21 17.65 28.11 17.67 27.99C18.24 23.27 23.06 21.21 21.92 18.04C21.85 17.85 21.8 17.68 21.75 17.52C21.74 17.48 21.73 17.45 21.72 17.41C21.69 17.29 21.66 17.18 21.65 17.07C21.65 17.04 21.65 17.02 21.64 16.99C21.63 16.88 21.62 16.77 21.62 16.68C21.62 16.68 21.62 16.67 21.62 16.66C21.62 16.56 21.64 16.48 21.67 16.41C21.74 16.23 21.87 16.15 22.06 16.15C22.49 16.15 23.22 16.59 24.05 17.31C24.14 17.39 24.23 17.47 24.32 17.55C24.43 17.65 24.54 17.75 24.65 17.85C24.74 17.94 24.84 18.03 24.93 18.12C25.09 18.28 25.25 18.44 25.41 18.61C25.53 18.74 25.65 18.87 25.77 19C28.1 21.57 30.52 25.33 30.41 27.91C30.36 29.06 30.1 30.04 29.69 30.86L29.68 30.87Z"/>
</svg>