<svg height="150" width="288" viewBox="0 0 288 150" fill="#32468a" xmlns="http://www.w3.org/2000/svg">
    <path d="M238.389 39.1756C229.993 37.9724 221.993 37.1532 214.141 35.5404C210.129 34.7212 206.488 32.0844 202.476 31.0093C199.033 30.0877 199.083 26.9901 197.844 24.7117C197.621 24.2765 198.785 22.3565 199.603 22.1261C202.055 21.3837 204.68 21.2301 207.157 20.6157C208.247 20.3597 209.237 19.5149 210.253 18.9517C210.104 18.6189 209.98 18.2605 209.832 17.9277C216.222 18.3885 222.612 19.0029 229.027 19.2589C234.723 19.4893 240.445 19.3869 246.166 19.2589C250.451 19.1821 254.86 19.3613 259.021 18.5165C265.733 17.1341 271.801 19.6941 278.117 20.7949C282.798 21.6141 283.937 22.6381 287.999 27.4765C283.12 29.7805 278.463 32.3148 273.559 34.158C269.745 35.5916 265.584 36.078 261.596 37.0764C259.689 37.5628 258.327 38.254 257.931 40.8652C256.222 52.1035 254.265 63.3163 252.209 74.5034C249.906 86.9961 251.714 99.2328 253.398 111.598C254.414 119.022 253.844 126.676 254.364 134.202C254.538 136.737 256.024 139.143 256.593 141.677C256.99 143.367 257.435 145.466 256.816 146.9C256.172 148.308 254.29 149.844 252.829 149.972C250.674 150.177 248.395 149.204 246.191 148.769C243.863 148.308 241.485 147.335 239.206 147.54C233.336 148.052 231.528 145.057 232.519 139.117C234.104 129.594 234.55 120.097 234.401 110.497C234.253 100.334 233.51 90.1193 234.154 80.0074C234.946 67.361 236.903 54.8171 238.34 42.222C238.463 41.1212 238.34 39.9692 238.34 39.1756H238.389Z"/>
    <path d="M131.911 68.3595C133.298 69.0507 134.438 69.5371 135.503 70.1515C144.023 75.0411 152.444 80.161 161.088 84.8202C166.141 87.5594 171.466 89.9658 176.89 91.7834C183.305 93.9338 190.017 95.1369 196.531 97.0057C199.949 97.9785 202.153 100.897 204.481 103.431C205.967 105.07 207.205 106.913 208.766 108.935C208.766 111.06 208.791 113.722 208.766 116.385C208.766 116.999 208.617 117.639 208.345 118.177C207.428 119.969 206.438 121.735 205.422 123.476C204.58 124.961 203.911 126.676 202.698 127.802C201.98 128.494 200.394 128.57 199.28 128.391C197.075 128.058 194.871 127.546 192.791 126.778C184.295 123.63 175.651 120.762 167.428 116.974C160.221 113.646 153.385 109.447 146.648 105.172C140.803 101.435 135.899 96.4937 131.243 91.2714C128.295 87.9946 125.1 84.5898 120.172 84.001C117.744 83.7194 116.605 84.4618 117.175 86.945C118.314 91.8602 119.726 96.7241 120.791 101.665C122.054 107.527 123.441 113.466 122.574 119.482C122.252 121.735 120.989 124.167 119.453 125.806C117.323 128.058 114.599 129.825 111.899 131.438C110.834 132.078 109.1 132.078 107.812 131.745C104.023 130.798 100.531 129.159 97.7567 126.138C96.6422 124.935 94.9332 124.27 93.9673 123.015C92.9766 121.71 92.1097 119.969 92.0106 118.382C91.862 115.566 92.0106 112.622 92.6546 109.857C94.5369 101.563 94.1159 93.601 90.797 85.6906C89.4843 82.5674 87.8496 79.777 85.8187 77.1147C83.1685 73.6331 82.2521 69.4091 83.2181 65.2107C84.828 58.222 86.8837 51.3356 89.0137 44.4749C89.6081 42.5805 90.8465 40.7629 92.2088 39.2781C95.379 35.7965 98.7474 32.4941 102.141 29.2429C103.28 28.1678 104.741 27.4254 106.128 26.683C109.769 24.7374 113.336 22.6382 117.15 21.0766C121.658 19.2078 126.264 17.3902 130.995 16.3918C135.28 15.4958 139.812 15.419 144.196 15.6238C149.175 15.8542 152.518 18.5678 154.574 23.483C155.986 26.8366 156.778 30.3437 156.555 33.6461C156.283 37.3581 154.747 41.1469 153.113 44.5773C151.305 48.3916 148.828 51.9244 146.475 55.4828C143.949 59.2972 140.952 62.5995 136.667 64.5963C134.983 65.3899 133.67 66.9259 131.911 68.3595ZM120.122 40.9677C118.562 41.7613 117.175 42.5549 115.738 43.1693C110.562 45.3453 106.624 49.1084 102.958 53.2556C101.794 54.5868 102.091 56.0204 103.478 56.9164C105.534 58.2476 107.54 59.6812 109.596 61.038C110.066 61.3452 110.71 61.7291 111.181 61.6268C114.351 60.9356 117.571 60.3468 120.617 59.246C124.952 57.71 129.261 55.9436 133.422 53.9212C139.862 50.798 144.741 45.8572 148.184 39.5085C148.555 38.7917 148.679 37.6909 148.456 36.8973C147.317 32.9037 143.181 31.1117 139.763 34.3117C136.494 37.3581 132.754 39.9181 129.063 42.5037C126.24 44.4749 122.425 43.7069 120.147 40.9421L120.122 40.9677Z"/>
    <path d="M0.0495355 95.5724C1.6099 69.6141 4.6068 44.2191 12.7802 19.6944C14.7616 13.7808 17.4365 8.07208 20.0867 2.44012C20.6563 1.23692 22.5634 0.136129 23.9257 0.0337299C28.0867 -0.247868 32.1486 1.31372 36.1114 1.74892C42.6253 2.44012 47.3064 6.48489 52.7058 8.91688C62.7615 13.4224 67.4426 22.92 70.3652 33.4415C72.9411 42.7087 72.198 51.8478 69.9689 60.9358C67.5417 70.8429 64.6686 80.6221 62.2414 90.5292C59.9132 100.104 57.9318 109.755 55.7522 119.38C54.9844 122.734 54.1176 126.062 53.2755 129.415C53.1516 129.876 52.8792 130.337 52.6315 130.747C49.7832 135.175 37.969 137.684 33.387 135.175C31.0092 133.895 28.2105 132.487 25.6842 132.641C17.2879 133.179 6.24148 126.523 3.31888 115.515C1.60991 109.038 1.06501 102.228 0 95.5724H0.0495355ZM42.0557 23.2016C40.7677 24.6608 39.7275 25.992 38.5139 27.1184C33.808 31.5471 30.9102 36.9231 29.9938 43.4511C29.4984 46.9838 29.0031 50.5422 28.4086 54.0494C27.0959 61.7038 25.6346 69.3325 24.4458 76.9869C23.4798 83.2332 22.4644 89.4796 22.1672 95.7772C21.9195 101.025 22.3158 106.401 23.2074 111.572C23.7523 114.747 26.3034 118.023 29.5232 117.895C34.452 117.691 39.4303 116.411 44.1609 114.9C45.7213 114.414 46.9102 111.931 47.777 110.113C48.743 108.039 49.3622 105.736 49.6841 103.457C51.3188 92.3212 53.6718 81.2108 54.0433 70.0237C54.3405 61.3454 52.4829 52.539 50.9473 43.8863C49.6346 36.4879 46.9597 29.4992 42.0557 23.176V23.2016Z"/>
</svg>
