<svg width="676" height="150" viewBox="0 0 676 150" fill="#32468a" xmlns="http://www.w3.org/2000/svg">
    <path d="M606.949 149.486C606.743 149.486 606.64 149.384 606.64 149.178C606.64 149.075 606.28 148.921 605.56 148.715C604.943 148.509 604.274 148.098 603.554 147.481C602.937 146.966 602.577 146.503 602.474 146.092C602.474 145.783 602.32 145.32 602.011 144.703C600.777 142.337 600.057 140.897 599.851 140.383C599.646 139.766 599.389 138.223 599.08 135.754C599.08 135.343 599.183 135.085 599.389 134.982L599.697 132.668C599.903 132.462 600.006 132.308 600.006 132.205C600.006 132.102 599.903 132.051 599.697 132.051C599.491 131.948 599.389 131.639 599.389 131.125C599.286 131.125 599.234 131.074 599.234 130.971H599.08C598.977 130.971 598.926 130.868 598.926 130.662L599.08 130.508C599.183 130.405 599.234 130.045 599.234 129.428C599.234 128.811 599.491 128.245 600.006 127.73C599.903 127.628 599.8 127.576 599.697 127.576C599.594 127.473 599.491 127.268 599.389 126.959C599.389 126.65 599.389 126.29 599.389 125.879C599.389 124.542 599.491 123.616 599.697 123.102C599.903 122.587 600.006 122.124 600.006 121.713C600.006 121.199 600.16 120.736 600.469 120.324C600.777 119.913 600.931 119.553 600.931 119.244C600.726 118.215 600.623 117.187 600.623 116.158V112.764C600.829 112.764 600.931 111.375 600.931 108.597C600.931 105.203 600.983 103.249 601.086 102.734C601.189 102.117 601.291 101.345 601.394 100.42V93.9392L601.857 88.8473L602.937 79.8981C603.451 78.0465 603.709 75.6806 603.709 72.8003C604.12 68.9943 604.531 65.7541 604.943 63.0796C605.149 62.1538 605.251 61.1766 605.251 60.1479C605.354 59.0164 605.457 57.3191 605.56 55.0561C605.663 54.2331 605.714 53.3074 605.714 52.2787C606.023 45.0781 606.229 41.1178 606.331 40.3977C606.537 38.7519 606.743 37.1575 606.949 35.6145C607.154 33.9687 607.257 33.0943 607.257 32.9914C607.257 32.7857 607.309 32.6314 607.411 32.5285C607.411 32.0142 607.309 31.4999 607.103 30.9856C607.206 30.7798 607.309 30.5227 607.411 30.2141C607.617 29.9055 607.874 28.6711 608.183 26.5109L608.337 23.8879C608.337 22.3449 608.337 21.2134 608.337 20.4933C608.44 19.7732 608.543 19.3103 608.646 19.1046C608.851 18.8989 609.006 18.5389 609.109 18.0245L609.263 8.61235H610.343C611.063 8.61235 611.526 8.56091 611.731 8.45804C611.937 8.25231 612.348 8.14945 612.966 8.14945C613.891 8.14945 615.074 8.25231 616.514 8.45804L620.68 9.38384C621.091 9.38384 621.297 9.4867 621.297 9.69243L620.988 11.544C620.988 11.8526 621.143 12.0069 621.451 12.0069C621.76 12.0069 621.914 12.1098 621.914 12.3155L621.76 12.9327C621.76 13.9613 622.171 14.99 622.994 16.0187C623.303 16.6358 623.508 17.0473 623.611 17.253C623.817 17.3559 623.971 17.5102 624.074 17.7159C624.074 19.0532 624.28 20.0818 624.691 20.8019C625.103 21.4191 625.308 21.882 625.308 22.1906C625.205 22.3963 625.154 22.7049 625.154 23.1164C625.154 23.7336 625.257 24.505 625.463 25.4308C625.668 26.2538 625.823 26.7681 625.925 26.9738C626.028 27.1795 626.183 27.4881 626.388 27.8996C626.697 28.2082 627.057 28.774 627.468 29.5969C627.983 30.4198 628.445 31.2427 628.857 32.0656L631.171 37.0032L632.714 39.6263V40.2434C632.714 40.7578 633.022 41.4778 633.64 42.4036C633.845 42.8151 634.102 43.0208 634.411 43.0208V43.4837L634.874 44.5638C635.08 44.7695 635.234 44.9753 635.337 45.181C635.44 45.3867 635.542 46.2096 635.645 47.6498C635.851 47.7526 636.005 47.9584 636.108 48.2669C636.314 48.4727 636.468 48.7298 636.571 49.0384C636.674 49.2442 636.725 49.4499 636.725 49.6556C636.828 49.8614 636.931 50.0671 637.034 50.2728C637.24 50.3757 637.548 50.7357 637.96 51.3529C638.885 53.1016 639.4 54.2846 639.502 54.9018C639.708 55.4161 639.862 55.8276 639.965 56.1362C640.068 56.3419 640.171 56.4962 640.274 56.599H640.12C640.634 57.5248 640.994 58.142 641.2 58.4506C641.508 58.7592 641.662 59.0164 641.662 59.2221C641.662 59.4278 641.714 59.6336 641.817 59.8393C642.022 60.045 642.125 60.1993 642.125 60.3022C642.228 60.4051 642.331 60.5594 642.434 60.7651C642.537 60.868 642.588 61.0223 642.588 61.228C642.588 61.3309 642.588 61.4852 642.588 61.6909C642.691 61.8966 642.794 62.0509 642.897 62.1538V62.3081C643 62.4109 643.051 62.6167 643.051 62.9253C643.154 63.131 643.308 63.4396 643.514 63.8511C643.719 64.1597 643.925 64.4168 644.131 64.6225C644.851 65.3426 645.211 65.9084 645.211 66.3198C645.211 66.7313 645.314 67.1427 645.519 67.5542C645.828 67.8628 646.034 68.0171 646.137 68.0171C646.857 68.0171 647.217 63.5939 647.217 54.7475C647.217 50.0157 647.268 47.5983 647.371 47.4955C647.577 47.2897 647.679 46.7754 647.679 45.9525C647.679 45.0267 647.885 44.3581 648.297 43.9466C648.914 43.1237 649.222 40.8606 649.222 37.1575C649.222 35.8202 649.119 34.6373 648.914 33.6086C648.914 32.7857 649.017 32.1685 649.222 31.7571C649.531 31.2427 650.045 28.774 650.765 24.3507L650.611 23.7336C650.817 21.9848 651.125 20.2361 651.537 18.4874C651.845 18.1788 651.999 17.5102 651.999 16.4815C651.999 15.35 652.102 14.7328 652.308 14.63C652.617 14.4242 652.822 14.2185 652.925 14.0128C652.925 13.3956 652.925 13.0356 652.925 12.9327C653.028 12.727 653.131 12.5212 653.234 12.3155C654.571 10.5668 655.239 8.97237 655.239 7.53226C655.239 7.22366 655.136 7.06936 654.931 7.06936V6.91506C654.828 6.91506 654.776 6.86363 654.776 6.76077L654.622 6.60647C654.622 6.09214 655.856 5.78354 658.325 5.68067C658.736 5.57781 658.994 5.52638 659.096 5.52638C659.302 5.52638 659.405 5.37208 659.405 5.06349C659.405 4.75489 659.868 4.60059 660.794 4.60059C661.719 4.60059 662.645 4.54916 663.571 4.4463C664.599 4.24056 665.628 4.1377 666.656 4.1377C667.993 4.1377 669.228 4.29199 670.359 4.60059C671.593 4.90919 672.262 5.21779 672.365 5.52638C672.571 5.83498 672.725 6.09214 672.828 6.29787C673.033 6.40073 673.342 6.45216 673.753 6.45216C674.576 6.55503 674.988 6.91506 674.988 7.53226C674.988 8.14945 674.576 8.8695 673.753 9.69243C673.239 10.2068 672.879 10.8239 672.673 11.544C672.468 12.2641 672.262 13.9613 672.056 16.6358L671.748 20.339L672.211 24.0421L671.593 29.2883L671.748 30.9856L671.593 33.7629C671.593 35.9231 671.645 37.2089 671.748 37.6204C671.953 38.8548 672.056 41.4778 672.056 45.4896C672.056 49.7071 671.953 51.9187 671.748 52.1244C671.645 52.2273 671.593 52.793 671.593 53.8217V64.4682C671.593 69.5087 671.748 72.646 672.056 73.8804C672.262 74.2919 672.416 75.012 672.519 76.0406C672.519 79.2294 672.571 82.5211 672.673 85.9157C672.776 89.3102 672.931 91.419 673.136 92.2419C673.136 92.5505 673.291 93.0134 673.599 93.6306L673.445 94.4021C673.445 94.6078 673.599 94.865 673.908 95.1736C674.525 96.408 674.833 98.0024 674.833 99.9568C674.833 100.677 674.833 101.345 674.833 101.963C674.936 102.477 675.039 102.888 675.142 103.197C675.348 103.506 675.451 104.226 675.451 105.357C675.451 106.283 675.348 106.746 675.142 106.746C675.039 106.746 674.936 107.003 674.833 107.517C674.833 107.929 674.833 108.392 674.833 108.906C674.833 109.523 674.885 110.038 674.988 110.449C674.988 110.758 674.628 111.118 673.908 111.529C673.188 111.838 672.673 112.146 672.365 112.455C672.159 112.764 672.056 113.226 672.056 113.844C672.056 115.592 672.005 116.57 671.902 116.775C671.799 116.981 671.491 117.341 670.976 117.855L670.822 118.164C670.616 118.473 670.462 118.627 670.359 118.627C669.331 118.627 668.816 119.141 668.816 120.17C668.816 120.787 668.713 121.096 668.508 121.096C668.302 121.096 668.096 121.456 667.891 122.176C667.685 122.896 667.479 123.256 667.273 123.256C667.171 123.256 667.068 123.307 666.965 123.41L666.193 124.027C666.091 124.027 665.576 123.667 664.651 122.947C664.548 123.153 664.394 123.462 664.188 123.873C664.085 124.182 663.776 124.336 663.262 124.336L662.954 124.182C662.234 124.182 661.719 124.13 661.411 124.027C658.119 123.822 655.548 122.896 653.697 121.25C651.845 119.604 650.919 118.73 650.919 118.627C651.022 118.318 651.177 118.061 651.382 117.855C650.868 117.855 650.354 117.444 649.839 116.621C649.222 116.21 648.759 115.695 648.451 115.078C647.937 114.564 647.577 114.152 647.371 113.844C647.268 113.535 647.165 113.381 647.062 113.381C646.959 113.381 646.908 113.329 646.908 113.226V112.301C646.291 111.683 645.982 110.295 645.982 108.135L645.674 107.517V107.209C645.571 107.003 645.468 106.643 645.365 106.129C645.262 105.614 645.211 104.843 645.211 103.814C645.108 103.403 644.954 103.146 644.748 103.043C644.645 102.94 644.491 102.477 644.285 101.654C644.079 100.728 643.771 100.111 643.359 99.8025C643.051 99.4939 642.897 99.2368 642.897 99.031C642.897 98.7224 642.742 98.3624 642.434 97.9509C642.125 97.4366 641.92 96.9223 641.817 96.408C641.405 95.585 641.148 95.0193 641.045 94.7107C641.045 94.2992 640.994 94.0935 640.891 94.0935C640.788 94.0935 640.685 93.7334 640.582 93.0134C640.48 92.2933 640.222 91.779 639.811 91.4704C639.502 91.059 639.348 90.7504 639.348 90.5446C639.348 90.236 639.297 90.0303 639.194 89.9274C639.091 89.7217 638.988 89.5674 638.885 89.4645C638.165 88.7445 637.651 87.973 637.342 87.1501C637.137 86.7386 637.034 86.2757 637.034 85.7614C636.931 85.6585 636.725 85.5042 636.417 85.2985C636.108 84.9899 635.902 84.6813 635.8 84.3727C635.8 84.0641 635.697 83.6526 635.491 83.1383C634.051 81.1839 633.331 79.7952 633.331 78.9723H633.177C632.971 78.9723 632.611 78.3551 632.097 77.1207C631.685 75.7834 631.223 74.6519 630.708 73.7261C630.297 72.8003 630.091 72.1832 630.091 71.8746C630.091 71.4631 629.937 70.9488 629.628 70.3316C629.32 69.7144 628.96 69.0972 628.548 68.48C628.24 67.7599 627.931 67.297 627.623 67.0913C627.314 66.7827 627.16 66.577 627.16 66.4741C626.44 64.4168 625.874 63.3882 625.463 63.3882C625.36 63.3882 625.308 63.5939 625.308 64.0054C625.103 66.4741 624.948 68.9943 624.845 71.566C624.845 72.286 624.794 72.7489 624.691 72.9546C624.588 73.1604 624.485 73.4175 624.383 73.7261L624.845 76.8121C624.845 77.1207 624.743 77.3779 624.537 77.5836C624.434 77.6865 624.383 78.0979 624.383 78.818C624.074 80.9781 623.92 82.6754 623.92 83.9098C623.817 84.6299 623.714 85.0928 623.611 85.2985L623.303 91.3161C623.303 100.368 623.097 105.923 622.685 107.98C622.994 109.42 623.2 110.963 623.303 112.609C623.405 114.255 623.457 116.775 623.457 120.17L622.994 122.176C623.405 123.822 623.611 125.827 623.611 128.193C623.405 134.468 623.2 137.811 622.994 138.223C622.788 138.634 622.48 138.994 622.068 139.303C621.657 139.611 621.4 139.92 621.297 140.229C621.194 140.537 621.143 141.052 621.143 141.772C621.143 143.006 620.886 143.726 620.371 143.932C619.96 144.137 619.754 145.063 619.754 146.709C619.651 146.915 619.343 147.018 618.828 147.018C618.417 147.018 618.16 147.069 618.057 147.172C617.954 147.275 617.851 147.481 617.748 147.789C617.748 148.098 617.286 148.252 616.36 148.252C615.948 148.252 615.228 147.995 614.2 147.481C613.994 147.481 613.84 147.583 613.737 147.789C613.634 147.995 613.48 148.098 613.274 148.098L611.731 147.789C611.32 147.789 611.011 147.892 610.806 148.098C610.6 148.406 610.24 148.612 609.726 148.715C608.491 149.229 607.566 149.486 606.949 149.486ZM654.005 17.253C654.211 17.253 654.314 17.1502 654.314 16.9444C654.314 16.7387 654.211 16.6358 654.005 16.6358C653.799 16.6358 653.697 16.7387 653.697 16.9444C653.697 17.1502 653.799 17.253 654.005 17.253Z" fill="#32468A"/>
    <path d="M580.923 58.1378V58.7585C580.923 58.9654 580.923 59.3792 581.337 59.3792C581.75 59.3792 581.75 58.7585 581.957 58.1378C582.164 59.1723 582.371 59.9999 582.785 61.0343C582.578 64.3447 582.371 67.4481 581.75 70.5516C580.302 77.1723 579.268 93.1033 573.682 106.138C572.854 108.207 568.302 117.931 567.475 120.207V121.655L561.889 129.724C555.268 139.655 538.096 143.172 526.924 143.172C513.062 143.172 501.89 125.586 498.165 114C495.476 105.724 494.441 97.4482 494.441 88.5516C494.441 76.9654 496.51 65.793 498.993 54.4136C500.028 53.5861 500.234 51.9309 500.234 50.6895C504.786 34.5516 514.51 7.24121 526.303 7.24121C530.441 7.24121 532.096 8.0688 539.13 8.0688C539.751 9.72398 545.958 9.51708 546.165 11.1722L545.544 11.3792C545.544 12.4136 546.992 12.6205 548.234 12.6205H549.682C551.13 13.2412 558.165 16.3447 559.613 17.1723C566.854 20.6895 577.406 32.6895 577.199 37.0343L576.371 36.6205C576.164 37.4481 577.199 37.4481 577.406 37.4481C580.095 40.9654 579.888 48.6205 581.544 56.8964C580.923 57.1033 580.923 57.5171 580.923 58.1378ZM552.785 93.9309V94.5516L552.992 94.3447C552.165 95.9999 551.337 97.2413 551.337 97.2413C551.337 97.4482 551.544 97.4482 551.544 97.6551C550.923 97.6551 551.13 96.4137 551.13 95.9999L553.613 89.5861C554.234 89.1723 554.441 88.7585 554.441 88.1378C554.441 86.0688 556.096 86.2757 556.096 85.4481C556.096 81.724 557.958 81.1033 557.958 78.2068C558.992 73.655 559.613 69.1033 559.613 66.4137C559.613 65.793 558.785 65.5861 558.785 64.9654C558.785 64.5516 559.613 62.8964 559.613 62.4826C559.613 45.3102 559.199 31.655 543.475 22.9654C542.234 22.1378 538.51 19.8619 536.648 19.8619C535.82 19.8619 526.717 36.4136 526.717 38.4826C527.544 38.4826 528.165 37.4481 528.372 36.8274V37.655H528.786C528.993 37.655 529.406 36.6205 529.406 36.2068L528.993 35.5861C529.2 35.1723 530.027 34.7585 530.234 34.7585C530.234 36.6205 529.2 38.2757 528.786 39.9309C526.51 45.3102 524.441 50.6895 524.441 56.2757C524.441 58.7585 525.475 59.793 525.682 61.0343C525.269 61.2412 523.406 74.4826 522.993 79.8619C522.993 81.9309 522.165 93.9309 523.407 94.9654C523.407 95.1723 523.2 96.2068 523.2 97.0344C523.2 100.759 525.062 106.138 526.096 109.862C526.51 111.931 531.682 124.759 534.165 124.759C534.165 124.759 534.786 124.552 534.786 124.345V125.172H535.199C537.268 123.103 541.613 121.034 542.027 117.931C542.441 115.862 544.51 111.31 545.13 111.31C545.337 111.31 545.544 111.517 545.544 111.517C544.51 113.586 544.096 115.448 544.096 116.69C545.751 115.448 551.544 103.034 551.958 100.345L549.061 105.103L551.544 98.4826C551.958 98.4826 551.958 98.8964 552.165 98.8964C552.785 98.8964 554.441 92.8964 554.647 91.2413L553.199 93.9309H552.785ZM578.647 57.9309C578.854 58.3447 579.061 58.5516 579.682 58.5516C579.682 55.655 578.854 38.2757 576.371 38.2757L575.957 38.4826C577.406 43.0343 578.647 50.6895 578.647 57.9309ZM580.716 67.8619L580.923 68.2757C581.75 68.8964 582.164 62.2757 582.164 61.0343L581.75 60.6205C581.337 60.6205 580.716 64.5516 580.716 67.8619ZM545.544 111.517C546.579 109.241 547.82 107.172 549.061 105.103C547.613 108.414 545.958 111.517 545.544 111.517ZM556.096 86.8964C554.854 86.8964 555.061 89.9999 555.061 89.9999C556.096 89.5861 556.096 87.9309 556.096 86.8964ZM526.924 39.724H526.51C526.51 39.9309 525.062 41.9999 525.269 42.4136C526.51 42.4136 526.924 40.5516 526.924 39.724ZM550.51 98.0688C550.716 98.6895 549.682 100.759 549.475 101.793C549.475 101.793 549.268 101.379 549.268 101.172C549.268 100.138 550.303 98.8964 550.51 98.0688ZM577.199 32.2757C577.819 33.5171 578.026 33.9309 578.026 34.9654C577.819 34.9654 577.406 33.5171 577.199 33.3102V32.2757ZM557.13 78.6206C557.13 79.2412 557.337 79.8619 556.509 80.0688C556.509 79.2412 556.509 79.0344 557.13 78.6206ZM525.475 43.4481C524.855 43.4481 524.441 43.655 524.441 44.2757C525.062 44.2757 525.475 44.0688 525.475 43.4481ZM527.337 41.1723C526.924 41.1723 526.924 41.3792 526.924 41.5861C526.924 41.7929 526.924 41.9999 527.337 41.9999C527.337 41.9999 527.544 41.7929 527.544 41.5861C527.544 41.3792 527.337 41.1723 527.337 41.1723ZM578.647 36.6205C578.854 36.6205 578.854 36.8274 578.854 37.0343C578.854 37.2412 578.854 37.4481 578.647 37.4481C578.44 37.4481 578.44 37.2412 578.44 37.0343C578.44 36.8274 578.44 36.6205 578.647 36.6205ZM581.544 56.8964H581.957V58.1378L581.544 56.8964ZM579.475 78.2068V78.6206H579.888V78.2068H579.475ZM572.647 24.8274L572.854 25.0343L572.647 25.2412C572.44 25.2412 572.233 25.2412 572.233 25.0343C572.233 25.0343 572.44 24.8274 572.647 24.8274ZM579.061 37.655C579.061 37.8619 579.268 37.8619 579.268 38.0688C579.268 39.5171 578.854 37.0343 579.061 37.655ZM520.717 58.3447L520.51 58.1378C520.303 58.1378 520.303 58.3447 520.303 58.3447C520.303 58.5516 520.51 58.5516 520.51 58.5516C520.51 58.5516 520.717 58.5516 520.717 58.3447ZM543.475 117.931C543.268 117.931 542.854 118.138 542.854 118.138L543.061 118.345L543.475 117.931ZM496.924 106.345V106.138C496.717 106.138 496.717 106.345 496.717 106.345V106.758C496.924 106.758 496.924 106.552 496.924 106.345ZM578.233 35.5861C578.233 35.5861 578.44 35.7929 578.44 35.9998C578.44 36.2067 578.233 36.2068 578.233 36.2068V35.5861ZM574.509 56.8964L574.302 56.6895C574.095 56.6895 574.095 56.8964 574.095 56.8964H574.509ZM527.544 39.724V39.9309L527.958 39.724H527.544ZM580.716 70.1378V70.5516H580.923L580.716 70.1378ZM553.199 93.9309L552.992 94.3447C552.992 94.3447 553.199 94.1378 553.199 93.9309Z" fill="#32468A"/>
    <path d="M468.806 59.6612C468.806 67.0903 468.506 73.3464 468.897 79.5725C469.257 85.4376 470.279 91.2425 471.061 97.0775C471.692 101.95 472.383 106.793 473.075 111.635C474.007 118.342 475.149 125.05 475.78 131.787C476.141 135.757 475.84 139.818 475.57 143.848C475.209 149.142 471.091 149.984 465.379 149.322C460.81 148.781 457.083 146.405 454.558 142.344C453.325 140.359 451.642 138.675 450.289 136.78C449.808 136.088 449.357 135.186 449.357 134.374C449.297 127.757 449.357 121.14 449.357 114.522C449.357 102.401 449.598 90.25 449.237 78.1287C449.027 71.2711 447.975 64.4435 446.983 57.646C446.141 51.8711 444.818 46.1564 443.826 40.3815C443.466 38.3062 444.458 37.1632 446.682 36.6519C453.716 35.0879 458.917 37.464 463.456 42.8479C467.995 48.2016 469.648 54.0668 468.836 59.6311L468.806 59.6612Z" fill="#32468A"/>
    <path d="M449.961 14.2022C449.976 11.276 452.52 8.32043 455.75 7.47041C458.835 6.65946 462.209 8.0322 463.859 11.0854C465.319 13.7821 466.467 16.6448 467.774 19.4245C468.599 21.1783 468.489 23.0835 466.919 24.0214C465.632 24.7933 463.744 24.7102 462.11 24.764C460.947 24.8031 459.715 24.6077 458.612 24.2364C457.33 23.8065 456.112 23.147 454.945 22.4582C452.783 21.1783 449.946 16.381 449.961 14.1973V14.2022Z" fill="#32468A"/>
    <path d="M382.428 24.0041C372.642 22.6449 363.317 21.7194 354.165 19.8974C349.488 18.9719 345.245 15.9931 340.568 14.7785C336.555 13.7084 336.613 10.2379 335.169 7.66397C334.909 7.17232 336.266 5.00327 337.219 4.74299C340.077 3.90429 343.137 3.73076 346.024 3.03667C347.294 2.74746 348.449 1.79308 349.633 1.15683C349.46 0.780858 349.315 0.375968 349.142 0C356.59 0.520572 364.039 1.21467 371.516 1.50387C378.156 1.76416 384.824 1.64848 391.493 1.50387C396.488 1.41711 401.626 1.61956 406.476 0.665175C414.3 -0.89654 421.373 1.99552 428.735 3.23911C434.191 4.16457 435.519 5.3214 440.254 10.7874C434.566 13.3903 429.139 16.2534 423.423 18.3357C418.977 19.9552 414.127 20.5047 409.479 21.6326C407.256 22.1821 405.668 22.963 405.206 25.9129C403.214 38.6091 400.934 51.2763 398.537 63.9146C395.853 78.0279 397.96 91.852 399.923 105.821C401.107 114.208 400.443 122.855 401.049 131.358C401.251 134.221 402.983 136.939 403.647 139.802C404.109 141.711 404.629 144.083 403.907 145.702C403.157 147.293 400.962 149.028 399.259 149.173C396.748 149.404 394.092 148.305 391.522 147.813C388.808 147.293 386.037 146.194 383.381 146.425C376.539 147.004 374.432 143.62 375.586 136.91C377.434 126.152 377.954 115.422 377.78 104.577C377.607 93.0956 376.741 81.5562 377.492 70.1326C378.415 55.8458 380.696 41.6747 382.371 27.4457C382.515 26.2021 382.371 24.9007 382.371 24.0041H382.428Z" fill="#32468A"/>
    <path d="M339.296 142.007C337.597 136.816 335.727 131.654 333.688 126.605C329.014 115.118 326.323 103.148 325.303 90.8101C325.218 89.8741 326.238 88.229 327.116 87.917C331.053 86.5272 335.132 85.4777 339.296 84.2865C338.928 84.0312 338.447 83.6341 337.88 83.4072C333.631 81.6486 329.325 79.9751 325.105 78.1599C324.368 77.8479 323.348 77.1388 323.292 76.5715C322.753 70.53 321.875 64.4601 322.13 58.447C322.47 50.5618 325.671 42.8752 323.887 34.7347C322.612 28.9485 321.62 23.1339 317.23 18.5673C316.125 17.4044 314.85 15.3055 315.19 14.0291C316.153 10.3985 314.312 8.72507 311.593 7.59051C308.845 6.42759 305.956 5.54831 303.066 4.72576C297.911 3.25084 294.88 4.47049 292.501 9.29235C289.838 14.7098 287.005 20.099 285.051 25.8001C277.431 48.236 273.607 71.4943 270.547 94.9513C268.876 107.715 266.808 120.422 264.457 133.072C263.636 137.525 262.474 141.326 267.941 143.482C270.632 144.531 272.983 146.46 275.674 147.424C279.64 148.843 282.869 146.176 282.926 141.979C283.011 137.724 283.011 133.469 283.408 129.243C284.484 117.841 285.787 106.439 286.977 95.0364C287.345 91.6327 288.705 89.6756 292.585 90.4131C294.087 90.6967 295.701 90.5832 297.259 90.4981C303.208 90.2429 309.157 89.9309 315.417 89.6189C316.182 98.6102 317.173 107.318 317.626 116.054C318.051 124.081 317.853 132.136 318.08 140.163C318.108 141.326 318.703 143.028 319.581 143.539C323.207 145.666 326.917 147.736 330.855 149.183C332.724 149.864 335.416 149.75 337.172 148.871C339.75 147.566 340.146 144.645 339.268 142.007H339.296ZM291.367 78.8973C296.438 65.5096 301.225 52.8876 306.381 39.3013C308.817 52.4054 311.111 64.6019 313.434 77.1955C305.984 77.7628 299.044 78.3017 291.367 78.8973Z" fill="#32468A"/>
    <path d="M196.255 142.035C193.773 142.035 192.428 141.983 192.221 141.88C192.118 141.673 191.859 141.569 191.445 141.569C191.031 141.466 190.721 141.362 190.514 141.259C190.307 141.052 190.204 140.897 190.204 140.793C190.204 140.69 189.945 140.483 189.428 140.173C188.911 139.759 188.187 139.345 187.256 138.931C186.325 138.414 185.342 137.897 184.307 137.38C184.204 137.069 183.945 136.914 183.531 136.914C183.221 136.914 182.963 136.707 182.756 136.293C182.756 135.776 182.238 135.259 181.204 134.742C180.583 134.328 179.859 133.604 179.032 132.569C176.652 129.88 175.463 128.276 175.463 127.759C175.463 127.138 175.256 126.673 174.842 126.362C174.532 125.948 174.273 125.431 174.066 124.811C173.342 122.638 172.928 121.293 172.825 120.776C172.721 120.259 172.566 119.793 172.359 119.38C172.256 118.345 172.049 117.362 171.739 116.431C171.014 114.983 170.652 112.707 170.652 109.604C170.652 108.052 170.756 107.224 170.963 107.121C171.273 107.017 171.428 106.914 171.428 106.811L170.808 106.345L171.583 104.638C171.376 104.017 171.273 103.242 171.273 102.311C171.48 100.552 171.583 99.2588 171.583 98.4312C171.583 97.6036 171.48 97.0864 171.273 96.8795C171.583 96.2588 171.739 95.4312 171.739 94.3967C171.739 93.3623 171.79 92.2761 171.894 91.1381C172.101 88.5519 172.256 87.1554 172.359 86.9485C172.566 86.7416 172.67 86.5864 172.67 86.4829C172.463 85.9657 172.359 85.3967 172.359 84.776C172.359 84.3623 172.411 84.0519 172.514 83.845C172.618 83.5347 172.825 82.2416 173.135 79.9657C173.239 79.1381 173.342 78.4657 173.445 77.9485C173.549 77.3278 173.704 76.8105 173.911 76.3967L173.756 75.0002C173.756 73.9657 174.014 72.5174 174.532 70.6554C175.876 65.7933 176.963 63.3622 177.79 63.3622C177.894 63.3622 177.945 63.2071 177.945 62.8967C177.945 62.5864 178.152 62.0174 178.566 61.1898C179.807 58.7071 180.532 57.1553 180.738 56.5347C181.049 55.8105 181.256 55.4484 181.359 55.4484C181.463 55.4484 181.514 55.1381 181.514 54.5174C181.514 53.8967 181.669 53.1209 181.98 52.1898C182.187 51.8795 182.342 51.5691 182.445 51.2588C182.549 50.845 182.963 49.6036 183.687 47.5346C184.411 44.9484 184.98 43.4484 185.394 43.0346C186.118 42.3105 186.48 41.4829 186.48 40.5519C186.48 40.345 186.583 40.2415 186.79 40.2415C186.997 40.2415 187.204 39.8795 187.411 39.1553C187.721 38.4312 187.876 37.7071 187.876 36.9829C187.876 36.2588 188.031 35.7415 188.342 35.4312C188.756 35.0174 189.118 34.2415 189.428 33.1036L189.583 32.6381C189.583 32.0174 189.738 31.5002 190.049 31.0864C190.359 30.5691 190.514 29.9484 190.514 29.2243C190.514 28.3967 190.618 27.9312 190.824 27.8277C191.135 27.7243 191.29 27.5174 191.29 27.2071C191.29 26.7933 191.445 26.4312 191.755 26.1209C192.066 25.8105 192.221 25.4484 192.221 25.0346C192.221 24.6208 192.273 24.414 192.376 24.414C192.583 24.414 192.842 24.2071 193.152 23.7933C193.773 22.7588 194.083 21.9829 194.083 21.4657L196.411 18.5174C197.342 17.0691 198.117 16.345 198.738 16.345L200.445 16.6553C201.066 16.6553 201.583 16.5002 201.997 16.1898C202.41 15.8795 202.721 15.7243 202.928 15.7243C203.238 15.7243 203.548 15.6726 203.859 15.5691C203.859 15.2588 204.583 15.1036 206.031 15.1036C207.583 15.1036 208.462 15.0519 208.669 14.9484C208.876 14.7415 209.031 14.6381 209.135 14.6381L210.221 14.7933C210.531 14.7933 210.738 14.7415 210.841 14.6381C210.945 14.5346 211.203 14.4829 211.617 14.4829C212.031 14.5864 213.79 14.7415 216.893 14.9484L220.462 15.1036C223.979 15.4139 226.1 15.6726 226.824 15.8795C227.652 15.9829 228.531 16.0346 229.462 16.0346C229.669 16.0346 229.772 16.1381 229.772 16.345C229.876 16.5519 230.6 16.6553 231.945 16.6553C233.393 16.6553 234.738 17.2243 235.979 18.3622C237.22 19.3967 237.996 20.7933 238.307 22.5519C238.513 23.1726 238.875 24.0002 239.393 25.0346C240.013 26.0691 240.324 26.7933 240.324 27.2071C240.324 27.5174 240.427 27.8277 240.634 28.1381C240.944 28.4484 241.151 28.7588 241.255 29.0691C241.255 29.1726 241.1 29.4829 240.789 30.0002C240.479 30.414 240.324 30.8278 240.324 31.2415C240.324 31.5519 240.117 31.7588 239.703 31.8622C239.289 31.9657 239.082 32.2243 239.082 32.6381C239.082 33.0519 238.824 33.2588 238.307 33.2588C237.893 33.1553 237.479 33.0519 237.065 32.9484C236.651 32.7415 236.186 32.6381 235.669 32.6381C235.255 32.6381 234.996 32.5864 234.893 32.4829C234.272 32.1726 233.651 32.0174 233.031 32.0174C232.513 32.0174 231.789 31.8105 230.858 31.3967C229.927 30.9829 229.307 30.5691 228.996 30.1553C228.686 29.6381 228.324 29.3795 227.91 29.3795C227.6 29.3795 227.083 29.0174 226.358 28.2933C225.738 27.4657 225.169 27.0519 224.652 27.0519C224.134 27.0519 223.876 26.8967 223.876 26.5864C223.876 26.276 223.152 26.0174 221.703 25.8105C220.359 25.5002 218.91 25.345 217.359 25.345C214.669 25.345 213.066 25.6036 212.548 26.1209C212.031 26.5346 211.1 27.7243 209.755 29.6898C208.41 31.6553 207.738 32.7415 207.738 32.9484C207.738 33.0519 207.635 33.1553 207.428 33.2588C207.324 33.2588 207.169 33.414 206.962 33.7243C206.341 34.8622 206.031 35.6898 206.031 36.2071C206.031 36.6209 205.876 36.8277 205.566 36.8277C205.359 36.8277 205.204 37.1898 205.1 37.914C205.1 38.5346 204.997 39.1553 204.79 39.776C204.479 40.0864 204.324 40.5519 204.324 41.1726C204.324 41.7933 203.6 44.1209 202.152 48.1553L201.531 51.1036C201.324 53.5864 201.066 54.9829 200.755 55.2933C200.755 56.0174 200.911 56.6898 201.221 57.3105L200.6 59.9485C200.6 61.1898 200.445 62.4312 200.135 63.6726L199.979 65.3795L200.29 68.4829C200.083 69.3105 199.979 70.8623 199.979 73.1381C199.979 74.276 200.031 74.8967 200.135 75.0002C200.238 75.0002 200.29 75.1036 200.29 75.3105C200.186 76.1381 200.135 77.4312 200.135 79.1898C200.135 80.1209 200.29 81.4657 200.6 83.2243C200.6 83.845 200.445 84.3105 200.135 84.6209L200.29 84.776L199.979 85.5519C199.979 85.6554 200.083 85.7588 200.29 85.8623C200.6 85.9657 200.859 86.2761 201.066 86.7933C201.376 87.3105 201.583 87.5692 201.686 87.5692C201.893 87.5692 201.997 88.1898 201.997 89.4312C201.997 92.3278 202.255 94.1898 202.773 95.0174L203.393 96.2588C204.014 98.3278 204.324 99.5692 204.324 99.9829C204.324 100.293 204.376 100.604 204.479 100.914C204.583 101.121 204.738 101.431 204.945 101.845C205.152 102.155 205.255 103.138 205.255 104.793C205.255 106.448 205.359 107.742 205.566 108.673C205.566 109.397 205.514 109.811 205.41 109.914C205.41 110.017 205.359 110.173 205.255 110.38L205.566 112.397L205.41 113.328L205.721 115.345C206.031 115.966 206.186 116.586 206.186 117.207C206.186 117.724 206.29 117.983 206.497 117.983C206.807 117.983 207.014 118.086 207.117 118.293C207.221 118.5 207.583 118.966 208.204 119.69C208.928 120.311 209.29 120.776 209.29 121.086C209.29 121.397 209.962 121.552 211.307 121.552C212.652 121.552 213.376 121.448 213.479 121.242V121.086L213.634 121.242C214.669 121.242 216.324 120.88 218.6 120.155C220.979 119.431 222.169 118.966 222.169 118.759C222.169 118.448 222.272 118.293 222.479 118.293C223.1 118.293 223.721 118.19 224.341 117.983C225.583 117.466 227.083 117.104 228.841 116.897C229.669 116.69 230.393 116.535 231.014 116.431C231.634 116.224 232.1 115.966 232.41 115.655C233.341 115.966 233.91 116.121 234.117 116.121C234.945 116.121 235.358 116.017 235.358 115.811C235.358 115.604 235.513 115.5 235.824 115.5L244.203 115.19C244.72 115.19 245.186 115.293 245.6 115.5C246.013 115.604 246.427 115.655 246.841 115.655C248.806 115.862 249.789 116.328 249.789 117.052C249.789 117.362 249.582 117.673 249.168 117.983C248.755 118.19 248.444 118.448 248.237 118.759C248.031 118.966 247.927 119.173 247.927 119.38C248.341 120.414 248.651 120.931 248.858 120.931C249.065 120.931 249.168 121.035 249.168 121.242L249.013 121.397C249.013 121.5 248.858 121.552 248.548 121.552C248.237 121.552 247.979 121.811 247.772 122.328C247.772 122.535 248.031 122.742 248.548 122.948C249.168 123.052 249.944 123.155 250.875 123.259C251.91 123.259 252.427 123.311 252.427 123.414C252.427 123.517 251.599 123.673 249.944 123.88C249.013 124.086 248.496 124.293 248.393 124.5C248.289 124.707 247.668 124.811 246.531 124.811C245.806 124.811 245.444 124.914 245.444 125.121C245.444 125.328 244.72 125.793 243.272 126.517C243.065 126.621 242.962 126.88 242.962 127.293C242.962 127.604 242.91 127.759 242.806 127.759L242.496 127.604C241.979 127.604 241.462 127.707 240.944 127.914C240.531 128.017 239.238 128.742 237.065 130.086C236.858 130.19 236.341 130.397 235.513 130.707C234.789 131.017 234.169 131.431 233.651 131.948C233.134 132.362 232.358 132.828 231.324 133.345C230.703 133.448 230.393 133.604 230.393 133.811C230.393 133.914 229.876 134.173 228.841 134.586L226.824 135.517C222.686 137.483 219.996 138.621 218.755 138.931C217.514 139.138 216.169 139.448 214.721 139.862L211.152 140.638C210.117 140.845 209.497 141.052 209.29 141.259L205.721 141.724C204.066 141.931 200.911 142.035 196.255 142.035ZM202.773 117.207V117.052C202.566 116.845 202.41 116.742 202.307 116.742C202.204 116.742 202.152 116.793 202.152 116.897C202.152 117.104 202.359 117.207 202.773 117.207Z" fill="#32468A"/>
    <path d="M84.8442 105.075C86.4584 78.2217 89.5586 51.9509 98.0136 26.5806C100.063 20.4631 102.83 14.5575 105.572 8.73129C106.161 7.48661 108.134 6.34785 109.543 6.24192C113.848 5.95062 118.05 7.56605 122.149 8.01626C128.887 8.73129 133.73 12.9155 139.315 15.4314C149.718 20.0923 154.56 29.9174 157.584 40.8017C160.248 50.3884 159.48 59.8427 157.174 69.2441C154.663 79.4928 151.691 89.6092 149.18 99.858C146.771 109.762 144.722 119.746 142.467 129.704C141.673 133.173 140.776 136.616 139.905 140.085C139.777 140.562 139.495 141.038 139.239 141.462C136.292 146.044 124.071 148.639 119.331 146.044C116.871 144.719 113.976 143.263 111.362 143.422C102.677 143.978 91.2496 137.093 88.2262 125.705C86.4584 119.005 85.8947 111.961 84.793 105.075H84.8442ZM128.298 30.2087C126.966 31.7182 125.89 33.0953 124.634 34.2605C119.766 38.842 116.769 44.4034 115.821 51.1564C115.308 54.811 114.796 58.4921 114.181 62.1202C112.823 70.0385 111.311 77.9304 110.081 85.8487C109.082 92.3104 108.032 98.7722 107.724 105.287C107.468 110.716 107.878 116.277 108.8 121.627C109.364 124.911 112.003 128.3 115.334 128.168C120.432 127.956 125.582 126.632 130.476 125.069C132.09 124.566 133.32 121.997 134.217 120.117C135.216 117.972 135.857 115.589 136.19 113.232C137.881 101.712 140.315 90.2183 140.699 78.6454C141.006 69.6678 139.085 60.5578 137.496 51.6066C136.138 43.9532 133.371 36.7234 128.298 30.1822V30.2087Z" fill="#32468A"/>
    <path d="M8.879 142.712C8.8953 142.509 9.80304 141.357 9.81934 141.154L9.85193 140.748C9.73094 139.718 8.842 135.562 8.72101 134.531C8.68713 104.511 5.98833 74.6838 9.00804 44.705C9.6017 39.852 10.7539 35.6565 11.5501 30.8198C11.599 30.2111 11.804 25.1225 12.0553 24.5302C12.2835 21.6897 14.9791 8.42947 15.6286 5.41875C18.0446 0.712479 21.2844 0.97344 26.1441 1.36488C26.3466 1.38119 26.5491 1.3975 26.7516 1.41381C38.0745 2.53007 31.3012 11.3778 32.0573 22.2615C32.5086 26.7903 31.8987 31.8462 33.3788 36.2537C33.0296 38.0634 32.9387 41.7317 32.3275 49.3401C32.3275 49.3401 32.0015 53.3979 31.5125 59.4846C30.8443 67.8031 31.6718 65.113 32.5582 74.3735C32.9522 78.4893 32.7676 80.006 32.9594 82.0634C33.4205 87.0097 33.4656 90.3443 33.0557 95.4465C33.0394 95.6494 33.0068 96.0552 33.0068 96.0552C33.2137 103.627 31.9868 111.288 32.1937 118.86C32.2984 120.094 32.7103 122.578 32.8965 122.797L35.5288 123.009C38.4288 122.426 52.0048 120.865 55.0584 120.906C56.0871 120.785 64.6404 120.861 65.6692 120.74C65.8716 120.756 68.7554 120.376 69.7841 120.255C69.9866 120.271 71.2341 119.963 71.4366 119.979C73.4451 120.345 73.573 123.827 73.4589 125.247C73.4426 125.45 73.4263 125.653 73.41 125.856C73.0446 127.869 72.9631 128.883 71.7714 131.033C66.034 136.493 60.8904 137.1 53.1865 139.134C52.7815 139.101 49.3067 139.23 48.0266 139.943L35.6166 142.211C29.2323 145.577 28.2525 145.089 20.9304 144.908C19.7155 144.81 18.824 145.759 17.6091 145.661C17.0016 145.612 9.12098 144.773 8.879 142.712Z" fill="#32468A"/>
</svg>
