<svg width="898" height="150" viewBox="0 0 898 150" fill="#32468a" xmlns="http://www.w3.org/2000/svg">
    <path d="M774.399 138.734C769.766 138.734 767.305 138.734 767.016 138.734C766.822 138.637 766.678 138.54 766.581 138.443C766.581 138.347 766.581 138.202 766.581 138.008C766.581 137.815 766.436 137.621 766.147 137.428C765.857 137.235 765.471 137.138 764.989 137.138C764.602 137.138 764.409 137.09 764.409 136.993C764.409 136.896 764.313 136.799 764.12 136.703C763.155 136.219 762.431 135.784 761.948 135.397C761.465 135.01 760.983 134.624 760.5 134.237C760.114 133.753 759.921 133.415 759.921 133.221L759.197 131.191C758.522 130.03 758.184 129.402 758.184 129.305C758.184 129.111 758.087 128.918 757.894 128.725C757.122 127.951 756.688 127.564 756.591 127.564C756.495 127.467 756.446 127.371 756.446 127.274C756.929 125.92 757.17 125.05 757.17 124.663V121.907C757.17 119.973 757.074 118.716 756.881 118.135V117.99H757.025C757.122 117.99 757.17 117.7 757.17 117.12C757.17 115.863 757.074 115.089 756.881 114.799C756.688 114.509 756.591 114.219 756.591 113.929C756.108 110.641 755.867 108.465 755.867 107.401C755.867 106.724 755.964 106.192 756.157 105.806L756.446 103.63L756.736 99.4231C757.219 98.6495 757.46 97.6341 757.46 96.3769C757.46 95.7967 757.556 95.0714 757.749 94.2011C758.039 92.7505 758.232 90.1395 758.329 86.368C758.522 83.6603 758.715 82.113 758.908 81.7262C759.101 81.2427 759.197 80.324 759.197 78.9701C759.197 77.7129 759.149 76.9393 759.052 76.6492C758.956 76.3591 758.859 76.1173 758.763 75.9239C758.763 75.4404 758.859 74.8118 759.052 74.0382C759.245 73.2645 759.439 72.6843 759.632 72.2975C759.921 71.814 760.114 71.3788 760.211 70.992C760.018 70.6052 759.921 70.2667 759.921 69.9766C760.018 69.6865 760.114 69.2513 760.211 68.6711C760.5 67.2205 760.645 66.06 760.645 65.1897C760.645 64.2226 760.693 63.7391 760.79 63.7391C760.983 63.7391 761.128 63.5457 761.224 63.1589C761.224 61.7083 761.272 60.4995 761.369 59.5325C761.562 58.5654 761.659 57.6467 761.659 56.7764C761.948 54.7456 762.093 53.295 762.093 52.4247C762.093 50.9741 762.238 49.8137 762.527 48.9433L762.672 48.218L762.382 47.3477L762.817 46.3323L762.672 44.5916L763.106 42.2707L762.672 41.2553C762.769 40.9652 762.913 40.7234 763.106 40.53L763.251 39.5146C763.444 38.5476 763.541 37.6289 763.541 36.7585C763.541 35.7915 763.686 34.8728 763.975 34.0025C764.168 33.809 764.265 33.4706 764.265 32.9871C764.361 32.4068 764.409 32.0684 764.409 31.9717C764.506 31.7782 764.602 31.6332 764.699 31.5365C764.892 31.3431 765.037 31.0046 765.133 30.5211C765.133 27.7167 765.23 26.2177 765.423 26.0243C765.326 25.6375 763.879 25.2507 761.079 24.8639C760.211 24.6705 759.583 24.5254 759.197 24.4287C758.908 24.2353 758.618 24.1386 758.329 24.1386C758.135 24.0419 757.942 23.9452 757.749 23.8485C757.653 23.7518 757.605 23.6551 757.605 23.5584C757.701 23.4617 757.798 23.4133 757.894 23.4133C757.991 23.4133 758.28 23.2682 758.763 22.9781C759.245 22.5913 759.632 22.3979 759.921 22.3979C760.211 22.3012 760.5 22.2528 760.79 22.2528C762.045 22.2528 762.672 22.0594 762.672 21.6726L762.382 20.9473C762.382 20.6572 762.575 20.4155 762.962 20.2221C763.348 19.9319 763.734 19.7869 764.12 19.7869L764.554 19.9319H764.409C764.313 20.0286 764.072 20.1737 763.686 20.3671C763.396 20.4638 763.155 20.7056 762.962 21.0924C762.962 21.1891 763.299 21.2374 763.975 21.2374C764.94 21.2374 765.423 21.0924 765.423 20.8023L765.133 20.077C765.133 19.8836 765.278 19.6902 765.568 19.4968C765.954 19.3034 766.147 19.0616 766.147 18.7715L766.002 18.1913C766.002 17.3209 766.533 16.8857 767.595 16.8857C767.691 16.9824 767.739 17.0791 767.739 17.1759C767.739 17.2726 767.932 17.3209 768.319 17.3209C768.512 17.2242 768.849 17.1759 769.332 17.1759C769.911 17.0791 770.539 16.9824 771.214 16.8857C774.593 16.789 777.199 16.644 779.033 16.4506C782.121 16.2572 784.1 16.0154 784.969 15.7253C785.934 15.4352 786.947 15.2901 788.009 15.2901C788.974 15.2901 789.988 15.3868 791.05 15.5802L792.932 15.7253C793.607 15.7253 794.476 15.6286 795.538 15.4352C797.275 15.1451 798.964 15 800.605 15C802.343 15 803.501 15.1451 804.08 15.4352C804.756 15.7253 805.335 15.8703 805.818 15.8703L806.252 15.7253C806.348 15.7253 806.397 15.822 806.397 16.0154L806.252 16.8857C806.252 17.0791 806.445 17.1759 806.831 17.1759C807.314 17.1759 807.796 17.3693 808.279 17.7561C808.761 18.0462 809.003 18.3363 809.003 18.6264L808.713 19.0616C808.713 19.1583 809.051 19.2066 809.727 19.2066C811.271 19.2066 812.091 19.4001 812.188 19.7869C812.188 19.9803 811.802 20.1737 811.03 20.3671C810.258 20.5605 809.871 20.8023 809.871 21.0924L810.595 22.1078C810.595 22.3979 810.402 22.543 810.016 22.543L808.713 22.2528L808.424 22.3979L810.451 23.4133C810.065 23.4133 809.871 23.6067 809.871 23.9935C809.871 24.0902 809.968 24.2353 810.161 24.4287C810.354 24.6221 810.692 24.7188 811.175 24.7188C811.271 24.8155 811.319 25.0089 811.319 25.299C811.319 25.4925 811.416 25.5892 811.609 25.5892C811.802 25.5892 811.898 25.6375 811.898 25.7342C811.416 26.2177 811.03 26.4595 810.74 26.4595C810.547 26.4595 810.451 26.3628 810.451 26.1694C810.451 25.976 810.306 25.8793 810.016 25.8793C809.244 25.8793 808.617 26.2177 808.134 26.8947C808.134 27.1848 807.796 27.3298 807.121 27.3298C806.445 27.3298 805.962 27.4749 805.673 27.765C805.287 27.8617 804.852 27.9101 804.37 27.9101C803.984 27.9101 803.646 28.0551 803.356 28.3452C803.067 28.6353 802.825 28.8288 802.632 28.9255C802.439 28.9255 802.101 28.9255 801.619 28.9255C800.75 28.8288 799.109 28.7804 796.696 28.7804L791.774 28.6353C787.237 28.6353 783.666 28.4903 781.06 28.2002C781.06 35.453 781.011 39.1278 780.915 39.2245C780.818 39.2245 780.77 39.563 780.77 40.2399C780.77 40.8201 780.77 41.4004 780.77 41.9806C780.866 42.4641 781.011 43.3828 781.204 44.7367L780.915 46.7675C781.204 47.9279 781.397 50.8291 781.494 55.4709C781.494 57.5984 781.494 59.4358 781.494 60.983C781.59 62.5303 781.687 63.3523 781.783 63.449L781.928 64.8996C781.928 65.7699 781.832 66.5919 781.639 67.3655C781.832 67.7524 781.928 68.3326 781.928 69.1062C781.928 70.6535 781.976 71.4271 782.073 71.4271L783.666 71.2821C784.727 71.2821 785.693 71.137 786.561 70.8469C788.588 70.17 790.857 69.8315 793.366 69.8315C794.042 69.8315 794.669 69.6865 795.248 69.3963C795.441 69.3963 795.586 69.4447 795.683 69.5414C795.779 69.6381 798.434 69.6865 803.646 69.6865C803.839 69.7832 803.984 69.8799 804.08 69.9766C804.273 69.9766 804.37 70.0733 804.37 70.2667C804.466 70.3634 804.756 70.5568 805.238 70.8469C805.818 71.0403 806.445 71.2337 807.121 71.4271C807.893 71.5238 808.52 71.5722 809.003 71.5722C809.485 71.5722 809.823 71.7656 810.016 72.1524C810.306 72.4425 810.595 72.5876 810.885 72.5876C811.175 72.5876 811.319 72.7327 811.319 73.0228L811.175 74.4733C811.175 74.7634 811.271 74.9569 811.464 75.0536C811.657 75.0536 811.802 75.1503 811.898 75.3437V76.3591C811.802 76.5525 811.609 76.6492 811.319 76.6492C811.126 76.6492 811.03 76.7942 811.03 77.0844C811.03 77.3745 811.175 77.5195 811.464 77.5195C811.464 77.6162 811.368 77.7613 811.175 77.9547C810.595 78.2448 810.016 78.3899 809.437 78.3899C808.955 78.3899 808.617 78.4866 808.424 78.68C808.327 78.7767 808.231 78.8734 808.134 78.9701C808.038 78.9701 807.845 78.9701 807.555 78.9701C807.265 78.9701 807.121 79.1635 807.121 79.5503C807.121 79.8404 805.624 80.4207 802.632 81.291C802.15 81.4844 801.715 81.6778 801.329 81.8712C801.04 81.9679 800.847 82.113 800.75 82.3064C800.75 82.4031 800.654 82.4515 800.461 82.4515L799.157 82.0163C797.903 82.2097 796.648 82.3548 795.393 82.4515C794.138 82.5482 793.318 82.6932 792.932 82.8866L789.602 83.1767C787.671 83.1767 786.61 83.2735 786.417 83.4669C786.32 83.5636 786.175 83.6603 785.982 83.757C785.693 83.4669 785.5 83.3218 785.403 83.3218C784.824 83.5152 784.293 83.6603 783.81 83.757H783.087C783.087 83.8537 783.087 84.0471 783.087 84.3372C783.183 84.5306 783.231 85.0141 783.231 85.7878C783.231 89.8494 783.376 92.4604 783.666 93.6208L783.521 94.4912C783.521 95.3615 783.521 95.8451 783.521 95.9418C783.617 95.9418 784.1 97.0539 784.969 99.2781C785.258 99.8583 785.5 100.148 785.693 100.148L785.113 101.454C785.113 101.551 785.258 101.599 785.548 101.599C785.837 101.599 785.982 102.324 785.982 103.775L786.272 104.5V105.516C786.561 106.096 786.754 106.483 786.851 106.676C787.044 106.773 787.14 107.159 787.14 107.836C787.14 108.417 787.237 108.803 787.43 108.997C787.72 109.19 788.009 109.577 788.299 110.157C788.685 112.188 788.974 113.735 789.167 114.799C789.457 115.766 789.602 116.54 789.602 117.12C789.505 117.12 789.457 117.168 789.457 117.265L789.747 117.99L789.312 120.601C789.312 121.375 789.409 122.149 789.602 122.922C789.891 123.599 790.181 123.986 790.47 124.083C790.76 124.18 791.194 124.228 791.774 124.228C792.835 124.228 793.656 124.131 794.235 123.938C794.428 123.744 794.669 123.648 794.959 123.648C795.345 123.551 795.876 123.454 796.551 123.358C797.324 123.261 798.144 123.116 799.013 122.922C803.839 122.052 808.568 121.617 813.201 121.617C814.36 121.617 815.325 121.617 816.097 121.617C816.966 121.52 817.448 121.423 817.545 121.327H817.69L820.006 122.632C820.779 123.212 821.213 123.503 821.309 123.503L822.612 124.083C820.972 124.083 820.103 124.373 820.006 124.953C820.006 125.147 820.296 125.533 820.875 126.114C820.585 126.307 820.392 126.549 820.296 126.839C820.296 127.129 820.006 127.274 819.427 127.274C818.945 127.274 818.558 127.371 818.269 127.564C818.076 127.758 817.979 128.096 817.979 128.58C817.979 128.966 817.111 129.257 815.373 129.45C814.601 129.643 814.022 129.885 813.636 130.175C813.346 130.369 811.995 130.804 809.582 131.481C807.169 132.158 805.721 132.496 805.238 132.496C804.756 132.496 804.37 132.641 804.08 132.931C803.791 133.221 803.501 133.463 803.211 133.657C802.922 133.753 802.681 133.802 802.488 133.802C799.592 134.479 795.779 135.591 791.05 137.138C790.181 137.525 789.554 137.767 789.167 137.863C788.781 137.96 786.658 138.202 782.797 138.588L781.06 138.443C779.901 138.443 779.129 138.492 778.743 138.588C778.453 138.685 777.006 138.734 774.399 138.734Z" fill="#32468A"/>
    <path d="M721.301 146.745C710.941 134.967 713.955 120.089 714.708 58.252V57.9421C714.708 57.9421 715.085 57.4771 715.085 57.3222V54.6875C715.085 48.9532 715.461 43.064 716.027 37.3298L716.592 36.3999C716.592 36.3999 716.78 36.0899 716.968 36.0899H722.055C722.055 35.935 722.62 35.78 722.808 35.78L723.561 36.0899C724.315 36.0899 726.387 35.935 726.764 35.625H729.024C733.168 35.625 733.357 35.935 735.429 38.8796C735.806 39.3445 735.617 39.6545 736.371 39.8094V42.4441C738.066 42.909 736.936 44.3039 738.254 44.6138L738.82 48.3333L737.124 70.8054C737.124 71.4253 737.313 72.5102 737.501 72.5102L737.878 71.8902V72.3552C737.878 77.9344 736.748 83.3587 736.748 88.938C736.748 89.248 736.748 89.7129 737.124 89.8679L736.748 90.4878L737.124 90.9527C737.124 91.5727 736.748 91.5727 736.748 92.3476C737.124 91.8826 737.501 99.9416 737.501 103.196C737.501 108.155 738.254 113.115 738.254 117.919C738.254 118.384 737.878 118.384 737.878 119.159C737.878 119.624 737.878 119.934 738.82 119.934C738.82 121.329 737.878 122.724 737.878 123.963C737.878 126.288 738.82 128.458 738.82 130.628C738.82 131.712 738.631 132.332 738.254 133.262L737.124 131.247H735.806C736.559 134.037 737.501 136.672 737.501 139.461V140.081C737.124 139.926 737.124 139.616 737.124 139.461V139.151C737.124 138.996 736.936 138.841 735.806 138.841V139.151C735.806 139.306 736.559 140.856 736.559 141.011V141.166C736.559 141.631 736.371 142.716 735.617 142.716H735.241V145.506C735.241 146.59 729.213 147.83 729.024 149.535C729.024 149.38 728.836 149.225 728.836 149.225H728.459C727.706 149.535 727.517 150 726.764 150C726.199 150 726.01 149.535 725.445 149.535H724.692C723.75 149.07 721.866 147.365 721.301 146.745ZM738.82 43.064C739.008 43.064 739.008 43.219 739.008 43.529C739.008 43.6839 739.008 43.8389 738.82 43.8389C738.443 43.8389 738.443 43.6839 738.443 43.529C738.443 43.219 738.443 43.064 738.82 43.064ZM738.82 133.572C738.82 133.727 739.008 133.882 739.008 134.037C739.008 134.192 738.82 134.347 738.82 134.347C738.631 134.347 738.443 134.192 738.443 134.037C738.443 133.727 738.631 133.572 738.82 133.572ZM735.994 129.388C735.994 129.543 736.182 129.853 736.559 130.008L736.748 129.698C736.748 129.388 736.371 129.388 735.994 129.388Z" fill="#32468A"/>
    <path d="M659.666 29.0664C650.5 27.7921 641.766 26.9244 633.194 25.2163C628.813 24.3487 624.839 21.556 620.458 20.4173C616.699 19.4141 616.753 16.1605 615.401 13.7475C615.158 13.2866 616.429 11.2531 617.321 11.009C619.998 10.2228 622.865 10.0601 625.569 9.40938C626.758 9.13825 627.84 8.24351 628.949 7.64702C628.786 7.29455 628.651 6.91497 628.489 6.5625C635.465 7.05054 642.442 7.70125 649.445 7.97238C655.664 8.2164 661.911 8.10795 668.157 7.97238C672.835 7.89104 677.648 8.08083 682.191 7.1861C689.519 5.72199 696.143 8.4333 703.039 9.59917C708.149 10.4668 709.393 11.5513 713.828 16.6757C708.501 19.1159 703.417 21.8001 698.063 23.7522C693.899 25.2705 689.356 25.7857 685.003 26.8431C682.921 27.3583 681.434 28.0903 681.001 30.8558C679.135 42.7585 676.999 54.634 674.755 66.4825C672.24 79.7137 674.214 92.6737 676.053 105.769C677.161 113.632 676.539 121.739 677.107 129.71C677.296 132.394 678.919 134.943 679.541 137.627C679.973 139.417 680.46 141.64 679.784 143.158C679.081 144.65 677.026 146.276 675.431 146.412C673.078 146.629 670.59 145.599 668.184 145.138C665.642 144.65 663.046 143.619 660.559 143.836C654.15 144.378 652.176 141.206 653.258 134.916C654.988 124.83 655.475 114.771 655.313 104.604C655.15 93.8396 654.339 83.0215 655.042 72.3118C655.908 58.9179 658.044 45.6325 659.612 32.2928C659.747 31.127 659.612 29.9069 659.612 29.0664H659.666Z" fill="#32468A"/>
    <path d="M616.769 66.0357C616.237 72.647 619.22 72.9915 619.139 78.5615C619.056 83.808 619.595 89.0507 619.908 94.302C620.148 98.6856 620.447 103.047 620.747 107.408C621.137 113.447 621.723 119.502 621.831 125.545C621.884 129.105 623.136 130.81 622.595 134.376C621.88 139.06 614.784 138.47 609.499 137.452C605.272 136.627 603.329 137.147 601.262 133.344C600.253 131.485 598.802 129.859 597.675 128.071C597.275 127.42 596.919 126.583 596.977 125.86C597.394 119.967 596.418 110.25 596.891 104.361C597.758 93.5743 596.946 89.2926 597.476 78.4787C597.77 72.3603 595.575 64.0394 595.135 57.9157C594.524 49.4293 599.05 47.014 598.537 41.8003C598.348 39.9264 599.356 38.9838 601.47 38.6961C608.149 37.8331 612.808 33.6216 616.661 38.754C620.516 43.8597 617.892 53.1074 616.737 57.9981L616.769 66.0357Z" fill="#32468A"/>
    <path d="M589.526 14.2818C589.646 11.541 592.134 8.86443 595.187 8.18514C598.105 7.53724 600.506 4.92969 603.967 10.0442C607.428 15.1611 608.867 12.3685 610.207 18.7823C611.054 22.8369 606.546 23.273 605.042 24.0948C603.81 24.7713 602.046 24.6251 600.514 24.6162C599.424 24.6107 598.278 24.383 597.259 23.9952C596.075 23.546 594.959 22.8841 593.892 22.1965C591.915 20.9192 589.433 16.3223 589.526 14.2772L589.526 14.2818Z" fill="#32468A"/>
    <path d="M743.956 7.9446C745.582 10.153 745.325 13.7999 743.374 16.2476C741.51 18.5853 741.277 22.124 735.375 20.3184C729.471 18.5111 730.103 21.5891 725.037 17.4392C721.834 14.8159 725.069 11.6433 725.724 10.0588C726.259 8.75781 727.723 7.76288 728.921 6.80702C729.773 6.12652 730.808 5.58336 731.844 5.24478C733.047 4.8501 734.331 4.66422 735.593 4.52821C737.933 4.28011 742.748 6.29811 743.959 7.94827L743.956 7.9446Z" fill="#32468A"/>
    <path d="M523.516 139.166C523.532 138.976 524.382 137.896 524.397 137.706L524.428 137.325C524.314 136.359 523.482 132.463 523.368 131.497C523.337 103.352 520.809 75.3897 523.637 47.2846C524.193 42.7349 525.273 38.8017 526.018 34.2672C526.064 33.6966 526.256 28.9261 526.491 28.3707C526.705 25.7078 529.23 13.2763 529.838 10.4538C532.101 6.04164 535.136 6.28629 539.688 6.65326C539.877 6.66855 540.067 6.68385 540.257 6.69914C550.862 7.74563 544.518 16.0404 545.226 26.2438C545.649 30.4896 545.078 35.2295 546.464 39.3615C546.137 41.0581 546.052 44.4972 545.479 51.63C545.479 51.63 545.174 55.4342 544.716 61.1405C544.09 68.9391 544.865 66.4171 545.695 75.0989C546.064 78.9574 545.891 80.3793 546.071 82.3082C546.503 86.9453 546.545 90.0714 546.161 94.8548C546.146 95.045 546.115 95.4254 546.115 95.4254C546.309 102.524 545.16 109.706 545.354 116.805C545.452 117.962 545.838 120.29 546.012 120.496L548.478 120.694C551.194 120.148 563.91 118.684 566.77 118.723C567.733 118.61 575.745 118.681 576.708 118.567C576.898 118.583 579.599 118.226 580.562 118.112C580.752 118.128 581.921 117.839 582.11 117.854C583.992 118.197 584.111 121.462 584.004 122.793C583.989 122.983 583.974 123.173 583.959 123.364C583.616 125.25 583.54 126.201 582.424 128.217C577.05 133.336 572.232 133.905 565.017 135.812C564.637 135.781 561.383 135.902 560.184 136.571L548.56 138.697C542.58 141.852 541.662 141.395 534.804 141.225C533.666 141.133 532.831 142.023 531.693 141.931C531.124 141.885 523.743 141.099 523.516 139.166Z" fill="#32468A"/>
    <path d="M499.925 45.6553C499.835 46.6429 499.717 47.6079 499.57 48.5505C499.294 50.6796 499.044 52.8069 498.821 54.9322C498.723 56.5581 498.598 58.1859 498.447 59.8155C497.875 64.5657 497.599 69.3194 497.617 74.0766C497.786 82.4532 498.167 90.8147 498.762 99.1609L499.122 104.213C499.504 109.582 499.966 114.945 500.508 120.302C500.865 123.809 501.195 127.317 501.499 130.828C501.556 133.129 500.403 135.346 498.041 137.476C495.732 139.603 493.195 140.79 490.431 141.036C485.322 141.401 482.572 138.85 482.183 133.384L482.146 132.871C481.852 130.243 481.533 127.641 481.189 125.066C480.761 122.055 480.439 119.036 480.223 116.01C480.115 114.497 480.034 112.982 479.98 111.465C480.02 103.025 480.168 94.5765 480.421 86.1207C480.658 79.6774 480.814 73.2398 480.891 66.8079C480.983 62.0919 480.86 57.3667 480.523 52.6323C480.374 50.5335 480.169 48.4142 479.91 46.2742L479.879 45.8349C479.472 40.1243 482.414 36.7502 488.706 35.7126C489.235 35.6258 489.738 35.5653 490.217 35.5311C495.912 35.1247 498.946 37.5328 499.318 42.7553L499.375 43.5606C499.424 44.244 499.446 44.9292 499.441 45.6163C499.604 45.6537 499.766 45.6667 499.925 45.6553Z" fill="#32468A"/>
    <path d="M485.553 28.3259C482.897 27.6475 480.789 24.6622 480.749 21.5315C480.713 18.5408 479.844 14.0627 485.554 11.7188C491.266 9.37501 491.519 13.8675 494.341 13.3104C496.122 12.9586 497.829 13.4908 498.325 15.132C498.734 16.4779 498.23 18.1764 497.908 19.6754C497.68 20.7418 497.222 21.8182 496.635 22.7372C495.953 23.8055 495.077 24.7629 494.186 25.6685C492.533 27.3436 487.529 28.8344 485.548 28.3248L485.553 28.3259Z" fill="#32468A"/>
    <path d="M435.834 66.6785C439.105 67.69 442.032 68.6092 444.964 69.5026C456.352 72.9635 463.445 80.5888 465.922 91.8444C467.391 98.5248 465.891 104.748 459.87 109.488C455.255 113.123 450.316 115.752 444.818 117.837C441.274 119.182 438.018 121.596 435.081 124.05C429.928 128.353 425.177 133.118 420.128 137.545C419.015 138.52 417.4 139.07 415.921 139.48C413.966 140.02 412.31 139.516 410.831 137.853C409.775 136.661 408.16 135.84 406.644 135.177C405.259 134.566 404.308 134.007 404.204 132.312C404.13 131.126 403.294 129.996 403.169 128.805C402.85 125.822 400.644 125.493 398.308 124.923C391.226 123.182 386.596 118.694 384.092 112.04C383.805 111.275 383.826 110.355 383.857 109.519C383.998 105.606 384.286 101.693 384.354 97.7802C384.563 86.4117 384.39 75.0277 385.002 63.6848C385.242 59.2432 384.286 55.8183 381.375 52.6038C375.009 45.5691 377.178 41.6512 382.446 33.9438C383.272 32.7371 383.706 31.2686 384.354 29.9386C384.641 29.3533 384.871 28.5882 385.373 28.2801C389.983 25.4456 394.686 22.7704 399.275 19.9103C409.676 13.425 420.954 10.8935 433.116 12.8139C438.64 13.6868 442.9 16.8345 446.543 20.9834C449.961 24.8757 452.401 29.0246 453.379 34.2057C454.9 42.2623 452.407 49.0505 447.327 55.0532C444.457 58.4422 441.023 61.369 437.856 64.5167C437.26 65.1072 436.717 65.7439 435.839 66.6939L435.834 66.6785ZM410.026 78.8018L409.273 79.1202C409.487 81.5901 409.602 84.0753 409.937 86.5349C410.528 90.8995 411.149 95.2642 411.986 99.5826C412.174 100.568 413.115 101.821 414.029 102.186C417.583 103.613 421.263 104.748 424.911 105.945C425.548 106.155 426.327 106.314 426.954 106.155C432.677 104.707 438.363 103.12 443.166 99.5415C443.992 98.9253 444.818 97.8624 444.964 96.9022C445.461 93.6107 444.557 90.7096 441.996 88.3167C438.52 85.0715 434.01 83.9983 429.761 82.3089C427.534 81.4258 425.501 81.4617 423.259 82.273C420.301 83.341 417.301 83.264 414.51 81.549C413.015 80.6298 411.521 79.7158 410.026 78.7967V78.8018ZM406.305 52.039C410.862 50.0467 415.09 50.2572 419.496 51.4588C422.114 52.1725 424.722 51.1712 426.928 49.4151C431.119 46.0826 433.247 41.5639 434.438 36.5934C434.919 34.5908 434.835 32.3263 432.729 31.0734C429.546 29.1787 426.066 27.705 422.501 29.8873C416.689 33.4457 411.217 37.4971 407.078 42.9555C405.05 45.6307 405.74 48.6808 406.305 52.0339V52.039Z" fill="#32468A"/>
    <path d="M356.906 57.5812C356.906 64.546 356.625 70.4111 356.991 76.248C357.329 81.7466 358.286 87.1887 359.018 92.6591C359.609 97.2271 360.257 101.767 360.905 106.307C361.777 112.595 362.847 118.883 363.439 125.199C363.776 128.921 363.495 132.728 363.241 136.506C362.904 141.469 359.046 142.259 353.697 141.638C349.417 141.131 345.926 138.903 343.561 135.097C342.406 133.235 340.83 131.656 339.563 129.88C339.112 129.231 338.69 128.385 338.69 127.624C338.634 121.421 338.69 115.217 338.69 109.014C338.69 97.65 338.915 86.2582 338.577 74.8946C338.38 68.4655 337.395 62.0646 336.466 55.692C335.677 50.278 334.438 44.9205 333.509 39.5065C333.171 37.5609 334.101 36.4894 336.184 36.01C342.772 34.5437 347.643 36.7714 351.895 41.8187C356.146 46.8379 357.695 52.3364 356.935 57.553L356.906 57.5812Z" fill="#32468A"/>
    <path d="M339.258 14.9634C339.272 12.2201 341.655 9.44927 344.68 8.65237C347.57 7.89211 350.73 9.17906 352.275 12.0415C353.643 14.5696 354.718 17.2534 355.942 19.8593C356.715 21.5035 356.612 23.2896 355.142 24.169C353.936 24.8926 352.168 24.8147 350.637 24.8651C349.548 24.9017 348.393 24.7185 347.36 24.3705C346.16 23.9674 345.019 23.3492 343.926 22.7034C341.901 21.5035 339.244 17.006 339.258 14.9588V14.9634Z" fill="#32468A"/>
    <path d="M253.453 136.702C254.202 135.015 252.141 133.327 250.455 133.14C250.455 133.14 250.643 133.14 250.643 132.952C252.703 130.14 253.265 128.64 254.202 125.077C254.202 124.515 265.629 120.577 267.315 119.827L272.747 116.827C273.871 116.265 273.684 114.577 274.808 113.64C276.119 112.702 277.431 113.077 278.742 112.515C281.926 111.202 285.298 108.015 287.546 105.577V102.952C287.546 99.0145 286.235 92.077 281.739 90.577L269.376 86.2645H267.69C267.69 86.2645 259.447 82.5145 256.075 81.0145C253.265 79.8895 250.83 76.702 248.769 74.2645C245.023 70.1395 244.461 65.452 244.461 59.827C244.461 45.202 267.128 8.45201 283.8 7.51452C286.61 7.32702 289.607 9.01452 292.417 9.20202C293.353 9.20202 299.91 9.20202 300.847 9.38951C301.221 9.38951 304.593 9.76451 305.155 9.76451H307.216C307.59 9.95202 309.089 12.0145 309.276 12.202C312.836 14.6395 319.017 15.7645 319.017 21.3895C319.017 27.0145 318.643 30.202 313.397 31.5145C311.337 32.077 310.026 33.3895 307.778 33.3895C302.907 33.3895 299.535 28.702 295.039 28.5145C292.229 28.5145 290.169 31.702 288.483 34.327L288.296 34.5145L287.734 35.2645C286.984 36.3895 285.486 36.3895 285.111 37.5145C283.987 39.3895 283.425 41.6395 282.301 43.702C281.177 45.0145 279.304 45.3895 278.367 47.452C276.869 50.452 276.869 54.0145 275.183 56.827L274.995 65.6395C274.995 66.0145 276.681 68.2645 277.056 68.6395L298.973 75.0145C299.161 75.0145 299.91 75.3895 300.097 75.3895C300.285 75.577 300.659 75.577 301.034 75.952C309.276 79.1395 322.015 84.202 321.827 95.077C321.827 97.702 321.078 106.14 320.141 108.577C318.643 111.952 316.207 114.952 314.521 117.952C313.772 119.452 313.397 117.765 311.899 118.327C309.276 119.827 308.527 122.077 306.466 123.952C304.78 125.827 300.659 126.39 298.224 127.89C294.852 129.765 292.229 131.827 288.858 134.452C288.67 134.452 287.921 134.827 287.734 135.015C280.99 136.327 275.37 138.577 268.252 138.577C263.568 138.577 257.949 138.015 253.453 136.702ZM251.205 134.64L252.329 135.765H251.767C251.767 135.577 251.205 135.202 251.205 135.202V134.64ZM250.643 130.702H251.205V131.077H250.643V130.702Z" fill="#32468A"/>
    <path d="M189.532 46.609C190.582 48.9033 191.982 50.7925 193.748 52.2014C195.516 53.6345 197.34 54.8901 199.223 56.0166C200.58 56.806 201.892 57.6247 203.19 58.5431C208.366 62.3162 213.673 65.9283 219.158 69.3744L220.078 69.9645C220.689 70.4154 221.389 70.7832 222.128 71.0489C222.867 71.3145 223.563 71.4128 224.193 71.3463L224.46 71.3182C225.368 71.0997 226.236 70.9591 227.084 70.8696C232.028 70.3479 234.744 72.3929 235.229 77.0045C235.332 77.9753 235.32 79.0318 235.223 80.1955C234.407 89.9017 233.419 99.6016 232.262 109.319C232.017 110.719 231.455 112.128 230.648 113.539L229.943 114.988C229.531 115.964 229.119 116.94 228.713 117.964C227.824 120.463 226.699 122.815 225.309 124.974C223.362 127.658 221.013 129.55 218.288 130.672C215.563 131.794 212.689 132.661 209.642 133.278C208.394 133.532 207.176 133.832 205.939 134.184C204.648 134.492 203.349 134.727 202.04 134.865C198.865 135.2 195.801 134.959 192.821 134.12C188.677 132.937 184.638 131.351 180.679 129.364C179.468 128.804 178.284 128.266 177.151 127.748C170.491 124.548 165.913 120.172 163.421 114.668C160.903 109.142 159.195 103.162 158.294 96.7048C158.24 96.1951 158.33 95.6458 158.564 95.0812C158.799 94.5165 159.095 94.0681 159.452 93.7359C162.721 91.0351 166.306 89.4788 170.16 89.0722C171.978 88.8804 173.872 88.9505 175.865 89.2556C178.742 89.8111 180.939 91.1254 182.429 93.1768C183.944 95.2257 185.213 97.4969 186.284 99.9853C186.961 101.534 187.467 103.075 187.805 104.659C188.192 106.238 188.72 107.753 189.365 109.231C190.011 110.709 190.989 112.079 192.344 113.31C195.72 116.512 199.494 117.906 203.639 117.468C204.026 117.427 204.46 117.357 204.913 117.236C210.216 115.695 213.113 112.027 213.654 106.227C214.369 102.078 215.487 98.0332 217.037 94.1394C217.56 92.5872 217.753 91.168 217.615 89.8573C217.347 87.3088 215.808 85.2625 213.006 83.7911C211.965 83.2138 211.015 82.5777 210.131 81.8611C209.059 80.9925 207.93 80.2773 206.719 79.7179C200.9 77.2887 194.973 74.9936 188.942 72.8813C179.514 69.4586 171.591 64.0365 165.177 56.6636C162.426 52.88 160.856 49.1436 160.472 45.5029C159.866 39.7506 162.217 34.1525 167.501 28.7113C171.589 24.4762 176.102 20.7852 181.061 17.6115C186.438 14.222 191.164 12.3245 195.188 11.9C196.157 11.7977 197.113 11.7951 198.027 11.8704C202.601 12.2468 207.469 14.2609 212.633 17.9127C216.028 20.1313 219.462 22.2477 222.955 24.2351C223.191 24.382 223.476 24.5238 223.784 24.663C225.884 25.9875 227.45 27.5893 228.506 29.4658C229.561 31.3423 230.176 32.9953 230.325 34.403C230.401 35.1311 230.381 35.8695 230.283 36.567C229.903 39.0121 228.945 41.0766 227.355 42.7412C225.791 44.4034 223.855 45.3437 221.577 45.5841L220.802 45.6659C218.791 45.6572 216.715 45.2626 214.553 44.5091C212.415 43.7531 210.59 42.7185 209.15 41.3735C207.188 39.7398 205.731 38.9364 204.757 38.9902C203.782 39.0439 203.147 39.0618 202.88 39.09C201.402 39.246 199.93 39.6958 198.462 40.4151C196.273 41.505 194.211 42.8759 192.254 44.5304C191.351 45.2637 190.443 45.9485 189.534 46.6333L189.532 46.609Z" fill="#32468A"/>
    <path d="M847.054 50.359C848.104 52.6532 849.504 54.5424 851.27 55.9513C853.038 57.3845 854.862 58.64 856.745 59.7666C858.102 60.5559 859.414 61.3746 860.712 62.293C865.888 66.0661 871.195 69.6783 876.68 73.1244L877.599 73.7145C878.211 74.1654 878.911 74.5332 879.65 74.7989C882.072 75.67 883.935 77.1265 886.027 79.2189C890.276 83.4678 890.734 85.0195 891.22 89.6311C891.322 90.602 891.311 91.6584 891.213 92.8222C890.397 102.528 890.941 103.352 889.784 113.069C889.539 114.469 888.977 115.878 888.17 117.289L887.465 118.738C887.053 119.714 886.641 120.69 886.235 121.714C885.346 124.213 884.221 126.565 882.831 128.724C880.884 131.408 878.535 133.3 875.81 134.422C873.085 135.544 870.211 136.411 867.164 137.027C865.916 137.282 864.698 137.582 863.461 137.934C862.17 138.242 860.871 138.477 859.562 138.615C856.387 138.95 853.323 138.709 850.343 137.87C846.199 136.687 844.593 134.175 840.634 132.188C839.424 131.628 836.616 128.487 835.483 127.969C831.736 123.281 831.419 122.564 828.928 117.06C826.41 111.534 821.179 107.316 820.278 100.858C820.224 100.349 820.313 99.7993 820.548 99.2346C820.783 98.6699 821.078 98.2215 821.435 97.8894C824.704 95.1885 823.828 93.2288 827.682 92.8222C829.5 92.6304 831.394 92.7005 833.387 93.0056C836.264 93.561 838.461 94.8753 839.951 96.9268C841.466 98.9757 842.735 101.247 843.806 103.735C844.483 105.283 844.989 106.825 845.327 108.409C845.714 109.988 846.242 111.503 846.887 112.981C847.533 114.459 848.511 115.829 849.866 117.06C853.242 120.262 857.016 121.656 861.161 121.218C861.548 121.177 861.982 121.107 862.435 120.986C867.738 119.445 870.635 115.777 871.176 109.977C871.891 105.828 873.009 101.783 874.559 97.8893C875.082 96.3372 875.275 94.9179 875.137 93.6073C874.869 91.0588 873.33 89.0124 870.528 87.541C869.487 86.9637 868.537 86.3276 867.653 85.6111C866.581 84.7425 865.452 84.0272 864.241 83.4678C858.422 81.0386 852.495 78.7436 846.464 76.6312C837.036 73.2085 835.341 67.1395 828.928 59.7666C826.177 55.983 823.083 53.9997 822.699 50.359C822.093 44.6067 822.398 40.5975 827.682 35.1563C831.77 30.9212 831.463 31.1588 836.423 27.9851C841.8 24.5955 843.807 24.3751 849.776 22.9688C850.745 22.8666 857.569 21.5142 859.368 21.6627C864.24 20.625 867.694 22.8687 871.174 24.375C874.57 26.5936 876.984 25.9977 880.477 27.9851C880.713 28.132 880.997 28.2738 881.306 28.413C883.406 29.7375 884.972 31.3393 886.027 33.2158C887.083 35.0922 887.698 36.7452 887.846 38.153C887.923 38.8811 887.903 39.6195 887.805 40.317C887.425 42.7621 886.466 44.8265 884.877 46.4912C883.312 48.1533 881.377 49.0937 879.099 49.3341L878.323 49.4159C876.313 49.4071 874.237 49.0126 872.075 48.2591C869.937 47.503 868.112 46.4685 866.672 45.1234C864.71 43.4898 863.253 42.6864 862.279 42.7401C861.304 42.7939 860.669 42.8118 860.402 42.8399C858.924 42.9959 857.452 43.4457 855.984 44.1651C853.795 45.2549 851.733 46.6258 849.776 48.2803C848.873 49.0137 847.964 49.6985 847.056 50.3833L847.054 50.359Z" fill="#32468A"/>
    <path d="M81.5363 99.2513C83.0482 74.0762 85.9519 49.4474 93.8713 25.6627C95.7911 19.9276 98.3829 14.391 100.951 8.92899C101.503 7.7621 103.35 6.69452 104.67 6.59521C108.702 6.32211 112.638 7.83658 116.477 8.25865C122.789 8.92899 127.325 12.8517 132.556 15.2103C142.299 19.58 146.835 28.791 149.667 38.995C152.162 47.9826 151.443 56.846 149.283 65.6597C146.931 75.2679 144.147 84.752 141.795 94.3603C139.54 103.646 137.62 113.006 135.508 122.341C134.764 125.593 133.924 128.821 133.108 132.073C132.988 132.52 132.724 132.967 132.484 133.364C129.724 137.659 118.277 140.092 113.838 137.659C111.534 136.418 108.822 135.052 106.374 135.201C98.2389 135.723 87.5358 129.268 84.704 118.592C83.0482 112.31 82.5202 105.706 81.4883 99.2513H81.5363ZM122.237 29.0641C120.989 30.4792 119.981 31.7702 118.805 32.8627C114.246 37.1578 111.438 42.3716 110.55 48.7026C110.07 52.1288 109.59 55.5798 109.014 58.9811C107.742 66.4045 106.326 73.8031 105.174 81.2265C104.238 87.2844 103.254 93.3423 102.967 99.4499C102.727 104.54 103.111 109.753 103.974 114.768C104.502 117.847 106.974 121.025 110.094 120.901C114.87 120.702 119.693 119.461 124.277 117.996C125.789 117.524 126.941 115.116 127.78 113.353C128.716 111.342 129.316 109.108 129.628 106.898C131.212 96.0982 133.492 85.3231 133.852 74.4735C134.14 66.057 132.34 57.5163 130.852 49.1246C129.58 41.9495 126.989 35.1716 122.237 29.0392V29.0641Z" fill="#32468A"/>
    <path d="M12.0608 135.938C10.8394 135.938 9.66896 135.578 8.5494 134.859C7.83695 134.346 7.22628 134.089 6.71739 134.089C6.31027 134.089 5.59782 133.473 4.58004 132.241C4.2747 131.933 3.86759 131.112 3.35869 129.777C2.8498 128.955 2.59535 128.288 2.59535 127.775C2.59535 127.158 2.44269 126.542 2.13735 125.926C1.73024 124.694 1.4249 122.897 1.22134 120.536L1.06867 118.071C0.763339 115.402 0.458004 109.446 0.152668 100.205L0 97.125C0 96.817 0.0508892 96.5603 0.152668 96.3549C0.254446 96.1495 0.305336 95.5335 0.305336 94.5067C0.814228 90.6049 1.06867 88.0893 1.06867 86.9598L0.916007 82.6473L2.13735 64.1652C2.44269 62.4196 2.64624 60.3147 2.74802 57.8504L3.20602 52.3058C3.71492 43.7835 4.07114 39.317 4.2747 38.9063C4.2747 37.5714 4.32559 36.75 4.42737 36.442C4.52915 36.0312 4.78359 35.4152 5.19071 34.5938V34.4397L4.58004 34.5938C4.88537 33.9777 5.03804 33.2076 5.03804 32.2835C5.03804 31.4621 4.93626 30.9487 4.7327 30.7433C4.7327 30.5379 4.78359 30.4353 4.88537 30.4353C4.98715 30.4353 5.03804 29.6652 5.03804 28.125L5.19071 25.3527C5.19071 21.9643 5.08893 20.2701 4.88537 20.2701L5.03804 18.5759C5.03804 17.3438 4.98715 16.625 4.88537 16.4196V15.9576C4.88537 15.3415 5.49604 14.9821 6.71739 14.8795C7.22628 14.8795 7.5825 14.6741 7.78606 14.2634C8.0914 13.8527 8.44762 13.6473 8.85473 13.6473C9.26185 13.6473 9.51629 13.596 9.61807 13.4933C9.71985 13.288 10.127 12.9799 10.8394 12.5692C11.6536 12.1585 12.4679 11.7478 13.2821 11.3371C14.0963 10.8237 14.707 10.567 15.1141 10.567C15.5212 10.4643 15.8775 10.2589 16.1828 9.95089C16.4881 9.64286 17.0479 9.38616 17.8621 9.18081C18.6764 8.87277 19.5924 8.56473 20.6102 8.2567C21.6279 7.84599 23.3582 7.48661 25.8009 7.17857C27.8364 6.76786 29.9229 6.5625 32.0602 6.5625C36.0296 6.5625 39.3374 7.07589 41.9837 8.10268C42.3908 8.30804 42.747 8.41072 43.0523 8.41072C43.4594 8.41072 43.8666 8.61608 44.2737 9.02679C44.3755 9.12947 44.4772 9.23214 44.579 9.33482C44.7826 9.4375 44.9861 9.48884 45.1897 9.48884C45.3932 9.48884 46.0548 9.74553 47.1744 10.2589C48.3957 10.6696 49.0573 10.875 49.1591 10.875C49.3626 10.875 50.3804 11.3884 52.2124 12.4152C54.1462 13.442 55.2149 14.1094 55.4184 14.4174C55.622 14.6228 55.8764 14.8281 56.1818 15.0335C56.4871 15.1362 56.8433 15.2902 57.2504 15.4955C57.6576 15.7009 58.8789 16.6763 60.9145 18.4219C62.6447 19.8594 63.5098 20.6808 63.5098 20.8862C63.5098 21.0915 63.9678 21.6563 64.8838 22.5804C65.9016 23.4018 66.4105 23.9152 66.4105 24.1205C66.4105 24.3259 66.6141 24.4286 67.0212 24.4286C68.039 24.4286 68.5988 27.1496 68.7005 32.5915C68.7005 33.413 68.9041 34.2344 69.3112 35.0558L69.0059 35.8259C68.7005 36.442 68.5479 37.9821 68.5479 40.4464C68.2425 45.4777 67.8354 48.9688 67.3265 50.9196C67.2247 52.2545 67.0212 53.2299 66.7158 53.846L66.5632 54.154C66.5632 55.0781 66.4614 55.9509 66.2578 56.7723C65.4436 59.5446 64.6294 61.7522 63.8152 63.3951C63.6116 63.8058 63.5098 64.1138 63.5098 64.3192C63.5098 64.4219 63.1536 65.0893 62.4412 66.3214C61.3216 67.7589 60.66 69.1451 60.4565 70.4799C60.2529 71.096 60.1002 71.404 59.9985 71.404C59.8967 71.404 59.6931 71.558 59.3878 71.8661C59.0825 72.1741 58.8789 72.6362 58.7771 73.2522C58.7771 73.8683 58.5227 74.433 58.0138 74.9464C57.5049 75.3571 56.996 75.6138 56.4871 75.7165C55.9782 75.8192 55.4693 75.9732 54.9604 76.1786C53.5355 76.7946 52.8231 77.2054 52.8231 77.4107C52.8231 77.6161 52.6704 77.7187 52.3651 77.7187C52.0597 77.7187 51.5 78.1808 50.6857 79.1049C49.9733 79.9263 49.159 80.5424 48.243 80.9531C47.4288 81.2612 46.869 81.5692 46.5637 81.8772C46.3601 82.1853 46.2075 82.3393 46.1057 82.3393C46.1057 81.8259 46.0548 81.5692 45.953 81.5692C44.7317 82.596 43.9175 83.1094 43.5103 83.1094C43.205 83.1094 42.8488 83.2121 42.4417 83.4174C42.2381 83.8281 41.831 84.0335 41.2203 84.0335C40.7114 84.0335 39.9481 84.3929 38.9303 85.1116C37.9125 85.8304 37.2001 86.1897 36.793 86.1897C36.3858 86.1897 35.3681 86.8058 33.7396 88.0379L32.9763 87.4219C32.2638 86.8058 31.6022 86.4978 30.9916 86.4978C30.0756 86.4978 29.6176 88.2946 29.6176 91.8884L29.4649 98.6652C29.4649 99.5893 29.6176 101.335 29.9229 103.902C29.9229 104.415 29.9229 104.723 29.9229 104.826C30.0247 104.826 30.0756 104.877 30.0756 104.98L30.2282 104.364C30.33 104.364 30.4318 104.518 30.5336 104.826C30.7371 105.031 30.8389 107.752 30.8389 112.989L30.6862 119.612L30.9916 122.692C30.9916 123.103 30.5336 123.667 29.6176 124.386C28.7016 125.002 28.2436 125.516 28.2436 125.926L28.0909 127.158C28.0909 127.364 28.04 127.518 27.9382 127.621C27.9382 127.621 27.3275 127.621 26.1062 127.621C25.9026 127.621 25.8009 127.775 25.8009 128.083C25.8009 128.288 25.75 128.391 25.6482 128.391L24.2742 128.237C24.0706 128.237 23.9689 128.391 23.9689 128.699C23.9689 129.007 23.8671 129.212 23.6635 129.315C23.5617 129.315 23.5108 129.366 23.5108 129.469C23.6126 130.085 23.7653 130.65 23.9689 131.163C23.9689 131.368 23.8671 131.522 23.6635 131.625C22.1368 132.652 21.3735 133.371 21.3735 133.781C21.3735 134.192 21.2717 134.397 21.0682 134.397C20.9664 134.397 20.8137 134.603 20.6102 135.013C20.5084 135.321 20.2539 135.475 19.8468 135.475C19.5415 135.475 18.8799 135.219 17.8621 134.705C17.7604 134.808 17.6586 134.911 17.5568 135.013C17.5568 135.116 17.0479 135.167 16.0301 135.167C15.1141 135.167 14.4017 135.321 13.8928 135.629C13.3839 135.835 12.7732 135.938 12.0608 135.938ZM24.5795 15.9576C24.7831 15.8549 24.9358 15.8036 25.0375 15.8036C25.2411 15.8036 25.3429 15.7522 25.3429 15.6496L24.7322 15.4955C24.2233 15.4955 23.9689 15.5982 23.9689 15.8036C23.9689 15.9063 23.9689 15.9576 23.9689 15.9576C24.0706 15.9576 24.2742 15.9576 24.5795 15.9576ZM27.4802 68.3237C27.7855 68.3237 28.3453 67.7589 29.1596 66.6295L31.1442 65.0893C32.4674 63.8571 33.1289 63.1384 33.1289 62.933C33.1289 62.625 33.2816 62.4196 33.5869 62.317C33.8923 62.2143 34.0449 61.9576 34.0449 61.5469C34.0449 61.0335 34.2485 60.6741 34.6556 60.4687C35.0627 60.2634 35.5716 59.6473 36.1823 58.6205C36.793 57.4911 37.4036 56.721 38.0143 56.3103C39.2356 55.0781 40.0499 53.2813 40.457 50.9196C40.457 50.5089 40.7623 48.6607 41.373 45.375C41.8819 42.7054 42.1363 41.0112 42.1363 40.2924C42.1363 39.5737 42.289 39.0603 42.5943 38.7522C43.0014 38.4442 43.3577 34.9531 43.663 28.279C43.663 27.663 43.6121 27.2009 43.5103 26.8929C43.5103 26.4821 43.1541 26.0714 42.4417 25.6607C41.831 25.1473 41.5257 24.5826 41.5257 23.9665C41.5257 23.2478 40.8132 22.3237 39.3883 21.1942C38.0652 19.9621 36.5385 18.8839 34.8083 17.9598C33.1798 17.0357 31.8567 16.5223 30.8389 16.4196C30.4318 16.4196 30.2282 16.3683 30.2282 16.2656C30.2282 16.163 30.1773 16.0603 30.0756 15.9576L29.9229 16.1116L27.1749 16.4196C22.4931 16.625 20.1522 17.1384 20.1522 17.9598C20.1522 18.2679 20.3048 18.6786 20.6102 19.192C20.9155 19.6027 21.0682 20.2701 21.0682 21.1942C21.0682 21.6049 21.2208 22.1183 21.5262 22.7344C21.7297 22.8371 21.8315 22.9911 21.8315 23.1964C21.9333 23.2991 22.544 25.8661 23.6635 30.8973C23.7653 30.8973 23.8671 31.3594 23.9689 32.2835C24.2742 34.3371 24.4269 36.1853 24.4269 37.8281C24.4269 38.6496 24.5795 39.2143 24.8849 39.5223C24.9866 40.6518 25.1393 41.2165 25.3429 41.2165C25.5464 41.2165 25.75 41.8326 25.9535 43.0647C26.0553 43.5781 26.1062 44.1429 26.1062 44.7589C26.1062 45.2723 26.1062 45.6317 26.1062 45.8371C26.1062 45.9397 26.1571 46.0424 26.2589 46.1451C26.3606 46.1451 26.4624 46.1964 26.5642 46.2991C26.3606 46.8125 26.2589 47.1719 26.2589 47.3772C26.2589 47.9933 26.3098 48.7121 26.4115 49.5335C26.6151 50.2522 26.7169 51.0223 26.7169 51.8438V52.4598C26.8187 53.692 27.0222 54.8728 27.3275 56.0022C27.3275 56.3103 27.2767 56.567 27.1749 56.7723C27.0731 56.9777 26.9713 57.2344 26.8695 57.5424L27.0222 58.9286V66.1674C27.0222 67.6049 27.1749 68.3237 27.4802 68.3237Z" fill="#32468A"/>
</svg>
