<svg width="590" height="150" viewBox="0 0 590 150" fill="#32468A" xmlns="http://www.w3.org/2000/svg">
    <path d="M520.166 138.401C520.182 138.21 521.036 137.123 521.052 136.932L521.082 136.549C520.968 135.576 520.131 131.656 520.017 130.684C519.986 102.363 517.444 74.226 520.288 45.9451C520.847 41.3669 521.932 37.4091 522.681 32.8463C522.727 32.2721 522.92 27.4717 523.157 26.9129C523.372 24.2333 525.91 11.7241 526.522 8.88386C528.797 4.44414 531.847 4.69033 536.423 5.0596C536.614 5.07498 536.805 5.09037 536.995 5.10576C547.657 6.1588 541.279 14.5054 541.991 24.7727C542.416 29.045 541.842 33.8146 543.235 37.9724C542.907 39.6796 542.821 43.1402 542.245 50.3177C542.245 50.3177 541.939 54.1456 541.478 59.8876C540.849 67.7349 541.628 65.1972 542.463 73.9333C542.834 77.816 542.66 79.2467 542.841 81.1877C543.275 85.8538 543.317 88.9995 542.931 93.8127C542.916 94.0041 542.885 94.3869 542.885 94.3869C543.08 101.53 541.925 108.757 542.12 115.901C542.218 117.064 542.606 119.407 542.781 119.614L545.26 119.814C547.991 119.264 560.774 117.791 563.649 117.831C564.618 117.716 572.672 117.788 573.64 117.674C573.831 117.689 576.546 117.33 577.515 117.216C577.706 117.231 578.88 116.941 579.071 116.956C580.962 117.301 581.083 120.586 580.975 121.926C580.96 122.117 580.944 122.309 580.929 122.5C580.585 124.399 580.508 125.356 579.386 127.384C573.984 132.534 569.14 133.107 561.886 135.026C561.505 134.995 558.233 135.116 557.028 135.789L545.343 137.929C539.331 141.104 538.408 140.644 531.514 140.473C530.37 140.38 529.531 141.276 528.387 141.184C527.815 141.137 520.394 140.346 520.166 138.401Z"/>
    <path d="M417.708 144.963C417.511 144.765 417.511 143.973 417.708 143.775C417.511 143.775 417.315 143.18 416.922 144.171C416.53 144.171 415.941 143.379 415.744 142.784C414.566 139.614 415.548 135.85 416.137 132.284C416.137 130.303 417.511 114.652 417.708 112.671C417.904 112.076 418.885 104.944 419.082 102.171C420.652 89.6893 423.401 77.4061 425.364 64.7268C425.953 61.5569 427.524 58.3871 427.916 55.2172L428.113 54.821C428.113 54.6229 427.72 53.8304 427.916 53.6323C429.291 46.6983 431.057 39.5661 432.235 32.6321C432.432 32.2359 432.824 27.6792 433.021 27.283C433.806 22.132 434.591 18.764 435.769 14.2074C437.34 9.25451 437.732 9.25451 441.855 9.25451H442.248L445.585 9.65073C445.585 9.65073 446.174 10.047 446.371 10.047L446.763 9.65073C446.763 9.65073 447.156 9.84885 447.352 9.84885L447.941 10.047C448.138 10.047 448.334 10.4432 448.53 10.4432C449.119 10.4432 451.082 9.25451 451.868 9.0564H452.064C454.42 9.45262 454.027 11.0375 457.954 11.6319C459.917 11.6319 461.487 10.8394 463.254 11.2357C467.573 11.6319 468.359 14.6036 470.322 18.3678C470.715 19.5565 472.874 24.3113 473.071 25.1037C473.267 25.3018 474.052 26.0943 474.052 26.2924L474.445 26.4905C475.034 26.2924 475.819 26.0943 476.015 25.8962H476.212C476.015 26.2924 475.819 29.6604 476.408 29.8585H476.604C476.801 29.6604 477.39 29.6604 477.39 29.4623C478.764 35.6038 481.512 41.3492 483.083 47.4908C486.224 59.5758 488.384 69.6797 490.74 82.359C490.936 83.9439 492.114 86.5194 491.721 88.3025H491.329C490.543 88.3025 489.954 78.5948 488.776 76.2175L485.439 60.7645C484.654 61.1607 484.457 61.3588 484.457 61.755C484.261 62.3494 485.046 67.3023 485.439 68.2928L487.206 75.6231C487.206 75.6231 487.598 76.2175 487.598 76.4156L493.488 108.906C494.273 116.633 497.415 126.539 496.433 134.067C496.433 134.067 496.629 135.652 495.844 135.454L495.648 136.841C495.648 138.029 495.844 139.218 495.451 140.605C495.255 141.992 492.703 144.963 491.721 145.558C490.151 145.756 490.347 144.567 489.758 147.539C488.776 147.539 488.973 146.548 488.384 146.35C488.384 146.945 487.795 148.133 487.206 148.728C487.206 148.728 486.42 148.926 486.224 148.926C485.635 148.926 484.85 148.53 484.85 147.737C484.457 148.133 484.261 148.133 483.868 148.133H483.476C480.923 145.756 479.353 140.803 478.371 135.256L478.175 133.869C477.193 129.114 476.015 118.416 475.034 114.454L474.445 113.859L472.482 100.189C472.678 99.3969 472.089 99.3969 471.696 99.3969C469.537 99.1988 448.138 106.331 447.352 107.322C446.96 111.284 446.567 115.444 445.193 119.407C444.604 121.586 443.033 123.765 442.64 126.142C442.248 126.737 441.463 130.897 441.266 131.492C441.07 132.482 439.107 137.237 437.929 137.039H437.732C437.732 137.039 437.143 136.841 436.947 136.643C437.34 137.831 436.751 137.039 436.554 138.228L436.162 139.812C435.573 141.199 433.217 141.595 432.432 142.388C428.898 144.963 424.579 147.539 419.867 146.945H418.296C418.296 146.746 417.511 145.36 417.708 144.963ZM451.868 77.208L449.904 92.2648C449.904 93.0573 450.101 93.0572 450.886 93.0572C451.671 93.0572 452.26 92.2648 453.046 92.2648L453.242 92.661C453.242 92.661 453.635 92.8591 453.831 92.8591H454.027L461.684 91.6704C462.862 91.8686 467.77 92.4629 468.948 92.4629C469.733 92.2648 470.911 92.661 471.107 91.8686V91.6704L467.377 73.0476C466.592 68.8872 465.61 64.7268 464.629 60.5664C463.058 52.4436 461.095 45.1134 458.543 37.3869L458.15 35.4057C457.757 37.1887 456.187 45.9058 455.401 47.6889L455.205 48.4813C455.205 49.2738 455.401 49.4719 455.794 49.4719L455.009 57.3965L455.598 57.9908C455.401 57.9908 455.009 60.7645 454.813 61.755C454.42 65.9155 452.849 69.8778 452.26 74.2363C452.064 74.8307 452.457 75.2269 452.26 76.0193C452.26 76.4156 452.457 77.208 451.868 77.208ZM491.721 89.6893C492.703 90.0855 496.433 109.897 496.237 111.284V111.878L495.648 111.284C495.648 111.284 493.292 99.0007 492.114 93.8497C492.114 92.2648 491.525 90.878 491.721 89.6893ZM484.065 56.8022C483.868 57.3965 483.868 58.5852 484.654 58.7833C484.654 58.3871 484.85 57.0003 484.065 56.8022ZM437.536 133.275L437.143 134.661C437.929 134.463 438.125 133.473 438.125 133.275H437.536ZM477.39 30.8491C477.193 30.8491 476.997 31.8396 477.193 31.8396C477.782 31.8396 477.979 31.0472 477.39 30.8491ZM483.476 53.038C482.887 53.038 482.69 53.8304 483.279 53.8304C483.672 53.8304 483.868 53.038 483.476 53.038ZM437.536 135.454C437.143 135.454 436.947 136.444 437.34 136.444C437.732 136.444 437.929 135.454 437.536 135.454ZM419.278 106.529C419.082 106.925 419.278 107.123 419.671 107.322L419.867 106.529H419.278ZM495.844 113.463V113.265C496.04 113.265 496.237 113.859 496.433 113.859V114.256C495.844 114.256 495.844 113.859 495.844 113.463ZM437.732 128.718L437.536 129.51C437.929 129.51 438.125 129.312 438.125 128.916L437.732 128.718ZM478.764 35.2076C478.371 35.2076 478.371 36.0001 478.764 36.0001C478.96 36.0001 478.96 35.2076 478.764 35.2076ZM472.678 21.1414L472.874 20.9433L473.267 21.9339H473.071C473.071 21.7358 472.678 21.5376 472.678 21.3395V21.1414ZM446.763 41.7454V42.5379L447.352 42.3398L446.763 41.7454ZM430.468 44.9152C430.272 45.1134 430.468 45.5096 430.665 45.7077L430.861 44.9152H430.468ZM479.942 42.1416V42.736L480.531 42.9341L479.942 42.1416ZM423.794 145.36L423.597 145.756H423.99L424.186 145.36H423.794ZM426.149 124.558C425.953 124.558 425.953 125.152 426.149 124.954C426.542 124.954 426.542 124.558 426.149 124.558ZM447.745 65.3211C447.549 65.3211 447.549 65.7173 447.745 65.7173C448.138 65.7173 448.138 65.3211 447.745 65.3211ZM434.199 131.095C434.002 131.095 434.002 131.492 434.199 131.492C434.591 131.492 434.591 131.293 434.199 131.095ZM472.678 19.7546C473.071 19.7546 473.071 20.1508 472.678 20.1508V19.7546ZM434.395 82.7553C434.199 82.7553 434.002 83.3496 434.199 83.3496C434.395 83.3496 434.395 82.9534 434.395 82.7553ZM455.009 52.0474C454.813 52.0474 454.616 52.2455 455.009 52.2455C455.401 52.2455 455.401 52.0474 455.009 52.0474ZM492.703 118.218C492.703 117.822 492.506 118.614 492.703 118.614C492.899 118.614 492.899 118.218 492.703 118.218ZM474.248 23.7169V24.7075C474.052 24.5094 474.052 24.1131 474.248 23.7169ZM482.494 51.453V51.8493L482.887 51.453H482.494ZM481.709 48.4813V48.8776H482.101L481.709 48.4813ZM477.586 33.4246V33.8208H477.979L477.586 33.4246ZM418.493 124.954C418.296 124.954 418.1 125.548 418.296 125.35C418.493 125.35 418.689 125.152 418.493 124.954ZM456.972 12.0281C456.776 12.0281 456.776 12.4243 456.972 12.2262C457.365 12.2262 457.365 12.0281 456.972 12.0281Z"/>
    <path d="M360.5 147.783C357.082 145.368 354.468 142.148 353.865 138.123L333.156 21.7997C333.156 21.5985 332.754 19.1834 332.754 18.1772C332.754 16.7684 332.955 15.5609 333.357 14.1522C333.96 14.5547 334.362 14.9572 334.966 14.9572C336.172 14.9572 338.384 13.7497 340.193 13.7497C341.198 13.7497 341.601 14.1522 342.405 14.1522C343.41 14.1522 344.415 11.5359 346.024 11.5359C347.431 11.5359 348.035 13.3472 349.442 13.3472C350.045 13.3472 349.844 13.1459 350.447 13.1459C351.855 13.1459 350.447 16.7684 351.855 16.7684C352.458 16.7684 352.659 14.5547 352.659 14.3534C353.262 17.9759 353.664 22.2022 355.273 23.0072L356.881 28.8435C357.283 29.0447 357.484 28.6422 357.887 28.6422C357.887 27.4347 357.283 26.2272 357.283 25.221C357.283 24.8185 357.082 24.2147 357.887 24.0135C357.887 24.0135 358.892 27.8372 359.294 29.246L360.098 30.051L365.326 52.1886C365.527 52.5911 365.728 53.1948 366.13 52.9936V51.3836C366.331 52.1886 368.141 55.6098 368.141 55.6098C368.141 55.8111 367.738 56.2136 367.738 56.2136L368.543 56.6161C368.543 57.4211 368.141 57.4211 368.141 58.2261C368.141 59.2324 368.342 59.2324 369.347 59.2324C369.347 60.2386 368.744 60.6411 368.744 61.2449C368.342 61.2449 369.347 61.8486 369.749 61.8486C370.352 62.0499 369.146 62.2511 369.146 63.0561C369.146 63.8611 370.352 65.2699 370.352 66.2761C370.352 66.6786 370.151 66.6786 370.151 67.2824C370.151 67.4836 371.559 69.6974 371.559 70.5024L374.373 82.98L374.575 86.4012H375.379C375.58 86.4012 376.987 78.9549 377.188 77.7474C378.998 75.9362 381.21 61.8486 382.014 60.2386C385.432 41.1198 390.86 20.3909 394.681 10.3284L395.284 8.51714L396.088 9.1209C395.887 8.91965 396.289 8.7184 396.49 8.31589C396.691 8.51714 397.294 8.91965 397.294 8.91965C397.697 9.1209 398.3 8.51714 398.702 8.51714C399.707 8.51714 399.104 9.32215 400.31 9.32215C401.316 9.32215 401.316 8.91965 402.321 8.91965C403.125 8.91965 403.125 9.32215 404.13 9.32215C405.739 9.32215 405.739 7.71215 408.353 8.11465L408.755 8.51714L409.76 11.9384L410.363 12.3409C410.564 18.5797 406.744 27.2335 405.739 34.4785C404.935 39.711 403.125 44.7423 402.321 50.3773C401.919 52.9936 399.707 56.6161 399.707 59.0311L394.882 78.1499C393.675 78.9549 394.077 80.9675 393.876 82.175C391.464 92.2375 388.247 102.3 385.834 112.161C382.818 124.438 381.008 135.506 375.781 140.538C372.966 141.544 374.172 144.764 370.151 145.569C368.543 145.77 367.537 146.776 366.532 147.984H366.13C365.326 147.984 364.522 148.386 363.717 148.386C362.913 148.386 361.707 147.783 360.902 147.783H360.5ZM407.75 29.246C407.951 29.246 407.951 29.4472 407.951 29.6485C407.951 29.8497 407.951 30.051 407.75 30.051C407.347 30.051 407.347 29.8497 407.347 29.6485C407.347 29.4472 407.347 29.246 407.75 29.246ZM393.474 57.0186C393.273 57.0186 393.072 57.2199 393.072 57.4211C393.072 57.6224 393.273 57.8236 393.474 57.8236C393.675 57.8236 393.675 57.6224 393.675 57.4211C393.675 57.2199 393.675 57.0186 393.474 57.0186ZM357.283 30.4535V30.856H357.887V30.4535H357.283ZM366.934 58.4274V59.0311H367.336V58.4274H366.934ZM383.421 69.2949V69.6974H383.823V69.2949H383.421ZM337.78 38.906L337.579 38.7048C337.378 38.7048 337.378 38.906 337.378 38.906C337.378 39.1073 337.579 39.1073 337.579 39.1073L337.78 38.906ZM351.453 116.186L351.05 116.589H351.453V116.186ZM388.85 41.1198V41.5223H389.252L388.85 41.1198ZM404.13 46.9561C404.13 47.1573 404.332 47.1573 404.332 47.3586L404.13 47.5598V46.9561ZM353.865 124.84L353.664 124.639C353.463 124.639 353.463 124.84 353.463 124.84H353.865ZM340.193 15.5609V15.9634H340.394L340.193 15.5609ZM357.887 31.8623V32.2647H358.088L357.887 31.8623Z"/>
    <path d="M309.208 53.9569C309.208 61.6039 308.9 68.0435 309.301 74.4521C309.671 80.4892 310.72 86.4644 311.522 92.4705C312.17 97.486 312.88 102.47 313.589 107.455C314.546 114.359 315.718 121.263 316.366 128.198C316.736 132.284 316.428 136.464 316.15 140.612C315.78 146.061 311.553 146.928 305.691 146.247C301.002 145.69 297.176 143.244 294.584 139.065C293.32 137.021 291.592 135.287 290.204 133.337C289.71 132.625 289.247 131.696 289.247 130.86C289.185 124.049 289.247 117.238 289.247 110.427C289.247 97.9503 289.494 85.4427 289.124 72.9661C288.908 65.9073 287.828 58.8795 286.81 51.8827C285.946 45.9384 284.589 40.0561 283.57 34.1119C283.2 31.9757 284.218 30.7993 286.501 30.273C293.721 28.6631 299.058 31.1089 303.717 36.6506C308.375 42.1614 310.072 48.1985 309.239 53.926L309.208 53.9569Z"/>
    <path d="M289.871 7.16511C289.886 4.15308 292.497 1.11087 295.812 0.235917C298.979 -0.598805 302.442 0.814188 304.135 3.95697C305.634 6.73267 306.812 9.67933 308.153 12.5405C309 14.3457 308.887 16.3068 307.276 17.2723C305.955 18.0668 304.017 17.9813 302.34 18.0366C301.146 18.0768 299.882 17.8757 298.749 17.4935C297.434 17.051 296.184 16.3722 294.986 15.6632C292.768 14.3457 289.856 9.4078 289.871 7.16008V7.16511Z"/>
    <path d="M187.596 120.957C186.843 118.695 184.961 108.517 184.585 106.255C184.396 105.124 182.891 89.1025 182.514 83.2594C182.514 83.0709 182.514 80.9976 182.514 80.8091C182.326 80.0551 181.949 74.0236 181.949 73.0811V72.8926C181.949 65.1647 182.514 57.2482 182.514 49.3317C182.514 47.4469 182.514 41.9807 182.514 41.6038L181.949 38.0225C181.761 37.0801 175.926 37.457 175.926 33.8758C175.926 31.0485 181.385 25.9593 181.385 25.7708C181.385 25.5824 180.82 22.755 182.138 22.755C183.455 22.755 184.02 23.3205 185.714 23.3205C185.902 23.3205 187.22 23.3205 187.596 23.3205C200.02 16.158 210.749 11.0688 225.62 11.0688C239.926 11.0688 243.691 11.8228 255.173 18.2314C256.867 19.1738 258.185 19.3623 259.314 20.6817C261.197 23.6975 264.397 31.6139 264.397 35.0067C264.397 35.1952 264.397 36.3261 264.397 36.5146C264.208 36.5146 263.455 36.8916 263.267 37.0801V37.2686C263.267 37.457 263.267 37.6455 263.267 37.6455C263.644 38.0225 265.15 39.1534 265.338 39.5304C264.208 39.3419 262.326 47.2584 261.761 48.3893C260.82 47.8238 257.62 55.5518 255.738 56.8712L255.173 55.9288C253.667 56.6827 254.232 60.0755 252.161 59.887L251.597 58.9446C251.22 59.3216 250.844 60.4525 250.091 61.0179C250.091 61.0179 249.714 60.641 249.714 60.4525V60.264C249.714 60.0755 249.714 59.887 249.714 59.887L250.091 58.9446C250.279 58.7561 250.091 58.5676 250.091 58.3791C246.514 58.3791 245.573 66.6726 243.502 66.6726C242.75 66.6726 242.75 66.1071 241.808 66.1071C238.985 66.1071 237.855 69.4999 236.35 71.1962H235.408C234.844 71.3847 231.267 76.4739 230.326 77.2278C230.326 77.0393 229.949 76.2854 229.761 76.2854H229.573C228.255 76.2854 226.185 77.6048 226.185 79.1127C226.185 80.0551 237.667 85.5213 239.361 86.8407C241.62 88.914 244.632 90.7989 246.138 93.6262C248.208 97.5844 250.655 103.616 253.103 107.763C256.679 113.606 267.408 122.842 267.408 129.439C267.408 133.774 263.455 134.905 260.444 136.79C258.938 137.544 258.185 138.863 256.303 138.863C255.926 138.863 253.291 137.544 252.538 137.167C251.032 136.601 246.702 134.339 246.514 134.151C245.197 133.209 241.808 129.439 240.491 128.119C239.55 127.365 235.785 123.407 234.844 122.653C231.267 121.711 230.891 117.187 228.632 114.925C223.173 109.459 219.408 101.543 216.02 94.5687C214.326 93.2492 213.949 91.7413 212.444 90.4219C210.561 94.9456 212.632 100.035 209.808 104.558V112.852C208.491 114.36 208.867 117.941 208.491 120.014C208.491 120.203 208.114 124.35 207.926 126.046C207.926 126.234 207.926 126.423 207.926 126.423V126.611C208.114 126.8 209.244 127.177 209.432 127.177C208.491 127.554 207.738 130.381 206.985 131.701C207.173 131.135 205.479 134.716 205.291 135.282C203.973 135.47 202.655 137.355 202.655 138.863C201.526 138.863 200.208 137.921 199.267 137.732C198.891 137.732 196.067 137.732 195.691 137.732C187.596 136.413 191.173 125.292 187.596 120.957ZM207.361 133.774C207.738 133.774 207.738 134.528 207.361 134.716C207.173 134.905 207.173 133.585 207.361 133.774ZM228.632 77.7933H229.385C229.385 78.1703 229.385 79.1127 228.632 79.3012V77.7933ZM207.926 38.0225C209.244 43.1117 210.938 48.3893 212.067 53.29C213.196 58.3791 213.385 66.4841 213.008 71.5732C219.22 65.9186 223.926 58.3791 230.326 52.913L239.361 38.0225C240.491 36.5146 241.808 32.5564 241.808 30.2945C241.808 29.9176 241.432 29.1636 241.055 28.9751C240.491 28.9751 237.855 28.9751 237.291 28.9751C229.008 28.9751 216.397 32.9334 209.055 36.5146C208.867 36.7031 208.114 37.457 207.926 37.6455V38.0225ZM239.926 68.5574C240.491 68.5574 240.491 69.6883 239.926 69.6883C239.361 69.6883 239.361 68.5574 239.926 68.5574ZM241.055 67.0495H241.997C241.997 67.615 241.62 68.1805 241.055 68.1805V67.0495ZM245.008 55.3633C244.82 55.3633 244.82 55.9288 245.008 55.9288C245.385 55.9288 245.385 55.3633 245.008 55.3633ZM264.397 45.185H265.338V45.7505H264.397V45.185Z"/>
    <path d="M100.784 143.894C100.588 143.894 100.344 143.603 100.051 143.019C99.7575 142.533 99.4643 142.192 99.171 141.998C98.8778 141.803 97.9982 141.463 96.5321 140.977C96.2389 140.879 96.0923 140.782 96.0923 140.685C96.0923 140.588 96.0434 140.539 95.9457 140.539C95.9457 140.442 95.848 140.393 95.6525 140.393C95.0661 140.393 94.4796 140.247 93.8932 139.956C93.4045 139.664 93.1602 139.323 93.1602 138.934C93.1602 138.545 93.1113 138.302 93.0136 138.205C92.9158 138.108 92.8181 138.01 92.7203 137.913C92.7203 137.719 92.7203 137.573 92.7203 137.475C92.7203 137.281 92.6715 137.135 92.5737 137.038C92.5737 136.941 92.476 136.843 92.2805 136.746C92.0851 136.649 91.9873 136.017 91.9873 134.85C91.9873 133.683 91.8896 133.099 91.6941 133.099C91.5964 133.099 91.4986 133.05 91.4009 132.953C91.4009 132.759 91.4009 132.613 91.4009 132.515C91.4009 132.321 91.352 132.175 91.2543 132.078C91.2543 131.981 91.2054 131.883 91.1077 131.786C91.1077 131.592 91.0588 131.397 90.9611 131.202L91.1077 128.868C91.0099 128.674 90.8633 128.577 90.6679 128.577C90.3746 128.285 90.228 127.799 90.228 127.118C90.1303 126.923 90.0814 126.777 90.0814 126.68C90.0814 126.583 90.0326 126.534 89.9348 126.534C89.8371 126.437 89.7393 126.34 89.6416 126.242C89.6416 125.756 89.5927 125.464 89.495 125.367C89.495 125.173 89.4461 124.978 89.3484 124.784C89.0552 124.2 88.8597 123.373 88.762 122.304C88.6642 121.136 88.5665 120.456 88.4688 120.261C88.5665 120.164 88.6642 120.115 88.762 120.115C88.8597 120.018 88.9086 119.775 88.9086 119.386C88.8108 118.802 88.762 117.976 88.762 116.906C88.8597 116.809 88.9086 116.42 88.9086 115.739C89.0063 114.961 89.1529 113.259 89.3484 110.633C89.3484 108.493 89.2995 107.423 89.2018 107.423C89.104 107.326 89.0552 107.18 89.0552 106.986L89.2018 106.11C89.2018 105.819 89.0552 105.576 88.762 105.381L88.6154 104.506C88.8108 104.117 88.9574 103.485 89.0552 102.609C89.2507 101.637 89.3484 100.81 89.3484 100.129C89.3484 96.4335 89.3973 93.7103 89.495 91.9597C89.495 90.5009 89.3973 89.6742 89.2018 89.4797C89.104 89.1879 89.0552 88.264 89.0552 86.7079L88.6154 77.809C88.7131 77.809 88.762 76.8851 88.762 75.0372C88.8597 74.2591 88.9086 73.3352 88.9086 72.2654C89.495 72.0709 89.8371 71.925 89.9348 71.8277C90.0326 71.7305 90.1792 71.0011 90.3746 69.6395C90.4724 69.3477 90.5212 69.1046 90.5212 68.9101C90.619 68.7156 90.7167 68.6183 90.8145 68.6183C91.0099 68.6183 91.1077 67.8402 91.1077 66.2842C91.1077 64.339 90.9611 63.2206 90.6679 62.9288C90.4724 62.5398 90.3746 61.9563 90.3746 61.1782C90.3746 60.3029 90.5212 58.9413 90.8145 57.0935C91.0099 56.4127 91.2054 54.3703 91.4009 50.9663C91.6941 48.0487 91.8407 45.1796 91.8407 42.3592L92.1339 36.8156C92.2317 36.6211 92.2805 36.2807 92.2805 35.7944C92.3783 35.2109 92.476 34.5787 92.5737 33.8979C92.5737 32.6336 92.7203 31.272 93.0136 29.8132C93.1113 29.5214 93.1602 28.2571 93.1602 26.0202C93.1602 23.6861 93.209 22.3731 93.3068 22.0813C93.5023 21.7896 93.6 21.4492 93.6 21.0602C93.6 20.0876 93.8443 19.3095 94.333 18.726C94.8217 18.1425 95.1638 17.8507 95.3593 17.8507C95.6525 17.8507 95.8968 17.8021 96.0923 17.7048C96.3855 17.5103 96.7276 17.2672 97.1186 16.9754C97.6072 16.5864 97.9982 16.3919 98.2914 16.3919L101.957 16.8295L105.329 16.6836C107.577 16.6836 109.678 17.1699 111.633 18.1425C112.121 18.4342 112.659 18.5801 113.245 18.5801C114.809 18.3856 116.275 18.2397 117.644 18.1425C119.11 18.0452 120.625 17.8021 122.188 17.4131C122.97 17.2185 123.654 17.1213 124.241 17.1213C124.925 17.024 125.414 16.9268 125.707 16.8295C126 16.7323 129.47 16.4891 136.116 16.1001L144.912 17.4131C147.551 17.9966 150.19 19.1637 152.829 20.9143C153.807 21.4006 154.686 21.7409 155.468 21.9355C155.664 22.0327 155.908 22.13 156.201 22.2272C156.592 22.3245 156.788 22.4704 156.788 22.6649C156.788 22.7621 157.521 23.1998 158.987 23.9778C160.453 24.6586 161.186 25.1449 161.186 25.4367C161.283 25.7284 161.43 25.9229 161.626 26.0202C162.212 26.6037 162.554 27.0414 162.652 27.3332C162.847 27.5277 163.092 27.9167 163.385 28.5002C163.385 28.6947 163.434 28.792 163.531 28.792C163.727 28.792 163.825 28.8893 163.825 29.0838C163.825 30.1536 164.02 31.1261 164.411 32.0014C164.9 32.7795 165.144 33.7521 165.144 34.9191C165.144 35.4054 165.144 35.8917 165.144 36.378C165.242 36.767 165.34 37.0587 165.437 37.2533C165.633 37.3505 165.779 37.6909 165.877 38.2744V40.3168C165.877 42.3592 165.731 43.429 165.437 43.5263C165.144 43.6235 164.998 43.7208 164.998 43.818C165.095 43.818 165.242 43.9153 165.437 44.1098C165.633 44.2071 165.731 44.8392 165.731 46.0063C165.731 46.5898 165.633 46.9789 165.437 47.1734C165.242 47.2706 165.144 48.1946 165.144 49.9452C165.144 54.1272 164.949 56.6558 164.558 57.5311C164.167 58.3092 163.825 59.0872 163.531 59.8653C163.14 60.2543 162.847 60.6433 162.652 61.0323C162.554 61.3241 162.505 62.1508 162.505 63.5124C162.505 64.8739 161.674 65.8951 160.013 66.5759L157.96 67.8889C156.006 69.445 154.931 70.2717 154.735 70.3689C154.637 70.3689 153.953 70.7093 152.683 71.3901C152.389 71.7791 152.096 72.0223 151.803 72.1195C151.51 72.2168 151.168 72.3627 150.777 72.5572C149.506 73.8215 148.187 74.5995 146.818 74.8913C145.548 75.1831 144.375 75.718 143.3 76.496L141.98 77.0796C141.198 77.4686 140.71 77.6631 140.514 77.6631C140.416 77.6631 140.172 77.7117 139.781 77.809C139.488 77.9062 139.146 78.0035 138.755 78.1008C137.484 78.1008 136.067 78.8302 134.503 80.289L134.797 81.0184C135.481 82.4773 136.018 83.3526 136.409 83.6443C136.898 83.8389 137.142 84.082 137.142 84.3738C137.142 84.6655 137.826 85.7353 139.195 87.5832L143.593 94.148C144.668 95.5096 145.352 96.5794 145.645 97.3574C146.036 98.0382 146.427 98.719 146.818 99.3998C147.307 99.9833 147.649 100.47 147.845 100.859C148.04 101.15 148.235 101.442 148.431 101.734C148.626 102.026 148.724 102.269 148.724 102.463C149.017 103.144 149.457 103.679 150.044 104.068L151.07 105.527C152.438 106.986 153.171 107.812 153.269 108.007C153.367 108.104 153.611 108.299 154.002 108.59C154.784 109.369 155.175 109.952 155.175 110.341C155.175 110.73 155.273 110.973 155.468 111.071C155.761 111.071 156.054 111.314 156.348 111.8C156.739 112.286 157.032 112.821 157.227 113.405C157.521 113.891 157.667 114.231 157.667 114.426C157.667 114.523 157.667 114.62 157.667 114.718C157.765 114.815 157.863 114.863 157.96 114.863C158.058 114.863 158.107 114.912 158.107 115.009C158.205 115.009 158.254 115.107 158.254 115.301C158.254 115.398 158.351 115.593 158.547 115.885C158.84 116.079 159.182 116.322 159.573 116.614C159.964 116.906 160.257 117.198 160.453 117.489C160.648 117.684 160.746 117.927 160.746 118.219C160.746 118.413 160.746 118.608 160.746 118.802C160.844 118.9 160.941 118.948 161.039 118.948C161.137 118.948 161.186 118.997 161.186 119.094V119.24C161.088 119.532 160.99 119.726 160.893 119.824C160.893 119.921 160.795 119.969 160.599 119.969C160.502 119.969 160.257 120.115 159.866 120.407C159.475 120.602 158.84 121.136 157.96 122.012C157.569 122.498 157.178 122.741 156.788 122.741C156.299 122.741 155.321 122.449 153.855 121.866C151.216 120.796 149.604 120.261 149.017 120.261C149.017 120.553 149.066 120.796 149.164 120.991C149.359 121.088 149.555 121.136 149.75 121.136C149.946 121.136 150.044 121.185 150.044 121.282C150.141 121.282 150.19 121.331 150.19 121.428C150.19 121.526 150.19 121.623 150.19 121.72C150.288 121.817 150.483 121.915 150.777 122.012V122.158L150.483 122.304L149.604 122.158C148.92 121.866 148.578 121.671 148.578 121.574C148.578 121.38 148.529 121.282 148.431 121.282C148.431 121.185 148.333 121.136 148.138 121.136C148.04 121.136 147.796 121.039 147.405 120.845C147.111 120.553 146.818 120.261 146.525 119.969C146.33 119.58 146.232 119.289 146.232 119.094C146.232 118.802 146.036 118.656 145.645 118.656C144.668 118.17 143.691 117.587 142.713 116.906C142.127 116.322 141.687 116.031 141.394 116.031C141.101 116.031 140.856 116.031 140.661 116.031C140.563 115.933 140.514 115.787 140.514 115.593C140.514 115.398 140.319 115.253 139.928 115.155C139.537 115.058 138.901 114.718 138.022 114.134C137.044 113.162 136.311 112.529 135.823 112.238C133.673 110.584 132.109 109.028 131.131 107.569C130.74 106.791 130.056 105.916 129.079 104.943C128.688 104.554 128.346 104.165 128.053 103.776C127.759 103.29 127.466 102.609 127.173 101.734C126.587 101.15 126.293 100.81 126.293 100.713C126.293 100.518 126.098 100.226 125.707 99.8374C125.316 99.4484 124.632 98.1841 123.654 96.0445C123.263 95.1692 123.019 94.7315 122.921 94.7315C122.824 94.6343 122.628 94.4397 122.335 94.148C122.139 93.759 121.895 93.3213 121.602 92.835C120.82 91.2789 120.234 90.5009 119.843 90.5009C119.647 90.5009 119.549 90.8899 119.549 91.6679C119.549 92.5433 119.696 93.9535 119.989 95.8986L120.136 97.3574L119.989 99.2539C120.185 103.728 120.282 109.612 120.282 116.906C120.282 121.282 120.087 123.714 119.696 124.2C119.403 124.686 119.256 125.075 119.256 125.367C119.256 125.562 119.305 125.708 119.403 125.805C119.598 125.902 119.696 125.999 119.696 126.097C119.403 126.777 119.11 128.188 118.816 130.327C118.621 131.786 118.328 132.661 117.937 132.953C117.644 133.148 117.35 133.245 117.057 133.245C116.373 133.245 115.786 133.488 115.298 133.974C114.809 134.363 114.418 134.898 114.125 135.579C113.929 136.163 113.734 136.454 113.539 136.454L112.952 136.163C112.757 136.163 112.17 136.6 111.193 137.475C110.313 138.254 109.824 138.643 109.727 138.643C109.629 138.643 109.531 138.691 109.434 138.788C109.434 138.788 109.434 138.934 109.434 139.226C109.434 139.421 109.189 139.566 108.7 139.664C108.212 139.664 107.919 139.712 107.821 139.81C107.821 139.907 107.821 140.199 107.821 140.685L107.967 141.706C107.186 140.636 106.648 140.101 106.355 140.101C106.159 140.101 106.062 140.296 106.062 140.685C106.062 140.977 105.964 141.268 105.768 141.56C105.573 141.755 105.28 141.852 104.889 141.852L104.009 141.706C103.716 141.706 103.569 141.755 103.569 141.852C103.569 141.949 103.569 142.047 103.569 142.144C103.667 142.144 103.765 142.144 103.862 142.144C103.96 142.144 104.009 142.192 104.009 142.29C104.009 142.29 104.058 142.338 104.156 142.436V142.581C104.156 142.776 104.107 142.922 104.009 143.019H102.543L101.517 142.873C101.321 142.873 101.175 142.922 101.077 143.019C101.077 143.116 101.077 143.262 101.077 143.457C101.077 143.748 100.979 143.894 100.784 143.894ZM118.23 65.263C118.425 65.263 118.621 65.0685 118.816 64.6794C119.11 64.1932 119.305 63.6582 119.403 63.0747C119.501 62.4912 119.598 62.1022 119.696 61.9076C119.891 61.7131 120.234 61.5186 120.722 61.3241C121.895 60.9351 122.872 60.3029 123.654 59.4276C124.436 58.5523 124.974 58.1147 125.267 58.1147C125.56 58.1147 125.951 57.9688 126.44 57.677C127.808 57.0935 128.737 56.5099 129.225 55.9264C129.714 55.3429 130.154 55.0511 130.545 55.0511C130.936 55.0511 131.669 54.5162 132.744 53.4464C133.819 52.3766 134.65 51.6958 135.236 51.404C136.702 50.7232 137.435 50.2856 137.435 50.091C137.142 49.9938 136.996 49.7507 136.996 49.3616C136.996 48.7781 137.093 48.3891 137.289 48.1946C137.484 47.9028 137.631 47.7083 137.729 47.611V47.4651L137.582 47.3193C138.266 45.7632 138.706 43.8667 138.902 41.6298C138.902 41.0462 139.097 39.2956 139.488 36.378L139.928 32.0014C139.341 27.9167 138.022 25.8743 135.969 25.8743C134.894 25.8743 133.868 25.6312 132.891 25.1449L130.545 24.7072C129.274 24.3182 126.684 24.1237 122.775 24.1237C118.377 24.1237 115.884 24.3669 115.298 24.8531C114.809 25.3394 114.565 25.9229 114.565 26.6037C114.565 26.8955 114.76 27.5763 115.151 28.6461C115.053 28.8406 114.956 29.0838 114.858 29.3755C114.76 29.6673 114.711 31.5638 114.711 35.065C114.711 36.9129 114.858 37.8368 115.151 37.8368C115.542 37.8368 115.738 37.9341 115.738 38.1286C115.738 38.3231 115.591 38.4203 115.298 38.4203C115.005 38.4203 114.711 38.5662 114.418 38.858C114.223 39.0525 114.125 39.2956 114.125 39.5874L114.418 40.0251C114.809 40.0251 115.2 39.9278 115.591 39.7333L115.738 39.8792L115.591 40.9004C115.591 41.2894 115.689 41.6298 115.884 41.9215C116.177 42.1161 116.324 42.2619 116.324 42.3592V42.5051L115.738 42.3592C116.031 43.04 116.177 43.5749 116.177 43.9639C116.177 44.1584 116.031 44.3043 115.738 44.4016C115.542 44.4988 115.444 44.6447 115.444 44.8392C115.444 44.9365 115.542 44.9851 115.738 44.9851H116.031C116.226 44.9851 116.373 45.2282 116.471 45.7145C116.275 46.7843 116.177 47.8055 116.177 48.7781V49.6534L115.738 52.8628C115.835 53.0573 115.933 53.2519 116.031 53.4464C116.129 53.5436 116.226 53.9813 116.324 54.7593C116.52 55.4401 116.715 55.8291 116.91 55.9264C117.106 55.9264 117.301 56.0723 117.497 56.364C117.79 57.1421 117.937 57.7743 117.937 58.2605C117.937 58.3578 117.888 58.4551 117.79 58.5523C117.692 58.6496 117.644 58.9413 117.644 59.4276C117.644 59.7194 117.692 60.0111 117.79 60.3029C117.986 60.4974 118.083 60.8378 118.083 61.3241C118.083 62.6857 117.79 63.5124 117.204 63.8041C116.617 63.9986 116.324 64.339 116.324 64.8253C116.324 65.0198 116.471 65.1171 116.764 65.1171C117.057 65.1171 117.204 65.0198 117.204 64.8253C117.204 64.6308 117.301 64.5335 117.497 64.5335C117.692 64.5335 117.839 64.6794 117.937 64.9712C118.034 65.1657 118.132 65.263 118.23 65.263Z"/>
    <path d="M75.293 142.407C73.599 137.232 71.7356 132.085 69.7028 127.052C65.0443 115.599 62.3622 103.665 61.3458 91.3642C61.2611 90.4311 62.2775 88.7909 63.1527 88.4798C67.0771 87.0942 71.1427 86.0479 75.293 84.8602C74.9259 84.6057 74.446 84.2098 73.8813 83.9836C69.6463 82.2303 65.3549 80.5618 61.1481 78.752C60.414 78.441 59.3976 77.734 59.3412 77.1684C58.8047 71.1451 57.9295 65.0935 58.1836 59.0985C58.5224 51.237 61.7128 43.5735 59.9341 35.4576C58.6636 29.6888 57.6754 23.8917 53.2993 19.3389C52.1982 18.1794 50.9277 16.0868 51.2665 14.8143C52.2264 11.1946 50.3912 9.5262 47.6808 8.39506C44.9422 7.23564 42.0624 6.35901 39.1827 5.53893C34.0442 4.06845 31.0233 5.28443 28.6517 10.0918C25.9978 15.493 23.1744 20.8659 21.2263 26.5499C13.6316 48.9182 9.82012 72.1066 6.77094 95.4929C5.10518 108.218 3.04412 120.887 0.700767 133.499C-0.117996 137.939 -1.27553 141.728 4.17348 143.877C6.85564 144.924 9.19899 146.847 11.8811 147.808C15.8338 149.222 19.0524 146.564 19.1088 142.379C19.1935 138.137 19.1935 133.895 19.5888 129.682C20.6617 118.314 21.9604 106.946 23.1462 95.5777C23.5132 92.1843 24.8684 90.2331 28.7364 90.9683C30.2327 91.2511 31.842 91.138 33.3948 91.0532C39.3238 90.7987 45.2528 90.4876 51.4923 90.1765C52.2546 99.1408 53.2428 107.822 53.6945 116.532C54.118 124.535 53.9204 132.566 54.1463 140.569C54.1745 141.728 54.7674 143.425 55.6426 143.934C59.2565 146.055 62.955 148.119 66.8794 149.561C68.7428 150.24 71.425 150.127 73.1755 149.25C75.7447 147.95 76.1399 145.037 75.2647 142.407H75.293ZM27.5223 79.4873C32.5761 66.1398 37.3475 53.5559 42.4859 40.0104C44.914 53.0751 47.2009 65.2349 49.516 77.7906C42.0907 78.3561 35.1735 78.8934 27.5223 79.4873Z"/>
</svg>
