<svg width="580" height="150" viewBox="0 0 580 150" fill="#32468A" xmlns="http://www.w3.org/2000/svg">
    <path d="M521.452 135.578C520.508 126.915 519.941 117.875 519.941 109.023C519.941 102.808 520.697 96.7814 521.075 90.5664C521.641 81.1497 521.641 71.3564 522.774 61.9397V27.2863C522.774 26.9097 522.963 23.8963 522.963 23.143C523.341 20.6946 523.53 12.973 526.929 12.973V14.4796C527.874 13.538 532.784 13.1613 532.784 12.408C532.784 12.5963 533.162 12.973 533.162 12.973H533.35C541.283 11.0896 549.215 9.2063 557.147 9.2063C557.713 9.2063 560.924 9.58297 561.491 9.58297H562.246C563.946 9.7713 568.667 9.95963 569.045 9.95963C571.311 10.148 579.999 13.538 579.999 16.1746H578.11L579.055 17.3046C575.655 18.623 573.767 20.6946 569.612 20.6946C566.968 20.6946 564.89 19.5646 562.246 19.5646C558.091 19.5646 552.236 20.318 547.893 21.6363C547.893 22.013 547.515 24.273 547.515 24.838C547.515 26.9097 548.837 31.2413 549.026 32.9363V34.443C549.215 35.573 549.404 40.658 549.404 41.4113C549.592 41.9764 549.781 44.4247 549.97 44.8014C549.97 44.9897 550.159 45.5547 550.159 45.743V45.9314C550.159 46.1197 549.97 47.8147 549.97 48.003V48.1914C549.97 48.3797 550.159 50.0747 550.159 50.263C550.159 50.828 550.537 53.653 550.537 54.218L550.914 53.2764V58.3614L551.859 59.1147V60.2447C551.859 62.8814 551.481 65.5181 551.481 68.3431C553.37 68.3431 555.069 67.5897 557.147 67.5897C558.658 67.5897 559.98 68.1547 561.491 68.1547C564.135 68.1547 566.968 67.5897 569.423 67.5897H571.311L575.844 70.0381C576.033 70.0381 576.222 70.4147 576.222 70.4147C576.222 72.8631 572.822 74.3697 571.122 75.1231H570.934L551.481 81.5264C551.103 83.9747 550.348 95.8398 550.159 98.2881V103.938C550.159 109.776 550.159 114.296 550.537 120.323C550.726 122.395 550.726 122.771 552.425 122.771C556.014 122.771 559.413 121.83 563.001 121.83H563.379C564.512 122.018 568.856 122.206 569.612 122.395C570.934 123.336 574.711 123.148 574.711 125.22V125.408C574.711 125.408 574.333 125.973 574.333 126.161C572.822 127.291 570.745 128.798 569.045 129.74C566.968 130.493 564.89 130.87 563.001 132C559.98 133.883 557.336 136.143 554.125 138.215C552.048 139.533 549.592 140.287 547.137 141.228L546.193 141.793C545.249 142.358 540.905 145.56 539.772 145.937C539.583 146.125 537.883 145.937 537.694 145.937C535.995 146.502 534.484 148.008 532.406 148.008C526.363 148.008 523.719 141.228 521.83 136.52L521.452 135.578ZM546.004 23.5197V26.7213C546.571 24.838 546.76 23.3313 546.76 21.8247C546.004 21.8247 545.626 22.2013 545.249 22.7663L546.004 23.5197ZM552.236 88.6831V89.8131C552.236 91.5081 552.048 93.0148 551.859 95.0864V93.5798C551.859 91.6964 551.67 90.1898 552.236 88.6831ZM551.859 101.301C551.859 102.055 551.481 103.373 551.481 104.315V100.36C551.481 100.548 551.859 101.113 551.859 101.301ZM546.193 33.5013C546.004 33.5013 546.004 34.443 546.193 34.443H546.382C546.382 34.6313 546.382 34.8197 546.76 34.8197C547.137 34.8197 547.137 33.878 546.76 33.878H546.571C546.571 33.6897 546.382 33.5013 546.193 33.5013ZM551.859 111.095C552.048 111.471 552.048 113.355 551.859 113.731C551.67 114.296 551.67 110.718 551.859 111.095ZM552.236 86.6114C552.425 86.6114 552.425 87.5531 552.236 87.5531C551.859 87.5531 551.859 86.6114 552.236 86.6114ZM545.249 25.0263C544.871 25.0263 544.871 25.7797 545.249 25.7797C545.626 25.7797 545.626 25.0263 545.249 25.0263ZM551.859 57.2314C552.236 57.2314 552.236 57.9847 551.859 57.9847C551.481 57.9847 551.481 57.2314 551.859 57.2314ZM550.537 55.348C550.159 55.348 550.159 56.1014 550.537 56.1014C550.914 56.1014 550.914 55.348 550.537 55.348ZM551.859 115.05C552.236 115.05 552.236 115.615 551.859 115.615C551.481 115.615 551.481 115.05 551.859 115.05ZM525.041 137.461C524.663 137.461 524.663 138.215 525.041 138.215C525.229 138.215 525.229 137.461 525.041 137.461ZM552.236 120.888C552.425 120.888 552.425 121.453 552.236 121.453C551.859 121.453 551.859 120.888 552.236 120.888ZM544.871 24.273L545.249 24.838V23.8963L544.871 24.273ZM551.481 98.2881C551.67 98.2881 551.67 98.6648 551.481 98.6648C551.103 98.6648 551.103 98.2881 551.481 98.2881ZM551.481 106.575C551.67 106.575 551.67 106.763 551.481 106.763C551.103 106.763 551.103 106.386 551.481 106.575ZM531.273 119.57V119.946H531.462V119.57H531.273ZM546.571 33.878C546.382 33.878 546.382 34.2547 546.382 34.443C546.571 34.443 546.571 34.0663 546.571 33.878Z"/>
    <path d="M455.303 43.3667C456.471 45.9222 458.028 48.0267 459.991 49.596C461.957 51.1924 463.984 52.591 466.077 53.8459C467.587 54.7252 469.045 55.6372 470.487 56.6602C476.242 60.8631 482.141 64.8868 488.239 68.7254L489.262 69.3827C489.941 69.885 490.72 70.2947 491.541 70.5906C494.235 71.5611 496.306 73.1835 498.632 75.5141C503.355 80.2471 503.864 81.9756 504.404 87.1125C504.518 88.194 504.505 89.3708 504.396 90.6671C503.49 101.479 504.095 102.396 502.808 113.221C502.536 114.78 501.911 116.35 501.014 117.921L500.23 119.535C499.772 120.622 499.314 121.709 498.862 122.85C497.874 125.634 496.624 128.254 495.078 130.659C492.913 133.648 490.302 135.756 487.273 137.006C484.243 138.255 481.048 139.222 477.66 139.908C476.273 140.191 474.919 140.526 473.544 140.917C472.108 141.261 470.665 141.522 469.21 141.676C465.68 142.049 462.273 141.781 458.96 140.846C454.353 139.529 452.568 136.731 448.167 134.517C446.821 133.894 443.699 130.395 442.44 129.818C438.275 124.596 437.922 123.797 435.152 117.666C432.353 111.51 426.537 106.812 425.536 99.6187C425.476 99.0509 425.575 98.439 425.836 97.81C426.097 97.181 426.426 96.6815 426.823 96.3115C430.457 93.303 429.483 91.12 433.767 90.6671C435.788 90.4535 437.894 90.5316 440.11 90.8715C443.308 91.4902 445.75 92.9542 447.408 95.2393C449.091 97.5216 450.502 100.052 451.692 102.823C452.446 104.548 453.008 106.265 453.384 108.03C453.814 109.789 454.4 111.476 455.118 113.123C455.836 114.769 456.923 116.294 458.43 117.666C462.183 121.233 466.379 122.785 470.986 122.298C471.417 122.252 471.9 122.174 472.403 122.039C478.298 120.322 481.52 116.237 482.121 109.776C482.915 105.154 484.158 100.649 485.882 96.3115C486.463 94.5826 486.678 93.0016 486.524 91.5416C486.226 88.7028 484.515 86.4234 481.4 84.7844C480.243 84.1413 479.187 83.4328 478.204 82.6346C477.013 81.667 475.757 80.8703 474.411 80.2471C467.942 77.5412 461.353 74.9847 454.648 72.6317C444.166 68.8191 442.282 62.0587 435.152 53.8459C432.094 49.6313 428.654 47.4221 428.228 43.3667C427.554 36.959 427.893 32.4932 433.767 26.4321C438.312 21.7145 437.971 21.9792 443.484 18.444C449.463 14.6683 451.694 14.4227 458.329 12.8563C459.407 12.7423 466.994 11.236 468.994 11.4014C474.41 10.2454 478.25 12.7447 482.119 14.4226C485.894 16.894 488.577 16.2302 492.461 18.444C492.723 18.6076 493.04 18.7655 493.383 18.9206C495.718 20.396 497.458 22.1803 498.632 24.2705C499.805 26.3608 500.489 28.202 500.654 29.7701C500.739 30.5812 500.717 31.4037 500.608 32.1807C500.186 34.9043 499.12 37.2039 497.353 39.0582C495.613 40.9097 493.462 41.9572 490.929 42.225L490.067 42.3161C487.832 42.3064 485.524 41.8669 483.12 41.0275C480.743 40.1854 478.715 39.0329 477.113 37.5347C474.933 35.7149 473.313 34.82 472.229 34.8799C471.146 34.9397 470.44 34.9597 470.143 34.991C468.5 35.1648 466.863 35.6658 465.231 36.4671C462.797 37.6811 460.506 39.2082 458.329 41.0512C457.325 41.8681 456.316 42.6309 455.306 43.3937L455.303 43.3667Z"/>
    <path d="M402.588 53.6217C402.588 61.2211 402.281 67.6207 402.68 73.9894C403.049 79.989 404.092 85.9271 404.89 91.8959C405.534 96.8801 406.24 101.834 406.946 106.787C407.897 113.648 409.064 120.509 409.708 127.401C410.076 131.462 409.769 135.616 409.493 139.739C409.125 145.154 404.921 146.015 399.09 145.338C394.425 144.784 390.619 142.354 388.042 138.2C386.783 136.17 385.065 134.447 383.684 132.508C383.193 131.801 382.732 130.878 382.732 130.047C382.671 123.278 382.732 116.51 382.732 109.741C382.732 97.3416 382.978 84.9117 382.61 72.5126C382.395 65.4977 381.321 58.5136 380.308 51.5603C379.449 45.653 378.098 39.8073 377.086 33.9C376.717 31.7771 377.73 30.6079 380.001 30.0849C387.182 28.485 392.492 30.9156 397.126 36.4229C401.76 41.8994 403.447 47.899 402.619 53.5909L402.588 53.6217Z"/>
    <path d="M383.352 7.12058C383.367 4.12726 385.964 1.10396 389.261 0.23445C392.411 -0.595083 395.856 0.809127 397.54 3.93237C399.031 6.69082 400.203 9.61917 401.537 12.4626C402.379 14.2566 402.268 16.2055 400.665 17.1649C399.351 17.9545 397.423 17.8695 395.754 17.9245C394.567 17.9645 393.309 17.7646 392.183 17.3848C390.874 16.9451 389.632 16.2704 388.44 15.5658C386.233 14.2566 383.336 9.34933 383.352 7.11558V7.12058Z"/>
    <path d="M307.942 139.101C303.005 139.101 300.383 139.101 300.074 139.101C299.869 138.997 299.714 138.894 299.611 138.791C299.611 138.688 299.611 138.533 299.611 138.327C299.611 138.121 299.457 137.915 299.149 137.708C298.84 137.502 298.429 137.399 297.914 137.399C297.503 137.399 297.297 137.348 297.297 137.244C297.297 137.141 297.195 137.038 296.989 136.935C295.96 136.419 295.189 135.955 294.675 135.543C294.161 135.13 293.646 134.718 293.132 134.306C292.721 133.79 292.515 133.429 292.515 133.223L291.744 131.057C291.024 129.82 290.664 129.15 290.664 129.046C290.664 128.84 290.561 128.634 290.355 128.428C289.532 127.603 289.07 127.19 288.967 127.19C288.864 127.087 288.812 126.984 288.812 126.881C289.327 125.437 289.584 124.509 289.584 124.097V121.158C289.584 119.096 289.481 117.755 289.275 117.136V116.982H289.429C289.532 116.982 289.584 116.672 289.584 116.054C289.584 114.713 289.481 113.888 289.275 113.579C289.07 113.269 288.967 112.96 288.967 112.651C288.452 109.145 288.195 106.824 288.195 105.69C288.195 104.968 288.298 104.401 288.504 103.989L288.812 101.669L289.121 97.1829C289.635 96.3579 289.892 95.2752 289.892 93.9346C289.892 93.3159 289.995 92.5425 290.201 91.6145C290.509 90.0677 290.715 87.2835 290.818 83.2619C291.024 80.3745 291.229 78.7246 291.435 78.3122C291.641 77.7966 291.744 76.817 291.744 75.3733C291.744 74.0328 291.692 73.2078 291.589 72.8984C291.486 72.5891 291.384 72.3313 291.281 72.1251C291.281 71.6095 291.384 70.9392 291.589 70.1142C291.795 69.2893 292.001 68.6706 292.206 68.2581C292.515 67.7425 292.721 67.2785 292.823 66.866C292.618 66.4535 292.515 66.0926 292.515 65.7833C292.618 65.4739 292.721 65.0099 292.823 64.3912C293.132 62.8444 293.286 61.607 293.286 60.6789C293.286 59.6477 293.338 59.1321 293.441 59.1321C293.646 59.1321 293.801 58.9259 293.903 58.5134C293.903 56.9666 293.955 55.6777 294.058 54.6465C294.263 53.6153 294.366 52.6357 294.366 51.7076C294.675 49.5421 294.829 47.9953 294.829 47.0673C294.829 45.5205 294.983 44.2831 295.292 43.355L295.446 42.5816L295.138 41.6535L295.6 40.5708L295.446 38.7147L295.909 36.2398L295.446 35.1571C295.549 34.8477 295.703 34.5899 295.909 34.3837L296.063 33.3009C296.269 32.2698 296.372 31.2901 296.372 30.3621C296.372 29.3309 296.526 28.3513 296.835 27.4232C297.04 27.2169 297.143 26.856 297.143 26.3404C297.246 25.7217 297.297 25.3608 297.297 25.2577C297.4 25.0515 297.503 24.8968 297.606 24.7937C297.812 24.5874 297.966 24.2265 298.069 23.7109C298.069 20.7205 298.172 19.1221 298.377 18.9159C298.274 18.5034 296.732 18.091 293.749 17.6785C292.823 17.4722 292.155 17.3176 291.744 17.2145C291.435 17.0082 291.126 16.9051 290.818 16.9051C290.612 16.802 290.407 16.6989 290.201 16.5957C290.098 16.4926 290.047 16.3895 290.047 16.2864C290.149 16.1833 290.252 16.1317 290.355 16.1317C290.458 16.1317 290.767 15.977 291.281 15.6677C291.795 15.2552 292.206 15.049 292.515 15.049C292.823 14.9458 293.132 14.8943 293.441 14.8943C294.778 14.8943 295.446 14.6881 295.446 14.2756L295.138 13.5022C295.138 13.1928 295.343 12.935 295.755 12.7288C296.166 12.4194 296.577 12.2648 296.989 12.2648L297.452 12.4194H297.297C297.195 12.5226 296.937 12.6772 296.526 12.8835C296.217 12.9866 295.96 13.2444 295.755 13.6569C295.755 13.76 296.115 13.8115 296.835 13.8115C297.863 13.8115 298.377 13.6569 298.377 13.3475L298.069 12.5741C298.069 12.3679 298.223 12.1616 298.532 11.9554C298.943 11.7492 299.149 11.4914 299.149 11.182L298.994 10.5633C298.994 9.63525 299.56 9.17121 300.691 9.17121C300.794 9.27433 300.846 9.37745 300.846 9.48056C300.846 9.58368 301.051 9.63524 301.463 9.63524C301.668 9.53212 302.028 9.48056 302.543 9.48056C303.16 9.37745 303.828 9.27433 304.548 9.17121C308.148 9.06809 310.925 8.91341 312.879 8.70718C316.17 8.50094 318.279 8.24315 319.204 7.93379C320.233 7.62443 321.313 7.46975 322.444 7.46975C323.472 7.46975 324.552 7.57287 325.684 7.77911L327.689 7.93379C328.409 7.93379 329.335 7.83067 330.466 7.62443C332.317 7.31508 334.117 7.1604 335.866 7.1604C337.717 7.1604 338.951 7.31508 339.568 7.62443C340.288 7.93379 340.905 8.08846 341.419 8.08846L341.882 7.93379C341.985 7.93379 342.037 8.03691 342.037 8.24314L341.882 9.17121C341.882 9.37745 342.088 9.48056 342.499 9.48056C343.014 9.48056 343.528 9.6868 344.042 10.0993C344.556 10.4086 344.813 10.718 344.813 11.0273L344.505 11.4914C344.505 11.5945 344.865 11.6461 345.585 11.6461C347.23 11.6461 348.105 11.8523 348.207 12.2648C348.207 12.471 347.796 12.6772 346.973 12.8835C346.15 13.0897 345.739 13.3475 345.739 13.6569L346.51 14.7396C346.51 15.049 346.305 15.2036 345.893 15.2036L344.505 14.8943L344.196 15.049L346.356 16.1317C345.945 16.1317 345.739 16.3379 345.739 16.7504C345.739 16.8535 345.842 17.0082 346.048 17.2145C346.253 17.4207 346.613 17.5238 347.128 17.5238C347.23 17.6269 347.282 17.8332 347.282 18.1425C347.282 18.3488 347.385 18.4519 347.59 18.4519C347.796 18.4519 347.899 18.5034 347.899 18.6066C347.385 19.1221 346.973 19.3799 346.665 19.3799C346.459 19.3799 346.356 19.2768 346.356 19.0706C346.356 18.8643 346.202 18.7612 345.893 18.7612C345.071 18.7612 344.402 19.1221 343.888 19.844C343.888 20.1533 343.528 20.308 342.808 20.308C342.088 20.308 341.574 20.4627 341.265 20.772C340.854 20.8752 340.391 20.9267 339.877 20.9267C339.465 20.9267 339.105 21.0814 338.797 21.3908C338.488 21.7001 338.231 21.9063 338.025 22.0095C337.82 22.0095 337.46 22.0095 336.946 22.0095C336.02 21.9063 334.271 21.8548 331.7 21.8548L326.455 21.7001C321.621 21.7001 317.816 21.5454 315.039 21.2361C315.039 28.97 314.987 32.8885 314.885 32.9916C314.782 32.9916 314.73 33.3525 314.73 34.0743C314.73 34.693 314.73 35.3118 314.73 35.9305C314.833 36.4461 314.987 37.4257 315.193 38.8693L314.885 41.0348C315.193 42.2723 315.399 45.3658 315.502 50.3155C315.502 52.5841 315.502 54.5434 315.502 56.1932C315.604 57.8431 315.707 58.7197 315.81 58.8228L315.964 60.3695C315.964 61.2976 315.862 62.1741 315.656 62.9991C315.862 63.4115 315.964 64.0303 315.964 64.8552C315.964 66.5051 316.016 67.33 316.119 67.33L317.816 67.1754C318.947 67.1754 319.976 67.0207 320.901 66.7113C323.061 65.9895 325.478 65.6286 328.152 65.6286C328.872 65.6286 329.54 65.4739 330.158 65.1646C330.363 65.1646 330.517 65.2161 330.62 65.3192C330.723 65.4224 333.552 65.4739 339.105 65.4739C339.311 65.577 339.465 65.6802 339.568 65.7833C339.774 65.7833 339.877 65.8864 339.877 66.0926C339.98 66.1957 340.288 66.402 340.802 66.7113C341.419 66.9176 342.088 67.1238 342.808 67.33C343.631 67.4332 344.299 67.4847 344.813 67.4847C345.328 67.4847 345.688 67.691 345.893 68.1034C346.202 68.4128 346.51 68.5675 346.819 68.5675C347.128 68.5675 347.282 68.7221 347.282 69.0315L347.128 70.5783C347.128 70.8876 347.23 71.0939 347.436 71.197C347.642 71.197 347.796 71.3001 347.899 71.5063V72.5891C347.796 72.7953 347.59 72.8984 347.282 72.8984C347.076 72.8984 346.973 73.0531 346.973 73.3625C346.973 73.6718 347.128 73.8265 347.436 73.8265C347.436 73.9296 347.333 74.0843 347.128 74.2906C346.51 74.5999 345.893 74.7546 345.276 74.7546C344.762 74.7546 344.402 74.8577 344.196 75.0639C344.093 75.1671 343.991 75.2702 343.888 75.3733C343.785 75.3733 343.579 75.3733 343.271 75.3733C342.962 75.3733 342.808 75.5795 342.808 75.992C342.808 76.3014 341.214 76.9201 338.025 77.8481C337.511 78.0544 337.048 78.2606 336.637 78.4668C336.328 78.57 336.123 78.7246 336.02 78.9309C336.02 79.034 335.917 79.0856 335.711 79.0856L334.323 78.6215C332.986 78.8278 331.649 78.9824 330.312 79.0856C328.975 79.1887 328.101 79.3434 327.689 79.5496L324.141 79.8589C322.084 79.8589 320.953 79.9621 320.747 80.1683C320.644 80.2714 320.49 80.3745 320.284 80.4777C319.976 80.1683 319.77 80.0136 319.667 80.0136C319.05 80.2199 318.484 80.3745 317.97 80.4777H317.199C317.199 80.5808 317.199 80.787 317.199 81.0964C317.301 81.3026 317.353 81.8182 317.353 82.6431C317.353 86.9741 317.507 89.7583 317.816 90.9957L317.661 91.9238C317.661 92.8519 317.661 93.3675 317.661 93.4706C317.764 93.4706 318.279 94.6565 319.204 97.0282C319.513 97.6469 319.77 97.9562 319.976 97.9562L319.358 99.3483C319.358 99.4515 319.513 99.503 319.821 99.503C320.13 99.503 320.284 100.276 320.284 101.823L320.593 102.597V103.679C320.901 104.298 321.107 104.711 321.21 104.917C321.415 105.02 321.518 105.432 321.518 106.154C321.518 106.773 321.621 107.185 321.827 107.392C322.135 107.598 322.444 108.01 322.752 108.629C323.164 110.794 323.472 112.444 323.678 113.579C323.987 114.61 324.141 115.435 324.141 116.054C324.038 116.054 323.987 116.105 323.987 116.208L324.295 116.982L323.832 119.766C323.832 120.591 323.935 121.416 324.141 122.241C324.449 122.962 324.758 123.375 325.067 123.478C325.375 123.581 325.838 123.633 326.455 123.633C327.586 123.633 328.461 123.53 329.078 123.323C329.283 123.117 329.54 123.014 329.849 123.014C330.26 122.911 330.826 122.808 331.546 122.705C332.369 122.602 333.243 122.447 334.169 122.241C339.311 121.313 344.351 120.849 349.287 120.849C350.522 120.849 351.55 120.849 352.373 120.849C353.298 120.745 353.813 120.642 353.916 120.539H354.07L356.538 121.931C357.361 122.55 357.824 122.859 357.927 122.859L359.315 123.478C357.567 123.478 356.641 123.787 356.538 124.406C356.538 124.612 356.847 125.025 357.464 125.644C357.155 125.85 356.95 126.108 356.847 126.417C356.847 126.726 356.538 126.881 355.921 126.881C355.407 126.881 354.995 126.984 354.687 127.19C354.481 127.397 354.378 127.757 354.378 128.273C354.378 128.686 353.453 128.995 351.601 129.201C350.779 129.407 350.162 129.665 349.75 129.975C349.442 130.181 348.002 130.645 345.431 131.367C342.859 132.088 341.317 132.449 340.802 132.449C340.288 132.449 339.877 132.604 339.568 132.913C339.26 133.223 338.951 133.481 338.643 133.687C338.334 133.79 338.077 133.841 337.871 133.841C334.786 134.563 330.723 135.749 325.684 137.399C324.758 137.812 324.089 138.069 323.678 138.172C323.267 138.276 321.004 138.533 316.89 138.946L315.039 138.791C313.805 138.791 312.982 138.843 312.57 138.946C312.262 139.049 310.719 139.101 307.942 139.101Z"/>
    <path d="M202.028 141.573C201.823 141.573 201.568 141.266 201.262 140.652C200.956 140.141 200.649 139.783 200.343 139.578C200.037 139.374 199.118 139.016 197.587 138.504C197.28 138.402 197.127 138.3 197.127 138.197C197.127 138.095 197.076 138.044 196.974 138.044C196.974 137.942 196.872 137.89 196.668 137.89C196.055 137.89 195.443 137.737 194.83 137.43C194.32 137.123 194.064 136.765 194.064 136.356C194.064 135.947 194.013 135.691 193.911 135.589C193.809 135.487 193.707 135.384 193.605 135.282C193.605 135.077 193.605 134.924 193.605 134.822C193.605 134.617 193.554 134.464 193.452 134.361C193.452 134.259 193.35 134.157 193.146 134.054C192.941 133.952 192.839 133.287 192.839 132.06C192.839 130.832 192.737 130.218 192.533 130.218C192.431 130.218 192.329 130.167 192.227 130.065C192.227 129.86 192.227 129.707 192.227 129.605C192.227 129.4 192.176 129.247 192.074 129.144C192.074 129.042 192.023 128.94 191.921 128.838C191.921 128.633 191.869 128.428 191.767 128.224L191.921 125.769C191.818 125.564 191.665 125.462 191.461 125.462C191.155 125.155 191.002 124.644 191.002 123.927C190.9 123.723 190.849 123.569 190.849 123.467C190.849 123.365 190.798 123.314 190.695 123.314C190.593 123.211 190.491 123.109 190.389 123.007C190.389 122.495 190.338 122.188 190.236 122.086C190.236 121.882 190.185 121.677 190.083 121.472C189.777 120.859 189.572 119.989 189.47 118.864C189.368 117.636 189.266 116.92 189.164 116.716C189.266 116.614 189.368 116.562 189.47 116.562C189.572 116.46 189.623 116.204 189.623 115.795C189.521 115.181 189.47 114.312 189.47 113.187C189.572 113.084 189.623 112.675 189.623 111.959C189.726 111.141 189.879 109.351 190.083 106.589C190.083 104.338 190.032 103.213 189.93 103.213C189.828 103.111 189.777 102.957 189.777 102.753L189.93 101.832C189.93 101.525 189.777 101.27 189.47 101.065L189.317 100.144C189.521 99.7353 189.675 99.0703 189.777 98.1497C189.981 97.1268 190.083 96.2573 190.083 95.5413C190.083 91.6541 190.134 88.7899 190.236 86.9487C190.236 85.4143 190.134 84.5448 189.93 84.3402C189.828 84.0333 189.777 83.0615 189.777 81.4249L189.317 72.0651C189.419 72.0651 189.47 71.0933 189.47 69.1497C189.572 68.3314 189.623 67.3596 189.623 66.2344C190.236 66.0298 190.593 65.8764 190.695 65.7741C190.798 65.6718 190.951 64.9046 191.155 63.4725C191.257 63.1656 191.308 62.9099 191.308 62.7053C191.41 62.5007 191.512 62.3984 191.614 62.3984C191.818 62.3984 191.921 61.5801 191.921 59.9434C191.921 57.8976 191.767 56.7212 191.461 56.4143C191.257 56.0051 191.155 55.3914 191.155 54.573C191.155 53.6524 191.308 52.2203 191.614 50.2768C191.818 49.5607 192.023 47.4126 192.227 43.8323C192.533 40.7635 192.686 37.7459 192.686 34.7794L192.993 28.9487C193.095 28.7442 193.146 28.3861 193.146 27.8747C193.248 27.2609 193.35 26.596 193.452 25.88C193.452 24.5502 193.605 23.1181 193.911 21.5837C194.013 21.2768 194.064 19.947 194.064 17.5943C194.064 15.1392 194.116 13.7583 194.218 13.4514C194.422 13.1445 194.524 12.7865 194.524 12.3773C194.524 11.3544 194.779 10.5361 195.29 9.9223C195.8 9.30855 196.157 9.00167 196.362 9.00167C196.668 9.00167 196.923 8.95053 197.127 8.84823C197.434 8.64365 197.791 8.38791 198.199 8.08104C198.71 7.67187 199.118 7.46728 199.424 7.46728L203.253 7.92759L206.775 7.77416C209.123 7.77416 211.318 8.28562 213.36 9.30855C213.87 9.61543 214.432 9.76887 215.044 9.76887C216.678 9.56428 218.209 9.41084 219.638 9.30855C221.17 9.20625 222.752 8.95052 224.386 8.54135C225.202 8.33677 225.917 8.23448 226.53 8.23448C227.244 8.13219 227.755 8.02989 228.061 7.92759C228.367 7.8253 231.992 7.56957 238.934 7.1604L248.122 8.54135C250.879 9.15511 253.635 10.3826 256.392 12.2239C257.412 12.7354 258.331 13.0934 259.148 13.298C259.352 13.4003 259.607 13.5025 259.914 13.6048C260.322 13.7071 260.526 13.8606 260.526 14.0652C260.526 14.1674 261.292 14.6278 262.823 15.4461C264.355 16.1622 265.12 16.6736 265.12 16.9805C265.222 17.2874 265.376 17.492 265.58 17.5943C266.192 18.208 266.55 18.6683 266.652 18.9752C266.856 19.1798 267.111 19.589 267.417 20.2027C267.417 20.4073 267.469 20.5096 267.571 20.5096C267.775 20.5096 267.877 20.6119 267.877 20.8165C267.877 21.9417 268.081 22.9646 268.489 23.8853C269 24.7036 269.255 25.7265 269.255 26.954C269.255 27.4655 269.255 27.977 269.255 28.4884C269.357 28.8976 269.459 29.2045 269.561 29.4091C269.766 29.5113 269.919 29.8694 270.021 30.4831V32.6313C270.021 34.7794 269.868 35.9046 269.561 36.0069C269.255 36.1092 269.102 36.2115 269.102 36.3138C269.204 36.3138 269.357 36.4161 269.561 36.6207C269.766 36.723 269.868 37.3879 269.868 38.6154C269.868 39.2291 269.766 39.6383 269.561 39.8429C269.357 39.9452 269.255 40.917 269.255 42.7582C269.255 47.1568 269.051 49.8164 268.643 50.7371C268.234 51.5554 267.877 52.3738 267.571 53.1921C267.162 53.6013 266.856 54.0104 266.652 54.4196C266.55 54.7265 266.499 55.596 266.499 57.0281C266.499 58.4602 265.631 59.5342 263.895 60.2503L261.751 61.6312C259.71 63.2679 258.587 64.1374 258.382 64.2397C258.28 64.2397 257.566 64.5977 256.238 65.3138C255.932 65.7229 255.626 65.9787 255.32 66.081C255.013 66.1833 254.656 66.3367 254.248 66.5413C252.92 67.8711 251.542 68.6894 250.113 68.9963C248.786 69.3032 247.561 69.8658 246.438 70.6841L245.059 71.2979C244.243 71.7071 243.732 71.9117 243.528 71.9117C243.426 71.9117 243.171 71.9628 242.762 72.0651C242.456 72.1674 242.099 72.2697 241.69 72.372C240.363 72.372 238.883 73.1392 237.249 74.6736L237.556 75.4407C238.27 76.9751 238.832 77.8958 239.24 78.2027C239.751 78.4072 240.006 78.663 240.006 78.9698C240.006 79.2767 240.72 80.4019 242.15 82.3455L246.744 89.2503C247.867 90.6824 248.582 91.8076 248.888 92.6259C249.296 93.342 249.705 94.058 250.113 94.7741C250.623 95.3878 250.981 95.8993 251.185 96.3084C251.389 96.6153 251.593 96.9222 251.797 97.2291C252.002 97.536 252.104 97.7917 252.104 97.9963C252.41 98.7123 252.869 99.2749 253.482 99.6841L254.554 101.218C255.983 102.753 256.749 103.622 256.851 103.827C256.953 103.929 257.208 104.134 257.617 104.441C258.433 105.259 258.842 105.873 258.842 106.282C258.842 106.691 258.944 106.947 259.148 107.049C259.454 107.049 259.761 107.305 260.067 107.816C260.475 108.328 260.781 108.89 260.986 109.504C261.292 110.016 261.445 110.374 261.445 110.578C261.445 110.681 261.445 110.783 261.445 110.885C261.547 110.987 261.649 111.039 261.751 111.039C261.853 111.039 261.904 111.09 261.904 111.192C262.007 111.192 262.058 111.294 262.058 111.499C262.058 111.601 262.16 111.806 262.364 112.113C262.67 112.317 263.028 112.573 263.436 112.88C263.844 113.187 264.151 113.494 264.355 113.8C264.559 114.005 264.661 114.261 264.661 114.568C264.661 114.772 264.661 114.977 264.661 115.181C264.763 115.284 264.865 115.335 264.967 115.335C265.069 115.335 265.12 115.386 265.12 115.488V115.642C265.018 115.949 264.916 116.153 264.814 116.256C264.814 116.358 264.712 116.409 264.508 116.409C264.406 116.409 264.151 116.562 263.742 116.869C263.334 117.074 262.67 117.636 261.751 118.557C261.343 119.069 260.935 119.324 260.526 119.324C260.016 119.324 258.995 119.017 257.464 118.404C254.707 117.278 253.023 116.716 252.41 116.716C252.41 117.023 252.461 117.278 252.563 117.483C252.767 117.585 252.971 117.636 253.176 117.636C253.38 117.636 253.482 117.688 253.482 117.79C253.584 117.79 253.635 117.841 253.635 117.943C253.635 118.046 253.635 118.148 253.635 118.25C253.737 118.353 253.941 118.455 254.248 118.557V118.711L253.941 118.864L253.023 118.711C252.308 118.404 251.951 118.199 251.951 118.097C251.951 117.892 251.9 117.79 251.797 117.79C251.797 117.688 251.695 117.636 251.491 117.636C251.389 117.636 251.134 117.534 250.725 117.33C250.419 117.023 250.113 116.716 249.807 116.409C249.602 116 249.5 115.693 249.5 115.488C249.5 115.181 249.296 115.028 248.888 115.028C247.867 114.517 246.846 113.903 245.825 113.187C245.212 112.573 244.753 112.266 244.447 112.266C244.141 112.266 243.885 112.266 243.681 112.266C243.579 112.164 243.528 112.01 243.528 111.806C243.528 111.601 243.324 111.448 242.915 111.345C242.507 111.243 241.843 110.885 240.925 110.271C239.904 109.248 239.138 108.584 238.628 108.277C236.382 106.538 234.748 104.901 233.727 103.367C233.319 102.548 232.604 101.628 231.583 100.605C231.175 100.196 230.818 99.7864 230.511 99.3772C230.205 98.8658 229.899 98.1497 229.592 97.2291C228.98 96.6153 228.674 96.2573 228.674 96.155C228.674 95.9504 228.469 95.6435 228.061 95.2344C227.653 94.8252 226.938 93.4954 225.917 91.245C225.509 90.3243 225.254 89.864 225.151 89.864C225.049 89.7617 224.845 89.5571 224.539 89.2503C224.335 88.8411 224.079 88.3808 223.773 87.8693C222.956 86.2326 222.344 85.4143 221.936 85.4143C221.731 85.4143 221.629 85.8235 221.629 86.6418C221.629 87.5624 221.782 89.0457 222.089 91.0915L222.242 92.6259L222.089 94.6206C222.293 99.3261 222.395 105.515 222.395 113.187C222.395 117.79 222.191 120.347 221.782 120.859C221.476 121.37 221.323 121.779 221.323 122.086C221.323 122.291 221.374 122.444 221.476 122.547C221.68 122.649 221.782 122.751 221.782 122.853C221.476 123.569 221.17 125.053 220.864 127.303C220.659 128.838 220.353 129.758 219.945 130.065C219.638 130.27 219.332 130.372 219.026 130.372C218.311 130.372 217.699 130.628 217.188 131.139C216.678 131.548 216.269 132.111 215.963 132.827C215.759 133.441 215.555 133.748 215.351 133.748L214.738 133.441C214.534 133.441 213.921 133.901 212.9 134.822C211.982 135.64 211.471 136.049 211.369 136.049C211.267 136.049 211.165 136.1 211.063 136.203C211.063 136.203 211.063 136.356 211.063 136.663C211.063 136.867 210.808 137.021 210.297 137.123C209.787 137.123 209.48 137.174 209.378 137.277C209.378 137.379 209.378 137.686 209.378 138.197L209.531 139.271C208.715 138.146 208.153 137.584 207.847 137.584C207.643 137.584 207.541 137.788 207.541 138.197C207.541 138.504 207.439 138.811 207.234 139.118C207.03 139.323 206.724 139.425 206.315 139.425L205.397 139.271C205.09 139.271 204.937 139.323 204.937 139.425C204.937 139.527 204.937 139.629 204.937 139.732C205.039 139.732 205.141 139.732 205.244 139.732C205.346 139.732 205.397 139.783 205.397 139.885C205.397 139.885 205.448 139.936 205.55 140.039V140.192C205.55 140.397 205.499 140.55 205.397 140.652H203.865L202.793 140.499C202.589 140.499 202.436 140.55 202.334 140.652C202.334 140.755 202.334 140.908 202.334 141.113C202.334 141.42 202.232 141.573 202.028 141.573ZM220.251 58.8693C220.455 58.8693 220.659 58.6648 220.864 58.2556C221.17 57.7441 221.374 57.1815 221.476 56.5678C221.578 55.954 221.68 55.5448 221.782 55.3402C221.987 55.1357 222.344 54.9311 222.854 54.7265C224.079 54.3173 225.1 53.6524 225.917 52.7318C226.734 51.8111 227.295 51.3508 227.602 51.3508C227.908 51.3508 228.316 51.1974 228.827 50.8905C230.256 50.2768 231.226 49.663 231.736 49.0492C232.247 48.4355 232.706 48.1286 233.115 48.1286C233.523 48.1286 234.289 47.566 235.412 46.4408C236.535 45.3156 237.402 44.5995 238.015 44.2926C239.546 43.5766 240.312 43.1163 240.312 42.9117C240.006 42.8094 239.853 42.5537 239.853 42.1445C239.853 41.5307 239.955 41.1216 240.159 40.917C240.363 40.6101 240.516 40.4055 240.618 40.3032V40.1498L240.465 39.9963C241.18 38.3597 241.639 36.365 241.843 34.0122C241.843 33.3985 242.048 31.5572 242.456 28.4884L242.915 23.8853C242.303 19.589 240.925 17.4408 238.781 17.4408C237.658 17.4408 236.586 17.1851 235.565 16.6736L233.115 16.2133C231.787 15.8041 229.082 15.5995 224.998 15.5995C220.404 15.5995 217.801 15.8553 217.188 16.3667C216.678 16.8782 216.423 17.492 216.423 18.208C216.423 18.5149 216.627 19.2309 217.035 20.3562C216.933 20.5607 216.831 20.8165 216.729 21.1233C216.627 21.4302 216.576 23.4249 216.576 27.1075C216.576 29.051 216.729 30.0228 217.035 30.0228C217.444 30.0228 217.648 30.1251 217.648 30.3297C217.648 30.5343 217.495 30.6366 217.188 30.6366C216.882 30.6366 216.576 30.79 216.269 31.0969C216.065 31.3015 215.963 31.5572 215.963 31.8641L216.269 32.3244C216.678 32.3244 217.086 32.2221 217.495 32.0175L217.648 32.171L217.495 33.245C217.495 33.6542 217.597 34.0122 217.801 34.3191C218.107 34.5237 218.26 34.6771 218.26 34.7794V34.9329L217.648 34.7794C217.954 35.4955 218.107 36.0581 218.107 36.4673C218.107 36.6718 217.954 36.8253 217.648 36.9276C217.444 37.0299 217.341 37.1833 217.341 37.3879C217.341 37.4902 217.444 37.5413 217.648 37.5413H217.954C218.158 37.5413 218.311 37.797 218.413 38.3085C218.209 39.4337 218.107 40.5078 218.107 41.5307V42.4514L217.648 45.827C217.75 46.0316 217.852 46.2362 217.954 46.4408C218.056 46.5431 218.158 47.0034 218.26 47.8217C218.464 48.5378 218.669 48.9469 218.873 49.0492C219.077 49.0492 219.281 49.2027 219.485 49.5096C219.792 50.3279 219.945 50.9928 219.945 51.5043C219.945 51.6066 219.894 51.7089 219.792 51.8111C219.69 51.9134 219.638 52.2203 219.638 52.7318C219.638 53.0387 219.69 53.3455 219.792 53.6524C219.996 53.857 220.098 54.215 220.098 54.7265C220.098 56.1586 219.792 57.0281 219.179 57.3349C218.567 57.5395 218.26 57.8976 218.26 58.409C218.26 58.6136 218.413 58.7159 218.72 58.7159C219.026 58.7159 219.179 58.6136 219.179 58.409C219.179 58.2044 219.281 58.1021 219.485 58.1021C219.69 58.1021 219.843 58.2556 219.945 58.5625C220.047 58.767 220.149 58.8693 220.251 58.8693Z"/>
    <path d="M102.199 150C101.994 150 101.892 149.898 101.892 149.693C101.892 149.59 101.534 149.436 100.818 149.231C100.205 149.026 99.5402 148.616 98.8244 148.001C98.2108 147.488 97.8529 147.027 97.7507 146.616C97.7507 146.309 97.5973 145.847 97.2905 145.232C96.0634 142.874 95.3475 141.438 95.143 140.926C94.9385 140.31 94.6828 138.772 94.376 136.311C94.376 135.901 94.4783 135.645 94.6828 135.542L94.9896 133.235C95.1941 133.03 95.2964 132.876 95.2964 132.774C95.2964 132.671 95.1941 132.62 94.9896 132.62C94.7851 132.517 94.6828 132.21 94.6828 131.697C94.5806 131.697 94.5294 131.646 94.5294 131.543H94.376C94.2738 131.543 94.2227 131.441 94.2227 131.236L94.376 131.082C94.4783 130.979 94.5294 130.621 94.5294 130.005C94.5294 129.39 94.7851 128.826 95.2964 128.313C95.1941 128.211 95.0919 128.16 94.9896 128.16C94.8874 128.057 94.7851 127.852 94.6828 127.544C94.6828 127.237 94.6828 126.878 94.6828 126.468C94.6828 125.135 94.7851 124.212 94.9896 123.699C95.1941 123.187 95.2964 122.725 95.2964 122.315C95.2964 121.802 95.4498 121.341 95.7566 120.931C96.0634 120.521 96.2167 120.162 96.2167 119.854C96.0122 118.829 95.91 117.803 95.91 116.778V113.394C96.1145 113.394 96.2167 112.01 96.2167 109.241C96.2167 105.858 96.2679 103.91 96.3701 103.397C96.4724 102.782 96.5747 102.013 96.6769 101.09V94.6299L97.1371 89.5543L98.2108 80.6335C98.7221 78.7879 98.9778 76.4295 98.9778 73.5585C99.3868 69.7646 99.7959 66.5347 100.205 63.8687C100.409 62.9458 100.512 61.9717 100.512 60.9464C100.614 59.8185 100.716 58.1266 100.818 55.8708C100.921 55.0505 100.972 54.1276 100.972 53.1023C101.279 45.9246 101.483 41.977 101.585 41.2592C101.79 39.6186 101.994 38.0293 102.199 36.4912C102.404 34.8506 102.506 33.979 102.506 33.8765C102.506 33.6714 102.557 33.5176 102.659 33.4151C102.659 32.9024 102.557 32.3897 102.352 31.877C102.455 31.6719 102.557 31.4156 102.659 31.108C102.864 30.8004 103.119 29.5699 103.426 27.4166L103.58 24.8019C103.58 23.2639 103.58 22.136 103.58 21.4182C103.682 20.7004 103.784 20.239 103.886 20.0339C104.091 19.8289 104.244 19.47 104.346 18.9573L104.5 9.57513H105.574C106.289 9.57513 106.75 9.52386 106.954 9.42132C107.159 9.21624 107.568 9.11371 108.181 9.11371C109.102 9.11371 110.278 9.21624 111.709 9.42132L115.851 10.3442C116.26 10.3442 116.464 10.4467 116.464 10.6518L116.158 12.4974C116.158 12.8051 116.311 12.9589 116.618 12.9589C116.925 12.9589 117.078 13.0614 117.078 13.2665L116.925 13.8817C116.925 14.9071 117.334 15.9324 118.152 16.9578C118.459 17.573 118.663 17.9832 118.765 18.1883C118.97 18.2908 119.123 18.4446 119.225 18.6497C119.225 19.9827 119.43 21.008 119.839 21.7258C120.248 22.341 120.453 22.8025 120.453 23.1101C120.35 23.3151 120.299 23.6228 120.299 24.0329C120.299 24.6481 120.401 25.4172 120.606 26.34C120.811 27.1603 120.964 27.673 121.066 27.8781C121.168 28.0831 121.322 28.3907 121.526 28.8009C121.833 29.1085 122.191 29.6725 122.6 30.4928C123.111 31.3131 123.572 32.1334 123.981 32.9537L126.281 37.8754L127.815 40.4902V41.1054C127.815 41.6181 128.122 42.3358 128.736 43.2587C128.94 43.6688 129.196 43.8739 129.503 43.8739V44.3353L129.963 45.4119C130.167 45.617 130.321 45.8221 130.423 46.0272C130.525 46.2322 130.628 47.0525 130.73 48.4881C130.934 48.5906 131.088 48.7957 131.19 49.1033C131.395 49.3084 131.548 49.5647 131.65 49.8723C131.752 50.0774 131.804 50.2825 131.804 50.4876C131.906 50.6926 132.008 50.8977 132.11 51.1028C132.315 51.2053 132.622 51.5642 133.031 52.1794C133.951 53.9226 134.462 55.1017 134.565 55.717C134.769 56.2297 134.923 56.6398 135.025 56.9474C135.127 57.1525 135.229 57.3063 135.332 57.4088H135.178C135.689 58.3317 136.047 58.9469 136.252 59.2545C136.559 59.5621 136.712 59.8185 136.712 60.0235C136.712 60.2286 136.763 60.4337 136.865 60.6388C137.07 60.8438 137.172 60.9976 137.172 61.1002C137.275 61.2027 137.377 61.3565 137.479 61.5616C137.581 61.6641 137.632 61.8179 137.632 62.023C137.632 62.1255 137.632 62.2794 137.632 62.4844C137.735 62.6895 137.837 62.8433 137.939 62.9458V63.0997C138.041 63.2022 138.093 63.4073 138.093 63.7149C138.195 63.92 138.348 64.2276 138.553 64.6377C138.757 64.9453 138.962 65.2017 139.166 65.4067C139.882 66.1245 140.24 66.6885 140.24 67.0986C140.24 67.5088 140.342 67.9189 140.547 68.3291C140.854 68.6367 141.058 68.7905 141.16 68.7905C141.876 68.7905 142.234 64.3814 142.234 55.5632C142.234 50.8464 142.285 48.4368 142.388 48.3343C142.592 48.1292 142.694 47.6165 142.694 46.7962C142.694 45.8734 142.899 45.2069 143.308 44.7967C143.922 43.9764 144.228 41.7206 144.228 38.0293C144.228 36.6963 144.126 35.5171 143.922 34.4917C143.922 33.6714 144.024 33.0562 144.228 32.646C144.535 32.1334 145.046 29.6725 145.762 25.2634L145.609 24.6481C145.813 22.905 146.12 21.1619 146.529 19.4187C146.836 19.1111 146.989 18.4446 146.989 17.4192C146.989 16.2913 147.092 15.6761 147.296 15.5736C147.603 15.3685 147.807 15.1634 147.91 14.9583C147.91 14.3431 147.91 13.9842 147.91 13.8817C148.012 13.6766 148.114 13.4715 148.216 13.2665C149.546 11.5233 150.211 9.93401 150.211 8.49848C150.211 8.19087 150.108 8.03706 149.904 8.03706V7.88326C149.802 7.88326 149.75 7.83199 149.75 7.72945L149.597 7.57565C149.597 7.06296 150.824 6.75535 153.278 6.65281C153.687 6.55027 153.943 6.499 154.045 6.499C154.25 6.499 154.352 6.3452 154.352 6.03759C154.352 5.72997 154.812 5.57617 155.733 5.57617C156.653 5.57617 157.573 5.5249 158.494 5.42236C159.516 5.21729 160.539 5.11475 161.562 5.11475C162.891 5.11475 164.118 5.26855 165.243 5.57617C166.47 5.88378 167.135 6.19139 167.237 6.499C167.442 6.80662 167.595 7.06296 167.697 7.26803C167.902 7.37057 168.208 7.42184 168.618 7.42184C169.436 7.52438 169.845 7.88326 169.845 8.49848C169.845 9.11371 169.436 9.83147 168.618 10.6518C168.106 11.1645 167.748 11.7797 167.544 12.4974C167.339 13.2152 167.135 14.9071 166.93 17.573L166.623 21.2644L167.084 24.9557L166.47 30.1851L166.623 31.877L166.47 34.6455C166.47 36.7988 166.521 38.0805 166.623 38.4907C166.828 39.7211 166.93 42.3358 166.93 46.3348C166.93 50.5388 166.828 52.7434 166.623 52.9485C166.521 53.051 166.47 53.6149 166.47 54.6403V65.2529C166.47 70.2773 166.623 73.4047 166.93 74.6351C167.135 75.0453 167.288 75.763 167.39 76.7884C167.39 79.9671 167.442 83.2483 167.544 86.632C167.646 90.0157 167.799 92.1177 168.004 92.938C168.004 93.2457 168.157 93.7071 168.464 94.3223L168.311 95.0913C168.311 95.2964 168.464 95.5527 168.771 95.8604C169.384 97.0908 169.691 98.6801 169.691 100.628C169.691 101.346 169.691 102.013 169.691 102.628C169.794 103.141 169.896 103.551 169.998 103.858C170.203 104.166 170.305 104.884 170.305 106.012C170.305 106.934 170.203 107.396 169.998 107.396C169.896 107.396 169.794 107.652 169.691 108.165C169.691 108.575 169.691 109.036 169.691 109.549C169.691 110.164 169.742 110.677 169.845 111.087C169.845 111.395 169.487 111.754 168.771 112.164C168.055 112.471 167.544 112.779 167.237 113.087C167.032 113.394 166.93 113.856 166.93 114.471C166.93 116.214 166.879 117.188 166.777 117.393C166.675 117.598 166.368 117.957 165.856 118.47L165.703 118.777C165.499 119.085 165.345 119.239 165.243 119.239C164.22 119.239 163.709 119.752 163.709 120.777C163.709 121.392 163.607 121.7 163.402 121.7C163.198 121.7 162.993 122.059 162.789 122.776C162.584 123.494 162.38 123.853 162.175 123.853C162.073 123.853 161.971 123.904 161.868 124.007L161.101 124.622C160.999 124.622 160.488 124.263 159.567 123.545C159.465 123.751 159.312 124.058 159.107 124.468C159.005 124.776 158.698 124.93 158.187 124.93L157.88 124.776C157.164 124.776 156.653 124.725 156.346 124.622C153.074 124.417 150.517 123.494 148.677 121.854C146.836 120.213 145.916 119.341 145.916 119.239C146.018 118.931 146.171 118.675 146.376 118.47C145.864 118.47 145.353 118.06 144.842 117.239C144.228 116.829 143.768 116.317 143.461 115.701C142.95 115.189 142.592 114.779 142.388 114.471C142.285 114.163 142.183 114.009 142.081 114.009C141.979 114.009 141.927 113.958 141.927 113.856V112.933C141.314 112.318 141.007 110.933 141.007 108.78L140.7 108.165V107.857C140.598 107.652 140.496 107.293 140.393 106.781C140.291 106.268 140.24 105.499 140.24 104.474C140.138 104.063 139.984 103.807 139.78 103.704C139.678 103.602 139.524 103.141 139.32 102.32C139.115 101.397 138.808 100.782 138.399 100.475C138.093 100.167 137.939 99.9106 137.939 99.7055C137.939 99.3979 137.786 99.039 137.479 98.6289C137.172 98.1162 136.968 97.6035 136.865 97.0908C136.456 96.2705 136.201 95.7065 136.099 95.3989C136.099 94.9888 136.047 94.7837 135.945 94.7837C135.843 94.7837 135.741 94.4248 135.638 93.7071C135.536 92.9893 135.28 92.4766 134.871 92.169C134.565 91.7589 134.411 91.4512 134.411 91.2462C134.411 90.9386 134.36 90.7335 134.258 90.631C134.156 90.4259 134.053 90.2721 133.951 90.1695C133.235 89.4518 132.724 88.6827 132.417 87.8624C132.213 87.4523 132.11 86.9909 132.11 86.4782C132.008 86.3756 131.804 86.2218 131.497 86.0168C131.19 85.7092 130.985 85.4015 130.883 85.0939C130.883 84.7863 130.781 84.3762 130.576 83.8635C129.145 81.9153 128.429 80.531 128.429 79.7107H128.276C128.071 79.7107 127.713 79.0955 127.202 77.865C126.793 76.5321 126.333 75.4041 125.821 74.4813C125.412 73.5585 125.208 72.9432 125.208 72.6356C125.208 72.2255 125.054 71.7128 124.748 71.0976C124.441 70.4824 124.083 69.8671 123.674 69.2519C123.367 68.5341 123.06 68.0727 122.753 67.8676C122.447 67.56 122.293 67.355 122.293 67.2524C121.577 65.2017 121.015 64.1763 120.606 64.1763C120.504 64.1763 120.453 64.3814 120.453 64.7915C120.248 67.2524 120.095 69.7646 119.992 72.328C119.992 73.0458 119.941 73.5072 119.839 73.7123C119.737 73.9174 119.635 74.1737 119.532 74.4813L119.992 77.5574C119.992 77.865 119.89 78.1214 119.686 78.3265C119.583 78.429 119.532 78.8391 119.532 79.5569C119.225 81.7102 119.072 83.4021 119.072 84.6325C118.97 85.3503 118.868 85.8117 118.765 86.0168L118.459 92.0152C118.459 101.038 118.254 106.576 117.845 108.626C118.152 110.062 118.356 111.6 118.459 113.24C118.561 114.881 118.612 117.393 118.612 120.777L118.152 122.776C118.561 124.417 118.765 126.417 118.765 128.775C118.561 135.03 118.356 138.362 118.152 138.772C117.947 139.182 117.64 139.541 117.231 139.849C116.822 140.157 116.567 140.464 116.464 140.772C116.362 141.079 116.311 141.592 116.311 142.31C116.311 143.54 116.055 144.258 115.544 144.463C115.135 144.668 114.931 145.591 114.931 147.232C114.828 147.437 114.521 147.539 114.01 147.539C113.601 147.539 113.345 147.59 113.243 147.693C113.141 147.796 113.039 148.001 112.936 148.308C112.936 148.616 112.476 148.77 111.556 148.77C111.147 148.77 110.431 148.513 109.408 148.001C109.204 148.001 109.051 148.103 108.948 148.308C108.846 148.513 108.693 148.616 108.488 148.616L106.954 148.308C106.545 148.308 106.238 148.411 106.034 148.616C105.829 148.923 105.471 149.129 104.96 149.231C103.733 149.744 102.813 150 102.199 150ZM148.983 18.1883C149.188 18.1883 149.29 18.0857 149.29 17.8807C149.29 17.6756 149.188 17.573 148.983 17.573C148.779 17.573 148.677 17.6756 148.677 17.8807C148.677 18.0857 148.779 18.1883 148.983 18.1883Z"/>
    <path d="M74.8957 141.522C73.2107 136.379 71.3571 131.264 69.335 126.262C64.7011 114.88 62.0331 103.021 61.0221 90.7964C60.9379 89.869 61.9489 88.2391 62.8195 87.9299C66.7232 86.5529 70.7674 85.5131 74.8957 84.3328C74.5306 84.0798 74.0532 83.6864 73.4915 83.4616C69.2789 81.7192 65.0101 80.0611 60.8255 78.2626C60.0953 77.9534 59.0843 77.2509 59.0281 76.6888C58.4945 70.7029 57.6239 64.6889 57.8766 58.7312C58.2137 50.9186 61.3872 43.3027 59.6179 35.2372C58.3541 29.5043 57.3711 23.7432 53.0181 19.2187C51.9228 18.0665 50.659 15.9869 50.996 14.7222C51.9509 11.1251 50.1254 9.46702 47.4293 8.34291C44.7051 7.19069 41.8405 6.31951 38.9759 5.50453C33.8646 4.04318 30.8596 5.2516 28.5005 10.0291C25.8606 15.3967 23.0522 20.7362 21.1143 26.3849C13.5597 48.6142 9.76831 71.6584 6.73521 94.8994C5.07824 107.546 3.02806 120.136 0.69707 132.67C-0.117374 137.082 -1.2688 140.847 4.15147 142.983C6.81947 144.023 9.15045 145.934 11.8185 146.889C15.7503 148.295 18.9519 145.653 19.008 141.494C19.0923 137.278 19.0923 133.063 19.4855 128.876C20.5527 117.578 21.8446 106.281 23.0241 94.9837C23.3892 91.6114 24.7372 89.6723 28.5848 90.403C30.0732 90.684 31.674 90.5716 33.2187 90.4873C39.1163 90.2343 45.0141 89.9252 51.2207 89.6161C51.979 98.5247 52.9619 107.152 53.4113 115.808C53.8325 123.761 53.6359 131.742 53.8606 139.695C53.8887 140.847 54.4785 142.534 55.3491 143.039C58.9439 145.147 62.6229 147.199 66.5266 148.632C68.3802 149.306 71.0482 149.194 72.7894 148.323C75.3451 147.03 75.7382 144.135 74.8676 141.522H74.8957ZM27.3771 78.9932C32.4042 65.7287 37.1505 53.223 42.2618 39.7618C44.677 52.7453 46.9519 64.8295 49.2548 77.3071C41.8686 77.8691 34.988 78.4031 27.3771 78.9932Z"/>
</svg>
