<svg width="646" height="150" viewBox="0 0 646 150" fill="#32468A" xmlns="http://www.w3.org/2000/svg">
    <path d="M590.627 139.843C581.085 139.953 571.703 138.648 562.683 135.717C559.325 134.628 556.278 132.36 553.385 130.242C549.115 127.118 544.767 123.965 541.114 120.216C538.532 117.567 536.907 113.972 535.158 110.649C534.71 109.797 535.333 108.359 535.571 107.214C536.517 102.657 538.142 98.1336 538.357 93.5435C538.833 83.2683 542.49 73.9221 545.78 64.3714C549.393 53.8971 555.486 44.7611 561.324 35.5035C562.983 32.8711 563.934 30.4986 564.059 27.4404C564.127 25.8698 565.389 23.8623 566.748 22.9111C571.68 19.4603 577.105 17.7901 583.401 18.8741C586.521 19.4105 589.862 18.7192 593.101 18.6086C599.715 18.3819 606.351 17.7735 612.942 18.0888C618.299 18.3431 623.622 19.6317 628.922 20.6382C630.241 20.8871 631.572 21.6447 632.636 22.4853C634.369 23.8457 634.04 25.6707 632.427 27.4846C631.538 28.4856 631.226 29.9677 630.564 31.1844C630.043 32.1411 629.601 33.4297 628.746 33.8721C626.266 35.1606 623.542 35.9957 621.006 37.1958C617.297 38.9544 613.707 40.7406 610.587 43.6385C606.634 47.3051 601.459 49.3568 595.949 49.3402C583.424 49.3015 585.31 49.6941 578.832 59.4274C576.963 62.2367 576.816 66.1853 576.057 69.6473C575.65 71.4999 576.652 72.2797 578.628 72.2354C582.586 72.1414 586.589 71.8704 590.502 72.3073C594.262 72.7221 598.073 73.5682 601.595 74.8899C605.7 76.4329 606.385 79.7012 604.811 83.7107C604.013 85.7403 604.109 88.1736 604.137 90.4189C604.16 92.5646 603.339 94.196 601.374 94.7325C597.082 95.9104 592.744 97.116 588.339 97.6414C585.049 98.034 581.618 97.4423 578.26 97.1824C574.959 96.9224 574.449 97.2874 574.426 100.561C574.398 104.339 574.557 108.127 574.364 111.893C574.228 114.553 575.633 115.145 577.824 114.896C583.962 114.188 590.117 113.563 596.215 112.595C605.881 111.063 615.456 108.901 625.162 107.762C630.247 107.164 635.643 106.622 640.603 109.498C645.139 112.131 646.696 115.145 645.722 120.232C645.309 122.384 646.152 124.961 645.235 126.769C644.108 128.987 642.007 131.84 639.861 132.283C626.062 135.136 612.15 137.465 598.248 139.798C595.774 140.213 593.163 139.859 590.621 139.859L590.627 139.843Z"/>
    <path d="M455.755 149.504C455.557 149.504 455.457 149.404 455.457 149.205C455.457 149.106 455.109 148.957 454.413 148.758C453.817 148.559 453.17 148.161 452.474 147.565C451.878 147.068 451.53 146.62 451.43 146.222C451.43 145.924 451.281 145.477 450.983 144.88C449.79 142.593 449.094 141.201 448.895 140.704C448.696 140.107 448.447 138.615 448.149 136.229C448.149 135.831 448.249 135.583 448.447 135.483L448.746 133.246C448.945 133.047 449.044 132.898 449.044 132.798C449.044 132.699 448.945 132.649 448.746 132.649C448.547 132.55 448.447 132.252 448.447 131.754C448.348 131.754 448.298 131.705 448.298 131.605H448.149C448.05 131.605 448 131.506 448 131.307L448.149 131.158C448.249 131.058 448.298 130.71 448.298 130.114C448.298 129.517 448.547 128.97 449.044 128.473C448.945 128.374 448.845 128.324 448.746 128.324C448.646 128.224 448.547 128.025 448.447 127.727C448.447 127.429 448.447 127.081 448.447 126.683C448.447 125.39 448.547 124.495 448.746 123.998C448.945 123.501 449.044 123.054 449.044 122.656C449.044 122.159 449.193 121.711 449.491 121.314C449.79 120.916 449.939 120.568 449.939 120.269C449.74 119.275 449.641 118.281 449.641 117.286V114.005C449.839 114.005 449.939 112.663 449.939 109.978C449.939 106.696 449.989 104.807 450.088 104.31C450.187 103.713 450.287 102.967 450.386 102.073V95.8081L450.834 90.886L451.878 82.235C452.375 80.4451 452.623 78.1581 452.623 75.3739C453.021 71.6947 453.419 68.5625 453.817 65.9771C454.015 65.0822 454.115 64.1375 454.115 63.1432C454.214 62.0494 454.314 60.4087 454.413 58.2211C454.513 57.4256 454.562 56.5306 454.562 55.5363C454.861 48.5757 455.059 44.7474 455.159 44.0514C455.358 42.4604 455.557 40.9191 455.755 39.4276C455.954 37.8366 456.054 36.9914 456.054 36.8919C456.054 36.6931 456.103 36.5439 456.203 36.4445C456.203 35.9473 456.103 35.4501 455.905 34.9529C456.004 34.7541 456.103 34.5055 456.203 34.2072C456.402 33.9088 456.65 32.7156 456.949 30.6274L457.098 28.0918C457.098 26.6003 457.098 25.5065 457.098 24.8104C457.197 24.1144 457.297 23.6669 457.396 23.468C457.595 23.2691 457.744 22.9211 457.843 22.4239L457.993 13.3255H459.037C459.733 13.3255 460.18 13.2758 460.379 13.1763C460.578 12.9775 460.975 12.878 461.572 12.878C462.467 12.878 463.61 12.9775 465.002 13.1763L469.029 14.0713C469.427 14.0713 469.626 14.1707 469.626 14.3696L469.327 16.1594C469.327 16.4577 469.477 16.6069 469.775 16.6069C470.073 16.6069 470.222 16.7063 470.222 16.9052L470.073 17.5018C470.073 18.4962 470.471 19.4906 471.266 20.4849C471.565 21.0815 471.763 21.4793 471.863 21.6782C472.062 21.7776 472.211 21.9267 472.31 22.1256C472.31 23.4183 472.509 24.4127 472.907 25.1087C473.305 25.7053 473.503 26.1528 473.503 26.4511C473.404 26.65 473.354 26.9483 473.354 27.346C473.354 27.9427 473.454 28.6884 473.653 29.5834C473.851 30.3788 474.001 30.876 474.1 31.0749C474.199 31.2738 474.349 31.5721 474.547 31.9698C474.846 32.2681 475.194 32.815 475.591 33.6105C476.089 34.406 476.536 35.2015 476.934 35.997L479.171 40.77L480.662 43.3056V43.9022C480.662 44.3994 480.961 45.0955 481.557 45.9904C481.756 46.3881 482.005 46.587 482.303 46.587V47.0345L482.75 48.0785C482.949 48.2774 483.098 48.4763 483.198 48.6752C483.297 48.874 483.397 49.6695 483.496 51.0616C483.695 51.1611 483.844 51.36 483.943 51.6583C484.142 51.8571 484.292 52.1057 484.391 52.404C484.49 52.6029 484.54 52.8018 484.54 53.0007C484.64 53.1995 484.739 53.3984 484.838 53.5973C485.037 53.6967 485.335 54.0447 485.733 54.6414C486.628 56.3318 487.125 57.4753 487.225 58.0719C487.424 58.5691 487.573 58.9668 487.672 59.2651C487.772 59.464 487.871 59.6132 487.97 59.7126H487.821C488.318 60.6075 488.666 61.2042 488.865 61.5025C489.164 61.8008 489.313 62.0494 489.313 62.2482C489.313 62.4471 489.362 62.646 489.462 62.8449C489.661 63.0437 489.76 63.1929 489.76 63.2923C489.86 63.3918 489.959 63.5409 490.058 63.7398C490.158 63.8392 490.208 63.9884 490.208 64.1873C490.208 64.2867 490.208 64.4359 490.208 64.6347C490.307 64.8336 490.406 64.9828 490.506 65.0822V65.2313C490.605 65.3308 490.655 65.5296 490.655 65.828C490.754 66.0268 490.904 66.3251 491.102 66.7229C491.301 67.0212 491.5 67.2698 491.699 67.4687C492.395 68.1647 492.743 68.7116 492.743 69.1094C492.743 69.5071 492.842 69.9049 493.041 70.3026C493.34 70.6009 493.538 70.7501 493.638 70.7501C494.334 70.7501 494.682 66.4743 494.682 57.9228C494.682 53.3487 494.732 51.0119 494.831 50.9125C495.03 50.7136 495.129 50.2164 495.129 49.4209C495.129 48.526 495.328 47.8797 495.726 47.4819C496.322 46.6864 496.621 44.4988 496.621 40.9191C496.621 39.6264 496.521 38.4829 496.322 37.4886C496.322 36.6931 496.422 36.0964 496.621 35.6987C496.919 35.2015 497.416 32.815 498.112 28.5393L497.963 27.9427C498.162 26.2522 498.46 24.5618 498.858 22.8714C499.156 22.5731 499.305 21.9267 499.305 20.9324C499.305 19.8386 499.405 19.242 499.604 19.1425C499.902 18.9437 500.101 18.7448 500.2 18.5459C500.2 17.9493 500.2 17.6013 500.2 17.5018C500.3 17.3029 500.399 17.1041 500.498 16.9052C501.791 15.2148 502.437 13.6735 502.437 12.2814C502.437 11.9831 502.338 11.8339 502.139 11.8339V11.6848C502.04 11.6848 501.99 11.6351 501.99 11.5356L501.841 11.3865C501.841 10.8893 503.034 10.591 505.42 10.4915C505.818 10.3921 506.066 10.3424 506.166 10.3424C506.365 10.3424 506.464 10.1932 506.464 9.89493C506.464 9.59662 506.912 9.44747 507.806 9.44747C508.701 9.44747 509.596 9.39775 510.491 9.29831C511.485 9.09944 512.48 9 513.474 9C514.766 9 515.96 9.14916 517.053 9.44747C518.246 9.74578 518.893 10.0441 518.992 10.3424C519.191 10.6407 519.34 10.8893 519.44 11.0882C519.638 11.1876 519.937 11.2373 520.334 11.2373C521.13 11.3368 521.528 11.6848 521.528 12.2814C521.528 12.878 521.13 13.5741 520.334 14.3696C519.837 14.8668 519.489 15.4634 519.29 16.1594C519.092 16.8555 518.893 18.4962 518.694 21.0815L518.396 24.6613L518.843 28.241L518.246 33.3122L518.396 34.9529L518.246 37.6377C518.246 39.7259 518.296 40.9688 518.396 41.3666C518.594 42.5598 518.694 45.0954 518.694 48.9735C518.694 53.0504 518.594 55.1883 518.396 55.3871C518.296 55.4866 518.246 56.0335 518.246 57.0278V67.3195C518.246 72.1919 518.396 75.2247 518.694 76.4179C518.893 76.8157 519.042 77.5117 519.141 78.5061C519.141 81.5886 519.191 84.7706 519.29 88.052C519.39 91.3334 519.539 93.3719 519.738 94.1674C519.738 94.4657 519.887 94.9131 520.185 95.5098L520.036 96.2555C520.036 96.4544 520.185 96.703 520.484 97.0013C521.08 98.1945 521.378 99.7358 521.378 101.625C521.378 102.321 521.378 102.967 521.378 103.564C521.478 104.061 521.577 104.459 521.677 104.757C521.876 105.056 521.975 105.752 521.975 106.846C521.975 107.74 521.876 108.188 521.677 108.188C521.577 108.188 521.478 108.436 521.378 108.934C521.378 109.331 521.378 109.779 521.378 110.276C521.378 110.873 521.428 111.37 521.528 111.768C521.528 112.066 521.18 112.414 520.484 112.812C519.788 113.11 519.29 113.408 518.992 113.707C518.793 114.005 518.694 114.452 518.694 115.049C518.694 116.739 518.644 117.684 518.545 117.883C518.445 118.082 518.147 118.43 517.65 118.927L517.501 119.225C517.302 119.524 517.153 119.673 517.053 119.673C516.059 119.673 515.562 120.17 515.562 121.164C515.562 121.761 515.462 122.059 515.264 122.059C515.065 122.059 514.866 122.407 514.667 123.103C514.468 123.799 514.269 124.147 514.07 124.147C513.971 124.147 513.872 124.197 513.772 124.297L513.026 124.893C512.927 124.893 512.43 124.545 511.535 123.849C511.436 124.048 511.286 124.346 511.088 124.744C510.988 125.042 510.69 125.192 510.193 125.192L509.894 125.042C509.198 125.042 508.701 124.993 508.403 124.893C505.221 124.694 502.736 123.799 500.946 122.208C499.156 120.617 498.261 119.772 498.261 119.673C498.361 119.375 498.51 119.126 498.709 118.927C498.212 118.927 497.714 118.529 497.217 117.734C496.621 117.336 496.173 116.839 495.875 116.242C495.378 115.745 495.03 115.347 494.831 115.049C494.732 114.751 494.632 114.602 494.533 114.602C494.433 114.602 494.384 114.552 494.384 114.452V113.557C493.787 112.961 493.489 111.618 493.489 109.53L493.19 108.934V108.635C493.091 108.436 492.992 108.088 492.892 107.591C492.793 107.094 492.743 106.348 492.743 105.354C492.644 104.956 492.494 104.708 492.296 104.608C492.196 104.509 492.047 104.061 491.848 103.266C491.649 102.371 491.351 101.774 490.953 101.476C490.655 101.178 490.506 100.929 490.506 100.73C490.506 100.432 490.357 100.084 490.058 99.6861C489.76 99.1889 489.561 98.6917 489.462 98.1945C489.064 97.399 488.816 96.8521 488.716 96.5538C488.716 96.1561 488.666 95.9572 488.567 95.9572C488.468 95.9572 488.368 95.6092 488.269 94.9131C488.169 94.2171 487.921 93.7199 487.523 93.4216C487.225 93.0238 487.076 92.7255 487.076 92.5267C487.076 92.2284 487.026 92.0295 486.926 91.93C486.827 91.7312 486.728 91.582 486.628 91.4826C485.932 90.7865 485.435 90.0407 485.137 89.2453C484.938 88.8475 484.838 88.4 484.838 87.9029C484.739 87.8034 484.54 87.6543 484.242 87.4554C483.943 87.1571 483.745 86.8588 483.645 86.5605C483.645 86.2622 483.546 85.8644 483.347 85.3672C481.955 83.4779 481.259 82.1355 481.259 81.3401H481.11C480.911 81.3401 480.563 80.7434 480.066 79.5502C479.668 78.2575 479.221 77.1637 478.723 76.2688C478.326 75.3739 478.127 74.7772 478.127 74.4789C478.127 74.0812 477.978 73.584 477.679 72.9874C477.381 72.3908 477.033 71.7941 476.635 71.1975C476.337 70.5015 476.039 70.054 475.741 69.8551C475.442 69.5568 475.293 69.358 475.293 69.2585C474.597 67.2698 474.05 66.2754 473.653 66.2754C473.553 66.2754 473.503 66.4743 473.503 66.872C473.305 69.2585 473.155 71.6947 473.056 74.1806C473.056 74.8767 473.006 75.3241 472.907 75.523C472.807 75.7219 472.708 75.9705 472.609 76.2688L473.056 79.2519C473.056 79.5502 472.957 79.7988 472.758 79.9977C472.658 80.0971 472.609 80.4948 472.609 81.1909C472.31 83.2791 472.161 84.9198 472.161 86.113C472.062 86.8091 471.962 87.2565 471.863 87.4554L471.565 93.2724C471.565 102.023 471.366 107.392 470.968 109.381C471.266 110.773 471.465 112.265 471.565 113.856C471.664 115.447 471.714 117.883 471.714 121.164L471.266 123.103C471.664 124.694 471.863 126.633 471.863 128.92C471.664 134.986 471.465 138.218 471.266 138.615C471.067 139.013 470.769 139.361 470.371 139.66C469.974 139.958 469.725 140.256 469.626 140.554C469.526 140.853 469.477 141.35 469.477 142.046C469.477 143.239 469.228 143.935 468.731 144.134C468.333 144.333 468.134 145.228 468.134 146.819C468.035 147.018 467.737 147.117 467.239 147.117C466.842 147.117 466.593 147.167 466.494 147.266C466.394 147.366 466.295 147.565 466.195 147.863C466.195 148.161 465.748 148.311 464.853 148.311C464.455 148.311 463.759 148.062 462.765 147.565C462.566 147.565 462.417 147.664 462.318 147.863C462.218 148.062 462.069 148.161 461.87 148.161L460.379 147.863C459.981 147.863 459.683 147.963 459.484 148.161C459.285 148.46 458.937 148.659 458.44 148.758C457.247 149.255 456.352 149.504 455.755 149.504ZM501.244 21.6782C501.443 21.6782 501.542 21.5787 501.542 21.3798C501.542 21.181 501.443 21.0815 501.244 21.0815C501.045 21.0815 500.946 21.181 500.946 21.3798C500.946 21.5787 501.045 21.6782 501.244 21.6782Z"/>
    <path d="M418.217 53.6723C418.217 60.8538 417.927 66.9014 418.305 72.9199C418.653 78.5895 419.641 84.201 420.397 89.8415C421.007 94.5516 421.675 99.2327 422.344 103.914C423.244 110.397 424.349 116.881 424.959 123.394C425.308 127.232 425.017 131.157 424.755 135.053C424.407 140.17 420.426 140.984 414.905 140.345C410.488 139.821 406.885 137.524 404.444 133.599C403.252 131.68 401.625 130.052 400.318 128.22C399.853 127.552 399.417 126.679 399.417 125.894C399.359 119.498 399.417 113.101 399.417 106.705C399.417 94.9878 399.649 83.2415 399.3 71.5243C399.097 64.8953 398.08 58.2953 397.121 51.7243C396.308 46.142 395.029 40.6177 394.07 35.0354C393.721 33.0292 394.68 31.9243 396.831 31.4301C403.63 29.9182 408.657 32.2151 413.045 37.4195C417.433 42.5948 419.031 48.2644 418.246 53.6433L418.217 53.6723Z"/>
    <path d="M398 7.72895C398.014 4.90027 400.474 2.04324 403.596 1.22156C406.578 0.437646 409.84 1.76463 411.434 4.71609C412.846 7.32283 413.956 10.0901 415.219 12.7771C416.016 14.4725 415.911 16.3142 414.393 17.2209C413.149 17.967 411.324 17.8867 409.744 17.9387C408.62 17.9764 407.429 17.7876 406.362 17.4287C405.123 17.0131 403.946 16.3756 402.818 15.7097C400.728 14.4725 397.986 9.83512 398 7.72423V7.72895Z"/>
    <path d="M276.4 143.6C275.8 143.6 275.8 144.6 275.8 144.8H275.6C275.2 144.2 274 143.8 273.8 143.2V144.4H273.4C273.4 144.2 272.8 141.8 272.4 141.8C272.2 141.8 271.6 142.2 271.4 142.4C271.4 142.2 271 140.8 271 140.6C269 116.6 268 92.6 268 68.6C268 58 268.2 47.4 267.8 36.8C267.8 36.2 267 31.8 267 31.4C267 30.4 267.4 24.8 267.4 24.2C267.4 23 268.2 18 269.6 17.8C271.6 17.4 271 18.8 271.8 19.4L273 16.8C273 16.6 273.4 16.4 273.4 16.4C273.6 17.2 274.4 17.2 275 17.2C277.2 17.2 280 14.4 282.2 14.4H282.4C282.6 14.4 284.2 14.8 284.6 14.8C284.6 14.8 285.4 14.2 285.6 14.2H285.8C286.4 14.2 289.8 14.4 290 14.8C290.2 15 290.4 16 290.6 16H291.6C291.8 16 292.6 16.6 292.6 16.8C293.2 17.2 295 18.8 295.4 19.4C296.4 18.8 297.6 22.4 298.4 22.4H298.6C298.6 22.2 298.4 21.8 298.4 21.6L296 18.2V17.4C299 19.8 300.6 24.4 302.6 27.4C305.2 32.2 308.2 36.6 310.6 41.4C312.8 45 314.2 49.2 316.2 53C316.4 52.8 316.6 52.2 316.6 52.2C318.8 46.4 320.6 41.2 323.2 35.4C324.4 33.4 326.8 28.6 327.2 28.4L327.4 27.8V28.4C326.6 30.2 322.8 38.4 321.8 40.2C320.2 44.2 317.2 49 317.2 53.4V54L318.2 52.6C318.4 51.8 320.8 45 321.2 44.4C321.8 42.6 325.6 34.8 326.2 33.2C330 28.4 332 23 336.2 18.2C337.4 16.8 337.2 16 336.8 14V13.8C339.4 10.4 344.8 11.8 348.4 10.8L348.8 10.4C349.2 10.2 350 10 350.2 10C350.4 10 351 10.2 351.4 10.4C354.8 11.8 354.2 10.2 355.6 13.8C355.6 14 355.8 14 355.8 14.2H356.2C356.4 14.2 356.4 13.8 356.4 13.8V11.2C358.4 12 360.6 25.2 362 25.8V24.6C363.4 25 364.2 29.8 364.4 31.6V32C364.4 32.8 365.4 38 365.4 38.8L366.4 45.8L367 47.8C368.6 62.2 369 76.8 368.8 91.2L369.6 90.2C369.4 97.4 369.4 104.8 370 111.8C370 112.6 370.8 118.6 370.8 119.4V121.6C370.8 123.2 370.6 130.4 369.6 131.4C369.4 131.4 368 130.8 367.8 131.8C367.6 132 367.4 133.8 367.4 134.2C366.2 133.2 365.2 137 364.8 137.2C364.6 137.6 363 139.2 362.4 139.4C362 139.2 357.2 141.4 357 142.4C347.4 142 345.8 134.8 345 127.2C344.8 124 343.8 114.8 343.8 114.2V81.6L344.2 81.2L343.8 81C343.8 81 343.2 68.2 342.8 63V60C342.6 59.2 342 52.2 341.6 50C341.4 47.6 341.2 37.6 339.8 36.8L338.6 39C336.4 44.6 332.4 52.4 330.8 58.4C330.4 59.6 328.6 68.6 328.2 69.6C327.2 73.6 325.8 76.6 325.8 80.6H325.6C325.6 82.8 326.4 85 326.4 87.2C326.4 89.2 325.8 89.2 324.6 90.2C323.8 90.8 323.8 92 323 92.6C322.8 92.6 322.2 92.8 322.2 92.8H320.8C320 93.4 320.6 94.8 318.8 94.8C317.6 94.8 316.8 93.8 315.8 93.2C313.2 91.6 307.6 85.4 307.6 82.4L295.6 57C295.6 57 295.6 56.6 295.4 56.6V63.2C295.4 81.4 296.6 100 296.6 118.2V125.4C296.8 127.2 295.2 127.2 294.2 128.8L294 130.4C292.8 133.8 290.4 132.8 289.8 137.2L289 136.4H288.6C288.6 136.8 288.4 137.8 288.4 138C288.2 138 287.2 138.2 287 138.4C287 138.4 286.6 139.6 286.4 139.8C285.8 140.6 284.6 140.2 284.6 141.4C282 140.4 282.6 142.8 280.6 142.8H280.4L279.6 142.4C279.2 142.4 279.4 143.4 279 143.6C278.8 143.6 278 143.8 277.8 144C277.8 144 277.6 144.8 277.4 145H277L276.4 143.6ZM269.4 95.2C269.4 99.8 269.8 103.2 270.4 108.2L270.8 107.8L270 92.6L269.6 92.8C269.4 92.8 269.4 94.6 269.4 95.2ZM269.4 82C269.4 83.6 269.4 90.2 270 91.6V76.8L269.6 76C269.4 76.8 269.4 81.2 269.4 82ZM270.4 110.8V111.6C270.4 112.4 270.8 117 270.8 117.8C271 117.6 271 117.2 271 117.2V116.8C271 115.8 271 111.6 270.8 110.8H270.4ZM297.2 68.6C297.4 70 297.4 76.6 297.2 78C297 79.4 297 67.2 297.2 68.6ZM297.6 88.4C297.8 89.8 297.8 95.6 297.6 97C297.4 98.2 297.4 87 297.6 88.4ZM332.2 19.8V20.2L330.4 23.2L329.8 23.8C330.4 22.6 331.2 20.4 332.2 19.8ZM298 100C298.2 100.6 298.2 103.4 298 104.2C297.8 104.6 297.8 99.4 298 100ZM344.2 130.4V130.2C344.4 130.2 344.6 129.8 344.6 129.8C344.8 130 344.8 131.4 345 131.8V132H344.6C344.6 132 344.4 131 344.2 130.4ZM362.8 31.4V32.8H363.4V31.4H362.8ZM361.8 20.8C362 21.6 362.2 22.6 362.2 23.4H361.8V20.8ZM368.8 91.6C368.4 91.6 368.4 92.6 368.8 92.6C369.4 92.6 369.4 91.6 368.8 91.6ZM317.8 91.6C317.2 91.6 317.2 92.6 317.8 92.6C318.2 92.6 318.2 91.6 317.8 91.6ZM344.2 127.8C344.6 128.2 344.6 129.2 344.2 129.4C344 129.6 344 127.6 344.2 127.8ZM365.2 79C365 78.6 365 82 365.2 81.6C365.4 81.2 365.4 79.6 365.2 79ZM363.2 39.4C363.2 39.8 363.2 40.2 363.6 40.2V38.8C363.2 39 363.2 39.2 363.2 39.4ZM271 92.6V94.2C271.2 94.2 271.4 94.2 271.4 94C271.4 93.8 271.2 92.8 271 92.6ZM269.4 62.2C269 62 269 63.8 269.4 63.8V62.2ZM366.4 121.6C365.8 121.6 365.8 122.4 366.4 122.4C366.6 122.4 366.6 121.6 366.4 121.6ZM302 41.4C301.6 41.4 301.6 42 302 42C302.6 42 302.6 41.4 302 41.4ZM299 22.8C298.6 22.8 298.6 23.4 299 23.4C299.6 23.4 299.6 22.8 299 22.8ZM361.4 136.4C361 136.4 361 137.2 361.4 137.2C361.8 137.2 361.8 136.4 361.4 136.4ZM363.6 34.8C363.2 34.8 363.2 35.4 363.2 35.8H363.6V34.8ZM300.2 24.8C300 24.8 300 25.8 300.2 25.8C300.6 25.8 300.6 24.8 300.2 24.8ZM315.2 54.4V55.6H315.6V55C315.6 55 315.2 54.6 315.2 54.4ZM362.2 26.4C362 26.2 362 28.2 362.2 27.8C362.4 27.6 362.4 26.6 362.2 26.4ZM297.2 80.2C297.4 80.4 297.4 81.4 297.2 81.6C297 81.8 297 79.8 297.2 80.2ZM284.2 128.4C283.8 128.4 283.8 129 284.2 129C284.6 129 284.6 128.4 284.2 128.4ZM334.2 16.8C334.6 16.8 334.6 17.4 334.2 17.4C333.8 17.4 333.8 16.8 334.2 16.8ZM343.8 124.2C344.2 124.2 344.2 124.8 343.8 124.8C343.4 124.8 343.4 124.2 343.8 124.2ZM298 98.2C298.4 98.2 298.4 98.8 298 98.8C297.6 98.8 297.6 98.2 298 98.2ZM269.2 71.2C269.2 71.4 269.2 71.8 269.6 72V71.6C269.6 71.2 269.6 71 269.4 71C269.4 71 269.2 71 269.2 71.2ZM297.2 82.6H297.6L297.2 84V82.6ZM365.2 93.2C364.8 93.2 364.8 94 365.2 94C365.4 94 365.4 93.2 365.2 93.2ZM365.2 95.8C364.8 95.8 364.8 96.6 365.2 96.6C365.4 96.6 365.4 95.8 365.2 95.8ZM364 37.2C364 37.2 363.6 36.8 363.6 36.6V37.6H364V37.2ZM363.4 43.2C363 43.2 363 44 363.4 44C363.6 43.8 363.6 43.4 363.4 43.2ZM297.2 66.6C297.6 66.6 297.6 67.4 297.2 67.4C297 67.4 297 66.6 297.2 66.6ZM328.8 24.6C329.2 24.6 329.2 25.4 328.8 25.4C328.6 25.4 328.6 24.6 328.8 24.6ZM363.6 72.6C363.4 72.6 363.4 73.4 363.6 73.4C364 73.4 364 72.6 363.6 72.6ZM297.2 64.4C297.6 64.4 297.6 65.2 297.2 65.2C297 65.2 297 64.4 297.2 64.4ZM297.2 78.6C297.6 78.6 297.6 79.4 297.2 79.4C297 79.4 297 78.6 297.2 78.6ZM269.6 73.8C269.4 73.8 269.2 74.2 269.2 74.6H269.6V73.8ZM273.8 92.6C273.4 92.6 273.4 93.2 273.8 93.2C274 93.2 274 92.6 273.8 92.6ZM365.2 105.2C364.8 105.2 364.8 105.8 365.2 105.8C365.4 105.8 365.4 105.2 365.2 105.2ZM370.8 111.2C371 111.2 371 111.8 370.8 111.8C370.4 111.8 370.4 111.2 370.8 111.2ZM282.6 120.2C282.4 120.2 282.4 120.8 282.6 120.8C283 120.8 283 120.2 282.6 120.2ZM302.8 29.8C302.6 29.8 302.6 30.4 302.8 30.4C303.2 30.4 303.2 29.8 302.8 29.8ZM297.2 85C297.6 85.2 297.6 85.4 297.6 85.6H297.2V85ZM343.4 122.8C343.6 123 343.6 124 343.4 124.2V122.8ZM365.2 88.6C365 88.6 365 89.6 365.2 89.6C365.4 89.4 365.4 88.8 365.2 88.6ZM278.2 137.2V137.6H278.6V137.2H278.2ZM363.4 33.4C363 33.4 363 34 363.4 33.8C363.6 33.8 363.6 33.4 363.4 33.4ZM362.4 29C362.2 29 362.2 29.4 362.4 29.4C362.8 29.4 362.8 29 362.4 29ZM353.6 115.2C353.6 115.4 353.8 115.6 354 115.6V115.2C353.8 115.2 353.6 115 353.6 115V115.2ZM365.8 133.4L366.4 133.8V133.4H365.8ZM290 111.8L290.6 112.2V111.8H290ZM269.4 58C269 58 269 58.6 269.4 58.4V58ZM333.4 18.2C333.4 18.4 333.2 18.8 333.2 18.6C332.8 18.6 333.2 18 333.4 18.2ZM371 115.2C371.2 115.4 371.2 116.2 371 116.4V115.2ZM269.4 67V68L269.6 67.4L269.4 67ZM365.2 91.6C365 91.6 365 92.2 365.2 92.2C365.4 92 365.4 91.8 365.2 91.6ZM351.4 102.6C351.2 102.6 351 102.8 351 102.8H351.4L351.8 102.6H351.4ZM288.4 135V135.4H288.6V135H288.4ZM297.2 63C297.4 63 297.4 63.4 297.2 63.4C297 63.4 297 63 297.2 63ZM365.2 102.8C365 102.8 365 103.2 365.2 103.2C365.4 103.2 365.4 102.8 365.2 102.8ZM283 63C283 62.8 282.6 62.8 282.6 63C282.6 63.2 283 63.2 283 63ZM270.4 109.6C270.2 109.6 270.2 110 270.4 110C270.6 110 270.6 109.8 270.4 109.6ZM303.6 62C303.4 61.8 303.4 62.2 303.6 62.2C303.8 62.2 303.8 62 303.6 62ZM343.8 125.8C344 125.8 344 126 343.8 126C343.6 126 343.6 125.6 343.8 125.8ZM269.4 69.4V69.6H269.6L269.4 69.4Z"/>
    <path d="M186.6 141.4C186.4 141.4 186.15 141.1 185.85 140.5C185.55 140 185.25 139.65 184.95 139.45C184.65 139.25 183.75 138.9 182.25 138.4C181.95 138.3 181.8 138.2 181.8 138.1C181.8 138 181.75 137.95 181.65 137.95C181.65 137.85 181.55 137.8 181.35 137.8C180.75 137.8 180.15 137.65 179.55 137.35C179.05 137.05 178.8 136.7 178.8 136.3C178.8 135.9 178.75 135.65 178.65 135.55C178.55 135.45 178.45 135.35 178.35 135.25C178.35 135.05 178.35 134.9 178.35 134.8C178.35 134.6 178.3 134.45 178.2 134.35C178.2 134.25 178.1 134.15 177.9 134.05C177.7 133.95 177.6 133.3 177.6 132.1C177.6 130.9 177.5 130.3 177.3 130.3C177.2 130.3 177.1 130.25 177 130.15C177 129.95 177 129.8 177 129.7C177 129.5 176.95 129.35 176.85 129.25C176.85 129.15 176.8 129.05 176.7 128.95C176.7 128.75 176.65 128.55 176.55 128.35L176.7 125.95C176.6 125.75 176.45 125.65 176.25 125.65C175.95 125.35 175.8 124.85 175.8 124.15C175.7 123.95 175.65 123.8 175.65 123.7C175.65 123.6 175.6 123.55 175.5 123.55C175.4 123.45 175.3 123.35 175.2 123.25C175.2 122.75 175.15 122.45 175.05 122.35C175.05 122.15 175 121.95 174.9 121.75C174.6 121.15 174.4 120.3 174.3 119.2C174.2 118 174.1 117.3 174 117.1C174.1 117 174.2 116.95 174.3 116.95C174.4 116.85 174.45 116.6 174.45 116.2C174.35 115.6 174.3 114.75 174.3 113.65C174.4 113.55 174.45 113.15 174.45 112.45C174.55 111.65 174.7 109.9 174.9 107.2C174.9 105 174.85 103.9 174.75 103.9C174.65 103.8 174.6 103.65 174.6 103.45L174.75 102.55C174.75 102.25 174.6 102 174.3 101.8L174.15 100.9C174.35 100.5 174.5 99.85 174.6 98.95C174.8 97.95 174.9 97.1 174.9 96.4C174.9 92.6 174.95 89.8 175.05 88C175.05 86.5 174.95 85.65 174.75 85.45C174.65 85.15 174.6 84.2 174.6 82.6L174.15 73.45C174.25 73.45 174.3 72.5 174.3 70.6C174.4 69.8 174.45 68.85 174.45 67.75C175.05 67.55 175.4 67.4 175.5 67.3C175.6 67.2 175.75 66.45 175.95 65.05C176.05 64.75 176.1 64.5 176.1 64.3C176.2 64.1 176.3 64 176.4 64C176.6 64 176.7 63.2 176.7 61.6C176.7 59.6 176.55 58.45 176.25 58.15C176.05 57.75 175.95 57.15 175.95 56.35C175.95 55.45 176.1 54.05 176.4 52.15C176.6 51.45 176.8 49.35 177 45.85C177.3 42.85 177.45 39.9 177.45 37L177.75 31.3C177.85 31.1 177.9 30.75 177.9 30.25C178 29.65 178.1 29 178.2 28.3C178.2 27 178.35 25.6 178.65 24.1C178.75 23.8 178.8 22.5 178.8 20.2C178.8 17.8 178.85 16.45 178.95 16.15C179.15 15.85 179.25 15.5 179.25 15.1C179.25 14.1 179.5 13.3 180 12.7C180.5 12.1 180.85 11.8 181.05 11.8C181.35 11.8 181.6 11.75 181.8 11.65C182.1 11.45 182.45 11.2 182.85 10.9C183.35 10.5 183.75 10.3 184.05 10.3L187.8 10.75L191.25 10.6C193.55 10.6 195.7 11.1 197.7 12.1C198.2 12.4 198.75 12.55 199.35 12.55C200.95 12.35 202.45 12.2 203.85 12.1C205.35 12 206.9 11.75 208.5 11.35C209.3 11.15 210 11.05 210.6 11.05C211.3 10.95 211.8 10.85 212.1 10.75C212.4 10.65 215.95 10.4 222.75 10L231.75 11.35C234.45 11.95 237.15 13.15 239.85 14.95C240.85 15.45 241.75 15.8 242.55 16C242.75 16.1 243 16.2 243.3 16.3C243.7 16.4 243.9 16.55 243.9 16.75C243.9 16.85 244.65 17.3 246.15 18.1C247.65 18.8 248.4 19.3 248.4 19.6C248.5 19.9 248.65 20.1 248.85 20.2C249.45 20.8 249.8 21.25 249.9 21.55C250.1 21.75 250.35 22.15 250.65 22.75C250.65 22.95 250.7 23.05 250.8 23.05C251 23.05 251.1 23.15 251.1 23.35C251.1 24.45 251.3 25.45 251.7 26.35C252.2 27.15 252.45 28.15 252.45 29.35C252.45 29.85 252.45 30.35 252.45 30.85C252.55 31.25 252.65 31.55 252.75 31.75C252.95 31.85 253.1 32.2 253.2 32.8V34.9C253.2 37 253.05 38.1 252.75 38.2C252.45 38.3 252.3 38.4 252.3 38.5C252.4 38.5 252.55 38.6 252.75 38.8C252.95 38.9 253.05 39.55 253.05 40.75C253.05 41.35 252.95 41.75 252.75 41.95C252.55 42.05 252.45 43 252.45 44.8C252.45 49.1 252.25 51.7 251.85 52.6C251.45 53.4 251.1 54.2 250.8 55C250.4 55.4 250.1 55.8 249.9 56.2C249.8 56.5 249.75 57.35 249.75 58.75C249.75 60.15 248.9 61.2 247.2 61.9L245.1 63.25C243.1 64.85 242 65.7 241.8 65.8C241.7 65.8 241 66.15 239.7 66.85C239.4 67.25 239.1 67.5 238.8 67.6C238.5 67.7 238.15 67.85 237.75 68.05C236.45 69.35 235.1 70.15 233.7 70.45C232.4 70.75 231.2 71.3 230.1 72.1L228.75 72.7C227.95 73.1 227.45 73.3 227.25 73.3C227.15 73.3 226.9 73.35 226.5 73.45C226.2 73.55 225.85 73.65 225.45 73.75C224.15 73.75 222.7 74.5 221.1 76L221.4 76.75C222.1 78.25 222.65 79.15 223.05 79.45C223.55 79.65 223.8 79.9 223.8 80.2C223.8 80.5 224.5 81.6 225.9 83.5L230.4 90.25C231.5 91.65 232.2 92.75 232.5 93.55C232.9 94.25 233.3 94.95 233.7 95.65C234.2 96.25 234.55 96.75 234.75 97.15C234.95 97.45 235.15 97.75 235.35 98.05C235.55 98.35 235.65 98.6 235.65 98.8C235.95 99.5 236.4 100.05 237 100.45L238.05 101.95C239.45 103.45 240.2 104.3 240.3 104.5C240.4 104.6 240.65 104.8 241.05 105.1C241.85 105.9 242.25 106.5 242.25 106.9C242.25 107.3 242.35 107.55 242.55 107.65C242.85 107.65 243.15 107.9 243.45 108.4C243.85 108.9 244.15 109.45 244.35 110.05C244.65 110.55 244.8 110.9 244.8 111.1C244.8 111.2 244.8 111.3 244.8 111.4C244.9 111.5 245 111.55 245.1 111.55C245.2 111.55 245.25 111.6 245.25 111.7C245.35 111.7 245.4 111.8 245.4 112C245.4 112.1 245.5 112.3 245.7 112.6C246 112.8 246.35 113.05 246.75 113.35C247.15 113.65 247.45 113.95 247.65 114.25C247.85 114.45 247.95 114.7 247.95 115C247.95 115.2 247.95 115.4 247.95 115.6C248.05 115.7 248.15 115.75 248.25 115.75C248.35 115.75 248.4 115.8 248.4 115.9V116.05C248.3 116.35 248.2 116.55 248.1 116.65C248.1 116.75 248 116.8 247.8 116.8C247.7 116.8 247.45 116.95 247.05 117.25C246.65 117.45 246 118 245.1 118.9C244.7 119.4 244.3 119.65 243.9 119.65C243.4 119.65 242.4 119.35 240.9 118.75C238.2 117.65 236.55 117.1 235.95 117.1C235.95 117.4 236 117.65 236.1 117.85C236.3 117.95 236.5 118 236.7 118C236.9 118 237 118.05 237 118.15C237.1 118.15 237.15 118.2 237.15 118.3C237.15 118.4 237.15 118.5 237.15 118.6C237.25 118.7 237.45 118.8 237.75 118.9V119.05L237.45 119.2L236.55 119.05C235.85 118.75 235.5 118.55 235.5 118.45C235.5 118.25 235.45 118.15 235.35 118.15C235.35 118.05 235.25 118 235.05 118C234.95 118 234.7 117.9 234.3 117.7C234 117.4 233.7 117.1 233.4 116.8C233.2 116.4 233.1 116.1 233.1 115.9C233.1 115.6 232.9 115.45 232.5 115.45C231.5 114.95 230.5 114.35 229.5 113.65C228.9 113.05 228.45 112.75 228.15 112.75C227.85 112.75 227.6 112.75 227.4 112.75C227.3 112.65 227.25 112.5 227.25 112.3C227.25 112.1 227.05 111.95 226.65 111.85C226.25 111.75 225.6 111.4 224.7 110.8C223.7 109.8 222.95 109.15 222.45 108.85C220.25 107.15 218.65 105.55 217.65 104.05C217.25 103.25 216.55 102.35 215.55 101.35C215.15 100.95 214.8 100.55 214.5 100.15C214.2 99.65 213.9 98.95 213.6 98.05C213 97.45 212.7 97.1 212.7 97C212.7 96.8 212.5 96.5 212.1 96.1C211.7 95.7 211 94.4 210 92.2C209.6 91.3 209.35 90.85 209.25 90.85C209.15 90.75 208.95 90.55 208.65 90.25C208.45 89.85 208.2 89.4 207.9 88.9C207.1 87.3 206.5 86.5 206.1 86.5C205.9 86.5 205.8 86.9 205.8 87.7C205.8 88.6 205.95 90.05 206.25 92.05L206.4 93.55L206.25 95.5C206.45 100.1 206.55 106.15 206.55 113.65C206.55 118.15 206.35 120.65 205.95 121.15C205.65 121.65 205.5 122.05 205.5 122.35C205.5 122.55 205.55 122.7 205.65 122.8C205.85 122.9 205.95 123 205.95 123.1C205.65 123.8 205.35 125.25 205.05 127.45C204.85 128.95 204.55 129.85 204.15 130.15C203.85 130.35 203.55 130.45 203.25 130.45C202.55 130.45 201.95 130.7 201.45 131.2C200.95 131.6 200.55 132.15 200.25 132.85C200.05 133.45 199.85 133.75 199.65 133.75L199.05 133.45C198.85 133.45 198.25 133.9 197.25 134.8C196.35 135.6 195.85 136 195.75 136C195.65 136 195.55 136.05 195.45 136.15C195.45 136.15 195.45 136.3 195.45 136.6C195.45 136.8 195.2 136.95 194.7 137.05C194.2 137.05 193.9 137.1 193.8 137.2C193.8 137.3 193.8 137.6 193.8 138.1L193.95 139.15C193.15 138.05 192.6 137.5 192.3 137.5C192.1 137.5 192 137.7 192 138.1C192 138.4 191.9 138.7 191.7 139C191.5 139.2 191.2 139.3 190.8 139.3L189.9 139.15C189.6 139.15 189.45 139.2 189.45 139.3C189.45 139.4 189.45 139.5 189.45 139.6C189.55 139.6 189.65 139.6 189.75 139.6C189.85 139.6 189.9 139.65 189.9 139.75C189.9 139.75 189.95 139.8 190.05 139.9V140.05C190.05 140.25 190 140.4 189.9 140.5H188.4L187.35 140.35C187.15 140.35 187 140.4 186.9 140.5C186.9 140.6 186.9 140.75 186.9 140.95C186.9 141.25 186.8 141.4 186.6 141.4ZM204.45 60.55C204.65 60.55 204.85 60.35 205.05 59.95C205.35 59.45 205.55 58.9 205.65 58.3C205.75 57.7 205.85 57.3 205.95 57.1C206.15 56.9 206.5 56.7 207 56.5C208.2 56.1 209.2 55.45 210 54.55C210.8 53.65 211.35 53.2 211.65 53.2C211.95 53.2 212.35 53.05 212.85 52.75C214.25 52.15 215.2 51.55 215.7 50.95C216.2 50.35 216.65 50.05 217.05 50.05C217.45 50.05 218.2 49.5 219.3 48.4C220.4 47.3 221.25 46.6 221.85 46.3C223.35 45.6 224.1 45.15 224.1 44.95C223.8 44.85 223.65 44.6 223.65 44.2C223.65 43.6 223.75 43.2 223.95 43C224.15 42.7 224.3 42.5 224.4 42.4V42.25L224.25 42.1C224.95 40.5 225.4 38.55 225.6 36.25C225.6 35.65 225.8 33.85 226.2 30.85L226.65 26.35C226.05 22.15 224.7 20.05 222.6 20.05C221.5 20.05 220.45 19.8 219.45 19.3L217.05 18.85C215.75 18.45 213.1 18.25 209.1 18.25C204.6 18.25 202.05 18.5 201.45 19C200.95 19.5 200.7 20.1 200.7 20.8C200.7 21.1 200.9 21.8 201.3 22.9C201.2 23.1 201.1 23.35 201 23.65C200.9 23.95 200.85 25.9 200.85 29.5C200.85 31.4 201 32.35 201.3 32.35C201.7 32.35 201.9 32.45 201.9 32.65C201.9 32.85 201.75 32.95 201.45 32.95C201.15 32.95 200.85 33.1 200.55 33.4C200.35 33.6 200.25 33.85 200.25 34.15L200.55 34.6C200.95 34.6 201.35 34.5 201.75 34.3L201.9 34.45L201.75 35.5C201.75 35.9 201.85 36.25 202.05 36.55C202.35 36.75 202.5 36.9 202.5 37V37.15L201.9 37C202.2 37.7 202.35 38.25 202.35 38.65C202.35 38.85 202.2 39 201.9 39.1C201.7 39.2 201.6 39.35 201.6 39.55C201.6 39.65 201.7 39.7 201.9 39.7H202.2C202.4 39.7 202.55 39.95 202.65 40.45C202.45 41.55 202.35 42.6 202.35 43.6V44.5L201.9 47.8C202 48 202.1 48.2 202.2 48.4C202.3 48.5 202.4 48.95 202.5 49.75C202.7 50.45 202.9 50.85 203.1 50.95C203.3 50.95 203.5 51.1 203.7 51.4C204 52.2 204.15 52.85 204.15 53.35C204.15 53.45 204.1 53.55 204 53.65C203.9 53.75 203.85 54.05 203.85 54.55C203.85 54.85 203.9 55.15 204 55.45C204.2 55.65 204.3 56 204.3 56.5C204.3 57.9 204 58.75 203.4 59.05C202.8 59.25 202.5 59.6 202.5 60.1C202.5 60.3 202.65 60.4 202.95 60.4C203.25 60.4 203.4 60.3 203.4 60.1C203.4 59.9 203.5 59.8 203.7 59.8C203.9 59.8 204.05 59.95 204.15 60.25C204.25 60.45 204.35 60.55 204.45 60.55Z"/>
    <path d="M160.643 75.2767C158.492 78.8736 156.446 82.5233 154.613 86.2788C153.046 89.5054 150.416 91.4889 147.255 92.7848C142.022 94.98 136.682 96.9635 131.396 99.0264C126.933 100.745 122.444 100.269 117.928 99.238C117.078 99.0528 116.228 98.8413 115.086 98.5503C114.82 99.8462 114.528 101.063 114.369 102.279C113.545 108.336 112.908 114.445 111.898 120.475C111.633 122.036 111.792 122.697 113.279 122.988C117.981 123.913 122.683 124.945 127.412 125.712C130.095 126.135 132.857 126.294 135.567 126.241C137.081 126.241 138.595 125.474 140.109 125.289C141.039 125.183 142.473 125.262 142.925 125.817C144.678 128.092 146.378 130.499 147.6 133.09C148.078 134.122 147.813 136.211 147.016 137.005C145.183 138.882 145.077 141.078 144.758 143.299C144.492 145.15 143.749 146.896 141.809 147.213C138.595 147.742 135.301 148.139 132.06 147.954C127.358 147.663 122.63 147.108 118.034 146.129C110.623 144.542 103.398 141.818 95.9331 140.84C89.7968 140.046 86.742 136.449 83.9793 132.085C83.1558 130.763 82.7573 128.674 83.1558 127.193C85.2278 119.47 87.5389 111.774 89.9562 104.157C92.5329 96.0114 94.419 87.7598 95.1893 79.2703C96.066 69.6699 96.916 60.0431 98.0848 50.4692C98.9614 43.3284 101.193 36.6373 105.045 30.3164C106.798 27.4336 108.418 25.7146 111.818 25.9526C112.669 26.0055 113.705 26.1113 114.342 26.5873C116.494 28.2006 118.645 27.6717 121.01 27.2485C125.074 26.508 129.218 26.0584 133.335 25.5559C137.612 25.0269 141.916 24.5773 146.192 24.1542C152.143 23.5459 157.642 24.736 162.848 27.751C166.886 30.1048 167.072 30.9776 163.247 33.781C162.954 33.9926 162.529 34.2306 162.45 34.548C161.732 37.0604 159.262 38.6737 158.465 40.8953C156.101 47.4807 150.097 47.5865 144.838 48.7766C140.03 49.8609 135.062 50.4692 130.148 50.9717C127.438 51.2362 126.11 52.5056 125.499 54.9123C124.065 60.6514 122.577 66.364 121.089 72.0766C120.558 74.1131 121.249 74.8007 123.347 74.6156C127.969 74.166 132.645 74.1395 137.187 73.3196C144.519 72.0237 151.877 72.1031 159.262 71.9973C161 72 161.5 74.5 160.643 75.2767Z"/>
    <path d="M47.6009 24.1322C37.7501 22.7656 28.3644 21.8352 19.1529 20.0035C14.4455 19.0731 10.174 16.0784 5.46654 14.8573C1.42746 13.7815 1.48557 10.2925 0.0326669 7.70484C-0.228856 7.21057 1.13688 5.02995 2.0958 4.76828C4.97255 3.92511 8.05272 3.75066 10.9585 3.05286C12.2371 2.76211 13.3994 1.80264 14.5908 1.163C14.4164 0.785022 14.2712 0.377973 14.0968 0C21.5938 0.523348 29.0908 1.22114 36.6169 1.51189C43.3003 1.77357 50.0127 1.65727 56.7251 1.51189C61.7522 1.42467 66.9245 1.62819 71.8063 0.668722C79.681 -0.901321 86.8003 2.00617 94.2101 3.25639C99.7021 4.18678 101.039 5.34978 105.804 10.8449C100.08 13.4617 94.6169 16.3401 88.8634 18.4335C84.3885 20.0617 79.5067 20.6141 74.8283 21.748C72.5909 22.3004 70.9927 23.0855 70.5277 26.0511C68.5227 38.815 66.2271 51.5498 63.8153 64.2555C61.1129 78.444 63.2341 92.3418 65.2101 106.385C66.4015 114.817 65.7331 123.51 66.3434 132.058C66.5468 134.937 68.2903 137.67 68.9586 140.548C69.4235 142.467 69.9466 144.851 69.2201 146.479C68.4646 148.078 66.2562 149.823 64.5418 149.968C62.0137 150.201 59.3404 149.096 56.7542 148.602C54.0227 148.078 51.2331 146.974 48.5598 147.206C41.673 147.788 39.5517 144.386 40.7141 137.64C42.5738 126.825 43.0968 116.038 42.9225 105.135C42.7481 93.592 41.8764 81.9912 42.6319 70.5066C43.5618 56.1436 45.8574 41.8969 47.5427 27.5921C47.688 26.3418 47.5427 25.0335 47.5427 24.1322H47.6009Z"/>
</svg>
