<svg width="448" height="150" viewBox="0 0 448 150" xmlns="http://www.w3.org/2000/svg">
    <g fill="#32468a">
        <path d="M400.38 43.8809C401.284 46.5679 402.627 48.8436 404.436 50.6258C406.245 52.4354 408.136 54.0531 410.109 55.5337C411.535 56.5756 412.905 57.6449 414.248 58.8239C419.592 63.6496 425.101 68.3107 430.829 72.8073L431.789 73.575C432.419 74.1508 433.159 74.6443 433.954 75.0282C434.749 75.4121 435.516 75.604 436.229 75.604H436.53C437.572 75.4669 438.558 75.412 439.518 75.412C445.109 75.412 447.904 78.0168 447.904 83.2263C447.904 84.323 447.767 85.502 447.521 86.7907C445.465 97.5387 443.218 108.259 440.778 118.98C440.34 120.515 439.545 122.023 438.476 123.504L437.517 125.039C436.941 126.081 436.366 127.123 435.79 128.22C434.502 130.907 432.967 133.402 431.158 135.65C428.664 138.42 425.814 140.257 422.635 141.189C419.455 142.121 416.139 142.752 412.658 143.081C411.233 143.218 409.835 143.41 408.41 143.656C406.93 143.848 405.45 143.958 403.97 143.958C400.38 143.958 396.981 143.327 393.747 142.039C389.253 140.229 384.922 137.981 380.729 135.294C379.441 134.526 378.18 133.786 376.974 133.073C369.903 128.713 365.299 123.285 363.161 116.841C360.996 110.371 359.79 103.488 359.543 96.1678C359.543 95.592 359.707 94.9888 360.036 94.3856C360.365 93.7824 360.749 93.3163 361.187 92.9873C365.161 90.3551 369.355 89.039 373.713 89.039C375.768 89.039 377.878 89.3406 380.071 89.9164C383.223 90.876 385.525 92.6034 386.95 95.0711C388.403 97.5387 389.554 100.226 390.458 103.132C391.034 104.942 391.418 106.724 391.61 108.533C391.856 110.343 392.267 112.098 392.815 113.825C393.364 115.553 394.295 117.198 395.666 118.733C399.064 122.709 403.121 124.71 407.807 124.71C408.246 124.71 408.739 124.683 409.26 124.601C415.372 123.504 419.044 119.748 420.332 113.332C421.621 108.78 423.347 104.393 425.54 100.226C426.307 98.5532 426.691 96.9903 426.691 95.5097C426.691 92.6308 425.211 90.1632 422.251 88.189C421.155 87.4213 420.168 86.5988 419.264 85.694C418.167 84.5972 416.989 83.665 415.701 82.8973C409.479 79.4974 403.121 76.2346 396.625 73.1637C386.484 68.2284 378.262 61.2367 371.958 52.2435C369.327 47.692 368.012 43.3325 368.012 39.2198C368.012 32.7216 371.301 26.7444 377.851 21.2881C382.921 17.0383 388.403 13.4464 394.323 10.4853C400.736 7.33214 406.245 5.76929 410.795 5.76929C411.891 5.76929 412.96 5.87896 413.974 6.07089C419.044 7.03053 424.252 9.85463 429.596 14.5432C433.132 17.4221 436.722 20.1914 440.395 22.8235C440.641 23.0155 440.943 23.2074 441.272 23.3993C443.464 25.1267 445.026 27.1008 445.986 29.3217C446.945 31.5426 447.438 33.4619 447.438 35.0522C447.438 35.8747 447.329 36.6973 447.137 37.465C446.424 40.152 445.109 42.3454 443.135 44.018C441.189 45.6905 438.915 46.513 436.338 46.513H435.461C433.214 46.2663 430.939 45.5808 428.609 44.4841C426.307 43.3873 424.389 42.0164 422.936 40.3439C420.935 38.2875 419.401 37.2182 418.304 37.1634C417.208 37.1085 416.495 37.0537 416.194 37.0537C414.522 37.0537 412.823 37.3827 411.096 38.0133C408.52 38.973 406.053 40.2616 403.669 41.8793C402.572 42.5922 401.476 43.2503 400.38 43.9083V43.8809Z"/>
        <path d="M351.327 64.0583C350.182 65.2604 348.785 66.2948 347.947 67.6647C345.685 71.4668 343.534 75.3248 341.607 79.2946C339.958 82.7053 337.193 84.8021 333.869 86.1719C328.367 88.4923 322.752 90.5891 317.194 92.7697C312.501 94.5869 307.78 94.0837 303.032 92.9934C302.138 92.7977 301.244 92.574 300.043 92.2665C299.764 93.6364 299.457 94.9224 299.289 96.2084C298.423 102.61 297.753 109.068 296.691 115.443C296.412 117.092 296.58 117.791 298.144 118.098C303.088 119.077 308.032 120.167 313.004 120.978C315.825 121.425 318.73 121.593 321.579 121.537C323.171 121.537 324.763 120.726 326.355 120.531C327.333 120.419 328.841 120.503 329.316 121.09C331.16 123.494 332.947 126.038 334.232 128.778C334.735 129.868 334.456 132.077 333.618 132.915C331.691 134.9 331.579 137.221 331.244 139.569C330.964 141.526 330.182 143.371 328.143 143.707C324.763 144.266 321.3 144.685 317.892 144.489C312.948 144.182 307.976 143.595 303.144 142.56C295.351 140.883 287.753 138.003 279.904 136.969C273.452 136.13 270.239 132.328 267.334 127.715C266.469 126.318 266.05 124.109 266.469 122.543C268.647 114.38 271.077 106.245 273.619 98.1933C276.329 89.5826 278.312 80.8602 279.122 71.8861C280.044 61.7379 280.937 51.5617 282.166 41.4414C283.088 33.8931 285.435 26.82 289.485 20.1384C291.328 17.0911 293.032 15.274 296.608 15.5256C297.501 15.5815 298.591 15.6933 299.261 16.1965C301.524 17.9019 303.786 17.3428 306.272 16.8955C310.546 16.1127 314.903 15.6374 319.233 15.1062C323.73 14.5471 328.255 14.0718 332.752 13.6245C339.009 12.9815 344.791 14.2396 350.266 17.4266C354.511 19.9148 354.707 20.8373 350.685 23.8007C350.377 24.0244 349.93 24.276 349.847 24.6115C349.092 27.2674 346.495 28.9727 345.657 31.3211C343.171 38.2823 336.858 38.3941 331.327 39.6521C326.272 40.7984 321.048 41.4414 315.881 41.9725C313.032 42.2521 311.635 43.594 310.993 46.1381C309.484 52.2047 307.92 58.2433 306.356 64.2819C305.797 66.4346 306.523 67.1614 308.73 66.9657C313.59 66.4905 318.506 66.4625 323.283 65.5959C330.992 64.226 338.729 64.3099 346.495 64.198C347.975 64.198 349.428 63.4991 350.908 63.1077C351.048 63.4153 351.187 63.6948 351.327 64.0023V64.0583Z"/>
        <path d="M214.971 28.9733C205.502 27.6593 196.48 26.7647 187.626 25.0034C183.101 24.1088 178.995 21.2293 174.47 20.0551C170.587 19.0207 170.643 15.6659 169.246 13.1778C168.995 12.7025 170.308 10.6058 171.229 10.3542C173.995 9.54343 176.956 9.37569 179.749 8.70473C180.978 8.42517 182.095 7.5026 183.24 6.88755C183.073 6.52412 182.933 6.13272 182.765 5.76929C189.972 6.27251 197.179 6.94347 204.413 7.22303C210.837 7.47464 217.29 7.36281 223.742 7.22303C228.575 7.13916 233.546 7.33486 238.239 6.41229C245.809 4.90263 252.652 7.69829 259.775 8.90043C265.054 9.79504 266.339 10.9133 270.92 16.1971C265.417 18.7132 260.166 21.4809 254.635 23.4938C250.334 25.0594 245.641 25.5905 241.144 26.6808C238.993 27.212 237.457 27.9668 237.01 30.8184C235.083 43.0914 232.876 55.3364 230.558 67.5534C227.96 81.1962 229.999 94.5595 231.898 108.063C233.044 116.17 232.401 124.529 232.988 132.748C233.183 135.516 234.859 138.144 235.502 140.912C235.949 142.757 236.451 145.049 235.753 146.615C235.027 148.152 232.904 149.83 231.256 149.97C228.826 150.193 226.256 149.131 223.77 148.656C221.145 148.152 218.463 147.09 215.893 147.314C209.273 147.873 207.234 144.602 208.352 138.116C210.139 127.716 210.642 117.344 210.474 106.86C210.307 95.7616 209.469 84.607 210.195 73.5641C211.089 59.7535 213.296 46.0548 214.916 32.3001C215.055 31.098 214.916 29.8399 214.916 28.9733H214.971Z"/>
        <path d="M173.098 133.274C171.454 128.256 169.645 123.266 167.672 118.385C163.149 107.281 160.546 95.7103 159.559 83.7833C159.477 82.8785 160.464 81.2883 161.313 80.9867C165.123 79.6432 169.069 78.6287 173.098 77.4771C172.742 77.2303 172.276 76.8465 171.728 76.6271C167.617 74.9272 163.451 73.3095 159.367 71.5547C158.655 71.2531 157.668 70.5677 157.613 70.0193C157.092 64.1792 156.243 58.3116 156.489 52.4989C156.818 44.8766 159.915 37.4462 158.189 29.5771C156.955 23.9838 155.996 18.363 151.748 13.9486C150.679 12.8245 149.446 10.7955 149.775 9.5617C150.706 6.05215 148.925 4.43446 146.294 3.33772C143.635 2.21357 140.84 1.3636 138.044 0.568465C133.056 -0.857293 130.124 0.321699 127.821 4.98283C125.245 10.2197 122.504 15.4292 120.613 20.9403C113.241 42.6283 109.541 65.1114 106.581 87.7864C104.964 100.125 102.963 112.408 100.688 124.637C99.8933 128.941 98.7696 132.616 104.059 134.699C106.663 135.714 108.938 137.578 111.541 138.51C115.378 139.881 118.503 137.304 118.558 133.246C118.64 129.133 118.64 125.021 119.024 120.935C120.065 109.913 121.326 98.8909 122.477 87.8687C122.833 84.5785 124.149 82.6866 127.904 83.3995C129.356 83.6737 130.918 83.564 132.426 83.4817C138.181 83.235 143.937 82.9334 149.994 82.6318C150.734 91.3234 151.693 99.7408 152.132 108.186C152.543 115.945 152.351 123.732 152.57 131.491C152.598 132.616 153.173 134.261 154.023 134.754C157.531 136.811 161.121 138.812 164.931 140.21C166.74 140.868 169.343 140.759 171.043 139.909C173.537 138.648 173.92 135.823 173.071 133.274H173.098ZM126.725 72.2676C131.631 59.3261 136.263 47.1249 141.251 33.9915C143.608 46.6588 145.828 58.4487 148.075 70.6225C140.867 71.1709 134.152 71.6918 126.725 72.2676Z"/>
        <path d="M21.2766 120.384C24.1554 119.007 26.909 117.692 29.5374 116.44C37.5479 112.747 45.1516 109.085 52.3485 105.454C52.9117 105.141 53.3498 104.64 53.6627 103.951C53.9756 103.2 54.2572 102.386 54.5076 101.51L54.8831 100.383C55.3211 99.0059 55.6966 97.5661 56.0095 96.0637C56.5102 92.7459 57.6367 90.0854 59.3889 88.0822C61.7671 85.766 62.9561 83.2307 62.9561 80.4763V79.9129C62.8935 74.4667 62.6432 69.0204 62.2051 63.5742C62.0174 61.6336 61.8922 59.6617 61.8296 57.6585V56.9073C61.8296 51.8993 61.2664 47.0791 60.1399 42.4467C58.7005 37.1883 57.0108 34.0896 55.0708 33.1506C53.1308 32.149 51.222 31.6482 49.3446 31.6482C47.2794 31.6482 44.87 32.0238 42.1164 32.775C39.2376 33.4636 36.1398 34.0896 32.823 34.653C31.0707 34.9034 29.2245 35.2164 27.2845 35.592C27.2219 39.661 27.1593 43.7926 27.0967 47.9868C27.0967 58.2532 26.8464 68.7387 26.3458 79.4434C25.9703 84.7018 25.2819 89.9602 24.2806 95.2186C23.7799 98.1608 23.3418 101.103 22.9663 104.045C22.5283 107.551 22.1528 111.182 21.8399 114.938C21.6521 116.69 21.4644 118.506 21.2766 120.384ZM34.6065 135.408C32.9168 138.037 31.4462 139.54 30.1945 139.915C28.9429 140.228 28.0355 140.385 27.4722 140.385C25.7199 140.385 23.5296 139.759 20.9011 138.507C19.0237 137.505 17.1775 137.004 15.3626 137.004C13.9858 137.004 12.609 137.286 11.2322 137.849C10.2309 138.35 9.35479 138.601 8.60381 138.601C8.10316 138.601 7.66508 138.507 7.28959 138.319C6.28828 137.943 5.66247 136.785 5.41214 134.845C5.22439 133.28 4.94278 131.715 4.56729 130.15C4.06663 128.021 3.75372 125.861 3.62856 123.67C3.06532 105.767 2.62725 87.8318 2.31434 69.8656C2.18918 61.8527 2.1266 53.8086 2.1266 45.7332L1.93885 27.5165C1.87627 26.7653 1.71981 25.9828 1.46949 25.169C1.28174 24.543 1.15658 23.917 1.094 23.291C0.968832 22.665 0.90625 22.0703 0.90625 21.5069C0.90625 18.5647 2.4395 16.3737 5.50601 14.9339C7.13314 14.3079 8.72898 13.7132 10.2935 13.1498C14.6117 11.7726 18.6169 9.9885 22.3092 7.79749C24.437 6.42029 26.4396 5.73169 28.3171 5.73169C28.6926 5.73169 29.0681 5.76299 29.4436 5.82559C31.6339 6.07599 33.8869 6.67069 36.2024 7.60969C36.3901 7.67229 36.6092 7.73489 36.8595 7.79749C40.3015 8.9243 43.8374 9.8007 47.4671 10.4267C47.9052 10.5519 48.3745 10.6458 48.8752 10.7084C58.0121 12.2734 65.209 16.7493 70.4659 24.1361C74.6589 30.4588 77.9444 37.1883 80.3226 44.3247C81.5116 48.8319 82.1687 53.5269 82.2939 58.4097C82.3565 60.4755 82.4816 62.4787 82.6694 64.4193C82.6694 64.5445 82.6381 64.6697 82.5755 64.7949C82.5755 64.9201 82.5442 65.0453 82.4816 65.1705C82.419 65.3583 82.3565 65.5148 82.2939 65.64C82.2939 65.7026 82.2939 65.7652 82.2939 65.8278V65.9217C83.17 69.49 83.6081 72.9956 83.6081 76.4386C83.6081 81.3214 82.732 86.1416 80.9797 90.8992C80.2913 93.3406 79.6967 95.7507 79.1961 98.1295C79.0709 98.9433 79.0083 99.7884 79.0083 100.665C79.0083 101.291 79.0396 101.948 79.1022 102.637C79.1648 103.263 79.1961 103.857 79.1961 104.421C79.1961 105.735 79.0083 106.956 78.6328 108.083C76.8806 112.465 74.2834 116.158 70.8414 119.163C63.1438 125.235 55.0708 130.682 46.6223 135.502C45.4958 136.003 44.1816 136.253 42.6796 136.253C41.6783 136.253 40.5518 136.128 39.3002 135.877C37.7982 135.627 36.2337 135.471 34.6065 135.408Z"/>
    </g>
</svg>
