<svg width="798" height="150" viewBox="0 0 798 150" xmlns="http://www.w3.org/2000/svg">
    <g fill="#32468a">
        <path d="M783.992 65.2148C781.929 67.7152 780.331 69.6923 778.733 71.6403C778.006 72.5416 777.483 73.6756 776.553 74.3152C773.328 76.5249 772.63 80.1011 771.904 83.3284C770.916 87.8932 768.097 90.539 764.233 92.2835C758.915 94.6676 753.394 94.9874 747.786 92.9813C745.345 92.109 742.73 91.6148 739.359 90.7134C739.853 98.5346 740.289 105.745 740.754 113.363H747.001C754.091 113.363 761.181 113.479 768.272 113.305C771.526 113.217 774.839 112.81 778.006 112.113C779.75 111.735 781.464 110.659 782.888 109.525C785.329 107.577 787.421 107.548 789.804 109.699C790.734 110.543 791.867 111.124 792.971 111.764C794.918 112.898 795.964 114.38 796.08 116.794C796.167 118.625 797.243 120.399 797.737 122.26C797.969 123.045 798.114 124.004 797.882 124.76C797.097 127.348 796.08 129.877 795.267 132.465C794.366 135.372 791.315 137.698 787.363 137.582C782.626 137.437 777.861 136.972 773.153 136.39C763.971 135.285 754.76 134.413 745.664 136.623C737.325 138.658 729.13 137.553 721.372 135.024C714.572 132.785 710.882 127.348 709.748 119.934C708.034 108.594 707.685 97.2262 708.005 85.8289C708.383 73.3848 709.022 60.9698 709.894 48.5549C710.272 43.2051 711.695 37.9134 712.247 32.5637C712.48 30.3249 711.957 27.8826 711.143 25.7601C709.748 22.1839 707.86 19.2183 709.778 14.8571C711.463 10.9901 714.776 10.7866 717.536 9.73988C726.224 6.4835 735.32 6.91962 744.444 7.61742C750.895 8.11169 757.404 8.37336 763.855 8.31521C768.533 8.25706 771.846 10.8447 775.478 12.9672C775.565 13.0253 775.623 13.1126 775.681 13.1998C778.587 16.4271 780.04 27.3302 778.151 31.3425C774.083 39.9778 774.868 39.309 765.308 39.2509C761.24 39.2509 757.2 39.3672 753.132 39.3381C750.343 39.3381 749.18 40.5302 748.948 43.3214C748.832 44.746 747.669 46.1998 746.652 47.3628C744.531 49.8923 741.712 51.9857 740.085 54.7769C738.342 57.7134 739.649 59.4289 743.107 59.2835C748.715 59.0509 754.353 58.702 759.903 57.946C764.93 57.2773 769.637 57.6553 774.112 59.9813C777.628 61.813 781.115 63.761 783.876 65.2729L783.992 65.2148Z"/>
        <path d="M607.642 95.0746C607.061 98.1856 606.48 101.006 606.015 103.826C604.417 113.799 602.906 123.801 601.308 133.773C601.104 135.111 600.93 136.972 600.029 137.553C598.373 138.658 596.106 139.734 594.305 139.472C591.864 139.152 591.312 140.402 590.527 141.856C590.149 142.554 589.946 143.31 589.597 144.037C588.464 146.508 586.895 148.34 584.047 145.461C582.274 143.688 580.066 142.205 577.829 140.984C572.191 137.873 572.86 132.727 573.731 127.958C575.911 115.95 578.468 104.059 578.729 91.731C578.933 81.4385 580.386 71.146 581.403 60.8535C582.565 48.8165 585.82 37.2737 590.265 26.0217C591.341 23.3178 592.968 20.6429 594.944 18.5495C595.903 17.5319 598.634 17.1248 600.058 17.6773C606.654 20.2358 611.769 24.946 616.185 30.2376C619.091 33.7266 618.917 38.4367 617.842 42.2455C616.389 47.4499 617.638 52.2764 618.248 57.1319C619.73 68.7327 624.176 79.4032 629.814 89.6376C630.133 90.2191 630.627 90.7424 631.383 91.731C632.342 89.2887 632.952 87.0499 634.027 85.0438C636.846 79.7812 638.444 74.3442 638.008 68.2675C637.805 65.3891 638.589 62.4235 639.199 59.5451C639.984 55.9107 641.931 53.1195 645.592 51.4913C646.784 50.968 647.801 49.4852 648.324 48.235C650.997 41.7513 651.723 34.9187 652.276 27.9988C652.711 22.242 654.891 17.5319 660.877 15.235C665.468 13.4905 670.553 14.7698 672.936 18.9856C676.307 24.946 679.677 30.9645 680.694 37.8261C681.508 43.4085 680.52 48.9037 678.544 54.1081C675.871 61.2314 672.616 68.1222 669.798 75.1874C667.676 80.5081 665.788 85.916 663.957 91.353C662.301 96.2667 660.499 101.209 659.482 106.268C658.174 112.81 657.709 119.527 656.576 126.097C655.937 129.761 654.716 133.366 653.554 136.913C653.147 138.193 652.392 139.646 651.346 140.344C648.934 141.943 646.551 143.281 645.214 146.101C644.866 146.828 642.076 147.148 640.943 146.624C636.671 144.618 632.952 141.885 630.714 137.495C629.843 135.75 628.448 134.238 627.082 132.814C625.397 131.069 624.728 129.209 624.99 126.766C625.542 121.678 622.665 117.782 620.108 113.741C616.331 107.78 612.669 101.791 608.95 95.8015C608.805 95.5689 608.485 95.4816 607.642 94.9583V95.0746Z"/>
        <path d="M539.12 53.6723C539.12 60.8538 538.829 66.9014 539.207 72.9199C539.556 78.5895 540.544 84.201 541.299 89.8415C541.909 94.5516 542.578 99.2327 543.246 103.914C544.147 110.397 545.251 116.881 545.861 123.394C546.21 127.232 545.919 131.157 545.658 135.053C545.309 140.17 541.328 140.984 535.807 140.345C531.39 139.821 527.787 137.524 525.346 133.599C524.155 131.68 522.527 130.052 521.22 128.22C520.755 127.552 520.319 126.679 520.319 125.894C520.261 119.498 520.319 113.101 520.319 106.705C520.319 94.9878 520.552 83.2415 520.203 71.5243C519.999 64.8953 518.982 58.2953 518.023 51.7243C517.21 46.142 515.931 40.6177 514.972 35.0354C514.624 33.0292 515.583 31.9243 517.733 31.4301C524.532 29.9182 529.56 32.2151 533.947 37.4195C538.335 42.5948 539.933 48.2644 539.149 53.6433L539.12 53.6723Z"/>
        <path d="M524.328 12.6185C524.328 9.50752 527.06 6.33836 530.518 5.43703C533.801 4.56479 537.405 6.04761 539.177 9.30399C540.746 12.1824 541.967 15.2353 543.361 18.2009C544.233 20.0617 544.117 22.0969 542.461 23.1146C541.095 23.9287 539.061 23.8414 537.317 23.8996C536.068 23.9287 534.76 23.7251 533.569 23.3472C532.203 22.882 530.895 22.1842 529.646 21.4573C527.35 20.0908 524.299 14.9736 524.328 12.6476V12.6185Z"/>
        <path d="M355.791 137.262L355.529 137.524C355.529 137.524 355.355 137.669 355.268 137.669L354.309 138.076H353.757C352.391 138.076 351.287 137.611 350.415 136.651C349.543 135.692 348.904 134.529 348.439 133.162C347.974 131.796 347.654 130.4 347.422 128.947C347.189 127.493 347.073 126.301 347.073 125.399C346.899 121.038 346.492 116.473 345.853 111.705C345.213 106.937 344.981 102.314 345.184 97.8655L338.792 51.1131C338.966 49.5721 338.85 47.9439 338.385 46.1994C337.92 44.484 337.6 42.943 337.426 41.5765L336.874 41.0241C336.612 40.7624 335.944 40.2681 334.898 39.5994C333.852 38.9307 333.183 38.4946 332.922 38.2911C333.183 38.2911 333.59 38.0294 334.084 37.5351C334.578 37.0408 334.84 36.6629 334.84 36.3721C334.927 36.2849 334.898 35.8197 334.782 35.0056C334.665 34.1915 334.491 33.5518 334.317 33.0867L334.055 32.5342C333.968 32.3598 333.91 32.1853 333.91 31.9818L333.503 31.5748C334.055 30.8479 334.491 30.2664 334.811 29.8012C335.13 29.336 335.421 28.8999 335.682 28.4347C335.944 27.9695 336.147 27.6206 336.235 27.3298C336.496 26.4285 336.699 25.469 336.787 24.4805C336.874 23.4919 336.961 22.4743 337.048 21.4858C337.135 20.4972 337.31 19.5087 337.513 18.5492C337.746 17.5897 338.181 16.7175 338.821 15.9034C340.448 13.3739 342.685 11.4549 345.504 10.1756C348.323 8.89635 351.141 8.2567 353.96 8.2567C354.861 8.2567 355.529 8.6056 355.936 9.27432C356.343 9.94305 356.953 10.2919 357.767 10.2919C358.232 10.2919 358.638 10.0303 359.074 9.536C359.481 9.04172 360.004 8.78005 360.643 8.78005H361.195C361.195 8.78005 361.283 9.09987 361.457 9.44877C361.544 9.62322 361.689 9.85582 361.864 10.1175C362.038 10.2047 362.561 10.2919 363.433 10.3792C364.305 10.4664 364.77 10.6118 364.857 10.7862C365.031 10.7862 365.176 11.0479 365.264 11.5422C365.351 12.0364 365.496 12.3853 365.67 12.5598C366.019 14.1008 366.339 15.4963 366.629 16.7175C366.92 17.9386 367.123 19.1598 367.298 20.41C367.472 21.6311 367.588 22.9104 367.646 24.2188C367.704 25.5272 367.646 27.01 367.588 28.6382C367.763 28.8999 368.169 29.4523 368.809 30.2664C369.448 31.0805 369.942 31.6329 370.32 31.8946C371.86 33.61 373.574 35.3836 375.434 37.2153C377.294 39.047 379.182 40.9078 381.1 42.8849C383.018 44.8329 384.878 46.8391 386.679 48.8743C388.481 50.9096 390.225 52.9739 391.852 55.0673C395.862 59.8937 399.756 64.7783 403.562 69.721C407.369 74.6637 411.64 79.3157 416.377 83.6769H416.522C417.074 83.6769 417.714 83.2117 418.498 82.2523C419.283 81.2928 420.038 80.0717 420.823 78.5598C421.607 77.0479 422.392 75.3906 423.206 73.588C424.019 71.7853 424.746 70.0699 425.385 68.4708C426.024 66.8717 426.576 65.4761 427.099 64.2549C427.593 63.0338 427.971 62.2197 428.262 61.8708C428.727 61.3184 429.221 61.0276 429.773 60.9985C430.325 60.9404 430.732 60.6206 430.993 59.9809C431.632 58.6144 432.475 56.6373 433.521 54.0496C434.567 51.462 435.555 48.6999 436.514 45.7924C437.473 42.8849 438.287 40.1228 438.955 37.477C439.623 34.8311 439.972 32.7959 439.972 31.3422H439.42V29.4232H440.64C440.64 29.2488 440.64 28.8708 440.699 28.3184C440.757 27.7659 440.757 27.4461 440.757 27.3589L440.205 26.1378C440.205 26.1378 440.263 25.9052 440.408 25.7307C440.553 25.5563 440.669 25.469 440.757 25.469L441.309 26.1378C441.774 26.0505 442.006 25.847 442.064 25.5272C442.122 25.2074 442.122 24.9166 442.122 24.6549C442.122 24.1897 442.122 23.8408 442.064 23.5501C442.006 23.2884 441.774 23.143 441.309 23.143C442.587 21.5148 443.372 20.0902 443.692 18.84C444.011 17.6188 444.331 16.514 444.65 15.5836C444.97 14.6241 445.464 13.7228 446.161 12.8505C446.83 11.9783 448.225 11.1351 450.317 10.321C450.956 9.97212 451.915 9.536 453.164 9.09987C454.443 8.63468 455.199 8.31485 455.489 8.1404H456.303C457.291 8.1404 458.192 8.373 458.947 8.80913C459.732 9.27432 460.603 9.47785 461.591 9.47785C462.056 9.47785 462.463 9.4197 462.812 9.33247C463.161 9.24525 463.277 8.8382 463.073 8.11133C463.073 8.28578 463.16 8.46023 463.335 8.66375C463.509 8.8382 463.684 8.92542 463.887 8.92542C464.148 8.92542 464.788 8.92542 465.805 8.98357C466.793 9.04172 467.432 9.04172 467.723 9.04172V11.484C468.711 11.484 469.757 11.5712 470.774 11.7457C471.82 11.9201 472.692 12.6179 473.418 13.7809C473.883 14.7695 474.261 15.9325 474.58 17.2699C474.9 18.5783 475.162 19.9739 475.394 21.4276C475.626 22.8814 475.83 24.277 476.004 25.6435C476.179 27.01 476.411 28.2311 476.673 29.336C477.021 31.1677 477.399 33.3774 477.777 36.0232C478.125 38.669 478.532 41.373 478.939 44.1933C479.346 47.0135 479.753 49.7466 480.16 52.4505C480.566 55.1254 481.002 57.3933 481.467 59.1959C483.007 65.1853 484.199 71.262 485.012 77.3968C485.826 83.5316 486.61 89.6082 487.337 95.5976C487.802 99.3192 488.557 103.128 489.662 107.053C490.766 110.949 491.841 114.642 492.916 118.102C493.003 118.567 493.119 119.265 493.265 120.224L493.672 123.073C493.817 124.033 493.962 124.905 494.136 125.661C494.311 126.446 494.543 126.853 494.805 126.969C494.63 127.144 494.224 127.435 493.584 127.784C492.945 128.132 492.538 128.336 492.364 128.336C491.637 128.598 490.969 128.714 490.388 128.685C489.807 128.627 489.4 128.976 489.226 129.702C489.051 129.877 488.819 130.342 488.557 131.069C488.296 131.796 488.063 132.174 487.889 132.174C487.337 132.523 486.843 132.755 486.378 132.784C485.913 132.843 485.477 132.843 485.012 132.843C484.547 132.843 484.14 132.959 483.792 133.191C483.443 133.424 483.123 133.947 482.833 134.762C482.368 134.5 482.106 134.093 482.019 133.599C481.932 133.104 481.671 132.843 481.206 132.843C480.654 132.843 480.392 133.075 480.392 133.511C480.392 133.947 480.043 134.18 479.288 134.18C477.835 134.18 476.643 133.657 475.743 132.61C474.842 131.563 473.738 130.778 472.488 130.226C472.227 130.139 471.762 130.4 471.122 131.04C470.774 131.389 470.454 131.767 470.164 132.145C470.076 132.232 469.989 132.29 469.902 132.29H469.495L469.234 132.145C469.234 131.97 469.059 131.563 468.682 130.924C468.333 130.284 468.042 129.877 467.868 129.702C467.868 129.528 467.606 129.295 467.112 129.034C466.618 128.772 466.27 128.539 466.095 128.365C465.834 127.9 465.514 126.969 465.136 125.516C464.788 124.062 464.381 122.376 463.974 120.486C463.567 118.596 463.19 116.561 462.812 114.409C462.463 112.287 462.143 110.251 461.853 108.332C461.562 106.413 461.359 104.814 461.185 103.506C461.01 102.198 460.923 101.354 460.923 100.976L457.378 79.7228C457.552 78.3562 457.494 77.0479 457.175 75.7686C456.855 74.4893 456.506 73.2391 456.07 72.0179L454.85 68.3254C454.443 67.1043 454.24 65.854 454.24 64.5747H453.281C453.019 65.3016 452.729 66.0285 452.467 66.7554C452.293 67.395 452.118 68.0056 451.915 68.5871C451.741 69.1686 451.566 69.6919 451.363 70.1571C451.101 71.1457 450.956 72.1051 450.956 73.0065C450.956 73.9078 450.636 74.6056 449.997 75.0417C449.823 75.2162 449.619 75.5069 449.387 75.8558C449.154 76.2047 448.922 76.5827 448.631 76.9606C448.283 77.3095 447.963 77.7747 447.672 78.3272C447.498 78.5016 447.44 78.647 447.527 78.7342C447.614 78.8214 447.672 78.9668 447.672 79.1413H448.486C448.486 80.1298 448.108 80.8858 447.324 81.38C446.539 81.8743 445.987 82.6303 445.609 83.6188C445.348 84.3457 445.174 85.1888 445.144 86.1483C445.086 87.1078 444.883 87.9509 444.534 88.6778C439.536 96.0338 433.318 101.529 425.879 105.163L424.92 106.123C425.821 106.588 426.722 106.879 427.651 106.995C428.552 107.14 429.453 107.199 430.383 107.199V108.158C428.116 108.158 425.966 107.838 423.903 107.199C421.869 106.559 419.806 106.21 417.714 106.094C413.442 105.832 409.664 105.134 406.41 104.058C403.155 102.983 400.133 101.529 397.344 99.6972C394.583 97.8946 391.939 95.6558 389.44 93.01C386.941 90.3642 384.384 87.3695 381.74 84.0258C380.374 82.4849 379.037 80.7695 377.73 78.9087C376.422 77.0479 374.969 75.4197 373.429 74.0822C373.429 74.2567 373.371 74.5474 373.284 74.9545C373.196 75.3615 373.138 75.6523 373.138 75.8267C373.138 79.7228 373.342 83.6479 373.749 87.5439C374.155 91.4399 374.62 95.3941 375.114 99.3192C375.608 103.273 376.073 107.228 376.48 111.182C376.887 115.136 377.09 119.119 377.09 123.102V123.248C376.916 124.149 376.712 125.225 376.48 126.446C376.248 127.667 376.044 128.917 375.87 130.197C375.608 131.65 375.376 133.162 375.201 134.703H373.429V133.482C373.255 133.482 373.109 133.569 373.022 133.744C372.935 133.918 372.848 134.064 372.761 134.151C372.296 134.965 371.831 135.576 371.337 135.983C370.843 136.39 370.349 136.768 369.913 137.146C369.448 137.495 368.983 137.873 368.489 138.25C367.995 138.599 367.501 139.123 367.065 139.762C366.891 139.762 366.571 139.762 366.106 139.704C365.641 139.646 365.176 139.588 364.682 139.501C364.188 139.413 363.724 139.355 363.317 139.297C362.91 139.239 362.648 139.239 362.561 139.239C362.387 139.239 362.096 139.326 361.748 139.501L361.195 139.762C359.917 139.762 358.958 139.559 358.261 139.152C357.563 138.745 356.866 138.163 356.139 137.436L355.878 137.029L355.791 137.262ZM336.845 38.8726C336.496 38.8726 336.293 39.1052 336.293 39.5413C336.293 39.9774 336.467 40.21 336.845 40.21C337.106 40.21 337.252 39.9774 337.252 39.5413C337.252 39.1052 337.106 38.8726 336.845 38.8726ZM365.583 138.076C365.118 138.076 364.915 138.309 364.915 138.745C364.915 139.181 365.147 139.413 365.583 139.413C365.845 139.413 365.99 139.181 365.99 138.745C365.99 138.309 365.845 138.076 365.583 138.076ZM433.405 55.6197C433.056 55.6197 432.853 55.8523 432.853 56.2884C432.853 56.7245 433.027 56.9571 433.405 56.9571C433.783 56.9571 433.957 56.7245 433.957 56.2884C433.957 55.8523 433.783 55.6197 433.405 55.6197ZM440.35 67.0752V67.8893C440.699 67.6276 440.902 67.3369 440.902 67.0752L441.164 66.8135L440.902 66.5518L440.35 67.1043V67.0752ZM441.164 39.1342C440.902 39.1342 440.757 39.3668 440.757 39.8029C440.757 40.2391 440.902 40.4717 441.164 40.4717C441.628 40.4717 441.832 40.2391 441.832 39.8029C441.832 39.3668 441.599 39.1342 441.164 39.1342ZM444.563 62.3069C444.563 63.4118 444.389 64.4585 444.011 65.5051C443.662 66.5518 443.227 67.5985 442.704 68.6452C442.21 69.6919 441.774 70.7386 441.396 71.7853C441.047 72.832 440.844 73.9369 440.844 75.1289V77.4549C440.931 77.106 441.105 76.5827 441.396 75.8849C441.687 75.1871 442.006 74.5184 442.413 73.8496C442.82 73.1809 443.285 72.5703 443.779 72.0761C444.273 71.5818 444.854 71.2329 445.493 71.0585C445.493 70.9712 445.406 70.8549 445.232 70.7095C445.057 70.5642 444.97 70.4479 444.97 70.3606V69.8082C445.057 69.6338 445.348 69.2558 445.842 68.7034C446.336 68.151 446.685 67.8893 446.859 67.8893V67.0752L446.191 66.5228C446.191 66.3483 446.307 66.2029 446.539 66.1157C446.772 66.0285 446.888 65.8831 446.888 65.7087C446.975 65.7959 447.062 65.854 447.149 65.854C447.324 65.854 447.469 65.7959 447.556 65.7087C448.457 64.7201 449.387 63.1792 450.346 61.1439C451.305 59.1087 451.77 57.3642 451.77 55.9104V53.3809C451.77 52.1598 451.712 50.8805 451.624 49.5721C451.537 48.2637 451.363 47.1007 451.159 46.0831C450.927 45.0946 450.578 44.5712 450.142 44.5712C450.055 44.5712 449.881 44.5712 449.59 44.6294C449.329 44.6875 449.096 44.6875 448.922 44.6875L445.115 58.1783V55.5906C444.563 55.7651 444.244 56.0267 444.098 56.3466C443.953 56.6664 443.866 57.0153 443.837 57.4514C443.779 57.8585 443.75 58.2364 443.692 58.6144C443.633 58.9633 443.43 59.254 443.081 59.4285C443.43 59.5157 443.633 59.9228 443.633 60.6496C443.633 61.4637 443.314 61.9289 442.674 62.0162C442.035 62.1034 441.716 62.5686 441.716 63.3827V63.7897C442.442 63.7025 442.994 63.4408 443.343 62.9756C443.692 62.5104 444.127 62.3069 444.563 62.3069ZM443.343 21.951C442.878 21.951 442.674 22.1836 442.674 22.6197C442.674 23.0558 442.907 23.2884 443.343 23.2884C443.604 23.2884 443.75 23.0558 443.75 22.6197C443.75 22.1836 443.604 21.951 443.343 21.951ZM443.895 22.5034C443.633 22.5034 443.488 22.736 443.488 23.1721C443.488 23.6082 443.633 23.8408 443.895 23.8408C444.36 23.8408 444.563 23.6082 444.563 23.1721C444.563 22.736 444.331 22.5034 443.895 22.5034ZM446.22 76.6118C446.045 76.7862 445.784 77.0188 445.464 77.2805C445.144 77.5421 444.999 77.7747 444.999 77.9492V78.5016C445.261 78.4144 445.493 78.1818 445.667 77.8329C445.842 77.484 446.016 77.0479 446.22 76.6118ZM446.481 45.6761V44.7166H445.813L446.481 45.6761ZM447.149 42.943C446.801 42.943 446.597 43.1756 446.597 43.6118C446.597 44.0479 446.772 44.2805 447.149 44.2805C447.527 44.2805 447.702 44.0479 447.702 43.6118C447.702 43.1756 447.527 42.943 447.149 42.943ZM447.963 72.2505C447.702 72.5122 447.556 72.7448 447.556 72.9192H447.963L448.225 72.6576L448.631 72.2505H447.963ZM448.225 41.0532C448.225 40.7915 448.108 40.6461 447.876 40.6461C447.643 40.6461 447.614 40.7915 447.818 41.0532C447.818 41.2276 447.876 41.3148 448.021 41.3148C448.166 41.3148 448.225 41.2276 448.225 41.0532ZM448.225 37.7968C448.05 37.7968 447.963 38.0294 447.963 38.4655C447.963 38.9016 448.05 39.1342 448.225 39.1342C448.573 39.1342 448.777 38.9016 448.777 38.4655C448.777 38.0294 448.602 37.7968 448.225 37.7968ZM449.3 68.4708C448.951 68.4708 448.748 68.7034 448.748 69.1395C448.748 69.5756 448.922 69.8082 449.3 69.8082C449.561 69.8082 449.707 69.5756 449.707 69.1395C449.707 68.7034 449.561 68.4708 449.3 68.4708ZM449.3 74.3439C448.951 74.3439 448.748 74.4893 448.748 74.8091C448.748 75.1289 448.922 75.2743 449.3 75.2743C449.561 75.2743 449.707 75.1289 449.707 74.8091C449.707 74.4893 449.561 74.3439 449.3 74.3439ZM450.113 41.6347C449.765 41.8091 449.561 42.2743 449.561 43.0012V43.8153L450.113 41.6347ZM449.852 70.3897C449.852 70.3897 449.707 70.506 449.707 70.7386C449.707 70.9712 449.765 71.0875 449.852 71.0875C450.113 71.0003 450.259 70.884 450.259 70.7386C450.259 70.5933 450.113 70.4769 449.852 70.3897ZM450.956 41.6347C450.491 41.6347 450.288 41.8673 450.288 42.3034C450.288 42.7395 450.52 42.9721 450.956 42.9721C451.218 42.9721 451.363 42.7395 451.363 42.3034C451.363 41.8673 451.218 41.6347 450.956 41.6347ZM451.218 65.7668C451.218 65.7668 451.072 65.6214 450.811 65.6214C450.549 65.6214 450.491 65.6796 450.665 65.7668C450.665 66.0285 450.753 66.1739 450.927 66.1739C451.101 66.1739 451.189 66.0285 451.189 65.7668H451.218ZM452.583 62.0743C452.409 61.8999 452.206 61.9289 451.973 62.1325C451.741 62.3651 451.683 62.4814 451.77 62.4814C452.031 62.6558 452.235 62.6849 452.38 62.5395C452.525 62.3941 452.583 62.2488 452.583 62.0743ZM470.018 129.935C469.553 129.935 469.35 130.139 469.35 130.546C469.35 130.953 469.582 131.156 470.018 131.156C470.193 131.156 470.28 130.953 470.28 130.546C470.28 130.139 470.193 129.935 470.018 129.935Z"/>
        <path d="M251.064 74.7223C252.691 75.5073 254.027 76.0597 255.277 76.7575C265.273 82.3108 275.153 88.1258 285.294 93.4174C291.222 96.5284 297.469 99.2614 303.833 101.326C311.359 103.768 319.234 105.135 326.876 107.257C330.886 108.362 333.472 111.676 336.204 114.555C337.947 116.416 339.4 118.509 341.231 120.806C341.231 123.219 341.26 126.243 341.231 129.267C341.231 129.965 341.057 130.691 340.737 131.302C339.662 133.337 338.5 135.343 337.308 137.32C336.32 139.007 335.536 140.955 334.112 142.234C333.269 143.019 331.409 143.106 330.102 142.903C327.516 142.525 324.929 141.943 322.488 141.071C312.522 137.495 302.38 134.239 292.733 129.935C284.277 126.156 276.257 121.387 268.353 116.532C261.495 112.287 255.742 106.676 250.279 100.744C246.821 97.0227 243.073 93.1557 237.29 92.487C234.442 92.1672 233.106 93.0104 233.774 95.8306C235.111 101.413 236.767 106.937 238.016 112.549C239.498 119.207 241.126 125.952 240.109 132.785C239.731 135.343 238.249 138.105 236.447 139.966C233.948 142.525 230.752 144.531 227.585 146.363C226.335 147.09 224.301 147.09 222.79 146.712C218.344 145.636 214.247 143.775 210.992 140.344C209.685 138.978 207.68 138.222 206.546 136.797C205.384 135.314 204.367 133.337 204.251 131.535C204.077 128.336 204.251 124.993 205.006 121.853C207.215 112.432 206.721 103.39 202.827 94.406C201.287 90.8588 199.369 87.6897 196.986 84.6659C193.877 80.7117 192.802 75.9143 193.935 71.146C195.824 63.2086 198.236 55.3875 200.735 47.5954C201.432 45.4439 202.885 43.3795 204.483 41.6932C208.203 37.739 212.155 33.9883 216.136 30.2958C217.472 29.0747 219.187 28.2315 220.814 27.3883C225.086 25.1787 229.27 22.7945 233.745 21.0209C239.033 18.8985 244.438 16.8342 249.988 15.7002C255.015 14.6826 260.333 14.5954 265.476 14.828C271.317 15.0897 275.24 18.1716 277.652 23.754C279.308 27.5628 280.238 31.5461 279.976 35.2967C279.657 39.5126 277.855 43.8157 275.937 47.7117C273.816 52.0438 270.91 56.0562 268.15 60.0976C265.186 64.4297 261.67 68.1804 256.643 70.4482C254.667 71.3496 253.127 73.0941 251.064 74.7223ZM237.232 43.6121C235.401 44.5135 233.774 45.4148 232.089 46.1126C226.015 48.5839 221.395 52.8579 217.095 57.5681C215.729 59.08 216.078 60.7082 217.705 61.7258C220.117 63.2377 222.47 64.8659 224.882 66.4068C225.434 66.7557 226.19 67.1919 226.742 67.0756C230.461 66.2905 234.239 65.6218 237.813 64.3716C242.898 62.6271 247.954 60.6209 252.836 58.324C260.391 54.7769 266.116 49.1654 270.155 41.9549C270.591 41.1408 270.736 39.8905 270.474 38.9892C269.138 34.4535 264.285 32.4183 260.275 36.0527C256.439 39.5126 252.052 42.4201 247.722 45.3566C244.409 47.5954 239.934 46.7231 237.261 43.5831L237.232 43.6121Z"/>
        <path d="M182.66 64.7495C181.469 65.9997 180.016 67.0755 179.144 68.5001C176.79 72.4543 174.553 76.4667 172.548 80.5953C170.833 84.1424 167.957 86.3231 164.499 87.7477C158.774 90.1609 152.934 92.3416 147.151 94.6094C142.269 96.4993 137.358 95.9759 132.418 94.842C131.489 94.6385 130.559 94.4059 129.309 94.086C129.019 95.5107 128.699 96.8482 128.525 98.1856C127.624 104.844 126.927 111.56 125.822 118.189C125.532 119.905 125.706 120.631 127.333 120.951C132.477 121.969 137.62 123.103 142.792 123.946C145.727 124.411 148.749 124.586 151.713 124.527C153.369 124.527 155.026 123.684 156.682 123.481C157.699 123.364 159.268 123.452 159.762 124.062C161.68 126.563 163.54 129.208 164.876 132.058C165.399 133.192 165.109 135.489 164.237 136.361C162.232 138.425 162.116 140.838 161.767 143.281C161.477 145.316 160.663 147.235 158.542 147.584C155.026 148.165 151.423 148.601 147.877 148.398C142.734 148.078 137.562 147.468 132.535 146.392C124.428 144.647 116.524 141.653 108.358 140.577C101.646 139.705 98.3042 135.75 95.2822 130.953C94.3814 129.499 93.9455 127.202 94.3814 125.574C96.6479 117.084 99.176 108.623 101.82 100.25C104.639 91.2949 106.702 82.2235 107.545 72.8905C108.504 62.3363 109.433 51.753 110.712 41.2279C111.671 33.3777 114.112 26.0217 118.325 19.0729C120.243 15.9037 122.016 14.0138 125.735 14.2755C126.665 14.3336 127.798 14.4499 128.496 14.9733C130.849 16.7469 133.203 16.1654 135.789 15.7002C140.235 14.8861 144.768 14.3918 149.272 13.8394C153.951 13.2579 158.658 12.7636 163.336 12.2984C169.845 11.6297 175.86 12.9381 181.556 16.2526C185.973 18.8403 186.176 19.7997 181.992 22.8817C181.672 23.1143 181.207 23.3759 181.12 23.7248C180.335 26.4869 177.633 28.2605 176.761 30.7028C174.175 37.9425 167.608 38.0588 161.854 39.3671C156.595 40.5592 151.161 41.2279 145.785 41.7803C142.821 42.0711 141.368 43.4667 140.7 46.1125C139.131 52.4217 137.504 58.7019 135.876 64.9821C135.295 67.2209 136.051 67.9768 138.346 67.7733C143.402 67.279 148.517 67.2499 153.486 66.3486C161.506 64.9239 169.555 65.0112 177.633 64.8949C179.173 64.8949 180.684 64.168 182.224 63.7609C182.369 64.0808 182.515 64.3715 182.66 64.6913V64.7495Z"/>
        <path d="M47.6009 24.1322C37.7501 22.7656 28.3644 21.8352 19.1529 20.0035C14.4455 19.0731 10.174 16.0784 5.46654 14.8573C1.42746 13.7815 1.48557 10.2925 0.0326669 7.70484C-0.228856 7.21057 1.13688 5.02995 2.0958 4.76828C4.97255 3.92511 8.05272 3.75066 10.9585 3.05286C12.2371 2.76211 13.3994 1.80264 14.5908 1.163C14.4164 0.785022 14.2712 0.377973 14.0968 0C21.5938 0.523348 29.0908 1.22114 36.6169 1.51189C43.3003 1.77357 50.0127 1.65727 56.7251 1.51189C61.7522 1.42467 66.9245 1.62819 71.8063 0.668722C79.681 -0.901321 86.8003 2.00617 94.2101 3.25639C99.7021 4.18678 101.039 5.34978 105.804 10.8449C100.08 13.4617 94.6169 16.3401 88.8634 18.4335C84.3885 20.0617 79.5067 20.6141 74.8283 21.748C72.5909 22.3004 70.9927 23.0855 70.5277 26.0511C68.5227 38.815 66.2271 51.5498 63.8153 64.2555C61.1129 78.444 63.2341 92.3418 65.2101 106.385C66.4015 114.817 65.7331 123.51 66.3434 132.058C66.5468 134.937 68.2903 137.67 68.9586 140.548C69.4235 142.467 69.9466 144.851 69.2201 146.479C68.4646 148.078 66.2562 149.823 64.5418 149.968C62.0137 150.201 59.3404 149.096 56.7542 148.602C54.0227 148.078 51.2331 146.974 48.5598 147.206C41.673 147.788 39.5517 144.386 40.7141 137.64C42.5738 126.825 43.0968 116.038 42.9225 105.135C42.7481 93.592 41.8764 81.9912 42.6319 70.5066C43.5618 56.1436 45.8574 41.8969 47.5427 27.5921C47.688 26.3418 47.5427 25.0335 47.5427 24.1322H47.6009Z"/>
    </g>
</svg>
