<svg height="150" width="436" viewBox="0 0 436 150" fill="none" xmlns="http://www.w3.org/2000/svg">
    <g fill="#32468a">
        <path d="M382.828 50.1086C383.93 52.3756 385.369 54.2291 387.157 55.5934C388.949 56.9819 390.791 58.1916 392.688 59.2707C394.055 60.026 395.378 60.8117 396.689 61.6974C401.922 65.34 407.28 68.8186 412.811 72.1266L413.739 72.6936C414.357 73.1291 415.061 73.4793 415.801 73.7265C416.54 73.9736 417.234 74.0546 417.857 73.9725L418.12 73.9377C419.015 73.6967 419.871 73.5347 420.71 73.4241C425.599 72.7799 428.346 74.7563 428.951 79.3536C429.078 80.3214 429.095 81.3776 429.029 82.5433C428.479 92.2649 427.759 101.985 426.87 111.726C426.665 113.132 426.145 114.554 425.382 115.984L424.722 117.449C424.339 118.435 423.957 119.421 423.581 120.455C422.767 122.975 421.714 125.353 420.394 127.546C418.534 130.277 416.255 132.227 413.583 133.416C410.912 134.605 408.085 135.543 405.08 136.235C403.849 136.52 402.649 136.85 401.432 137.232C400.16 137.572 398.879 137.84 397.585 138.01C394.445 138.424 391.4 138.259 388.423 137.494C384.282 136.415 380.235 134.93 376.256 133.042C375.041 132.513 373.852 132.005 372.715 131.515C366.026 128.483 361.37 124.222 358.753 118.783C356.108 113.322 354.255 107.388 353.189 100.956C353.122 100.448 353.196 99.8965 353.414 99.3263C353.631 98.7561 353.913 98.3006 354.258 97.9597C357.427 95.1789 360.941 93.5344 364.752 93.0322C366.549 92.7953 368.429 92.8183 370.413 93.0738C373.281 93.5575 375.494 94.8165 377.027 96.8299C378.584 98.8402 379.902 101.079 381.03 103.539C381.744 105.07 382.286 106.598 382.664 108.173C383.09 109.742 383.653 111.243 384.333 112.704C385.013 114.165 386.018 115.51 387.395 116.707C390.828 119.824 394.607 121.122 398.705 120.582C399.089 120.532 399.517 120.451 399.963 120.318C405.18 118.646 407.955 114.908 408.337 109.098C408.935 104.933 409.935 100.863 411.368 96.9321C411.845 95.3677 411.999 93.9443 411.828 92.6378C411.493 90.0972 409.913 88.0901 407.095 86.6891C406.048 86.1379 405.089 85.5257 404.194 84.8315C403.108 83.99 401.969 83.3031 400.753 82.774C394.919 80.4906 388.98 78.344 382.944 76.3825C373.504 73.1958 365.502 67.9733 358.947 60.7634C356.118 57.05 354.461 53.3545 353.984 49.7251C353.229 43.9906 355.411 38.3369 360.506 32.7671C364.446 28.4325 368.822 24.6312 373.655 21.3359C378.896 17.8144 383.532 15.8004 387.51 15.2762C388.469 15.1498 389.416 15.1234 390.325 15.176C394.87 15.4386 399.751 17.3307 404.969 20.8524C408.395 22.9855 411.855 25.0156 415.372 26.9152C415.61 27.0562 415.896 27.1908 416.206 27.3223C418.324 28.594 419.919 30.1561 421.016 32.0054C422.112 33.8548 422.766 35.4916 422.951 36.895C423.046 37.6209 423.046 38.3594 422.967 39.059C422.656 41.5123 421.761 43.5996 420.229 45.3029C418.722 47.0031 416.828 47.9911 414.575 48.2879L413.809 48.389C411.815 48.4302 409.746 48.0874 407.582 47.388C405.441 46.6855 403.605 45.6968 402.14 44.3882C400.152 42.804 398.686 42.0372 397.721 42.1152C396.756 42.1931 396.127 42.2268 395.863 42.2616C394.401 42.4542 392.953 42.9404 391.517 43.6958C389.376 44.8396 387.368 46.261 385.471 47.9633C384.595 48.7188 383.713 49.4258 382.831 50.1328L382.828 50.1086Z"/>
        <path d="M296.051 143.77C291.227 143.77 288.664 143.77 288.362 143.77C288.161 143.669 288.011 143.569 287.91 143.468C287.91 143.367 287.91 143.216 287.91 143.015C287.91 142.814 287.759 142.612 287.458 142.411C287.156 142.21 286.754 142.109 286.252 142.109C285.85 142.109 285.649 142.059 285.649 141.958C285.649 141.858 285.548 141.757 285.347 141.656C284.342 141.153 283.588 140.7 283.086 140.298C282.583 139.895 282.081 139.493 281.578 139.09C281.176 138.587 280.975 138.235 280.975 138.033L280.221 135.92C279.518 134.712 279.166 134.058 279.166 133.957C279.166 133.756 279.066 133.555 278.865 133.353C278.06 132.548 277.608 132.146 277.508 132.146C277.407 132.045 277.357 131.945 277.357 131.844C277.859 130.435 278.111 129.529 278.111 129.127V126.258C278.111 124.245 278.01 122.937 277.809 122.333V122.182H277.96C278.06 122.182 278.111 121.88 278.111 121.277C278.111 119.968 278.01 119.163 277.809 118.861C277.608 118.559 277.508 118.257 277.508 117.955C277.005 114.534 276.754 112.269 276.754 111.162C276.754 110.458 276.854 109.904 277.055 109.502L277.357 107.237L277.658 102.859C278.161 102.054 278.412 100.997 278.412 99.6892C278.412 99.0853 278.513 98.3305 278.714 97.4247C279.015 95.9151 279.216 93.1978 279.317 89.2729C279.518 86.4549 279.719 84.8447 279.92 84.4421C280.121 83.9389 280.221 82.9828 280.221 81.5738C280.221 80.2655 280.171 79.4604 280.071 79.1585C279.97 78.8565 279.87 78.6049 279.769 78.4037C279.769 77.9004 279.87 77.2463 280.071 76.4412C280.272 75.636 280.473 75.0322 280.674 74.6296C280.975 74.1264 281.176 73.6735 281.277 73.271C281.076 72.8684 280.975 72.5162 280.975 72.2142C281.076 71.9123 281.176 71.4594 281.277 70.8556C281.578 69.346 281.729 68.1383 281.729 67.2325C281.729 66.2261 281.779 65.7229 281.88 65.7229C282.081 65.7229 282.232 65.5216 282.332 65.1191C282.332 63.6095 282.382 62.3515 282.483 61.345C282.684 60.3386 282.784 59.3826 282.784 58.4768C283.086 56.3633 283.237 54.8537 283.237 53.948C283.237 52.4383 283.387 51.2307 283.689 50.3249L283.84 49.5701L283.538 48.6643L283.99 47.6076L283.84 45.7961L284.292 43.3807L283.84 42.324C283.94 42.022 284.091 41.7704 284.292 41.5691L284.443 40.5124C284.644 39.506 284.744 38.5499 284.744 37.6442C284.744 36.6378 284.895 35.6817 285.196 34.7759C285.397 34.5746 285.498 34.2224 285.498 33.7192C285.598 33.1153 285.649 32.7631 285.649 32.6624C285.749 32.4612 285.85 32.3102 285.95 32.2096C286.151 32.0083 286.302 31.656 286.403 31.1528C286.403 28.2343 286.503 26.6743 286.704 26.473C286.604 26.0705 285.096 25.6679 282.181 25.2654C281.277 25.0641 280.623 24.9131 280.221 24.8125C279.92 24.6112 279.618 24.5105 279.317 24.5105C279.116 24.4099 278.915 24.3093 278.714 24.2086C278.613 24.108 278.563 24.0073 278.563 23.9067C278.664 23.8061 278.764 23.7557 278.865 23.7557C278.965 23.7557 279.267 23.6048 279.769 23.3029C280.272 22.9003 280.674 22.699 280.975 22.699C281.277 22.5984 281.578 22.5481 281.88 22.5481C283.186 22.5481 283.84 22.3468 283.84 21.9442L283.538 21.1894C283.538 20.8875 283.739 20.6359 284.141 20.4346C284.543 20.1327 284.945 19.9817 285.347 19.9817L285.8 20.1327H285.649C285.548 20.2333 285.297 20.3843 284.895 20.5856C284.593 20.6862 284.342 20.9378 284.141 21.3404C284.141 21.441 284.493 21.4913 285.196 21.4913C286.202 21.4913 286.704 21.3404 286.704 21.0384L286.403 20.2836C286.403 20.0824 286.553 19.8811 286.855 19.6798C287.257 19.4785 287.458 19.2269 287.458 18.925L287.307 18.3211C287.307 17.4154 287.86 16.9625 288.965 16.9625C289.066 17.0631 289.116 17.1638 289.116 17.2644C289.116 17.3651 289.317 17.4154 289.719 17.4154C289.92 17.3147 290.272 17.2644 290.775 17.2644C291.378 17.1638 292.031 17.0631 292.734 16.9625C296.252 16.8619 298.966 16.7109 300.876 16.5096C304.092 16.3083 306.152 16.0567 307.057 15.7548C308.062 15.4529 309.117 15.3019 310.223 15.3019C311.228 15.3019 312.283 15.4026 313.389 15.6038L315.348 15.7548C316.052 15.7548 316.957 15.6542 318.062 15.4529C319.871 15.151 321.63 15 323.339 15C325.148 15 326.354 15.151 326.957 15.4529C327.661 15.7548 328.264 15.9058 328.766 15.9058L329.218 15.7548C329.319 15.7548 329.369 15.8554 329.369 16.0567L329.218 16.9625C329.218 17.1638 329.419 17.2644 329.821 17.2644C330.324 17.2644 330.827 17.4657 331.329 17.8683C331.832 18.1702 332.083 18.4721 332.083 18.774L331.781 19.2269C331.781 19.3275 332.133 19.3779 332.837 19.3779C334.445 19.3779 335.299 19.5792 335.4 19.9817C335.4 20.183 334.998 20.3843 334.193 20.5856C333.389 20.7868 332.987 21.0384 332.987 21.3404L333.741 22.3971C333.741 22.699 333.54 22.85 333.138 22.85L331.781 22.5481L331.48 22.699L333.59 23.7557C333.188 23.7557 332.987 23.957 332.987 24.3596C332.987 24.4602 333.088 24.6112 333.289 24.8125C333.49 25.0137 333.842 25.1144 334.344 25.1144C334.445 25.215 334.495 25.4163 334.495 25.7182C334.495 25.9195 334.596 26.0202 334.797 26.0202C334.998 26.0202 335.098 26.0705 335.098 26.1711C334.596 26.6743 334.193 26.9259 333.892 26.9259C333.691 26.9259 333.59 26.8253 333.59 26.624C333.59 26.4227 333.44 26.3221 333.138 26.3221C332.334 26.3221 331.681 26.6743 331.178 27.3788C331.178 27.6807 330.827 27.8317 330.123 27.8317C329.419 27.8317 328.917 27.9826 328.615 28.2846C328.213 28.3852 327.761 28.4355 327.259 28.4355C326.857 28.4355 326.505 28.5865 326.203 28.8884C325.902 29.1903 325.65 29.3916 325.449 29.4923C325.248 29.4923 324.897 29.4923 324.394 29.4923C323.49 29.3916 321.781 29.3413 319.268 29.3413L314.142 29.1903C309.419 29.1903 305.7 29.0394 302.986 28.7375C302.986 36.2855 302.936 40.1099 302.835 40.2105C302.735 40.2105 302.685 40.5627 302.685 41.2672C302.685 41.8711 302.685 42.4749 302.685 43.0788C302.785 43.582 302.936 44.538 303.137 45.947L302.835 48.0605C303.137 49.2682 303.338 52.2874 303.438 57.1181C303.438 59.3322 303.438 61.2444 303.438 62.8547C303.539 64.4649 303.639 65.3204 303.74 65.421L303.891 66.9306C303.891 67.8364 303.79 68.6918 303.589 69.4969C303.79 69.8995 303.891 70.5034 303.891 71.3085C303.891 72.9187 303.941 73.7239 304.041 73.7239L305.7 73.5729C306.805 73.5729 307.81 73.4219 308.715 73.12C310.826 72.4155 313.188 72.0633 315.801 72.0633C316.504 72.0633 317.158 71.9123 317.761 71.6104C317.962 71.6104 318.112 71.6607 318.213 71.7614C318.313 71.862 321.077 71.9123 326.505 71.9123C326.706 72.013 326.857 72.1136 326.957 72.2142C327.158 72.2142 327.259 72.3149 327.259 72.5162C327.359 72.6168 327.661 72.8181 328.163 73.12C328.766 73.3213 329.419 73.5226 330.123 73.7239C330.927 73.8245 331.58 73.8748 332.083 73.8748C332.585 73.8748 332.937 74.0761 333.138 74.4787C333.44 74.7806 333.741 74.9315 334.043 74.9315C334.344 74.9315 334.495 75.0825 334.495 75.3844L334.344 76.894C334.344 77.196 334.445 77.3972 334.646 77.4979C334.847 77.4979 334.998 77.5985 335.098 77.7998V78.8565C334.998 79.0578 334.797 79.1585 334.495 79.1585C334.294 79.1585 334.193 79.3094 334.193 79.6113C334.193 79.9133 334.344 80.0642 334.646 80.0642C334.646 80.1649 334.545 80.3158 334.344 80.5171C333.741 80.819 333.138 80.97 332.535 80.97C332.033 80.97 331.681 81.0706 331.48 81.2719C331.379 81.3725 331.279 81.4732 331.178 81.5738C331.078 81.5738 330.877 81.5738 330.575 81.5738C330.274 81.5738 330.123 81.7751 330.123 82.1777C330.123 82.4796 328.565 83.0834 325.449 83.9892C324.947 84.1905 324.495 84.3918 324.093 84.5931C323.791 84.6937 323.59 84.8447 323.49 85.0459C323.49 85.1466 323.389 85.1969 323.188 85.1969L321.831 84.744C320.525 84.9453 319.218 85.0963 317.911 85.1969C316.605 85.2975 315.751 85.4485 315.348 85.6498L311.881 85.9517C309.871 85.9517 308.765 86.0523 308.564 86.2536C308.464 86.3543 308.313 86.4549 308.112 86.5555C307.81 86.2536 307.609 86.1027 307.509 86.1027C306.906 86.3039 306.353 86.4549 305.851 86.5555H305.097C305.097 86.6562 305.097 86.8575 305.097 87.1594C305.197 87.3607 305.248 87.8639 305.248 88.669C305.248 92.8959 305.398 95.6132 305.7 96.8209L305.549 97.7267C305.549 98.6324 305.549 99.1356 305.549 99.2363C305.65 99.2363 306.152 100.394 307.057 102.708C307.358 103.312 307.609 103.614 307.81 103.614L307.207 104.973C307.207 105.073 307.358 105.124 307.66 105.124C307.961 105.124 308.112 105.879 308.112 107.388L308.414 108.143V109.2C308.715 109.804 308.916 110.206 309.017 110.407C309.218 110.508 309.318 110.911 309.318 111.615C309.318 112.219 309.419 112.621 309.62 112.823C309.921 113.024 310.223 113.427 310.524 114.03C310.926 116.144 311.228 117.754 311.429 118.861C311.73 119.868 311.881 120.673 311.881 121.277C311.78 121.277 311.73 121.327 311.73 121.428L312.032 122.182L311.579 124.9C311.579 125.705 311.68 126.51 311.881 127.315C312.183 128.02 312.484 128.422 312.786 128.523C313.087 128.623 313.539 128.674 314.142 128.674C315.248 128.674 316.102 128.573 316.705 128.372C316.906 128.17 317.158 128.07 317.459 128.07C317.861 127.969 318.414 127.869 319.117 127.768C319.922 127.667 320.776 127.516 321.68 127.315C326.706 126.409 331.631 125.956 336.455 125.956C337.661 125.956 338.666 125.956 339.47 125.956C340.375 125.856 340.877 125.755 340.978 125.654H341.128L343.541 127.013C344.345 127.617 344.797 127.919 344.897 127.919L346.254 128.523C344.546 128.523 343.641 128.825 343.541 129.428C343.541 129.63 343.842 130.032 344.445 130.636C344.144 130.837 343.943 131.089 343.842 131.391C343.842 131.693 343.541 131.844 342.938 131.844C342.435 131.844 342.033 131.945 341.731 132.146C341.53 132.347 341.43 132.699 341.43 133.203C341.43 133.605 340.525 133.907 338.716 134.108C337.912 134.31 337.309 134.561 336.907 134.863C336.606 135.064 335.199 135.517 332.686 136.222C330.173 136.926 328.666 137.278 328.163 137.278C327.661 137.278 327.259 137.429 326.957 137.731C326.655 138.033 326.354 138.285 326.052 138.486C325.751 138.587 325.5 138.637 325.299 138.637C322.283 139.342 318.313 140.499 313.389 142.109C312.484 142.512 311.831 142.763 311.429 142.864C311.027 142.965 308.816 143.216 304.795 143.619L302.986 143.468C301.78 143.468 300.976 143.518 300.574 143.619C300.272 143.719 298.765 143.77 296.051 143.77Z"/>
        <path d="M213.876 28.9733C204.415 27.6593 195.401 26.7647 186.555 25.0034C182.034 24.1088 177.931 21.2293 173.41 20.0551C169.531 19.0207 169.587 15.6659 168.192 13.1778C167.94 12.7025 169.252 10.6058 170.173 10.3542C172.936 9.54343 175.894 9.37569 178.685 8.70473C179.913 8.42517 181.029 7.5026 182.173 6.88755C182.006 6.52412 181.866 6.13272 181.699 5.76929C188.899 6.27251 196.099 6.94347 203.327 7.22303C209.746 7.47464 216.192 7.36281 222.639 7.22303C227.467 7.13916 232.434 7.33486 237.123 6.41229C244.686 4.90263 251.523 7.69829 258.64 8.90043C263.914 9.79504 265.198 10.9133 269.775 16.1971C264.277 18.7132 259.03 21.4809 253.505 23.4938C249.207 25.0594 244.518 25.5905 240.025 26.6808C237.876 27.212 236.342 27.9668 235.895 30.8184C233.969 43.0914 231.765 55.3364 229.448 67.5534C226.853 81.1962 228.89 94.5595 230.788 108.063C231.932 116.17 231.29 124.529 231.876 132.748C232.072 135.516 233.746 138.144 234.388 140.912C234.835 142.757 235.337 145.049 234.639 146.615C233.914 148.152 231.793 149.83 230.146 149.97C227.718 150.193 225.151 149.131 222.667 148.656C220.044 148.152 217.364 147.09 214.797 147.314C208.183 147.873 206.146 144.602 207.262 138.116C209.048 127.716 209.55 117.344 209.383 106.86C209.215 95.7616 208.378 84.607 209.104 73.5641C209.997 59.7535 212.202 46.0548 213.82 32.3001C213.96 31.098 213.82 29.8399 213.82 28.9733H213.876Z"/>
        <path d="M172.037 133.274C170.394 128.256 168.587 123.266 166.615 118.385C162.097 107.281 159.496 95.7103 158.51 83.7833C158.428 82.8785 159.414 81.2883 160.262 80.9867C164.069 79.6432 168.012 78.6287 172.037 77.4771C171.681 77.2303 171.216 76.8465 170.668 76.6271C166.561 74.9272 162.398 73.3095 158.318 71.5547C157.606 71.2531 156.62 70.5677 156.566 70.0193C156.045 64.1792 155.197 58.3116 155.443 52.4989C155.772 44.8766 158.866 37.4462 157.141 29.5771C155.909 23.9838 154.95 18.363 150.706 13.9486C149.638 12.8245 148.406 10.7955 148.734 9.5617C149.665 6.05215 147.885 4.43446 145.257 3.33772C142.6 2.21357 139.807 1.3636 137.014 0.568465C132.031 -0.857293 129.101 0.321699 126.801 4.98283C124.227 10.2197 121.488 15.4292 119.599 20.9403C112.233 42.6283 108.536 65.1114 105.579 87.7864C103.963 100.125 101.964 112.408 99.6914 124.637C98.8973 128.941 97.7746 132.616 103.06 134.699C105.661 135.714 107.934 137.578 110.535 138.51C114.369 139.881 117.49 137.304 117.545 133.246C117.627 129.133 117.627 125.021 118.011 120.935C119.051 109.913 120.311 98.8909 121.461 87.8687C121.817 84.5785 123.131 82.6866 126.883 83.3995C128.334 83.6737 129.895 83.564 131.401 83.4817C137.151 83.235 142.902 82.9334 148.953 82.6318C149.693 91.3234 150.651 99.7408 151.089 108.186C151.5 115.945 151.308 123.732 151.527 131.491C151.555 132.616 152.13 134.261 152.979 134.754C156.484 136.811 160.071 138.812 163.877 140.21C165.684 140.868 168.286 140.759 169.983 139.909C172.475 138.648 172.859 135.823 172.01 133.274H172.037ZM125.705 72.2676C130.607 59.3261 135.234 47.1249 140.218 33.9915C142.573 46.6588 144.791 58.4487 147.036 70.6225C139.835 71.1709 133.126 71.6918 125.705 72.2676Z"/>
        <path d="M20.3522 120.384C23.2284 119.007 25.9796 117.692 28.6057 116.44C36.609 112.747 44.2059 109.085 51.3964 105.454C51.9592 105.141 52.3968 104.64 52.7095 103.951C53.0221 103.2 53.3035 102.386 53.5536 101.51L53.9287 100.383C54.3664 99.0059 54.7416 97.5661 55.0542 96.0637C55.5544 92.7459 56.6799 90.0854 58.4306 88.0822C60.8066 85.766 61.9946 83.2307 61.9946 80.4763V79.9129C61.9321 74.4667 61.682 69.0204 61.2443 63.5742C61.0567 61.6336 60.9317 59.6617 60.8691 57.6585V56.9073C60.8691 51.8993 60.3064 47.0791 59.1809 42.4467C57.7428 37.1883 56.0546 34.0896 54.1163 33.1506C52.178 32.149 50.271 31.6482 48.3952 31.6482C46.3318 31.6482 43.9246 32.0238 41.1734 32.775C38.2972 33.4636 35.2022 34.0896 31.8883 34.653C30.1376 34.9034 28.293 35.2164 26.3547 35.592C26.2922 39.661 26.2297 43.7926 26.1672 47.9868C26.1672 58.2532 25.9171 68.7387 25.4168 79.4434C25.0417 84.7018 24.3539 89.9602 23.3535 95.2186C22.8533 98.1608 22.4156 101.103 22.0404 104.045C21.6028 107.551 21.2276 111.182 20.915 114.938C20.7274 116.69 20.5398 118.506 20.3522 120.384ZM33.6703 135.408C31.9821 138.037 30.5127 139.54 29.2622 139.915C28.0117 140.228 27.1051 140.385 26.5423 140.385C24.7916 140.385 22.6032 139.759 19.9771 138.507C18.1013 137.505 16.2568 137.004 14.4435 137.004C13.0679 137.004 11.6924 137.286 10.3168 137.849C9.31638 138.35 8.44102 138.601 7.69071 138.601C7.1905 138.601 6.75282 138.507 6.37766 138.319C5.37724 137.943 4.75198 136.785 4.50188 134.845C4.3143 133.28 4.03293 131.715 3.65778 130.15C3.15757 128.021 2.84494 125.861 2.71988 123.67C2.15715 105.767 1.71947 87.8318 1.40684 69.8656C1.28178 61.8527 1.21926 53.8086 1.21926 45.7332L1.03168 27.5165C0.969154 26.7653 0.812839 25.9828 0.562735 25.169C0.375156 24.543 0.250104 23.917 0.187578 23.291C0.0625261 22.665 0 22.0703 0 21.5069C0 18.5647 1.53189 16.3737 4.59567 14.9339C6.22134 14.3079 7.81576 13.7132 9.37891 13.1498C13.6932 11.7726 17.6949 9.9885 21.3839 7.79749C23.5098 6.42029 25.5106 5.73169 27.3864 5.73169C27.7616 5.73169 28.1367 5.76299 28.5119 5.82559C30.7003 6.07599 32.9512 6.67069 35.2647 7.60969C35.4523 7.67229 35.6711 7.73489 35.9212 7.79749C39.3602 8.9243 42.8929 9.8007 46.5194 10.4267C46.9571 10.5519 47.426 10.6458 47.9262 10.7084C57.055 12.2734 64.2455 16.7493 69.4977 24.1361C73.687 30.4588 76.9696 37.1883 79.3456 44.3247C80.5336 48.8319 81.1901 53.5269 81.3152 58.4097C81.3777 60.4755 81.5027 62.4787 81.6903 64.4193C81.6903 64.5445 81.659 64.6697 81.5965 64.7949C81.5965 64.9201 81.5653 65.0453 81.5027 65.1705C81.4402 65.3583 81.3777 65.5148 81.3152 65.64C81.3152 65.7026 81.3152 65.7652 81.3152 65.8278V65.9217C82.1905 69.49 82.6282 72.9956 82.6282 76.4386C82.6282 81.3214 81.7528 86.1416 80.0021 90.8992C79.3143 93.3406 78.7203 95.7507 78.2201 98.1295C78.0951 98.9433 78.0325 99.7884 78.0325 100.665C78.0325 101.291 78.0638 101.948 78.1263 102.637C78.1889 103.263 78.2201 103.857 78.2201 104.421C78.2201 105.735 78.0325 106.956 77.6574 108.083C75.9067 112.465 73.3118 116.158 69.8729 119.163C62.1822 125.235 54.1163 130.682 45.6753 135.502C44.5498 136.003 43.2368 136.253 41.7362 136.253C40.7357 136.253 39.6103 136.128 38.3597 135.877C36.8591 135.627 35.296 135.471 33.6703 135.408Z"/>
    </g>
</svg>
