<svg xmlns="http://www.w3.org/2000/svg" viewBox="0 0 100 100" fill="#32468a">
    <path d="m91.05,84.93c-.01-.68-.01-1.37-.01-2.06,0-1.91,0-3.89-.26-5.85-1.72-13.28-12.69-23-26.08-23.11-8.52-.07-17.76-.07-29.07,0-2.09.01-4.15.24-6.12.67-11.23,2.47-19.61,12.16-20.39,23.57-.22,3.16-.2,6.36-.18,9.46,0,1.09.01,2.17,0,3.26-.01,2.79.82,5.11,2.4,6.7,1.59,1.59,3.91,2.43,6.72,2.43h41.31c3.16,0,6.32,0,9.48,0,4.43,0,8.85,0,13.27,0,5.28,0,8.87-3.56,8.92-8.86.02-1.98.03-4.1,0-6.21Zm-74.98-6.07c.39-6.52,3.57-11.67,9.44-15.31,2.9-1.79,6.17-2.7,9.71-2.71h5.82c3.79-.02,7.65-.02,11.52-.02s8.01,0,11.99.03c9.93.06,17.87,6.94,19.31,16.73.22,1.48.21,3,.21,4.62,0,.55,0,1.09,0,1.64.03,2.03.02,4.06,0,6.1v1.34c0,1.35-.42,1.76-1.76,1.76H17.87c-.81,0-1.36-.13-1.61-.37-.3-.3-.36-1.02-.36-1.56,0-1.17,0-2.35,0-3.52,0-2.87-.02-5.84.15-8.72Z"/>
    <path d="m50,50.85s.04,0,.06,0c13.94,0,25.31-11.36,25.35-25.35.04-14.01-11.31-25.45-25.3-25.5h-.08c-13.98,0-25.38,11.37-25.43,25.38-.03,6.77,2.59,13.15,7.36,17.95,4.8,4.83,11.21,7.5,18.05,7.52Zm-18.44-25.55c.02-4.91,1.96-9.52,5.47-12.99,3.49-3.45,8.1-5.35,12.99-5.35h.08c4.96.04,9.61,2.01,13.08,5.56,3.42,3.49,5.35,8.24,5.29,13.04-.12,10.13-8.41,18.35-18.49,18.35h-.07c-10.16-.04-18.4-8.39-18.36-18.6Z"/>
</svg>