<svg xmlns="http://www.w3.org/2000/svg" viewBox="0 0 28 28" fill="#32468A">
    <path d="M26 7.94016e-06C26.5054 -0.00141547 26.9927 0.188585 27.3637 0.531801C27.7348 0.875017 27.9621 1.34599 28 1.85001V26C28.0014 26.5054 27.8114 26.9927 27.4682 27.3637C27.125 27.7348 26.654 27.9621 26.15 28H2.00001C1.49457 28.0014 1.00734 27.8114 0.636292 27.4682C0.265248 27.125 0.037914 26.654 7.94016e-06 26.15V2.00001C-0.00141547 1.49457 0.188585 1.00734 0.531801 0.636292C0.875017 0.265248 1.34599 0.037914 1.85001 7.94016e-06H2.00001H26ZM13 11L10.5776 7.77009C10.5776 7.77009 10.2806 7.2929 10 7.2929C9.7194 7.2929 9.42245 7.77009 9.42245 7.77009L7.00001 11V19H2.00001V26H26V19H23V23H13V11ZM26 2.00001H2.00001V17H5.00001V11C4.99858 10.4946 5.18859 10.0073 5.5318 9.63629C5.80904 9.33658 8.09241 6.41226 9.33275 4.83959C9.62795 4.4653 10 4.5 10 4.5C10 4.5 10.3982 4.45884 10.7069 4.83959C11.8727 6.27758 13.8736 8.87976 14.3637 9.5318C14.5778 9.81664 14.9621 10.346 15 10.85V21H21V19C20.9986 18.4946 21.1886 18.0073 21.5318 17.6363C21.875 17.2652 22.346 17.0379 22.85 17H26V2.00001ZM10 11C10.2652 11 10.5196 11.1054 10.7071 11.2929C10.8947 11.4804 11 11.7348 11 12C11 12.2652 10.8947 12.5196 10.7071 12.7071C10.5196 12.8947 10.2652 13 10 13C9.73479 13 9.48044 12.8947 9.2929 12.7071C9.10536 12.5196 9.00001 12.2652 9.00001 12C9.00001 11.7348 9.10536 11.4804 9.2929 11.2929C9.48044 11.1054 9.73479 11 10 11ZM20 5.00001C20.7957 5.00001 21.5587 5.31608 22.1213 5.87869C22.6839 6.4413 23 7.20436 23 8.00001C23 8.79566 22.6839 9.55872 22.1213 10.1213C21.5587 10.6839 20.7957 11 20 11C19.2044 11 18.4413 10.6839 17.8787 10.1213C17.3161 9.55872 17 8.79566 17 8.00001C17 7.20436 17.3161 6.4413 17.8787 5.87869C18.4413 5.31608 19.2044 5.00001 20 5.00001ZM20 7.00001C19.7348 7.00001 19.4804 7.10537 19.2929 7.2929C19.1054 7.48044 19 7.73479 19 8.00001C19 8.26522 19.1054 8.51958 19.2929 8.70711C19.4804 8.89465 19.7348 9.00001 20 9.00001C20.2652 9.00001 20.5196 8.89465 20.7071 8.70711C20.8947 8.51958 21 8.26522 21 8.00001C21 7.73479 20.8947 7.48044 20.7071 7.2929C20.5196 7.10537 20.2652 7.00001 20 7.00001Z"/>
</svg>