<svg width="50" height="50" viewBox="0 0 50 50" xmlns="http://www.w3.org/2000/svg">
    <path fill="#32468a" d="M49.9317 6.57724C49.9035 2.69667 47.0974 0.0247715 43.3977 0.017577C31.0685 -0.00654563 18.7394 -0.00583822 6.41041 0.0196951C2.65283 0.0292172 0.0241128 2.67382 0.0171328 6.40394C-0.00571093 18.8006 -0.00571093 31.1973 0.0171328 43.5941C0.0253819 47.5053 2.57901 49.9794 6.53309 49.9908C12.667 50.0084 18.7995 49.9955 24.9326 49.995C31.0657 49.9946 37.1993 50.0046 43.3324 49.9908C47.0654 49.9825 49.9014 47.4844 49.9291 43.7672C50.0228 31.3709 50.0236 18.9743 49.9317 6.57724ZM39.1482 5.59795C44.0877 5.59795 44.0877 5.59795 44.0875 10.5854C44.0875 15.4072 44.0875 15.4072 39.0604 15.4076C34.1727 15.4076 34.1727 15.4076 34.1744 10.5778C34.1742 5.59858 34.1742 5.59858 39.1482 5.59795ZM24.7935 15.1981C30.8536 15.0483 35.107 20.2019 35.0149 24.9835C34.9121 30.337 30.501 34.5995 24.88 34.597C19.5961 34.7476 14.8141 30.6453 14.8839 24.8918C14.958 18.825 19.6234 15.3257 24.7935 15.1981ZM44.3276 41.6827C44.3161 43.574 43.4656 44.3216 41.4795 44.3277C35.9109 44.345 30.3424 44.3336 24.7738 44.3338C19.3308 44.3338 13.8873 44.3328 8.44329 44.3307C6.15892 44.3262 5.36911 43.5816 5.36108 41.3312C5.33852 35.1344 5.33732 28.9375 5.35748 22.7407C5.3615 20.9757 5.77353 20.8403 8.73158 21.0597C10.3344 21.1784 9.6963 22.083 9.55459 22.8949C8.10169 31.2249 14.0616 38.9676 22.452 40.331C30.4126 41.6247 39.2886 36.3952 40.4776 26.9535C40.6863 25.2941 40.42 23.7145 40.0757 22.1353C39.9065 21.3619 40.0998 21.0788 40.8492 21.0838C41.5375 21.0883 42.2272 21.1113 42.9136 21.0747C43.9619 21.0185 44.3582 21.4979 44.3548 22.5284C44.3339 28.9133 44.3661 35.2982 44.328 41.6827H44.3276Z"/>
</svg>
