<svg width="200" height="250" viewBox="0 0 200 250" xmlns="http://www.w3.org/2000/svg" class="logo_picture">
    <path fill="#32468a" d="M186.826 89.4365C178.587 87.4892 170.305 88.2731 162.06 89.6198C159.685 90.0055 157.323 90.4607 154.955 90.8906C160.133 87.4512 165.526 84.6631 171.09 82.2164C174.992 80.503 178.863 78.7265 182.452 76.3746C185.035 74.6802 185.305 72.3789 183.323 69.9638C182.274 68.6867 180.974 67.713 179.397 67.3653C175.98 66.613 172.52 66.2463 169.004 66.4675C156.207 67.2705 143.679 69.9385 131.09 72.2145C128.729 72.6444 126.33 73.4158 123.771 72.6697C124.465 71.0386 125.434 69.8689 126.403 68.7056C129.937 64.4571 134.152 60.9482 138.274 57.3571C142.716 53.4879 147.342 49.8209 151.403 45.5091C152.673 44.1562 154.017 42.6767 153.305 40.5398C152.397 37.8275 150.784 35.7538 147.992 34.8434C145.802 34.1227 143.563 34.1037 141.324 34.2238C125.956 35.0837 112.152 40.3944 99.8391 49.8842C98.8391 50.6555 97.8146 51.3825 96.7533 52.059C96.4404 52.255 95.876 52.3688 95.5876 52.2108C94.9373 51.8567 95.4895 51.3636 95.6122 50.9084C97.0907 45.6293 99.6919 40.8875 103.097 36.7907C111.477 26.7003 119.986 16.7048 130.735 9.11168C132.354 7.96734 133.943 6.60172 133.532 4.34466C133.09 1.9169 131.066 1.05707 128.98 0.525997C128.262 0.342651 127.495 0.36794 126.753 0.279428C122.606 -0.239001 118.465 0.0771142 114.311 0.323684C104.367 0.924302 94.514 2.56178 85.4773 6.75978C62.7535 17.3117 45.7291 34.148 36.4837 58.2738C31.6003 71.0322 31.2445 84.2648 36.8702 97.3014C32.1034 96.0812 26.9991 95.6639 22.0605 94.1845C17.2569 92.743 12.2814 92.2815 7.31215 91.9274C6.67411 91.8832 5.87657 91.7947 5.51461 92.5154C5.09744 93.331 5.87044 93.7419 6.31215 94.1908C8.0422 95.9231 9.83974 97.5732 11.5452 99.3308C15.306 103.219 19.8335 106.203 23.49 110.237C24.7906 111.666 24.582 112.266 23.1341 113.272C17.4839 117.198 12.036 121.434 5.83363 124.449C4.72321 124.987 3.71094 125.802 2.77844 126.637C1.94409 127.377 1.64347 128.401 2.51463 129.349C4.87045 131.922 7.22626 134.255 11.1403 134.211C17.5636 134.135 23.8703 133.048 30.2261 132.384C30.9623 132.308 31.9071 131.808 32.3672 132.371C33.0298 133.18 31.9991 133.895 31.6617 134.584C27.9378 142.152 23.8949 149.536 19.717 156.845C10.7293 172.556 2.58212 188.564 0.612806 207.151C-0.264489 215.427 -0.583505 223.564 2.34286 231.486C6.29375 242.189 16.7599 250.162 26.8028 249.998C34.1463 249.877 40.404 246.817 45.4346 241.424C57.2259 228.78 60.8333 213.164 60.0296 196.214C59.4897 184.853 56.7781 173.852 53.0358 163.205C49.956 154.442 46.2873 145.895 42.8334 137.265C41.9622 135.09 41.1954 132.965 41.9254 130.569C43.9745 123.855 45.1647 116.945 46.2689 110.016C47.1094 104.755 47.1769 104.692 52.2014 104.8C52.864 104.812 53.5327 104.844 54.1953 104.85C56.5695 104.882 58.9498 104.8 58.5756 108.492C58.4897 109.345 58.9866 110.325 59.3977 111.154C60.8639 114.131 63.2013 114.814 66.0234 113.145C67.962 112.001 69.416 110.37 70.2565 108.245C70.8209 106.81 71.5694 106.336 73.1215 106.722C76.827 107.651 80.5939 108.309 84.3116 109.2C95.1827 111.798 105.434 116.357 115.974 119.992C127.661 124.026 138.925 129.052 149.753 135.096C157.133 139.218 164.176 143.713 167.612 152.236C168.017 153.247 168.691 154.272 169.98 154.221C171.293 154.164 171.698 152.982 172.164 152.008C174.526 147.083 177.378 142.487 180.428 137.973C185.796 130.026 191.262 122.154 196.704 114.264C198.495 111.666 199.869 108.814 199.986 105.514C200.286 97.1433 195.845 91.586 186.832 89.4554L186.826 89.4365ZM22.4163 100.76C24.1464 100.583 25.4409 101.43 26.8212 101.721C30.6555 102.517 34.539 102.852 38.4162 103.213C40.1524 103.371 40.1831 104.129 39.6984 105.552C38.8457 108.049 37.9807 110.559 37.4346 113.139C36.9009 115.661 35.9439 115.099 34.7537 113.803C32.1831 111.008 29.6924 108.131 27.1096 105.356C25.7353 103.877 24.2261 102.524 22.4163 100.76ZM30.3856 126.384C26.9869 126.055 23.6556 126.763 20.1648 127.067C23.9194 124.626 27.6494 122.129 31.447 119.771C32.5635 119.075 34.0604 119.252 35.0236 119.948C35.9745 120.637 34.8396 121.8 34.8028 122.78C34.7046 125.758 33.085 126.643 30.3795 126.384H30.3856ZM46.8149 181.084C47.6248 187.615 49.0726 194.089 48.7659 200.722C48.3548 209.592 46.4898 218.228 43.5205 226.498C41.0788 233.294 36.1463 238.263 30.0666 241.842C24.0605 245.376 20.4593 244.522 15.8397 239.155C11.3428 233.926 9.63115 227.617 9.42256 220.934C8.94404 205.28 12.6495 190.53 19.7538 176.766C24.6311 167.321 29.6065 157.932 34.3856 148.43C34.5758 148.057 34.8089 147.703 35.2813 146.906C40.177 158.255 45.3058 168.996 46.8088 181.084H46.8149ZM192.519 102.201C189.857 108.176 185.673 113.12 181.998 118.399C177.691 124.595 172.974 130.481 169.213 137.088C167.612 139.901 167.145 139.926 165.096 137.473C160.569 132.049 154.98 128.116 148.888 124.848C135.882 117.874 122.201 112.646 108.293 107.942C99.0723 104.825 90.011 101.177 80.4957 99.0337C73.0234 97.352 65.4038 96.7008 57.8517 95.5501C54.41 95.0254 51.0051 94.2098 47.5634 93.685C45.4223 93.3626 44.4101 92.0981 43.8763 90.094C41.9684 82.9055 42.1401 75.6791 43.68 68.497C47.2199 51.9389 56.14 38.877 68.3854 27.8636C78.6859 18.6014 90.1275 11.9061 103.68 9.36457C108.655 8.43519 113.661 7.79664 119.33 7.45523C116.373 10.7049 113.808 13.5562 111.207 16.3633C106.33 21.6361 101.465 26.9216 97.0723 32.6433C93.3116 37.543 90.4527 42.8854 89.422 49.1508C88.3545 55.6375 94.2195 60.9988 100.293 59.0262C102.379 58.3497 104.256 57.2307 105.98 55.884C115.735 48.272 127.201 45.1867 138.87 42.6515C139.483 42.5187 140.152 42.6325 140.084 42.6325C136.833 46.2868 133.354 50.3899 129.667 54.2845C126.36 57.7807 122.624 60.847 119.833 64.8364C116.759 69.2367 116.802 71.8541 119.686 76.0585C121.244 78.3282 123.465 78.9857 125.962 79.1058C131.9 79.384 137.692 78.0816 143.532 77.304C150.692 76.3556 157.845 75.3504 165.004 74.3767C165.354 74.5158 165.808 74.4526 165.98 74.9331C160.569 78.1132 154.857 80.7433 149.692 84.3596C147.305 86.0287 144.716 87.9001 145.624 91.3078C146.514 94.6397 149.238 96.3088 152.501 96.8082C156.606 97.4341 160.606 96.4036 164.606 95.7587C172.366 94.5133 180.109 93.8431 187.881 95.5122C188.532 95.6513 189.176 95.822 189.802 96.0369C193.286 97.2318 194.023 98.7998 192.501 102.195L192.519 102.201Z"/>
</svg>