<svg xmlns="http://www.w3.org/2000/svg" viewBox="0 0 334.06 63.37" class="logo_animation">
    <g>
        <path class="cls-2" d="m300.81,25.73c.56.27,1.02.46,1.45.7,3.44,1.91,6.84,3.91,10.33,5.73,2.04,1.07,4.19,2.01,6.38,2.72,2.59.84,5.3,1.31,7.93,2.04,1.38.38,2.27,1.52,3.21,2.51.6.64,1.1,1.36,1.73,2.15,0,.83.01,1.87,0,2.91,0,.24-.06.49-.17.7-.37.7-.77,1.39-1.18,2.07-.34.58-.61,1.25-1.1,1.69-.29.27-.93.3-1.38.23-.89-.13-1.78-.33-2.62-.63-3.43-1.23-6.92-2.35-10.24-3.83-2.91-1.3-5.67-2.94-8.39-4.61-2.36-1.46-4.34-3.39-6.22-5.43-1.19-1.28-2.48-2.61-4.47-2.84-.98-.11-1.44.18-1.21,1.15.46,1.92,1.03,3.82,1.46,5.75.51,2.29,1.07,4.61.72,6.96-.13.88-.64,1.83-1.26,2.47-.86.88-1.96,1.57-3.05,2.2-.43.25-1.13.25-1.65.12-1.53-.37-2.94-1.01-4.06-2.19-.45-.47-1.14-.73-1.53-1.22-.4-.51-.75-1.19-.79-1.81-.06-1.1,0-2.25.26-3.33.76-3.24.59-6.35-.75-9.44-.53-1.22-1.19-2.31-2.01-3.35-1.07-1.36-1.44-3.01-1.05-4.65.65-2.73,1.48-5.42,2.34-8.1.24-.74.74-1.45,1.29-2.03,1.28-1.36,2.64-2.65,4.01-3.92.46-.42,1.05-.71,1.61-1,1.47-.76,2.91-1.58,4.45-2.19,1.82-.73,3.68-1.44,5.59-1.83,1.73-.35,3.56-.38,5.33-.3,2.01.09,3.36,1.15,4.19,3.07.57,1.31.89,2.68.8,3.97-.11,1.45-.73,2.93-1.39,4.27-.73,1.49-1.73,2.87-2.68,4.26-1.02,1.49-2.23,2.78-3.96,3.56-.68.31-1.21.91-1.92,1.47h0Zm-4.76-10.7c-.63.31-1.19.62-1.77.86-2.09.85-3.68,2.32-5.16,3.94-.47.52-.35,1.08.21,1.43.83.52,1.64,1.08,2.47,1.61.19.12.45.27.64.23,1.28-.27,2.58-.5,3.81-.93,1.75-.6,3.49-1.29,5.17-2.08,2.6-1.22,4.57-3.15,5.96-5.63.15-.28.2-.71.11-1.02-.46-1.56-2.13-2.26-3.51-1.01-1.32,1.19-2.83,2.19-4.32,3.2-1.14.77-2.68.47-3.6-.61h0Z"/>
        <path class="cls-2" d="m52.8,36.59c1.14.35,2.16.67,3.19.99,3.98,1.21,6.45,3.87,7.32,7.81.51,2.33-.01,4.51-2.11,6.17-1.61,1.27-3.34,2.19-5.26,2.92-1.24.47-2.37,1.31-3.4,2.17-1.8,1.5-3.46,3.17-5.22,4.72-.39.34-.95.53-1.47.68-.68.19-1.26.01-1.78-.57-.37-.42-.93-.7-1.46-.93-.48-.21-.82-.41-.85-1-.03-.41-.32-.81-.36-1.23-.11-1.04-.88-1.16-1.7-1.36-2.47-.61-4.09-2.18-4.96-4.5-.1-.27-.09-.59-.08-.88.05-1.37.15-2.73.17-4.1.07-3.97.01-7.95.23-11.92.08-1.55-.25-2.75-1.27-3.87-2.22-2.46-1.47-3.83.37-6.52.29-.42.44-.93.67-1.4.1-.2.18-.47.36-.58,1.61-.99,3.25-1.93,4.86-2.93,3.63-2.27,7.57-3.15,11.82-2.48,1.93.31,3.42,1.41,4.69,2.86,1.19,1.36,2.05,2.81,2.39,4.62.53,2.82-.34,5.19-2.11,7.29-1,1.18-2.2,2.21-3.31,3.31-.21.21-.4.43-.7.76h0Zm-9.01,4.24l-.26.11c.07.86.12,1.73.23,2.59.21,1.53.42,3.05.72,4.56.07.34.39.78.71.91,1.24.5,2.53.9,3.8,1.31.22.07.49.13.71.07,2-.51,3.98-1.06,5.66-2.31.29-.22.58-.59.63-.92.17-1.15-.14-2.16-1.04-3-1.21-1.13-2.79-1.51-4.27-2.1-.78-.31-1.49-.3-2.27-.01-1.03.37-2.08.35-3.06-.25-.52-.32-1.04-.64-1.57-.96h0Zm-1.3-9.35c1.59-.7,3.07-.62,4.61-.2.91.25,1.83-.1,2.6-.71,1.46-1.16,2.21-2.74,2.62-4.48.17-.7.14-1.49-.6-1.93-1.11-.66-2.33-1.18-3.57-.41-2.03,1.24-3.94,2.66-5.39,4.57-.71.94-.47,2-.27,3.17h0Z"/>
        <path class="cls-2" d="m242.21,37.67c.74,1.22,1.41,2.1,1.84,3.08.65,1.49.07,3.11-1.33,3.99-.58.37-1.21.71-1.86.92-.98.31-1.67.9-2.3,1.67-1.06,1.3-2.29,2.39-3.96,2.88-1.12.33-1.84-.09-2.63-.89-.82-.84-1.83-1.51-2.84-2.13-.3-.18-.87.11-1.32.1-2.85-.05-5.71-.17-8.38-1.23-.88-.35-1.75-.97-2.37-1.68-2.18-2.45-2.61-5.44-2.37-8.56.06-.78.34-1.57,1.35-1.81.6-.14.92-.63.73-1.24-.36-1.17.07-2.23.45-3.27,1.91-5.18,3.81-10.35,4.97-15.75.1-.47.44-.9.69-1.4-.75-.7-1.58-1.4-2.32-2.18-.91-.95-1.58-2.03-1.55-3.41.02-.72.34-1.15,1.07-1.32,1.67-.39,3.28-.47,4.97.15,2.24.81,4.61,1.25,6.83,2.09,4.67,1.77,8.76,4.35,10.79,9.13.6,1.4.9,2.96,1.11,4.47.26,1.82.39,3.67.35,5.5-.04,1.63-.33,3.28-.64,4.89-.22,1.13-.56,2.19-.5,3.4.05.96-.58,1.96-.8,2.62h0Zm-7.49-1.07c1.05.26,1.8-.24,2.35-1,1.56-2.14,2.32-4.5,1.71-7.13-.75-3.24-2.33-6.11-4.15-8.87-.73-1.1-1.73-1.91-2.92-2.47-.61-.29-1.09-.18-1.25.52-.32,1.39-.54,2.8-.91,4.17-.48,1.8-1,3.6-1.63,5.35-.66,1.82-1.47,3.59-2.22,5.37-.15.36-.25.76-.49,1.04-.73.85-1.53,1.63-2.26,2.48-.97,1.13-.64,2.85.69,3.57.25.14.57.21.86.21.48,0,.96-.08,1.43-.13.96-.09,1.93-.13,2.52-1.09.12-.19.34-.35.55-.45,1.8-.9,3.71-1.41,5.73-1.56Z"/>
        <path class="cls-2" d="m31.27,26.71c-.41.43-.91.8-1.21,1.29-.81,1.36-1.58,2.74-2.27,4.16-.59,1.22-1.58,1.97-2.77,2.46-1.98.83-3.98,1.58-5.97,2.36-1.68.65-3.37.47-5.07.08-.32-.07-.64-.15-1.07-.26-.1.49-.21.95-.27,1.41-.31,2.29-.55,4.6-.93,6.88-.1.59-.04.84.52.95,1.77.35,3.54.74,5.32,1.03,1.01.16,2.05.22,3.07.2.57,0,1.14-.29,1.71-.36.35-.04.89-.01,1.06.2.66.86,1.3,1.77,1.76,2.75.18.39.08,1.18-.22,1.48-.69.71-.73,1.54-.85,2.38-.1.7-.38,1.36-1.11,1.48-1.21.2-2.45.35-3.67.28-1.77-.11-3.55-.32-5.28-.69-2.79-.6-5.51-1.63-8.32-2-2.31-.3-3.46-1.66-4.5-3.31-.31-.5-.46-1.29-.31-1.85.78-2.92,1.65-5.83,2.56-8.71.97-3.08,1.68-6.2,1.97-9.41.33-3.63.65-7.27,1.09-10.89.33-2.7,1.17-5.23,2.62-7.62.66-1.09,1.27-1.74,2.55-1.65.32.02.71.06.95.24.81.61,1.62.41,2.51.25,1.53-.28,3.09-.45,4.64-.64,1.61-.2,3.23-.37,4.84-.53,2.24-.23,4.32.22,6.27,1.36,1.52.89,1.59,1.22.15,2.28-.11.08-.27.17-.3.29-.27.95-1.2,1.56-1.5,2.4-.89,2.49-3.15,2.53-5.13,2.98-1.81.41-3.68.64-5.53.83-1.02.1-1.52.58-1.75,1.49-.54,2.17-1.1,4.33-1.66,6.49-.2.77.06,1.03.85.96,1.74-.17,3.5-.18,5.21-.49,2.76-.49,5.53-.46,8.31-.5.53,0,1.05-.25,1.58-.39.05.11.1.21.15.32h0Z"/>
        <path class="cls-2" d="m193.11,55.57c-3.08.04-6.1-.39-9.01-1.34-1.08-.35-2.06-1.09-3-1.78-1.38-1.01-2.78-2.04-3.96-3.25-.83-.86-1.36-2.03-1.92-3.1-.14-.28.06-.74.13-1.11.3-1.48.83-2.95.9-4.44.15-3.33,1.33-6.37,2.39-9.47,1.16-3.4,3.13-6.36,5.01-9.37.53-.85.84-1.62.88-2.62.02-.51.43-1.16.87-1.47,1.59-1.12,3.34-1.66,5.37-1.31,1.01.17,2.08-.05,3.13-.09,2.13-.07,4.27-.27,6.4-.17,1.73.08,3.44.5,5.15.83.43.08.85.33,1.2.6.56.44.45,1.03-.07,1.62-.29.32-.39.81-.6,1.2-.17.31-.31.73-.59.87-.8.42-1.68.69-2.5,1.08-1.19.57-2.35,1.15-3.36,2.09-1.27,1.19-2.94,1.86-4.72,1.85-4.04-.01-3.43.11-5.52,3.27-.6.91-.65,2.19-.9,3.32-.13.6.19.85.83.84,1.28-.03,2.57-.12,3.83.02,1.21.13,2.44.41,3.58.84,1.32.5,1.54,1.56,1.04,2.86-.26.66-.23,1.45-.22,2.18,0,.7-.26,1.23-.89,1.4-1.38.38-2.78.77-4.2.94-1.06.13-2.17-.06-3.25-.15-1.06-.08-1.23.03-1.24,1.1-.01,1.23.04,2.45-.02,3.68-.04.86.41,1.06,1.12.97,1.98-.23,3.96-.43,5.93-.75,3.12-.5,6.2-1.2,9.33-1.57,1.64-.19,3.38-.37,4.98.56,1.46.85,1.96,1.83,1.65,3.48-.13.7.14,1.53-.16,2.12-.36.72-1.04,1.65-1.73,1.79-4.45.93-8.93,1.68-13.41,2.44-.8.13-1.64.02-2.46.02h0Z"/>
        <path class="cls-2" d="m104.07,38.32c-.18.94-.35,1.79-.49,2.65-.48,3.01-.94,6.03-1.42,9.04-.06.4-.11.96-.39,1.14-.5.33-1.18.66-1.73.58-.73-.1-.9.28-1.14.72-.11.21-.18.44-.28.66-.34.75-.82,1.3-1.68.43-.54-.54-1.2-.98-1.87-1.35-1.7-.94-1.5-2.49-1.24-3.93.66-3.62,1.43-7.21,1.51-10.93.06-3.11.5-6.21.8-9.32.35-3.63,1.34-7.12,2.67-10.51.32-.82.81-1.62,1.42-2.26.29-.31,1.11-.43,1.55-.26,1.99.78,3.53,2.19,4.87,3.79.88,1.05.82,2.47.5,3.62-.44,1.57-.06,3.03.13,4.5.45,3.5,1.79,6.72,3.49,9.81.1.18.25.33.47.64.29-.74.47-1.41.8-2.02.85-1.59,1.33-3.23,1.21-5.06-.06-.86.18-1.76.36-2.63.24-1.1.82-1.94,1.93-2.43.36-.16.66-.6.82-.99.81-1.95,1.03-4.02,1.19-6.11.13-1.74.79-3.16,2.6-3.85,1.39-.53,2.92-.14,3.64,1.13,1.02,1.8,2.04,3.61,2.35,5.69.25,1.68-.05,3.35-.65,4.92-.81,2.15-1.79,4.23-2.65,6.36-.64,1.61-1.21,3.24-1.76,4.88-.5,1.49-1.04,2.97-1.35,4.5-.4,1.97-.53,4-.88,5.99-.19,1.11-.56,2.19-.91,3.27-.13.38-.35.83-.67,1.04-.73.48-1.44.89-1.85,1.74-.1.22-.94.32-1.29.15-1.29-.6-2.41-1.43-3.09-2.76-.26-.52-.68-.99-1.09-1.41-.51-.53-.71-1.09-.64-1.82.16-1.53-.71-2.72-1.47-3.93-1.14-1.8-2.24-3.61-3.37-5.41-.04-.07-.14-.1-.4-.26h0Z"/>
        <path class="cls-2" d="m261.13,47.88c3.42-1.04,6.67-2.01,9.91-3.02.44-.14.8-.52,1.24-.69,1.28-.51,3.38.01,4,1.2.36.68.21,1.62.27,2.45.01.14-.08.3-.05.43.39,1.37.08,2.43-1.18,3.1-1.81.95-3.67,1.85-5.57,2.6-2.36.92-4.75,1.78-7.19,2.47-2.74.77-5.58.68-8.38.33-1.27-.16-2.35-.89-3.26-1.84-.85-.89-.76-3.08.59-3.74.21-.1.44-.45.41-.65-.11-.99-.31-1.98-.47-2.96-.3-1.87-.58-3.74-.91-5.61-.06-.32-.32-.62-.51-.92-.26-.4-.6-.76-.78-1.2-.45-1.08-.74-2.2.4-3.05.69-.52.81-1.24.88-1.96.17-1.86.32-3.73.38-5.6.04-1.35-.23-2.72-.11-4.05.14-1.54-.19-3.31,1.5-4.34.6-.37,1.25-.76,1.93-.92,3-.69,5.79-1.9,8.58-3.15,2.04-.92,4.08-1.85,6.17-2.65.65-.25,1.55-.29,2.18-.04,1.13.44,2.36.99,3.13,1.85.58.64,1.18,1.64.94,2.75-.05.23.03.56.18.74.64.76.32,1.42-.32,1.84-1.18.77-2.4,1.51-3.7,2.08-2.29,1.01-4.68,1.81-6.96,2.84-2.1.95-2.18,1.35-1.72,3.58.15.72.21,1.52.04,2.21-.23.9.16,1.24.86,1.59,1.58.78,3.01,1.74,4.09,3.17.91,1.21.62,2.6.67,3.93.01.3-.51.82-.87.91-1.98.5-3.99.92-6,1.31-.52.1-.85.15-.77.8.16,1.35.26,2.71.4,4.24h0Z"/>
        <path class="cls-2" d="m86.7,25.75c-.58.71-1.04,1.27-1.5,1.83-.21.25-.36.58-.62.76-.92.63-1.12,1.65-1.32,2.57-.28,1.3-1.08,2.06-2.18,2.55-1.51.68-3.08.77-4.69.2-.7-.25-1.44-.39-2.4-.65.14,2.23.26,4.28.4,6.45h1.78c2.02,0,4.04.03,6.06-.01.93-.02,1.87-.14,2.78-.34.5-.11.99-.41,1.39-.74.69-.56,1.29-.56,1.97.05.26.24.59.41.9.59.56.33.85.75.89,1.44.03.52.33,1.03.47,1.55.06.23.11.49.04.71-.22.74-.51,1.46-.74,2.19-.26.83-1.12,1.49-2.25,1.46-1.35-.04-2.71-.18-4.05-.34-2.62-.32-5.24-.57-7.83.07-2.37.58-4.71.27-6.92-.46-1.94-.64-2.99-2.18-3.31-4.3-.49-3.23-.59-6.47-.49-9.71.11-3.54.29-7.08.54-10.62.11-1.53.51-3.03.67-4.56.06-.63-.08-1.34-.32-1.94-.4-1.02-.94-1.86-.39-3.11.48-1.1,1.42-1.16,2.21-1.46,2.48-.93,5.07-.8,7.67-.6,1.84.14,3.69.22,5.53.2,1.33-.01,2.27.72,3.31,1.32.03.01.04.04.06.07.83.92,1.24,4.03.71,5.16-1.16,2.46-.94,2.26-3.66,2.25-1.16,0-2.31.03-3.47.03-.79,0-1.12.34-1.19,1.13-.03.4-.37.82-.65,1.15-.61.72-1.4,1.32-1.87,2.11-.49.83-.12,1.32.86,1.28,1.6-.07,3.2-.17,4.78-.38,1.43-.19,2.78-.09,4.05.58,1,.52,1.99,1.08,2.78,1.51h0Z"/>
        <path class="cls-2" d="m143.05,36.81c.65.76,1.25,1.58,1.97,2.29,2.75,2.69,5.57,5.31,8.29,8.03,1.03,1.03,1.96,2.2,2.71,3.44.8,1.32.45,2.68-.57,3.69-.82.82-1.88.77-2.88.75-1.94-.03-3.52-1.02-5-2.14-3.42-2.58-6-5.85-8.03-9.58-.51-.94-1.05-1.86-1.69-3-.37.77-.74,1.32-.91,1.93-.45,1.64-1.81,2.64-2.85,3.83-1.04,1.18-2.54.78-3.89.45-1.44-.35-2.08-1.64-3.04-2.56-1.22-1.16-.89-2.3-.28-3.54,1.55-3.16,3.34-6.22,4.3-9.65.58-2.07,1.28-4.1,1.87-6.16.09-.31-.02-.74-.18-1.05-.26-.49-.17-.77.22-1.16.46-.46.79-1.06,1.16-1.62.44-.66.78-1.4,1.31-1.98.3-.32.96-.61,1.36-.52,2.15.47,4.14-.22,6.18-.64,2-.41,4.01-.4,5.89.39,2.57,1.07,3.97,3.11,4.23,5.8.22,2.41.17,4.82-1.08,7.05-1.28,2.27-3.05,3.85-5.73,4.44-1.15.25-2.19.95-3.37,1.49h0Zm-1.95-5.93c2.18,1.03,3.69.67,5.03-1.11.11-.14.25-.26.36-.4.99-1.39,1.45-2.94,1.26-4.63-.11-.94-.63-1.35-1.44-1.22-.71.12-1.41.31-2.11.49-1.06.27-1.74.96-1.99,1.99-.4,1.63-.75,3.28-1.11,4.88Z"/>
        <path class="cls-2" d="m167.69,26.89c0,2.47-.1,4.55.03,6.62.12,1.95.46,3.88.72,5.82.21,1.62.44,3.23.67,4.84.31,2.23.69,4.46.9,6.7.12,1.32.02,2.67-.07,4.01-.12,1.76-1.49,2.04-3.39,1.82-1.52-.18-2.76-.97-3.6-2.32-.41-.66-.96-1.22-1.42-1.85-.16-.23-.31-.53-.31-.8-.02-2.2,0-4.4,0-6.6,0-4.03.08-8.07-.04-12.1-.07-2.28-.42-4.55-.75-6.81-.28-1.92-.72-3.82-1.05-5.74-.12-.69.21-1.07.95-1.24,2.34-.52,4.07.27,5.58,2.06,1.51,1.78,2.06,3.73,1.79,5.58h0Z"/>
        <path class="cls-2" d="m162.59,12.77c0-1.07.94-2.16,2.13-2.47,1.13-.3,2.37.21,2.98,1.33.54.99.96,2.04,1.44,3.06.3.64.26,1.34-.31,1.69-.47.28-1.17.25-1.77.27-.43.01-.88-.06-1.29-.19-.47-.16-.92-.4-1.35-.65-.79-.47-1.84-2.23-1.83-3.03h0Z"/>
    </g>
    <g>
        <path class="cls-1" d="m14.17,6.54c0,2.64-7.7,45.13-9.79,49.88"/>
        <path class="cls-1" d="m4.19,14.82c2.26-.19,28.05-3.01,31.44-2.45"/>
        <path class="cls-1" d="m2.31,31.01c3.01-.19,24.06,1.98,28.24,1.51"/>
        <path class="cls-1" d="m.43,43.44c3.01,4.89,19.39,9.79,26.16,9.79"/>
        <path class="cls-1" d="m52,63.01c-3.76-3.76-11.86-10.73-13.18-17.88s-1.69-22.02-1.69-27.67"/>
        <path class="cls-1" d="m32.43,33.46c4.52-4.52,10.54-14.68,16.56-13.36s9.98,6.02,5.27,10.35-10.92,4.89-10.35,6.78,13.18.94,14.49,6.02-10.35,14.49-18.64,18.26"/>
        <path class="cls-1" d="m70.64,5.22c.75,6.4,0,38.4,0,45.36"/>
        <path class="cls-1" d="m62.92,15.58c4.52-.56,21.84-2.64,25.04-1.69"/>
        <path class="cls-1" d="m61.98,28.19c2.64,0,20.14-.56,24.85,1.32"/>
        <path class="cls-1" d="m62.73,41.18c2.83.16,22.59,2.64,29.55-.75"/>
        <path class="cls-1" d="m96.61,57.55c.34-4.02,7.34-42.16,8.28-46.68"/>
        <path class="cls-1" d="m96.43,11.25c3.2,6.59,17.88,40.47,22.21,44.61"/>
        <path class="cls-1" d="m124.85,8.61c-.56,5.46-13.36,44.8-12.8,48.75"/>
        <path class="cls-1" d="m127.86,50.59c2.35-4.09,12.61-33.88,12.05-38.4"/>
        <path class="cls-1" d="m130.68,20.85c5.27,1.51,20.52-3.39,19.95,4.14s-15.81,9.98-22.78,10.54"/>
        <path class="cls-1" d="m128.24,27.06c2.96,3.7,21.65,24.66,28.05,29.55"/>
        <path class="cls-1" d="m168.9,60.38c-2.07-7.53-6.02-39.91-7.15-43.48"/>
        <path class="cls-1" d="m174.54,8.05c-6.59,2.64-9.79,5.84-12.8,8.85"/>
        <path class="cls-1" d="m190.54,11.44c-1.51,3.76-12.61,36.71-10.16,45.36"/>
        <path class="cls-1" d="m179.81,18.78c7.91,1.13,27.48,2.45,32.56.38"/>
        <path class="cls-1" d="m174.54,31.01c5.46,4.33,17.51,9.22,26.54,6.96"/>
        <path class="cls-1" d="m173.04,40.8c8.28,9.79,25.6,11.55,37.83,8.41"/>
        <path class="cls-1" d="m230.07.14c-1.88,6.4-13.55,40.47-12.99,48.94"/>
        <path class="cls-1" d="m217.27,7.67c5.65,2.64,28.05,7.53,24.28,23.91s-21.08,11.48-29.18,8.09"/>
        <path class="cls-1" d="m256.99,10.31c-.56,5.65-4.14,39.53,1.69,48.56"/>
        <path class="cls-1" d="m248.33,27.25c6.02-2.07,20.14-7.34,27.48-12.24"/>
        <path class="cls-1" d="m247.39,40.99c5.08-.75,21.46-4.52,23.15-6.21"/>
        <path class="cls-1" d="m247.58,53.98c5.65-.38,28.42-5.65,31.06-9.04"/>
        <path class="cls-1" d="m289.37,55.67c.38-5.65-2.82-39.53-6.21-43.67"/>
        <path class="cls-1" d="m279.2,27.81c1.95-3.31,22.4-26.73,28.99-18.07,5.84,7.67-14.12,19.58-25.6,25.22"/>
        <path class="cls-1" d="m279.58,18.96c3.01,1.69,41.41,25.6,54.4,27.67"/>
    </g>
</svg>