<svg width="535" height="150" viewBox="0 0 535 150" xmlns="http://www.w3.org/2000/svg">
    <g fill="#32468a">
        <path d="M520.748 69.0468C518.649 71.6121 517.023 73.6404 515.397 75.6389C514.658 76.5636 514.126 77.7269 513.18 78.3832C509.898 80.6501 509.189 84.3191 508.45 87.63C507.445 92.3131 504.577 95.0275 500.645 96.8172C495.235 99.2632 489.618 99.5913 483.912 97.5331C481.429 96.6383 478.768 96.1312 475.339 95.2065C475.841 103.23 476.285 110.628 476.758 118.443H483.114C490.327 118.443 497.541 118.562 504.754 118.383C508.065 118.294 511.436 117.876 514.658 117.16C516.432 116.773 518.176 115.669 519.625 114.506C522.108 112.507 524.236 112.477 526.661 114.685C527.607 115.55 528.76 116.146 529.883 116.802C531.864 117.966 532.928 119.487 533.046 121.963C533.135 123.842 534.229 125.661 534.731 127.571C534.968 128.376 535.116 129.36 534.879 130.136C534.081 132.791 533.046 135.386 532.219 138.04C531.302 141.023 528.198 143.409 524.177 143.29C519.359 143.141 514.51 142.664 509.721 142.067C500.379 140.934 491.007 140.039 481.754 142.306C473.269 144.394 464.933 143.26 457.039 140.665C450.121 138.368 446.367 132.791 445.214 125.184C443.499 113.551 443.145 101.888 443.499 90.1953C443.884 77.4287 444.534 64.6918 445.421 51.955C445.805 46.4666 447.254 41.0378 447.816 35.5493C448.052 33.2525 447.52 30.7469 446.692 28.5694C445.273 24.9005 443.351 21.858 445.303 17.3837C447.017 13.4165 450.388 13.2077 453.196 12.1339C462.035 8.79308 471.289 9.2405 480.572 9.95639C487.135 10.4635 493.757 10.7319 500.32 10.6723C505.079 10.6126 508.45 13.2674 512.145 15.4449C512.234 15.5045 512.293 15.594 512.352 15.6835C515.308 18.9945 516.787 30.1802 514.865 34.2965C510.726 43.1556 511.524 42.4696 501.798 42.4099C497.659 42.4099 493.55 42.5292 489.411 42.4994C486.573 42.4994 485.39 43.7224 485.154 46.5859C485.036 48.0475 483.853 49.5389 482.818 50.7321C480.66 53.3272 477.793 55.4748 476.137 58.3384C474.363 61.3511 475.694 63.1109 479.212 62.9618C484.917 62.7232 490.653 62.3652 496.299 61.5897C501.414 60.9036 506.203 61.2914 510.756 63.6777C514.333 65.5569 517.88 67.5554 520.689 69.1065L520.748 69.0468Z"/>
        <path d="M365.44 83.1522C365.83 85.7869 366.192 88.4217 366.527 91.0284C367.167 97.1388 368.059 103.193 369.174 109.163C371.012 116.255 375.693 120.683 383.272 122.477C386.198 123.458 389.123 123.963 391.993 123.963C396.033 123.963 400.018 122.982 403.946 121.02C408.376 118.777 413.03 117.544 417.85 117.264H418.351C420.19 117.264 422.085 117.628 424.035 118.357C426.181 119.086 427.518 120.039 428.048 121.216C428.438 122.477 428.633 123.823 428.633 125.252C428.633 126.037 428.577 126.878 428.438 127.719C428.103 130.157 427.435 132.287 426.376 134.137C423.172 139.07 419.271 142.378 414.673 144.032C410.076 145.685 406.008 146.554 402.47 146.554C400.185 146.554 397.9 146.302 395.615 145.769C391.492 144.845 387.396 144.032 383.272 143.303C378.229 142.378 373.214 141.313 368.198 140.052C355.326 135.791 346.66 127.382 342.147 114.825C337.326 103.193 334.902 91.645 334.902 80.125C334.902 66.8672 338.107 53.6935 344.515 40.6038C348.249 33.5685 352.428 26.7854 357.053 20.1986C358.809 17.5638 360.536 14.9291 362.236 12.3223C365.496 7.58541 369.814 5.23096 375.164 5.23096C376.279 5.23096 377.393 5.34307 378.508 5.53928C388.705 7.30512 397.928 11.1451 406.231 17.0593C407.457 17.8441 408.571 18.9372 409.575 20.3107C410.578 21.6841 411.135 23.1136 411.33 24.5431C411.469 25.5241 411.525 26.4771 411.525 27.4021C411.525 30.6815 410.578 33.1761 408.683 34.8859C407.373 36.0631 405.674 36.6517 403.584 36.6517C401.829 36.6517 399.795 36.2313 397.51 35.3624C394.64 34.3253 392.132 33.7927 389.959 33.7927C387.674 33.7927 385.78 34.3813 384.275 35.5586C381.35 37.7168 378.898 40.6599 376.919 44.3317L374.774 47.6952C372.294 51.6473 370.204 57.2532 368.505 64.5408C366.805 71.8284 365.802 78.0509 365.468 83.1522H365.44Z"/>
        <path d="M90.1457 22.4129C91.3367 22.8126 92.6411 23.1837 94.0306 23.5263C95.5618 23.8689 96.9797 24.2686 98.3124 24.7825C99.6452 25.2964 100.694 26.0101 101.488 26.9522C103.076 28.9506 104.154 30.8348 104.721 32.5763C105.288 34.3178 105.572 35.6881 105.572 36.6873C105.572 38.3717 105.146 40.1417 104.267 41.9974C102.084 46.4796 100.723 51.1901 100.184 56.1576C99.5885 60.9252 98.0856 64.9792 95.6469 68.405C93.2082 71.8309 90.486 75.0569 87.4235 78.1402C86.431 79.225 85.4102 80.3099 84.3326 81.4518C79.4836 86.6192 73.9825 90.1592 67.8291 92.1005C61.6757 94.0418 55.3521 95.4693 48.8301 96.4114L47.6391 96.6112C44.6617 97.068 41.5141 97.4391 38.2815 97.7246C36.7502 97.8674 35.1622 98.0387 33.4892 98.2385C33.1489 100.522 32.837 102.835 32.4967 105.176C31.5609 110.2 31.0788 114.026 30.9938 116.681C30.9371 119.336 30.8804 120.792 30.8804 121.049C30.8804 125.817 31.9579 130.556 34.0563 135.295C34.6518 136.494 34.9637 137.579 34.9637 138.492C34.9637 139.149 34.8219 139.72 34.5667 140.205C33.9712 141.404 32.8937 142.175 31.3908 142.518C25.5493 144.002 19.6228 144.716 13.6395 144.716C12.7888 144.659 11.8814 144.002 11.0023 142.746C10.0949 141.518 9.38603 140.291 8.84726 139.092C4.93404 129.128 2.97741 118.851 2.97741 108.288C2.97741 106.489 3.03415 104.633 3.17593 102.778V99.8658C3.17593 92.3004 2.52374 84.8206 1.19097 77.3693C0.595484 73.8293 0.28354 70.2036 0.28354 66.5208C0.28354 62.4383 0.652175 58.2988 1.38945 54.0735C1.84315 50.1909 2.18345 46.3368 2.38195 42.5398C2.43866 41.5977 2.49535 40.6556 2.49535 39.742C2.49535 37.3439 2.18345 35.0315 1.58796 32.8047C0.510412 29.9213 0 27.2948 0 24.8681C0 22.4415 0.510416 20.2432 1.5029 18.2448C3.48786 14.1052 6.52201 10.4224 10.577 7.19643C15.823 2.91411 21.6361 0.772949 28.0163 0.772949C30.4834 0.772949 32.9787 1.08699 35.5025 1.68651C38.2247 2.14329 40.9753 2.40023 43.7826 2.40023H45.6825C47.3555 2.40023 48.9719 2.42878 50.5598 2.51442C67.1201 3.31379 80.306 9.96566 90.1457 22.4986V22.4129ZM33.0355 69.3757C33.4325 69.6326 33.8011 69.9181 34.1414 70.1751C34.4816 70.432 34.8503 70.7175 35.2473 70.9744C36.6367 70.0323 38.0829 69.0902 39.5291 68.1766C43.0453 65.9784 46.5049 63.6945 49.9076 61.3535C52.4881 59.5549 54.9268 57.5279 57.1953 55.3297C57.5923 54.93 57.9893 54.5589 58.3863 54.2163C59.3788 53.2742 60.3145 52.3035 61.1652 51.3043C62.0159 50.3051 62.5547 49.2773 62.7532 48.1925C63.1502 45.9942 63.3487 43.8816 63.3487 41.8832C63.3487 31.52 58.1878 23.5549 47.8944 17.9879C46.7601 17.5311 45.5124 17.2741 44.0945 17.2741H43.1021C41.2305 17.3312 39.6142 17.7309 38.2247 18.4732C37.686 18.8158 37.3456 19.501 37.1755 20.5858C37.0054 21.6707 36.9203 22.7841 36.9203 24.0117C36.8636 24.8681 36.7785 25.696 36.7218 26.4098C36.58 27.5517 36.5233 28.6937 36.5233 29.8356C36.5233 30.7777 36.495 31.7198 36.4099 32.6334C35.6159 41.8547 34.7936 51.1045 33.9145 60.3257C33.5742 63.3233 33.2907 66.3495 33.0071 69.3471L33.0355 69.3757Z"/>
        <path d="M146.597 146.976C141.332 146.976 136.276 144.867 131.011 144.867C129.747 144.867 127.43 145.5 125.113 145.5C124.27 145.5 123.217 145.289 122.585 144.445C121.532 142.968 121.743 140.226 121.322 138.539C119.426 131.367 117.952 124.407 117.32 117.024L116.898 107.532C116.898 103.103 117.109 98.6731 117.53 94.4545C118.373 85.8063 117.952 76.9473 118.794 68.2991C119.426 60.7056 120.69 53.3231 121.322 45.7296C122.164 38.347 123.217 30.7535 124.692 23.371V21.0507C124.692 19.1524 124.692 16.8321 125.324 16.1993C126.166 14.9337 128.694 13.8791 129.747 12.4026C131.853 9.87141 132.274 6.49654 135.855 5.44188C136.066 5.44188 136.276 5.23096 136.487 5.23096C137.961 5.23096 138.804 6.91839 139.857 7.97304C141.332 9.23863 143.017 9.87141 145.123 10.5042C153.969 12.8244 164.501 19.3633 165.343 29.9098V30.3317C165.343 32.0191 163.869 33.4956 163.237 35.394L159.867 44.6749C156.497 55.4324 156.918 67.0335 154.601 78.2128C153.548 83.908 153.759 89.1812 153.127 94.8763C152.916 95.7201 152.706 97.4075 152.706 98.6731C152.706 99.5168 152.706 100.361 153.127 100.571C153.337 100.782 153.759 100.782 154.18 100.782C155.444 100.782 156.707 100.15 157.55 99.9387C160.92 98.6731 164.29 98.6731 167.66 97.8294C170.398 97.1966 173.558 97.1966 176.085 96.1419C182.404 93.8217 188.513 91.2905 195.042 91.2905C198.202 91.2905 201.572 91.9233 204.942 93.8217C207.469 95.2982 210.839 100.15 209.786 103.103C209.154 104.579 206.416 103.735 205.574 104.79C204.942 105.634 205.574 108.587 204.52 108.798C203.467 109.009 203.889 107.11 203.257 107.11C202.625 107.11 202.204 109.641 201.993 110.063C201.572 110.485 201.572 110.907 201.572 111.329V111.962C201.572 112.594 201.361 113.438 200.097 114.493L197.991 115.969C197.991 116.602 201.361 115.758 200.519 117.024C198.623 118.922 196.095 119.344 193.778 119.977C193.357 120.188 191.672 120.61 191.672 121.032C191.672 121.664 195.253 121.454 195.253 122.719C195.253 124.196 191.251 125.039 189.776 125.25C186.617 126.094 183.668 127.36 180.509 128.625C174.4 130.945 167.871 134.531 162.395 138.328C158.393 140.859 155.233 145.289 150.599 146.554C149.335 146.976 147.861 146.976 146.597 146.976Z"/>
        <path d="M237.226 150.773C236.655 150.773 236.464 150.202 236.464 149.631V148.68C236.464 147.348 234.751 146.397 233.609 146.207C232.657 146.017 231.895 146.017 230.944 146.017C229.23 146.017 227.517 146.207 225.994 146.587C225.042 146.968 223.71 147.539 222.377 147.539C219.141 147.539 218.57 142.592 218.189 140.309C218.189 139.168 217.427 138.407 217.047 137.075C216.476 131.748 218.57 125.47 219.331 120.333C220.093 113.484 222.758 106.635 224.661 100.166C226.565 93.8879 228.278 87.2291 230.563 80.9508C232.467 75.6238 233.989 69.9163 236.084 64.7795C236.464 63.8282 236.084 63.0672 236.464 61.9257C240.652 52.7937 244.46 43.2811 249.219 34.3393C252.646 27.6806 256.072 21.0218 259.88 14.9338C261.022 13.2215 262.355 11.8897 263.306 10.3677C264.068 9.22622 262.545 9.98722 263.116 8.84572C264.068 7.89447 264.068 8.46523 264.829 8.46523C265.591 8.27497 265.781 7.13346 266.352 6.56271C266.923 6.18221 268.066 5.61145 269.017 5.42121C269.398 5.23096 269.779 5.23096 269.969 5.23096C271.683 5.23096 273.015 6.37246 274.348 6.94322C277.394 8.46523 281.011 9.98722 283.486 12.08C284.057 12.6507 282.534 14.1727 283.486 14.5532C284.437 14.9338 283.866 13.4117 284.437 13.4117H284.628C285.389 13.4117 286.722 14.1727 287.483 14.5532C288.245 15.124 288.245 16.0753 288.625 16.8363C290.529 20.2608 291.862 22.1633 292.814 25.9683C293.575 29.2026 295.288 32.2466 296.24 35.4808C296.621 38.1444 296.24 41.3786 296.811 44.0421C297.002 44.9934 298.334 44.9934 298.715 45.9446C299.857 48.0374 300.238 51.0814 300.999 53.5547C304.426 64.399 306.33 75.6238 309.756 86.2778C312.041 92.9366 315.848 100.356 319.656 106.444C320.417 107.776 322.702 109.298 322.892 111.01C323.082 111.391 322.511 111.771 322.511 112.152C322.511 112.723 323.844 112.723 323.082 113.484C322.892 113.674 322.702 113.674 322.702 113.674C321.559 113.674 319.846 111.201 319.275 112.342C319.465 112.152 319.465 113.484 319.465 114.625C319.465 115.576 319.465 116.337 319.085 116.147C319.846 116.718 322.511 115.957 321.75 118.24C321.75 118.62 321.369 118.811 321.179 118.62C319.846 116.908 320.608 116.718 319.275 118.24C319.085 118.62 318.323 118.811 318.133 119.191V119.572C318.133 121.094 320.988 120.333 321.369 121.094C321.559 121.284 321.559 121.284 321.559 121.474C321.559 122.045 320.798 122.806 320.608 123.187C320.608 123.567 320.607 124.709 320.036 124.709H319.846C319.465 124.709 318.704 123.948 318.133 123.948C317.181 124.138 317.752 125.089 317.181 125.47C316.61 126.04 314.325 126.04 313.564 126.04C312.422 125.85 312.231 125.47 312.231 125.089C312.231 124.138 312.041 123.948 311.851 123.948C311.47 123.948 310.518 125.47 309.376 125.089C309.185 125.089 308.614 124.328 308.234 124.709C308.043 124.709 307.853 124.899 307.853 124.899C307.853 125.47 310.518 126.421 310.708 126.421C310.328 126.611 309.185 126.801 308.614 126.801C306.901 127.182 304.426 127.943 302.522 127.943C299.857 127.943 300.048 126.611 299.667 125.47C299.477 124.518 297.954 124.328 297.954 123.187C297.954 121.284 299.857 120.523 299.477 118.43C299.096 117.289 298.715 117.098 298.334 117.098C297.763 117.098 297.002 117.479 296.05 116.908C293.956 115.196 293.194 111.391 291.1 110.249C290.91 110.249 290.339 109.869 290.148 110.249C288.435 111.771 286.722 112.723 284.247 113.674C276.061 116.147 267.685 118.05 259.88 121.284C257.976 122.045 253.978 122.996 252.836 124.709C252.265 125.66 252.075 126.611 252.075 127.562C252.075 129.465 252.646 131.367 252.646 133.08C252.646 139.738 245.221 149.631 237.607 150.773H237.226ZM313.754 121.474C313.945 121.474 314.135 121.094 314.135 120.713C314.135 119.762 313.373 117.859 312.231 117.859C312.231 117.859 312.802 121.284 313.754 121.474ZM285.389 96.3611C285.389 96.3611 285.58 96.1709 285.58 95.9806C285.58 95.4099 285.199 94.4586 285.008 94.0781L282.724 87.6096C279.488 79.9996 277.394 71.6285 274.348 64.2087C273.586 62.877 273.015 56.2182 270.16 57.55C269.589 57.7402 269.398 59.072 269.208 59.6427C268.446 61.5452 267.304 63.0672 266.543 64.9697C264.258 72.009 261.783 79.0483 259.689 86.4681C259.309 88.1803 256.453 93.6976 257.405 95.2196C257.595 95.4099 257.976 95.6001 258.357 95.6001C259.499 95.6001 260.832 95.0294 261.593 95.0294C265.972 95.0294 270.35 92.9366 274.729 92.9366C277.013 92.9366 280.44 93.1269 282.724 94.8391C283.105 95.2196 284.818 96.9319 285.389 96.3611ZM317.942 122.996C318.323 122.996 318.513 122.806 318.513 122.616C318.513 121.855 316.229 120.333 315.658 120.142C315.468 120.142 315.277 120.142 315.277 120.523C315.277 121.284 316.61 122.996 317.562 122.996H317.942Z"/>
    </g>
</svg>
