<svg height="150" width="404" viewBox="0 0 404 150" xmlns="http://www.w3.org/2000/svg">
    <g fill="#32468a">
        <path d="M353.342 137.983C348.507 137.983 345.938 137.983 345.636 137.983C345.434 137.882 345.283 137.781 345.182 137.681C345.182 137.58 345.182 137.429 345.182 137.227C345.182 137.025 345.031 136.824 344.729 136.622C344.427 136.42 344.024 136.32 343.52 136.32C343.117 136.32 342.916 136.269 342.916 136.168C342.916 136.068 342.815 135.967 342.613 135.866C341.606 135.362 340.85 134.908 340.347 134.505C339.843 134.102 339.339 133.699 338.836 133.295C338.433 132.791 338.231 132.439 338.231 132.237L337.476 130.12C336.77 128.91 336.418 128.255 336.418 128.154C336.418 127.953 336.317 127.751 336.116 127.549C335.31 126.743 334.856 126.34 334.756 126.34C334.655 126.239 334.604 126.138 334.604 126.037C335.108 124.626 335.36 123.719 335.36 123.316V120.443C335.36 118.426 335.259 117.116 335.058 116.511V116.36H335.209C335.31 116.36 335.36 116.057 335.36 115.453C335.36 114.142 335.259 113.336 335.058 113.033C334.856 112.731 334.756 112.428 334.756 112.126C334.252 108.698 334 106.43 334 105.321C334 104.616 334.101 104.061 334.302 103.658L334.604 101.39L334.907 97.0048C335.41 96.1984 335.662 95.1399 335.662 93.8294C335.662 93.2245 335.763 92.4685 335.964 91.5612C336.267 90.0491 336.468 87.3273 336.569 83.3958C336.77 80.5732 336.972 78.9603 337.173 78.5571C337.375 78.053 337.476 77.0954 337.476 75.6841C337.476 74.3736 337.425 73.5671 337.324 73.2647C337.224 72.9623 337.123 72.7102 337.022 72.5086C337.022 72.0046 337.123 71.3493 337.324 70.5429C337.526 69.7364 337.727 69.1316 337.929 68.7284C338.231 68.2243 338.433 67.7707 338.533 67.3675C338.332 66.9642 338.231 66.6114 338.231 66.309C338.332 66.0066 338.433 65.5529 338.533 64.9481C338.836 63.436 338.987 62.2263 338.987 61.319C338.987 60.3109 339.037 59.8069 339.138 59.8069C339.339 59.8069 339.49 59.6053 339.591 59.2021C339.591 57.6899 339.642 56.4299 339.742 55.4218C339.944 54.4137 340.044 53.456 340.044 52.5488C340.347 50.4318 340.498 48.9197 340.498 48.0124C340.498 46.5003 340.649 45.2906 340.951 44.3834L341.102 43.6273L340.8 42.7201L341.253 41.6616L341.102 39.847L341.556 37.4277L341.102 36.3692C341.203 36.0668 341.354 35.8148 341.556 35.6131L341.707 34.5547C341.908 33.5466 342.009 32.5889 342.009 31.6816C342.009 30.6736 342.16 29.7159 342.462 28.8086C342.664 28.607 342.764 28.2542 342.764 27.7502C342.865 27.1453 342.916 26.7925 342.916 26.6917C343.016 26.4901 343.117 26.3389 343.218 26.2381C343.419 26.0364 343.57 25.6836 343.671 25.1796C343.671 22.2562 343.772 20.6937 343.973 20.492C343.873 20.0888 342.362 19.6856 339.44 19.2824C338.533 19.0807 337.879 18.9295 337.476 18.8287C337.173 18.6271 336.871 18.5263 336.569 18.5263C336.367 18.4255 336.166 18.3247 335.964 18.2239C335.864 18.1231 335.813 18.0223 335.813 17.9215C335.914 17.8206 336.015 17.7702 336.116 17.7702C336.216 17.7702 336.519 17.619 337.022 17.3166C337.526 16.9134 337.929 16.7118 338.231 16.7118C338.533 16.611 338.836 16.5606 339.138 16.5606C340.447 16.5606 341.102 16.3589 341.102 15.9557L340.8 15.1997C340.8 14.8972 341.002 14.6452 341.404 14.4436C341.807 14.1412 342.21 13.99 342.613 13.99L343.067 14.1412H342.916C342.815 14.242 342.563 14.3932 342.16 14.5948C341.858 14.6956 341.606 14.9476 341.404 15.3509C341.404 15.4517 341.757 15.5021 342.462 15.5021C343.47 15.5021 343.973 15.3509 343.973 15.0484L343.671 14.2924C343.671 14.0908 343.822 13.8892 344.124 13.6875C344.527 13.4859 344.729 13.2339 344.729 12.9315L344.578 12.3266C344.578 11.4194 345.132 10.9657 346.24 10.9657C346.341 11.0666 346.391 11.1674 346.391 11.2682C346.391 11.369 346.593 11.4194 346.996 11.4194C347.197 11.3186 347.55 11.2682 348.053 11.2682C348.658 11.1674 349.313 11.0666 350.018 10.9657C353.544 10.8649 356.264 10.7137 358.178 10.5121C361.402 10.3105 363.467 10.0585 364.373 9.75605C365.381 9.45363 366.439 9.30242 367.547 9.30242C368.554 9.30242 369.612 9.40323 370.72 9.60485L372.685 9.75605C373.39 9.75605 374.296 9.65525 375.405 9.45363C377.218 9.15121 378.981 9 380.694 9C382.507 9 383.716 9.15121 384.32 9.45363C385.025 9.75605 385.63 9.90726 386.134 9.90726L386.587 9.75605C386.688 9.75605 386.738 9.85686 386.738 10.0585L386.587 10.9657C386.587 11.1674 386.788 11.2682 387.191 11.2682C387.695 11.2682 388.199 11.4698 388.702 11.873C389.206 12.1754 389.458 12.4779 389.458 12.7803L389.156 13.2339C389.156 13.3347 389.508 13.3851 390.214 13.3851C391.825 13.3851 392.682 13.5867 392.782 13.99C392.782 14.1916 392.38 14.3932 391.574 14.5948C390.768 14.7964 390.365 15.0484 390.365 15.3509L391.12 16.4093C391.12 16.7118 390.919 16.863 390.516 16.863L389.156 16.5606L388.854 16.7118L390.969 17.7702C390.566 17.7702 390.365 17.9718 390.365 18.3751C390.365 18.4759 390.465 18.6271 390.667 18.8287C390.868 19.0303 391.221 19.1311 391.725 19.1311C391.825 19.2319 391.876 19.4336 391.876 19.736C391.876 19.9376 391.977 20.0384 392.178 20.0384C392.38 20.0384 392.48 20.0888 392.48 20.1896C391.977 20.6937 391.574 20.9457 391.271 20.9457C391.07 20.9457 390.969 20.8449 390.969 20.6432C390.969 20.4416 390.818 20.3408 390.516 20.3408C389.71 20.3408 389.055 20.6937 388.551 21.3993C388.551 21.7017 388.199 21.8529 387.494 21.8529C386.788 21.8529 386.285 22.0041 385.982 22.3066C385.579 22.4074 385.126 22.4578 384.622 22.4578C384.219 22.4578 383.867 22.609 383.565 22.9114C383.262 23.2138 383.011 23.4154 382.809 23.5163C382.608 23.5163 382.255 23.5163 381.751 23.5163C380.845 23.4154 379.132 23.365 376.614 23.365L371.476 23.2138C366.741 23.2138 363.013 23.0626 360.293 22.7602C360.293 30.3208 360.243 34.1514 360.142 34.2522C360.042 34.2522 359.991 34.6051 359.991 35.3107C359.991 35.9156 359.991 36.5204 359.991 37.1252C360.092 37.6293 360.243 38.587 360.445 39.9983L360.142 42.1152C360.445 43.3249 360.646 46.3491 360.747 51.1879C360.747 53.4056 360.747 55.321 360.747 56.9339C360.848 58.5468 360.948 59.4037 361.049 59.5045L361.2 61.0166C361.2 61.9239 361.099 62.7807 360.898 63.5872C361.099 63.9904 361.2 64.5953 361.2 65.4017C361.2 67.0146 361.25 67.8211 361.351 67.8211L363.013 67.6699C364.122 67.6699 365.129 67.5187 366.036 67.2162C368.151 66.5106 370.519 66.1578 373.138 66.1578C373.843 66.1578 374.498 66.0066 375.102 65.7041C375.304 65.7041 375.455 65.7545 375.556 65.8553C375.656 65.9562 378.427 66.0066 383.867 66.0066C384.068 66.1074 384.219 66.2082 384.32 66.309C384.522 66.309 384.622 66.4098 384.622 66.6114C384.723 66.7122 385.025 66.9138 385.529 67.2162C386.134 67.4179 386.788 67.6195 387.494 67.8211C388.299 67.9219 388.954 67.9723 389.458 67.9723C389.962 67.9723 390.314 68.1739 390.516 68.5771C390.818 68.8796 391.12 69.0308 391.422 69.0308C391.725 69.0308 391.876 69.182 391.876 69.4844L391.725 70.9965C391.725 71.2989 391.825 71.5006 392.027 71.6014C392.228 71.6014 392.38 71.7022 392.48 71.9038V72.9623C392.38 73.1639 392.178 73.2647 391.876 73.2647C391.674 73.2647 391.574 73.4159 391.574 73.7183C391.574 74.0207 391.725 74.172 392.027 74.172C392.027 74.2728 391.926 74.424 391.725 74.6256C391.12 74.928 390.516 75.0792 389.911 75.0792C389.408 75.0792 389.055 75.18 388.854 75.3816C388.753 75.4824 388.652 75.5833 388.551 75.6841C388.451 75.6841 388.249 75.6841 387.947 75.6841C387.645 75.6841 387.494 75.8857 387.494 76.2889C387.494 76.5913 385.932 77.1962 382.809 78.1034C382.305 78.3051 381.852 78.5067 381.449 78.7083C381.147 78.8091 380.945 78.9603 380.845 79.1619C380.845 79.2627 380.744 79.3131 380.542 79.3131L379.182 78.8595C377.873 79.0611 376.563 79.2123 375.254 79.3131C373.944 79.4139 373.088 79.5651 372.685 79.7668L369.209 80.0692C367.194 80.0692 366.086 80.17 365.885 80.3716C365.784 80.4724 365.633 80.5732 365.431 80.674C365.129 80.3716 364.928 80.2204 364.827 80.2204C364.222 80.422 363.668 80.5732 363.165 80.674H362.409C362.409 80.7748 362.409 80.9764 362.409 81.2789C362.51 81.4805 362.56 81.9845 362.56 82.791C362.56 87.0249 362.711 89.7467 363.013 90.9564L362.862 91.8636C362.862 92.7709 362.862 93.2749 362.862 93.3757C362.963 93.3757 363.467 94.535 364.373 96.8536C364.676 97.4584 364.928 97.7609 365.129 97.7609L364.525 99.1218C364.525 99.2226 364.676 99.273 364.978 99.273C365.28 99.273 365.431 100.029 365.431 101.541L365.733 102.297V103.356C366.036 103.961 366.237 104.364 366.338 104.565C366.539 104.666 366.64 105.069 366.64 105.775C366.64 106.38 366.741 106.783 366.942 106.985C367.245 107.186 367.547 107.59 367.849 108.194C368.252 110.311 368.554 111.924 368.756 113.033C369.058 114.041 369.209 114.848 369.209 115.453C369.108 115.453 369.058 115.503 369.058 115.604L369.36 116.36L368.907 119.082C368.907 119.888 369.008 120.695 369.209 121.501C369.511 122.207 369.813 122.61 370.116 122.711C370.418 122.811 370.871 122.862 371.476 122.862C372.584 122.862 373.44 122.761 374.045 122.559C374.246 122.358 374.498 122.257 374.8 122.257C375.203 122.156 375.757 122.055 376.462 121.955C377.268 121.854 378.125 121.703 379.031 121.501C384.068 120.594 389.005 120.14 393.84 120.14C395.049 120.14 396.057 120.14 396.863 120.14C397.769 120.039 398.273 119.938 398.374 119.838H398.525L400.943 121.199C401.748 121.803 402.202 122.106 402.303 122.106L403.663 122.711C401.95 122.711 401.043 123.013 400.943 123.618C400.943 123.82 401.245 124.223 401.849 124.828C401.547 125.029 401.345 125.281 401.245 125.584C401.245 125.886 400.943 126.037 400.338 126.037C399.834 126.037 399.431 126.138 399.129 126.34C398.928 126.541 398.827 126.894 398.827 127.398C398.827 127.801 397.92 128.104 396.107 128.305C395.301 128.507 394.697 128.759 394.294 129.062C393.991 129.263 392.581 129.717 390.062 130.422C387.544 131.128 386.033 131.481 385.529 131.481C385.025 131.481 384.622 131.632 384.32 131.935C384.018 132.237 383.716 132.489 383.414 132.691C383.111 132.791 382.859 132.842 382.658 132.842C379.636 133.547 375.656 134.707 370.72 136.32C369.813 136.723 369.159 136.975 368.756 137.076C368.353 137.177 366.136 137.429 362.107 137.832L360.293 137.681C359.085 137.681 358.279 137.731 357.876 137.832C357.573 137.933 356.062 137.983 353.342 137.983Z"/>
        <path d="M268.601 77.5029C268.619 79.9146 268.613 82.3229 268.586 84.7027C268.394 90.2634 268.433 95.8048 268.679 101.298C269.429 107.886 273.034 112.436 279.538 114.978C282.013 116.218 284.547 117.031 287.095 117.384C290.681 117.882 294.34 117.492 298.072 116.216C302.283 114.749 306.567 114.216 310.881 114.558L311.326 114.619C312.958 114.846 314.595 115.406 316.236 116.3C318.05 117.218 319.118 118.237 319.442 119.359C319.631 120.538 319.637 121.769 319.459 123.052C319.361 123.756 319.207 124.503 318.979 125.24C318.379 127.387 317.52 129.216 316.35 130.745C312.892 134.776 309.018 137.263 304.731 138.181C300.444 139.099 296.725 139.377 293.584 138.942C291.556 138.661 289.559 138.153 287.597 137.394C284.051 136.057 280.517 134.823 276.947 133.662C272.585 132.211 268.266 130.638 263.971 128.889C253.074 123.482 246.428 114.872 243.983 103.05C241.151 92.0214 240.436 81.3628 241.87 71.0278C243.519 59.1337 248.002 47.7095 255.32 36.7551C259.509 30.9031 264.063 25.3322 268.989 19.9923C270.875 17.8447 272.736 15.6936 274.569 13.5642C278.052 9.71584 282.179 8.13523 286.928 8.79379C287.917 8.93099 288.892 9.16878 289.857 9.482C298.69 12.3216 306.399 16.902 313.034 23.2299C314.024 24.0849 314.878 25.2028 315.597 26.5585C316.317 27.9141 316.634 29.2652 316.629 30.5716C316.631 31.4689 316.561 32.3307 316.446 33.1605C316.038 36.1026 314.887 38.224 312.992 39.5247C311.684 40.4196 310.102 40.7384 308.247 40.4812C306.688 40.2651 304.935 39.6375 303.015 38.5767C300.597 37.293 298.437 36.5066 296.508 36.239C294.479 35.9577 292.724 36.2526 291.242 37.1235C288.377 38.6996 285.834 41.0381 283.621 44.0887L281.298 46.8421C278.605 50.0824 276.053 54.8544 273.637 61.1832C271.222 67.5119 269.557 72.9709 268.626 77.5063L268.601 77.5029Z"/>
        <path d="M233.361 133.538C231.711 128.511 229.895 123.511 227.914 118.621C223.375 107.494 220.762 95.9006 219.772 83.9499C219.689 83.0433 220.68 81.4498 221.532 81.1476C225.356 79.8015 229.317 78.785 233.361 77.6311C233.004 77.3838 232.536 76.9992 231.986 76.7794C227.859 75.0761 223.678 73.4552 219.579 71.6969C218.864 71.3947 217.874 70.7079 217.819 70.1585C217.296 64.3067 216.443 58.4275 216.691 52.6033C217.021 44.9658 220.129 37.5206 218.396 29.6359C217.158 24.0315 216.196 18.3995 211.932 13.9764C210.859 12.85 209.621 10.817 209.951 9.58071C210.886 6.06418 209.098 4.44327 206.457 3.34436C203.789 2.21797 200.983 1.36631 198.177 0.569594C193.171 -0.858997 190.227 0.322338 187.917 4.99273C185.331 10.2401 182.58 15.4599 180.682 20.982C173.282 42.713 169.568 65.2408 166.597 87.9609C164.974 100.324 162.966 112.632 160.683 124.884C159.885 129.198 158.757 132.879 164.066 134.967C166.68 135.984 168.963 137.852 171.576 138.786C175.428 140.159 178.564 137.577 178.619 133.511C178.701 129.39 178.701 125.269 179.086 121.176C180.132 110.132 181.397 99.0874 182.552 88.0433C182.91 84.7466 184.23 82.8509 187.999 83.5652C189.457 83.84 191.025 83.7301 192.538 83.6477C198.315 83.4004 204.092 83.0982 210.171 82.796C210.914 91.5049 211.877 99.9391 212.317 108.401C212.729 116.176 212.537 123.978 212.757 131.753C212.785 132.879 213.362 134.527 214.215 135.022C217.736 137.082 221.34 139.088 225.163 140.489C226.979 141.148 229.592 141.039 231.298 140.187C233.801 138.923 234.186 136.093 233.334 133.538H233.361ZM186.816 72.4112C191.74 59.444 196.389 47.2186 201.396 34.0591C203.762 46.7515 205.99 58.5649 208.246 70.7629C201.011 71.3123 194.271 71.8343 186.816 72.4112Z"/>
        <path d="M93.8536 136.753C93.8686 136.567 94.704 135.508 94.719 135.321L94.749 134.948C94.6376 134.001 93.8196 130.182 93.7082 129.235C93.6771 101.646 91.1936 74.2352 93.9724 46.6847C94.5187 42.2247 95.579 38.3691 96.3116 33.9242C96.3566 33.3648 96.5453 28.6884 96.7766 28.144C96.9866 25.5337 99.4672 13.3475 100.065 10.5806C102.288 6.25558 105.269 6.49541 109.741 6.85514C109.928 6.87013 110.114 6.88512 110.3 6.90011C120.72 7.92595 114.487 16.057 115.183 26.0591C115.598 30.2211 115.037 34.8675 116.399 38.9179C116.078 40.5811 115.994 43.9522 115.432 50.9443C115.432 50.9443 115.132 54.6735 114.682 60.2671C114.067 67.9118 114.828 65.4396 115.644 73.95C116.006 77.7325 115.837 79.1263 116.013 81.0171C116.437 85.5627 116.479 88.6272 116.102 93.3161C116.087 93.5025 116.057 93.8755 116.057 93.8755C116.247 100.834 115.118 107.875 115.308 114.833C115.405 115.967 115.784 118.25 115.955 118.451L118.378 118.646C121.046 118.11 133.539 116.675 136.349 116.714C137.296 116.602 145.167 116.672 146.113 116.561C146.3 116.576 148.953 116.226 149.9 116.115C150.086 116.13 151.234 115.847 151.421 115.862C153.269 116.198 153.387 119.398 153.282 120.703C153.267 120.889 153.252 121.076 153.237 121.262C152.901 123.112 152.826 124.044 151.729 126.02C146.449 131.038 141.716 131.595 134.627 133.465C134.254 133.435 131.056 133.553 129.878 134.209L118.458 136.293C112.583 139.386 111.682 138.938 104.944 138.771C103.826 138.681 103.005 139.554 101.887 139.464C101.328 139.419 94.0763 138.648 93.8536 136.753Z"/>
        <path d="M12.8767 144C11.5727 144 10.3231 143.617 9.12775 142.85C8.36711 142.302 7.71512 142.029 7.17181 142.029C6.73715 142.029 5.9765 141.371 4.88987 140.057C4.56388 139.729 4.12922 138.852 3.5859 137.429C3.04258 136.552 2.77092 135.84 2.77092 135.293C2.77092 134.636 2.60793 133.979 2.28194 133.321C1.84728 132.007 1.52129 130.09 1.30396 127.571L1.14097 124.943C0.814978 122.095 0.488987 115.743 0.162995 105.886L0 102.6C0 102.271 0.0543318 101.998 0.162995 101.779C0.271659 101.56 0.325991 100.902 0.325991 99.8071C0.86931 95.6452 1.14097 92.9619 1.14097 91.7571L0.977973 87.1571L2.28194 67.4429C2.60793 65.5809 2.82526 63.3357 2.93392 60.7071L3.42291 54.7929C3.96623 45.7024 4.34655 40.9381 4.56388 40.5C4.56388 39.0762 4.61821 38.2 4.72687 37.8714C4.83554 37.4333 5.10719 36.7762 5.54185 35.9V35.7357L4.88987 35.9C5.21586 35.2429 5.37885 34.4214 5.37885 33.4357C5.37885 32.5595 5.27019 32.0119 5.05286 31.7929C5.05286 31.5738 5.10719 31.4643 5.21586 31.4643C5.32452 31.4643 5.37885 30.6429 5.37885 29L5.54185 26.0429C5.54185 22.4286 5.43319 20.6214 5.21586 20.6214L5.37885 18.8143C5.37885 17.5 5.32452 16.7333 5.21586 16.5143V16.0214C5.21586 15.3643 5.86784 14.981 7.17181 14.8714C7.71512 14.8714 8.09545 14.6524 8.31277 14.2143C8.63876 13.7762 9.01909 13.5571 9.45374 13.5571C9.8884 13.5571 10.1601 13.5024 10.2687 13.3929C10.3774 13.1738 10.812 12.8452 11.5727 12.4071C12.442 11.9691 13.3113 11.531 14.1806 11.0929C15.0499 10.5452 15.7019 10.2714 16.1366 10.2714C16.5712 10.1619 16.9515 9.94286 17.2775 9.61429C17.6035 9.28571 18.2012 9.01191 19.0705 8.79286C19.9398 8.46429 20.9178 8.13572 22.0044 7.80715C23.091 7.36905 24.9383 6.98572 27.5463 6.65714C29.7195 6.21905 31.9471 6 34.2291 6C38.467 6 41.9985 6.54762 44.8238 7.64286C45.2584 7.86191 45.6388 7.97143 45.9648 7.97143C46.3994 7.97143 46.8341 8.19048 47.2687 8.62858C47.3774 8.7381 47.486 8.84762 47.5947 8.95714C47.812 9.06667 48.0294 9.12143 48.2467 9.12143C48.464 9.12143 49.1703 9.39524 50.3656 9.94286C51.6696 10.381 52.3759 10.6 52.4846 10.6C52.7019 10.6 53.7885 11.1476 55.7445 12.2429C57.8091 13.3381 58.9501 14.05 59.1674 14.3786C59.3847 14.5976 59.6564 14.8167 59.9824 15.0357C60.3084 15.1452 60.6887 15.3095 61.1233 15.5286C61.558 15.7476 62.862 16.7881 65.0352 18.65C66.8825 20.1833 67.8062 21.0595 67.8062 21.2786C67.8062 21.4976 68.2951 22.1 69.2731 23.0857C70.3598 23.9619 70.9031 24.5095 70.9031 24.7286C70.9031 24.9476 71.1204 25.0571 71.5551 25.0571C72.6417 25.0571 73.2393 27.9595 73.348 33.7643C73.348 34.6405 73.5653 35.5167 74 36.3929L73.674 37.2143C73.348 37.8714 73.185 39.5143 73.185 42.1429C72.859 47.5095 72.4244 51.2333 71.881 53.3143C71.7724 54.7381 71.5551 55.7786 71.2291 56.4357L71.0661 56.7643C71.0661 57.75 70.9574 58.681 70.7401 59.5571C69.8708 62.5143 69.0015 64.869 68.1321 66.6214C67.9148 67.0595 67.8062 67.3881 67.8062 67.6071C67.8062 67.7167 67.4258 68.4286 66.6652 69.7429C65.4699 71.2762 64.7636 72.7548 64.5462 74.1786C64.3289 74.8357 64.1659 75.1643 64.0573 75.1643C63.9486 75.1643 63.7313 75.3286 63.4053 75.6571C63.0793 75.9857 62.862 76.4786 62.7533 77.1357C62.7533 77.7929 62.4816 78.3952 61.9383 78.9429C61.395 79.381 60.8517 79.6548 60.3084 79.7643C59.765 79.8738 59.2217 80.0381 58.6784 80.2571C57.1571 80.9143 56.3965 81.3524 56.3965 81.5714C56.3965 81.7905 56.2335 81.9 55.9075 81.9C55.5815 81.9 54.9838 82.3929 54.1145 83.3786C53.3539 84.2548 52.4846 84.9119 51.5066 85.35C50.6373 85.6786 50.0396 86.0071 49.7136 86.3357C49.4963 86.6643 49.3333 86.8286 49.2247 86.8286C49.2247 86.2809 49.1703 86.0071 49.0617 86.0071C47.7577 87.1024 46.8884 87.65 46.4537 87.65C46.1277 87.65 45.7474 87.7595 45.3128 87.9786C45.0954 88.4167 44.6608 88.6357 44.0088 88.6357C43.4655 88.6357 42.6505 89.019 41.5639 89.7857C40.4772 90.5524 39.7166 90.9357 39.2819 90.9357C38.8473 90.9357 37.7606 91.5929 36.022 92.9071L35.207 92.25C34.4464 91.5929 33.7401 91.2643 33.0881 91.2643C32.1101 91.2643 31.6211 93.1809 31.6211 97.0143L31.4581 104.243C31.4581 105.229 31.6211 107.09 31.9471 109.829C31.9471 110.376 31.9471 110.705 31.9471 110.814C32.0558 110.814 32.1101 110.869 32.1101 110.979L32.2731 110.321C32.3818 110.321 32.4905 110.486 32.5991 110.814C32.8164 111.033 32.9251 113.936 32.9251 119.521L32.7621 126.586L33.0881 129.871C33.0881 130.31 32.5991 130.912 31.6211 131.679C30.6432 132.336 30.1542 132.883 30.1542 133.321L29.9912 134.636C29.9912 134.855 29.9369 135.019 29.8282 135.129C29.8282 135.129 29.1762 135.129 27.8722 135.129C27.6549 135.129 27.5463 135.293 27.5463 135.621C27.5463 135.84 27.4919 135.95 27.3833 135.95L25.9163 135.786C25.699 135.786 25.5903 135.95 25.5903 136.279C25.5903 136.607 25.4816 136.826 25.2643 136.936C25.1557 136.936 25.1013 136.99 25.1013 137.1C25.21 137.757 25.373 138.36 25.5903 138.907C25.5903 139.126 25.4816 139.29 25.2643 139.4C23.6344 140.495 22.8194 141.262 22.8194 141.7C22.8194 142.138 22.7107 142.357 22.4934 142.357C22.3847 142.357 22.2217 142.576 22.0044 143.014C21.8957 143.343 21.6241 143.507 21.1894 143.507C20.8634 143.507 20.1571 143.233 19.0705 142.686C18.9618 142.795 18.8532 142.905 18.7445 143.014C18.7445 143.124 18.2012 143.179 17.1145 143.179C16.1366 143.179 15.3759 143.343 14.8326 143.671C14.2893 143.89 13.6373 144 12.8767 144ZM26.2423 16.0214C26.4596 15.9119 26.6226 15.8571 26.7313 15.8571C26.9486 15.8571 27.0573 15.8024 27.0573 15.6929L26.4053 15.5286C25.862 15.5286 25.5903 15.6381 25.5903 15.8571C25.5903 15.9667 25.5903 16.0214 25.5903 16.0214C25.699 16.0214 25.9163 16.0214 26.2423 16.0214ZM29.3392 71.8786C29.6652 71.8786 30.2628 71.2762 31.1322 70.0714L33.2511 68.4286C34.6637 67.1143 35.37 66.3476 35.37 66.1286C35.37 65.8 35.533 65.581 35.859 65.4714C36.185 65.3619 36.348 65.0881 36.348 64.65C36.348 64.1024 36.5653 63.719 37 63.5C37.4347 63.281 37.978 62.6238 38.63 61.5286C39.2819 60.3238 39.9339 59.5024 40.5859 59.0643C41.8899 57.75 42.7592 55.8333 43.1938 53.3143C43.1938 52.8762 43.5198 50.9048 44.1718 47.4C44.7151 44.5524 44.9868 42.7452 44.9868 41.9786C44.9868 41.2119 45.1498 40.6643 45.4758 40.3357C45.9104 40.0071 46.2907 36.2833 46.6167 29.1643C46.6167 28.5071 46.5624 28.0143 46.4537 27.6857C46.4537 27.2476 46.0734 26.8095 45.3128 26.3714C44.6608 25.8238 44.3348 25.2214 44.3348 24.5643C44.3348 23.7976 43.5742 22.8119 42.0529 21.6071C40.6402 20.2929 39.0103 19.1429 37.163 18.1571C35.4244 17.1714 34.0117 16.6238 32.9251 16.5143C32.4905 16.5143 32.2731 16.4595 32.2731 16.35C32.2731 16.2405 32.2188 16.131 32.1101 16.0214L31.9471 16.1857L29.0132 16.5143C24.0147 16.7333 21.5154 17.281 21.5154 18.1571C21.5154 18.4857 21.6784 18.9238 22.0044 19.4714C22.3304 19.9095 22.4934 20.6214 22.4934 21.6071C22.4934 22.0452 22.6564 22.5929 22.9824 23.25C23.1997 23.3595 23.3084 23.5238 23.3084 23.7429C23.417 23.8524 24.069 26.5905 25.2643 31.9571C25.373 31.9571 25.4816 32.45 25.5903 33.4357C25.9163 35.6262 26.0793 37.5976 26.0793 39.35C26.0793 40.2262 26.2423 40.8286 26.5683 41.1571C26.6769 42.3619 26.8399 42.9643 27.0573 42.9643C27.2746 42.9643 27.4919 43.6214 27.7092 44.9357C27.8179 45.4833 27.8722 46.0857 27.8722 46.7429C27.8722 47.2905 27.8722 47.6738 27.8722 47.8929C27.8722 48.0024 27.9266 48.1119 28.0352 48.2214C28.1439 48.2214 28.2526 48.2762 28.3612 48.3857C28.1439 48.9333 28.0352 49.3167 28.0352 49.5357C28.0352 50.1929 28.0896 50.9595 28.1982 51.8357C28.4156 52.6024 28.5242 53.4238 28.5242 54.3V54.9571C28.6329 56.2714 28.8502 57.5309 29.1762 58.7357C29.1762 59.0643 29.1219 59.3381 29.0132 59.5571C28.9045 59.7762 28.7959 60.05 28.6872 60.3786L28.8502 61.8571V69.5786C28.8502 71.1119 29.0132 71.8786 29.3392 71.8786Z"/>
    </g>
</svg>
