<svg width="288" height="150" viewBox="0 0 288 150" xmlns="http://www.w3.org/2000/svg">
    <g fill="#32468a">
        <path d="M238.389 39.1759C229.993 37.9727 221.993 37.1535 214.141 35.5407C210.129 34.7215 206.488 32.0847 202.476 31.0095C199.033 30.0879 199.083 26.9903 197.844 24.7119C197.621 24.2767 198.785 22.3568 199.603 22.1264C202.055 21.384 204.68 21.2304 207.157 20.616C208.247 20.36 209.237 19.5152 210.253 18.952C210.104 18.6192 209.98 18.2608 209.832 17.928C216.222 18.3888 222.612 19.0032 229.027 19.2592C234.723 19.4896 240.445 19.3872 246.166 19.2592C250.451 19.1824 254.86 19.3616 259.021 18.5168C265.733 17.1344 271.801 19.6944 278.117 20.7952C282.798 21.6144 283.937 22.6383 287.999 27.4767C283.12 29.7807 278.463 32.3151 273.559 34.1583C269.745 35.5919 265.584 36.0783 261.596 37.0767C259.689 37.5631 258.327 38.2543 257.931 40.8654C256.222 52.1038 254.265 63.3165 252.209 74.5036C249.906 86.9964 251.714 99.2331 253.398 111.598C254.414 119.022 253.844 126.676 254.364 134.202C254.538 136.737 256.024 139.143 256.593 141.678C256.99 143.367 257.435 145.466 256.816 146.9C256.172 148.308 254.29 149.844 252.829 149.972C250.674 150.177 248.395 149.204 246.191 148.769C243.863 148.308 241.485 147.335 239.206 147.54C233.336 148.052 231.528 145.057 232.519 139.118C234.104 129.595 234.55 120.097 234.401 110.497C234.253 100.334 233.51 90.1195 234.154 80.0076C234.946 67.3613 236.903 54.8174 238.34 42.2222C238.463 41.1214 238.34 39.9694 238.34 39.1759H238.389Z"/>
        <path d="M131.915 68.3596C133.302 69.0508 134.442 69.5372 135.507 70.1516C144.027 75.0412 152.448 80.1612 161.092 84.8203C166.144 87.5595 171.47 89.9659 176.894 91.7835C183.309 93.9339 190.021 95.1371 196.535 97.0059C199.952 97.9787 202.157 100.897 204.485 103.431C205.971 105.07 207.209 106.913 208.77 108.935C208.77 111.06 208.795 113.723 208.77 116.385C208.77 116.999 208.621 117.639 208.349 118.177C207.432 119.969 206.442 121.735 205.426 123.476C204.584 124.961 203.915 126.676 202.702 127.802C201.983 128.494 200.398 128.57 199.284 128.391C197.079 128.058 194.875 127.546 192.795 126.778C184.299 123.63 175.655 120.763 167.432 116.974C160.225 113.646 153.389 109.447 146.652 105.172C140.807 101.435 135.903 96.4939 131.247 91.2715C128.299 87.9947 125.104 84.5899 120.175 84.0011C117.748 83.7195 116.609 84.4619 117.179 86.9451C118.318 91.8603 119.73 96.7243 120.795 101.665C122.058 107.527 123.445 113.467 122.578 119.483C122.256 121.735 120.993 124.167 119.457 125.806C117.327 128.058 114.603 129.825 111.903 131.438C110.838 132.078 109.104 132.078 107.816 131.745C104.027 130.798 100.535 129.159 97.7606 126.138C96.6461 124.935 94.9371 124.27 93.9712 123.015C92.9805 121.71 92.1136 119.969 92.0145 118.382C91.8659 115.566 92.0145 112.622 92.6585 109.857C94.5408 101.563 94.1198 93.6011 90.8009 85.6907C89.4882 82.5676 87.8535 79.7772 85.8226 77.1148C83.1724 73.6332 82.256 69.4092 83.222 65.2108C84.8319 58.2221 86.8876 51.3357 89.0176 44.475C89.612 42.5806 90.8504 40.763 92.2127 39.2782C95.3829 35.7966 98.7514 32.4942 102.145 29.2431C103.284 28.1679 104.745 27.4255 106.132 26.6831C109.773 24.7375 113.34 22.6383 117.154 21.0767C121.662 19.2079 126.268 17.3903 130.999 16.3919C135.284 15.4959 139.816 15.4191 144.2 15.6239C149.179 15.8543 152.522 18.5679 154.578 23.4831C155.99 26.8367 156.782 30.3439 156.559 33.6462C156.287 37.3582 154.751 41.147 153.117 44.5774C151.309 48.3918 148.832 51.9245 146.479 55.4829C143.953 59.2973 140.956 62.5997 136.671 64.5965C134.987 65.39 133.674 66.926 131.915 68.3596ZM120.126 40.9678C118.566 41.7614 117.179 42.555 115.742 43.1694C110.566 45.3454 106.628 49.1085 102.962 53.2557C101.798 54.5869 102.095 56.0205 103.482 56.9165C105.538 58.2477 107.544 59.6813 109.6 61.0381C110.07 61.3453 110.714 61.7293 111.185 61.6269C114.355 60.9357 117.575 60.3469 120.621 59.2461C124.956 57.7101 129.265 55.9437 133.426 53.9213C139.866 50.7981 144.745 45.8574 148.188 39.5086C148.559 38.7918 148.683 37.691 148.46 36.8974C147.321 32.9038 143.185 31.1119 139.767 34.3118C136.497 37.3582 132.757 39.9182 129.067 42.5038C126.244 44.475 122.429 43.707 120.151 40.9422L120.126 40.9678Z"/>
        <path d="M0.0495355 95.5724C1.6099 69.6141 4.6068 44.2191 12.7802 19.6944C14.7616 13.7808 17.4365 8.07208 20.0867 2.44012C20.6563 1.23692 22.5634 0.136129 23.9257 0.0337299C28.0867 -0.247868 32.1486 1.31372 36.1114 1.74892C42.6253 2.44012 47.3064 6.48489 52.7058 8.91688C62.7615 13.4225 67.4426 22.92 70.3652 33.4415C72.9411 42.7087 72.198 51.8478 69.9689 60.9358C67.5417 70.8429 64.6686 80.6221 62.2414 90.5292C59.9132 100.104 57.9318 109.755 55.7522 119.38C54.9844 122.734 54.1176 126.062 53.2755 129.415C53.1516 129.876 52.8792 130.337 52.6315 130.747C49.7832 135.175 37.969 137.684 33.387 135.175C31.0092 133.895 28.2105 132.487 25.6842 132.641C17.2879 133.179 6.24148 126.523 3.31888 115.515C1.60991 109.038 1.06501 102.228 0 95.5724H0.0495355ZM42.0557 23.2016C40.7677 24.6608 39.7275 25.992 38.5139 27.1184C33.808 31.5471 30.9102 36.9231 29.9938 43.4511C29.4984 46.9838 29.0031 50.5422 28.4086 54.0494C27.0959 61.7038 25.6346 69.3325 24.4458 76.9869C23.4798 83.2332 22.4644 89.4796 22.1672 95.7772C21.9195 101.025 22.3158 106.401 23.2074 111.572C23.7523 114.747 26.3034 118.023 29.5232 117.895C34.452 117.691 39.4303 116.411 44.1609 114.9C45.7213 114.414 46.9102 111.931 47.777 110.113C48.743 108.039 49.3622 105.736 49.6841 103.457C51.3188 92.3212 53.6718 81.2108 54.0433 70.0237C54.3405 61.3454 52.4829 52.539 50.9473 43.8863C49.6346 36.4879 46.9597 29.4992 42.0557 23.176V23.2016Z"/>
    </g>
</svg>
