<svg height="150" width="623" viewBox="0 0 623 150" fill="#32468a" xmlns="http://www.w3.org/2000/svg">
    <path d="M602.547 143.543C599.629 143.787 597.495 143.814 596.117 143.597C594.739 143.38 593.766 142.839 593.145 141.891C592.55 140.97 592.145 139.616 591.983 137.883C591.821 136.15 591.551 133.93 591.145 131.276C590.902 130.138 590.686 128.974 590.47 127.81C590.254 126.645 590.092 125.535 589.93 124.479H589.335C589.011 124.479 588.254 124.587 587.039 124.777C585.823 124.993 584.526 125.21 583.175 125.454C581.824 125.697 580.554 125.914 579.42 126.131C578.285 126.347 577.69 126.483 577.609 126.564C577.285 126.564 576.691 126.618 575.853 126.753C575.016 126.889 574.367 126.943 573.962 126.943C570.72 126.943 567.207 126.456 563.425 125.481C559.642 124.506 556.346 122.962 553.617 120.877C553.212 120.633 552.699 120.2 552.05 119.604C551.402 119.009 550.726 118.386 550.051 117.79C549.376 117.194 548.673 116.707 547.998 116.328C547.322 115.949 546.728 115.867 546.241 116.03C543.242 113.511 540.784 110.56 538.838 107.175C536.893 103.79 535.353 100.161 534.164 96.3158C533.003 92.4705 532.165 88.544 531.679 84.5362C531.192 80.5284 530.949 76.7101 530.949 73.0544C530.949 68.857 531.219 64.8222 531.733 60.9768C532.246 57.1315 533.3 53.1779 534.813 49.143C535.866 46.3809 537.325 43.4563 539.163 40.3421C541.027 37.228 543.188 34.1409 545.701 31.108C548.214 28.075 550.943 25.1504 553.888 22.3612C556.833 19.572 559.886 17.1078 563.047 14.9414C566.208 12.8021 569.396 11.0961 572.665 9.85041C575.934 8.60475 579.095 7.95483 582.175 7.95483C583.878 7.95483 585.418 8.30687 586.85 9.03802C588.282 9.76917 589.497 10.5545 590.551 11.394C591.605 12.2334 592.415 13.0187 592.983 13.6957C593.55 14.3727 593.874 14.7248 593.955 14.7248H594.198C594.361 14.7248 594.631 14.6435 595.036 14.481C595.441 14.3186 595.684 14.2102 595.766 14.129V14.7248L593.712 15.9433C593.712 18.3805 593.361 20.249 592.631 21.603C591.902 22.957 590.956 24.0402 589.795 24.8796C588.633 25.7191 587.282 26.4503 585.796 27.0731C584.31 27.6959 582.743 28.4812 581.122 29.429C579.095 30.8101 577.015 32.5161 574.881 34.52C572.746 36.551 570.693 38.7715 568.774 41.2087C566.856 43.6459 565.073 46.1372 563.506 48.6827C561.939 51.2282 560.669 53.6383 559.696 55.9129C559.696 56.1567 559.588 56.617 559.399 57.3211C559.21 57.9981 558.967 58.7563 558.724 59.5687C558.481 60.3811 558.264 61.1393 558.048 61.8163C557.859 62.4933 557.697 63.0078 557.616 63.3328C557.454 63.739 557.4 64.0639 557.427 64.3076C557.454 64.5514 557.481 64.768 557.481 64.9846C557.481 65.2013 557.481 65.3908 557.427 65.5804C557.4 65.797 557.238 66.0407 556.995 66.3657V70.6172C556.995 76.6831 557.589 82.2615 558.751 87.3254C559.913 92.3893 562.155 97.5073 565.478 102.68C566.613 104.548 567.91 106.065 569.423 107.229C570.909 108.393 572.827 108.989 575.178 108.989C576.475 108.989 577.555 108.827 578.447 108.502C579.339 108.177 580.176 107.771 580.933 107.283C581.689 106.796 582.5 106.308 583.283 105.821C584.067 105.333 585.012 104.927 586.066 104.602C586.147 104.44 586.498 104.413 587.147 104.494C587.795 104.575 588.146 104.602 588.227 104.602C588.957 104.44 589.47 104.006 589.74 103.275C590.011 102.544 590.227 101.732 590.335 100.838C590.443 99.9445 590.497 99.105 590.443 98.2926C590.416 97.4803 590.389 96.9116 590.389 96.5866C590.551 94.1495 590.875 91.6852 591.362 89.1668C591.848 86.6484 592.334 84.3466 592.821 82.2344C592.821 82.0719 592.739 81.9636 592.577 81.8824C592.415 81.8011 592.253 81.6928 592.091 81.5303H591.848C590.875 81.5303 589.93 81.6386 589.011 81.8824C588.092 82.1261 587.174 82.3969 586.282 82.7218C585.391 83.0468 584.472 83.3176 583.553 83.5613C582.635 83.805 581.635 83.9133 580.581 83.9133H577.42C576.691 83.9133 576.015 83.8863 575.367 83.805C574.718 83.7238 574.232 83.6155 573.908 83.453C573.827 83.3717 573.584 83.1551 573.178 82.776C572.773 82.3969 572.341 81.9907 571.855 81.5032C571.368 81.0158 570.936 80.5825 570.585 80.1763C570.233 79.7701 570.044 79.5264 570.044 79.4452C569.153 78.7953 568.315 78.1183 567.559 77.4413C566.802 76.7643 566.073 76.0331 565.451 75.3291C565.532 75.3291 565.721 75.0583 566.046 74.4896C566.37 73.9209 566.721 73.2981 567.126 72.594C567.532 71.917 567.937 71.24 568.342 70.5901C568.747 69.9402 569.072 69.5069 569.315 69.2632C571.99 68.6133 574.583 67.9905 577.123 67.3677C579.663 66.7448 582.229 66.1761 584.823 65.6075C587.984 65.0388 591.172 64.6055 594.442 64.2806C597.711 63.9556 600.953 63.3599 604.195 62.4662H615.948C616.515 62.4662 616.921 62.5745 617.164 62.8183C618.38 63.4682 619.352 64.0639 620.082 64.5784C620.811 65.093 621.406 65.6616 621.838 66.2845C622.27 66.9073 622.594 67.6114 622.757 68.4779C622.919 69.3445 623 70.4547 623 71.8087C623 74.7333 622.729 77.7392 622.162 80.8533C621.595 83.9675 620.973 87.1087 620.271 90.2771C619.568 93.4454 618.92 96.5866 618.272 99.755C617.623 102.923 617.272 105.983 617.191 108.989V125.751C617.029 128.351 616.948 131.167 616.948 134.254C616.948 137.342 616.623 140.158 615.975 142.757C615.813 143.245 615.57 143.678 615.246 144.03C614.921 144.382 614.57 144.707 614.165 145.005C613.76 145.276 613.381 145.601 613.003 145.98C612.625 146.359 612.328 146.765 612.084 147.253C612.084 146.847 611.976 146.63 611.787 146.576C611.598 146.522 611.328 146.522 611.004 146.522H610.409C610.409 146.684 610.22 146.847 609.869 147.009C609.518 147.171 609.275 147.253 609.193 147.253L608.95 147.009C608.788 146.847 608.707 146.684 608.707 146.522L608.221 145.682C608.059 145.52 607.951 145.52 607.87 145.682C607.789 145.845 607.68 145.926 607.518 145.926V146.901C607.275 146.901 606.978 146.847 606.6 146.792C606.249 146.711 605.978 146.467 605.816 146.061C605.816 146.224 605.762 146.494 605.627 146.901C605.519 147.307 605.438 147.578 605.438 147.74L605.195 147.984C605.195 147.984 605.033 148.092 604.952 148.092L604.6 147.74C604.6 146.034 603.925 144.653 602.547 143.624V143.543ZM589.335 121.554C589.092 121.554 588.984 121.717 588.984 122.042C588.984 122.366 589.092 122.529 589.335 122.529C589.659 122.529 589.822 122.366 589.822 122.042C589.822 121.717 589.659 121.554 589.335 121.554ZM603.033 142.08C602.79 142.08 602.682 142.27 602.682 142.622C602.682 142.974 602.79 143.164 603.033 143.164C603.195 143.164 603.277 142.974 603.277 142.622C603.277 142.27 603.195 142.08 603.033 142.08ZM607.032 143.164C606.627 143.164 606.438 143.353 606.438 143.759C606.438 144.166 606.627 144.355 607.032 144.355C607.275 144.355 607.383 144.139 607.383 143.759C607.383 143.38 607.275 143.164 607.032 143.164ZM610.436 144.734C610.193 144.734 610.085 144.924 610.085 145.33C610.085 145.736 610.193 145.926 610.436 145.926C610.761 145.926 610.923 145.709 610.923 145.33C610.923 144.951 610.761 144.734 610.436 144.734Z"/>
    <path d="M453.197 150C452.998 150 452.899 149.901 452.899 149.702C452.899 149.602 452.551 149.453 451.855 149.254C451.258 149.055 450.612 148.658 449.916 148.061C449.319 147.564 448.971 147.116 448.872 146.719C448.872 146.42 448.723 145.973 448.424 145.376C447.231 143.089 446.535 141.697 446.336 141.2C446.137 140.603 445.889 139.112 445.591 136.725C445.591 136.328 445.69 136.079 445.889 135.98L446.187 133.742C446.386 133.543 446.485 133.394 446.485 133.295C446.485 133.195 446.386 133.146 446.187 133.146C445.988 133.046 445.889 132.748 445.889 132.251C445.789 132.251 445.74 132.201 445.74 132.102H445.591C445.491 132.102 445.441 132.002 445.441 131.803L445.591 131.654C445.69 131.555 445.74 131.207 445.74 130.61C445.74 130.013 445.988 129.466 446.485 128.969C446.386 128.87 446.287 128.82 446.187 128.82C446.088 128.721 445.988 128.522 445.889 128.224C445.889 127.925 445.889 127.577 445.889 127.179C445.889 125.887 445.988 124.992 446.187 124.495C446.386 123.997 446.485 123.55 446.485 123.152C446.485 122.655 446.635 122.208 446.933 121.81C447.231 121.412 447.38 121.064 447.38 120.766C447.181 119.771 447.082 118.777 447.082 117.783V114.501C447.281 114.501 447.38 113.159 447.38 110.474C447.38 107.193 447.43 105.303 447.529 104.806C447.629 104.21 447.728 103.464 447.828 102.569V96.3044L448.275 91.3823L449.319 82.7313C449.816 80.9415 450.065 78.6544 450.065 75.8702C450.463 72.191 450.86 69.0588 451.258 66.4735C451.457 65.5785 451.556 64.6339 451.556 63.6395C451.656 62.5457 451.755 60.905 451.855 58.7174C451.954 57.9219 452.004 57.027 452.004 56.0326C452.302 49.0721 452.501 45.2438 452.6 44.5477C452.799 42.9567 452.998 41.4155 453.197 39.9239C453.396 38.3329 453.495 37.4877 453.495 37.3883C453.495 37.1894 453.545 37.0402 453.644 36.9408C453.644 36.4436 453.545 35.9464 453.346 35.4493C453.445 35.2504 453.545 35.0018 453.644 34.7035C453.843 34.4052 454.092 33.2119 454.39 31.1238L454.539 28.5881C454.539 27.0966 454.539 26.0028 454.539 25.3067C454.639 24.6107 454.738 24.1632 454.837 23.9643C455.036 23.7655 455.185 23.4175 455.285 22.9203L455.434 13.8218H456.478C457.174 13.8218 457.621 13.7721 457.82 13.6727C458.019 13.4738 458.417 13.3744 459.013 13.3744C459.908 13.3744 461.052 13.4738 462.444 13.6727L466.471 14.5676C466.868 14.5676 467.067 14.667 467.067 14.8659L466.769 16.6558C466.769 16.9541 466.918 17.1032 467.216 17.1032C467.515 17.1032 467.664 17.2027 467.664 17.4015L467.515 17.9982C467.515 18.9925 467.912 19.9869 468.708 20.9813C469.006 21.5779 469.205 21.9756 469.304 22.1745C469.503 22.2739 469.652 22.4231 469.752 22.622C469.752 23.9146 469.951 24.909 470.348 25.6051C470.746 26.2017 470.945 26.6491 470.945 26.9474C470.845 27.1463 470.796 27.4446 470.796 27.8424C470.796 28.439 470.895 29.1848 471.094 30.0797C471.293 30.8752 471.442 31.3724 471.541 31.5712C471.641 31.7701 471.79 32.0684 471.989 32.4662C472.287 32.7645 472.635 33.3114 473.033 34.1069C473.53 34.9024 473.977 35.6979 474.375 36.4933L476.612 41.2663L478.104 43.8019V44.3985C478.104 44.8957 478.402 45.5918 478.999 46.4867C479.197 46.8845 479.446 47.0833 479.744 47.0833V47.5308L480.192 48.5749C480.391 48.7738 480.54 48.9726 480.639 49.1715C480.739 49.3704 480.838 50.1659 480.937 51.558C481.136 51.6574 481.285 51.8563 481.385 52.1546C481.584 52.3535 481.733 52.6021 481.832 52.9004C481.932 53.0992 481.981 53.2981 481.981 53.497C482.081 53.6959 482.18 53.8947 482.28 54.0936C482.479 54.193 482.777 54.5411 483.175 55.1377C484.069 56.8281 484.567 57.9716 484.666 58.5683C484.865 59.0654 485.014 59.4632 485.113 59.7615C485.213 59.9604 485.312 60.1095 485.412 60.209H485.263C485.76 61.1039 486.108 61.7005 486.307 61.9988C486.605 62.2971 486.754 62.5457 486.754 62.7446C486.754 62.9435 486.804 63.1423 486.903 63.3412C487.102 63.5401 487.201 63.6892 487.201 63.7887C487.301 63.8881 487.4 64.0373 487.5 64.2361C487.599 64.3356 487.649 64.4847 487.649 64.6836C487.649 64.783 487.649 64.9322 487.649 65.1311C487.748 65.3299 487.848 65.4791 487.947 65.5785V65.7277C488.047 65.8271 488.096 66.026 488.096 66.3243C488.196 66.5232 488.345 66.8215 488.544 67.2192C488.743 67.5175 488.941 67.7661 489.14 67.965C489.836 68.6611 490.184 69.208 490.184 69.6057C490.184 70.0034 490.284 70.4012 490.483 70.7989C490.781 71.0972 490.98 71.2464 491.079 71.2464C491.775 71.2464 492.123 66.9706 492.123 58.4191C492.123 53.845 492.173 51.5083 492.272 51.4088C492.471 51.21 492.571 50.7128 492.571 49.9173C492.571 49.0223 492.769 48.376 493.167 47.9783C493.764 47.1828 494.062 44.9952 494.062 41.4155C494.062 40.1228 493.963 38.9793 493.764 37.9849C493.764 37.1894 493.863 36.5928 494.062 36.195C494.36 35.6979 494.858 33.3114 495.554 29.0356L495.404 28.439C495.603 26.7486 495.902 25.0581 496.299 23.3677C496.598 23.0694 496.747 22.4231 496.747 21.4287C496.747 20.3349 496.846 19.7383 497.045 19.6389C497.343 19.44 497.542 19.2411 497.642 19.0422C497.642 18.4456 497.642 18.0976 497.642 17.9982C497.741 17.7993 497.84 17.6004 497.94 17.4015C499.232 15.7111 499.879 14.1699 499.879 12.7777C499.879 12.4794 499.779 12.3303 499.58 12.3303V12.1811C499.481 12.1811 499.431 12.1314 499.431 12.032L499.282 11.8828C499.282 11.3856 500.475 11.0873 502.862 10.9879C503.259 10.8884 503.508 10.8387 503.607 10.8387C503.806 10.8387 503.906 10.6896 503.906 10.3913C503.906 10.093 504.353 9.94381 505.248 9.94381C506.143 9.94381 507.038 9.89409 507.932 9.79465C508.927 9.59578 509.921 9.49634 510.915 9.49634C512.208 9.49634 513.401 9.64549 514.495 9.94381C515.688 10.2421 516.334 10.5404 516.434 10.8387C516.632 11.137 516.782 11.3856 516.881 11.5845C517.08 11.6839 517.378 11.7337 517.776 11.7337C518.571 11.8331 518.969 12.1811 518.969 12.7777C518.969 13.3744 518.571 14.0704 517.776 14.8659C517.279 15.3631 516.931 15.9597 516.732 16.6558C516.533 17.3518 516.334 18.9925 516.135 21.5779L515.837 25.1576L516.284 28.7373L515.688 33.8086L515.837 35.4493L515.688 38.1341C515.688 40.2222 515.738 41.4652 515.837 41.8629C516.036 43.0562 516.135 45.5918 516.135 49.4698C516.135 53.5467 516.036 55.6846 515.837 55.8835C515.738 55.9829 515.688 56.5298 515.688 57.5242V67.8158C515.688 72.6882 515.837 75.721 516.135 76.9143C516.334 77.312 516.483 78.0081 516.583 79.0025C516.583 82.085 516.632 85.267 516.732 88.5484C516.831 91.8298 516.98 93.8682 517.179 94.6637C517.179 94.962 517.328 95.4095 517.627 96.0061L517.478 96.7519C517.478 96.9507 517.627 97.1993 517.925 97.4976C518.522 98.6909 518.82 100.232 518.82 102.121C518.82 102.817 518.82 103.464 518.82 104.06C518.919 104.558 519.019 104.955 519.118 105.254C519.317 105.552 519.416 106.248 519.416 107.342C519.416 108.237 519.317 108.684 519.118 108.684C519.019 108.684 518.919 108.933 518.82 109.43C518.82 109.828 518.82 110.275 518.82 110.772C518.82 111.369 518.87 111.866 518.969 112.264C518.969 112.562 518.621 112.91 517.925 113.308C517.229 113.606 516.732 113.905 516.434 114.203C516.235 114.501 516.135 114.949 516.135 115.545C516.135 117.236 516.086 118.18 515.986 118.379C515.887 118.578 515.588 118.926 515.091 119.423L514.942 119.722C514.743 120.02 514.594 120.169 514.495 120.169C513.5 120.169 513.003 120.666 513.003 121.661C513.003 122.257 512.904 122.556 512.705 122.556C512.506 122.556 512.307 122.904 512.108 123.6C511.91 124.296 511.711 124.644 511.512 124.644C511.412 124.644 511.313 124.694 511.214 124.793L510.468 125.39C510.368 125.39 509.871 125.042 508.976 124.345C508.877 124.544 508.728 124.843 508.529 125.24C508.43 125.539 508.131 125.688 507.634 125.688L507.336 125.539C506.64 125.539 506.143 125.489 505.844 125.39C502.663 125.191 500.177 124.296 498.387 122.705C496.598 121.114 495.703 120.269 495.703 120.169C495.802 119.871 495.951 119.622 496.15 119.423C495.653 119.423 495.156 119.026 494.659 118.23C494.062 117.832 493.615 117.335 493.316 116.739C492.819 116.241 492.471 115.844 492.272 115.545C492.173 115.247 492.073 115.098 491.974 115.098C491.875 115.098 491.825 115.048 491.825 114.949V114.054C491.228 113.457 490.93 112.115 490.93 110.027L490.632 109.43V109.132C490.532 108.933 490.433 108.585 490.333 108.088C490.234 107.59 490.184 106.845 490.184 105.85C490.085 105.453 489.936 105.204 489.737 105.105C489.637 105.005 489.488 104.558 489.289 103.762C489.091 102.867 488.792 102.271 488.395 101.972C488.096 101.674 487.947 101.425 487.947 101.227C487.947 100.928 487.798 100.58 487.5 100.182C487.201 99.6852 487.003 99.1881 486.903 98.6909C486.505 97.8954 486.257 97.3485 486.157 97.0502C486.157 96.6524 486.108 96.4536 486.008 96.4536C485.909 96.4536 485.809 96.1055 485.71 95.4095C485.611 94.7134 485.362 94.2162 484.964 93.9179C484.666 93.5202 484.517 93.2219 484.517 93.023C484.517 92.7247 484.467 92.5258 484.368 92.4264C484.268 92.2275 484.169 92.0784 484.069 91.9789C483.373 91.2829 482.876 90.5371 482.578 89.7416C482.379 89.3438 482.28 88.8964 482.28 88.3992C482.18 88.2998 481.981 88.1506 481.683 87.9517C481.385 87.6534 481.186 87.3551 481.087 87.0568C481.087 86.7585 480.987 86.3608 480.788 85.8636C479.396 83.9743 478.7 82.6319 478.7 81.8364H478.551C478.352 81.8364 478.004 81.2398 477.507 80.0465C477.109 78.7539 476.662 77.6601 476.165 76.7651C475.767 75.8702 475.568 75.2736 475.568 74.9753C475.568 74.5775 475.419 74.0803 475.121 73.4837C474.823 72.8871 474.475 72.2905 474.077 71.6939C473.779 70.9978 473.48 70.5503 473.182 70.3515C472.884 70.0532 472.735 69.8543 472.735 69.7549C472.039 67.7661 471.492 66.7718 471.094 66.7718C470.995 66.7718 470.945 66.9706 470.945 67.3684C470.746 69.7549 470.597 72.191 470.497 74.677C470.497 75.373 470.448 75.8205 470.348 76.0194C470.249 76.2182 470.149 76.4668 470.05 76.7651L470.497 79.7482C470.497 80.0465 470.398 80.2951 470.199 80.494C470.1 80.5934 470.05 80.9912 470.05 81.6872C469.752 83.7754 469.603 85.4161 469.603 86.6093C469.503 87.3054 469.404 87.7529 469.304 87.9517L469.006 93.7688C469.006 102.519 468.807 107.889 468.409 109.877C468.708 111.27 468.907 112.761 469.006 114.352C469.105 115.943 469.155 118.379 469.155 121.661L468.708 123.6C469.105 125.191 469.304 127.13 469.304 129.417C469.105 135.482 468.907 138.714 468.708 139.112C468.509 139.51 468.211 139.858 467.813 140.156C467.415 140.454 467.167 140.753 467.067 141.051C466.968 141.349 466.918 141.846 466.918 142.542C466.918 143.736 466.669 144.432 466.172 144.631C465.775 144.829 465.576 145.724 465.576 147.315C465.476 147.514 465.178 147.614 464.681 147.614C464.283 147.614 464.035 147.663 463.935 147.763C463.836 147.862 463.736 148.061 463.637 148.359C463.637 148.658 463.189 148.807 462.295 148.807C461.897 148.807 461.201 148.558 460.207 148.061C460.008 148.061 459.859 148.161 459.759 148.359C459.66 148.558 459.511 148.658 459.312 148.658L457.82 148.359C457.423 148.359 457.124 148.459 456.925 148.658C456.727 148.956 456.379 149.155 455.881 149.254C454.688 149.752 453.793 150 453.197 150ZM498.686 22.1745C498.884 22.1745 498.984 22.0751 498.984 21.8762C498.984 21.6773 498.884 21.5779 498.686 21.5779C498.487 21.5779 498.387 21.6773 498.387 21.8762C498.387 22.0751 498.487 22.1745 498.686 22.1745Z"/>
    <path d="M373.355 25.7619C373.598 26.9263 373.788 28.1178 373.977 29.3364C374.841 35.0231 375.679 40.7099 376.489 46.4237C376.543 46.7216 376.57 46.9924 376.57 47.2902C376.57 47.5881 376.543 47.8318 376.489 48.0755C375.328 52.0292 374.76 56.037 374.76 60.0989C374.76 61.9133 374.868 63.7005 375.112 65.5149C375.274 67.4917 375.382 69.4956 375.382 71.5265C375.382 73.1513 375.328 74.8032 375.22 76.4821C375.166 76.9966 375.139 77.5112 375.139 77.9715C375.139 80.192 375.463 82.3855 376.084 84.606C376.138 85.0122 376.219 85.4455 376.354 85.9059L376.706 87.639C377.624 92.9195 378.813 98.1188 380.272 103.237C380.731 104.97 381.353 106.703 382.109 108.382C382.866 110.061 383.865 111.28 385.162 112.038C385.513 112.2 385.919 112.309 386.378 112.309C387.189 112.309 388.107 112.038 389.161 111.523C390.836 110.765 392.376 109.926 393.781 109.005C397.888 106.216 400.698 102.749 402.211 98.6333C403.724 94.5172 404.831 90.1844 405.507 85.6621C405.615 85.2559 405.723 84.8227 405.777 84.3623C406.236 81.7356 406.723 79.1359 407.263 76.5092C408.425 69.8747 409.668 63.2943 410.991 56.741L411.856 52.7332C413.585 46.5049 414.477 40.1953 414.477 33.7233C414.477 30.7716 414.315 27.7929 413.963 24.8412V24.7599C413.558 22.8373 413.342 20.8875 413.342 18.9107V17.5297C413.45 15.0383 414.693 12.9532 417.071 11.2472C419.691 9.56823 422.285 8.72876 424.906 8.72876C427.526 8.72876 430.012 9.48699 432.552 11.0035C433.254 11.4638 433.876 12.0596 434.47 12.7907C435.038 13.5219 435.443 14.2801 435.686 15.0925C436.334 17.9359 436.632 20.7521 436.632 23.5413C436.632 29.4718 435.173 35.2398 432.282 40.8723C430.823 44.5281 430.012 48.4817 429.85 52.7332C429.688 54.358 429.472 55.9557 429.229 57.5263C428.985 59.3407 428.796 61.1009 428.607 62.834C428.445 65.0545 428.148 67.2209 427.743 69.3602L427.581 70.4163C426.311 78.134 424.744 85.7705 422.879 93.3257C421.961 97.0356 420.367 100.448 418.097 103.508C417.638 104.158 417.152 104.807 416.611 105.512C411.343 113.067 405.615 120.243 399.482 127.04C394.673 131.454 389.701 133.674 384.622 133.674C379.542 133.674 374.274 131.4 368.897 126.877C363.494 121.949 359.792 116.398 357.766 110.278C355.74 104.158 354.281 97.8209 353.416 91.3218C353.308 90.6177 353.173 89.9678 353.065 89.3179C352.254 82.9812 351.849 76.6446 351.849 70.308C351.849 63.511 352.308 56.714 353.227 49.917C353.281 48.6984 353.308 47.4798 353.308 46.2612C353.308 41.2785 352.849 36.2688 351.93 31.2861C351.579 29.0656 351.255 26.8721 350.984 24.6516V23.8663C350.984 22.5394 351.228 21.0229 351.687 19.344C352.254 17.313 353.038 15.4174 353.983 13.6302C354.929 11.87 355.929 10.7056 356.982 10.1911C358.603 9.54115 360.333 9.24327 362.197 9.24327C363.413 9.24327 364.71 9.37867 366.114 9.67655C369.546 10.3806 371.896 11.8158 373.247 14.0364C374.301 16.4194 374.841 19.0461 374.895 21.8895C375.003 23.1081 375.166 24.2996 375.328 25.464L373.409 25.816L373.355 25.7619Z"/>
    <path d="M282.977 134.14C280.889 134.14 279.398 133.991 278.503 133.692C278.304 133.494 278.006 133.394 277.608 133.394C277.31 133.295 276.912 133.146 276.415 132.947C273.73 131.853 272.189 130.51 271.792 128.92C271.493 128.223 271.195 127.577 270.897 126.98C270.598 126.384 270.449 125.588 270.449 124.594C270.449 124.196 270.499 123.848 270.598 123.55C270.797 123.252 270.946 122.655 271.046 121.76C271.245 120.865 271.344 120.07 271.344 119.374L271.195 117.882C271.195 117.683 271.294 117.236 271.493 116.54C271.792 115.744 271.941 115.098 271.941 114.601C271.941 114.103 272.239 112.761 272.836 110.573C273.134 108.883 273.382 107.889 273.581 107.59C273.78 107.292 274.078 107.143 274.476 107.143C274.973 107.143 275.47 105.701 275.968 102.817C276.266 101.127 276.514 100.282 276.713 100.282C276.912 100.282 277.012 100.182 277.012 99.9835V99.536L277.161 98.4919C277.558 97.4976 277.906 97.0004 278.205 97.0004C278.602 97.0004 278.95 96.6524 279.249 95.9563C280.243 93.9676 281.138 92.0286 281.933 90.1393C282.828 88.25 283.624 86.3607 284.32 84.4714C284.817 83.1787 285.214 82.3832 285.513 82.0849C285.811 81.7866 285.96 81.5877 285.96 81.4883C285.96 81.2894 285.96 81.19 285.96 81.19C286.06 81.0906 286.209 80.9911 286.408 80.8917C286.606 80.6928 286.706 80.4442 286.706 80.1459C286.706 79.8476 286.855 79.599 287.153 79.4001C287.452 79.1018 287.7 78.5549 287.899 77.7594C288.098 76.9639 288.247 76.5662 288.346 76.5662C288.446 76.5662 288.496 76.4668 288.496 76.2679C288.595 76.069 288.844 75.6216 289.241 74.9255C289.639 74.2294 289.838 73.6825 289.838 73.2848C289.838 72.887 290.037 72.4396 290.434 71.9424C290.832 71.4452 291.18 70.7989 291.478 70.0034C291.777 69.2079 292.373 68.3627 293.268 67.4678C293.566 67.1694 293.716 66.9706 293.716 66.8711C293.716 66.6723 293.865 66.4734 294.163 66.2745C294.461 65.9762 294.71 65.6282 294.909 65.2304C295.108 64.7332 295.505 64.1366 296.102 63.4406C296.997 62.2473 297.444 61.5016 297.444 61.2033C297.444 60.9049 297.593 60.5569 297.892 60.1592C298.289 59.662 298.538 59.2642 298.637 58.9659C298.737 58.6676 298.936 58.3693 299.234 58.071C299.532 57.7727 299.781 57.3252 299.98 56.7286C300.576 55.3365 300.974 54.1433 301.173 53.1489C301.173 52.7512 301.421 52.2043 301.918 51.5082C302.515 50.7127 302.813 50.1658 302.813 49.8675C302.813 49.4697 303.062 48.8731 303.559 48.0776C304.156 47.1827 304.454 46.5861 304.454 46.2878C304.454 45.9895 304.553 45.7906 304.752 45.6912C305.05 45.5917 305.2 45.4923 305.2 45.3929L305.349 45.2437L306.542 42.4098C307.437 40.8188 307.884 39.8741 307.884 39.5758C307.884 39.2775 307.934 39.1284 308.033 39.1284C308.232 39.1284 308.332 39.0786 308.332 38.9792C308.431 38.8798 308.779 38.0346 309.376 36.4436C309.376 36.3441 309.376 36.1453 309.376 35.847C309.376 35.5486 309.376 35.3498 309.376 35.2503C309.475 35.0515 309.574 34.8526 309.674 34.6537C310.668 32.5655 311.165 30.5768 311.165 28.6875L311.016 27.7926C306.045 27.7926 300.626 27.6434 294.76 27.3451C293.964 27.3451 293.318 27.4446 292.821 27.6434C292.423 27.7429 292.025 27.7926 291.628 27.7926C290.633 27.7926 289.689 27.544 288.794 27.0468L287.452 26.5994C285.761 26.1022 284.668 25.8536 284.17 25.8536C283.673 25.8536 283.176 25.7541 282.679 25.5553C281.386 25.1575 280.74 24.8095 280.74 24.5112C280.74 24.1134 280.541 23.7157 280.144 23.3179C279.845 22.9202 279.696 22.6219 279.696 22.423C279.696 22.2242 279.796 22.1247 279.994 22.1247H280.591C280.889 22.1247 281.436 21.7767 282.232 21.0806C283.126 20.2851 284.817 19.6388 287.302 19.1416C288.297 19.1416 289.092 19.0422 289.689 18.8433C292.075 18.4456 296.897 18.2467 304.156 18.2467C309.525 18.2467 312.358 18.3461 312.657 18.545C312.955 18.7439 313.353 18.8433 313.85 18.8433C315.043 18.8433 315.789 18.7439 316.087 18.545C316.385 18.2467 316.684 18.0975 316.982 18.0975C317.28 18.0975 317.578 18.2467 317.877 18.545C318.175 18.8433 318.424 18.9925 318.622 18.9925C318.821 18.9925 318.921 18.7439 318.921 18.2467C318.921 17.7495 319.12 17.5009 319.517 17.5009L321.904 18.0975C322.102 18.0975 322.252 17.9484 322.351 17.6501C322.45 17.2523 322.699 17.0534 323.097 17.0534L323.395 17.2026L323.992 16.9043C324.29 16.9043 324.737 17.0535 325.334 17.3518C326.428 17.9484 327.72 18.4456 329.212 18.8433C330.802 19.1416 331.996 19.2908 332.791 19.2908C333.487 19.2908 333.835 19.2411 333.835 19.1416C333.835 19.0422 333.885 18.9427 333.984 18.8433L338.458 20.1857V22.1247C338.458 23.318 338.21 24.1632 337.713 24.6603C337.216 25.0581 336.967 25.4558 336.967 25.8536C336.967 26.1519 336.47 26.6988 335.476 27.4943C334.78 27.9915 334.233 28.5384 333.835 29.135C333.537 29.6322 333.189 30.4774 332.791 31.6706C332.095 33.6593 331.598 34.7531 331.3 34.952C331.101 35.1509 330.952 35.847 330.852 37.0402C330.653 37.9351 330.355 38.5815 329.957 38.9792C329.659 39.2775 329.41 39.7747 329.212 40.4707C329.112 41.0674 328.963 41.6143 328.764 42.1115C328.168 43.5036 327.77 44.1996 327.571 44.1996C327.472 44.1996 327.273 44.5974 326.974 45.3929C326.676 46.1883 326.527 46.7352 326.527 47.0336C326.527 47.3319 326.278 47.9782 325.781 48.9726L324.29 52.254C323.594 53.845 323.047 54.889 322.649 55.3862C322.351 55.784 322.102 56.1817 321.904 56.5795V56.7286C321.904 56.9275 321.804 57.0269 321.605 57.0269C321.406 57.0269 321.307 57.1264 321.307 57.3252V57.6235C321.307 57.8224 321.257 57.9219 321.158 57.9219C321.158 57.9219 321.108 57.9716 321.009 58.071C320.909 58.1704 320.86 58.3196 320.86 58.5185C320.86 58.7173 320.76 58.8168 320.561 58.8168C320.462 58.8168 320.412 58.8665 320.412 58.9659V59.2642C320.412 59.4631 320.263 59.8111 319.965 60.3083C319.766 60.8055 319.666 61.3027 319.666 61.7999C319.666 62.2971 319.169 63.6892 318.175 65.9762C317.877 66.374 317.728 66.7717 317.728 67.1694C317.728 67.4678 317.38 68.4124 316.684 70.0034C316.087 71.4949 315.689 72.2904 315.49 72.3899C315.391 72.3899 315.341 72.4893 315.341 72.6882L314.446 76.8645C314.446 77.1628 314.297 77.7097 313.999 78.5052C313.8 79.2013 313.502 79.9968 313.104 80.8917C312.806 81.6872 312.458 82.3832 312.06 82.9799C311.762 83.477 311.613 84.0239 311.613 84.6206V85.2172C311.613 85.9132 311.414 87.1065 311.016 88.7969C310.618 90.4873 310.32 91.432 310.121 91.6308C309.922 91.8297 309.823 92.128 309.823 92.5258C309.823 92.9235 309.674 93.2715 309.376 93.5698L308.481 97.1496C307.785 100.033 307.288 101.475 306.989 101.475C306.79 101.475 306.641 101.525 306.542 101.624C306.442 101.724 306.293 102.072 306.094 102.668C305.995 103.165 305.846 103.613 305.647 104.011C305.05 106.894 304.255 108.883 303.261 109.977L301.471 113.706C300.974 114.302 300.427 115.744 299.83 118.031L299.085 120.119L299.383 120.269C299.582 120.269 299.681 120.169 299.681 119.97C299.681 119.672 299.731 119.523 299.83 119.523C299.93 119.622 300.079 119.821 300.278 120.119C300.477 120.418 301.173 120.567 302.366 120.567L313.552 119.97C316.932 119.771 318.921 119.622 319.517 119.523L322.948 119.672C326.428 119.871 329.361 120.119 331.747 120.418C332.145 120.418 332.393 120.418 332.493 120.418C332.592 120.318 332.692 120.219 332.791 120.119L333.537 120.418C333.736 120.418 333.885 120.517 333.984 120.716C334.084 120.915 334.233 121.014 334.432 121.014H334.879C335.078 121.014 335.326 121.163 335.625 121.462C335.923 121.661 336.072 121.86 336.072 122.058C336.072 122.257 335.973 122.357 335.774 122.357C335.674 122.357 335.625 122.406 335.625 122.506V122.804C335.625 123.003 335.326 123.252 334.73 123.55C334.233 123.749 333.984 123.948 333.984 124.147V124.445C333.984 124.644 333.785 124.743 333.388 124.743C333.089 124.743 332.94 124.843 332.94 125.041C332.94 125.141 332.89 125.191 332.791 125.191C332.791 125.191 332.692 125.191 332.493 125.191C332.393 125.191 332.194 125.24 331.896 125.34C331.697 125.439 331.449 125.638 331.15 125.936C330.852 126.235 330.604 126.384 330.405 126.384H330.106C328.814 126.384 326.129 126.831 322.053 127.726C321.556 127.826 319.617 128.124 316.236 128.621C312.955 129.019 310.618 129.367 309.226 129.665C308.729 129.765 307.536 130.013 305.647 130.411C303.758 130.709 302.813 130.958 302.813 131.157C302.813 131.256 302.714 131.306 302.515 131.306H301.769C301.372 131.306 300.874 131.405 300.278 131.604C299.184 131.803 298.488 132.002 298.19 132.201C297.892 132.4 297.096 132.549 295.804 132.648C294.61 132.748 293.318 132.996 291.926 133.394C289.341 133.891 286.358 134.14 282.977 134.14Z"/>
    <path d="M222.653 22.4761C213.494 21.2034 204.767 20.3368 196.203 18.6308C191.826 17.7643 187.854 14.9751 183.477 13.8377C179.722 12.8629 179.776 9.58621 178.425 7.17612C178.182 6.71576 179.452 4.68479 180.343 4.44107C183.018 3.65576 185.882 3.49328 188.584 2.84337C189.772 2.57257 190.853 1.67894 191.961 1.08319C191.799 0.731152 191.664 0.352036 191.502 0C198.472 0.487434 205.443 1.13735 212.441 1.40814C218.655 1.65186 224.896 1.54354 231.137 1.40814C235.811 1.3269 240.62 1.51646 245.159 0.622833C252.481 -0.83947 259.101 1.8685 265.99 3.03292C271.097 3.89947 272.34 4.98266 276.771 10.1007C271.448 12.5379 266.369 15.2188 261.019 17.1685C256.858 18.685 252.319 19.1995 247.969 20.2556C245.889 20.7701 244.403 21.5013 243.971 24.2634C242.106 36.1514 239.972 48.0123 237.73 59.8461C235.217 73.061 237.189 86.0051 239.026 99.0846C240.134 106.938 239.513 115.034 240.08 122.996C240.269 125.677 241.89 128.222 242.512 130.903C242.944 132.69 243.43 134.911 242.755 136.427C242.052 137.917 239.999 139.542 238.405 139.677C236.054 139.894 233.569 138.865 231.164 138.404C228.624 137.917 226.031 136.888 223.545 137.104C217.142 137.646 215.169 134.478 216.25 128.195C217.979 118.122 218.466 108.075 218.304 97.9201C218.141 87.1695 217.331 76.3647 218.033 65.6682C218.898 52.2909 221.032 39.0218 222.599 25.6986C222.734 24.5342 222.599 23.3156 222.599 22.4761H222.653Z"/>
    <path d="M119.931 128.962C118.309 128.664 117.067 127.987 116.202 126.985C115.337 125.984 114.635 124.873 114.095 123.709C113.554 122.544 113.014 121.407 112.474 120.27C111.933 119.132 111.15 118.266 110.15 117.643C108.826 114.366 107.718 110.142 106.827 104.916C105.935 99.6891 105.206 94.2461 104.665 88.5594C104.125 82.8727 103.747 77.3484 103.504 71.9866C103.26 66.6248 103.152 62.1838 103.152 58.6905C103.152 53.7891 103.314 49.1855 103.612 44.8528C103.909 40.52 104.611 35.8082 105.719 30.663C106.097 28.7133 106.638 26.926 107.286 25.3013C107.935 23.6765 108.799 22.2142 109.853 20.9685C110.907 19.7228 112.23 18.748 113.824 18.0439C115.419 17.3398 117.364 16.9878 119.714 16.9878C121.417 16.9878 123.092 17.2044 124.713 17.6377C126.334 18.071 127.793 18.7209 129.036 19.6145C130.278 20.5082 131.278 21.6455 132.008 23.0536C132.737 24.4618 133.115 26.1678 133.115 28.1988C133.115 30.2298 132.845 32.2337 132.305 34.4542C131.764 36.6747 131.251 38.7869 130.792 40.8179L130.332 41.1699C130.008 41.874 129.846 42.3885 129.819 42.6864C129.792 43.0114 129.792 43.2822 129.819 43.4988C129.846 43.7425 129.9 44.0404 129.927 44.4195C129.954 44.7986 129.981 45.3944 129.981 46.1797C129.738 47.6691 129.549 49.5917 129.387 51.9477C129.225 54.3307 129.09 56.9303 128.982 59.7737C128.874 62.6171 128.765 65.5687 128.684 68.6558C128.603 71.7429 128.549 74.7217 128.522 77.5921C128.495 80.4626 128.468 83.1164 128.468 85.5265V93.5691C128.549 93.8128 128.711 94.4628 128.928 95.546C129.171 96.6291 129.441 97.8748 129.738 99.2288C130.035 100.583 130.332 101.964 130.603 103.372C130.873 104.78 131.089 105.863 131.251 106.649C131.413 107.271 131.629 108.057 131.9 109.032C132.17 110.006 132.494 110.954 132.899 111.902C133.277 112.823 133.764 113.662 134.304 114.366C134.845 115.07 135.547 115.422 136.412 115.422C138.114 115.422 140.086 114.773 142.356 113.446C144.598 112.119 146.814 110.521 149.002 108.653C151.163 106.784 153.136 104.807 154.892 102.749C156.648 100.691 157.945 98.8768 158.782 97.3332C159.404 96.25 159.89 94.9773 160.241 93.542C160.593 92.1068 161.187 90.807 162.052 89.6426C162.592 88.9385 163.105 88.3427 163.565 87.8282C164.024 87.3137 164.402 86.8263 164.672 86.3659C164.943 85.9056 165.159 85.3911 165.321 84.8495C165.483 84.3079 165.564 83.5767 165.564 82.6289C165.564 81.6811 165.564 80.3001 165.51 78.4316C165.483 76.5631 165.402 74.4509 165.267 72.0679C165.159 69.6849 165.024 67.1935 164.862 64.5939C164.699 61.9942 164.51 59.5029 164.267 57.174C164.024 54.8452 163.808 52.733 163.565 50.8645C163.322 48.996 163.051 47.5878 162.754 46.6671L162.511 46.4234C162.349 46.2609 162.187 46.1797 162.052 46.1797C162.214 43.7696 162.079 41.5491 161.7 39.5181C161.322 37.4871 161.106 35.3207 161.106 32.9919C161.106 30.8255 161.971 29.1466 163.673 28.0363C165.375 26.899 167.239 26.3303 169.265 26.3303C170.427 26.3303 171.697 26.5198 173.048 26.926C174.399 27.3051 175.669 27.5218 176.831 27.5218C176.912 27.5218 176.993 27.4405 177.128 27.2781C177.236 27.1156 177.344 27.0344 177.425 27.0344H177.776C178.695 27.0344 179.397 27.4947 179.884 28.3883C180.343 29.282 180.748 30.0402 181.045 30.663C181.586 31.2859 182.207 31.6108 182.91 31.665C183.612 31.6921 184.152 32.0441 184.531 32.6669C184.909 33.2085 185.341 34.8604 185.801 37.6225C186.26 40.3846 186.719 43.7425 187.205 47.6691C187.665 51.5956 188.097 55.8471 188.475 60.3965C188.854 64.9459 189.205 69.2516 189.529 73.2865C189.826 77.3213 190.069 80.8688 190.232 83.9017C190.394 86.9346 190.475 88.9114 190.475 89.8592C190.475 92.3505 190.502 94.9231 190.583 97.5769C190.664 100.231 190.259 102.722 189.421 105.051V120.459C189.502 120.622 189.664 121.109 189.88 121.976C190.123 122.842 190.313 123.384 190.475 123.6V124.305C190.313 124.467 190.015 124.738 189.556 125.117C189.097 125.496 188.854 125.767 188.854 125.929C188.529 126.552 188.367 127.067 188.34 127.446C188.313 127.825 188.232 128.15 188.178 128.367C188.097 128.61 187.935 128.746 187.665 128.827C187.395 128.908 186.908 128.935 186.206 128.935V130.1C185.828 130.1 185.233 130.208 184.45 130.452C183.666 130.695 183.369 131.102 183.531 131.724C183.369 131.724 183.153 131.779 182.829 131.887C182.504 131.995 182.288 132.049 182.126 132.049C181.424 132.049 180.991 131.914 180.775 131.643C180.586 131.372 180.262 131.237 179.776 131.237C179.397 131.237 179.154 131.372 179.073 131.643C178.992 131.914 178.803 132.049 178.479 132.049L177.884 131.697C177.884 131.697 177.452 131.562 176.831 131.291C176.209 131.02 175.831 130.885 175.669 130.885C175.507 130.885 175.236 130.939 174.858 131.047C174.48 131.156 174.237 131.21 174.156 131.21H173.345C172.562 131.21 171.778 130.912 170.968 130.289C170.157 129.666 169.401 128.935 168.698 128.069C167.996 127.202 167.428 126.308 166.942 125.388C166.456 124.467 166.158 123.682 166.023 123.059H164.862C164.618 123.221 164.267 123.438 163.808 123.763C163.349 124.088 162.862 124.413 162.349 124.765C161.836 125.117 161.349 125.442 160.836 125.767C160.323 126.092 159.971 126.281 159.728 126.363C158.945 126.742 158.323 127.067 157.864 127.283C157.405 127.5 156.945 127.771 156.513 128.042C156.081 128.312 155.756 128.502 155.513 128.556C154.649 128.935 153.541 129.477 152.19 130.181C150.839 130.885 149.677 131.237 148.759 131.237L148.299 130.885C147.921 130.885 147.462 130.993 146.949 131.183C146.435 131.372 146.192 131.779 146.192 132.401L145.733 131.697L145.03 132.401C144.166 132.483 143.328 132.564 142.464 132.645C141.761 132.726 141.059 132.781 140.356 132.808C139.654 132.835 139.086 132.862 138.6 132.862H129.63C129.63 132.862 128.982 132.726 127.874 132.456C126.793 132.185 125.983 131.941 125.415 131.697C125.037 131.697 124.416 131.562 123.551 131.291C122.686 131.02 122.146 130.885 121.93 130.885C121.768 130.722 121.39 130.506 120.768 130.181C120.444 130.018 120.174 129.883 119.958 129.721V128.908L119.931 128.962ZM157.567 124.765C157.405 124.765 157.324 124.873 157.324 125.063C157.324 125.252 157.405 125.361 157.567 125.361C157.729 125.279 157.81 125.171 157.81 125.009C157.81 124.846 157.729 124.765 157.567 124.765ZM164.781 89.6155C164.537 89.6155 164.429 89.8051 164.429 90.2113C164.429 90.6174 164.537 90.807 164.781 90.807C164.943 90.807 165.024 90.6174 165.024 90.2113C165.024 89.8051 164.943 89.6155 164.781 89.6155ZM185.395 127.554C185.152 127.554 185.044 127.717 185.044 128.069C185.044 128.421 185.152 128.583 185.395 128.583C185.774 128.583 185.99 128.421 185.99 128.069C185.99 127.717 185.801 127.554 185.395 127.554Z"/>
    <path d="M7.83781 138.217C7.63895 138.217 7.4401 138.018 7.4401 138.018C7.24124 138.217 6.84353 138.615 6.84353 138.813C7.04238 139.012 7.24124 139.41 7.24124 139.609C6.24695 139.41 6.44581 138.615 5.84924 137.819H5.65038C5.45152 138.018 5.05381 138.416 5.25266 138.615L3.6618 137.222L2.07094 132.251L1.67323 131.654L1.27551 129.665L2.07094 129.466C2.07094 128.671 1.87209 125.29 1.67323 124.495C1.07666 111.966 0.678942 98.0445 0.678942 85.5155C0.678942 85.1177 0.678942 83.5267 0.877799 83.129C1.27551 81.1403 0.877799 67.8158 1.67323 67.6169C0.877799 64.2361 2.46866 60.6564 2.07094 57.4744V11.9325C1.87209 10.7392 1.67323 8.7505 3.26409 8.7505C4.25838 8.7505 3.86066 10.5404 4.85495 10.5404C5.84924 10.5404 5.65038 8.7505 6.64467 8.7505C6.84352 8.7505 7.04238 8.94937 7.04238 8.94937C7.24124 8.94937 7.83781 9.34711 7.83781 9.34711C8.03667 9.34711 9.22981 9.14824 9.42867 9.14824H9.62753C10.423 9.14824 11.6161 9.546 12.4115 9.546C13.4058 9.546 14.0024 8.7505 14.9967 8.7505C16.1898 8.7505 18.3773 9.14824 19.3715 9.74487C19.5704 9.74487 20.167 10.3415 20.3658 10.3415L20.5647 10.5404C21.1613 10.5404 21.3601 9.94374 21.9567 9.94374H22.1556L23.7464 11.5347L24.1441 16.3077C25.5361 16.5065 25.3373 15.3133 25.5361 13.9212H25.735C26.1327 15.3133 27.127 17.5009 28.9167 18.2964C29.1156 18.4953 30.5076 18.2964 30.7064 18.2964C30.9053 18.4953 31.303 19.0919 31.5019 19.0919L32.0984 18.6942C32.2973 18.4953 33.4904 18.4953 33.6893 18.4953H33.8881C35.2802 18.4953 35.0813 19.6885 36.2744 20.484C36.4733 20.0863 36.4733 19.2908 36.871 19.2908C37.0699 19.2908 41.2459 21.0806 41.6436 21.2795C41.6436 22.2739 45.223 30.8254 46.0185 30.8254C46.2173 30.8254 46.615 30.6265 46.8139 30.4277L46.0185 32.0186C46.2173 32.2175 46.4162 32.2175 46.615 32.2175C46.4162 32.4164 47.4105 32.2175 47.4105 32.2175L48.6036 35.0017C50.791 39.1781 51.9842 43.7522 54.1716 47.7296C54.3705 48.1274 56.1602 50.9116 56.359 51.5082L62.3248 64.2361C62.5236 64.6338 63.1202 65.6282 63.3191 65.6282H63.7168L64.5122 59.0654C64.5122 58.6676 64.7111 58.071 64.7111 57.8721L66.8985 39.9736C66.8985 39.7747 67.2962 39.1781 67.0973 38.9792C67.6939 34.4051 67.6939 29.4333 68.8871 25.0581C69.6825 23.666 69.8814 15.3133 72.6654 17.1032C72.4665 16.7054 71.8699 15.5122 71.8699 15.3133C71.8699 15.1144 72.2676 14.5178 72.2676 14.5178V12.5291C72.6654 12.5291 73.2619 12.9268 73.8585 12.9268C73.4608 9.74487 74.6539 7.35838 74.8528 3.97754C75.4494 5.17079 78.6311 5.96628 79.4265 5.7674C80.2219 7.35839 84.7957 8.35275 86.1877 8.35275C87.7785 10.7392 88.1762 13.5235 88.3751 16.3077C88.574 16.9043 88.574 18.6942 88.574 18.893C88.574 20.484 87.5797 27.0468 87.182 28.2401V29.0355C87.182 29.6322 87.7785 29.6322 87.9774 30.4277V31.0243L86.5854 44.7465C85.1934 47.7296 85.3922 52.3037 85.79 55.6845H86.1877L87.182 47.9285L87.9774 46.1386V46.7352L84.7957 90.6862L85.79 99.4366C84.9945 99.8343 85.5911 101.226 85.3922 101.823C85.1934 106.397 84.5968 110.971 84.9945 115.744C85.3922 117.932 87.5797 119.92 87.7785 122.506C87.9774 123.5 87.9774 126.284 86.1877 125.887C86.1877 125.887 85.5911 125.489 85.5911 125.29C84.0002 126.483 84.5968 127.478 83.6025 128.671H82.8071C80.4208 129.466 79.2277 131.654 76.0459 131.057C75.6482 131.853 71.2734 132.449 70.2791 132.449C67.6939 132.251 66.1031 128.273 64.1145 126.881L55.3648 111.568C54.967 110.176 52.3819 105.801 51.3876 104.21C51.3876 104.011 51.1888 103.812 51.1888 103.812L39.2573 76.9639L39.0584 75.5718L30.9053 57.4744L30.7064 56.8778C30.7064 56.6789 30.5076 56.6789 30.3087 56.6789V56.8778L29.3144 68.4124C30.1099 71.3955 29.3144 72.7876 29.1156 75.9696C28.3201 89.8907 28.7178 104.408 28.9167 118.528C28.519 120.119 28.3201 121.909 28.3201 123.699C27.9224 123.5 27.5247 123.699 27.5247 123.898L25.5361 131.455C22.7521 130.859 22.5533 132.648 22.3544 135.035C21.7578 134.239 21.7578 132.648 20.9624 132.251C19.9681 132.648 20.3658 134.637 20.167 135.234C19.1727 137.024 15.1955 139.012 13.0081 138.813H12.0138C11.815 138.813 11.2184 138.416 11.0195 138.416C11.0195 138.416 10.8207 138.615 10.8207 138.813C10.423 139.609 10.423 140.404 9.03096 140.404H8.8321C8.63324 140.007 7.83781 139.012 7.83781 138.813V138.217ZM0.281227 122.307C0.678942 122.904 0.877799 124.892 0.678942 125.29C0.480085 125.887 0.0823697 121.909 0.281227 122.307ZM43.6322 24.6603L43.831 24.4615C44.2287 24.6603 44.2287 25.0581 44.4276 25.257V25.6547C44.2287 25.4558 43.831 25.0581 43.6322 25.0581V24.6603ZM0.678942 126.483C0.877799 126.881 1.07666 128.87 0.877799 129.466L0.678942 126.483ZM88.1762 27.6434C88.7728 27.8423 88.7728 28.4389 88.1762 28.2401C87.7785 28.2401 87.7785 27.6434 88.1762 27.6434ZM84.7957 74.3786C84.398 74.3786 84.398 75.1741 84.7957 75.1741C85.1934 75.1741 85.1934 74.3786 84.7957 74.3786ZM0.0823694 114.551C0.281227 114.75 0.281227 115.744 0.281227 116.142C0.0823697 116.142 -0.116488 114.352 0.0823694 114.551ZM87.7785 43.7522C87.9774 44.1499 88.1762 44.7465 87.9774 44.9454C87.7785 45.1443 87.5797 43.7522 87.7785 43.7522ZM79.0288 16.5065L78.8299 16.7054C78.8299 16.7054 78.4322 17.1032 78.2334 17.1032V17.5009L79.2277 16.7054L79.0288 16.5065ZM82.2105 127.677L82.4094 128.074H83.2048C83.006 127.875 82.6082 127.677 82.6082 127.677H82.2105ZM70.4779 22.075V22.8705H70.6768V22.075H70.4779ZM85.3922 56.8778V57.2755H85.79V56.8778H85.3922ZM5.45152 135.631L4.85495 136.029H5.65038L5.45152 135.631ZM70.6768 24.0637C70.6768 23.666 70.0802 23.666 70.2791 24.0637C70.2791 24.2626 70.4779 24.2626 70.6768 24.0637ZM76.6425 10.5404C76.6425 10.1426 76.0459 10.1426 76.2448 10.5404C76.2448 10.7392 76.4437 10.7392 76.6425 10.5404ZM85.5911 59.0654C85.5911 58.8665 85.1934 58.8665 85.1934 59.0654C85.3922 59.4631 85.5911 59.4631 85.5911 59.0654ZM87.182 82.9301C87.3808 82.9301 87.3808 83.5267 87.182 83.5267C86.9831 83.7256 86.9831 82.7313 87.182 82.9301ZM83.2048 13.9212L83.6025 14.3189V13.9212H83.2048Z"/>
</svg>
