<svg width="523" height="150" viewBox="0 0 523 150" xmlns="http://www.w3.org/2000/svg">
    <g fill="#32468a">
        <path d="M508.534 27.2955C509.651 27.6704 510.874 28.0184 512.177 28.3397C513.613 28.661 514.943 29.0359 516.193 29.5179C517.442 29.9998 518.426 30.6692 519.171 31.5528C520.66 33.427 521.67 35.1942 522.202 36.8274C522.734 38.4607 523 39.7459 523 40.6831C523 42.2628 522.601 43.9229 521.777 45.6632C519.729 49.8669 518.453 54.2848 517.948 58.9437C517.389 63.4151 515.98 67.2172 513.693 70.4302C511.406 73.6432 508.853 76.6688 505.981 79.5605C505.051 80.578 504.093 81.5954 503.083 82.6664C498.536 87.5127 493.377 90.8328 487.607 92.6535C481.836 94.4742 475.906 95.813 469.79 96.6966L468.674 96.884C465.882 97.3124 462.93 97.6605 459.898 97.9282C458.463 98.0621 456.973 98.2227 455.405 98.4102C455.085 100.552 454.793 102.721 454.474 104.917C453.596 109.629 453.144 113.217 453.064 115.707C453.011 118.197 452.958 119.562 452.958 119.803C452.958 124.275 453.969 128.72 455.936 133.164C456.495 134.289 456.787 135.306 456.787 136.163C456.787 136.779 456.654 137.314 456.415 137.77C455.857 138.894 454.846 139.617 453.437 139.938C447.959 141.331 442.401 142 436.79 142C435.993 141.946 435.142 141.331 434.317 140.153C433.467 139.001 432.802 137.85 432.297 136.725C428.627 127.381 426.792 117.742 426.792 107.835C426.792 106.148 426.845 104.408 426.978 102.667V99.9363C426.978 92.8409 426.367 85.8259 425.117 78.8376C424.558 75.5175 424.266 72.117 424.266 68.663C424.266 64.8342 424.612 60.9518 425.303 56.9891C425.728 53.3477 426.048 49.733 426.234 46.172C426.287 45.2884 426.34 44.4048 426.34 43.548C426.34 41.2989 426.048 39.1301 425.489 37.0416C424.479 34.3374 424 31.8741 424 29.5982C424 27.3223 424.479 25.2606 425.409 23.3864C427.271 19.504 430.116 16.05 433.919 13.0244C438.838 9.00813 444.289 7 450.272 7C452.586 7 454.926 7.29453 457.292 7.8568C459.845 8.2852 462.425 8.52618 465.057 8.52618H466.839C468.408 8.52618 469.923 8.55295 471.413 8.63328C486.942 9.38298 499.307 15.6216 508.534 27.3758V27.2955ZM454.979 71.3405C455.351 71.5815 455.697 71.8493 456.016 72.0902C456.335 72.3312 456.681 72.599 457.053 72.8399C458.356 71.9564 459.712 71.0728 461.068 70.216C464.366 68.1543 467.61 66.0123 470.801 63.8167C473.221 62.1299 475.508 60.2289 477.635 58.1672C478.007 57.7923 478.38 57.4443 478.752 57.123C479.683 56.2394 480.56 55.329 481.358 54.3919C482.156 53.4548 482.661 52.4909 482.847 51.4734C483.219 49.4117 483.405 47.4304 483.405 45.5561C483.405 35.8368 478.566 28.3665 468.913 23.1454C467.849 22.717 466.679 22.476 465.35 22.476H464.419C462.664 22.5296 461.148 22.9044 459.845 23.6006C459.34 23.9219 459.021 24.5645 458.861 25.5819C458.702 26.5994 458.622 27.6436 458.622 28.7949C458.569 29.5982 458.489 30.3747 458.436 31.044C458.303 32.115 458.25 33.186 458.25 34.257C458.25 35.1406 458.223 36.0242 458.143 36.881C457.399 45.5294 456.628 54.2045 455.803 62.8528C455.484 65.6642 455.218 68.5024 454.952 71.3138L454.979 71.3405Z"/>
        <path d="M393.701 59.5904C392.6 60.7449 391.258 61.7382 390.453 63.0538C388.279 66.7051 386.212 70.4101 384.36 74.2226C382.776 77.498 380.119 79.5116 376.925 80.8272C371.637 83.0556 366.242 85.0692 360.901 87.1633C356.392 88.9084 351.855 88.4252 347.292 87.3781C346.433 87.1902 345.575 86.9754 344.42 86.6801C344.152 87.9956 343.857 89.2306 343.696 90.4656C342.864 96.6138 342.219 102.816 341.2 108.937C340.931 110.521 341.092 111.192 342.595 111.488C347.346 112.427 352.097 113.474 356.875 114.253C359.586 114.683 362.377 114.844 365.115 114.79C366.645 114.79 368.175 114.011 369.705 113.823C370.644 113.716 372.094 113.797 372.55 114.36C374.321 116.669 376.039 119.112 377.274 121.744C377.757 122.791 377.489 124.912 376.683 125.717C374.831 127.623 374.724 129.852 374.402 132.107C374.133 133.986 373.382 135.758 371.422 136.08C368.175 136.617 364.846 137.02 361.572 136.832C356.821 136.537 352.043 135.973 347.4 134.98C339.911 133.369 332.61 130.603 325.068 129.61C318.868 128.805 315.781 125.153 312.99 120.723C312.157 119.381 311.755 117.26 312.157 115.756C314.251 107.917 316.586 100.104 319.029 92.3718C321.632 84.1026 323.538 75.7261 324.316 67.1078C325.202 57.362 326.061 47.5893 327.242 37.8703C328.128 30.6213 330.383 23.8288 334.274 17.4121C336.046 14.4857 337.683 12.7406 341.119 12.9822C341.978 13.0359 343.025 13.1433 343.669 13.6265C345.843 15.2643 348.017 14.7273 350.406 14.2977C354.513 13.546 358.7 13.0896 362.86 12.5795C367.182 12.0425 371.53 11.5861 375.851 11.1565C381.864 10.539 387.42 11.7472 392.681 14.8079C396.761 17.1973 396.948 18.0833 393.083 20.9292C392.788 21.144 392.359 21.3856 392.278 21.7078C391.553 24.2584 389.057 25.8961 388.252 28.1513C385.863 34.8365 379.797 34.9439 374.482 36.152C369.624 37.2528 364.605 37.8703 359.639 38.3804C356.902 38.6489 355.559 39.9376 354.942 42.3808C353.493 48.2068 351.99 54.006 350.486 59.8052C349.95 61.8725 350.648 62.5705 352.768 62.3826C357.438 61.9262 362.162 61.8993 366.752 61.067C374.16 59.7515 381.595 59.832 389.057 59.7246C390.48 59.7246 391.875 59.0534 393.298 58.6776C393.432 58.9729 393.566 59.2414 393.701 59.5367V59.5904Z"/>
        <path d="M287.506 62.4509C285.568 64.7946 284.066 66.6478 282.564 68.4738C281.881 69.3186 281.39 70.3815 280.516 70.981C277.485 73.0523 276.83 76.4044 276.147 79.4294C275.219 83.7081 272.57 86.1881 268.938 87.8233C263.941 90.058 258.753 90.3578 253.483 88.4774C251.189 87.6598 248.731 87.1965 245.564 86.3517C246.028 93.6827 246.438 100.441 246.875 107.582H252.745C259.408 107.582 266.071 107.691 272.734 107.527C275.792 107.445 278.905 107.064 281.881 106.41C283.52 106.055 285.131 105.047 286.469 103.984C288.763 102.158 290.729 102.131 292.968 104.148C293.842 104.938 294.906 105.483 295.944 106.083C297.774 107.146 298.757 108.536 298.866 110.797C298.948 112.514 299.958 114.177 300.422 115.921C300.641 116.657 300.777 117.556 300.559 118.265C299.822 120.69 298.866 123.061 298.101 125.487C297.255 128.212 294.388 130.392 290.674 130.283C286.223 130.147 281.745 129.711 277.321 129.166C268.692 128.13 260.036 127.313 251.489 129.384C243.652 131.292 235.952 130.256 228.661 127.885C222.271 125.787 218.803 120.69 217.738 113.741C216.127 103.112 215.8 92.4563 216.1 81.7732C216.455 70.1089 217.056 58.472 217.875 46.835C218.23 41.8205 219.568 36.8604 220.087 31.8459C220.305 29.7474 219.814 27.4582 219.049 25.4687C217.739 22.1166 215.964 19.3368 217.766 15.2489C219.35 11.6243 222.463 11.4335 225.057 10.4524C233.221 7.40007 241.768 7.80886 250.342 8.46293C256.404 8.92623 262.521 9.17151 268.583 9.117C272.979 9.0625 276.092 11.488 279.506 13.4775C279.588 13.532 279.642 13.6137 279.697 13.6955C282.427 16.7206 283.793 26.9404 282.018 30.7013C278.195 38.7954 278.932 38.1686 269.948 38.1141C266.126 38.1141 262.33 38.2231 258.507 38.1958C255.886 38.1958 254.793 39.3132 254.575 41.9295C254.466 43.2649 253.373 44.6275 252.418 45.7176C250.424 48.0886 247.776 50.0508 246.246 52.6671C244.608 55.4196 245.837 57.0276 249.086 56.8913C254.356 56.6733 259.654 56.3462 264.869 55.6377C269.593 55.0109 274.017 55.3651 278.222 57.5454C281.526 59.2623 284.803 61.0882 287.397 62.5054L287.506 62.4509Z"/>
        <path d="M116.827 15.599C116.413 13.0354 117 10.8997 118.586 9.19197C120.186 7.38963 122.164 5.97725 124.522 4.95484C126.88 3.93242 129.381 3.2672 132.024 2.95917C134.763 2.66425 137.124 2.65443 139.108 2.9297C140.431 3.11322 141.971 3.47135 143.726 4.0041C145.496 4.44229 146.808 5.39543 147.663 6.86353C148.911 8.96455 149.405 11.2982 149.144 13.8646C148.883 16.431 148.77 18.9697 148.805 21.4808C148.878 23.0332 148.899 25.3013 148.869 28.2852C148.933 31.2823 148.904 34.6038 148.781 38.2496C148.659 41.8955 148.51 45.7306 148.334 49.7547C148.159 53.7788 147.956 57.6546 147.726 61.3819C147.604 65.0278 147.426 68.3769 147.194 71.4292C147.069 74.4 146.995 76.6551 146.974 78.1943C146.976 78.8694 146.832 80.2471 146.542 82.3275C146.347 84.4211 146.106 86.8456 145.818 89.6011C145.544 92.262 145.29 95.1186 145.058 98.1709C144.825 101.223 144.673 104.046 144.601 106.638C144.529 109.231 144.604 111.458 144.826 113.32C145.156 115.101 145.739 116.098 146.577 116.31C147.238 116.402 147.872 116.346 148.479 116.141C149.085 115.935 149.644 115.724 150.156 115.506C150.776 115.206 151.342 114.947 151.854 114.729C152.379 114.416 152.925 114.299 153.492 114.378L154.343 114.496L153.295 115.796L154.712 115.993L155.681 115.26C155.991 115.11 156.881 114.944 158.351 114.763C159.916 114.594 161.764 114.465 163.895 114.375C166.04 114.191 168.32 114.073 170.735 114.023C173.163 113.878 175.396 113.754 177.433 113.651C179.483 113.453 181.19 113.304 182.552 113.204C184.009 113.117 184.792 113.033 184.899 112.951C186.005 112.623 187.353 112.279 188.944 111.922C190.629 111.577 191.992 111.477 193.031 111.621L193.315 111.661C193.49 111.781 193.606 111.99 193.661 112.287C193.81 112.597 193.878 112.799 193.865 112.894C193.624 113.246 193.436 113.557 193.302 113.828C193.181 114.004 193.101 114.233 193.061 114.517C193.048 114.612 192.988 114.7 192.88 114.781L192.801 115.349L197.168 114.075L196.911 115.919C197.951 116.063 198.847 115.85 199.601 115.28C200.368 114.615 201.366 114.368 202.594 114.538L202.476 115.389L196.437 119.323C196.56 119.822 196.494 120.295 196.24 120.742C195.985 121.188 195.635 121.622 195.192 122.042C196.013 121.674 196.829 121.353 197.637 121.08C198.54 120.82 199.424 120.701 200.288 120.725L200.492 121.331C200.479 121.426 200.418 121.514 200.311 121.595C200.298 121.69 200.284 121.785 200.271 121.879C200.164 121.961 200.103 122.049 200.09 122.143L197.967 122.861C197.846 123.037 197.652 123.395 197.384 123.937C197.21 124.491 197.023 124.802 196.82 124.871C196.163 126.129 194.832 127.39 192.826 128.654C190.833 129.824 188.017 131.023 184.378 132.254C180.846 133.402 176.398 134.569 171.031 135.752C165.76 136.949 159.523 138.156 152.322 139.374L151.046 139.197L151.422 136.502C151.22 136.57 150.849 136.808 150.311 137.215C149.867 137.636 149.639 137.893 149.625 137.988C149.599 138.177 149.607 138.467 149.649 138.859C149.785 139.263 149.9 139.472 149.995 139.485C148.391 139.937 146.564 140.262 144.513 140.46C142.476 140.563 140.649 140.887 139.032 141.434L139.229 140.016L137.245 139.74L136.988 141.584C135.854 141.427 134.868 141.242 134.031 141.03C133.194 140.817 132.41 140.564 131.681 140.27C131.059 139.894 130.389 139.512 129.673 139.124C129.051 138.748 128.294 138.306 127.402 137.797C126.415 137.274 125.145 136.712 123.591 136.111C122.05 135.416 120.516 134.673 118.989 133.883C117.462 133.092 116.076 132.322 114.832 131.571C113.601 130.725 112.755 129.885 112.293 129.05C111.126 127.057 110.377 124.832 110.044 122.376C109.82 119.839 109.744 117.274 109.816 114.681C109.996 112.007 110.264 109.394 110.619 106.84C110.975 104.287 111.25 101.964 111.446 99.8701C111.511 99.3973 111.596 98.4451 111.699 97.0135C111.91 95.5005 112.1 93.7918 112.269 91.8874C112.438 89.983 112.626 87.9367 112.835 85.7486C113.043 83.5605 113.232 81.5143 113.401 79.6099C113.583 77.6109 113.726 75.8956 113.829 74.4641C113.932 73.0325 114.016 72.0803 114.082 71.6075C114.122 71.3238 114.191 69.7911 114.289 67.0094C114.495 64.1462 114.686 60.7026 114.861 56.6784C115.05 52.5597 115.23 48.1507 115.403 43.4515C115.671 38.7654 115.845 34.4037 115.926 30.3665C116.101 26.3423 116.137 22.9736 116.033 20.2602C116.024 17.56 115.931 16.1495 115.756 16.0287L116.827 15.599ZM134.548 138.354C134.359 138.328 134.238 138.504 134.186 138.882C134.146 139.166 134.221 139.321 134.41 139.347C134.693 139.387 134.855 139.264 134.894 138.981C134.947 138.602 134.832 138.394 134.548 138.354ZM148.267 137.366C147.984 137.326 147.809 137.543 147.743 138.016C147.677 138.489 147.786 138.745 148.07 138.784C148.542 138.85 148.811 138.646 148.877 138.173C148.943 137.7 148.74 137.431 148.267 137.366ZM152.599 137.388C152.126 137.323 151.864 137.479 151.811 137.857C151.771 138.141 151.988 138.315 152.46 138.381C152.744 138.42 152.905 138.298 152.945 138.014C152.998 137.636 152.882 137.427 152.599 137.388ZM190.597 128.056C190.219 128.003 190.011 128.119 189.971 128.403C189.932 128.686 190.114 128.76 190.518 128.623C190.613 128.636 190.673 128.548 190.7 128.359C190.726 128.17 190.692 128.069 190.597 128.056ZM192.618 127.035L193.284 126.404L192.717 126.326L192.618 127.035ZM194.836 124.595C194.552 124.556 194.378 124.773 194.312 125.246C194.259 125.624 194.375 125.833 194.658 125.872C195.131 125.937 195.393 125.781 195.446 125.403C195.512 124.93 195.308 124.661 194.836 124.595ZM196.411 123.657C196.128 123.618 195.96 123.787 195.907 124.166C195.854 124.544 195.97 124.753 196.253 124.792C196.537 124.831 196.705 124.662 196.758 124.284C196.81 123.905 196.695 123.696 196.411 123.657ZM194.785 115.624C194.502 115.585 194.327 115.801 194.261 116.274C194.195 116.747 194.304 117.003 194.588 117.042C194.966 117.095 195.188 116.885 195.253 116.412C195.319 115.939 195.163 115.676 194.785 115.624Z"/>
        <path d="M40.6866 37.9187C41.5877 40.5895 42.9257 42.8515 44.7279 44.6229C46.5302 46.4216 48.4143 48.0296 50.3804 49.5012C51.8003 50.5368 53.1656 51.5997 54.5036 52.7716C59.8284 57.5681 65.317 62.2011 71.024 66.6705L71.9798 67.4336C72.6078 68.0059 73.3451 68.4965 74.137 68.878C74.9289 69.2595 75.6934 69.4503 76.4034 69.4503H76.7038C77.7414 69.3141 78.7245 69.2595 79.6802 69.2595C85.2507 69.2595 88.036 71.8486 88.036 77.0266C88.036 78.1167 87.8994 79.2886 87.6537 80.5695C85.6057 91.2526 83.3665 101.908 80.9363 112.564C80.4994 114.091 79.7075 115.589 78.6425 117.061L77.6868 118.587C77.1134 119.623 76.5399 120.658 75.9665 121.749C74.6831 124.419 73.1539 126.899 71.3517 129.134C68.8668 131.887 66.027 133.713 62.8594 134.639C59.6919 135.566 56.3878 136.193 52.9199 136.52C51.4999 136.656 50.1073 136.847 48.6874 137.092C47.2128 137.283 45.7383 137.392 44.2637 137.392C40.6866 137.392 37.3006 136.765 34.0784 135.484C29.6002 133.685 25.2858 131.451 21.1079 128.78C19.8245 128.017 18.5684 127.281 17.3669 126.572C10.3218 122.239 5.73435 116.843 3.60445 110.439C1.44724 104.007 0.245758 97.1665 0 89.89C0 89.3177 0.163839 88.7181 0.491516 88.1185C0.819193 87.519 1.20148 87.0557 1.63839 86.7286C5.59782 84.1124 9.7757 82.8042 14.1174 82.8042C16.1654 82.8042 18.268 83.104 20.4525 83.6763C23.5928 84.6302 25.8865 86.3471 27.3064 88.7999C28.7537 91.2526 29.9005 93.9234 30.8017 96.8122C31.3751 98.6109 31.7574 100.382 31.9485 102.181C32.1943 103.98 32.6039 105.724 33.15 107.441C33.6961 109.158 34.6246 110.793 35.9899 112.319C39.3759 116.271 43.4172 118.26 48.0866 118.26C48.5235 118.26 49.015 118.233 49.5339 118.151C55.6232 117.061 59.2823 113.327 60.5657 106.95C61.8491 102.426 63.5694 98.0658 65.7539 93.9234C66.5185 92.261 66.9008 90.7076 66.9008 89.2359C66.9008 86.3744 65.4262 83.9216 62.4771 81.9594C61.3849 81.1963 60.4018 80.3787 59.5007 79.4794C58.4085 78.3893 57.2343 77.4627 55.9509 76.6996C49.7523 73.3202 43.4172 70.0771 36.9456 67.0248C26.8422 62.1193 18.6503 55.1698 12.3698 46.2309C9.7484 41.7069 8.43769 37.3737 8.43769 33.2857C8.43769 26.8268 11.7145 20.8857 18.2407 15.4624C23.2924 11.2382 28.7537 7.66804 34.6519 4.72473C41.0416 1.59065 46.5302 0.0372314 51.063 0.0372314C52.1553 0.0372314 53.2202 0.146243 54.2306 0.337013C59.2823 1.29086 64.4705 4.09791 69.7952 8.75815C73.3178 11.6197 76.8949 14.3722 80.554 16.9885C80.7997 17.1793 81.1001 17.3701 81.4278 17.5608C83.6123 19.2778 85.1688 21.24 86.1245 23.4475C87.0802 25.6549 87.5717 27.5626 87.5717 29.1433C87.5717 29.9609 87.4625 30.7785 87.2714 31.5416C86.5614 34.2123 85.2507 36.3926 83.2846 38.055C81.3459 39.7174 79.0794 40.535 76.5126 40.535H75.6388C73.3997 40.2897 71.1333 39.6084 68.8122 38.5183C66.5185 37.4282 64.607 36.0655 63.1598 34.4031C61.1664 32.3591 59.6373 31.2963 58.545 31.2418C57.4527 31.1873 56.7428 31.1328 56.4424 31.1328C54.7767 31.1328 53.0837 31.4598 51.3634 32.0866C48.7966 33.0405 46.339 34.3214 43.9634 35.9293C42.8711 36.6378 41.7788 37.2919 40.6866 37.946V37.9187Z"/>
    </g>
</svg>
