<svg width="835" height="150" viewBox="0 0 835 150" xmlns="http://www.w3.org/2000/svg">
    <g fill="#32468a">
        <path d="M793.029 103.045C793.275 100.047 793.575 97.2398 793.903 94.6235C794.531 89.9632 794.859 85.521 794.859 81.2968V79.1984C794.149 70.5864 793.138 61.9745 791.8 53.4171C791.363 50.7463 790.981 48.0756 790.653 45.4593C790.271 43.0338 789.834 40.581 789.315 38.0738C788.169 33.1682 787.568 28.2627 787.486 23.4117C787.622 21.8855 788.196 20.3594 789.261 18.806C790.326 17.2526 791.527 15.7809 792.865 14.3092C793.493 13.6007 794.094 12.9466 794.586 12.2925C795.487 11.3387 796.524 10.5484 797.753 9.89428C798.982 9.18571 800.02 8.39537 800.921 7.49603C802.259 5.96987 803.651 5.20679 805.044 5.20679H805.235C806.71 5.26129 808.102 5.58833 809.468 6.16064C810.287 6.48767 811.079 6.73295 811.761 6.92372C819.707 8.64065 825.278 11.6112 828.473 15.7809C831.668 19.9778 833.798 25.701 834.808 32.9775C834.944 34.0676 834.999 35.1577 834.999 36.2478C834.999 38.6188 834.699 41.0171 834.125 43.4426C833.743 45.432 833.497 47.367 833.361 49.2747C832.978 54.7798 832.678 60.2303 832.487 65.6537C832.432 66.7438 832.35 67.8066 832.296 68.815V72.7394C832.35 73.448 832.405 74.1566 832.405 74.8379C832.405 76.6366 832.268 78.3535 832.023 80.0159C830.93 85.4393 829.784 90.8898 828.555 96.3132C827.271 102.309 826.07 108.277 824.896 114.218C824.841 114.464 824.786 114.736 824.786 114.981C824.786 115.608 824.923 116.29 825.169 116.998C825.496 117.952 825.879 118.906 826.316 119.86C826.507 120.241 826.671 120.595 826.807 120.923C827.381 122.585 827.681 124.22 827.681 125.801C827.681 128.662 826.78 131.524 825.005 134.331C822.438 138.419 819.079 140.463 814.929 140.463H813.973C811.488 140.027 808.976 139.509 806.491 138.937C802.586 138.037 798.654 137.356 794.695 136.838C794.121 136.702 793.575 136.32 793.056 135.639C792.538 134.958 792.155 134.304 791.91 133.677C791.008 131.306 790.189 128.962 789.425 126.591C788.278 123.266 787.049 120.023 785.766 116.807C785.056 115.526 784.045 114.382 782.707 113.346L781.369 112.202C771.757 103.971 764.303 94.1329 759.005 82.6867C758.623 81.9236 758.077 81.2151 757.367 80.5883L757.258 80.4792C757.012 80.234 756.575 79.9614 756.002 79.7162C755.674 79.5254 755.292 79.3074 754.855 79.0348V83.259C754.855 86.0661 754.745 88.7641 754.554 91.2986C754.227 94.8688 753.872 98.4934 753.489 102.118C752.725 108.195 752.179 114.273 751.851 120.405C751.851 122.585 752.206 124.82 752.916 127.109C753.489 129.098 753.844 131.061 753.981 133.05C753.981 134.385 753.681 135.83 753.08 137.356C752.479 138.882 751.742 139.809 750.923 140.136C745.024 141.662 739.017 142.48 732.873 142.534H732.491C731.863 142.534 731.153 142.398 730.388 142.153C729.487 141.907 728.914 141.498 728.613 140.953C728.313 140.408 728.176 139.918 728.176 139.482C728.176 138.773 728.34 137.956 728.668 137.002C728.804 136.756 728.859 136.484 728.859 136.239C728.859 135.993 728.804 135.721 728.668 135.476C728.477 134.849 728.231 134.195 727.903 133.568C727.384 132.559 727.084 131.524 726.948 130.516C726.702 125.283 726.511 120.05 726.374 114.791C726.32 111.139 726.21 107.514 726.074 103.862L725.309 86.4204C725.063 81.7056 724.818 76.9909 724.626 72.3306C724.435 66.7165 724.217 61.1024 723.944 55.4611C723.807 50.9371 723.643 46.4131 723.452 41.9437C723.398 41.1806 723.288 40.4448 723.152 39.7362C723.097 39.4092 723.015 39.1366 722.961 38.8641C722.906 37.774 722.852 36.7111 722.852 35.7028C722.852 24.7198 728.176 19.2148 738.799 19.2148C740.41 19.2148 742.157 19.351 744.069 19.5963C754.636 21.395 762.091 26.8456 766.433 35.9753C767.716 39.1094 768.699 42.3525 769.409 45.7591C769.982 48.8114 770.829 51.8365 771.894 54.7525C775.28 62.8739 778.83 70.9135 782.543 78.8986C784.209 82.6595 785.875 86.3931 787.541 90.0995C788.633 92.525 789.78 95.2231 791.008 98.1391C791.582 99.6108 792.265 101.191 793.029 102.936V103.045Z"/>
        <path d="M693.061 76.2822C691.122 78.6259 689.621 80.4791 688.119 82.3051C687.436 83.1499 686.945 84.2128 686.071 84.8123C683.04 86.8836 682.384 90.2357 681.702 93.2607C680.773 97.5394 678.125 100.019 674.493 101.655C669.496 103.889 664.307 104.189 659.037 102.309C656.744 101.491 654.286 101.028 651.118 100.183C651.583 107.514 651.992 114.273 652.429 121.413H658.3C664.963 121.413 671.626 121.522 678.288 121.358C681.347 121.277 684.46 120.895 687.436 120.241C689.074 119.887 690.685 118.878 692.023 117.816C694.317 115.99 696.283 115.962 698.522 117.979C699.396 118.769 700.461 119.314 701.499 119.914C703.328 120.977 704.311 122.367 704.421 124.629C704.503 126.346 705.513 128.008 705.977 129.752C706.196 130.488 706.332 131.388 706.114 132.096C705.376 134.522 704.421 136.893 703.656 139.318C702.81 142.043 699.942 144.224 696.229 144.115C691.778 143.978 687.299 143.542 682.876 142.997C674.247 141.962 665.591 141.144 657.044 143.215C649.207 145.123 641.507 144.087 634.216 141.716C627.826 139.618 624.358 134.522 623.293 127.572C621.682 116.943 621.354 106.288 621.655 95.6045C622.01 83.9402 622.611 72.3033 623.43 60.6663C623.785 55.6518 625.123 50.6917 625.642 45.6772C625.86 43.5787 625.369 41.2895 624.604 39.3C623.293 35.9479 621.518 33.1681 623.321 29.0802C624.904 25.4556 628.017 25.2648 630.611 24.2837C638.776 21.2314 647.323 21.6402 655.897 22.2942C661.959 22.7575 668.076 23.0028 674.138 22.9483C678.534 22.8938 681.647 25.3193 685.06 27.3088C685.142 27.3633 685.197 27.445 685.252 27.5268C687.982 30.5519 689.347 40.7717 687.573 44.5326C683.75 52.6267 684.487 51.9999 675.503 51.9454C671.68 51.9454 667.885 52.0544 664.062 52.0271C661.44 52.0271 660.348 53.1445 660.13 55.7608C660.02 57.0962 658.928 58.4588 657.972 59.5489C655.979 61.9199 653.33 63.8821 651.801 66.4984C650.163 69.2509 651.392 70.8589 654.641 70.7226C659.911 70.5046 665.209 70.1775 670.424 69.469C675.148 68.8422 679.572 69.1964 683.777 71.3767C687.081 73.0936 690.358 74.9195 692.952 76.3367L693.061 76.2822Z"/>
        <path d="M552.135 53.199C552.899 53.2535 553.691 53.3352 554.537 53.3897C556.34 53.635 558.197 53.7713 560.108 53.7713H561.255C563.112 53.5805 564.941 53.2535 566.716 52.8174C569.092 52.2451 571.413 51.9453 573.734 51.9453H574.417C583.947 52.5722 593.34 54.0166 602.542 56.2513C604.59 56.9599 605.682 57.8865 605.846 59.0311C606.01 60.1757 606.092 61.1023 606.092 61.8109C606.092 62.901 605.956 63.9911 605.71 65.0812C605.464 66.2259 605.327 67.316 605.327 68.3516C605.191 69.3054 604.672 70.341 603.744 71.4039C602.815 72.494 601.914 73.1208 601.013 73.3116C598.719 73.5569 596.398 73.6931 594.105 73.6931C593.203 73.6931 592.275 73.6659 591.319 73.5841H589.217C587.797 73.5841 586.377 73.6114 584.902 73.6931H583.455C580.26 73.6931 577.147 74.0747 574.143 74.7833C571.14 75.5191 568.436 77.2633 566.088 80.0158C565.378 80.7789 564.532 81.3239 563.494 81.651C562.456 81.978 561.555 82.1415 560.709 82.1415H559.944C558.333 81.8145 556.913 81.651 555.63 81.651C548.667 81.651 544.98 85.8752 544.598 94.2963C544.27 97.9482 543.861 101.573 543.342 105.225C543.014 107.323 542.741 109.476 542.468 111.656C542.413 112.092 542.359 112.556 542.359 112.992V113.673C542.359 114.382 542.495 114.981 542.741 115.499C543.779 117.598 544.27 119.642 544.27 121.631C544.27 122.149 544.243 122.667 544.161 123.157C543.779 125.583 543.123 127.981 542.25 130.352C541.676 131.96 541.185 133.54 540.802 135.148C540.666 135.53 540.393 135.939 539.983 136.348C539.574 136.756 539.137 137.002 538.7 137.056C537.034 137.192 535.368 137.356 533.703 137.547C531.272 137.983 528.869 138.228 526.494 138.228C524.446 138.228 522.452 138.064 520.541 137.737C517.537 136.838 515.571 135.094 514.697 132.505C513.824 129.916 513.359 127.381 513.359 124.901V123.838C513.796 114.572 514.397 105.306 515.08 96.0405C515.599 89.3363 516.035 82.6321 516.418 75.9279C516.745 68.4606 516.909 61.0206 516.909 53.6078C516.909 51.3185 516.937 49.0565 517.018 46.7945C517.018 44.369 517.073 41.9435 517.21 39.518C517.346 37.0925 517.401 34.6943 517.401 32.3233C517.401 28.3716 517.21 24.4472 516.827 20.55C516.773 19.8414 516.718 19.2146 516.718 18.6423C516.718 16.8436 517.073 15.3447 517.783 14.1456C518.684 12.4832 519.995 11.0388 521.715 9.83964C522.534 9.26733 523.408 8.88579 524.309 8.69502C525.21 8.50425 525.975 8.39524 526.603 8.39524C527.04 8.39524 527.477 8.42249 527.859 8.50425C529.579 8.74953 531.327 8.88579 533.047 8.88579C537.717 8.88579 542.168 7.98645 546.4 6.21501C549.158 5.31566 551.943 4.57984 554.756 4.00753C557.432 3.43522 560.108 2.75389 562.729 1.99081C563.958 1.60927 565.187 1.22773 566.47 0.846191H567.044C570.184 1.22773 573.324 1.58202 576.465 1.90905C583.837 2.48136 591.019 3.59873 598.064 5.26116C602.733 6.54204 605.901 8.5315 607.567 11.2568C609.232 13.9821 610.051 17.6067 610.051 22.1307V22.6212C610.051 27.4723 607.867 29.8978 603.525 29.8978H602.651C600.085 29.8433 597.518 29.7342 594.978 29.598C592.111 29.4072 589.217 29.2982 586.349 29.2982C583.482 29.2982 580.697 29.4072 577.803 29.598C570.949 30.4156 564.259 32.078 557.732 34.5853C556.831 35.0213 556.067 35.9479 555.439 37.3105C554.811 38.6732 554.319 40.0358 553.991 41.3712C553.418 43.6605 553.008 46.195 552.735 48.9475C552.599 50.2829 552.408 51.7273 552.162 53.2535L552.135 53.199Z"/>
        <path d="M492.298 136.402C490.66 131.414 488.857 126.454 486.891 121.603C482.386 110.566 479.792 99.0653 478.809 87.2103C478.727 86.3109 479.71 84.7303 480.556 84.4305C484.352 83.0951 488.284 82.0867 492.298 80.9421C491.943 80.6968 491.479 80.3153 490.933 80.0973C486.837 78.4076 482.686 76.7997 478.617 75.0555C477.907 74.7557 476.924 74.0744 476.87 73.5293C476.351 67.7245 475.504 61.8923 475.75 56.1147C476.078 48.5384 479.164 41.1529 477.443 33.3313C476.214 27.7717 475.259 22.1849 471.026 17.7972C469.961 16.6798 468.732 14.6631 469.06 13.4367C469.989 9.94835 468.214 8.34043 465.592 7.25031C462.944 6.13294 460.158 5.28811 457.373 4.49777C452.403 3.08062 449.481 4.2525 447.188 8.88549C444.621 14.0908 441.89 19.2688 440.006 24.7467C432.661 46.3037 428.974 68.651 426.025 91.1892C424.414 103.453 422.421 115.662 420.154 127.817C419.362 132.096 418.243 135.748 423.513 137.819C426.107 138.827 428.374 140.68 430.968 141.607C434.791 142.97 437.904 140.408 437.958 136.374C438.04 132.287 438.04 128.199 438.422 124.138C439.46 113.182 440.716 102.227 441.863 91.2709C442.218 88.0006 443.529 86.1201 447.27 86.8287C448.717 87.1012 450.273 86.9922 451.775 86.9105C457.51 86.6652 463.244 86.3654 469.279 86.0656C470.016 94.7048 470.972 103.071 471.409 111.465C471.818 119.178 471.627 126.918 471.845 134.63C471.873 135.748 472.446 137.383 473.293 137.873C476.788 139.917 480.365 141.907 484.161 143.297C485.963 143.951 488.557 143.842 490.25 142.997C492.735 141.743 493.117 138.936 492.271 136.402H492.298ZM446.095 75.7641C450.983 62.9007 455.598 50.7732 460.568 37.719C462.916 50.3099 465.128 62.0286 467.367 74.1289C460.186 74.6739 453.495 75.1917 446.095 75.7641Z"/>
        <path d="M329.639 13.1252C329.226 10.5617 329.812 8.42599 331.399 6.71821C332.998 4.91587 334.977 3.5035 337.335 2.48108C339.693 1.45867 342.193 0.793446 344.837 0.485417C347.575 0.190497 349.936 0.180674 351.921 0.455948C353.244 0.639464 354.783 0.997598 356.539 1.53035C358.308 1.96854 359.62 2.92168 360.475 4.38977C361.724 6.4908 362.217 8.82449 361.956 11.3908C361.695 13.9572 361.582 16.4959 361.618 19.007C361.69 20.5594 361.712 22.8276 361.681 25.8115C361.745 28.8085 361.716 32.13 361.594 35.7759C361.471 39.4218 361.322 43.2568 361.147 47.2809C360.972 51.3051 360.769 55.1808 360.539 58.9082C360.416 62.5541 360.239 65.9032 360.006 68.9554C359.881 71.9263 359.808 74.1813 359.786 75.7206C359.788 76.3956 359.645 77.7734 359.355 79.8538C359.16 81.9473 358.918 84.3718 358.631 87.1273C358.356 89.7882 358.103 92.6448 357.87 95.6971C357.638 98.7494 357.486 101.572 357.413 104.164C357.341 106.757 357.416 108.984 357.638 110.847C357.968 112.627 358.552 113.624 359.389 113.837C360.051 113.928 360.685 113.872 361.291 113.667C361.898 113.462 362.457 113.25 362.969 113.032C363.589 112.732 364.154 112.473 364.666 112.255C365.192 111.943 365.738 111.826 366.305 111.904L367.155 112.022L366.107 113.323L367.524 113.519L368.493 112.786C368.803 112.636 369.693 112.471 371.163 112.289C372.728 112.121 374.576 111.991 376.708 111.901C378.853 111.717 381.133 111.6 383.548 111.549C385.976 111.404 388.209 111.28 390.246 111.177C392.296 110.979 394.002 110.83 395.365 110.73C396.822 110.643 397.604 110.559 397.712 110.477C398.817 110.149 400.165 109.806 401.756 109.448C403.442 109.103 404.804 109.003 405.844 109.147L406.127 109.187C406.303 109.308 406.418 109.516 406.473 109.813C406.623 110.123 406.691 110.325 406.678 110.42C406.436 110.772 406.248 111.083 406.114 111.354C405.993 111.53 405.913 111.76 405.874 112.043C405.86 112.138 405.8 112.226 405.692 112.307L405.613 112.875L409.981 111.601L409.724 113.445C410.763 113.589 411.66 113.376 412.414 112.806C413.18 112.141 414.178 111.894 415.407 112.064L415.288 112.916L409.25 116.849C409.373 117.348 409.307 117.821 409.052 118.268C408.797 118.714 408.448 119.148 408.004 119.568C408.826 119.2 409.641 118.88 410.45 118.606C411.353 118.346 412.236 118.228 413.1 118.251L413.304 118.858C413.291 118.952 413.231 119.04 413.123 119.122C413.11 119.216 413.097 119.311 413.084 119.405C412.976 119.487 412.916 119.575 412.902 119.669L410.78 120.387C410.659 120.563 410.464 120.922 410.196 121.463C410.023 122.017 409.835 122.328 409.633 122.397C408.976 123.655 407.644 124.916 405.638 126.18C403.645 127.35 400.829 128.55 397.19 129.78C393.659 130.929 389.21 132.095 383.844 133.278C378.572 134.475 372.336 135.682 365.135 136.9L363.859 136.723L364.234 134.028C364.032 134.096 363.662 134.334 363.124 134.742C362.68 135.162 362.451 135.419 362.438 135.514C362.412 135.703 362.419 135.993 362.461 136.385C362.597 136.789 362.713 136.998 362.807 137.011C361.203 137.463 359.376 137.788 357.326 137.986C355.289 138.089 353.461 138.414 351.844 138.96L352.042 137.542L350.057 137.267L349.8 139.111C348.666 138.953 347.681 138.768 346.844 138.556C346.006 138.343 345.223 138.09 344.493 137.796C343.871 137.421 343.202 137.039 342.486 136.65C341.864 136.275 341.106 135.832 340.214 135.323C339.227 134.8 337.957 134.239 336.403 133.638C334.863 132.942 333.329 132.199 331.801 131.409C330.274 130.619 328.888 129.848 327.644 129.097C326.414 128.252 325.568 127.411 325.106 126.576C323.939 124.583 323.189 122.358 322.857 119.902C322.632 117.365 322.556 114.8 322.628 112.207C322.808 109.533 323.076 106.92 323.432 104.367C323.787 101.813 324.063 99.4899 324.258 97.3964C324.324 96.9235 324.408 95.9713 324.512 94.5398C324.722 93.0267 324.912 91.318 325.081 89.4136C325.25 87.5092 325.439 85.463 325.647 83.2749C325.856 81.0868 326.044 79.0405 326.213 77.1361C326.395 75.1371 326.538 73.4219 326.641 71.9903C326.744 70.5587 326.829 69.6065 326.895 69.1337C326.934 68.85 327.003 67.3173 327.102 64.5356C327.308 61.6725 327.499 58.2288 327.674 54.2047C327.862 50.0859 328.043 45.677 328.216 40.9778C328.483 36.2917 328.657 31.93 328.738 27.8927C328.913 23.8686 328.949 20.4998 328.846 17.7865C328.836 15.0862 328.744 13.6757 328.568 13.555L329.639 13.1252ZM347.361 135.881C347.172 135.854 347.051 136.03 346.998 136.409C346.959 136.692 347.033 136.847 347.222 136.873C347.506 136.913 347.667 136.791 347.707 136.507C347.76 136.129 347.644 135.92 347.361 135.881ZM361.08 134.892C360.796 134.853 360.622 135.069 360.556 135.542C360.49 136.015 360.599 136.271 360.882 136.31C361.355 136.376 361.624 136.172 361.69 135.699C361.756 135.227 361.552 134.957 361.08 134.892ZM365.411 134.914C364.939 134.849 364.676 135.005 364.623 135.383C364.584 135.667 364.8 135.842 365.273 135.907C365.556 135.947 365.718 135.824 365.757 135.541C365.81 135.162 365.695 134.954 365.411 134.914ZM403.41 125.582C403.032 125.53 402.823 125.645 402.784 125.929C402.744 126.213 402.926 126.286 403.331 126.149C403.425 126.163 403.486 126.075 403.512 125.885C403.538 125.696 403.504 125.595 403.41 125.582ZM405.43 124.561L406.096 123.93L405.529 123.852L405.43 124.561ZM407.648 122.122C407.365 122.082 407.19 122.299 407.124 122.772C407.072 123.15 407.187 123.359 407.471 123.398C407.943 123.464 408.206 123.307 408.258 122.929C408.324 122.456 408.121 122.187 407.648 122.122ZM409.224 121.183C408.94 121.144 408.772 121.314 408.72 121.692C408.667 122.07 408.782 122.279 409.066 122.318C409.349 122.358 409.517 122.188 409.57 121.81C409.623 121.432 409.507 121.223 409.224 121.183ZM407.598 113.15C407.314 113.111 407.14 113.328 407.074 113.8C407.008 114.273 407.117 114.529 407.4 114.569C407.778 114.621 408 114.411 408.066 113.938C408.132 113.465 407.976 113.203 407.598 113.15Z"/>
        <path d="M237.869 64.3997C247.781 68.6784 258.048 70.8314 268.671 70.8314C270.964 70.8314 273.313 70.7224 275.688 70.5316C276.125 70.4771 276.644 70.1228 277.163 69.5233C277.709 68.9237 278.037 68.3242 278.173 67.7518C278.992 62.8463 279.511 57.8863 279.702 52.899C279.948 42.1614 282.078 31.7781 286.037 21.749C286.939 19.0782 287.403 16.1894 287.485 13.1371C287.539 11.7472 287.676 10.33 287.867 8.91289C288.113 7.05969 288.413 5.17925 288.741 3.27154C288.877 2.50846 288.987 1.71813 289.123 0.873291C296.878 2.78099 300.728 7.33222 300.728 14.4725V15.1538C300.537 18.9147 300.373 22.7301 300.237 26.5455C300.046 33.0589 299.691 39.5451 299.172 46.0041C298.271 56.3601 297.288 66.689 296.195 77.0451C295.376 85.657 294.53 94.3507 293.711 103.099V104.925C293.711 106.642 293.847 108.44 294.093 110.294C294.229 111.384 294.311 112.501 294.393 113.646C294.53 115.635 294.694 117.706 294.885 119.887C294.939 121.113 295.021 122.339 295.076 123.62C294.175 125.228 293.028 127.327 291.608 129.943C291.553 130.079 291.471 130.243 291.417 130.433C291.362 130.57 291.308 130.679 291.28 130.761C291.253 130.842 291.198 130.897 291.144 130.897C289.915 130.951 288.686 131.033 287.403 131.088C285.983 131.224 284.617 131.278 283.279 131.278C281.286 131.278 279.347 131.115 277.436 130.788C276.344 130.461 275.306 129.616 274.323 128.199C273.34 126.809 272.794 125.528 272.739 124.356C272.985 118.36 273.476 112.419 274.186 106.533C274.569 102.772 274.924 99.0109 275.251 95.2228C275.306 94.4052 275.388 93.6421 275.443 92.9335C275.634 91.6526 275.743 90.508 275.743 89.4724C275.743 87.6737 275.443 86.3383 274.869 85.439C274.105 84.2943 272.029 83.722 268.616 83.722C267.988 83.722 267.278 83.7493 266.513 83.831C261.899 84.0763 257.338 84.3761 252.778 84.7031C247.781 85.0847 242.839 85.3845 237.896 85.5752C235.602 85.7115 234.046 86.3928 233.281 87.6465C232.517 88.9001 232.053 90.4535 231.943 92.3067C231.616 94.2962 231.315 96.2311 230.988 98.1388C230.278 102.418 229.677 106.696 229.158 110.975C228.776 115.117 228.448 119.287 228.202 123.429C227.957 127 227.656 130.57 227.329 134.167C227.274 134.739 227.001 135.366 226.564 136.048C226.127 136.729 225.663 137.11 225.226 137.247L223.697 137.437C220.174 138.01 216.624 138.31 213.047 138.31C211.9 138.31 210.699 138.282 209.497 138.201C208.924 138.146 208.241 137.764 207.477 137.056C206.712 136.347 206.057 135.584 205.565 134.712C205.047 133.84 204.801 133.077 204.801 132.368C205.238 122.012 205.866 111.629 206.63 101.218C207.013 95.0865 207.395 88.9273 207.777 82.7137C207.914 79.3888 207.968 76.0367 207.968 72.6574C207.968 68.7602 208.105 64.863 208.351 60.9659C208.869 55.4063 209.525 49.874 210.371 44.3961C210.617 42.5974 210.89 40.8533 211.136 39.1363C211.955 33.0589 212.856 27.0088 213.812 20.9314C214.194 15.4263 217.28 12.2377 223.041 11.3384C224.707 11.0931 226.346 10.7116 227.929 10.1938C229.595 9.67597 230.988 9.34894 232.107 9.18542C233.227 9.0219 234.073 8.94014 234.647 8.94014C235.848 8.94014 237.104 9.13091 238.388 9.51245C240.873 10.4118 242.702 11.8562 243.849 13.8184C244.996 15.8079 245.569 17.7701 245.569 19.7595C245.569 20.3318 245.542 20.9314 245.46 21.5855C243.603 31.6145 241.801 41.6981 240.081 51.8634C239.371 56.0059 238.633 60.2028 237.869 64.427V64.3997Z"/>
        <path d="M128.998 82.0328C129.38 84.5945 129.735 87.1563 130.063 89.6908C130.691 95.632 131.565 101.519 132.657 107.323C134.459 114.218 139.047 118.524 146.474 120.269C149.341 121.222 152.209 121.713 155.021 121.713C158.981 121.713 162.885 120.759 166.736 118.851C171.077 116.671 175.638 115.472 180.362 115.2H180.853C182.655 115.2 184.512 115.554 186.424 116.262C188.526 116.971 189.837 117.898 190.356 119.042C190.738 120.269 190.929 121.577 190.929 122.967C190.929 123.73 190.875 124.547 190.738 125.365C190.41 127.736 189.755 129.807 188.717 131.606C185.577 136.402 181.754 139.618 177.249 141.226C172.743 142.834 168.756 143.679 165.288 143.679C163.049 143.679 160.81 143.434 158.571 142.916C154.53 142.016 150.516 141.226 146.474 140.517C141.532 139.618 136.617 138.582 131.702 137.356C119.086 133.214 110.594 125.038 106.17 112.829C101.446 101.519 99.0703 90.2904 99.0703 79.0895C99.0703 66.1988 102.211 53.39 108.491 40.6629C112.15 33.8224 116.246 27.2272 120.779 20.8228C122.499 18.261 124.192 15.6993 125.858 13.1648C129.053 8.55902 133.285 6.26978 138.528 6.26978C139.62 6.26978 140.713 6.37879 141.805 6.56956C151.799 8.28649 160.837 12.0201 168.975 17.7705C170.176 18.5336 171.269 19.5964 172.252 20.9318C173.235 22.2672 173.781 23.6571 173.972 25.047C174.108 26.0009 174.163 26.9275 174.163 27.8268C174.163 31.0154 173.235 33.4409 171.378 35.1033C170.094 36.2479 168.429 36.8203 166.381 36.8203C164.66 36.8203 162.667 36.4115 160.428 35.5666C157.615 34.5583 155.158 34.0405 153.028 34.0405C150.789 34.0405 148.932 34.6128 147.457 35.7574C144.59 37.8559 142.187 40.7174 140.248 44.2875L138.146 47.5579C135.716 51.4005 133.668 56.8511 132.002 63.9369C130.336 71.0226 129.353 77.0727 129.025 82.0328H128.998Z"/>
        <path d="M40.6866 40.445C41.5877 43.1158 42.9257 45.3778 44.7279 47.1492C46.5302 48.9479 48.4143 50.5558 50.3804 52.0275C51.8003 53.0631 53.1656 54.1259 54.5036 55.2978C59.8284 60.0943 65.317 64.7273 71.024 69.1968L71.9798 69.9598C72.6078 70.5322 73.3451 71.0227 74.137 71.4042C74.9289 71.7858 75.6934 71.9766 76.4034 71.9766H76.7038C77.7414 71.8403 78.7245 71.7858 79.6802 71.7858C85.2507 71.7858 88.036 74.3748 88.036 79.5529C88.036 80.643 87.8994 81.8149 87.6537 83.0957C85.6057 93.7789 83.3665 104.435 80.9363 115.091C80.4994 116.617 79.7075 118.116 78.6425 119.587L77.6868 121.114C77.1134 122.149 76.5399 123.185 75.9665 124.275C74.6831 126.946 73.1539 129.426 71.3517 131.66C68.8668 134.413 66.027 136.239 62.8594 137.165C59.6919 138.092 56.3878 138.719 52.9199 139.046C51.4999 139.182 50.1073 139.373 48.6874 139.618C47.2128 139.809 45.7383 139.918 44.2637 139.918C40.6866 139.918 37.3006 139.291 34.0784 138.01C29.6002 136.212 25.2858 133.977 21.1079 131.306C19.8245 130.543 18.5684 129.807 17.3669 129.099C10.3218 124.765 5.73435 119.369 3.60445 112.965C1.44724 106.533 0.245758 99.6927 0 92.4162C0 91.8439 0.163839 91.2443 0.491516 90.6448C0.819193 90.0452 1.20148 89.5819 1.63839 89.2549C5.59782 86.6386 9.7757 85.3305 14.1174 85.3305C16.1654 85.3305 18.268 85.6303 20.4525 86.2026C23.5928 87.1564 25.8865 88.8733 27.3064 91.3261C28.7537 93.7789 29.9005 96.4496 30.8017 99.3384C31.3751 101.137 31.7574 102.909 31.9485 104.707C32.1943 106.506 32.6039 108.25 33.15 109.967C33.6961 111.684 34.6246 113.319 35.9899 114.845C39.3759 118.797 43.4172 120.786 48.0866 120.786C48.5235 120.786 49.015 120.759 49.5339 120.677C55.6232 119.587 59.2823 115.854 60.5657 109.477C61.8491 104.953 63.5694 100.592 65.7539 96.4496C66.5185 94.7872 66.9008 93.2338 66.9008 91.7621C66.9008 88.9006 65.4262 86.4478 62.4771 84.4856C61.3849 83.7225 60.4018 82.905 59.5007 82.0056C58.4085 80.9155 57.2343 79.9889 55.9509 79.2258C49.7523 75.8465 43.4172 72.6034 36.9456 69.5511C26.8422 64.6455 18.6503 57.6961 12.3698 48.7571C9.7484 44.2331 8.43769 39.8999 8.43769 35.812C8.43769 29.3531 11.7145 23.4119 18.2407 17.9886C23.2924 13.7644 28.7537 10.1943 34.6519 7.25097C41.0416 4.11689 46.5302 2.56348 51.063 2.56348C52.1553 2.56348 53.2202 2.67249 54.2306 2.86326C59.2823 3.81711 64.4705 6.62415 69.7952 11.2844C73.3178 14.1459 76.8949 16.8985 80.554 19.5148C80.7997 19.7055 81.1001 19.8963 81.4278 20.0871C83.6123 21.804 85.1688 23.7662 86.1245 25.9737C87.0802 28.1812 87.5717 30.0889 87.5717 31.6696C87.5717 32.4871 87.4625 33.3047 87.2714 34.0678C86.5614 36.7386 85.2507 38.9188 83.2846 40.5812C81.3459 42.2437 79.0794 43.0613 76.5126 43.0613H75.6388C73.3997 42.816 71.1333 42.1347 68.8122 41.0445C66.5185 39.9544 64.607 38.5918 63.1598 36.9294C61.1664 34.8854 59.6373 33.8225 58.545 33.768C57.4527 33.7135 56.7428 33.659 56.4424 33.659C54.7767 33.659 53.0837 33.986 51.3634 34.6129C48.7966 35.5667 46.339 36.8476 43.9634 38.4555C42.8711 39.1641 41.7788 39.8182 40.6866 40.4722V40.445Z"/>
    </g>
</svg>
