<svg height="150" width="437" viewBox="0 0 437 150" xmlns="http://www.w3.org/2000/svg">
    <g fill="#32468a">
        <path d="M372.792 145.158C371.423 145.158 370.11 144.755 368.854 143.948C368.055 143.372 367.37 143.084 366.799 143.084C366.343 143.084 365.544 142.393 364.402 141.01C364.06 140.665 363.603 139.743 363.033 138.245C362.462 137.324 362.176 136.575 362.176 135.999C362.176 135.308 362.005 134.617 361.663 133.925C361.206 132.543 360.864 130.527 360.635 127.877L360.464 125.112C360.122 122.117 359.779 115.435 359.437 105.067L359.266 101.61C359.266 101.265 359.323 100.977 359.437 100.746C359.551 100.516 359.608 99.8248 359.608 98.6727C360.179 94.295 360.464 91.4724 360.464 90.2052L360.293 85.3666L361.663 64.6298C362.005 62.6713 362.234 60.3096 362.348 57.5447L362.861 51.3236C363.432 41.7617 363.832 36.7503 364.06 36.2894C364.06 34.7918 364.117 33.8701 364.231 33.5245C364.345 33.0637 364.631 32.3725 365.087 31.4509V31.2781L364.402 31.4509C364.745 30.7596 364.916 29.8956 364.916 28.8587C364.916 27.9371 364.802 27.3611 364.574 27.1307C364.574 26.9003 364.631 26.7851 364.745 26.7851C364.859 26.7851 364.916 25.921 364.916 24.193L365.087 21.0824C365.087 17.2807 364.973 15.3798 364.745 15.3798L364.916 13.4789C364.916 12.0965 364.859 11.2901 364.745 11.0596V10.5412C364.745 9.84999 365.43 9.44678 366.799 9.33157C367.37 9.33157 367.77 9.10116 367.998 8.64035C368.34 8.17953 368.74 7.94912 369.197 7.94912C369.653 7.94912 369.939 7.89151 370.053 7.77631C370.167 7.54591 370.623 7.20029 371.423 6.73947C372.336 6.27865 373.249 5.81783 374.162 5.35702C375.075 4.78099 375.76 4.49298 376.217 4.49298C376.673 4.37778 377.073 4.14737 377.415 3.80175C377.758 3.45614 378.386 3.16813 379.299 2.93772C380.212 2.5921 381.239 2.24649 382.381 1.90088C383.522 1.44006 385.463 1.03685 388.202 0.691229C390.485 0.23041 392.825 0 395.223 0C399.674 0 403.384 0.576022 406.352 1.72807C406.809 1.95848 407.208 2.07369 407.551 2.07369C408.007 2.07369 408.464 2.3041 408.921 2.76492C409.035 2.88012 409.149 2.99532 409.263 3.11052C409.491 3.22573 409.72 3.28333 409.948 3.28333C410.176 3.28333 410.918 3.57134 412.174 4.14736C413.544 4.60818 414.286 4.83859 414.4 4.83859C414.628 4.83859 415.769 5.41462 417.824 6.56667C419.993 7.71871 421.192 8.46754 421.42 8.81315C421.648 9.04356 421.934 9.27397 422.276 9.50438C422.618 9.61958 423.018 9.79239 423.475 10.0228C423.931 10.2532 425.301 11.3477 427.584 13.3061C429.524 14.919 430.495 15.8406 430.495 16.071C430.495 16.3014 431.008 16.9351 432.036 17.9719C433.177 18.8936 433.748 19.4696 433.748 19.7C433.748 19.9304 433.976 20.0456 434.433 20.0456C435.574 20.0456 436.202 23.0985 436.316 29.2044C436.316 30.126 436.545 31.0476 437.001 31.9693L436.659 32.8333C436.316 33.5245 436.145 35.2526 436.145 38.0175C435.803 43.6625 435.346 47.5795 434.775 49.7684C434.661 51.266 434.433 52.3605 434.09 53.0517L433.919 53.3973C433.919 54.4342 433.805 55.4134 433.577 56.335C432.664 59.4456 431.75 61.9225 430.837 63.7657C430.609 64.2266 430.495 64.5722 430.495 64.8026C430.495 64.9178 430.095 65.6666 429.296 67.0491C428.04 68.6619 427.299 70.2172 427.07 71.7149C426.842 72.4061 426.671 72.7517 426.557 72.7517C426.442 72.7517 426.214 72.9245 425.872 73.2701C425.529 73.6157 425.301 74.1342 425.187 74.8254C425.187 75.5166 424.901 76.1502 424.331 76.7263C423.76 77.1871 423.189 77.4751 422.618 77.5903C422.048 77.7055 421.477 77.8783 420.906 78.1087C419.308 78.7999 418.509 79.2608 418.509 79.4912C418.509 79.7216 418.338 79.8368 417.995 79.8368C417.653 79.8368 417.025 80.3552 416.112 81.392C415.313 82.3137 414.4 83.0049 413.372 83.4657C412.459 83.8113 411.831 84.1569 411.489 84.5026C411.261 84.8482 411.089 85.021 410.975 85.021C410.975 84.445 410.918 84.157 410.804 84.157C409.434 85.309 408.521 85.885 408.064 85.885C407.722 85.885 407.322 86.0002 406.866 86.2306C406.638 86.6914 406.181 86.9219 405.496 86.9219C404.925 86.9219 404.069 87.3251 402.928 88.1315C401.786 88.9379 400.987 89.3412 400.531 89.3412C400.074 89.3412 398.932 90.0324 397.106 91.4148L396.25 90.7236C395.451 90.0324 394.709 89.6868 394.024 89.6868C392.997 89.6868 392.483 91.7028 392.483 95.735L392.312 103.339C392.312 104.375 392.483 106.334 392.825 109.214C392.825 109.79 392.825 110.136 392.825 110.251C392.94 110.251 392.997 110.308 392.997 110.424L393.168 109.732C393.282 109.732 393.396 109.905 393.51 110.251C393.739 110.481 393.853 113.534 393.853 119.41L393.682 126.84L394.024 130.296C394.024 130.757 393.51 131.391 392.483 132.197C391.456 132.888 390.942 133.465 390.942 133.925L390.771 135.308C390.771 135.538 390.714 135.711 390.6 135.826C390.6 135.826 389.915 135.826 388.545 135.826C388.317 135.826 388.202 135.999 388.202 136.345C388.202 136.575 388.145 136.69 388.031 136.69L386.49 136.517C386.262 136.517 386.148 136.69 386.148 137.036C386.148 137.381 386.034 137.612 385.805 137.727C385.691 137.727 385.634 137.785 385.634 137.9C385.748 138.591 385.919 139.225 386.148 139.801C386.148 140.031 386.034 140.204 385.805 140.319C384.093 141.471 383.237 142.278 383.237 142.738C383.237 143.199 383.123 143.43 382.895 143.43C382.78 143.43 382.609 143.66 382.381 144.121C382.267 144.467 381.981 144.639 381.525 144.639C381.182 144.639 380.44 144.351 379.299 143.775C379.185 143.891 379.071 144.006 378.956 144.121C378.956 144.236 378.386 144.294 377.244 144.294C376.217 144.294 375.418 144.467 374.847 144.812C374.276 145.043 373.591 145.158 372.792 145.158ZM386.833 10.5412C387.061 10.426 387.232 10.3684 387.346 10.3684C387.575 10.3684 387.689 10.3108 387.689 10.1956L387.004 10.0228C386.433 10.0228 386.148 10.138 386.148 10.3684C386.148 10.4836 386.148 10.5412 386.148 10.5412C386.262 10.5412 386.49 10.5412 386.833 10.5412ZM390.086 69.2955C390.428 69.2955 391.056 68.6619 391.969 67.3947L394.195 65.6666C395.679 64.2842 396.421 63.4777 396.421 63.2473C396.421 62.9017 396.592 62.6713 396.935 62.5561C397.277 62.4409 397.449 62.1529 397.449 61.6921C397.449 61.116 397.677 60.7128 398.133 60.4824C398.59 60.252 399.161 59.5608 399.846 58.4087C400.531 57.1415 401.215 56.2774 401.9 55.8166C403.27 54.4342 404.183 52.4181 404.64 49.7684C404.64 49.3076 404.982 47.2339 405.667 43.5473C406.238 40.552 406.523 38.6511 406.523 37.8447C406.523 37.0383 406.695 36.4623 407.037 36.1166C407.494 35.771 407.893 31.8541 408.236 24.3658C408.236 23.6745 408.179 23.1561 408.064 22.8105C408.064 22.3497 407.665 21.8889 406.866 21.4281C406.181 20.852 405.838 20.2184 405.838 19.5272C405.838 18.7207 405.039 17.6839 403.441 16.4167C401.957 15.0342 400.245 13.8245 398.305 12.7877C396.478 11.7509 394.994 11.1748 393.853 11.0596C393.396 11.0596 393.168 11.002 393.168 10.8868C393.168 10.7716 393.111 10.6564 392.997 10.5412L392.825 10.714L389.743 11.0596C384.493 11.2901 381.867 11.8661 381.867 12.7877C381.867 13.1333 382.038 13.5941 382.381 14.1702C382.723 14.631 382.895 15.3798 382.895 16.4167C382.895 16.8775 383.066 17.4535 383.408 18.1447C383.636 18.2599 383.751 18.4327 383.751 18.6631C383.865 18.7784 384.55 21.6585 385.805 27.3035C385.919 27.3035 386.034 27.8219 386.148 28.8587C386.49 31.1628 386.661 33.2365 386.661 35.0798C386.661 36.0014 386.833 36.6351 387.175 36.9807C387.289 38.2479 387.46 38.8815 387.689 38.8815C387.917 38.8815 388.145 39.5728 388.374 40.9552C388.488 41.5313 388.545 42.1649 388.545 42.8561C388.545 43.4321 388.545 43.8353 388.545 44.0658C388.545 44.181 388.602 44.2962 388.716 44.4114C388.83 44.4114 388.944 44.469 389.059 44.5842C388.83 45.1602 388.716 45.5634 388.716 45.7938C388.716 46.4851 388.773 47.2915 388.887 48.2131C389.116 49.0195 389.23 49.8836 389.23 50.8052V51.4964C389.344 52.8789 389.572 54.2038 389.915 55.471C389.915 55.8166 389.858 56.1046 389.743 56.335C389.629 56.5655 389.515 56.8535 389.401 57.1991L389.572 58.7543V66.8763C389.572 68.4891 389.743 69.2955 390.086 69.2955Z"/>
        <path d="M278.804 135.11C277.879 126.641 277.324 117.804 277.324 109.15C277.324 103.075 278.064 97.1829 278.434 91.1072C278.989 81.9016 278.989 72.3277 280.099 63.1221V29.2454C280.099 28.8771 280.284 25.9313 280.284 25.1949C280.654 22.8014 280.839 15.2528 284.169 15.2528V16.7257C285.094 15.8051 289.904 15.4369 289.904 14.7005C289.904 14.8846 290.274 15.2528 290.274 15.2528H290.459C298.228 13.4117 305.998 11.5706 313.767 11.5706C314.322 11.5706 317.467 11.9388 318.022 11.9388H318.762C320.427 12.1229 325.052 12.307 325.422 12.307C327.642 12.4911 336.151 15.8051 336.151 18.3827H334.301L335.226 19.4874C331.896 20.7762 330.046 22.8014 325.977 22.8014C323.387 22.8014 321.352 21.6967 318.762 21.6967C314.692 21.6967 308.958 22.4332 304.703 23.722C304.703 24.0902 304.333 26.2996 304.333 26.8519C304.333 28.8771 305.628 33.1117 305.813 34.7687V36.2416C305.998 37.3463 306.183 42.3174 306.183 43.0538C306.368 43.6061 306.553 45.9996 306.738 46.3678C306.738 46.5519 306.923 47.1043 306.923 47.2884V47.4725C306.923 47.6566 306.738 49.3136 306.738 49.4977V49.6819C306.738 49.866 306.923 51.523 306.923 51.7071C306.923 52.2594 307.293 55.0211 307.293 55.5735L307.663 54.6529V59.6239L308.588 60.3604V61.4651C308.588 64.0426 308.218 66.6202 308.218 69.3819C310.068 69.3819 311.732 68.6455 313.767 68.6455C315.247 68.6455 316.542 69.1978 318.022 69.1978C320.612 69.1978 323.387 68.6455 325.792 68.6455H327.642L332.081 71.0389C332.266 71.0389 332.451 71.4071 332.451 71.4071C332.451 73.8006 329.122 75.2735 327.457 76.01H327.272L308.218 82.2698C307.848 84.6632 307.108 96.2623 306.923 98.6558V104.179C306.923 109.887 306.923 114.305 307.293 120.197C307.478 122.222 307.478 122.59 309.143 122.59C312.657 122.59 315.987 121.67 319.502 121.67H319.872C320.982 121.854 325.237 122.038 325.977 122.222C327.272 123.143 330.971 122.959 330.971 124.984V125.168C330.971 125.168 330.601 125.72 330.601 125.904C329.122 127.009 327.087 128.482 325.422 129.403C323.387 130.139 321.352 130.507 319.502 131.612C316.542 133.453 313.952 135.662 310.807 137.688C308.773 138.976 306.368 139.713 303.963 140.633L303.038 141.186C302.113 141.738 297.858 144.868 296.748 145.236C296.563 145.42 294.898 145.236 294.713 145.236C293.048 145.789 291.568 147.262 289.534 147.262C283.614 147.262 281.024 140.633 279.174 136.031L278.804 135.11ZM302.853 25.5631V28.693C303.408 26.8519 303.593 25.379 303.593 23.9061C302.853 23.9061 302.483 24.2743 302.113 24.8267L302.853 25.5631ZM308.958 89.2661V90.3707C308.958 92.0278 308.773 93.5006 308.588 95.5259V94.053C308.588 92.2119 308.403 90.739 308.958 89.2661ZM308.588 101.602C308.588 102.338 308.218 103.627 308.218 104.547V100.681C308.218 100.865 308.588 101.417 308.588 101.602ZM303.038 35.3211C302.853 35.3211 302.853 36.2416 303.038 36.2416H303.223C303.223 36.4258 303.223 36.6099 303.593 36.6099C303.963 36.6099 303.963 35.6893 303.593 35.6893H303.408C303.408 35.5052 303.223 35.3211 303.038 35.3211ZM308.588 111.175C308.773 111.544 308.773 113.385 308.588 113.753C308.403 114.305 308.403 110.807 308.588 111.175ZM308.958 87.2408C309.143 87.2408 309.143 88.1614 308.958 88.1614C308.588 88.1614 308.588 87.2408 308.958 87.2408ZM302.113 27.036C301.743 27.036 301.743 27.7725 302.113 27.7725C302.483 27.7725 302.483 27.036 302.113 27.036ZM308.588 58.5193C308.958 58.5193 308.958 59.2557 308.588 59.2557C308.218 59.2557 308.218 58.5193 308.588 58.5193ZM307.293 56.6781C306.923 56.6781 306.923 57.4146 307.293 57.4146C307.663 57.4146 307.663 56.6781 307.293 56.6781ZM308.588 115.042C308.958 115.042 308.958 115.594 308.588 115.594C308.218 115.594 308.218 115.042 308.588 115.042ZM282.319 136.951C281.949 136.951 281.949 137.688 282.319 137.688C282.504 137.688 282.504 136.951 282.319 136.951ZM308.958 120.749C309.143 120.749 309.143 121.302 308.958 121.302C308.588 121.302 308.588 120.749 308.958 120.749ZM301.743 26.2996L302.113 26.8519V25.9313L301.743 26.2996ZM308.218 98.6558C308.403 98.6558 308.403 99.024 308.218 99.024C307.848 99.024 307.848 98.6558 308.218 98.6558ZM308.218 106.757C308.403 106.757 308.403 106.941 308.218 106.941C307.848 106.941 307.848 106.573 308.218 106.757ZM288.424 119.461V119.829H288.609V119.461H288.424ZM303.408 35.6893C303.223 35.6893 303.223 36.0575 303.223 36.2416C303.408 36.2416 303.408 35.8734 303.408 35.6893Z"/>
        <path d="M207.26 140.708C202.192 140.708 199.5 140.708 199.183 140.708C198.972 140.602 198.813 140.496 198.708 140.391C198.708 140.285 198.708 140.126 198.708 139.914C198.708 139.702 198.549 139.491 198.233 139.279C197.916 139.067 197.494 138.961 196.966 138.961C196.543 138.961 196.332 138.908 196.332 138.803C196.332 138.697 196.227 138.591 196.015 138.485C194.96 137.956 194.168 137.479 193.64 137.056C193.112 136.632 192.584 136.209 192.056 135.786C191.634 135.256 191.423 134.886 191.423 134.674L190.631 132.451C189.892 131.181 189.522 130.493 189.522 130.387C189.522 130.175 189.417 129.963 189.205 129.752C188.361 128.905 187.886 128.481 187.78 128.481C187.675 128.375 187.622 128.269 187.622 128.164C188.15 126.682 188.414 125.729 188.414 125.305V122.288C188.414 120.171 188.308 118.795 188.097 118.16V118.001H188.255C188.361 118.001 188.414 117.683 188.414 117.048C188.414 115.672 188.308 114.825 188.097 114.508C187.886 114.19 187.78 113.872 187.78 113.555C187.252 109.956 186.988 107.574 186.988 106.409C186.988 105.668 187.094 105.086 187.305 104.663L187.622 102.281L187.939 97.6757C188.466 96.8288 188.73 95.7173 188.73 94.3411C188.73 93.7059 188.836 92.912 189.047 91.9592C189.364 90.3713 189.575 87.5131 189.681 83.3845C189.892 80.4204 190.103 78.7266 190.314 78.3032C190.525 77.7739 190.631 76.7682 190.631 75.2862C190.631 73.91 190.578 73.0631 190.472 72.7455C190.367 72.4279 190.261 72.1633 190.156 71.9516C190.156 71.4222 190.261 70.7341 190.472 69.8873C190.684 69.0404 190.895 68.4052 191.106 67.9818C191.423 67.4525 191.634 66.9761 191.739 66.5527C191.528 66.1292 191.423 65.7587 191.423 65.4411C191.528 65.1235 191.634 64.6472 191.739 64.012C192.056 62.4241 192.215 61.1538 192.215 60.201C192.215 59.1424 192.267 58.6131 192.373 58.6131C192.584 58.6131 192.742 58.4014 192.848 57.9779C192.848 56.39 192.901 55.0668 193.006 54.0081C193.218 52.9495 193.323 51.9439 193.323 50.9911C193.64 48.768 193.798 47.1801 193.798 46.2274C193.798 44.6395 193.957 43.3691 194.273 42.4164L194.432 41.6224L194.115 40.6697L194.59 39.5582L194.432 37.6527L194.907 35.112L194.432 34.0005C194.537 33.6829 194.696 33.4182 194.907 33.2065L195.065 32.095C195.276 31.0364 195.382 30.0307 195.382 29.0779C195.382 28.0193 195.54 27.0137 195.857 26.0609C196.068 25.8492 196.174 25.4787 196.174 24.9494C196.279 24.3142 196.332 23.9437 196.332 23.8378C196.438 23.6261 196.543 23.4673 196.649 23.3615C196.86 23.1497 197.018 22.7792 197.124 22.2499C197.124 19.18 197.23 17.5391 197.441 17.3274C197.335 16.904 195.751 16.4805 192.69 16.0571C191.739 15.8454 191.053 15.6866 190.631 15.5807C190.314 15.369 189.997 15.2631 189.681 15.2631C189.469 15.1573 189.258 15.0514 189.047 14.9455C188.942 14.8397 188.889 14.7338 188.889 14.628C188.994 14.5221 189.1 14.4692 189.205 14.4692C189.311 14.4692 189.628 14.3104 190.156 13.9928C190.684 13.5693 191.106 13.3576 191.423 13.3576C191.739 13.2518 192.056 13.1988 192.373 13.1988C193.745 13.1988 194.432 12.9871 194.432 12.5637L194.115 11.7697C194.115 11.4521 194.326 11.1875 194.748 10.9758C195.171 10.6582 195.593 10.4994 196.015 10.4994L196.491 10.6582H196.332C196.227 10.764 195.963 10.9228 195.54 11.1345C195.224 11.2404 194.96 11.5051 194.748 11.9285C194.748 12.0344 195.118 12.0873 195.857 12.0873C196.913 12.0873 197.441 11.9285 197.441 11.6109L197.124 10.817C197.124 10.6052 197.282 10.3935 197.599 10.1818C198.021 9.97008 198.233 9.70542 198.233 9.38784L198.074 8.75268C198.074 7.79994 198.655 7.32356 199.816 7.32356C199.922 7.42942 199.975 7.53528 199.975 7.64114C199.975 7.747 200.186 7.79993 200.608 7.79993C200.819 7.69407 201.189 7.64114 201.717 7.64114C202.35 7.53528 203.036 7.42942 203.776 7.32356C207.471 7.2177 210.322 7.05891 212.328 6.84719C215.706 6.63547 217.871 6.37082 218.821 6.05323C219.877 5.73565 220.985 5.57686 222.147 5.57686C223.202 5.57686 224.311 5.68272 225.472 5.89444L227.531 6.05323C228.27 6.05323 229.22 5.94737 230.382 5.73564C232.282 5.41807 234.13 5.25928 235.925 5.25928C237.825 5.25928 239.092 5.41807 239.726 5.73564C240.465 6.05323 241.098 6.21202 241.626 6.21202L242.101 6.05323C242.207 6.05323 242.26 6.15909 242.26 6.37081L242.101 7.32356C242.101 7.53528 242.312 7.64114 242.735 7.64114C243.263 7.64114 243.791 7.85286 244.318 8.27631C244.846 8.59389 245.11 8.91147 245.11 9.22905L244.794 9.70543C244.794 9.81129 245.163 9.86422 245.902 9.86422C247.591 9.86422 248.489 10.0759 248.594 10.4994C248.594 10.7111 248.172 10.9228 247.327 11.1345C246.483 11.3463 246.061 11.6109 246.061 11.9285L246.852 13.04C246.852 13.3576 246.641 13.5164 246.219 13.5164L244.794 13.1988L244.477 13.3576L246.694 14.4692C246.272 14.4692 246.061 14.6809 246.061 15.1043C246.061 15.2102 246.166 15.369 246.377 15.5807C246.588 15.7924 246.958 15.8983 247.486 15.8983C247.591 16.0041 247.644 16.2159 247.644 16.5334C247.644 16.7452 247.75 16.851 247.961 16.851C248.172 16.851 248.278 16.904 248.278 17.0098C247.75 17.5391 247.327 17.8038 247.011 17.8038C246.8 17.8038 246.694 17.6979 246.694 17.4862C246.694 17.2745 246.536 17.1686 246.219 17.1686C245.374 17.1686 244.688 17.5391 244.16 18.2802C244.16 18.5977 243.791 18.7565 243.051 18.7565C242.312 18.7565 241.784 18.9153 241.468 19.2329C241.045 19.3388 240.57 19.3917 240.042 19.3917C239.62 19.3917 239.251 19.5505 238.934 19.8681C238.617 20.1856 238.353 20.3974 238.142 20.5032C237.931 20.5032 237.561 20.5032 237.033 20.5032C236.083 20.3974 234.288 20.3444 231.649 20.3444L226.264 20.1856C221.302 20.1856 217.395 20.0269 214.545 19.7093C214.545 27.6488 214.492 31.6715 214.386 31.7774C214.281 31.7774 214.228 32.1479 214.228 32.8889C214.228 33.5241 214.228 34.1593 214.228 34.7944C214.334 35.3237 214.492 36.3294 214.703 37.8115L214.386 40.0345C214.703 41.3049 214.914 44.4807 215.02 49.562C215.02 51.8909 215.02 53.9023 215.02 55.5961C215.125 57.2898 215.231 58.1897 215.337 58.2955L215.495 59.8834C215.495 60.8362 215.389 61.736 215.178 62.5829C215.389 63.0063 215.495 63.6415 215.495 64.4884C215.495 66.1821 215.548 67.029 215.653 67.029L217.395 66.8702C218.557 66.8702 219.613 66.7114 220.563 66.3939C222.78 65.6528 225.261 65.2823 228.006 65.2823C228.745 65.2823 229.432 65.1235 230.065 64.8059C230.276 64.8059 230.435 64.8589 230.54 64.9647C230.646 65.0706 233.549 65.1235 239.251 65.1235C239.462 65.2294 239.62 65.3353 239.726 65.4411C239.937 65.4411 240.042 65.547 240.042 65.7587C240.148 65.8646 240.465 66.0763 240.993 66.3939C241.626 66.6056 242.312 66.8173 243.051 67.029C243.896 67.1349 244.582 67.1878 245.11 67.1878C245.638 67.1878 246.008 67.3995 246.219 67.823C246.536 68.1406 246.852 68.2994 247.169 68.2994C247.486 68.2994 247.644 68.4581 247.644 68.7757L247.486 70.3636C247.486 70.6812 247.591 70.8929 247.803 70.9988C248.014 70.9988 248.172 71.1047 248.278 71.3164V72.4279C248.172 72.6396 247.961 72.7455 247.644 72.7455C247.433 72.7455 247.327 72.9043 247.327 73.2219C247.327 73.5395 247.486 73.6983 247.803 73.6983C247.803 73.8041 247.697 73.9629 247.486 74.1746C246.852 74.4922 246.219 74.651 245.585 74.651C245.057 74.651 244.688 74.7569 244.477 74.9686C244.371 75.0744 244.266 75.1803 244.16 75.2862C244.054 75.2862 243.843 75.2862 243.527 75.2862C243.21 75.2862 243.051 75.4979 243.051 75.9213C243.051 76.2389 241.415 76.8741 238.142 77.8268C237.614 78.0385 237.139 78.2503 236.717 78.462C236.4 78.5678 236.189 78.7266 236.083 78.9384C236.083 79.0442 235.978 79.0971 235.766 79.0971L234.341 78.6208C232.969 78.8325 231.596 78.9913 230.223 79.0971C228.851 79.203 227.953 79.3618 227.531 79.5735L223.889 79.8911C221.777 79.8911 220.616 79.997 220.404 80.2087C220.299 80.3146 220.141 80.4204 219.929 80.5263C219.613 80.2087 219.401 80.0499 219.296 80.0499C218.662 80.2616 218.082 80.4204 217.554 80.5263H216.762C216.762 80.6321 216.762 80.8439 216.762 81.1614C216.868 81.3732 216.92 81.9025 216.92 82.7493C216.92 87.1955 217.079 90.0537 217.395 91.3241L217.237 92.2768C217.237 93.2296 217.237 93.7589 217.237 93.8647C217.343 93.8647 217.871 95.0821 218.821 97.5169C219.138 98.1521 219.401 98.4697 219.613 98.4697L218.979 99.8988C218.979 100.005 219.138 100.058 219.454 100.058C219.771 100.058 219.929 100.852 219.929 102.439L220.246 103.233V104.345C220.563 104.98 220.774 105.404 220.88 105.615C221.091 105.721 221.196 106.145 221.196 106.886C221.196 107.521 221.302 107.944 221.513 108.156C221.83 108.368 222.147 108.791 222.463 109.426C222.886 111.649 223.202 113.343 223.414 114.508C223.73 115.566 223.889 116.413 223.889 117.048C223.783 117.048 223.73 117.101 223.73 117.207L224.047 118.001L223.572 120.859C223.572 121.706 223.677 122.553 223.889 123.4C224.205 124.141 224.522 124.564 224.839 124.67C225.156 124.776 225.631 124.829 226.264 124.829C227.426 124.829 228.323 124.723 228.956 124.511C229.168 124.3 229.432 124.194 229.748 124.194C230.171 124.088 230.751 123.982 231.49 123.876C232.335 123.77 233.232 123.612 234.183 123.4C239.462 122.447 244.635 121.971 249.703 121.971C250.97 121.971 252.026 121.971 252.87 121.971C253.821 121.865 254.349 121.759 254.454 121.653H254.613L257.146 123.082C257.991 123.717 258.466 124.035 258.572 124.035L259.997 124.67C258.202 124.67 257.252 124.988 257.146 125.623C257.146 125.835 257.463 126.258 258.097 126.893C257.78 127.105 257.569 127.37 257.463 127.687C257.463 128.005 257.146 128.164 256.513 128.164C255.985 128.164 255.563 128.269 255.246 128.481C255.035 128.693 254.929 129.063 254.929 129.593C254.929 130.016 253.979 130.334 252.079 130.545C251.234 130.757 250.6 131.022 250.178 131.339C249.861 131.551 248.383 132.028 245.744 132.769C243.104 133.51 241.521 133.88 240.993 133.88C240.465 133.88 240.042 134.039 239.726 134.356C239.409 134.674 239.092 134.939 238.775 135.15C238.459 135.256 238.195 135.309 237.984 135.309C234.816 136.05 230.646 137.268 225.472 138.961C224.522 139.385 223.836 139.649 223.414 139.755C222.991 139.861 220.668 140.126 216.445 140.549L214.545 140.391C213.278 140.391 212.433 140.443 212.011 140.549C211.694 140.655 210.11 140.708 207.26 140.708Z"/>
        <path d="M110.606 142.955C110.622 142.759 111.499 141.645 111.515 141.449L111.547 141.057C111.43 140.06 110.57 136.043 110.453 135.047C110.421 106.027 107.812 77.1944 110.731 48.215C111.305 43.5237 112.418 39.4681 113.188 34.7926C113.235 34.2042 113.434 29.2853 113.677 28.7126C113.897 25.9669 116.503 13.1486 117.131 10.2383C119.466 5.68888 122.598 5.94114 127.296 6.31953C127.492 6.3353 127.687 6.35106 127.883 6.36683C138.829 7.44588 132.281 15.9987 133.012 26.5195C133.448 30.8974 132.859 35.7848 134.289 40.0454C133.952 41.7947 133.864 45.3408 133.273 52.6955C133.273 52.6955 132.958 56.6181 132.485 62.5019C131.839 70.5431 132.639 67.9427 133.496 76.8945C133.877 80.8731 133.699 82.3392 133.884 84.3281C134.33 89.1095 134.373 92.3329 133.977 97.265C133.961 97.4612 133.93 97.8534 133.93 97.8534C134.13 105.173 132.944 112.579 133.144 119.898C133.245 121.091 133.643 123.492 133.823 123.704L136.368 123.909C139.171 123.345 152.295 121.836 155.247 121.876C156.241 121.759 164.51 121.833 165.504 121.715C165.7 121.731 168.487 121.364 169.482 121.246C169.678 121.262 170.884 120.964 171.079 120.98C173.021 121.334 173.145 124.7 173.034 126.072C173.018 126.269 173.003 126.465 172.987 126.661C172.634 128.606 172.555 129.587 171.403 131.666C165.857 136.943 160.884 137.53 153.437 139.496C153.046 139.465 149.687 139.589 148.449 140.279L136.453 142.471C130.281 145.724 129.334 145.253 122.256 145.078C121.081 144.983 120.22 145.901 119.045 145.806C118.458 145.759 110.84 144.948 110.606 142.955Z"/>
        <path d="M42.7405 39.8463C43.6871 42.6557 45.0926 45.035 46.9858 46.8983C48.879 48.7903 50.8583 50.4816 52.9236 52.0296C54.4152 53.1189 55.8495 54.2369 57.255 55.4695C62.8486 60.5148 68.6142 65.3881 74.6094 70.0894L75.6134 70.8921C76.2731 71.4941 77.0476 72.0101 77.8795 72.4114C78.7113 72.8127 79.5145 73.0134 80.2603 73.0134H80.5758C81.6659 72.8701 82.6985 72.8127 83.7025 72.8127C89.5542 72.8127 92.4801 75.536 92.4801 80.9827C92.4801 82.1293 92.3367 83.362 92.0785 84.7093C89.9271 95.9466 87.575 107.155 85.022 118.364C84.563 119.969 83.7312 121.546 82.6125 123.094L81.6085 124.699C81.0061 125.788 80.4037 126.878 79.8014 128.024C78.4532 130.834 76.8468 133.442 74.9536 135.793C72.3433 138.688 69.3601 140.609 66.0326 141.584C62.7052 142.558 59.2343 143.217 55.5913 143.561C54.0997 143.705 52.6368 143.905 51.1452 144.163C49.5962 144.364 48.0472 144.479 46.4982 144.479C42.7405 144.479 39.1836 143.819 35.7987 142.472C31.0944 140.58 26.5622 138.23 22.1734 135.42C20.8252 134.618 19.5057 133.844 18.2436 133.098C10.8429 128.54 6.02383 122.864 3.78641 116.128C1.5203 109.362 0.258164 102.167 0 94.5132C0 93.9112 0.172109 93.2806 0.516328 92.6499C0.860547 92.0192 1.26214 91.5319 1.72109 91.1879C5.8804 88.4359 10.2692 87.06 14.8301 87.06C16.9815 87.06 19.1902 87.3753 21.485 87.9773C24.7837 88.9806 27.1933 90.7866 28.6849 93.3666C30.2052 95.9465 31.4099 98.7559 32.3566 101.794C32.9589 103.686 33.3605 105.55 33.5613 107.442C33.8195 109.334 34.2498 111.168 34.8234 112.974C35.3971 114.78 36.3724 116.5 37.8067 118.106C41.3636 122.262 45.609 124.355 50.5141 124.355C50.973 124.355 51.4894 124.326 52.0344 124.24C58.4311 123.094 62.2749 119.166 63.6231 112.458C64.9713 107.7 66.7784 103.113 69.0732 98.7558C69.8764 97.0072 70.278 95.3732 70.278 93.8252C70.278 90.8153 68.729 88.2353 65.631 86.1713C64.4836 85.3686 63.451 84.5086 62.5044 83.5626C61.357 82.416 60.1235 81.4413 58.7753 80.6387C52.2639 77.084 45.609 73.6727 38.8106 70.4621C28.1972 65.3021 19.5918 57.9922 12.9943 48.5896C10.2405 43.831 8.86363 39.273 8.86363 34.973C8.86363 28.1791 12.3058 21.9298 19.1615 16.2252C24.4682 11.7819 30.2052 8.0266 36.4011 4.93063C43.1134 1.63399 48.879 0 53.6407 0C54.7881 0 55.9068 0.114666 56.9682 0.315331C62.2749 1.31866 67.725 4.2713 73.3186 9.17326C77.0189 12.1832 80.7766 15.0785 84.6204 17.8305C84.8786 18.0312 85.1941 18.2319 85.5383 18.4325C87.8331 20.2385 89.4682 22.3025 90.4721 24.6245C91.4761 26.9464 91.9924 28.9531 91.9924 30.6158C91.9924 31.4757 91.8777 32.3357 91.6769 33.1384C90.9311 35.9477 89.5542 38.241 87.4889 39.9897C85.4523 41.7383 83.0714 42.5983 80.3751 42.5983H79.4571C77.105 42.3403 74.7241 41.6237 72.2859 40.477C69.8764 39.3303 67.8684 37.897 66.3481 36.1484C64.2541 33.9984 62.6478 32.8804 61.5004 32.8231C60.353 32.7657 59.6072 32.7084 59.2917 32.7084C57.5419 32.7084 55.7634 33.0524 53.9563 33.7117C51.2599 34.715 48.6783 36.0624 46.1827 37.7537C45.0353 38.499 43.8879 39.187 42.7405 39.875V39.8463Z"/>
    </g>
</svg>
