<svg height="150" width="683" viewBox="0 0 683 150" fill="#32468a" xmlns="http://www.w3.org/2000/svg">
    <path d="M616.289 146.007C616.089 146.007 615.989 145.907 615.989 145.706C615.989 145.606 615.638 145.456 614.937 145.255C614.336 145.055 613.685 144.654 612.984 144.052C612.383 143.551 612.032 143.1 611.932 142.699C611.932 142.398 611.782 141.947 611.482 141.346C610.28 139.04 609.578 137.637 609.378 137.136C609.178 136.534 608.927 135.031 608.627 132.625C608.627 132.224 608.727 131.974 608.927 131.873L609.228 129.618C609.428 129.417 609.528 129.267 609.528 129.167C609.528 129.067 609.428 129.016 609.228 129.016C609.027 128.916 608.927 128.615 608.927 128.114C608.827 128.114 608.777 128.064 608.777 127.964H608.627C608.527 127.964 608.477 127.864 608.477 127.663L608.627 127.513C608.727 127.413 608.777 127.062 608.777 126.46C608.777 125.859 609.027 125.308 609.528 124.806C609.428 124.706 609.328 124.656 609.228 124.656C609.128 124.556 609.027 124.355 608.927 124.055C608.927 123.754 608.927 123.403 608.927 123.002C608.927 121.699 609.027 120.797 609.228 120.296C609.428 119.794 609.528 119.343 609.528 118.942C609.528 118.441 609.679 117.99 609.979 117.589C610.28 117.188 610.43 116.837 610.43 116.537C610.229 115.534 610.129 114.532 610.129 113.529V110.222C610.33 110.222 610.43 108.868 610.43 106.162C610.43 102.854 610.48 100.949 610.58 100.448C610.68 99.8468 610.78 99.095 610.881 98.1929V91.8778L611.331 86.9159L612.383 78.1951C612.884 76.3908 613.134 74.0853 613.134 71.2786C613.535 67.5698 613.936 64.4122 614.336 61.806C614.537 60.9039 614.637 59.9516 614.637 58.9492C614.737 57.8466 614.837 56.1926 614.937 53.9873C615.037 53.1854 615.087 52.2833 615.087 51.2809C615.388 44.2641 615.588 40.4049 615.688 39.7032C615.889 38.0994 616.089 36.5457 616.289 35.0421C616.49 33.4383 616.59 32.5863 616.59 32.486C616.59 32.2855 616.64 32.1352 616.74 32.0349C616.74 31.5337 616.64 31.0325 616.44 30.5314C616.54 30.3309 616.64 30.0803 616.74 29.7796C616.941 29.4788 617.191 28.276 617.491 26.1709L617.642 23.6148C617.642 22.1113 617.642 21.0086 617.642 20.3069C617.742 19.6053 617.842 19.1542 617.942 18.9537C618.143 18.7532 618.293 18.4024 618.393 17.9012L618.543 8.72931H619.595C620.296 8.72931 620.747 8.67919 620.947 8.57895C621.148 8.37847 621.548 8.27823 622.149 8.27823C623.051 8.27823 624.203 8.37847 625.605 8.57895L629.662 9.48111C630.062 9.48111 630.263 9.58134 630.263 9.78182L629.962 11.5861C629.962 11.8868 630.112 12.0372 630.413 12.0372C630.713 12.0372 630.864 12.1374 630.864 12.3379L630.713 12.9394C630.713 13.9418 631.114 14.9441 631.915 15.9465C632.216 16.548 632.416 16.9489 632.516 17.1494C632.717 17.2496 632.867 17.4 632.967 17.6005C632.967 18.9036 633.167 19.906 633.568 20.6077C633.969 21.2091 634.169 21.6602 634.169 21.9609C634.069 22.1614 634.019 22.4621 634.019 22.863C634.019 23.4645 634.119 24.2163 634.319 25.1184C634.52 25.9203 634.67 26.4215 634.77 26.622C634.87 26.8225 635.02 27.1232 635.221 27.5242C635.521 27.8249 635.872 28.3762 636.273 29.1781C636.773 29.98 637.224 30.7819 637.625 31.5839L639.879 36.3953L641.381 38.9515V39.5529C641.381 40.0541 641.681 40.7558 642.282 41.6579C642.483 42.0589 642.733 42.2594 643.034 42.2594V42.7104L643.484 43.7629C643.685 43.9634 643.835 44.1639 643.935 44.3644C644.035 44.5648 644.136 45.3668 644.236 46.7701C644.436 46.8704 644.586 47.0708 644.686 47.3715C644.887 47.572 645.037 47.8226 645.137 48.1233C645.237 48.3238 645.287 48.5243 645.287 48.7248C645.388 48.9253 645.488 49.1257 645.588 49.3262C645.788 49.4265 646.089 49.7773 646.489 50.3787C647.391 52.0828 647.892 53.2355 647.992 53.837C648.192 54.3382 648.343 54.7391 648.443 55.0399C648.543 55.2403 648.643 55.3907 648.743 55.4909H648.593C649.094 56.3931 649.444 56.9945 649.645 57.2952C649.945 57.596 650.095 57.8466 650.095 58.047C650.095 58.2475 650.145 58.448 650.246 58.6485C650.446 58.8489 650.546 58.9993 650.546 59.0995C650.646 59.1998 650.746 59.3501 650.847 59.5506C650.947 59.6509 650.997 59.8012 650.997 60.0017C650.997 60.1019 650.997 60.2523 650.997 60.4528C651.097 60.6533 651.197 60.8036 651.297 60.9039V61.0542C651.398 61.1545 651.448 61.3549 651.448 61.6556C651.548 61.8561 651.698 62.1568 651.898 62.5578C652.099 62.8585 652.299 63.1091 652.499 63.3096C653.201 64.0113 653.551 64.5626 653.551 64.9635C653.551 65.3645 653.651 65.7655 653.852 66.1664C654.152 66.4671 654.352 66.6175 654.453 66.6175C655.154 66.6175 655.504 62.3072 655.504 53.6866C655.504 49.0756 655.554 46.72 655.655 46.6198C655.855 46.4193 655.955 45.9181 655.955 45.1162C655.955 44.214 656.155 43.5625 656.556 43.1615C657.157 42.3596 657.458 40.1543 657.458 36.5457C657.458 35.2426 657.357 34.0898 657.157 33.0875C657.157 32.2855 657.257 31.6841 657.458 31.2831C657.758 30.7819 658.259 28.3762 658.96 24.0659L658.81 23.4645C659.01 21.7604 659.311 20.0563 659.711 18.3523C660.012 18.0516 660.162 17.4 660.162 16.3976C660.162 15.295 660.262 14.6935 660.463 14.5933C660.763 14.3928 660.963 14.1924 661.064 13.9919C661.064 13.3904 661.064 13.0396 661.064 12.9394C661.164 12.7389 661.264 12.5384 661.364 12.3379C662.666 10.6339 663.317 9.08014 663.317 7.67679C663.317 7.37607 663.217 7.22571 663.017 7.22571V7.07536C662.917 7.07536 662.867 7.02524 662.867 6.925L662.716 6.77464C662.716 6.27345 663.918 5.97273 666.322 5.87248C666.723 5.77225 666.973 5.72213 667.073 5.72213C667.274 5.72213 667.374 5.57177 667.374 5.27106C667.374 4.97034 667.825 4.81998 668.726 4.81998C669.628 4.81998 670.529 4.76986 671.431 4.66962C672.432 4.46914 673.434 4.3689 674.436 4.3689C675.738 4.3689 676.94 4.51926 678.042 4.81998C679.244 5.1207 679.895 5.42141 679.995 5.72213C680.195 6.02285 680.345 6.27345 680.446 6.47392C680.646 6.57416 680.946 6.62428 681.347 6.62428C682.148 6.72452 682.549 7.07536 682.549 7.67679C682.549 8.27823 682.148 8.9799 681.347 9.78182C680.846 10.283 680.496 10.8845 680.295 11.5861C680.095 12.2878 679.895 13.9417 679.694 16.548L679.394 20.1566L679.845 23.7652L679.244 28.8774L679.394 30.5314L679.244 33.2378C679.244 35.3428 679.294 36.5958 679.394 36.9968C679.594 38.1997 679.694 40.7558 679.694 44.6651C679.694 48.7749 679.594 50.93 679.394 51.1305C679.294 51.2308 679.244 51.7821 679.244 52.7845V63.1592C679.244 68.071 679.394 71.1283 679.694 72.3311C679.895 72.7321 680.045 73.4338 680.145 74.4362C680.145 77.5436 680.195 80.7512 680.295 84.0591C680.396 87.367 680.546 89.4219 680.746 90.2238C680.746 90.5246 680.896 90.9756 681.197 91.5771L681.047 92.3289C681.047 92.5293 681.197 92.7799 681.497 93.0807C682.098 94.2835 682.399 95.8372 682.399 97.7418C682.399 98.4435 682.399 99.095 682.399 99.6965C682.499 100.198 682.599 100.599 682.699 100.899C682.9 101.2 683 101.902 683 103.004C683 103.907 682.9 104.358 682.699 104.358C682.599 104.358 682.499 104.608 682.399 105.109C682.399 105.51 682.399 105.961 682.399 106.463C682.399 107.064 682.449 107.565 682.549 107.966C682.549 108.267 682.199 108.618 681.497 109.019C680.796 109.319 680.295 109.62 679.995 109.921C679.795 110.222 679.694 110.673 679.694 111.274C679.694 112.978 679.644 113.93 679.544 114.131C679.444 114.331 679.143 114.682 678.643 115.183L678.492 115.484C678.292 115.785 678.142 115.935 678.042 115.935C677.04 115.935 676.539 116.436 676.539 117.439C676.539 118.04 676.439 118.341 676.239 118.341C676.038 118.341 675.838 118.692 675.638 119.393C675.437 120.095 675.237 120.446 675.037 120.446C674.937 120.446 674.836 120.496 674.736 120.596L673.985 121.198C673.885 121.198 673.384 120.847 672.482 120.145C672.382 120.346 672.232 120.646 672.032 121.047C671.932 121.348 671.631 121.498 671.13 121.498L670.83 121.348C670.129 121.348 669.628 121.298 669.327 121.198C666.122 120.997 663.618 120.095 661.815 118.491C660.012 116.887 659.11 116.035 659.11 115.935C659.21 115.634 659.361 115.384 659.561 115.183C659.06 115.183 658.559 114.782 658.059 113.981C657.458 113.58 657.007 113.078 656.706 112.477C656.206 111.976 655.855 111.575 655.655 111.274C655.554 110.973 655.454 110.823 655.354 110.823C655.254 110.823 655.204 110.773 655.204 110.673V109.771C654.603 109.169 654.302 107.816 654.302 105.711L654.002 105.109V104.809C653.902 104.608 653.802 104.257 653.701 103.756C653.601 103.255 653.551 102.503 653.551 101.501C653.451 101.1 653.301 100.849 653.1 100.749C653 100.649 652.85 100.198 652.65 99.3957C652.449 98.4936 652.149 97.8922 651.748 97.5914C651.448 97.2907 651.297 97.0401 651.297 96.8396C651.297 96.5389 651.147 96.1881 650.847 95.7871C650.546 95.2859 650.346 94.7847 650.246 94.2835C649.845 93.4816 649.595 92.9303 649.494 92.6296C649.494 92.2286 649.444 92.0281 649.344 92.0281C649.244 92.0281 649.144 91.6773 649.044 90.9756C648.944 90.274 648.693 89.7728 648.292 89.4721C647.992 89.0711 647.842 88.7704 647.842 88.5699C647.842 88.2692 647.792 88.0687 647.691 87.9685C647.591 87.768 647.491 87.6176 647.391 87.5174C646.69 86.8157 646.189 86.0639 645.888 85.262C645.688 84.861 645.588 84.41 645.588 83.9088C645.488 83.8085 645.287 83.6582 644.987 83.4577C644.686 83.157 644.486 82.8563 644.386 82.5555C644.386 82.2548 644.286 81.8539 644.085 81.3527C642.683 79.4481 641.982 78.0949 641.982 77.293H641.832C641.631 77.293 641.281 76.6915 640.78 75.4887C640.379 74.1856 639.929 73.0829 639.428 72.1808C639.027 71.2786 638.827 70.6772 638.827 70.3765C638.827 69.9755 638.677 69.4743 638.376 68.8729C638.076 68.2714 637.725 67.67 637.324 67.0686C637.024 66.3669 636.723 65.9158 636.423 65.7153C636.122 65.4146 635.972 65.2141 635.972 65.1139C635.271 63.1091 634.72 62.1067 634.319 62.1067C634.219 62.1067 634.169 62.3072 634.169 62.7082C633.969 65.1139 633.818 67.5698 633.718 70.0757C633.718 70.7774 633.668 71.2285 633.568 71.429C633.468 71.6295 633.368 71.8801 633.268 72.1808L633.718 75.188C633.718 75.4887 633.618 75.7393 633.418 75.9397C633.318 76.04 633.268 76.4409 633.268 77.1426C632.967 79.2476 632.817 80.9016 632.817 82.1045C632.717 82.8061 632.616 83.2572 632.516 83.4577L632.216 89.3217C632.216 98.1428 632.016 103.556 631.615 105.56C631.915 106.964 632.116 108.467 632.216 110.071C632.316 111.675 632.366 114.131 632.366 117.439L631.915 119.393C632.316 120.997 632.516 122.952 632.516 125.257C632.316 131.372 632.116 134.63 631.915 135.031C631.715 135.432 631.415 135.783 631.014 136.083C630.613 136.384 630.363 136.685 630.263 136.985C630.162 137.286 630.112 137.787 630.112 138.489C630.112 139.692 629.862 140.394 629.361 140.594C628.96 140.795 628.76 141.697 628.76 143.301C628.66 143.501 628.359 143.601 627.859 143.601C627.458 143.601 627.208 143.651 627.107 143.752C627.007 143.852 626.907 144.052 626.807 144.353C626.807 144.654 626.356 144.804 625.455 144.804C625.054 144.804 624.353 144.554 623.351 144.052C623.151 144.052 623.001 144.153 622.9 144.353C622.8 144.554 622.65 144.654 622.45 144.654L620.947 144.353C620.547 144.353 620.246 144.453 620.046 144.654C619.845 144.954 619.495 145.155 618.994 145.255C617.792 145.756 616.89 146.007 616.289 146.007ZM662.115 17.1494C662.316 17.1494 662.416 17.0492 662.416 16.8487C662.416 16.6482 662.316 16.548 662.115 16.548C661.915 16.548 661.815 16.6482 661.815 16.8487C661.815 17.0492 661.915 17.1494 662.115 17.1494Z"/>
    <path d="M548.233 137.384C543.397 137.384 540.828 137.384 540.526 137.384C540.325 137.284 540.174 137.183 540.073 137.082C540.073 136.981 540.073 136.83 540.073 136.628C540.073 136.427 539.922 136.225 539.62 136.023C539.317 135.822 538.914 135.721 538.411 135.721C538.008 135.721 537.806 135.671 537.806 135.57C537.806 135.469 537.705 135.368 537.504 135.267C536.497 134.763 535.741 134.31 535.237 133.907C534.734 133.503 534.23 133.1 533.726 132.697C533.323 132.193 533.122 131.84 533.122 131.638L532.366 129.521C531.661 128.312 531.308 127.656 531.308 127.556C531.308 127.354 531.208 127.152 531.006 126.951C530.2 126.144 529.747 125.741 529.646 125.741C529.545 125.64 529.495 125.54 529.495 125.439C529.999 124.027 530.251 123.12 530.251 122.717V119.844C530.251 117.828 530.15 116.517 529.948 115.912V115.761H530.1C530.2 115.761 530.251 115.459 530.251 114.854C530.251 113.543 530.15 112.737 529.948 112.435C529.747 112.132 529.646 111.83 529.646 111.527C529.142 108.1 528.891 105.832 528.891 104.723C528.891 104.017 528.991 103.463 529.193 103.059L529.495 100.791L529.797 96.4062C530.301 95.5997 530.553 94.5412 530.553 93.2307C530.553 92.6259 530.654 91.8699 530.855 90.9626C531.157 89.4505 531.359 86.7287 531.46 82.7972C531.661 79.9746 531.862 78.3617 532.064 77.9584C532.265 77.4544 532.366 76.4967 532.366 75.0854C532.366 73.7749 532.316 72.9685 532.215 72.666C532.114 72.3636 532.014 72.1116 531.913 71.91C531.913 71.406 532.014 70.7507 532.215 69.9443C532.417 69.1378 532.618 68.5329 532.82 68.1297C533.122 67.6257 533.323 67.1721 533.424 66.7688C533.222 66.3656 533.122 66.0128 533.122 65.7103C533.222 65.4079 533.323 64.9543 533.424 64.3494C533.726 62.8373 533.877 61.6276 533.877 60.7204C533.877 59.7123 533.928 59.2083 534.028 59.2083C534.23 59.2083 534.381 59.0067 534.482 58.6034C534.482 57.0913 534.532 55.8312 534.633 54.8231C534.834 53.8151 534.935 52.8574 534.935 51.9501C535.237 49.8332 535.388 48.3211 535.388 47.4138C535.388 45.9017 535.54 44.692 535.842 43.7847L535.993 43.0287L535.691 42.1214L536.144 41.0629L535.993 39.2484L536.446 36.829L535.993 35.7706C536.094 35.4681 536.245 35.2161 536.446 35.0145L536.597 33.956C536.799 32.948 536.9 31.9903 536.9 31.083C536.9 30.0749 537.051 29.1173 537.353 28.21C537.554 28.0084 537.655 27.6556 537.655 27.1515C537.756 26.5467 537.806 26.1939 537.806 26.0931C537.907 25.8914 538.008 25.7402 538.108 25.6394C538.31 25.4378 538.461 25.085 538.562 24.5809C538.562 21.6575 538.663 20.095 538.864 19.8934C538.763 19.4902 537.252 19.0869 534.331 18.6837C533.424 18.4821 532.769 18.3309 532.366 18.2301C532.064 18.0285 531.762 17.9277 531.46 17.9277C531.258 17.8269 531.057 17.726 530.855 17.6252C530.754 17.5244 530.704 17.4236 530.704 17.3228C530.805 17.222 530.905 17.1716 531.006 17.1716C531.107 17.1716 531.409 17.0204 531.913 16.718C532.417 16.3147 532.82 16.1131 533.122 16.1131C533.424 16.0123 533.726 15.9619 534.028 15.9619C535.338 15.9619 535.993 15.7603 535.993 15.3571L535.691 14.601C535.691 14.2986 535.892 14.0466 536.295 13.845C536.698 13.5425 537.101 13.3913 537.504 13.3913L537.957 13.5425H537.806C537.705 13.6433 537.454 13.7946 537.051 13.9962C536.748 14.097 536.497 14.349 536.295 14.7522C536.295 14.853 536.648 14.9034 537.353 14.9034C538.36 14.9034 538.864 14.7522 538.864 14.4498L538.562 13.6937C538.562 13.4921 538.713 13.2905 539.015 13.0889C539.418 12.8873 539.62 12.6353 539.62 12.3328L539.468 11.728C539.468 10.8207 540.023 10.3671 541.131 10.3671C541.231 10.4679 541.282 10.5687 541.282 10.6695C541.282 10.7703 541.483 10.8207 541.886 10.8207C542.088 10.7199 542.44 10.6695 542.944 10.6695C543.548 10.5687 544.203 10.4679 544.908 10.3671C548.434 10.2663 551.154 10.1151 553.069 9.91348C556.292 9.71186 558.357 9.45985 559.264 9.15742C560.272 8.855 561.329 8.70379 562.437 8.70379C563.445 8.70379 564.503 8.80459 565.611 9.00621L567.575 9.15742C568.28 9.15742 569.187 9.05661 570.295 8.85499C572.109 8.55258 573.872 8.40137 575.584 8.40137C577.398 8.40137 578.606 8.55258 579.211 8.85499C579.916 9.15742 580.52 9.30863 581.024 9.30863L581.478 9.15742C581.578 9.15742 581.629 9.25823 581.629 9.45984L581.478 10.3671C581.478 10.5687 581.679 10.6695 582.082 10.6695C582.586 10.6695 583.089 10.8711 583.593 11.2744C584.097 11.5768 584.349 11.8792 584.349 12.1816L584.046 12.6353C584.046 12.7361 584.399 12.7865 585.104 12.7865C586.716 12.7865 587.572 12.9881 587.673 13.3913C587.673 13.5929 587.27 13.7946 586.464 13.9962C585.658 14.1978 585.255 14.4498 585.255 14.7522L586.011 15.8107C586.011 16.1131 585.809 16.2643 585.406 16.2643L584.046 15.9619L583.744 16.1131L585.86 17.1716C585.457 17.1716 585.255 17.3732 585.255 17.7764C585.255 17.8773 585.356 18.0285 585.558 18.2301C585.759 18.4317 586.112 18.5325 586.615 18.5325C586.716 18.6333 586.766 18.8349 586.766 19.1373C586.766 19.339 586.867 19.4398 587.069 19.4398C587.27 19.4398 587.371 19.4902 587.371 19.591C586.867 20.095 586.464 20.347 586.162 20.347C585.961 20.347 585.86 20.2462 585.86 20.0446C585.86 19.843 585.709 19.7422 585.406 19.7422C584.601 19.7422 583.946 20.095 583.442 20.8007C583.442 21.1031 583.089 21.2543 582.384 21.2543C581.679 21.2543 581.175 21.4055 580.873 21.7079C580.47 21.8087 580.017 21.8591 579.513 21.8591C579.11 21.8591 578.758 22.0104 578.455 22.3128C578.153 22.6152 577.901 22.8168 577.7 22.9176C577.498 22.9176 577.146 22.9176 576.642 22.9176C575.735 22.8168 574.023 22.7664 571.504 22.7664L566.366 22.6152C561.632 22.6152 557.904 22.464 555.184 22.1616C555.184 29.7221 555.134 33.5528 555.033 33.6536C554.932 33.6536 554.882 34.0064 554.882 34.7121C554.882 35.3169 554.882 35.9218 554.882 36.5266C554.983 37.0307 555.134 37.9883 555.335 39.3996L555.033 41.5166C555.335 42.7263 555.537 45.7505 555.637 50.5892C555.637 52.807 555.637 54.7223 555.637 56.3353C555.738 57.9482 555.839 58.805 555.94 58.9058L556.091 60.418C556.091 61.3252 555.99 62.1821 555.789 62.9885C555.99 63.3918 556.091 63.9966 556.091 64.8031C556.091 66.416 556.141 67.2225 556.242 67.2225L557.904 67.0712C559.012 67.0712 560.02 66.92 560.926 66.6176C563.042 65.912 565.409 65.5591 568.029 65.5591C568.734 65.5591 569.389 65.4079 569.993 65.1055C570.195 65.1055 570.346 65.1559 570.446 65.2567C570.547 65.3575 573.317 65.4079 578.758 65.4079C578.959 65.5087 579.11 65.6095 579.211 65.7103C579.412 65.7103 579.513 65.8112 579.513 66.0128C579.614 66.1136 579.916 66.3152 580.42 66.6176C581.024 66.8192 581.679 67.0208 582.384 67.2225C583.19 67.3233 583.845 67.3737 584.349 67.3737C584.852 67.3737 585.205 67.5753 585.406 67.9785C585.709 68.2809 586.011 68.4321 586.313 68.4321C586.615 68.4321 586.766 68.5834 586.766 68.8858L586.615 70.3979C586.615 70.7003 586.716 70.9019 586.918 71.0027C587.119 71.0027 587.27 71.1035 587.371 71.3052V72.3636C587.27 72.5652 587.069 72.666 586.766 72.666C586.565 72.666 586.464 72.8173 586.464 73.1197C586.464 73.4221 586.615 73.5733 586.918 73.5733C586.918 73.6741 586.817 73.8253 586.615 74.027C586.011 74.3294 585.406 74.4806 584.802 74.4806C584.298 74.4806 583.946 74.5814 583.744 74.783C583.643 74.8838 583.543 74.9846 583.442 75.0854C583.341 75.0854 583.14 75.0854 582.838 75.0854C582.535 75.0854 582.384 75.287 582.384 75.6903C582.384 75.9927 580.823 76.5975 577.7 77.5048C577.196 77.7064 576.743 77.908 576.34 78.1096C576.038 78.2105 575.836 78.3617 575.735 78.5633C575.735 78.6641 575.635 78.7145 575.433 78.7145L574.073 78.2609C572.763 78.4625 571.454 78.6137 570.144 78.7145C568.835 78.8153 567.978 78.9665 567.575 79.1681L564.1 79.4705C562.085 79.4705 560.977 79.5714 560.775 79.773C560.674 79.8738 560.523 79.9746 560.322 80.0754C560.02 79.773 559.818 79.6218 559.717 79.6218C559.113 79.8234 558.559 79.9746 558.055 80.0754H557.3C557.3 80.1762 557.3 80.3778 557.3 80.6802C557.4 80.8819 557.451 81.3859 557.451 82.1923C557.451 86.4263 557.602 89.1481 557.904 90.3577L557.753 91.265C557.753 92.1723 557.753 92.6763 557.753 92.7771C557.854 92.7771 558.357 93.9364 559.264 96.255C559.566 96.8598 559.818 97.1622 560.02 97.1622L559.415 98.5231C559.415 98.6239 559.566 98.6743 559.869 98.6743C560.171 98.6743 560.322 99.4304 560.322 100.943L560.624 101.699V102.757C560.926 103.362 561.128 103.765 561.229 103.967C561.43 104.068 561.531 104.471 561.531 105.176C561.531 105.781 561.632 106.184 561.833 106.386C562.135 106.588 562.437 106.991 562.74 107.596C563.143 109.713 563.445 111.326 563.646 112.435C563.949 113.443 564.1 114.249 564.1 114.854C563.999 114.854 563.949 114.904 563.949 115.005L564.251 115.761L563.797 118.483C563.797 119.289 563.898 120.096 564.1 120.902C564.402 121.608 564.704 122.011 565.006 122.112C565.309 122.213 565.762 122.263 566.366 122.263C567.475 122.263 568.331 122.162 568.935 121.961C569.137 121.759 569.389 121.658 569.691 121.658C570.094 121.558 570.648 121.457 571.353 121.356C572.159 121.255 573.015 121.104 573.922 120.902C578.959 119.995 583.895 119.541 588.731 119.541C589.94 119.541 590.947 119.541 591.753 119.541C592.66 119.441 593.164 119.34 593.264 119.239H593.415L595.833 120.6C596.639 121.205 597.092 121.507 597.193 121.507L598.553 122.112C596.841 122.112 595.934 122.414 595.833 123.019C595.833 123.221 596.135 123.624 596.74 124.229C596.438 124.431 596.236 124.683 596.135 124.985C596.135 125.287 595.833 125.439 595.229 125.439C594.725 125.439 594.322 125.54 594.02 125.741C593.818 125.943 593.718 126.296 593.718 126.8C593.718 127.203 592.811 127.505 590.998 127.707C590.192 127.908 589.587 128.16 589.184 128.463C588.882 128.665 587.472 129.118 584.953 129.824C582.435 130.529 580.923 130.882 580.42 130.882C579.916 130.882 579.513 131.034 579.211 131.336C578.909 131.638 578.606 131.89 578.304 132.092C578.002 132.193 577.75 132.243 577.549 132.243C574.526 132.949 570.547 134.108 565.611 135.721C564.704 136.124 564.049 136.376 563.646 136.477C563.243 136.578 561.027 136.83 556.997 137.233L555.184 137.082C553.975 137.082 553.169 137.132 552.766 137.233C552.464 137.334 550.953 137.384 548.233 137.384Z"/>
    <path d="M474.489 148.322H474.287C474.086 148.322 473.481 148.322 473.481 148.523C473.481 148.322 473.683 146.709 473.28 146.709C473.079 146.709 472.877 147.314 472.877 147.515H472.676C468.847 147.314 464.818 126.951 463.609 121.709L462.4 117.072L459.982 103.765C459.982 103.563 460.184 102.959 460.184 102.959C458.975 94.0875 458.169 85.2165 457.967 76.3454C457.766 69.0873 458.169 61.8291 457.766 54.571C457.766 54.1678 457.363 53.3613 457.363 52.9581C458.37 41.466 457.363 30.1756 458.37 18.6836C457.564 17.4739 456.758 15.861 456.355 14.6513C457.161 13.6432 458.169 12.4335 459.579 12.2319C459.579 11.6271 459.982 7.19153 461.795 7.39315C462.601 7.39315 462.198 8.19961 462.198 8.60284C463.407 8.60284 464.012 7.79638 464.818 7.19153H465.221C465.221 7.39315 465.624 7.59477 465.624 7.59477L465.825 7.79638L466.027 7.59477C469.452 6.18346 472.474 4.36893 475.899 3.15924C480.13 2.15117 493.73 1.34474 497.559 0.941519C498.566 0.941519 505.819 0.336671 506.625 0.336671H508.842C511.864 0.538283 513.476 1.74798 516.095 2.55444C514.282 3.56251 515.491 4.16735 513.879 5.37705C511.058 6.98995 507.431 7.99803 504.208 7.79641C504.208 8.19965 499.372 9.40933 498.365 9.81256C497.357 10.4174 483.959 13.8448 482.951 14.2481V14.6513C482.951 16.4658 483.354 21.9094 483.354 22.3126C483.354 22.7159 483.354 23.9256 483.556 24.1272C483.556 23.9256 483.959 23.5223 484.16 23.3207H484.362C484.362 23.5223 484.362 26.1433 485.772 24.9336C485.973 33.8047 486.376 43.079 486.175 51.7484C487.787 51.7484 489.197 51.1435 490.809 50.7403C494.839 50.3371 505.517 46.5064 509.748 46.708C511.562 47.1113 512.468 46.7836 516.397 47.1113C517.002 47.1113 519.419 47.5145 519.621 47.7161C521.031 49.329 519.822 50.3371 521.636 50.3371C521.434 52.3532 506.323 59.4097 505.114 59.813C499.473 62.8372 494.033 65.2566 487.988 67.4744V69.6921L487.585 67.8776H487.182C486.981 67.8776 486.376 68.4824 486.376 68.4824C486.376 68.8857 486.175 70.297 486.175 70.4986C486.175 71.9099 486.175 72.918 486.578 73.926C486.981 82.5955 486.981 92.273 488.19 101.346C488.996 104.571 491.816 119.894 492.421 122.918C492.622 123.322 492.824 124.733 492.622 125.338V125.741C492.622 125.943 492.824 126.346 492.219 126.547L492.018 132.193C492.018 132.193 491.615 132.798 491.615 132.999V136.628C490.406 135.822 490.406 133.806 489.802 132.798L489.6 133.201L489.399 133.402V133.604C489.399 133.806 489.802 136.427 489.802 136.83C489.802 136.83 489.802 137.435 489.6 137.435C489.6 138.04 489.802 139.249 488.996 139.249H488.794C488.593 139.249 488.391 138.241 487.988 138.241C486.981 138.241 487.384 141.265 486.779 141.87C486.779 142.072 485.973 142.475 485.772 142.475C485.772 142.677 485.369 144.088 485.369 144.29C484.362 147.314 479.324 146.104 478.72 148.927L477.914 148.12C477.713 149.128 477.108 149.128 476.504 149.128C475.496 149.128 475.295 148.322 474.489 148.322ZM487.988 73.926L488.19 74.9341L487.988 80.5793V73.926ZM471.668 142.878C471.064 142.878 470.661 143.281 470.661 143.685H471.668V142.878ZM488.391 82.3939C488.593 82.7971 488.391 84.2084 488.19 84.6116C487.988 84.8132 488.19 81.9906 488.391 82.3939ZM488.593 85.6197C488.794 85.8213 488.996 86.8294 488.794 87.031V87.4342H488.391L488.593 85.6197ZM489.197 122.515C488.794 122.515 488.794 123.322 489.197 123.322C489.6 123.322 489.6 122.515 489.197 122.515ZM491.413 121.91C491.01 121.709 491.01 122.515 491.413 122.717C491.615 122.717 491.615 121.91 491.413 121.91ZM488.794 88.4423C488.996 88.6439 488.996 89.4504 488.794 89.652C488.593 89.8536 488.593 88.4423 488.794 88.4423ZM470.056 138.644V139.048H470.459V138.644H470.056ZM478.72 147.112C478.519 146.911 478.519 147.919 478.72 147.919C478.921 147.717 478.921 147.112 478.72 147.112ZM489.6 131.991C489.399 131.991 489.399 132.394 489.6 132.394C489.802 132.394 489.802 131.991 489.6 131.991ZM469.653 108.201C469.855 107.999 469.25 107.999 469.25 108.201C469.452 108.402 469.653 108.402 469.653 108.201ZM489.197 131.386C488.996 131.185 488.996 131.789 489.197 131.789C489.399 131.588 489.399 131.386 489.197 131.386ZM488.391 129.168C488.391 128.967 488.19 129.572 488.391 129.572C488.593 129.37 488.593 129.168 488.391 129.168ZM488.391 81.1842C488.593 81.1842 488.593 81.3858 488.391 81.5874C488.19 81.5874 488.19 81.1842 488.391 81.1842ZM487.988 72.918C488.19 73.1196 488.19 73.5228 487.988 73.3212V72.918Z"/>
    <path d="M442.072 142.35C440.422 137.322 438.606 132.322 436.625 127.432C432.086 116.305 429.473 104.712 428.483 92.7611C428.4 91.8545 429.391 90.2611 430.243 89.9589C434.067 88.6127 438.028 87.5962 442.072 86.4424C441.714 86.1951 441.247 85.8105 440.697 85.5907C436.57 83.8874 432.389 82.2665 428.29 80.5082C427.575 80.206 426.585 79.5192 426.53 78.9697C426.007 73.118 425.154 67.2388 425.402 61.4146C425.732 53.7771 428.84 46.3319 427.107 38.4472C425.869 32.8427 424.907 27.2108 420.643 22.7877C419.57 21.6613 418.332 19.6283 418.662 18.392C419.597 14.8755 417.809 13.2546 415.168 12.1556C412.5 11.0292 409.694 10.1776 406.888 9.38087C401.882 7.95228 398.938 9.13362 396.627 13.804C394.042 19.0513 391.291 24.2712 389.393 29.7932C381.993 51.5243 378.279 74.0521 375.308 96.7722C373.685 109.135 371.677 121.443 369.394 133.696C368.596 138.009 367.468 141.69 372.777 143.778C375.391 144.795 377.674 146.663 380.287 147.597C384.138 148.971 387.274 146.388 387.329 142.322C387.412 138.201 387.412 134.08 387.797 129.987C388.842 118.943 390.108 107.899 391.263 96.8546C391.621 93.5578 392.941 91.6622 396.71 92.3765C398.168 92.6512 399.736 92.5414 401.249 92.4589C407.026 92.2117 412.803 91.9095 418.882 91.6073C419.625 100.316 420.588 108.75 421.028 117.212C421.44 124.987 421.248 132.789 421.468 140.564C421.495 141.69 422.073 143.339 422.926 143.833C426.447 145.894 430.051 147.899 433.874 149.3C435.69 149.96 438.303 149.85 440.009 148.998C442.512 147.734 442.897 144.905 442.045 142.35H442.072ZM395.527 81.2225C400.451 68.2553 405.1 56.0299 410.107 42.8703C412.473 55.5628 414.701 67.3762 416.957 79.5741C409.722 80.1236 402.982 80.6456 395.527 81.2225Z"/>
    <path d="M295.827 144.29C295.827 144.088 296.633 142.878 296.633 142.677V142.273C296.432 141.265 295.223 137.233 295.021 136.225C292.604 106.588 287.567 77.3534 288.171 47.5145C288.372 42.6757 289.178 38.4418 289.581 33.6031C289.581 32.9982 289.38 27.9578 289.581 27.353C289.581 24.5304 291.193 11.2238 291.596 8.1996C293.611 3.36084 296.835 3.36084 301.67 3.36084C301.872 3.36084 302.073 3.36084 302.275 3.36084C313.558 3.56246 307.564 12.8367 309.176 23.5223C309.982 27.9578 309.78 32.9982 311.594 37.2321C311.392 39.0466 311.594 42.6757 311.594 50.2363C311.594 50.2363 311.594 54.2685 311.594 60.317C311.594 68.5832 312.198 65.8614 313.81 74.9341C314.526 78.9663 314.464 80.4785 314.818 82.4946C315.666 87.3415 315.976 90.6302 315.976 95.7004C315.976 95.902 315.976 96.3052 315.976 96.3052C316.782 103.765 316.177 111.426 316.983 118.886C317.184 120.096 317.789 122.515 317.99 122.717H320.61C323.43 121.91 336.728 119.289 339.751 119.088C340.758 118.886 349.22 118.281 350.228 118.08C350.429 118.08 353.25 117.475 354.257 117.273C354.459 117.273 355.668 116.87 355.869 116.87C357.884 117.072 358.287 120.499 358.287 121.91C358.287 122.112 358.287 122.314 358.287 122.515C358.085 124.531 358.085 125.539 357.078 127.757C351.839 133.604 346.802 134.612 339.348 137.233C338.945 137.233 335.519 137.636 334.31 138.443L322.222 141.669C316.177 145.499 315.17 145.096 307.916 145.499C306.707 145.499 305.901 146.507 304.693 146.507C304.088 146.507 296.23 146.306 295.827 144.29Z"/>
    <path d="M210.063 71.7747C220.526 74.7445 231.064 75.543 241.673 74.1429C243.964 73.8406 246.295 73.4221 248.643 72.9184C249.072 72.8063 249.544 72.3838 249.983 71.7162C250.449 71.045 250.698 70.4026 250.759 69.8127C250.931 64.802 250.796 59.7765 250.33 54.7669C249.161 44.0031 249.92 33.3451 252.554 22.8C253.102 20.012 253.185 17.0637 252.865 14.0023C252.736 12.606 252.686 11.1717 252.69 9.73018C252.692 7.84567 252.744 5.92672 252.82 3.97694C252.856 3.1963 252.861 2.39203 252.886 1.52969C260.883 2.41415 265.328 6.45528 266.268 13.5914L266.358 14.2723C266.662 18.0562 267.001 21.891 267.367 25.7222C268.034 32.257 268.534 38.7863 268.867 45.3098C269.331 55.7787 269.71 66.2311 269.983 76.7251C270.299 85.44 270.598 94.2402 270.933 103.091L271.173 104.916C271.399 106.632 271.772 108.412 272.262 110.231C272.542 111.303 272.771 112.409 273.004 113.542C273.402 115.512 273.838 117.561 274.316 119.715C274.533 120.933 274.776 122.148 274.999 123.421C274.311 125.147 273.442 127.395 272.368 130.197C272.332 130.34 272.271 130.515 272.242 130.712C272.205 130.856 272.165 130.972 272.149 131.057C272.132 131.143 272.085 131.204 272.03 131.211C270.81 131.428 269.594 131.672 268.319 131.895C266.919 132.218 265.562 132.453 264.226 132.629C262.235 132.892 260.277 132.984 258.325 132.909C257.191 132.726 256.043 132.019 254.875 130.732C253.71 129.472 252.996 128.264 252.787 127.1C252.243 121.076 251.951 115.073 251.885 109.096C251.771 105.287 251.63 101.482 251.459 97.6527C251.406 96.8284 251.387 96.055 251.348 95.3396C251.37 94.0343 251.329 92.8759 251.192 91.8409C250.955 90.0433 250.479 88.7483 249.788 87.925C248.874 86.8818 246.726 86.5834 243.317 87.0333C242.689 87.116 241.984 87.2368 241.231 87.4193C236.654 88.2727 232.139 89.1734 227.628 90.1012C222.687 91.1412 217.79 92.0922 212.879 92.9343C210.606 93.3728 209.141 94.2589 208.543 95.6126C207.944 96.9662 207.685 98.58 207.82 100.446C207.755 102.478 207.71 104.451 207.634 106.401C207.488 110.771 207.452 115.126 207.497 119.471C207.661 123.661 207.883 127.872 208.183 132.044C208.408 135.645 208.578 139.252 208.725 142.891C208.746 143.47 208.556 144.132 208.209 144.871C207.862 145.609 207.449 146.052 207.03 146.246L205.528 146.638C202.086 147.674 198.58 148.442 195.007 148.913C193.861 149.064 192.658 149.195 191.447 149.272C190.867 149.293 190.135 149.002 189.278 148.394C188.421 147.787 187.666 147.111 187.06 146.304C186.427 145.501 186.081 144.771 185.988 144.062C185.06 133.655 184.32 123.195 183.712 112.689C183.286 106.511 182.857 100.305 182.42 94.0442C182.119 90.7033 181.732 87.3459 181.287 83.9685C180.773 80.0736 180.396 76.1607 180.129 72.2334C179.914 66.6087 179.84 60.9932 179.964 55.4069C179.973 53.5769 180.016 51.7977 180.035 50.0494C180.053 43.8676 180.156 37.7022 180.31 31.5024C179.967 25.9501 182.628 22.3566 188.265 20.6984C189.896 20.2337 191.482 19.6365 192.996 18.9102C194.591 18.1732 195.939 17.6628 197.035 17.3518C198.132 17.0408 198.967 16.8475 199.54 16.772C200.74 16.6136 202.019 16.6387 203.351 16.8509C205.952 17.4222 207.969 18.6246 209.373 20.4345C210.78 22.2717 211.612 24.1572 211.874 26.1455C211.949 26.7174 212.001 27.3203 212.005 27.9847C211.472 38.2527 211 48.568 210.62 58.9541C210.457 63.1877 210.273 67.4794 210.066 71.8019L210.063 71.7747Z"/>
    <path d="M123.015 87.6871C123.325 89.7544 123.613 91.8217 123.879 93.8671C124.389 98.6615 125.098 103.412 125.984 108.096C127.447 113.661 131.17 117.136 137.197 118.543C139.524 119.313 141.851 119.709 144.134 119.709C147.347 119.709 150.516 118.939 153.641 117.399C157.164 115.64 160.865 114.672 164.699 114.452H165.098C166.56 114.452 168.067 114.738 169.619 115.31C171.325 115.882 172.389 116.63 172.81 117.553C173.12 118.543 173.275 119.599 173.275 120.72C173.275 121.336 173.231 121.996 173.12 122.656C172.854 124.569 172.322 126.241 171.48 127.692C168.932 131.563 165.829 134.158 162.173 135.456C158.516 136.753 155.281 137.435 152.466 137.435C150.649 137.435 148.832 137.237 147.015 136.819C143.735 136.093 140.477 135.456 137.197 134.884C133.186 134.158 129.197 133.322 125.209 132.333C114.97 128.99 108.078 122.392 104.488 112.539C100.655 103.412 98.7266 94.3509 98.7266 85.3118C98.7266 74.9092 101.275 64.5726 106.372 54.3019C109.342 48.7817 112.666 43.4594 116.344 38.2911C117.74 36.2237 119.114 34.1564 120.466 32.1111C123.059 28.3943 126.494 26.5469 130.749 26.5469C131.635 26.5469 132.522 26.6348 133.408 26.7888C141.519 28.1743 148.854 31.1874 155.458 35.8279C156.433 36.4437 157.319 37.3014 158.117 38.379C158.915 39.4567 159.358 40.5783 159.513 41.7C159.624 42.4697 159.668 43.2175 159.668 43.9432C159.668 46.5164 158.915 48.4738 157.408 49.8153C156.366 50.739 155.015 51.2009 153.353 51.2009C151.956 51.2009 150.339 50.871 148.522 50.1892C146.239 49.3755 144.245 48.9576 142.516 48.9576C140.699 48.9576 139.192 49.4195 137.995 50.3432C135.668 52.0366 133.718 54.3459 132.145 57.2269L130.438 59.8661C128.466 62.9671 126.804 67.3656 125.452 73.0838C124.101 78.8019 123.303 83.6844 123.037 87.6871H123.015Z"/>
    <path d="M40.9881 45.618C41.8959 48.3103 43.2439 50.5906 45.0595 52.3763C46.875 54.1895 48.7731 55.8104 50.7538 57.294C52.1842 58.338 53.5597 59.4094 54.9076 60.5907C60.2718 65.426 65.8011 70.0964 71.5505 74.6019L72.5133 75.3712C73.146 75.9481 73.8887 76.4426 74.6865 76.8272C75.4842 77.2118 76.2545 77.4042 76.9697 77.4042H77.2723C78.3176 77.2668 79.3079 77.2118 80.2707 77.2118C85.8825 77.2118 88.6885 79.8218 88.6885 85.0416C88.6885 86.1405 88.5509 87.3219 88.3033 88.6131C86.2402 99.3825 83.9844 110.124 81.5362 120.866C81.096 122.405 80.2983 123.916 79.2254 125.399L78.2626 126.938C77.6849 127.982 77.1072 129.026 76.5295 130.125C75.2366 132.817 73.6961 135.317 71.8806 137.57C69.3773 140.345 66.5163 142.185 63.3253 143.119C60.1343 144.053 56.8057 144.685 53.3121 145.015C51.8816 145.152 50.4787 145.345 49.0482 145.592C47.5628 145.784 46.0773 145.894 44.5918 145.894C40.9881 145.894 37.5771 145.262 34.331 143.971C29.8196 142.158 25.4732 139.905 21.2643 137.213C19.9714 136.443 18.706 135.702 17.4956 134.987C10.3983 130.619 5.77685 125.18 3.63116 118.723C1.45797 112.24 0.247579 105.344 0 98.0088C0 97.4319 0.165053 96.8275 0.495159 96.2231C0.825265 95.6187 1.21039 95.1516 1.65053 94.822C5.63931 92.1846 9.84816 90.8659 14.2221 90.8659C16.2852 90.8659 18.4034 91.1681 20.6041 91.745C23.7676 92.7066 26.0784 94.4373 27.5088 96.9099C28.9668 99.3825 30.1222 102.075 31.03 104.987C31.6076 106.8 31.9928 108.586 32.1853 110.399C32.4329 112.212 32.8455 113.971 33.3957 115.701C33.9459 117.432 34.8812 119.081 36.2566 120.619C39.6677 124.603 43.739 126.608 48.443 126.608C48.8832 126.608 49.3783 126.581 49.901 126.498C56.0355 125.399 59.7217 121.636 61.0146 115.207C62.3075 110.646 64.0405 106.251 66.2412 102.075C67.0115 100.399 67.3966 98.833 67.3966 97.3495C67.3966 94.4648 65.9111 91.9923 62.9402 90.0142C61.8398 89.245 60.8495 88.4208 59.9417 87.5142C58.8414 86.4153 57.6585 85.4812 56.3656 84.7119C50.1211 81.3053 43.739 78.036 37.2194 74.9591C27.0412 70.0139 18.7885 63.0084 12.4615 53.9972C9.82065 49.4367 8.50023 45.0685 8.50023 40.9476C8.50023 34.4365 11.8013 28.4474 18.3759 22.9803C23.465 18.722 28.9668 15.1231 34.9087 12.156C41.3458 8.99662 46.875 7.43066 51.4415 7.43066C52.5419 7.43066 53.6147 7.54056 54.6325 7.73287C59.7217 8.69442 64.9483 11.5241 70.3126 16.222C73.8612 19.1066 77.4648 21.8814 81.151 24.5188C81.3986 24.7111 81.7012 24.9034 82.0313 25.0957C84.232 26.8265 85.8 28.8046 86.7628 31.0299C87.7256 33.2552 88.2208 35.1783 88.2208 36.7717C88.2208 37.5959 88.1108 38.4201 87.9182 39.1893C87.203 41.8817 85.8825 44.0795 83.9019 45.7554C81.9488 47.4312 79.6656 48.2554 77.0797 48.2554H76.1994C73.9437 48.0081 71.6605 47.3213 69.3222 46.2224C67.0115 45.1235 65.0859 43.7498 63.6279 42.074C61.6198 40.0135 60.0793 38.9421 58.9789 38.8871C57.8786 38.8322 57.1633 38.7772 56.8607 38.7772C55.1827 38.7772 53.4772 39.1069 51.7441 39.7388C49.1583 40.7004 46.6825 41.9916 44.2892 43.6125C43.1889 44.3268 42.0885 44.9861 40.9881 45.6455V45.618Z"/>
</svg>
