<svg width="688" height="150" viewBox="0 0 688 150" xmlns="http://www.w3.org/2000/svg">
    <g fill="#32468a">
        <path d="M667.431 145.426C664.496 145.671 662.35 145.698 660.964 145.48C659.578 145.262 658.6 144.718 657.975 143.764C657.377 142.839 656.969 141.477 656.806 139.734C656.643 137.991 656.372 135.758 655.964 133.089C655.719 131.945 655.502 130.774 655.285 129.603C655.067 128.432 654.904 127.316 654.741 126.254H654.143C653.817 126.254 653.056 126.362 651.834 126.553C650.611 126.771 649.306 126.989 647.948 127.234C646.589 127.479 645.312 127.697 644.171 127.915C643.029 128.133 642.432 128.269 642.35 128.35C642.024 128.35 641.426 128.405 640.584 128.541C639.741 128.677 639.089 128.732 638.682 128.732C635.421 128.732 631.888 128.242 628.084 127.261C624.28 126.281 620.965 124.728 618.22 122.632C617.813 122.386 617.296 121.951 616.644 121.352C615.992 120.752 615.313 120.126 614.633 119.527C613.954 118.928 613.248 118.438 612.568 118.056C611.889 117.675 611.291 117.593 610.802 117.757C607.786 115.224 605.313 112.256 603.356 108.852C601.4 105.447 599.851 101.798 598.656 97.9311C597.487 94.064 596.645 90.1152 596.156 86.0847C595.666 82.0542 595.422 78.2143 595.422 74.5378C595.422 70.3167 595.694 66.2589 596.21 62.3918C596.726 58.5247 597.786 54.5487 599.308 50.4909C600.367 47.7132 601.835 44.772 603.683 41.6402C605.557 38.5084 607.731 35.4038 610.258 32.3537C612.786 29.3036 615.53 26.3624 618.492 23.5574C621.454 20.7524 624.524 18.2741 627.704 16.0955C630.883 13.9441 634.089 12.2284 637.377 10.9757C640.665 9.72293 643.845 9.06934 646.942 9.06934C648.654 9.06934 650.203 9.42337 651.643 10.1587C653.084 10.894 654.306 11.6837 655.366 12.5279C656.426 13.3722 657.241 14.1619 657.812 14.8428C658.382 15.5236 658.708 15.8776 658.79 15.8776H659.035C659.198 15.8776 659.469 15.7959 659.877 15.6325C660.284 15.4691 660.529 15.3602 660.611 15.2785V15.8776L658.545 17.1031C658.545 19.5541 658.192 21.4332 657.458 22.7948C656.725 24.1565 655.774 25.2458 654.605 26.09C653.437 26.9343 652.078 27.6696 650.584 28.2959C649.089 28.9223 647.513 29.7121 645.883 30.6652C643.845 32.0541 641.752 33.7698 639.606 35.785C637.459 37.8275 635.394 40.0606 633.464 42.5116C631.535 44.9626 629.742 47.4681 628.166 50.028C626.59 52.5879 625.312 55.0116 624.334 57.2992C624.334 57.5443 624.226 58.0073 624.035 58.7153C623.845 59.3962 623.601 60.1587 623.356 60.9757C623.111 61.7927 622.894 62.5552 622.677 63.2361C622.486 63.9169 622.323 64.4343 622.242 64.7611C622.079 65.1696 622.025 65.4964 622.052 65.7415C622.079 65.9866 622.106 66.2045 622.106 66.4223C622.106 66.6402 622.106 66.8308 622.052 67.0215C622.025 67.2393 621.861 67.4844 621.617 67.8112V72.0868C621.617 78.187 622.215 83.7971 623.383 88.8897C624.552 93.9823 626.807 99.1293 630.149 104.331C631.291 106.21 632.595 107.735 634.117 108.906C635.611 110.077 637.54 110.676 639.905 110.676C641.209 110.676 642.296 110.513 643.192 110.186C644.089 109.859 644.932 109.451 645.692 108.96C646.453 108.47 647.268 107.98 648.056 107.49C648.845 107 649.796 106.591 650.855 106.264C650.937 106.101 651.29 106.074 651.942 106.155C652.594 106.237 652.948 106.264 653.029 106.264C653.763 106.101 654.279 105.665 654.551 104.93C654.823 104.195 655.04 103.378 655.149 102.479C655.257 101.58 655.312 100.736 655.257 99.9191C655.23 99.1021 655.203 98.5302 655.203 98.2034C655.366 95.7524 655.692 93.2742 656.181 90.7415C656.67 88.2088 657.16 85.894 657.649 83.7698C657.649 83.6064 657.567 83.4975 657.404 83.4158C657.241 83.3341 657.078 83.2252 656.915 83.0618H656.67C655.692 83.0618 654.741 83.1707 653.817 83.4158C652.893 83.6609 651.969 83.9332 651.073 84.26C650.176 84.5868 649.252 84.8592 648.328 85.1043C647.404 85.3494 646.399 85.4583 645.339 85.4583H642.16C641.426 85.4583 640.747 85.4311 640.095 85.3494C639.443 85.2677 638.953 85.1587 638.627 84.9953C638.546 84.9136 638.301 84.6958 637.894 84.3145C637.486 83.9332 637.051 83.5247 636.562 83.0345C636.073 82.5443 635.638 82.1086 635.285 81.7001C634.932 81.2916 634.742 81.0465 634.742 80.9648C633.845 80.3112 633.003 79.6304 632.242 78.9496C631.481 78.2687 630.747 77.5334 630.122 76.8254C630.204 76.8254 630.394 76.5531 630.72 75.9812C631.046 75.4093 631.399 74.7829 631.807 74.0748C632.214 73.394 632.622 72.7132 633.03 72.0596C633.437 71.406 633.763 70.9703 634.008 70.7252C636.698 70.0716 639.307 69.4452 641.861 68.8188C644.415 68.1925 646.997 67.6206 649.605 67.0487C652.785 66.4768 655.991 66.0411 659.279 65.7143C662.567 65.3875 665.828 64.7883 669.089 63.8896H680.909C681.48 63.8896 681.887 63.9986 682.132 64.2437C683.355 64.8973 684.333 65.4964 685.067 66.0138C685.8 66.5313 686.398 67.1032 686.833 67.7295C687.268 68.3559 687.594 69.0639 687.757 69.9354C687.92 70.8069 688.001 71.9234 688.001 73.2851C688.001 76.2263 687.729 79.2491 687.159 82.381C686.588 85.5128 685.963 88.6718 685.257 91.8581C684.55 95.0444 683.898 98.2034 683.246 101.39C682.594 104.576 682.24 107.653 682.159 110.676V127.533C681.996 130.148 681.914 132.98 681.914 136.085C681.914 139.189 681.588 142.022 680.936 144.636C680.773 145.126 680.529 145.562 680.202 145.916C679.876 146.27 679.523 146.597 679.116 146.896C678.708 147.169 678.328 147.495 677.947 147.877C677.567 148.258 677.268 148.666 677.023 149.157C677.023 148.748 676.915 148.53 676.724 148.476C676.534 148.421 676.262 148.421 675.936 148.421H675.338C675.338 148.585 675.148 148.748 674.795 148.912C674.442 149.075 674.197 149.157 674.116 149.157L673.871 148.912C673.708 148.748 673.627 148.585 673.627 148.421L673.137 147.577C672.974 147.414 672.866 147.414 672.784 147.577C672.703 147.74 672.594 147.822 672.431 147.822V148.803C672.186 148.803 671.887 148.748 671.507 148.694C671.154 148.612 670.882 148.367 670.719 147.958C670.719 148.122 670.665 148.394 670.529 148.803C670.42 149.211 670.339 149.483 670.339 149.647L670.094 149.892C670.094 149.892 669.931 150.001 669.849 150.001L669.496 149.647C669.496 147.931 668.817 146.542 667.431 145.507V145.426ZM654.143 123.312C653.899 123.312 653.79 123.476 653.79 123.803C653.79 124.129 653.899 124.293 654.143 124.293C654.469 124.293 654.632 124.129 654.632 123.803C654.632 123.476 654.469 123.312 654.143 123.312ZM667.92 143.955C667.676 143.955 667.567 144.146 667.567 144.5C667.567 144.854 667.676 145.044 667.92 145.044C668.083 145.044 668.165 144.854 668.165 144.5C668.165 144.146 668.083 143.955 667.92 143.955ZM671.942 145.044C671.534 145.044 671.344 145.235 671.344 145.644C671.344 146.052 671.534 146.243 671.942 146.243C672.186 146.243 672.295 146.025 672.295 145.644C672.295 145.262 672.186 145.044 671.942 145.044ZM675.366 146.624C675.121 146.624 675.012 146.815 675.012 147.223C675.012 147.632 675.121 147.822 675.366 147.822C675.692 147.822 675.855 147.604 675.855 147.223C675.855 146.842 675.692 146.624 675.366 146.624Z"/>
        <path d="M521.37 80.8818C520.826 83.7958 520.283 86.4374 519.848 89.079C518.354 98.42 516.941 107.788 515.446 117.129C515.256 118.382 515.093 120.125 514.25 120.669C512.702 121.704 510.582 122.712 508.897 122.467C506.615 122.167 506.099 123.338 505.365 124.7C505.012 125.354 504.821 126.062 504.495 126.742C503.436 129.057 501.968 130.773 499.305 128.077C497.648 126.416 495.582 125.027 493.49 123.883C488.219 120.969 488.843 116.149 489.659 111.683C491.697 100.435 494.088 89.2969 494.332 77.75C494.523 68.1095 495.881 58.4689 496.832 48.8284C497.919 37.5539 500.963 26.7423 505.12 16.2031C506.126 13.6704 507.647 11.165 509.495 9.20419C510.392 8.25103 512.946 7.86977 514.278 8.3872C520.446 10.7837 525.228 15.1955 529.359 20.1519C532.076 23.4199 531.913 27.8317 530.908 31.3992C529.549 36.2739 530.717 40.7946 531.288 45.3426C532.674 56.2086 536.831 66.2032 542.103 75.7892C542.402 76.3339 542.864 76.8241 543.57 77.75C544.467 75.4624 545.038 73.3655 546.043 71.4864C548.679 66.5572 550.174 61.4646 549.766 55.7729C549.576 53.0768 550.309 50.299 550.88 47.6029C551.614 44.1988 553.434 41.5844 556.858 40.0593C557.972 39.5691 558.923 38.1803 559.412 37.0092C561.912 30.9362 562.592 24.5365 563.108 18.055C563.516 12.6628 565.554 8.25103 571.151 6.09961C575.445 4.46562 580.2 5.66388 582.428 9.61269C585.58 15.1955 588.732 20.8327 589.683 27.2598C590.444 32.4885 589.52 37.6356 587.673 42.5103C585.173 49.1824 582.129 55.6367 579.493 62.2544C577.51 67.238 575.744 72.3034 574.032 77.396C572.483 81.9984 570.798 86.628 569.847 91.3666C568.624 97.494 568.189 103.785 567.13 109.94C566.532 113.371 565.391 116.748 564.304 120.07C563.923 121.269 563.217 122.63 562.238 123.284C559.983 124.782 557.755 126.034 556.505 128.676C556.179 129.357 553.57 129.656 552.51 129.166C548.516 127.287 545.038 124.727 542.945 120.615C542.13 118.981 540.826 117.565 539.549 116.23C537.973 114.596 537.348 112.854 537.592 110.566C538.109 105.8 535.418 102.151 533.027 98.3655C529.495 92.7827 526.071 87.1727 522.593 81.5627C522.457 81.3448 522.158 81.2631 521.37 80.7729V80.8818Z"/>
        <path d="M417.843 19.908C418.088 21.079 418.278 22.2773 418.468 23.5027C419.338 29.2217 420.18 34.9407 420.995 40.6869C421.05 40.9864 421.077 41.2588 421.077 41.5583C421.077 41.8579 421.05 42.103 420.995 42.3481C419.827 46.3241 419.256 50.3546 419.256 54.4396C419.256 56.2642 419.365 58.0616 419.61 59.8862C419.773 61.8742 419.881 63.8895 419.881 65.932C419.881 67.566 419.827 69.2272 419.718 70.9156C419.664 71.4331 419.637 71.9505 419.637 72.4135C419.637 74.6466 419.963 76.8525 420.588 79.0856C420.642 79.4941 420.724 79.9298 420.859 80.3928L421.213 82.1357C422.137 87.4462 423.332 92.6749 424.8 97.822C425.262 99.5649 425.887 101.308 426.647 102.996C427.408 104.685 428.414 105.91 429.718 106.673C430.071 106.836 430.479 106.945 430.941 106.945C431.756 106.945 432.68 106.673 433.74 106.155C435.424 105.393 436.973 104.549 438.386 103.623C442.517 100.818 445.343 97.3318 446.864 93.1924C448.386 89.0529 449.5 84.6956 450.179 80.1477C450.288 79.7392 450.397 79.3035 450.451 78.8405C450.913 76.1989 451.402 73.5845 451.946 70.9429C453.114 64.2708 454.364 57.6531 455.696 51.0627L456.565 47.0322C458.304 40.7686 459.201 34.4232 459.201 27.9145C459.201 24.9461 459.038 21.9505 458.685 18.982V18.9003C458.277 16.9668 458.06 15.006 458.06 13.018V11.6291C458.168 9.12364 459.418 7.02669 461.81 5.311C464.445 3.62255 467.054 2.77832 469.69 2.77832C472.326 2.77832 474.826 3.54085 477.38 5.0659C478.086 5.52887 478.711 6.128 479.309 6.86329C479.88 7.59859 480.287 8.36111 480.532 9.17811C481.184 12.0376 481.483 14.8698 481.483 17.6748C481.483 23.6389 480.016 29.4396 477.108 35.1041C475.641 38.7805 474.826 42.7566 474.663 47.0322C474.499 48.6662 474.282 50.2729 474.038 51.8524C473.793 53.6771 473.603 55.4472 473.413 57.1901C473.25 59.4233 472.951 61.6019 472.543 63.7533L472.38 64.8154C471.103 72.5769 469.527 80.2566 467.652 87.8547C466.728 91.5856 465.125 95.017 462.842 98.0943C462.38 98.7479 461.891 99.4015 461.348 100.11C456.049 107.708 450.288 114.924 444.12 121.76C439.283 126.199 434.283 128.432 429.174 128.432C424.066 128.432 418.767 126.144 413.36 121.597C407.925 116.64 404.202 111.057 402.164 104.903C400.126 98.7479 398.659 92.3754 397.789 85.8394C397.681 85.1313 397.545 84.4777 397.436 83.8242C396.621 77.4516 396.213 71.079 396.213 64.7065C396.213 57.871 396.675 51.0354 397.599 44.1999C397.653 42.9744 397.681 41.7489 397.681 40.5235C397.681 35.5126 397.219 30.4744 396.295 25.4635C395.942 23.2304 395.615 21.0245 395.344 18.7914V18.0016C395.344 16.6672 395.588 15.1422 396.05 13.4537C396.621 11.4112 397.409 9.50491 398.36 7.70752C399.311 5.93736 400.316 4.76634 401.376 4.24891C403.007 3.59531 404.746 3.29575 406.621 3.29575C407.843 3.29575 409.148 3.43192 410.561 3.73148C414.012 4.43954 416.376 5.8829 417.735 8.11602C418.794 10.5125 419.338 13.1541 419.392 16.0136C419.501 17.2391 419.664 18.4374 419.827 19.6084L417.898 19.9624L417.843 19.908Z"/>
        <path d="M308.769 110.485C308.769 109.722 308.932 108.851 309.231 107.925C309.53 106.999 309.937 106.073 310.399 105.147C310.861 104.221 311.35 103.295 311.839 102.424C312.328 101.525 312.79 100.735 313.171 100.054C313.796 98.8835 314.557 97.3584 315.481 95.4521C316.404 93.5458 317.41 91.476 318.497 89.1885C319.584 86.9009 320.698 84.5316 321.866 82.0534C323.035 79.5752 324.176 77.2059 325.29 74.9183C326.404 72.6307 327.464 70.561 328.415 68.7091C329.366 66.8573 330.208 65.3322 330.915 64.1884C331.757 62.8812 333.062 60.866 334.801 58.1971C336.54 55.5283 338.279 52.7233 340.018 49.8366C341.757 46.9499 343.252 44.1721 344.529 41.5849C345.806 38.9978 346.431 37.0642 346.431 35.8387C346.431 35.6753 346.404 35.4847 346.322 35.2668C346.241 35.049 346.213 34.8311 346.213 34.6949C345.127 34.3137 343.849 34.1503 342.328 34.232C340.833 34.3137 339.529 34.3409 338.442 34.3409C336.187 34.3409 333.986 34.4771 331.784 34.7494C329.583 35.0217 327.382 35.3213 325.181 35.6753C322.98 36.0294 320.779 36.3289 318.578 36.6013C316.377 36.8736 314.203 37.0098 312.03 37.0098C311.187 37.0098 310.209 36.7919 309.122 36.3834C308.035 35.9477 307.492 35.1579 307.492 34.0141L308.198 34.3681C308.198 34.3681 308.443 34.4226 308.714 34.5315C308.986 34.6405 309.149 34.6949 309.231 34.6949H309.937C309.937 34.6949 310.1 34.6677 310.182 34.586L310.426 34.3409C310.182 34.5043 309.856 34.3409 309.394 33.8779C309.149 33.6328 308.959 33.415 308.823 33.1699C308.361 32.8703 308.035 32.6797 307.845 32.6525C307.655 32.6252 307.492 32.598 307.383 32.598C307.274 32.598 307.138 32.6252 306.975 32.7069C306.812 32.7886 306.595 32.7886 306.269 32.7069C305.345 32.5435 304.285 32.135 303.144 31.427C302.003 30.7189 300.888 29.9564 299.829 29.1121C298.796 28.2679 297.927 27.342 297.22 26.3888C296.514 25.4084 296.188 24.5914 296.188 23.8834C296.188 22.1677 296.758 20.6971 297.927 19.4171C299.095 18.1372 300.318 17.1568 301.649 16.4487C301.948 16.367 302.41 16.2581 303.035 16.0947C303.66 15.9313 304.312 15.7951 305.019 15.6862C305.725 15.5773 306.377 15.4683 307.002 15.3866C307.627 15.3049 308.035 15.2777 308.28 15.2777C310.752 15.0326 313.279 14.8964 315.807 14.8147C318.361 14.733 320.861 14.5152 323.334 14.1067C323.578 14.1067 324.067 14.0522 324.828 13.9433C325.589 13.8344 326.431 13.6982 327.328 13.5348C328.225 13.3714 329.013 13.2352 329.692 13.1263C330.371 13.0174 330.806 12.9629 330.969 12.9629H333.17C334.42 12.9629 336.268 13.0718 338.741 13.2625C341.214 13.4531 343.985 13.7799 347.029 14.1884C350.072 14.6241 353.224 15.1688 356.431 15.8224C359.637 16.476 362.545 17.2657 365.126 18.1372C367.708 19.0359 369.854 20.0435 371.566 21.2145C373.278 22.3856 374.12 23.6927 374.12 25.1633C374.12 26.4161 373.822 27.6143 373.197 28.7581V26.5522C372.816 27.3965 372.599 28.1045 372.572 28.6492C372.544 29.1938 372.517 29.8474 372.517 30.6372V32.7342L372.762 33.1971C372.843 33.3605 372.925 33.4967 373.006 33.6056C373.088 33.7145 373.115 33.8235 373.115 33.9052L372.544 34.3681C372.001 35.2124 371.566 36.1383 371.267 37.1459C370.968 38.1535 370.697 39.1884 370.452 40.2233L369.746 43.3551C369.501 44.3899 369.175 45.3976 368.713 46.3235C368.55 46.4869 368.36 46.7592 368.142 47.1405C367.898 47.5217 367.708 47.7941 367.572 47.9575C367.49 48.1209 367.3 48.5021 367.001 49.1285C366.702 49.7549 366.376 50.4357 366.023 51.171C365.67 51.9063 365.343 52.6143 365.045 53.2679C364.746 53.9215 364.555 54.33 364.474 54.4934C364.229 54.8747 363.849 55.3104 363.251 55.7734C362.653 56.2364 362.354 56.5087 362.273 56.5904C361.186 58.1427 360.344 59.8039 359.719 61.6013C359.094 63.3714 358.251 65.0599 357.164 66.6122L337.681 104.63L337.219 106.127H338.85C340.616 106.127 342.464 105.882 344.366 105.365C346.268 104.875 347.871 104.602 349.175 104.602C349.338 104.602 349.474 104.711 349.637 104.956C349.8 105.202 349.936 105.31 350.099 105.31C350.806 105.31 352.137 105.202 354.148 104.956C356.159 104.711 358.333 104.466 360.643 104.194C362.952 103.922 365.126 103.649 367.137 103.377C369.148 103.105 370.506 102.941 371.186 102.86L371.539 103.568C371.376 103.867 371.24 104.031 371.077 104.031H370.669C370.669 104.031 370.425 104.085 370.316 104.194C370.208 104.303 370.099 104.63 370.017 105.174H371.186C371.186 105.637 371.023 105.937 370.724 106.1H372.707C372.707 105.801 372.735 105.61 372.816 105.528C372.898 105.447 372.735 105.338 372.354 105.174C373.115 104.63 373.713 104.357 374.093 104.357C374.093 105.528 373.93 106.4 373.631 106.972C373.332 107.544 372.626 108.007 371.539 108.306C371.457 108.388 371.24 108.47 370.832 108.606C370.425 108.742 370.262 108.824 370.262 108.905V112.146C370.017 112.146 369.637 112.228 369.039 112.391C368.468 112.554 368.088 112.854 367.925 113.317H368.631C369.936 113.317 371.213 112.99 372.409 112.337C373.604 111.683 374.827 111.356 376.05 111.356C376.05 111.737 375.941 112.064 375.696 112.337C375.452 112.609 375.207 112.854 374.881 113.099C374.555 113.344 374.283 113.589 374.012 113.862C373.74 114.134 373.577 114.461 373.495 114.842H373.849V115.305C373.686 115.468 373.251 115.686 372.517 116.013C371.784 116.313 371.349 116.667 371.186 117.048L363.061 120.289C362.898 120.289 362.354 120.289 361.376 120.343C360.398 120.37 359.257 120.479 357.898 120.643C356.539 120.806 355.072 120.997 353.496 121.215C351.92 121.432 350.453 121.732 349.148 122.032C347.844 122.331 346.703 122.658 345.779 122.958C344.855 123.257 344.339 123.611 344.284 123.992C344.284 123.747 344.121 123.638 343.768 123.584C343.415 123.557 343.143 123.529 342.898 123.529C340.888 123.529 338.85 123.829 336.757 124.455C334.665 125.082 332.518 125.3 330.263 125.163C327.953 125.082 325.535 124.809 323.008 124.346C320.48 123.883 318.198 123.121 316.106 122.032C314.013 120.942 312.301 119.472 310.943 117.62C309.584 115.768 308.905 113.426 308.905 110.648L308.769 110.485ZM339.257 32.6252C339.013 32.6252 338.904 32.8158 338.904 33.1971C338.904 33.5784 339.013 33.769 339.257 33.769C339.556 33.769 339.719 33.5784 339.719 33.1971C339.719 32.8158 339.556 32.6252 339.257 32.6252ZM348.523 36.9281C348.279 36.9281 348.17 37.1187 348.17 37.5C348.17 37.8812 348.279 38.0718 348.523 38.0718C348.686 38.0718 348.768 37.8812 348.768 37.5C348.768 37.1187 348.686 36.9281 348.523 36.9281ZM364.42 113.508C364.257 113.508 364.175 113.698 364.175 114.08C364.175 114.461 364.257 114.651 364.42 114.651C364.664 114.651 364.773 114.461 364.773 114.08C364.773 113.698 364.664 113.508 364.42 113.508ZM366.05 113.154C365.805 113.154 365.697 113.344 365.697 113.726C365.697 114.107 365.805 114.297 366.05 114.297C366.349 114.297 366.512 114.107 366.512 113.726C366.512 113.344 366.349 113.154 366.05 113.154ZM366.621 116.885C366.322 116.885 366.159 117.048 366.159 117.402C366.159 117.756 366.322 117.919 366.621 117.919C366.92 117.919 367.083 117.756 367.083 117.402C367.083 117.048 366.92 116.885 366.621 116.885ZM367.789 105.392C367.49 105.392 367.327 105.583 367.327 105.964C367.327 106.345 367.49 106.536 367.789 106.536C368.034 106.536 368.142 106.345 368.142 105.964C368.142 105.583 368.034 105.392 367.789 105.392ZM368.251 116.313C368.006 116.313 367.898 116.503 367.898 116.885C367.898 117.266 368.006 117.456 368.251 117.456C368.496 117.456 368.604 117.266 368.604 116.885C368.604 116.503 368.496 116.313 368.251 116.313ZM369.419 115.85C369.039 115.85 368.849 116.013 368.849 116.367C368.849 116.721 369.039 116.885 369.419 116.885C369.664 116.885 369.773 116.721 369.773 116.367C369.773 116.013 369.664 115.85 369.419 115.85ZM371.05 115.142C370.805 115.142 370.697 115.332 370.697 115.714C370.697 116.095 370.805 116.285 371.05 116.285C371.213 116.285 371.294 116.095 371.294 115.714C371.294 115.332 371.213 115.142 371.05 115.142ZM372.218 113.508C371.974 113.508 371.865 113.644 371.865 113.916C371.865 114.188 371.974 114.325 372.218 114.325C372.381 113.78 372.381 113.508 372.218 113.508Z"/>
        <path d="M244.935 22.6035C235.723 21.3236 226.946 20.4521 218.332 18.7364C213.93 17.8649 209.936 15.0599 205.534 13.9161C201.757 12.9357 201.811 9.64053 200.452 7.21678C200.208 6.75382 201.485 4.71133 202.382 4.46624C205.072 3.67647 207.952 3.51308 210.67 2.85948C211.865 2.58715 212.952 1.68846 214.066 1.08933C213.903 0.735295 213.767 0.354031 213.604 0C220.615 0.490197 227.626 1.14379 234.664 1.41612C240.913 1.66122 247.19 1.55229 253.467 1.41612C258.168 1.33442 263.005 1.52506 267.57 0.626362C274.934 -0.844228 281.592 1.87909 288.521 3.05011C293.657 3.92157 294.907 5.0109 299.363 10.158C294.01 12.6089 288.901 15.305 283.521 17.2658C279.336 18.7909 274.771 19.3083 270.396 20.3704C268.304 20.8878 266.81 21.6231 266.375 24.4009C264.5 36.3562 262.353 48.2844 260.098 60.1853C257.571 73.475 259.554 86.4925 261.402 99.6461C262.516 107.544 261.891 115.686 262.462 123.693C262.652 126.389 264.282 128.949 264.907 131.645C265.342 133.442 265.831 135.676 265.152 137.201C264.445 138.698 262.38 140.332 260.777 140.469C258.413 140.686 255.913 139.652 253.495 139.189C250.94 138.698 248.332 137.664 245.832 137.881C239.392 138.426 237.408 135.24 238.495 128.922C240.234 118.791 240.723 108.687 240.56 98.4751C240.397 87.6635 239.582 76.7975 240.288 66.0404C241.158 52.5872 243.305 39.243 244.881 25.8443C245.017 24.6732 244.881 23.4477 244.881 22.6035H244.935Z"/>
        <path d="M130.621 123.693C128.99 123.393 127.74 122.713 126.871 121.705C126.001 120.697 125.295 119.581 124.751 118.41C124.208 117.239 123.664 116.095 123.121 114.951C122.577 113.807 121.789 112.936 120.784 112.31C119.452 109.014 118.338 104.766 117.442 99.51C116.545 94.254 115.811 88.7801 115.268 83.0612C114.724 77.3422 114.344 71.7867 114.099 66.3945C113.855 61.0023 113.746 56.5361 113.746 53.023C113.746 48.0938 113.909 43.4642 114.208 39.1069C114.507 34.7496 115.213 30.011 116.328 24.8367C116.708 22.8759 117.251 21.0785 117.904 19.4446C118.556 17.8106 119.425 16.34 120.485 15.0873C121.545 13.8345 122.876 12.8541 124.48 12.1461C126.083 11.438 128.039 11.084 130.403 11.084C132.115 11.084 133.8 11.3018 135.43 11.7376C137.061 12.1733 138.528 12.8269 139.778 13.7256C141.028 14.6243 142.033 15.7681 142.767 17.1842C143.501 18.6003 143.881 20.316 143.881 22.3585C143.881 24.401 143.61 26.4162 143.066 28.6494C142.523 30.8825 142.006 33.0067 141.544 35.0491L141.082 35.4032C140.756 36.1112 140.593 36.6287 140.566 36.9282C140.539 37.255 140.539 37.5274 140.566 37.7452C140.593 37.9903 140.648 38.2899 140.675 38.6712C140.702 39.0524 140.729 39.6516 140.729 40.4413C140.485 41.9391 140.294 43.8727 140.131 46.242C139.968 48.6385 139.832 51.2529 139.724 54.1124C139.615 56.9718 139.506 59.9402 139.425 63.0448C139.343 66.1494 139.289 69.145 139.262 72.0318C139.235 74.9185 139.207 77.5873 139.207 80.0111V88.0993C139.289 88.3444 139.452 88.998 139.669 90.0873C139.914 91.1767 140.186 92.4294 140.485 93.791C140.783 95.1527 141.082 96.5416 141.354 97.9577C141.626 99.3738 141.843 100.463 142.006 101.253C142.169 101.879 142.387 102.669 142.658 103.649C142.93 104.63 143.256 105.583 143.664 106.536C144.044 107.462 144.533 108.306 145.077 109.014C145.62 109.722 146.327 110.076 147.196 110.076C148.908 110.076 150.892 109.423 153.175 108.088C155.43 106.754 157.658 105.147 159.859 103.268C162.033 101.389 164.017 99.4011 165.783 97.3314C167.549 95.2616 168.853 93.437 169.696 91.8847C170.321 90.7954 170.81 89.5154 171.163 88.0721C171.516 86.6287 172.114 85.3215 172.984 84.1505C173.527 83.4424 174.044 82.8433 174.506 82.3259C174.967 81.8085 175.348 81.3183 175.62 80.8553C175.891 80.3923 176.109 79.8749 176.272 79.3302C176.435 78.7856 176.516 78.0503 176.516 77.0971C176.516 76.144 176.516 74.7551 176.462 72.876C176.435 70.9969 176.353 68.8727 176.217 66.4762C176.109 64.0797 175.973 61.5742 175.81 58.9598C175.647 56.3455 175.457 53.84 175.212 51.498C174.967 49.1559 174.75 47.0317 174.506 45.1526C174.261 43.2736 173.989 41.8574 173.69 40.9315L173.446 40.6864C173.283 40.523 173.12 40.4413 172.984 40.4413C173.147 38.0176 173.011 35.7844 172.631 33.742C172.25 31.6995 172.033 29.5208 172.033 27.1788C172.033 25.0001 172.902 23.3117 174.614 22.1951C176.326 21.0513 178.201 20.4794 180.239 20.4794C181.408 20.4794 182.685 20.67 184.043 21.0785C185.402 21.4598 186.679 21.6777 187.848 21.6777C187.929 21.6777 188.011 21.596 188.147 21.4326C188.255 21.2692 188.364 21.1875 188.445 21.1875H188.799C189.723 21.1875 190.429 21.6504 190.918 22.5491C191.38 23.4478 191.788 24.2104 192.087 24.8367C192.63 25.4631 193.255 25.7899 193.962 25.8443C194.668 25.8716 195.212 26.2256 195.592 26.852C195.972 27.3966 196.407 29.0579 196.869 31.8356C197.331 34.6134 197.793 37.9903 198.282 41.9391C198.744 45.8879 199.179 50.1635 199.559 54.7387C199.94 59.3139 200.293 63.644 200.619 67.7017C200.918 71.7594 201.163 75.327 201.326 78.3771C201.489 81.4272 201.57 83.4152 201.57 84.3684C201.57 86.8738 201.597 89.461 201.679 92.1298C201.76 94.7987 201.353 97.3041 200.51 99.6462V115.142C200.592 115.305 200.755 115.795 200.972 116.667C201.217 117.538 201.407 118.083 201.57 118.301V119.009C201.407 119.172 201.108 119.445 200.646 119.826C200.184 120.207 199.94 120.48 199.94 120.643C199.614 121.269 199.451 121.787 199.423 122.168C199.396 122.549 199.315 122.876 199.26 123.094C199.179 123.339 199.016 123.475 198.744 123.557C198.472 123.639 197.983 123.666 197.277 123.666V124.837C196.896 124.837 196.298 124.946 195.51 125.191C194.722 125.436 194.424 125.844 194.587 126.471C194.424 126.471 194.206 126.525 193.88 126.634C193.554 126.743 193.337 126.798 193.174 126.798C192.467 126.798 192.032 126.661 191.815 126.389C191.625 126.117 191.299 125.981 190.809 125.981C190.429 125.981 190.184 126.117 190.103 126.389C190.021 126.661 189.831 126.798 189.505 126.798L188.907 126.444C188.907 126.444 188.473 126.307 187.848 126.035C187.223 125.763 186.842 125.627 186.679 125.627C186.516 125.627 186.244 125.681 185.864 125.79C185.484 125.899 185.239 125.953 185.157 125.953H184.342C183.554 125.953 182.766 125.654 181.951 125.027C181.136 124.401 180.375 123.666 179.668 122.794C178.962 121.923 178.391 121.024 177.902 120.098C177.413 119.172 177.114 118.383 176.978 117.756H175.81C175.565 117.92 175.212 118.137 174.75 118.464C174.288 118.791 173.799 119.118 173.283 119.472C172.766 119.826 172.277 120.153 171.761 120.48C171.245 120.806 170.891 120.997 170.647 121.079C169.859 121.46 169.234 121.787 168.772 122.005C168.31 122.222 167.848 122.495 167.413 122.767C166.979 123.039 166.652 123.23 166.408 123.285C165.538 123.666 164.424 124.21 163.066 124.919C161.707 125.627 160.538 125.981 159.615 125.981L159.153 125.627C158.772 125.627 158.31 125.736 157.794 125.926C157.278 126.117 157.033 126.525 157.033 127.152L156.571 126.444L155.865 127.152C154.995 127.233 154.153 127.315 153.283 127.397C152.577 127.478 151.87 127.533 151.164 127.56C150.457 127.587 149.887 127.615 149.397 127.615H140.376C140.376 127.615 139.724 127.478 138.61 127.206C137.523 126.934 136.708 126.689 136.137 126.444C135.756 126.444 135.131 126.307 134.262 126.035C133.392 125.763 132.849 125.627 132.632 125.627C132.468 125.463 132.088 125.245 131.463 124.919C131.137 124.755 130.865 124.619 130.648 124.456V123.639L130.621 123.693ZM168.473 119.472C168.31 119.472 168.229 119.581 168.229 119.771C168.229 119.962 168.31 120.071 168.473 120.071C168.636 119.989 168.718 119.88 168.718 119.717C168.718 119.554 168.636 119.472 168.473 119.472ZM175.728 84.1233C175.484 84.1233 175.375 84.3139 175.375 84.7224C175.375 85.1309 175.484 85.3215 175.728 85.3215C175.891 85.3215 175.973 85.1309 175.973 84.7224C175.973 84.3139 175.891 84.1233 175.728 84.1233ZM196.462 122.277C196.217 122.277 196.108 122.44 196.108 122.794C196.108 123.148 196.217 123.312 196.462 123.312C196.842 123.312 197.059 123.148 197.059 122.794C197.059 122.44 196.869 122.277 196.462 122.277Z"/>
        <path d="M32.2527 78.1592C31.7092 81.0731 31.1658 83.7147 30.731 86.3563C29.2365 95.6973 27.8235 105.066 26.3289 114.406C26.1387 115.659 25.9757 117.402 25.1333 117.947C23.5844 118.982 21.4649 119.989 19.7802 119.744C17.4976 119.445 16.9813 120.616 16.2476 121.977C15.8944 122.631 15.7042 123.339 15.3781 124.02C14.3183 126.335 12.851 128.05 10.188 125.354C8.53043 123.693 6.46527 122.304 4.37292 121.16C-0.898691 118.246 -0.273705 113.426 0.541493 108.96C2.57949 97.7126 4.97074 86.5742 5.21529 75.0274C5.40551 65.3868 6.76417 55.7463 7.71524 46.1058C8.80217 34.8312 11.8456 24.0197 16.0031 13.4805C17.0085 10.9478 18.5302 8.44232 20.378 6.48153C21.2747 5.52837 23.829 5.14711 25.1605 5.66454C31.3288 8.06106 36.1113 12.4728 40.2416 17.4293C42.959 20.6972 42.7959 25.109 41.7905 28.6765C40.4319 33.5513 41.6003 38.072 42.1709 42.6199C43.5568 53.4859 47.7143 63.4805 52.9859 73.0666C53.2848 73.6112 53.7468 74.1014 54.4533 75.0274C55.35 72.7398 55.9206 70.6428 56.926 68.7637C59.5618 63.8345 61.0564 58.7419 60.6488 53.0502C60.4585 50.3541 61.1922 47.5763 61.7629 44.8803C62.4965 41.4761 64.3172 38.8617 67.741 37.3367C68.8551 36.8465 69.8062 35.4576 70.2953 34.2866C72.7952 28.2136 73.4745 21.8138 73.9908 15.3323C74.3984 9.94014 76.4364 5.52837 82.0341 3.37696C86.3275 1.74297 91.0828 2.94123 93.311 6.89003C96.4631 12.4728 99.6152 18.1101 100.566 24.5371C101.327 29.7659 100.403 34.9129 98.5555 39.7877C96.0555 46.4598 93.0121 52.914 90.3763 59.5317C88.3927 64.5154 86.6264 69.5807 84.9145 74.6733C83.3656 79.2757 81.6809 83.9054 80.7298 88.6439C79.507 94.7714 79.0722 101.062 78.0125 107.217C77.4147 110.648 76.2734 114.025 75.1865 117.348C74.806 118.546 74.0995 119.908 73.1213 120.561C70.8659 122.059 68.6377 123.312 67.3877 125.953C67.0617 126.634 64.453 126.934 63.3933 126.444C59.3988 124.564 55.9206 122.005 53.8283 117.892C53.0131 116.258 51.7088 114.842 50.4316 113.508C48.8556 111.874 48.2306 110.131 48.4751 107.843C48.9914 103.077 46.3013 99.4282 43.91 95.6428C40.3775 90.06 36.9537 84.45 33.4755 78.84C33.3396 78.6221 33.0407 78.5404 32.2527 78.0502V78.1592Z"/>
    </g>
</svg>
