<svg height="150" width="460" viewBox="0 0 460 150" xmlns="http://www.w3.org/2000/svg">
    <g fill="#32468a">
        <path d="M409.752 133.761C404.923 133.761 402.358 133.761 402.056 133.761C401.855 133.661 401.704 133.56 401.604 133.46C401.604 133.359 401.604 133.208 401.604 133.007C401.604 132.805 401.453 132.604 401.151 132.403C400.849 132.202 400.447 132.101 399.944 132.101C399.541 132.101 399.34 132.051 399.34 131.95C399.34 131.849 399.24 131.749 399.038 131.648C398.033 131.145 397.278 130.692 396.775 130.289C396.272 129.887 395.769 129.484 395.266 129.082C394.864 128.578 394.663 128.226 394.663 128.025L393.908 125.912C393.204 124.704 392.852 124.05 392.852 123.949C392.852 123.748 392.751 123.546 392.55 123.345C391.745 122.54 391.293 122.137 391.192 122.137C391.091 122.037 391.041 121.936 391.041 121.836C391.544 120.427 391.796 119.521 391.796 119.118V116.25C391.796 114.237 391.695 112.929 391.494 112.325V112.174H391.645C391.745 112.174 391.796 111.872 391.796 111.268C391.796 109.96 391.695 109.155 391.494 108.853C391.293 108.551 391.192 108.249 391.192 107.947C390.689 104.525 390.438 102.261 390.438 101.154C390.438 100.449 390.538 99.8959 390.739 99.4933L391.041 97.2289L391.343 92.851C391.846 92.0459 392.097 90.9892 392.097 89.6809C392.097 89.077 392.198 88.3222 392.399 87.4164C392.701 85.9068 392.902 83.1895 393.003 79.2645C393.204 76.4466 393.405 74.8364 393.606 74.4338C393.807 73.9306 393.908 72.9745 393.908 71.5655C393.908 70.2572 393.858 69.4521 393.757 69.1502C393.657 68.8482 393.556 68.5966 393.455 68.3954C393.455 67.8921 393.556 67.238 393.757 66.4329C393.958 65.6277 394.16 65.0239 394.361 64.6213C394.663 64.1181 394.864 63.6652 394.964 63.2627C394.763 62.8601 394.663 62.5079 394.663 62.2059C394.763 61.904 394.864 61.4511 394.964 60.8473C395.266 59.3377 395.417 58.13 395.417 57.2242C395.417 56.2178 395.467 55.7146 395.568 55.7146C395.769 55.7146 395.92 55.5133 396.021 55.1108C396.021 53.6012 396.071 52.3431 396.171 51.3367C396.373 50.3303 396.473 49.3743 396.473 48.4685C396.775 46.355 396.926 44.8454 396.926 43.9397C396.926 42.43 397.077 41.2224 397.379 40.3166L397.53 39.5618L397.228 38.656L397.68 37.5993L397.53 35.7878L397.982 33.3724L397.53 32.3157C397.63 32.0137 397.781 31.7621 397.982 31.5608L398.133 30.5041C398.334 29.4977 398.435 28.5416 398.435 27.6359C398.435 26.6294 398.586 25.6734 398.888 24.7676C399.089 24.5663 399.189 24.2141 399.189 23.7109C399.29 23.107 399.34 22.7548 399.34 22.6541C399.441 22.4529 399.541 22.3019 399.642 22.2013C399.843 22 399.994 21.6477 400.095 21.1445C400.095 18.226 400.195 16.666 400.397 16.4647C400.296 16.0622 398.787 15.6596 395.87 15.2571C394.964 15.0558 394.31 14.9048 393.908 14.8042C393.606 14.6029 393.304 14.5022 393.003 14.5022C392.802 14.4016 392.6 14.301 392.399 14.2003C392.299 14.0997 392.248 13.999 392.248 13.8984C392.349 13.7978 392.449 13.7474 392.55 13.7474C392.651 13.7474 392.952 13.5965 393.455 13.2946C393.958 12.892 394.361 12.6907 394.663 12.6907C394.964 12.5901 395.266 12.5398 395.568 12.5398C396.876 12.5398 397.53 12.3385 397.53 11.9359L397.228 11.1811C397.228 10.8792 397.429 10.6276 397.831 10.4263C398.234 10.1244 398.636 9.97341 399.038 9.97341L399.491 10.1244H399.34C399.24 10.225 398.988 10.376 398.586 10.5773C398.284 10.6779 398.033 10.9295 397.831 11.3321C397.831 11.4327 398.183 11.483 398.888 11.483C399.894 11.483 400.397 11.3321 400.397 11.0301L400.095 10.2753C400.095 10.0741 400.246 9.87277 400.547 9.67149C400.95 9.47021 401.151 9.21861 401.151 8.91668L401 8.31284C401 7.40708 401.553 6.95419 402.66 6.95419C402.761 7.05483 402.811 7.15547 402.811 7.25611C402.811 7.35675 403.012 7.40707 403.414 7.40707C403.616 7.30643 403.968 7.25611 404.471 7.25611C405.074 7.15547 405.728 7.05483 406.432 6.95419C409.953 6.85355 412.669 6.70259 414.581 6.50131C417.8 6.30003 419.862 6.04843 420.767 5.7465C421.773 5.44458 422.83 5.29362 423.936 5.29362C424.942 5.29362 425.998 5.39426 427.105 5.59554L429.066 5.7465C429.771 5.7465 430.676 5.64586 431.783 5.44458C433.593 5.14266 435.354 4.9917 437.064 4.9917C438.875 4.9917 440.082 5.14266 440.685 5.44458C441.39 5.7465 441.993 5.89746 442.496 5.89746L442.949 5.7465C443.049 5.7465 443.1 5.84714 443.1 6.04842L442.949 6.95419C442.949 7.15547 443.15 7.25611 443.552 7.25611C444.055 7.25611 444.558 7.45739 445.061 7.85996C445.564 8.16188 445.816 8.4638 445.816 8.76572L445.514 9.21861C445.514 9.31925 445.866 9.36957 446.57 9.36957C448.18 9.36957 449.035 9.57085 449.135 9.97341C449.135 10.1747 448.733 10.376 447.928 10.5773C447.124 10.7785 446.721 11.0301 446.721 11.3321L447.476 12.3888C447.476 12.6907 447.274 12.8417 446.872 12.8417L445.514 12.5398L445.212 12.6907L447.325 13.7474C446.922 13.7474 446.721 13.9487 446.721 14.3513C446.721 14.4519 446.822 14.6029 447.023 14.8042C447.224 15.0054 447.576 15.1061 448.079 15.1061C448.18 15.2067 448.23 15.408 448.23 15.7099C448.23 15.9112 448.331 16.0119 448.532 16.0119C448.733 16.0119 448.834 16.0622 448.834 16.1628C448.331 16.666 447.928 16.9176 447.626 16.9176C447.425 16.9176 447.325 16.817 447.325 16.6157C447.325 16.4144 447.174 16.3138 446.872 16.3138C446.067 16.3138 445.413 16.666 444.91 17.3705C444.91 17.6724 444.558 17.8234 443.854 17.8234C443.15 17.8234 442.647 17.9743 442.345 18.2763C441.943 18.3769 441.49 18.4272 440.987 18.4272C440.585 18.4272 440.233 18.5782 439.931 18.8801C439.629 19.182 439.378 19.3833 439.176 19.484C438.975 19.484 438.623 19.484 438.12 19.484C437.215 19.3833 435.505 19.333 432.99 19.333L427.859 19.182C423.131 19.182 419.409 19.0311 416.693 18.7292C416.693 26.2772 416.643 30.1016 416.542 30.2022C416.442 30.2022 416.391 30.5544 416.391 31.2589C416.391 31.8628 416.391 32.4666 416.391 33.0705C416.492 33.5737 416.643 34.5297 416.844 35.9387L416.542 38.0522C416.844 39.2599 417.045 42.2791 417.146 47.1098C417.146 49.3239 417.146 51.2361 417.146 52.8464C417.246 54.4566 417.347 55.3121 417.448 55.4127L417.598 56.9223C417.598 57.8281 417.498 58.6835 417.297 59.4886C417.498 59.8912 417.598 60.4951 417.598 61.3002C417.598 62.9104 417.649 63.7156 417.749 63.7156L419.409 63.5646C420.516 63.5646 421.522 63.4136 422.427 63.1117C424.54 62.4072 426.904 62.055 429.519 62.055C430.223 62.055 430.877 61.904 431.481 61.6021C431.682 61.6021 431.833 61.6524 431.933 61.7531C432.034 61.8537 434.8 61.904 440.233 61.904C440.434 62.0047 440.585 62.1053 440.685 62.2059C440.887 62.2059 440.987 62.3066 440.987 62.5079C441.088 62.6085 441.39 62.8098 441.893 63.1117C442.496 63.313 443.15 63.5143 443.854 63.7156C444.659 63.8162 445.313 63.8665 445.816 63.8665C446.319 63.8665 446.671 64.0678 446.872 64.4704C447.174 64.7723 447.476 64.9232 447.777 64.9232C448.079 64.9232 448.23 65.0742 448.23 65.3761L448.079 66.8857C448.079 67.1877 448.18 67.3889 448.381 67.4896C448.582 67.4896 448.733 67.5902 448.834 67.7915V68.8482C448.733 69.0495 448.532 69.1502 448.23 69.1502C448.029 69.1502 447.928 69.3011 447.928 69.603C447.928 69.905 448.079 70.0559 448.381 70.0559C448.381 70.1566 448.28 70.3075 448.079 70.5088C447.476 70.8107 446.872 70.9617 446.268 70.9617C445.765 70.9617 445.413 71.0623 445.212 71.2636C445.112 71.3642 445.011 71.4649 444.91 71.5655C444.81 71.5655 444.609 71.5655 444.307 71.5655C444.005 71.5655 443.854 71.7668 443.854 72.1694C443.854 72.4713 442.295 73.0751 439.176 73.9809C438.673 74.1822 438.221 74.3835 437.818 74.5848C437.517 74.6854 437.315 74.8364 437.215 75.0376C437.215 75.1383 437.114 75.1886 436.913 75.1886L435.555 74.7357C434.247 74.937 432.939 75.088 431.632 75.1886C430.324 75.2892 429.469 75.4402 429.066 75.6415L425.596 75.9434C423.584 75.9434 422.477 76.044 422.276 76.2453C422.176 76.346 422.025 76.4466 421.824 76.5472C421.522 76.2453 421.321 76.0944 421.22 76.0944C420.616 76.2956 420.063 76.4466 419.56 76.5472H418.806C418.806 76.6479 418.806 76.8492 418.806 77.1511C418.906 77.3524 418.957 77.8556 418.957 78.6607C418.957 82.8876 419.107 85.6049 419.409 86.8126L419.258 87.7184C419.258 88.6241 419.258 89.1273 419.258 89.228C419.359 89.228 419.862 90.3853 420.767 92.7001C421.069 93.3039 421.321 93.6059 421.522 93.6059L420.918 94.9645C420.918 95.0651 421.069 95.1155 421.371 95.1155C421.673 95.1155 421.824 95.8703 421.824 97.3799L422.125 98.1347V99.1914C422.427 99.7953 422.628 100.198 422.729 100.399C422.93 100.5 423.031 100.902 423.031 101.607C423.031 102.211 423.131 102.613 423.332 102.814C423.634 103.016 423.936 103.418 424.238 104.022C424.64 106.136 424.942 107.746 425.143 108.853C425.445 109.859 425.596 110.664 425.596 111.268C425.495 111.268 425.445 111.319 425.445 111.419L425.747 112.174L425.294 114.891C425.294 115.696 425.395 116.502 425.596 117.307C425.898 118.011 426.199 118.414 426.501 118.514C426.803 118.615 427.256 118.665 427.859 118.665C428.966 118.665 429.821 118.565 430.425 118.363C430.626 118.162 430.877 118.062 431.179 118.062C431.581 117.961 432.135 117.86 432.839 117.76C433.644 117.659 434.499 117.508 435.404 117.307C440.434 116.401 445.363 115.948 450.192 115.948C451.399 115.948 452.405 115.948 453.21 115.948C454.115 115.847 454.618 115.747 454.719 115.646H454.869L457.284 117.005C458.089 117.609 458.541 117.911 458.642 117.911L460 118.514C458.29 118.514 457.384 118.816 457.284 119.42C457.284 119.621 457.586 120.024 458.189 120.628C457.887 120.829 457.686 121.081 457.586 121.383C457.586 121.685 457.284 121.836 456.68 121.836C456.177 121.836 455.775 121.936 455.473 122.137C455.272 122.339 455.171 122.691 455.171 123.194C455.171 123.597 454.266 123.899 452.455 124.1C451.65 124.301 451.047 124.553 450.644 124.855C450.343 125.056 448.934 125.509 446.419 126.213C443.904 126.918 442.395 127.27 441.893 127.27C441.39 127.27 440.987 127.421 440.685 127.723C440.384 128.025 440.082 128.277 439.78 128.478C439.478 128.579 439.227 128.629 439.026 128.629C436.008 129.333 432.034 130.491 427.105 132.101C426.199 132.503 425.546 132.755 425.143 132.856C424.741 132.956 422.528 133.208 418.504 133.611L416.693 133.46C415.486 133.46 414.681 133.51 414.279 133.611C413.977 133.711 412.468 133.761 409.752 133.761Z"/>
        <path d="M350.667 145.292C347.649 145.545 345.44 145.573 344.015 145.348C342.59 145.124 341.584 144.564 340.941 143.583C340.326 142.63 339.907 141.229 339.739 139.436C339.571 137.643 339.292 135.345 338.872 132.599C338.621 131.422 338.397 130.217 338.174 129.012C337.95 127.807 337.782 126.659 337.615 125.566H337C336.664 125.566 335.882 125.678 334.624 125.874C333.366 126.098 332.025 126.322 330.627 126.574C329.23 126.827 327.916 127.051 326.742 127.275C325.569 127.499 324.954 127.639 324.87 127.723C324.535 127.723 323.92 127.779 323.053 127.919C322.187 128.06 321.516 128.116 321.097 128.116C317.743 128.116 314.109 127.611 310.197 126.602C306.284 125.594 302.874 123.997 300.051 121.839C299.632 121.587 299.101 121.138 298.43 120.522C297.759 119.906 297.06 119.261 296.362 118.645C295.663 118.028 294.936 117.524 294.238 117.131C293.539 116.739 292.924 116.655 292.421 116.823C289.318 114.217 286.775 111.163 284.763 107.66C282.75 104.158 281.157 100.403 279.928 96.424C278.726 92.445 277.859 88.382 277.356 84.2349C276.853 80.0878 276.602 76.1368 276.602 72.354C276.602 68.0108 276.881 63.8356 277.412 59.8567C277.943 55.8777 279.033 51.7866 280.598 47.6115C281.688 44.7534 283.198 41.7271 285.098 38.5047C287.027 35.2823 289.263 32.0879 291.862 28.9496C294.461 25.8112 297.284 22.785 300.33 19.8988C303.377 17.0127 306.535 14.4628 309.805 12.2211C313.075 10.0074 316.373 8.24213 319.755 6.95316C323.137 5.6642 326.407 4.9917 329.593 4.9917C331.354 4.9917 332.947 5.35597 334.429 6.11254C335.91 6.8691 337.168 7.68171 338.258 8.55036C339.348 9.419 340.186 10.2316 340.773 10.9321C341.36 11.6327 341.695 11.9969 341.779 11.9969H342.031C342.198 11.9969 342.478 11.9129 342.897 11.7447C343.316 11.5766 343.568 11.4645 343.652 11.3805V11.9969L341.528 13.2579C341.528 15.7798 341.164 17.7132 340.41 19.1142C339.655 20.5153 338.677 21.6361 337.475 22.5048C336.273 23.3734 334.876 24.13 333.339 24.7745C331.801 25.419 330.18 26.2316 328.503 27.2123C326.407 28.6414 324.255 30.4067 322.047 32.4802C319.839 34.5818 317.715 36.8795 315.73 39.4014C313.746 41.9233 311.901 44.5012 310.28 47.1352C308.659 49.7691 307.346 52.263 306.34 54.6168C306.34 54.8689 306.228 55.3453 306.032 56.0738C305.836 56.7744 305.585 57.5589 305.333 58.3996C305.082 59.2402 304.858 60.0248 304.635 60.7253C304.439 61.4258 304.271 61.9582 304.187 62.2945C304.02 62.7148 303.964 63.051 303.992 63.3032C304.02 63.5554 304.048 63.7796 304.048 64.0038C304.048 64.2279 304.048 64.4241 303.992 64.6202C303.964 64.8444 303.796 65.0966 303.545 65.4328V69.8321C303.545 76.1088 304.159 81.8811 305.361 87.121C306.563 92.3609 308.883 97.6569 312.321 103.009C313.495 104.942 314.836 106.512 316.401 107.716C317.938 108.921 319.923 109.538 322.354 109.538C323.696 109.538 324.814 109.37 325.736 109.033C326.659 108.697 327.525 108.277 328.308 107.772C329.09 107.268 329.929 106.764 330.739 106.259C331.55 105.755 332.528 105.335 333.618 104.998C333.702 104.83 334.065 104.802 334.736 104.886C335.407 104.97 335.77 104.998 335.854 104.998C336.609 104.83 337.14 104.382 337.419 103.625C337.699 102.869 337.922 102.028 338.034 101.103C338.146 100.179 338.202 99.3101 338.146 98.4695C338.118 97.6289 338.09 97.0404 338.09 96.7042C338.258 94.1823 338.593 91.6324 339.096 89.0264C339.599 86.4205 340.102 84.0387 340.605 81.8531C340.605 81.685 340.521 81.5729 340.354 81.4888C340.186 81.4047 340.018 81.2927 339.851 81.1245H339.599C338.593 81.1245 337.615 81.2366 336.664 81.4888C335.714 81.741 334.764 82.0212 333.842 82.3575C332.919 82.6937 331.969 82.9739 331.019 83.2261C330.068 83.4783 329.034 83.5904 327.944 83.5904H324.674C323.92 83.5904 323.221 83.5624 322.55 83.4783C321.879 83.3942 321.376 83.2821 321.041 83.114C320.957 83.03 320.705 82.8058 320.286 82.4135C319.867 82.0212 319.42 81.6009 318.917 81.0965C318.414 80.5921 317.966 80.1438 317.603 79.7235C317.24 79.3032 317.044 79.051 317.044 78.9669C316.122 78.2944 315.255 77.5939 314.473 76.8934C313.69 76.1929 312.936 75.4363 312.293 74.7077C312.377 74.7077 312.572 74.4275 312.908 73.8391C313.243 73.2507 313.606 72.6062 314.026 71.8776C314.445 71.1771 314.864 70.4766 315.283 69.8041C315.703 69.1316 316.038 68.6833 316.289 68.4311C319.056 67.7586 321.74 67.1141 324.367 66.4696C326.994 65.8251 329.649 65.2367 332.332 64.6482C335.602 64.0598 338.9 63.6115 342.282 63.2752C345.664 62.939 349.018 62.3225 352.372 61.3978H364.53C365.117 61.3978 365.536 61.5099 365.788 61.7621C367.045 62.4346 368.051 63.051 368.806 63.5834C369.561 64.1158 370.176 64.7043 370.623 65.3488C371.07 65.9932 371.405 66.7218 371.573 67.6185C371.741 68.5151 371.825 69.664 371.825 71.065C371.825 74.0913 371.545 77.2016 370.958 80.424C370.371 83.6464 369.728 86.8968 369.002 90.1753C368.275 93.4537 367.604 96.7042 366.933 99.9826C366.263 103.261 365.899 106.427 365.815 109.538V126.883C365.648 129.573 365.564 132.487 365.564 135.681C365.564 138.876 365.229 141.79 364.558 144.48C364.39 144.984 364.139 145.433 363.803 145.797C363.468 146.161 363.104 146.497 362.685 146.806C362.266 147.086 361.875 147.422 361.483 147.814C361.092 148.207 360.785 148.627 360.533 149.131C360.533 148.711 360.421 148.487 360.226 148.431C360.03 148.375 359.751 148.375 359.415 148.375H358.8C358.8 148.543 358.605 148.711 358.241 148.879C357.878 149.047 357.626 149.131 357.543 149.131L357.291 148.879C357.123 148.711 357.039 148.543 357.039 148.375L356.536 147.506C356.369 147.338 356.257 147.338 356.173 147.506C356.089 147.674 355.977 147.758 355.81 147.758V148.767C355.558 148.767 355.251 148.711 354.859 148.655C354.496 148.571 354.217 148.319 354.049 147.898C354.049 148.067 353.993 148.347 353.853 148.767C353.741 149.187 353.658 149.468 353.658 149.636L353.406 149.888C353.406 149.888 353.238 150 353.154 150L352.791 149.636C352.791 147.87 352.092 146.441 350.667 145.377V145.292ZM337 122.539C336.748 122.539 336.636 122.708 336.636 123.044C336.636 123.38 336.748 123.548 337 123.548C337.335 123.548 337.503 123.38 337.503 123.044C337.503 122.708 337.335 122.539 337 122.539ZM351.17 143.779C350.919 143.779 350.807 143.975 350.807 144.34C350.807 144.704 350.919 144.9 351.17 144.9C351.338 144.9 351.422 144.704 351.422 144.34C351.422 143.975 351.338 143.779 351.17 143.779ZM355.307 144.9C354.887 144.9 354.692 145.096 354.692 145.517C354.692 145.937 354.887 146.133 355.307 146.133C355.558 146.133 355.67 145.909 355.67 145.517C355.67 145.124 355.558 144.9 355.307 144.9ZM358.828 146.525C358.577 146.525 358.465 146.722 358.465 147.142C358.465 147.562 358.577 147.758 358.828 147.758C359.164 147.758 359.331 147.534 359.331 147.142C359.331 146.75 359.164 146.525 358.828 146.525Z"/>
        <path d="M267.974 133.318C266.326 128.298 264.513 123.307 262.535 118.425C258.003 107.316 255.393 95.742 254.405 83.8111C254.322 82.906 255.311 81.3152 256.163 81.0135C259.981 79.6695 263.936 78.6547 267.974 77.5028C267.617 77.2559 267.15 76.8719 266.601 76.6525C262.481 74.952 258.305 73.3338 254.212 71.5784C253.498 71.2767 252.509 70.591 252.454 70.0425C251.932 64.2004 251.081 58.331 251.328 52.5163C251.658 44.8915 254.762 37.4586 253.031 29.5869C251.795 23.9917 250.834 18.3691 246.576 13.9533C245.505 12.8287 244.268 10.7991 244.598 9.56487C245.532 6.05415 243.746 4.43593 241.109 3.33883C238.445 2.2143 235.643 1.36405 232.841 0.568653C227.842 -0.857577 224.903 0.321805 222.595 4.98448C220.013 10.2231 217.266 15.4344 215.371 20.9473C207.981 42.6424 204.273 65.133 201.306 87.8155C199.686 100.158 197.681 112.445 195.401 124.678C194.604 128.984 193.478 132.659 198.779 134.744C201.389 135.759 203.669 137.624 206.278 138.556C210.124 139.928 213.256 137.35 213.311 133.29C213.393 129.176 213.393 125.062 213.777 120.975C214.821 109.949 216.085 98.9236 217.239 87.8978C217.596 84.6065 218.914 82.714 222.678 83.4271C224.133 83.7014 225.699 83.5917 227.21 83.5094C232.979 83.2625 238.747 82.9608 244.818 82.6591C245.559 91.3537 246.521 99.7739 246.96 108.222C247.372 115.984 247.18 123.773 247.4 131.535C247.427 132.659 248.004 134.305 248.856 134.799C252.372 136.856 255.97 138.858 259.789 140.257C261.601 140.915 264.211 140.805 265.914 139.955C268.414 138.694 268.798 135.868 267.947 133.318H267.974ZM221.496 72.2915C226.413 59.3458 231.056 47.1405 236.055 34.0028C238.417 46.6743 240.642 58.4681 242.895 70.6459C235.671 71.1944 228.941 71.7156 221.496 72.2915Z"/>
        <path d="M132.231 42.9157C133.352 45.3629 134.847 47.378 136.732 48.8808C138.62 50.4095 140.567 51.7488 142.578 52.9504C144.027 53.7924 145.427 54.6657 146.813 55.6453C152.339 59.67 158.005 63.523 163.861 67.1988L164.843 67.8282C165.496 68.3092 166.243 68.7015 167.032 68.9849C167.821 69.2682 168.564 69.3731 169.237 69.3022L169.522 69.2722C170.492 69.0391 171.418 68.8891 172.323 68.7936C177.602 68.2372 180.501 70.4185 181.02 75.3375C181.129 76.3731 181.117 77.5 181.013 78.7413C180.142 89.0946 179.087 99.441 177.852 109.807C177.591 111.3 176.99 112.803 176.129 114.308L175.376 115.853C174.936 116.894 174.496 117.935 174.062 119.028C173.114 121.693 171.913 124.202 170.429 126.505C168.35 129.368 165.841 131.386 162.932 132.583C160.023 133.779 156.955 134.705 153.701 135.362C152.369 135.633 151.069 135.954 149.748 136.329C148.37 136.657 146.983 136.908 145.586 137.055C142.196 137.413 138.924 137.155 135.742 136.26C131.318 134.999 127.006 133.307 122.779 131.187C121.486 130.59 120.222 130.017 119.013 129.464C111.902 126.051 107.014 121.383 104.354 115.512C101.666 109.617 99.8418 103.239 98.88 96.3512C98.8227 95.8075 98.9179 95.2216 99.1683 94.6193C99.4188 94.017 99.7347 93.5387 100.116 93.1844C103.606 90.3035 107.434 88.6435 111.549 88.2098C113.49 88.0052 115.512 88.0799 117.64 88.4054C120.711 88.9979 123.057 90.3998 124.648 92.588C126.265 94.7735 127.62 97.1961 128.763 99.8504C129.487 101.502 130.026 103.146 130.388 104.836C130.801 106.52 131.364 108.136 132.053 109.713C132.743 111.289 133.786 112.75 135.233 114.063C138.838 117.479 142.867 118.965 147.292 118.499C147.706 118.455 148.169 118.38 148.653 118.251C154.314 116.607 157.408 112.695 157.985 106.508C158.748 102.082 159.941 97.7682 161.597 93.6147C162.155 91.9591 162.361 90.4452 162.214 89.0472C161.927 86.3288 160.284 84.146 157.293 82.5765C156.181 81.9607 155.168 81.2823 154.224 80.5179C153.08 79.5914 151.874 78.8285 150.581 78.2318C144.369 75.6406 138.04 73.1926 131.601 70.9394C121.535 67.2885 113.076 61.505 106.229 53.6406C103.291 49.6048 101.615 45.6192 101.206 41.7358C100.559 35.6 103.069 29.6288 108.71 23.8248C113.074 19.3073 117.892 15.3703 123.187 11.985C128.928 8.36949 133.974 6.34553 138.27 5.89274C139.305 5.78364 140.325 5.78082 141.301 5.86112C146.184 6.26265 151.382 8.41102 156.895 12.3062C160.52 14.6728 164.185 16.9303 167.915 19.0502C168.167 19.2069 168.471 19.3581 168.801 19.5066C171.043 20.9194 172.714 22.628 173.841 24.6296C174.968 26.6312 175.625 28.3943 175.783 29.8959C175.865 30.6726 175.844 31.4602 175.739 32.2042C175.334 34.8123 174.31 37.0144 172.613 38.7901C170.942 40.563 168.877 41.5661 166.444 41.8225L165.616 41.9097C163.47 41.9004 161.253 41.4795 158.945 40.6758C156.662 39.8694 154.714 38.7658 153.176 37.3311C151.082 35.5885 149.526 34.7316 148.486 34.7889C147.445 34.8462 146.767 34.8654 146.482 34.8954C144.904 35.0618 143.332 35.5415 141.765 36.3088C139.428 37.4714 137.227 38.9337 135.137 40.6984C134.173 41.4807 133.203 42.2111 132.234 42.9416L132.231 42.9157Z"/>
        <path d="M24.2565 23.5011C24.5202 24.7665 24.7253 26.0613 24.9304 27.3855C25.8678 33.5651 26.776 39.7447 27.6548 45.9538C27.7134 46.2775 27.7427 46.5717 27.7427 46.8954C27.7427 47.2191 27.7134 47.484 27.6548 47.7488C26.3951 52.0451 25.7799 56.4003 25.7799 60.8143C25.7799 62.7859 25.8971 64.7281 26.1608 66.6997C26.3365 68.8478 26.4537 71.0254 26.4537 73.2324C26.4537 74.998 26.3951 76.7931 26.2779 78.6175C26.2193 79.1766 26.19 79.7357 26.19 80.236C26.19 82.649 26.5416 85.0326 27.2154 87.4456C27.274 87.887 27.3619 88.3578 27.5083 88.858L27.8892 90.7414C28.8852 96.4796 30.1742 102.13 31.7562 107.691C32.2542 109.574 32.928 111.458 33.7483 113.282C34.5685 115.107 35.6525 116.431 37.0586 117.255C37.4395 117.431 37.8789 117.549 38.3769 117.549C39.2558 117.549 40.2518 117.255 41.3943 116.696C43.2107 115.872 44.8805 114.96 46.4039 113.959C50.8568 110.928 53.9035 107.162 55.544 102.689C57.1845 98.2158 58.3856 93.5075 59.118 88.5932C59.2352 88.1518 59.3524 87.681 59.411 87.1807C59.909 84.3263 60.4363 81.5013 61.0222 78.6469C62.2819 71.4374 63.6295 64.2867 65.065 57.1654L66.0024 52.8102C67.8773 46.0421 68.8441 39.1856 68.8441 32.1526C68.8441 28.9451 68.6683 25.7082 68.2874 22.5006V22.4124C67.848 20.3231 67.6137 18.2043 67.6137 16.0562V14.5554C67.7308 11.8481 69.0784 9.58228 71.6564 7.72839C74.4981 5.90393 77.3104 4.9917 80.1521 4.9917C82.9937 4.9917 85.6889 5.81565 88.4427 7.46355C89.2043 7.9638 89.8782 8.61119 90.5226 9.40572C91.1379 10.2002 91.5773 11.0242 91.8409 11.907C92.544 14.9968 92.8662 18.0572 92.8662 21.0882C92.8662 27.5326 91.2843 33.8005 88.1497 39.9213C86.5678 43.8939 85.6889 48.1902 85.5131 52.8102C85.3374 54.5758 85.103 56.312 84.8393 58.0188C84.5757 59.9904 84.3706 61.9031 84.1656 63.7864C83.9898 66.1994 83.6675 68.5536 83.2281 70.8783L83.0523 72.0259C81.6754 80.4126 79.9763 88.7109 77.9549 96.921C76.9589 100.952 75.2305 104.66 72.7697 107.985C72.2717 108.692 71.7443 109.398 71.1584 110.163C65.4458 118.373 59.2352 126.171 52.5851 133.557C47.3706 138.354 41.9802 140.767 36.4727 140.767C30.9652 140.767 25.2526 138.295 19.4228 133.381C13.5638 128.025 9.55031 121.993 7.35316 115.342C5.15601 108.692 3.57406 101.806 2.63661 94.7434C2.51943 93.9783 2.37294 93.2721 2.25575 92.5658C1.37689 85.6799 0.937473 78.7941 0.937473 71.9082C0.937473 64.5221 1.43548 57.136 2.43152 49.7498C2.49011 48.4256 2.5194 47.1014 2.5194 45.7772C2.5194 40.3627 2.0214 34.9187 1.02536 29.5042C0.644516 27.0912 0.292953 24.7076 0 22.2947V21.4413C0 19.9994 0.263687 18.3515 0.761708 16.527C1.37691 14.32 2.22645 12.2601 3.25179 10.3179C4.27712 8.40521 5.36105 7.13985 6.50357 6.58075C8.26129 5.8745 10.1362 5.55081 12.1576 5.55081C13.4759 5.55081 14.8821 5.69794 16.4054 6.02164C20.1259 6.78673 22.6746 8.34635 24.1394 10.7593C25.2819 13.3489 25.8678 16.2033 25.9264 19.2931C26.0436 20.6173 26.2194 21.9121 26.3951 23.1775L24.3151 23.56L24.2565 23.5011Z"/>
    </g>
</svg>
