<svg width="560" height="150" viewBox="0 0 560 150" xmlns="http://www.w3.org/2000/svg">
    <g fill="#32468a">
        <path d="M546.439 58.18C544.442 60.5956 542.896 62.5055 541.349 64.3874C540.645 65.2581 540.139 66.3535 539.239 66.9715C536.117 69.1061 535.442 72.5609 534.739 75.6786C533.782 80.0884 531.054 82.6444 527.313 84.3296C522.166 86.6328 516.822 86.9418 511.394 85.0038C509.031 84.1611 506.5 83.6836 503.237 82.8129C503.715 90.3685 504.137 97.3342 504.587 104.693H510.634C517.497 104.693 524.36 104.806 531.223 104.637C534.373 104.553 537.58 104.16 540.645 103.485C542.333 103.12 543.992 102.081 545.371 100.986C547.733 99.1038 549.758 99.0757 552.065 101.154C552.965 101.969 554.062 102.53 555.131 103.148C557.015 104.244 558.028 105.676 558.14 108.008C558.225 109.777 559.265 111.49 559.743 113.288C559.968 114.046 560.109 114.973 559.884 115.704C559.125 118.203 558.14 120.647 557.353 123.147C556.481 125.956 553.527 128.203 549.702 128.09C545.118 127.95 540.505 127.5 535.948 126.939C527.06 125.871 518.144 125.029 509.34 127.163C501.268 129.129 493.336 128.062 485.827 125.618C479.245 123.456 475.673 118.203 474.576 111.041C472.916 100.087 472.579 89.1046 472.888 78.0942C473.254 66.0727 473.873 54.0792 474.717 42.0858C475.082 36.9177 476.46 31.8057 476.995 26.6376C477.22 24.4748 476.714 22.1155 475.926 20.0651C474.576 16.6103 472.748 13.7454 474.604 9.53222C476.235 5.79656 479.442 5.59995 482.114 4.58879C490.524 1.44297 499.327 1.86429 508.159 2.53839C514.403 3.01588 520.704 3.26867 526.948 3.21249C531.476 3.15632 534.683 5.65612 538.198 7.70652C538.283 7.76269 538.339 7.84696 538.395 7.93122C541.208 11.049 542.614 21.5818 540.786 25.4579C536.848 33.8 537.608 33.1539 528.354 33.0978C524.416 33.0978 520.507 33.2101 516.569 33.182C513.869 33.182 512.744 34.3336 512.519 37.03C512.406 38.4063 511.281 39.8107 510.297 40.9342C508.244 43.3778 505.515 45.4002 503.94 48.0966C502.253 50.9334 503.518 52.5906 506.865 52.4502C512.294 52.2255 517.75 51.8884 523.122 51.1581C527.988 50.5121 532.545 50.8772 536.876 53.1243C540.28 54.8938 543.655 56.7757 546.327 58.2362L546.439 58.18Z"/>
        <path d="M431.594 143.625C428.571 143.878 426.36 143.906 424.932 143.681C423.505 143.457 422.497 142.895 421.854 141.913C421.238 140.959 420.818 139.555 420.65 137.759C420.482 135.963 420.202 133.661 419.782 130.91C419.531 129.732 419.307 128.525 419.083 127.318C418.859 126.111 418.691 124.96 418.523 123.866H417.907C417.571 123.866 416.788 123.978 415.528 124.174C414.268 124.399 412.925 124.623 411.526 124.876C410.126 125.129 408.811 125.353 407.635 125.578C406.459 125.802 405.844 125.943 405.76 126.027C405.424 126.027 404.808 126.083 403.94 126.223C403.073 126.364 402.401 126.42 401.981 126.42C398.622 126.42 394.984 125.914 391.065 124.904C387.147 123.894 383.732 122.294 380.905 120.133C380.485 119.88 379.953 119.431 379.282 118.813C378.61 118.196 377.91 117.55 377.21 116.933C376.511 116.315 375.783 115.81 375.083 115.417C374.383 115.024 373.768 114.94 373.264 115.109C370.157 112.498 367.61 109.439 365.595 105.931C363.58 102.422 361.984 98.6611 360.753 94.6756C359.549 90.69 358.681 86.6202 358.178 82.4663C357.674 78.3123 357.422 74.3548 357.422 70.5657C357.422 66.2153 357.702 62.0333 358.234 58.0477C358.765 54.0622 359.857 49.9643 361.424 45.7823C362.516 42.9194 364.027 39.8882 365.931 36.6604C367.862 33.4327 370.101 30.233 372.704 27.0895C375.307 23.9459 378.134 20.9147 381.185 18.0237C384.236 15.1328 387.399 12.5787 390.673 10.3333C393.948 8.11597 397.251 6.34773 400.638 5.05663C404.024 3.76554 407.299 3.09192 410.49 3.09192C412.253 3.09192 413.849 3.45679 415.332 4.21461C416.816 4.97243 418.075 5.78638 419.167 6.65647C420.258 7.52655 421.098 8.34051 421.686 9.04219C422.274 9.74387 422.609 10.1087 422.693 10.1087H422.945C423.113 10.1087 423.393 10.0245 423.813 9.85614C424.233 9.68774 424.485 9.57547 424.569 9.49127V10.1087L422.441 11.3718C422.441 13.8978 422.078 15.8345 421.322 17.2378C420.566 18.6412 419.587 19.7639 418.383 20.634C417.179 21.5041 415.78 22.2619 414.241 22.9074C412.701 23.553 411.078 24.3669 409.398 25.3493C407.299 26.7807 405.144 28.549 402.933 30.626C400.722 32.731 398.594 35.0325 396.607 37.5586C394.62 40.0846 392.773 42.6668 391.149 45.3052C389.526 47.9435 388.21 50.4415 387.203 52.7991C387.203 53.0517 387.091 53.5289 386.895 54.2586C386.699 54.9603 386.447 55.7462 386.195 56.5882C385.943 57.4302 385.719 58.2161 385.495 58.9178C385.299 59.6195 385.131 60.1528 385.047 60.4896C384.88 60.9106 384.824 61.2474 384.852 61.5C384.88 61.7526 384.908 61.9771 384.908 62.2017C384.908 62.4262 384.908 62.6227 384.852 62.8192C384.824 63.0437 384.656 63.2963 384.404 63.6331V68.0397C384.404 74.3268 385.019 80.1086 386.223 85.3572C387.427 90.6058 389.75 95.9105 393.192 101.271C394.368 103.208 395.712 104.78 397.279 105.987C398.818 107.194 400.806 107.811 403.241 107.811C404.584 107.811 405.704 107.643 406.627 107.306C407.551 106.969 408.419 106.548 409.202 106.043C409.986 105.538 410.826 105.032 411.637 104.527C412.449 104.022 413.429 103.601 414.52 103.264C414.604 103.096 414.968 103.068 415.64 103.152C416.312 103.236 416.676 103.264 416.76 103.264C417.515 103.096 418.047 102.647 418.327 101.889C418.607 101.131 418.831 100.289 418.943 99.3628C419.055 98.4366 419.111 97.5665 419.055 96.7245C419.027 95.8825 418.999 95.2931 418.999 94.9562C419.167 92.4302 419.503 89.8761 420.006 87.2658C420.51 84.6555 421.014 82.2698 421.518 80.0806C421.518 79.9122 421.434 79.7999 421.266 79.7157C421.098 79.6315 420.93 79.5192 420.762 79.3508H420.51C419.503 79.3508 418.523 79.4631 417.571 79.7157C416.62 79.9683 415.668 80.249 414.744 80.5858C413.821 80.9226 412.869 81.2033 411.917 81.4559C410.966 81.7085 409.93 81.8207 408.839 81.8207H405.564C404.808 81.8207 404.108 81.7927 403.437 81.7085C402.765 81.6243 402.261 81.512 401.925 81.3436C401.841 81.2594 401.589 81.0348 401.169 80.6419C400.75 80.249 400.302 79.828 399.798 79.3227C399.294 78.8175 398.846 78.3685 398.482 77.9474C398.119 77.5264 397.923 77.2738 397.923 77.1896C396.999 76.516 396.131 75.8143 395.348 75.1126C394.564 74.411 393.808 73.6531 393.164 72.9234C393.248 72.9234 393.444 72.6427 393.78 72.0533C394.116 71.4639 394.48 70.8184 394.9 70.0886C395.32 69.3869 395.739 68.6852 396.159 68.0116C396.579 67.338 396.915 66.8889 397.167 66.6363C399.938 65.9627 402.625 65.3172 405.256 64.6716C407.887 64.0261 410.546 63.4366 413.233 62.8472C416.508 62.2578 419.81 61.8087 423.197 61.4719C426.584 61.1351 429.943 60.5176 433.301 59.5914H445.477C446.065 59.5914 446.484 59.7037 446.736 59.9563C447.996 60.6299 449.003 61.2474 449.759 61.7807C450.515 62.314 451.131 62.9034 451.578 63.5489C452.026 64.1945 452.362 64.9242 452.53 65.8224C452.698 66.7205 452.782 67.8713 452.782 69.2746C452.782 72.3059 452.502 75.4214 451.914 78.6491C451.327 81.8769 450.683 85.1327 449.955 88.4166C449.227 91.7004 448.556 94.9562 447.884 98.2401C447.212 101.524 446.848 104.696 446.764 107.811V125.185C446.596 127.879 446.512 130.798 446.512 133.998C446.512 137.198 446.177 140.117 445.505 142.811C445.337 143.316 445.085 143.765 444.749 144.13C444.413 144.495 444.049 144.832 443.629 145.141C443.21 145.421 442.818 145.758 442.426 146.151C442.034 146.544 441.726 146.965 441.474 147.47C441.474 147.049 441.362 146.825 441.166 146.769C440.97 146.712 440.691 146.712 440.355 146.712H439.739C439.739 146.881 439.543 147.049 439.179 147.218C438.815 147.386 438.563 147.47 438.479 147.47L438.227 147.218C438.06 147.049 437.976 146.881 437.976 146.712L437.472 145.842C437.304 145.674 437.192 145.674 437.108 145.842C437.024 146.011 436.912 146.095 436.744 146.095V147.105C436.492 147.105 436.184 147.049 435.792 146.993C435.429 146.909 435.149 146.656 434.981 146.235C434.981 146.404 434.925 146.684 434.785 147.105C434.673 147.526 434.589 147.807 434.589 147.975L434.337 148.228C434.337 148.228 434.169 148.34 434.085 148.34L433.721 147.975C433.721 146.207 433.021 144.776 431.594 143.709V143.625ZM417.907 120.834C417.655 120.834 417.543 121.003 417.543 121.34C417.543 121.676 417.655 121.845 417.907 121.845C418.243 121.845 418.411 121.676 418.411 121.34C418.411 121.003 418.243 120.834 417.907 120.834ZM432.098 142.109C431.846 142.109 431.734 142.306 431.734 142.671C431.734 143.036 431.846 143.232 432.098 143.232C432.266 143.232 432.35 143.036 432.35 142.671C432.35 142.306 432.266 142.109 432.098 142.109ZM436.24 143.232C435.82 143.232 435.624 143.428 435.624 143.85C435.624 144.271 435.82 144.467 436.24 144.467C436.492 144.467 436.604 144.242 436.604 143.85C436.604 143.457 436.492 143.232 436.24 143.232ZM439.767 144.86C439.515 144.86 439.403 145.056 439.403 145.477C439.403 145.898 439.515 146.095 439.767 146.095C440.103 146.095 440.271 145.87 440.271 145.477C440.271 145.084 440.103 144.86 439.767 144.86Z"/>
        <path d="M255.733 150C255.145 150 254.949 149.412 254.949 148.824V147.843C254.949 146.471 253.184 145.49 252.008 145.294C251.027 145.098 250.243 145.098 249.262 145.098C247.498 145.098 245.733 145.294 244.164 145.686C243.184 146.078 241.811 146.667 240.438 146.667C237.105 146.667 236.517 141.569 236.125 139.216C236.125 138.039 235.34 137.255 234.948 135.882C234.36 130.392 236.517 123.922 237.301 118.627C238.085 111.569 240.831 104.51 242.791 97.8431C244.752 91.3726 246.517 84.5098 248.87 78.0392C250.831 72.549 252.4 66.6667 254.557 61.3725C254.949 60.3922 254.557 59.6078 254.949 58.4314C259.263 49.0196 263.185 39.2157 268.087 30C271.616 23.1372 275.146 16.2745 279.068 10C280.244 8.23529 281.617 6.86274 282.597 5.29412C283.382 4.11764 281.813 4.90196 282.401 3.72549C283.382 2.7451 283.382 3.33334 284.166 3.33334C284.95 3.13725 285.146 1.96078 285.735 1.37254C286.323 0.980391 287.499 0.392152 288.48 0.196076C288.872 0 289.264 0 289.46 0C291.225 0 292.598 1.17647 293.97 1.76471C297.108 3.33334 300.833 4.90196 303.383 7.05883C303.971 7.64705 302.402 9.21568 303.383 9.60784C304.363 10 303.775 8.43137 304.363 8.43137H304.559C305.343 8.43137 306.716 9.21568 307.5 9.60784C308.285 10.1961 308.285 11.1765 308.677 11.9608C310.638 15.4902 312.01 17.451 312.991 21.3725C313.775 24.7059 315.54 27.8431 316.52 31.1765C316.913 33.9216 316.52 37.2549 317.109 40C317.305 40.9804 318.677 40.9804 319.07 41.9608C320.246 44.1176 320.638 47.2549 321.423 49.8039C324.952 60.9804 326.913 72.549 330.443 83.5294C332.796 90.3922 336.717 98.0392 340.639 104.314C341.423 105.686 343.777 107.255 343.973 109.02C344.169 109.412 343.58 109.804 343.58 110.196C343.58 110.784 344.953 110.784 344.169 111.569C343.973 111.765 343.777 111.765 343.777 111.765C342.6 111.765 340.835 109.216 340.247 110.392C340.443 110.196 340.443 111.569 340.443 112.745C340.443 113.725 340.443 114.51 340.051 114.314C340.835 114.902 343.58 114.118 342.796 116.471C342.796 116.863 342.404 117.059 342.208 116.863C340.835 115.098 341.62 114.902 340.247 116.471C340.051 116.863 339.267 117.059 339.07 117.451V117.843C339.07 119.412 342.012 118.627 342.404 119.412C342.6 119.608 342.6 119.608 342.6 119.804C342.6 120.392 341.816 121.176 341.62 121.569C341.62 121.961 341.62 123.137 341.031 123.137H340.835C340.443 123.137 339.659 122.353 339.07 122.353C338.09 122.549 338.678 123.529 338.09 123.922C337.502 124.51 335.149 124.51 334.364 124.51C333.188 124.314 332.992 123.922 332.992 123.529C332.992 122.549 332.796 122.353 332.6 122.353C332.207 122.353 331.227 123.922 330.05 123.529C329.854 123.529 329.266 122.745 328.874 123.137C328.678 123.137 328.482 123.333 328.482 123.333C328.482 123.922 331.227 124.902 331.423 124.902C331.031 125.098 329.854 125.294 329.266 125.294C327.501 125.686 324.952 126.471 322.991 126.471C320.246 126.471 320.442 125.098 320.05 123.922C319.854 122.941 318.285 122.745 318.285 121.569C318.285 119.608 320.246 118.824 319.854 116.667C319.462 115.49 319.07 115.294 318.677 115.294C318.089 115.294 317.305 115.686 316.324 115.098C314.167 113.333 313.383 109.412 311.226 108.235C311.03 108.235 310.442 107.843 310.246 108.235C308.481 109.804 306.716 110.784 304.167 111.765C295.735 114.314 287.107 116.275 279.068 119.608C277.107 120.392 272.989 121.373 271.812 123.137C271.224 124.118 271.028 125.098 271.028 126.078C271.028 128.039 271.616 130 271.616 131.765C271.616 138.627 263.969 148.824 256.125 150H255.733ZM334.56 119.804C334.757 119.804 334.953 119.412 334.953 119.02C334.953 118.039 334.168 116.078 332.992 116.078C332.992 116.078 333.58 119.608 334.56 119.804ZM305.343 93.9216C305.343 93.9216 305.539 93.7255 305.539 93.5294C305.539 92.9412 305.147 91.9608 304.951 91.5686L302.598 84.902C299.265 77.0588 297.108 68.4314 293.97 60.7843C293.186 59.4118 292.598 52.549 289.656 53.9216C289.068 54.1176 288.872 55.4902 288.676 56.0784C287.892 58.0392 286.715 59.6078 285.931 61.5686C283.578 68.8235 281.029 76.0784 278.872 83.7255C278.479 85.4902 275.538 91.1765 276.519 92.7451C276.715 92.9412 277.107 93.1373 277.499 93.1373C278.675 93.1373 280.048 92.549 280.832 92.549C285.342 92.549 289.852 90.3922 294.362 90.3922C296.716 90.3922 300.245 90.5882 302.598 92.3529C302.99 92.7451 304.755 94.5098 305.343 93.9216ZM338.874 121.373C339.267 121.373 339.463 121.176 339.463 120.98C339.463 120.196 337.11 118.627 336.521 118.431C336.325 118.431 336.129 118.431 336.129 118.824C336.129 119.608 337.502 121.373 338.482 121.373H338.874Z"/>
        <path d="M166.333 41.8808C167.302 44.7609 168.741 47.2001 170.68 49.1104C172.618 51.05 174.644 52.7839 176.759 54.3709C178.286 55.4877 179.755 56.6339 181.194 57.8976C186.92 63.07 192.823 68.066 198.961 72.8857L199.989 73.7086C200.665 74.3258 201.458 74.8548 202.309 75.2662C203.161 75.6777 203.983 75.8834 204.747 75.8834H205.07C206.186 75.7364 207.243 75.6777 208.271 75.6777C214.262 75.6777 217.258 78.4696 217.258 84.0534C217.258 85.2289 217.111 86.4927 216.847 87.8739C214.644 99.3943 212.236 110.885 209.622 122.376C209.152 124.022 208.301 125.638 207.155 127.225L206.127 128.871C205.511 129.988 204.894 131.105 204.277 132.28C202.897 135.16 201.252 137.835 199.314 140.244C196.641 143.213 193.587 145.182 190.18 146.181C186.774 147.18 183.22 147.856 179.49 148.209C177.963 148.356 176.465 148.561 174.938 148.826C173.352 149.032 171.766 149.149 170.18 149.149C166.333 149.149 162.691 148.473 159.226 147.092C154.41 145.152 149.769 142.742 145.276 139.862C143.896 139.039 142.545 138.246 141.253 137.482C133.675 132.809 128.742 126.99 126.451 120.084C124.131 113.148 122.839 105.772 122.574 97.9248C122.574 97.3077 122.75 96.6611 123.103 96.0146C123.455 95.368 123.866 94.8684 124.336 94.5157C128.595 91.6944 133.088 90.2838 137.758 90.2838C139.96 90.2838 142.222 90.6071 144.571 91.2242C147.949 92.2528 150.415 94.1043 151.943 96.7493C153.499 99.3942 154.733 102.274 155.702 105.39C156.319 107.329 156.73 109.239 156.935 111.179C157.2 113.119 157.64 115 158.227 116.851C158.815 118.703 159.813 120.466 161.282 122.112C164.923 126.373 169.27 128.518 174.292 128.518C174.762 128.518 175.291 128.489 175.849 128.401C182.398 127.225 186.333 123.199 187.713 116.322C189.094 111.444 190.944 106.741 193.293 102.274C194.116 100.482 194.527 98.8065 194.527 97.2195C194.527 94.1337 192.941 91.4887 189.769 89.3727C188.594 88.5499 187.537 87.6682 186.568 86.6984C185.393 85.5228 184.13 84.5236 182.75 83.7007C176.083 80.0566 169.27 76.5593 162.31 73.2678C151.443 67.9778 142.633 60.4838 135.878 50.8443C133.059 45.9658 131.649 41.293 131.649 36.8847C131.649 29.9196 135.173 23.5129 142.192 17.6646C147.625 13.1093 153.499 9.25944 159.843 6.08548C166.715 2.70579 172.618 1.03064 177.493 1.03064C178.668 1.03064 179.813 1.14819 180.9 1.35391C186.333 2.38251 191.913 5.40954 197.64 10.435C201.428 13.5208 205.276 16.489 209.211 19.3103C209.475 19.5161 209.798 19.7218 210.151 19.9275C212.5 21.779 214.174 23.895 215.202 26.2754C216.23 28.6559 216.759 30.7131 216.759 32.4177C216.759 33.2993 216.641 34.181 216.436 35.0039C215.672 37.8839 214.262 40.235 212.148 42.0277C210.063 43.8204 207.625 44.7021 204.865 44.7021H203.925C201.517 44.4376 199.079 43.7029 196.583 42.5273C194.116 41.3518 192.06 39.8824 190.503 38.0897C188.359 35.8855 186.715 34.7394 185.54 34.6806C184.365 34.6218 183.602 34.563 183.279 34.563C181.487 34.563 179.666 34.9157 177.816 35.5916C175.056 36.6202 172.412 38.0015 169.857 39.7354C168.683 40.4995 167.508 41.2048 166.333 41.9102V41.8808Z"/>
        <path d="M19.7645 133.526C17.8549 133.177 16.3908 132.382 15.3724 131.205C14.3539 130.029 13.5264 128.726 12.8899 127.358C12.2534 125.991 11.6168 124.656 10.9803 123.321C10.3437 121.985 9.42075 120.968 8.24316 120.237C6.68364 116.39 5.37874 111.43 4.32846 105.294C3.27817 99.1578 2.41885 92.7674 1.78231 86.0908C1.14577 79.4142 0.700195 72.9284 0.413753 66.6333C0.127311 60.3383 0 55.1242 0 51.0229C0 45.2683 0.190968 39.8634 0.541063 34.7765C0.891159 29.6896 1.71865 24.1576 3.02356 18.1169C3.46913 15.8278 4.10567 13.7294 4.86952 11.8218C5.63336 9.91421 6.65183 8.19737 7.89308 6.73488C9.13432 5.2724 10.6938 4.12784 12.5716 3.30122C14.4494 2.47459 16.7409 2.06128 19.5099 2.06128C21.515 2.06128 23.4882 2.31562 25.3979 2.82432C27.3075 3.33301 29.0261 4.09605 30.4901 5.14522C31.9542 6.1944 33.1318 7.52972 33.9911 9.18296C34.8504 10.8362 35.296 12.8392 35.296 15.2237C35.296 17.6082 34.9777 19.9609 34.3412 22.5679C33.7047 25.175 33.1 27.6548 32.5589 30.0393L32.0178 30.4526C31.6359 31.2793 31.445 31.8833 31.4131 32.2331C31.3813 32.6146 31.3813 32.9325 31.4131 33.1869C31.445 33.473 31.5086 33.8227 31.5404 34.2678C31.5723 34.7129 31.6041 35.4124 31.6041 36.3344C31.3176 38.083 31.0949 40.3403 30.9039 43.1064C30.7129 45.9042 30.5538 48.9563 30.4265 52.2946C30.2992 55.6329 30.1719 59.0984 30.0764 62.7228C29.9809 66.3472 29.9173 69.8445 29.8854 73.2146C29.8536 76.5846 29.8218 79.7004 29.8218 82.53V91.9726C29.9173 92.2587 30.1082 93.0217 30.3628 94.2935C30.6493 95.5652 30.9675 97.0277 31.3176 98.6173C31.6677 100.207 32.0178 101.828 32.3361 103.482C32.6544 105.135 32.909 106.407 33.1 107.329C33.2909 108.06 33.5455 108.982 33.8638 110.127C34.1821 111.271 34.564 112.384 35.0414 113.497C35.487 114.578 36.0599 115.563 36.6964 116.39C37.3329 117.216 38.1604 117.63 39.1789 117.63C41.184 117.63 43.5073 116.867 46.1808 115.309C48.8224 113.751 51.4322 111.875 54.0102 109.681C56.5564 107.488 58.8797 105.167 60.9485 102.75C63.0172 100.334 64.5449 98.204 65.5315 96.3918C66.2635 95.1201 66.8364 93.6258 67.2502 91.9408C67.6639 90.2557 68.3641 88.7296 69.3826 87.3625C70.0191 86.5359 70.6238 85.8365 71.1649 85.2324C71.7059 84.6283 72.1515 84.056 72.4698 83.5156C72.7881 82.9751 73.0427 82.371 73.2336 81.7351C73.4246 81.0993 73.5201 80.2409 73.5201 79.1281C73.5201 78.0153 73.5201 76.3939 73.4564 74.2001C73.4246 72.0064 73.3291 69.5265 73.17 66.7287C73.0427 63.9309 72.8836 61.0059 72.6926 57.9538C72.5016 54.9016 72.2788 51.9767 71.9924 49.2424C71.706 46.5082 71.4513 44.0284 71.1649 41.8346C70.8784 39.6409 70.5602 37.9876 70.2101 36.9067L69.9236 36.6205C69.7327 36.4298 69.5417 36.3344 69.3826 36.3344C69.5736 33.5048 69.4144 30.8977 68.9688 28.5133C68.5233 26.1288 68.2686 23.5853 68.2686 20.8511C68.2686 18.3076 69.2871 16.3364 71.2922 15.0329C73.2973 13.6976 75.4933 13.0299 77.8804 13.0299C79.2489 13.0299 80.7448 13.2525 82.3361 13.7294C83.9275 14.1745 85.4233 14.4288 86.7919 14.4288C86.8874 14.4288 86.9829 14.3335 87.142 14.1427C87.2693 13.9519 87.3966 13.8566 87.4921 13.8566H87.9058C88.9879 13.8566 89.8154 14.3971 90.3883 15.4462C90.9294 16.4954 91.4068 17.3856 91.7569 18.1169C92.3934 18.8481 93.1254 19.2296 93.9529 19.2932C94.7804 19.325 95.417 19.7383 95.8625 20.4696C96.3081 21.1054 96.8174 23.0448 97.3584 26.2877C97.8995 29.5306 98.4405 33.473 99.0134 38.083C99.5545 42.693 100.064 47.6846 100.509 53.0258C100.955 58.3671 101.369 63.4222 101.751 68.1594C102.101 72.8966 102.387 77.0615 102.578 80.6224C102.769 84.1832 102.864 86.5041 102.864 87.6169C102.864 90.5419 102.896 93.5622 102.992 96.678C103.087 99.7937 102.61 102.719 101.623 105.453V123.543C101.719 123.734 101.91 124.306 102.164 125.324C102.451 126.341 102.673 126.977 102.864 127.231V128.058C102.673 128.249 102.323 128.567 101.782 129.012C101.241 129.457 100.955 129.775 100.955 129.965C100.573 130.697 100.382 131.301 100.35 131.746C100.318 132.191 100.223 132.573 100.159 132.827C100.064 133.113 99.8727 133.272 99.5545 133.367C99.2362 133.463 98.6633 133.495 97.8358 133.495V134.862C97.3902 134.862 96.6901 134.989 95.7671 135.275C94.8441 135.561 94.494 136.038 94.6849 136.769C94.494 136.769 94.2394 136.833 93.8574 136.96C93.4755 137.087 93.2209 137.151 93.03 137.151C92.2025 137.151 91.6932 136.992 91.4386 136.674C91.2158 136.356 90.8339 136.197 90.261 136.197C89.8154 136.197 89.529 136.356 89.4335 136.674C89.338 136.992 89.1153 137.151 88.7333 137.151L88.0331 136.737C88.0331 136.737 87.5239 136.578 86.7919 136.261C86.0599 135.943 85.6143 135.784 85.4233 135.784C85.2324 135.784 84.9141 135.847 84.4685 135.974C84.0229 136.102 83.7365 136.165 83.641 136.165H82.6862C81.7632 136.165 80.8403 135.815 79.8854 135.084C78.9306 134.353 78.0395 133.495 77.212 132.477C76.3845 131.46 75.7161 130.411 75.1432 129.33C74.5704 128.249 74.2203 127.327 74.0611 126.595H72.6926C72.4061 126.786 71.9924 127.041 71.4513 127.422C70.9103 127.804 70.3374 128.185 69.7327 128.598C69.128 129.012 68.5551 129.393 67.9504 129.775C67.3457 130.156 66.9319 130.379 66.6455 130.474C65.7225 130.919 64.9905 131.301 64.4494 131.555C63.9084 131.809 63.3673 132.127 62.8581 132.445C62.3488 132.763 61.9669 132.986 61.6805 133.049C60.662 133.495 59.3571 134.13 57.7658 134.957C56.1744 135.784 54.8059 136.197 53.7238 136.197L53.1827 135.784C52.7371 135.784 52.1961 135.911 51.5914 136.133C50.9867 136.356 50.7002 136.833 50.7002 137.564L50.1592 136.737L49.3317 137.564C48.3132 137.659 47.3266 137.755 46.3081 137.85C45.4806 137.946 44.6531 138.009 43.8256 138.041C42.9981 138.073 42.3297 138.105 41.7569 138.105H31.1903C31.1903 138.105 30.4265 137.946 29.1216 137.628C27.8485 137.31 26.8937 137.024 26.2253 136.737C25.7798 136.737 25.0478 136.578 24.0293 136.261C23.0108 135.943 22.3743 135.784 22.1197 135.784C21.9287 135.593 21.4831 135.339 20.7511 134.957C20.3692 134.766 20.0509 134.607 19.7963 134.417V133.463L19.7645 133.526ZM64.0993 128.598C63.9084 128.598 63.8129 128.726 63.8129 128.948C63.8129 129.171 63.9084 129.298 64.0993 129.298C64.2903 129.202 64.3858 129.075 64.3858 128.885C64.3858 128.694 64.2903 128.598 64.0993 128.598ZM72.5971 87.3307C72.3107 87.3307 72.1833 87.5533 72.1833 88.0302C72.1833 88.5071 72.3107 88.7296 72.5971 88.7296C72.7881 88.7296 72.8835 88.5071 72.8835 88.0302C72.8835 87.5533 72.7881 87.3307 72.5971 87.3307ZM96.881 131.873C96.5946 131.873 96.4673 132.064 96.4673 132.477C96.4673 132.89 96.5946 133.081 96.881 133.081C97.3266 133.081 97.5812 132.89 97.5812 132.477C97.5812 132.064 97.3584 131.873 96.881 131.873Z"/>
    </g>
</svg>
